G04 #@! TF.GenerationSoftware,KiCad,Pcbnew,9.0.7*
G04 #@! TF.CreationDate,2026-02-18T19:16:35+11:00*
G04 #@! TF.ProjectId,noahs-macropad,6e6f6168-732d-46d6-9163-726f7061642e,rev?*
G04 #@! TF.SameCoordinates,Original*
G04 #@! TF.FileFunction,Soldermask,Bot*
G04 #@! TF.FilePolarity,Negative*
%FSLAX46Y46*%
G04 Gerber Fmt 4.6, Leading zero omitted, Abs format (unit mm)*
G04 Created by KiCad (PCBNEW 9.0.7) date 2026-02-18 19:16:35*
%MOMM*%
%LPD*%
G01*
G04 APERTURE LIST*
%ADD10R,1.600000X1.600000*%
%ADD11O,1.600000X1.600000*%
%ADD12C,1.700000*%
%ADD13C,4.000000*%
%ADD14C,2.200000*%
%ADD15R,3.500000X1.700000*%
%ADD16O,3.600000X1.700000*%
%ADD17O,3.700000X1.700000*%
G04 APERTURE END LIST*
D10*
X69000000Y-114500000D03*
D11*
X69000000Y-106880000D03*
D12*
X54420000Y-109500000D03*
D13*
X59500000Y-109500000D03*
D12*
X64580000Y-109500000D03*
D14*
X62040000Y-104420000D03*
X55690000Y-106960000D03*
D10*
X88000000Y-133810000D03*
D11*
X88000000Y-126190000D03*
D10*
X107000000Y-133810000D03*
D11*
X107000000Y-126190000D03*
D15*
X30000000Y-104201000D03*
D16*
X30000000Y-106741000D03*
X30000000Y-109281000D03*
X30000000Y-111821000D03*
X30000000Y-114361000D03*
X30000000Y-116901000D03*
X30000000Y-119441000D03*
X47250000Y-119441000D03*
X47250000Y-116901000D03*
X47250000Y-114361000D03*
D17*
X47250000Y-111821000D03*
X47250000Y-109281000D03*
X47250000Y-106741000D03*
X47250000Y-104201000D03*
D10*
X69000000Y-133810000D03*
D11*
X69000000Y-126190000D03*
D10*
X88000000Y-114310000D03*
D11*
X88000000Y-106690000D03*
D12*
X73420000Y-128500000D03*
D13*
X78500000Y-128500000D03*
D12*
X83580000Y-128500000D03*
D14*
X81040000Y-123420000D03*
X74690000Y-125960000D03*
D12*
X111420000Y-128500000D03*
D13*
X116500000Y-128500000D03*
D12*
X121580000Y-128500000D03*
D14*
X119040000Y-123420000D03*
X112690000Y-125960000D03*
D12*
X92420000Y-128500000D03*
D13*
X97500000Y-128500000D03*
D12*
X102580000Y-128500000D03*
D14*
X100040000Y-123420000D03*
X93690000Y-125960000D03*
D10*
X124500000Y-114310000D03*
D11*
X124500000Y-106690000D03*
D10*
X124500000Y-133810000D03*
D11*
X124500000Y-126190000D03*
D12*
X92420000Y-109500000D03*
D13*
X97500000Y-109500000D03*
D12*
X102580000Y-109500000D03*
D14*
X100040000Y-104420000D03*
X93690000Y-106960000D03*
D12*
X73420000Y-109500000D03*
D13*
X78500000Y-109500000D03*
D12*
X83580000Y-109500000D03*
D14*
X81040000Y-104420000D03*
X74690000Y-106960000D03*
D12*
X111420000Y-109500000D03*
D13*
X116500000Y-109500000D03*
D12*
X121580000Y-109500000D03*
D14*
X119040000Y-104420000D03*
X112690000Y-106960000D03*
D12*
X54420000Y-128500000D03*
D13*
X59500000Y-128500000D03*
D12*
X64580000Y-128500000D03*
D14*
X62040000Y-123420000D03*
X55690000Y-125960000D03*
D10*
X107000000Y-114310000D03*
D11*
X107000000Y-106690000D03*
M02*
