M48
; DRILL file {KiCad 9.0.7} date 2026-02-18T19:15:15+1100
; FORMAT={-:-/ absolute / metric / decimal}
; #@! TF.CreationDate,2026-02-18T19:15:15+11:00
; #@! TF.GenerationSoftware,Kicad,Pcbnew,9.0.7
; #@! TF.FileFunction,Plated,1,2,PTH
FMAT,2
METRIC
; #@! TA.AperFunction,Plated,PTH,ViaDrill
T1C0.300
; #@! TA.AperFunction,Plated,PTH,ComponentDrill
T2C0.800
; #@! TA.AperFunction,Plated,PTH,ComponentDrill
T3C1.000
; #@! TA.AperFunction,Plated,PTH,ComponentDrill
T4C1.500
%
G90
G05
T1
X51.5Y-116.0
X54.0Y-119.5
T2
X69.0Y-106.88
X69.0Y-114.5
X69.0Y-126.19
X69.0Y-133.81
X88.0Y-106.69
X88.0Y-114.31
X88.0Y-126.19
X88.0Y-133.81
X107.0Y-106.69
X107.0Y-114.31
X107.0Y-126.19
X107.0Y-133.81
X124.5Y-106.69
X124.5Y-114.31
X124.5Y-126.19
X124.5Y-133.81
T3
X31.0Y-104.201
X31.0Y-106.741
X31.0Y-109.281
X31.0Y-111.821
X31.0Y-114.361
X31.0Y-116.901
X31.0Y-119.441
X46.25Y-104.201
X46.25Y-106.741
X46.25Y-109.281
X46.25Y-111.821
X46.25Y-114.361
X46.25Y-116.901
X46.25Y-119.441
T4
X55.69Y-106.96
X55.69Y-125.96
X62.04Y-104.42
X62.04Y-123.42
X74.69Y-106.96
X74.69Y-125.96
X81.04Y-104.42
X81.04Y-123.42
X93.69Y-106.96
X93.69Y-125.96
X100.04Y-104.42
X100.04Y-123.42
X112.69Y-106.96
X112.69Y-125.96
X119.04Y-104.42
X119.04Y-123.42
M30
