G04 #@! TF.GenerationSoftware,KiCad,Pcbnew,9.0.7*
G04 #@! TF.CreationDate,2026-02-18T19:16:34+11:00*
G04 #@! TF.ProjectId,noahs-macropad,6e6f6168-732d-46d6-9163-726f7061642e,rev?*
G04 #@! TF.SameCoordinates,Original*
G04 #@! TF.FileFunction,Copper,L1,Top*
G04 #@! TF.FilePolarity,Positive*
%FSLAX46Y46*%
G04 Gerber Fmt 4.6, Leading zero omitted, Abs format (unit mm)*
G04 Created by KiCad (PCBNEW 9.0.7) date 2026-02-18 19:16:34*
%MOMM*%
%LPD*%
G01*
G04 APERTURE LIST*
%ADD10C,0.150000*%
G04 #@! TA.AperFunction,NonConductor*
%ADD11C,0.150000*%
G04 #@! TD*
G04 #@! TA.AperFunction,ComponentPad*
%ADD12R,1.600000X1.600000*%
G04 #@! TD*
G04 #@! TA.AperFunction,ComponentPad*
%ADD13O,1.600000X1.600000*%
G04 #@! TD*
G04 #@! TA.AperFunction,ComponentPad*
%ADD14C,2.200000*%
G04 #@! TD*
G04 #@! TA.AperFunction,ComponentPad*
%ADD15R,3.500000X1.700000*%
G04 #@! TD*
G04 #@! TA.AperFunction,ComponentPad*
%ADD16O,3.600000X1.700000*%
G04 #@! TD*
G04 #@! TA.AperFunction,ComponentPad*
%ADD17O,3.700000X1.700000*%
G04 #@! TD*
G04 #@! TA.AperFunction,ViaPad*
%ADD18C,0.600000*%
G04 #@! TD*
G04 #@! TA.AperFunction,Conductor*
%ADD19C,0.200000*%
G04 #@! TD*
G04 APERTURE END LIST*
D10*
D11*
X31360588Y-129869819D02*
X30789160Y-129869819D01*
X31074874Y-129869819D02*
X31074874Y-128869819D01*
X31074874Y-128869819D02*
X30979636Y-129012676D01*
X30979636Y-129012676D02*
X30884398Y-129107914D01*
X30884398Y-129107914D02*
X30789160Y-129155533D01*
X31932017Y-129298390D02*
X31836779Y-129250771D01*
X31836779Y-129250771D02*
X31789160Y-129203152D01*
X31789160Y-129203152D02*
X31741541Y-129107914D01*
X31741541Y-129107914D02*
X31741541Y-129060295D01*
X31741541Y-129060295D02*
X31789160Y-128965057D01*
X31789160Y-128965057D02*
X31836779Y-128917438D01*
X31836779Y-128917438D02*
X31932017Y-128869819D01*
X31932017Y-128869819D02*
X32122493Y-128869819D01*
X32122493Y-128869819D02*
X32217731Y-128917438D01*
X32217731Y-128917438D02*
X32265350Y-128965057D01*
X32265350Y-128965057D02*
X32312969Y-129060295D01*
X32312969Y-129060295D02*
X32312969Y-129107914D01*
X32312969Y-129107914D02*
X32265350Y-129203152D01*
X32265350Y-129203152D02*
X32217731Y-129250771D01*
X32217731Y-129250771D02*
X32122493Y-129298390D01*
X32122493Y-129298390D02*
X31932017Y-129298390D01*
X31932017Y-129298390D02*
X31836779Y-129346009D01*
X31836779Y-129346009D02*
X31789160Y-129393628D01*
X31789160Y-129393628D02*
X31741541Y-129488866D01*
X31741541Y-129488866D02*
X31741541Y-129679342D01*
X31741541Y-129679342D02*
X31789160Y-129774580D01*
X31789160Y-129774580D02*
X31836779Y-129822200D01*
X31836779Y-129822200D02*
X31932017Y-129869819D01*
X31932017Y-129869819D02*
X32122493Y-129869819D01*
X32122493Y-129869819D02*
X32217731Y-129822200D01*
X32217731Y-129822200D02*
X32265350Y-129774580D01*
X32265350Y-129774580D02*
X32312969Y-129679342D01*
X32312969Y-129679342D02*
X32312969Y-129488866D01*
X32312969Y-129488866D02*
X32265350Y-129393628D01*
X32265350Y-129393628D02*
X32217731Y-129346009D01*
X32217731Y-129346009D02*
X32122493Y-129298390D01*
X33455826Y-128822200D02*
X32598684Y-130107914D01*
X33979636Y-128869819D02*
X34074874Y-128869819D01*
X34074874Y-128869819D02*
X34170112Y-128917438D01*
X34170112Y-128917438D02*
X34217731Y-128965057D01*
X34217731Y-128965057D02*
X34265350Y-129060295D01*
X34265350Y-129060295D02*
X34312969Y-129250771D01*
X34312969Y-129250771D02*
X34312969Y-129488866D01*
X34312969Y-129488866D02*
X34265350Y-129679342D01*
X34265350Y-129679342D02*
X34217731Y-129774580D01*
X34217731Y-129774580D02*
X34170112Y-129822200D01*
X34170112Y-129822200D02*
X34074874Y-129869819D01*
X34074874Y-129869819D02*
X33979636Y-129869819D01*
X33979636Y-129869819D02*
X33884398Y-129822200D01*
X33884398Y-129822200D02*
X33836779Y-129774580D01*
X33836779Y-129774580D02*
X33789160Y-129679342D01*
X33789160Y-129679342D02*
X33741541Y-129488866D01*
X33741541Y-129488866D02*
X33741541Y-129250771D01*
X33741541Y-129250771D02*
X33789160Y-129060295D01*
X33789160Y-129060295D02*
X33836779Y-128965057D01*
X33836779Y-128965057D02*
X33884398Y-128917438D01*
X33884398Y-128917438D02*
X33979636Y-128869819D01*
X34693922Y-128965057D02*
X34741541Y-128917438D01*
X34741541Y-128917438D02*
X34836779Y-128869819D01*
X34836779Y-128869819D02*
X35074874Y-128869819D01*
X35074874Y-128869819D02*
X35170112Y-128917438D01*
X35170112Y-128917438D02*
X35217731Y-128965057D01*
X35217731Y-128965057D02*
X35265350Y-129060295D01*
X35265350Y-129060295D02*
X35265350Y-129155533D01*
X35265350Y-129155533D02*
X35217731Y-129298390D01*
X35217731Y-129298390D02*
X34646303Y-129869819D01*
X34646303Y-129869819D02*
X35265350Y-129869819D01*
X36408207Y-128822200D02*
X35551065Y-130107914D01*
X36693922Y-128965057D02*
X36741541Y-128917438D01*
X36741541Y-128917438D02*
X36836779Y-128869819D01*
X36836779Y-128869819D02*
X37074874Y-128869819D01*
X37074874Y-128869819D02*
X37170112Y-128917438D01*
X37170112Y-128917438D02*
X37217731Y-128965057D01*
X37217731Y-128965057D02*
X37265350Y-129060295D01*
X37265350Y-129060295D02*
X37265350Y-129155533D01*
X37265350Y-129155533D02*
X37217731Y-129298390D01*
X37217731Y-129298390D02*
X36646303Y-129869819D01*
X36646303Y-129869819D02*
X37265350Y-129869819D01*
X38122493Y-128869819D02*
X37932017Y-128869819D01*
X37932017Y-128869819D02*
X37836779Y-128917438D01*
X37836779Y-128917438D02*
X37789160Y-128965057D01*
X37789160Y-128965057D02*
X37693922Y-129107914D01*
X37693922Y-129107914D02*
X37646303Y-129298390D01*
X37646303Y-129298390D02*
X37646303Y-129679342D01*
X37646303Y-129679342D02*
X37693922Y-129774580D01*
X37693922Y-129774580D02*
X37741541Y-129822200D01*
X37741541Y-129822200D02*
X37836779Y-129869819D01*
X37836779Y-129869819D02*
X38027255Y-129869819D01*
X38027255Y-129869819D02*
X38122493Y-129822200D01*
X38122493Y-129822200D02*
X38170112Y-129774580D01*
X38170112Y-129774580D02*
X38217731Y-129679342D01*
X38217731Y-129679342D02*
X38217731Y-129441247D01*
X38217731Y-129441247D02*
X38170112Y-129346009D01*
X38170112Y-129346009D02*
X38122493Y-129298390D01*
X38122493Y-129298390D02*
X38027255Y-129250771D01*
X38027255Y-129250771D02*
X37836779Y-129250771D01*
X37836779Y-129250771D02*
X37741541Y-129298390D01*
X37741541Y-129298390D02*
X37693922Y-129346009D01*
X37693922Y-129346009D02*
X37646303Y-129441247D01*
D10*
D11*
X30336779Y-132759875D02*
X30336779Y-131759875D01*
X30336779Y-131759875D02*
X30670112Y-132474160D01*
X30670112Y-132474160D02*
X31003445Y-131759875D01*
X31003445Y-131759875D02*
X31003445Y-132759875D01*
X31908207Y-132759875D02*
X31908207Y-132236065D01*
X31908207Y-132236065D02*
X31860588Y-132140827D01*
X31860588Y-132140827D02*
X31765350Y-132093208D01*
X31765350Y-132093208D02*
X31574874Y-132093208D01*
X31574874Y-132093208D02*
X31479636Y-132140827D01*
X31908207Y-132712256D02*
X31812969Y-132759875D01*
X31812969Y-132759875D02*
X31574874Y-132759875D01*
X31574874Y-132759875D02*
X31479636Y-132712256D01*
X31479636Y-132712256D02*
X31432017Y-132617017D01*
X31432017Y-132617017D02*
X31432017Y-132521779D01*
X31432017Y-132521779D02*
X31479636Y-132426541D01*
X31479636Y-132426541D02*
X31574874Y-132378922D01*
X31574874Y-132378922D02*
X31812969Y-132378922D01*
X31812969Y-132378922D02*
X31908207Y-132331303D01*
X32812969Y-132759875D02*
X32812969Y-131759875D01*
X32812969Y-132712256D02*
X32717731Y-132759875D01*
X32717731Y-132759875D02*
X32527255Y-132759875D01*
X32527255Y-132759875D02*
X32432017Y-132712256D01*
X32432017Y-132712256D02*
X32384398Y-132664636D01*
X32384398Y-132664636D02*
X32336779Y-132569398D01*
X32336779Y-132569398D02*
X32336779Y-132283684D01*
X32336779Y-132283684D02*
X32384398Y-132188446D01*
X32384398Y-132188446D02*
X32432017Y-132140827D01*
X32432017Y-132140827D02*
X32527255Y-132093208D01*
X32527255Y-132093208D02*
X32717731Y-132093208D01*
X32717731Y-132093208D02*
X32812969Y-132140827D01*
X33670112Y-132712256D02*
X33574874Y-132759875D01*
X33574874Y-132759875D02*
X33384398Y-132759875D01*
X33384398Y-132759875D02*
X33289160Y-132712256D01*
X33289160Y-132712256D02*
X33241541Y-132617017D01*
X33241541Y-132617017D02*
X33241541Y-132236065D01*
X33241541Y-132236065D02*
X33289160Y-132140827D01*
X33289160Y-132140827D02*
X33384398Y-132093208D01*
X33384398Y-132093208D02*
X33574874Y-132093208D01*
X33574874Y-132093208D02*
X33670112Y-132140827D01*
X33670112Y-132140827D02*
X33717731Y-132236065D01*
X33717731Y-132236065D02*
X33717731Y-132331303D01*
X33717731Y-132331303D02*
X33241541Y-132426541D01*
X34812970Y-132093208D02*
X35003446Y-132759875D01*
X35003446Y-132759875D02*
X35193922Y-132283684D01*
X35193922Y-132283684D02*
X35384398Y-132759875D01*
X35384398Y-132759875D02*
X35574874Y-132093208D01*
X35955827Y-132759875D02*
X35955827Y-132093208D01*
X35955827Y-131759875D02*
X35908208Y-131807494D01*
X35908208Y-131807494D02*
X35955827Y-131855113D01*
X35955827Y-131855113D02*
X36003446Y-131807494D01*
X36003446Y-131807494D02*
X35955827Y-131759875D01*
X35955827Y-131759875D02*
X35955827Y-131855113D01*
X36289160Y-132093208D02*
X36670112Y-132093208D01*
X36432017Y-131759875D02*
X36432017Y-132617017D01*
X36432017Y-132617017D02*
X36479636Y-132712256D01*
X36479636Y-132712256D02*
X36574874Y-132759875D01*
X36574874Y-132759875D02*
X36670112Y-132759875D01*
X37003446Y-132759875D02*
X37003446Y-131759875D01*
X37432017Y-132759875D02*
X37432017Y-132236065D01*
X37432017Y-132236065D02*
X37384398Y-132140827D01*
X37384398Y-132140827D02*
X37289160Y-132093208D01*
X37289160Y-132093208D02*
X37146303Y-132093208D01*
X37146303Y-132093208D02*
X37051065Y-132140827D01*
X37051065Y-132140827D02*
X37003446Y-132188446D01*
X39432018Y-132093208D02*
X38670113Y-132378922D01*
X38670113Y-132378922D02*
X39432018Y-132664636D01*
X39812970Y-131759875D02*
X40432017Y-131759875D01*
X40432017Y-131759875D02*
X40098684Y-132140827D01*
X40098684Y-132140827D02*
X40241541Y-132140827D01*
X40241541Y-132140827D02*
X40336779Y-132188446D01*
X40336779Y-132188446D02*
X40384398Y-132236065D01*
X40384398Y-132236065D02*
X40432017Y-132331303D01*
X40432017Y-132331303D02*
X40432017Y-132569398D01*
X40432017Y-132569398D02*
X40384398Y-132664636D01*
X40384398Y-132664636D02*
X40336779Y-132712256D01*
X40336779Y-132712256D02*
X40241541Y-132759875D01*
X40241541Y-132759875D02*
X39955827Y-132759875D01*
X39955827Y-132759875D02*
X39860589Y-132712256D01*
X39860589Y-132712256D02*
X39812970Y-132664636D01*
X30336779Y-134369819D02*
X30336779Y-133369819D01*
X30336779Y-133750771D02*
X30432017Y-133703152D01*
X30432017Y-133703152D02*
X30622493Y-133703152D01*
X30622493Y-133703152D02*
X30717731Y-133750771D01*
X30717731Y-133750771D02*
X30765350Y-133798390D01*
X30765350Y-133798390D02*
X30812969Y-133893628D01*
X30812969Y-133893628D02*
X30812969Y-134179342D01*
X30812969Y-134179342D02*
X30765350Y-134274580D01*
X30765350Y-134274580D02*
X30717731Y-134322200D01*
X30717731Y-134322200D02*
X30622493Y-134369819D01*
X30622493Y-134369819D02*
X30432017Y-134369819D01*
X30432017Y-134369819D02*
X30336779Y-134322200D01*
X31146303Y-133703152D02*
X31384398Y-134369819D01*
X31622493Y-133703152D02*
X31384398Y-134369819D01*
X31384398Y-134369819D02*
X31289160Y-134607914D01*
X31289160Y-134607914D02*
X31241541Y-134655533D01*
X31241541Y-134655533D02*
X31146303Y-134703152D01*
X32765351Y-134369819D02*
X32765351Y-133369819D01*
X32765351Y-133369819D02*
X33336779Y-134369819D01*
X33336779Y-134369819D02*
X33336779Y-133369819D01*
X33955827Y-134369819D02*
X33860589Y-134322200D01*
X33860589Y-134322200D02*
X33812970Y-134274580D01*
X33812970Y-134274580D02*
X33765351Y-134179342D01*
X33765351Y-134179342D02*
X33765351Y-133893628D01*
X33765351Y-133893628D02*
X33812970Y-133798390D01*
X33812970Y-133798390D02*
X33860589Y-133750771D01*
X33860589Y-133750771D02*
X33955827Y-133703152D01*
X33955827Y-133703152D02*
X34098684Y-133703152D01*
X34098684Y-133703152D02*
X34193922Y-133750771D01*
X34193922Y-133750771D02*
X34241541Y-133798390D01*
X34241541Y-133798390D02*
X34289160Y-133893628D01*
X34289160Y-133893628D02*
X34289160Y-134179342D01*
X34289160Y-134179342D02*
X34241541Y-134274580D01*
X34241541Y-134274580D02*
X34193922Y-134322200D01*
X34193922Y-134322200D02*
X34098684Y-134369819D01*
X34098684Y-134369819D02*
X33955827Y-134369819D01*
X35146303Y-134369819D02*
X35146303Y-133846009D01*
X35146303Y-133846009D02*
X35098684Y-133750771D01*
X35098684Y-133750771D02*
X35003446Y-133703152D01*
X35003446Y-133703152D02*
X34812970Y-133703152D01*
X34812970Y-133703152D02*
X34717732Y-133750771D01*
X35146303Y-134322200D02*
X35051065Y-134369819D01*
X35051065Y-134369819D02*
X34812970Y-134369819D01*
X34812970Y-134369819D02*
X34717732Y-134322200D01*
X34717732Y-134322200D02*
X34670113Y-134226961D01*
X34670113Y-134226961D02*
X34670113Y-134131723D01*
X34670113Y-134131723D02*
X34717732Y-134036485D01*
X34717732Y-134036485D02*
X34812970Y-133988866D01*
X34812970Y-133988866D02*
X35051065Y-133988866D01*
X35051065Y-133988866D02*
X35146303Y-133941247D01*
X35622494Y-134369819D02*
X35622494Y-133369819D01*
X36051065Y-134369819D02*
X36051065Y-133846009D01*
X36051065Y-133846009D02*
X36003446Y-133750771D01*
X36003446Y-133750771D02*
X35908208Y-133703152D01*
X35908208Y-133703152D02*
X35765351Y-133703152D01*
X35765351Y-133703152D02*
X35670113Y-133750771D01*
X35670113Y-133750771D02*
X35622494Y-133798390D01*
X37241542Y-134322200D02*
X37384399Y-134369819D01*
X37384399Y-134369819D02*
X37622494Y-134369819D01*
X37622494Y-134369819D02*
X37717732Y-134322200D01*
X37717732Y-134322200D02*
X37765351Y-134274580D01*
X37765351Y-134274580D02*
X37812970Y-134179342D01*
X37812970Y-134179342D02*
X37812970Y-134084104D01*
X37812970Y-134084104D02*
X37765351Y-133988866D01*
X37765351Y-133988866D02*
X37717732Y-133941247D01*
X37717732Y-133941247D02*
X37622494Y-133893628D01*
X37622494Y-133893628D02*
X37432018Y-133846009D01*
X37432018Y-133846009D02*
X37336780Y-133798390D01*
X37336780Y-133798390D02*
X37289161Y-133750771D01*
X37289161Y-133750771D02*
X37241542Y-133655533D01*
X37241542Y-133655533D02*
X37241542Y-133560295D01*
X37241542Y-133560295D02*
X37289161Y-133465057D01*
X37289161Y-133465057D02*
X37336780Y-133417438D01*
X37336780Y-133417438D02*
X37432018Y-133369819D01*
X37432018Y-133369819D02*
X37670113Y-133369819D01*
X37670113Y-133369819D02*
X37812970Y-133417438D01*
X38241542Y-134369819D02*
X38241542Y-133369819D01*
X38670113Y-134369819D02*
X38670113Y-133846009D01*
X38670113Y-133846009D02*
X38622494Y-133750771D01*
X38622494Y-133750771D02*
X38527256Y-133703152D01*
X38527256Y-133703152D02*
X38384399Y-133703152D01*
X38384399Y-133703152D02*
X38289161Y-133750771D01*
X38289161Y-133750771D02*
X38241542Y-133798390D01*
X39527256Y-134322200D02*
X39432018Y-134369819D01*
X39432018Y-134369819D02*
X39241542Y-134369819D01*
X39241542Y-134369819D02*
X39146304Y-134322200D01*
X39146304Y-134322200D02*
X39098685Y-134226961D01*
X39098685Y-134226961D02*
X39098685Y-133846009D01*
X39098685Y-133846009D02*
X39146304Y-133750771D01*
X39146304Y-133750771D02*
X39241542Y-133703152D01*
X39241542Y-133703152D02*
X39432018Y-133703152D01*
X39432018Y-133703152D02*
X39527256Y-133750771D01*
X39527256Y-133750771D02*
X39574875Y-133846009D01*
X39574875Y-133846009D02*
X39574875Y-133941247D01*
X39574875Y-133941247D02*
X39098685Y-134036485D01*
X40003447Y-133703152D02*
X40003447Y-134703152D01*
X40003447Y-133750771D02*
X40098685Y-133703152D01*
X40098685Y-133703152D02*
X40289161Y-133703152D01*
X40289161Y-133703152D02*
X40384399Y-133750771D01*
X40384399Y-133750771D02*
X40432018Y-133798390D01*
X40432018Y-133798390D02*
X40479637Y-133893628D01*
X40479637Y-133893628D02*
X40479637Y-134179342D01*
X40479637Y-134179342D02*
X40432018Y-134274580D01*
X40432018Y-134274580D02*
X40384399Y-134322200D01*
X40384399Y-134322200D02*
X40289161Y-134369819D01*
X40289161Y-134369819D02*
X40098685Y-134369819D01*
X40098685Y-134369819D02*
X40003447Y-134322200D01*
X40908209Y-133703152D02*
X40908209Y-134703152D01*
X40908209Y-133750771D02*
X41003447Y-133703152D01*
X41003447Y-133703152D02*
X41193923Y-133703152D01*
X41193923Y-133703152D02*
X41289161Y-133750771D01*
X41289161Y-133750771D02*
X41336780Y-133798390D01*
X41336780Y-133798390D02*
X41384399Y-133893628D01*
X41384399Y-133893628D02*
X41384399Y-134179342D01*
X41384399Y-134179342D02*
X41336780Y-134274580D01*
X41336780Y-134274580D02*
X41289161Y-134322200D01*
X41289161Y-134322200D02*
X41193923Y-134369819D01*
X41193923Y-134369819D02*
X41003447Y-134369819D01*
X41003447Y-134369819D02*
X40908209Y-134322200D01*
X42241542Y-134369819D02*
X42241542Y-133846009D01*
X42241542Y-133846009D02*
X42193923Y-133750771D01*
X42193923Y-133750771D02*
X42098685Y-133703152D01*
X42098685Y-133703152D02*
X41908209Y-133703152D01*
X41908209Y-133703152D02*
X41812971Y-133750771D01*
X42241542Y-134322200D02*
X42146304Y-134369819D01*
X42146304Y-134369819D02*
X41908209Y-134369819D01*
X41908209Y-134369819D02*
X41812971Y-134322200D01*
X41812971Y-134322200D02*
X41765352Y-134226961D01*
X41765352Y-134226961D02*
X41765352Y-134131723D01*
X41765352Y-134131723D02*
X41812971Y-134036485D01*
X41812971Y-134036485D02*
X41908209Y-133988866D01*
X41908209Y-133988866D02*
X42146304Y-133988866D01*
X42146304Y-133988866D02*
X42241542Y-133941247D01*
X42717733Y-134369819D02*
X42717733Y-133703152D01*
X42717733Y-133893628D02*
X42765352Y-133798390D01*
X42765352Y-133798390D02*
X42812971Y-133750771D01*
X42812971Y-133750771D02*
X42908209Y-133703152D01*
X42908209Y-133703152D02*
X43003447Y-133703152D01*
X43765352Y-134369819D02*
X43765352Y-133369819D01*
X43765352Y-134322200D02*
X43670114Y-134369819D01*
X43670114Y-134369819D02*
X43479638Y-134369819D01*
X43479638Y-134369819D02*
X43384400Y-134322200D01*
X43384400Y-134322200D02*
X43336781Y-134274580D01*
X43336781Y-134274580D02*
X43289162Y-134179342D01*
X43289162Y-134179342D02*
X43289162Y-133893628D01*
X43289162Y-133893628D02*
X43336781Y-133798390D01*
X43336781Y-133798390D02*
X43384400Y-133750771D01*
X43384400Y-133750771D02*
X43479638Y-133703152D01*
X43479638Y-133703152D02*
X43670114Y-133703152D01*
X43670114Y-133703152D02*
X43765352Y-133750771D01*
D12*
X69000000Y-114500000D03*
D13*
X69000000Y-106880000D03*
D14*
X62040000Y-104420000D03*
X55690000Y-106960000D03*
D12*
X88000000Y-133810000D03*
D13*
X88000000Y-126190000D03*
D12*
X107000000Y-133810000D03*
D13*
X107000000Y-126190000D03*
D15*
X30000000Y-104201000D03*
D16*
X30000000Y-106741000D03*
X30000000Y-109281000D03*
X30000000Y-111821000D03*
X30000000Y-114361000D03*
X30000000Y-116901000D03*
X30000000Y-119441000D03*
X47250000Y-119441000D03*
X47250000Y-116901000D03*
X47250000Y-114361000D03*
D17*
X47250000Y-111821000D03*
X47250000Y-109281000D03*
X47250000Y-106741000D03*
X47250000Y-104201000D03*
D12*
X69000000Y-133810000D03*
D13*
X69000000Y-126190000D03*
D12*
X88000000Y-114310000D03*
D13*
X88000000Y-106690000D03*
D14*
X81040000Y-123420000D03*
X74690000Y-125960000D03*
X119040000Y-123420000D03*
X112690000Y-125960000D03*
X100040000Y-123420000D03*
X93690000Y-125960000D03*
D12*
X124500000Y-114310000D03*
D13*
X124500000Y-106690000D03*
D12*
X124500000Y-133810000D03*
D13*
X124500000Y-126190000D03*
D14*
X100040000Y-104420000D03*
X93690000Y-106960000D03*
X81040000Y-104420000D03*
X74690000Y-106960000D03*
X119040000Y-104420000D03*
X112690000Y-106960000D03*
X62040000Y-123420000D03*
X55690000Y-125960000D03*
D12*
X107000000Y-114310000D03*
D13*
X107000000Y-106690000D03*
D18*
X51500000Y-116000000D03*
X54000000Y-119500000D03*
D19*
X32151000Y-113210000D02*
X67710000Y-113210000D01*
X67710000Y-113210000D02*
X69000000Y-114500000D01*
X88000000Y-114310000D02*
X107000000Y-114310000D01*
X69000000Y-114500000D02*
X87810000Y-114500000D01*
X87810000Y-114500000D02*
X88000000Y-114310000D01*
X107000000Y-114310000D02*
X124500000Y-114310000D01*
X31000000Y-114361000D02*
X32151000Y-113210000D01*
X68920000Y-106960000D02*
X69000000Y-106880000D01*
X55690000Y-106960000D02*
X68920000Y-106960000D01*
X74690000Y-106960000D02*
X87730000Y-106960000D01*
X87730000Y-106960000D02*
X88000000Y-106690000D01*
X106730000Y-106960000D02*
X107000000Y-106690000D01*
X93690000Y-106960000D02*
X106730000Y-106960000D01*
X124230000Y-106960000D02*
X124500000Y-106690000D01*
X112690000Y-106960000D02*
X124230000Y-106960000D01*
X88000000Y-133810000D02*
X107000000Y-133810000D01*
X31000000Y-116901000D02*
X47909000Y-133810000D01*
X107000000Y-133810000D02*
X124500000Y-133810000D01*
X47909000Y-133810000D02*
X69000000Y-133810000D01*
X69000000Y-133810000D02*
X88000000Y-133810000D01*
X55690000Y-125960000D02*
X68770000Y-125960000D01*
X68770000Y-125960000D02*
X69000000Y-126190000D01*
X87770000Y-125960000D02*
X88000000Y-126190000D01*
X74690000Y-125960000D02*
X87770000Y-125960000D01*
X106770000Y-125960000D02*
X107000000Y-126190000D01*
X93690000Y-125960000D02*
X106770000Y-125960000D01*
X112690000Y-125960000D02*
X124270000Y-125960000D01*
X124270000Y-125960000D02*
X124500000Y-126190000D01*
X31000000Y-106741000D02*
X32151000Y-105590000D01*
X55078686Y-105590000D02*
X56248686Y-104420000D01*
X32151000Y-105590000D02*
X55078686Y-105590000D01*
X56248686Y-104420000D02*
X62040000Y-104420000D01*
X54000000Y-119500000D02*
X77120000Y-119500000D01*
X77120000Y-119500000D02*
X81040000Y-123420000D01*
X49861000Y-114361000D02*
X51500000Y-116000000D01*
X46250000Y-114361000D02*
X49861000Y-114361000D01*
X46250000Y-111821000D02*
X46280000Y-111851000D01*
X94248686Y-104420000D02*
X100040000Y-104420000D01*
X86817686Y-111851000D02*
X94248686Y-104420000D01*
X46280000Y-111851000D02*
X86817686Y-111851000D01*
X112521000Y-116901000D02*
X119040000Y-123420000D01*
X46250000Y-116901000D02*
X112521000Y-116901000D01*
G04 #@! TA.AperFunction,NonConductor*
G36*
X54153529Y-106210185D02*
G01*
X54199284Y-106262989D01*
X54209228Y-106332147D01*
X54204422Y-106352810D01*
X54195335Y-106380781D01*
X54128909Y-106585214D01*
X54096102Y-106792352D01*
X54089500Y-106834038D01*
X54089500Y-107085962D01*
X54105855Y-107189221D01*
X54128910Y-107334785D01*
X54206760Y-107574383D01*
X54271860Y-107702147D01*
X54312993Y-107782876D01*
X54321132Y-107798848D01*
X54469201Y-108002649D01*
X54469205Y-108002654D01*
X54469207Y-108002656D01*
X54647344Y-108180793D01*
X54647345Y-108180794D01*
X54647344Y-108180794D01*
X54653661Y-108185383D01*
X54696327Y-108240714D01*
X54702305Y-108310327D01*
X54669699Y-108372122D01*
X54608860Y-108406479D01*
X54561378Y-108408174D01*
X54506611Y-108399500D01*
X54333389Y-108399500D01*
X54322574Y-108401213D01*
X54162302Y-108426597D01*
X53997552Y-108480128D01*
X53843211Y-108558768D01*
X53786289Y-108600125D01*
X53703072Y-108660586D01*
X53703070Y-108660588D01*
X53703069Y-108660588D01*
X53580588Y-108783069D01*
X53580588Y-108783070D01*
X53580586Y-108783072D01*
X53536859Y-108843256D01*
X53478768Y-108923211D01*
X53400128Y-109077552D01*
X53346597Y-109242302D01*
X53329146Y-109352486D01*
X53319500Y-109413389D01*
X53319500Y-109586611D01*
X53346598Y-109757701D01*
X53400127Y-109922445D01*
X53478768Y-110076788D01*
X53580586Y-110216928D01*
X53703072Y-110339414D01*
X53843212Y-110441232D01*
X53997555Y-110519873D01*
X54162299Y-110573402D01*
X54333389Y-110600500D01*
X54333390Y-110600500D01*
X54506610Y-110600500D01*
X54506611Y-110600500D01*
X54677701Y-110573402D01*
X54842445Y-110519873D01*
X54996788Y-110441232D01*
X55136928Y-110339414D01*
X55259414Y-110216928D01*
X55361232Y-110076788D01*
X55439873Y-109922445D01*
X55493402Y-109757701D01*
X55520500Y-109586611D01*
X55520500Y-109413389D01*
X55493402Y-109242299D01*
X55439873Y-109077555D01*
X55361232Y-108923212D01*
X55259414Y-108783072D01*
X55207482Y-108731140D01*
X55173997Y-108669817D01*
X55178981Y-108600125D01*
X55220853Y-108544192D01*
X55286317Y-108519775D01*
X55314561Y-108520986D01*
X55315212Y-108521089D01*
X55315215Y-108521090D01*
X55564038Y-108560500D01*
X55564039Y-108560500D01*
X55815961Y-108560500D01*
X55815962Y-108560500D01*
X56064785Y-108521090D01*
X56304379Y-108443241D01*
X56528845Y-108328870D01*
X56732656Y-108180793D01*
X56910793Y-108002656D01*
X57058870Y-107798845D01*
X57145815Y-107628204D01*
X57193789Y-107577409D01*
X57256300Y-107560500D01*
X57965462Y-107560500D01*
X58032501Y-107580185D01*
X58078256Y-107632989D01*
X58088200Y-107702147D01*
X58059175Y-107765703D01*
X58040948Y-107782876D01*
X58012959Y-107804352D01*
X58012952Y-107804358D01*
X57804358Y-108012952D01*
X57804352Y-108012959D01*
X57624761Y-108247006D01*
X57477258Y-108502489D01*
X57477254Y-108502499D01*
X57364364Y-108775038D01*
X57364361Y-108775048D01*
X57288008Y-109060004D01*
X57288006Y-109060015D01*
X57249500Y-109352486D01*
X57249500Y-109647513D01*
X57269499Y-109799412D01*
X57288007Y-109939993D01*
X57362212Y-110216930D01*
X57364361Y-110224951D01*
X57364364Y-110224961D01*
X57477254Y-110497500D01*
X57477258Y-110497510D01*
X57624761Y-110752993D01*
X57804352Y-110987040D01*
X57804358Y-110987047D01*
X57856130Y-111038819D01*
X57889615Y-111100142D01*
X57884631Y-111169834D01*
X57842759Y-111225767D01*
X57777295Y-111250184D01*
X57768449Y-111250500D01*
X49551005Y-111250500D01*
X49483966Y-111230815D01*
X49440521Y-111182796D01*
X49405050Y-111113182D01*
X49280109Y-110941213D01*
X49129786Y-110790890D01*
X48957820Y-110665951D01*
X48957115Y-110665591D01*
X48949054Y-110661485D01*
X48898259Y-110613512D01*
X48881463Y-110545692D01*
X48903999Y-110479556D01*
X48949054Y-110440515D01*
X48957816Y-110436051D01*
X48979789Y-110420086D01*
X49129786Y-110311109D01*
X49129788Y-110311106D01*
X49129792Y-110311104D01*
X49280104Y-110160792D01*
X49280106Y-110160788D01*
X49280109Y-110160786D01*
X49405048Y-109988820D01*
X49405047Y-109988820D01*
X49405051Y-109988816D01*
X49501557Y-109799412D01*
X49567246Y-109597243D01*
X49600500Y-109387287D01*
X49600500Y-109174713D01*
X49567246Y-108964757D01*
X49501557Y-108762588D01*
X49405051Y-108573184D01*
X49405049Y-108573181D01*
X49405048Y-108573179D01*
X49280109Y-108401213D01*
X49129786Y-108250890D01*
X48957820Y-108125951D01*
X48957115Y-108125591D01*
X48949054Y-108121485D01*
X48898259Y-108073512D01*
X48881463Y-108005692D01*
X48903999Y-107939556D01*
X48949054Y-107900515D01*
X48957816Y-107896051D01*
X48990966Y-107871966D01*
X49129786Y-107771109D01*
X49129788Y-107771106D01*
X49129792Y-107771104D01*
X49280104Y-107620792D01*
X49280106Y-107620788D01*
X49280109Y-107620786D01*
X49405048Y-107448820D01*
X49405047Y-107448820D01*
X49405051Y-107448816D01*
X49501557Y-107259412D01*
X49567246Y-107057243D01*
X49600500Y-106847287D01*
X49600500Y-106634713D01*
X49567246Y-106424757D01*
X49543870Y-106352816D01*
X49541876Y-106282977D01*
X49577956Y-106223144D01*
X49640657Y-106192316D01*
X49661802Y-106190500D01*
X54086490Y-106190500D01*
X54153529Y-106210185D01*
G37*
G04 #@! TD.AperFunction*
G04 #@! TA.AperFunction,NonConductor*
G36*
X44905237Y-106210185D02*
G01*
X44950992Y-106262989D01*
X44960936Y-106332147D01*
X44956130Y-106352812D01*
X44943807Y-106390740D01*
X44932753Y-106424760D01*
X44908884Y-106575465D01*
X44899500Y-106634713D01*
X44899500Y-106847287D01*
X44932754Y-107057243D01*
X44975636Y-107189221D01*
X44998444Y-107259414D01*
X45094951Y-107448820D01*
X45219890Y-107620786D01*
X45370213Y-107771109D01*
X45542182Y-107896050D01*
X45550946Y-107900516D01*
X45601742Y-107948491D01*
X45618536Y-108016312D01*
X45595998Y-108082447D01*
X45550946Y-108121484D01*
X45542182Y-108125949D01*
X45370213Y-108250890D01*
X45219890Y-108401213D01*
X45094951Y-108573179D01*
X44998444Y-108762585D01*
X44998443Y-108762587D01*
X44998443Y-108762588D01*
X44991788Y-108783069D01*
X44932753Y-108964760D01*
X44914889Y-109077552D01*
X44899500Y-109174713D01*
X44899500Y-109387287D01*
X44932754Y-109597243D01*
X44984890Y-109757701D01*
X44998444Y-109799414D01*
X45094951Y-109988820D01*
X45219890Y-110160786D01*
X45370213Y-110311109D01*
X45542182Y-110436050D01*
X45550946Y-110440516D01*
X45601742Y-110488491D01*
X45618536Y-110556312D01*
X45595998Y-110622447D01*
X45550946Y-110661484D01*
X45542182Y-110665949D01*
X45370213Y-110790890D01*
X45219890Y-110941213D01*
X45094951Y-111113179D01*
X44998444Y-111302585D01*
X44932753Y-111504760D01*
X44912025Y-111635635D01*
X44899500Y-111714713D01*
X44899500Y-111927287D01*
X44932754Y-112137243D01*
X44998443Y-112339412D01*
X45034703Y-112410577D01*
X45044195Y-112429205D01*
X45057091Y-112497874D01*
X45030815Y-112562615D01*
X44973709Y-112602872D01*
X44933710Y-112609500D01*
X32266290Y-112609500D01*
X32199251Y-112589815D01*
X32153496Y-112537011D01*
X32143552Y-112467853D01*
X32155805Y-112429205D01*
X32201557Y-112339412D01*
X32267246Y-112137243D01*
X32300500Y-111927287D01*
X32300500Y-111714713D01*
X32267246Y-111504757D01*
X32201557Y-111302588D01*
X32105051Y-111113184D01*
X32105049Y-111113181D01*
X32105048Y-111113179D01*
X31980109Y-110941213D01*
X31829786Y-110790890D01*
X31657820Y-110665951D01*
X31657115Y-110665591D01*
X31649054Y-110661485D01*
X31598259Y-110613512D01*
X31581463Y-110545692D01*
X31603999Y-110479556D01*
X31649054Y-110440515D01*
X31657816Y-110436051D01*
X31679789Y-110420086D01*
X31829786Y-110311109D01*
X31829788Y-110311106D01*
X31829792Y-110311104D01*
X31980104Y-110160792D01*
X31980106Y-110160788D01*
X31980109Y-110160786D01*
X32105048Y-109988820D01*
X32105047Y-109988820D01*
X32105051Y-109988816D01*
X32201557Y-109799412D01*
X32267246Y-109597243D01*
X32300500Y-109387287D01*
X32300500Y-109174713D01*
X32267246Y-108964757D01*
X32201557Y-108762588D01*
X32105051Y-108573184D01*
X32105049Y-108573181D01*
X32105048Y-108573179D01*
X31980109Y-108401213D01*
X31829786Y-108250890D01*
X31657820Y-108125951D01*
X31657115Y-108125591D01*
X31649054Y-108121485D01*
X31598259Y-108073512D01*
X31581463Y-108005692D01*
X31603999Y-107939556D01*
X31649054Y-107900515D01*
X31657816Y-107896051D01*
X31690966Y-107871966D01*
X31829786Y-107771109D01*
X31829788Y-107771106D01*
X31829792Y-107771104D01*
X31980104Y-107620792D01*
X31980106Y-107620788D01*
X31980109Y-107620786D01*
X32105048Y-107448820D01*
X32105047Y-107448820D01*
X32105051Y-107448816D01*
X32201557Y-107259412D01*
X32267246Y-107057243D01*
X32300500Y-106847287D01*
X32300500Y-106634713D01*
X32267246Y-106424757D01*
X32265770Y-106420217D01*
X32265335Y-106405002D01*
X32260016Y-106390740D01*
X32264356Y-106370790D01*
X32263772Y-106350379D01*
X32271862Y-106336288D01*
X32274869Y-106322468D01*
X32296016Y-106294218D01*
X32363418Y-106226817D01*
X32424742Y-106193333D01*
X32451098Y-106190500D01*
X44838198Y-106190500D01*
X44905237Y-106210185D01*
G37*
G04 #@! TD.AperFunction*
G04 #@! TA.AperFunction,NonConductor*
G36*
X125942539Y-100020185D02*
G01*
X125988294Y-100072989D01*
X125999500Y-100124500D01*
X125999500Y-106313575D01*
X125979815Y-106380614D01*
X125927011Y-106426369D01*
X125857853Y-106436313D01*
X125794297Y-106407288D01*
X125757569Y-106351894D01*
X125715735Y-106223144D01*
X125705220Y-106190781D01*
X125705218Y-106190778D01*
X125705218Y-106190776D01*
X125624717Y-106032786D01*
X125612287Y-106008390D01*
X125592452Y-105981089D01*
X125491971Y-105842786D01*
X125347213Y-105698028D01*
X125181613Y-105577715D01*
X125181612Y-105577714D01*
X125181610Y-105577713D01*
X125117586Y-105545091D01*
X124999223Y-105484781D01*
X124804534Y-105421522D01*
X124629995Y-105393878D01*
X124602352Y-105389500D01*
X124397648Y-105389500D01*
X124373329Y-105393351D01*
X124195465Y-105421522D01*
X124000776Y-105484781D01*
X123818386Y-105577715D01*
X123652786Y-105698028D01*
X123508028Y-105842786D01*
X123387715Y-106008386D01*
X123294778Y-106190783D01*
X123267799Y-106273818D01*
X123228362Y-106331494D01*
X123164003Y-106358692D01*
X123149868Y-106359500D01*
X114256300Y-106359500D01*
X114189261Y-106339815D01*
X114145815Y-106291795D01*
X114141322Y-106282977D01*
X114058870Y-106121155D01*
X114039952Y-106095117D01*
X113910798Y-105917350D01*
X113910794Y-105917345D01*
X113732654Y-105739205D01*
X113732649Y-105739201D01*
X113528848Y-105591132D01*
X113528847Y-105591131D01*
X113528845Y-105591130D01*
X113451065Y-105551499D01*
X113304383Y-105476760D01*
X113064785Y-105398910D01*
X113005373Y-105389500D01*
X112815962Y-105359500D01*
X112564038Y-105359500D01*
X112439626Y-105379205D01*
X112315214Y-105398910D01*
X112075616Y-105476760D01*
X111851151Y-105591132D01*
X111647350Y-105739201D01*
X111647345Y-105739205D01*
X111469205Y-105917345D01*
X111469201Y-105917350D01*
X111321132Y-106121151D01*
X111206760Y-106345616D01*
X111128910Y-106585214D01*
X111121070Y-106634713D01*
X111089500Y-106834038D01*
X111089500Y-107085962D01*
X111105855Y-107189221D01*
X111128910Y-107334785D01*
X111206760Y-107574383D01*
X111271860Y-107702147D01*
X111312993Y-107782876D01*
X111321132Y-107798848D01*
X111469201Y-108002649D01*
X111469205Y-108002654D01*
X111469207Y-108002656D01*
X111647344Y-108180793D01*
X111647345Y-108180794D01*
X111647344Y-108180794D01*
X111653661Y-108185383D01*
X111696327Y-108240714D01*
X111702305Y-108310327D01*
X111669699Y-108372122D01*
X111608860Y-108406479D01*
X111561378Y-108408174D01*
X111506611Y-108399500D01*
X111333389Y-108399500D01*
X111322574Y-108401213D01*
X111162302Y-108426597D01*
X110997552Y-108480128D01*
X110843211Y-108558768D01*
X110786289Y-108600125D01*
X110703072Y-108660586D01*
X110703070Y-108660588D01*
X110703069Y-108660588D01*
X110580588Y-108783069D01*
X110580588Y-108783070D01*
X110580586Y-108783072D01*
X110536859Y-108843256D01*
X110478768Y-108923211D01*
X110400128Y-109077552D01*
X110346597Y-109242302D01*
X110329146Y-109352486D01*
X110319500Y-109413389D01*
X110319500Y-109586611D01*
X110346598Y-109757701D01*
X110400127Y-109922445D01*
X110478768Y-110076788D01*
X110580586Y-110216928D01*
X110703072Y-110339414D01*
X110843212Y-110441232D01*
X110997555Y-110519873D01*
X111162299Y-110573402D01*
X111333389Y-110600500D01*
X111333390Y-110600500D01*
X111506610Y-110600500D01*
X111506611Y-110600500D01*
X111677701Y-110573402D01*
X111842445Y-110519873D01*
X111996788Y-110441232D01*
X112136928Y-110339414D01*
X112259414Y-110216928D01*
X112361232Y-110076788D01*
X112439873Y-109922445D01*
X112493402Y-109757701D01*
X112520500Y-109586611D01*
X112520500Y-109413389D01*
X112493402Y-109242299D01*
X112439873Y-109077555D01*
X112361232Y-108923212D01*
X112259414Y-108783072D01*
X112207482Y-108731140D01*
X112173997Y-108669817D01*
X112178981Y-108600125D01*
X112220853Y-108544192D01*
X112286317Y-108519775D01*
X112314561Y-108520986D01*
X112315212Y-108521089D01*
X112315215Y-108521090D01*
X112564038Y-108560500D01*
X112564039Y-108560500D01*
X112815961Y-108560500D01*
X112815962Y-108560500D01*
X113064785Y-108521090D01*
X113304379Y-108443241D01*
X113528845Y-108328870D01*
X113732656Y-108180793D01*
X113910793Y-108002656D01*
X114058870Y-107798845D01*
X114145815Y-107628204D01*
X114193789Y-107577409D01*
X114256300Y-107560500D01*
X114965462Y-107560500D01*
X115032501Y-107580185D01*
X115078256Y-107632989D01*
X115088200Y-107702147D01*
X115059175Y-107765703D01*
X115040948Y-107782876D01*
X115012959Y-107804352D01*
X115012952Y-107804358D01*
X114804358Y-108012952D01*
X114804352Y-108012959D01*
X114624761Y-108247006D01*
X114477258Y-108502489D01*
X114477254Y-108502499D01*
X114364364Y-108775038D01*
X114364361Y-108775048D01*
X114288008Y-109060004D01*
X114288006Y-109060015D01*
X114249500Y-109352486D01*
X114249500Y-109647513D01*
X114269499Y-109799412D01*
X114288007Y-109939993D01*
X114362212Y-110216930D01*
X114364361Y-110224951D01*
X114364364Y-110224961D01*
X114477254Y-110497500D01*
X114477258Y-110497510D01*
X114624761Y-110752993D01*
X114804352Y-110987040D01*
X114804358Y-110987047D01*
X115012952Y-111195641D01*
X115012959Y-111195647D01*
X115247006Y-111375238D01*
X115502489Y-111522741D01*
X115502490Y-111522741D01*
X115502493Y-111522743D01*
X115775048Y-111635639D01*
X116060007Y-111711993D01*
X116352494Y-111750500D01*
X116352501Y-111750500D01*
X116647499Y-111750500D01*
X116647506Y-111750500D01*
X116939993Y-111711993D01*
X117224952Y-111635639D01*
X117497507Y-111522743D01*
X117752994Y-111375238D01*
X117987042Y-111195646D01*
X118195646Y-110987042D01*
X118375238Y-110752994D01*
X118522743Y-110497507D01*
X118635639Y-110224952D01*
X118711993Y-109939993D01*
X118750500Y-109647506D01*
X118750500Y-109413389D01*
X120479500Y-109413389D01*
X120479500Y-109586611D01*
X120506598Y-109757701D01*
X120560127Y-109922445D01*
X120638768Y-110076788D01*
X120740586Y-110216928D01*
X120863072Y-110339414D01*
X121003212Y-110441232D01*
X121157555Y-110519873D01*
X121322299Y-110573402D01*
X121493389Y-110600500D01*
X121493390Y-110600500D01*
X121666610Y-110600500D01*
X121666611Y-110600500D01*
X121837701Y-110573402D01*
X122002445Y-110519873D01*
X122156788Y-110441232D01*
X122296928Y-110339414D01*
X122419414Y-110216928D01*
X122521232Y-110076788D01*
X122599873Y-109922445D01*
X122653402Y-109757701D01*
X122680500Y-109586611D01*
X122680500Y-109413389D01*
X122653402Y-109242299D01*
X122599873Y-109077555D01*
X122521232Y-108923212D01*
X122419414Y-108783072D01*
X122296928Y-108660586D01*
X122156788Y-108558768D01*
X122002445Y-108480127D01*
X121837701Y-108426598D01*
X121837699Y-108426597D01*
X121837698Y-108426597D01*
X121677426Y-108401213D01*
X121666611Y-108399500D01*
X121493389Y-108399500D01*
X121482574Y-108401213D01*
X121322302Y-108426597D01*
X121157552Y-108480128D01*
X121003211Y-108558768D01*
X120946289Y-108600125D01*
X120863072Y-108660586D01*
X120863070Y-108660588D01*
X120863069Y-108660588D01*
X120740588Y-108783069D01*
X120740588Y-108783070D01*
X120740586Y-108783072D01*
X120696859Y-108843256D01*
X120638768Y-108923211D01*
X120560128Y-109077552D01*
X120506597Y-109242302D01*
X120489146Y-109352486D01*
X120479500Y-109413389D01*
X118750500Y-109413389D01*
X118750500Y-109352494D01*
X118711993Y-109060007D01*
X118635639Y-108775048D01*
X118522743Y-108502493D01*
X118467309Y-108406479D01*
X118375238Y-108247006D01*
X118195647Y-108012959D01*
X118195641Y-108012952D01*
X117987047Y-107804358D01*
X117987040Y-107804352D01*
X117959052Y-107782876D01*
X117917849Y-107726448D01*
X117913694Y-107656702D01*
X117947906Y-107595782D01*
X118009624Y-107563029D01*
X118034538Y-107560500D01*
X123479953Y-107560500D01*
X123546992Y-107580185D01*
X123567634Y-107596819D01*
X123652786Y-107681971D01*
X123791673Y-107782876D01*
X123818390Y-107802287D01*
X123934607Y-107861503D01*
X124000776Y-107895218D01*
X124000778Y-107895218D01*
X124000781Y-107895220D01*
X124105137Y-107929127D01*
X124195465Y-107958477D01*
X124296557Y-107974488D01*
X124397648Y-107990500D01*
X124397649Y-107990500D01*
X124602351Y-107990500D01*
X124602352Y-107990500D01*
X124804534Y-107958477D01*
X124999219Y-107895220D01*
X125181610Y-107802287D01*
X125285994Y-107726448D01*
X125347213Y-107681971D01*
X125347215Y-107681968D01*
X125347219Y-107681966D01*
X125491966Y-107537219D01*
X125491968Y-107537215D01*
X125491971Y-107537213D01*
X125556194Y-107448816D01*
X125612287Y-107371610D01*
X125705220Y-107189219D01*
X125757569Y-107028106D01*
X125797007Y-106970430D01*
X125861365Y-106943232D01*
X125930212Y-106955147D01*
X125981687Y-107002391D01*
X125999500Y-107066424D01*
X125999500Y-113265951D01*
X125979815Y-113332990D01*
X125927011Y-113378745D01*
X125857853Y-113388689D01*
X125794297Y-113359664D01*
X125759318Y-113309284D01*
X125743797Y-113267671D01*
X125743793Y-113267664D01*
X125657547Y-113152455D01*
X125657544Y-113152452D01*
X125542335Y-113066206D01*
X125542328Y-113066202D01*
X125407482Y-113015908D01*
X125407483Y-113015908D01*
X125347883Y-113009501D01*
X125347881Y-113009500D01*
X125347873Y-113009500D01*
X125347864Y-113009500D01*
X123652129Y-113009500D01*
X123652123Y-113009501D01*
X123592516Y-113015908D01*
X123457671Y-113066202D01*
X123457664Y-113066206D01*
X123342455Y-113152452D01*
X123342452Y-113152455D01*
X123256206Y-113267664D01*
X123256202Y-113267671D01*
X123205908Y-113402517D01*
X123199980Y-113457664D01*
X123199501Y-113462123D01*
X123199500Y-113462135D01*
X123199500Y-113585500D01*
X123179815Y-113652539D01*
X123127011Y-113698294D01*
X123075500Y-113709500D01*
X108424499Y-113709500D01*
X108357460Y-113689815D01*
X108311705Y-113637011D01*
X108300499Y-113585500D01*
X108300499Y-113462129D01*
X108300498Y-113462123D01*
X108300497Y-113462116D01*
X108294091Y-113402517D01*
X108288933Y-113388689D01*
X108243797Y-113267671D01*
X108243793Y-113267664D01*
X108157547Y-113152455D01*
X108157544Y-113152452D01*
X108042335Y-113066206D01*
X108042328Y-113066202D01*
X107907482Y-113015908D01*
X107907483Y-113015908D01*
X107847883Y-113009501D01*
X107847881Y-113009500D01*
X107847873Y-113009500D01*
X107847864Y-113009500D01*
X106152129Y-113009500D01*
X106152123Y-113009501D01*
X106092516Y-113015908D01*
X105957671Y-113066202D01*
X105957664Y-113066206D01*
X105842455Y-113152452D01*
X105842452Y-113152455D01*
X105756206Y-113267664D01*
X105756202Y-113267671D01*
X105705908Y-113402517D01*
X105699980Y-113457664D01*
X105699501Y-113462123D01*
X105699500Y-113462135D01*
X105699500Y-113585500D01*
X105679815Y-113652539D01*
X105627011Y-113698294D01*
X105575500Y-113709500D01*
X89424499Y-113709500D01*
X89357460Y-113689815D01*
X89311705Y-113637011D01*
X89300499Y-113585500D01*
X89300499Y-113462129D01*
X89300498Y-113462123D01*
X89300497Y-113462116D01*
X89294091Y-113402517D01*
X89288933Y-113388689D01*
X89243797Y-113267671D01*
X89243793Y-113267664D01*
X89157547Y-113152455D01*
X89157544Y-113152452D01*
X89042335Y-113066206D01*
X89042328Y-113066202D01*
X88907482Y-113015908D01*
X88907483Y-113015908D01*
X88847883Y-113009501D01*
X88847881Y-113009500D01*
X88847873Y-113009500D01*
X88847864Y-113009500D01*
X87152129Y-113009500D01*
X87152123Y-113009501D01*
X87092516Y-113015908D01*
X86957671Y-113066202D01*
X86957664Y-113066206D01*
X86842455Y-113152452D01*
X86842452Y-113152455D01*
X86756206Y-113267664D01*
X86756202Y-113267671D01*
X86705908Y-113402517D01*
X86699980Y-113457664D01*
X86699501Y-113462123D01*
X86699500Y-113462135D01*
X86699500Y-113775500D01*
X86679815Y-113842539D01*
X86627011Y-113888294D01*
X86575500Y-113899500D01*
X70424499Y-113899500D01*
X70357460Y-113879815D01*
X70311705Y-113827011D01*
X70300499Y-113775500D01*
X70300499Y-113652129D01*
X70300498Y-113652123D01*
X70294091Y-113592516D01*
X70243797Y-113457671D01*
X70243793Y-113457664D01*
X70157547Y-113342455D01*
X70157544Y-113342452D01*
X70042335Y-113256206D01*
X70042328Y-113256202D01*
X69907482Y-113205908D01*
X69907483Y-113205908D01*
X69847883Y-113199501D01*
X69847881Y-113199500D01*
X69847873Y-113199500D01*
X69847865Y-113199500D01*
X68600097Y-113199500D01*
X68533058Y-113179815D01*
X68512416Y-113163181D01*
X68197590Y-112848355D01*
X68197588Y-112848352D01*
X68078717Y-112729481D01*
X68078716Y-112729480D01*
X67998015Y-112682888D01*
X67949799Y-112632321D01*
X67936575Y-112563714D01*
X67962543Y-112498849D01*
X68019457Y-112458320D01*
X68060014Y-112451500D01*
X86731017Y-112451500D01*
X86731033Y-112451501D01*
X86738629Y-112451501D01*
X86896740Y-112451501D01*
X86896743Y-112451501D01*
X87049471Y-112410577D01*
X87099590Y-112381639D01*
X87186402Y-112331520D01*
X87298206Y-112219716D01*
X87298206Y-112219714D01*
X87308414Y-112209507D01*
X87308416Y-112209504D01*
X91999127Y-107518792D01*
X92060448Y-107485309D01*
X92130140Y-107490293D01*
X92186073Y-107532165D01*
X92204735Y-107568150D01*
X92206759Y-107574379D01*
X92312993Y-107782876D01*
X92321132Y-107798848D01*
X92469201Y-108002649D01*
X92469205Y-108002654D01*
X92469207Y-108002656D01*
X92647344Y-108180793D01*
X92647345Y-108180794D01*
X92647344Y-108180794D01*
X92653661Y-108185383D01*
X92696327Y-108240714D01*
X92702305Y-108310327D01*
X92669699Y-108372122D01*
X92608860Y-108406479D01*
X92561378Y-108408174D01*
X92506611Y-108399500D01*
X92333389Y-108399500D01*
X92322574Y-108401213D01*
X92162302Y-108426597D01*
X91997552Y-108480128D01*
X91843211Y-108558768D01*
X91786289Y-108600125D01*
X91703072Y-108660586D01*
X91703070Y-108660588D01*
X91703069Y-108660588D01*
X91580588Y-108783069D01*
X91580588Y-108783070D01*
X91580586Y-108783072D01*
X91536859Y-108843256D01*
X91478768Y-108923211D01*
X91400128Y-109077552D01*
X91346597Y-109242302D01*
X91329146Y-109352486D01*
X91319500Y-109413389D01*
X91319500Y-109586611D01*
X91346598Y-109757701D01*
X91400127Y-109922445D01*
X91478768Y-110076788D01*
X91580586Y-110216928D01*
X91703072Y-110339414D01*
X91843212Y-110441232D01*
X91997555Y-110519873D01*
X92162299Y-110573402D01*
X92333389Y-110600500D01*
X92333390Y-110600500D01*
X92506610Y-110600500D01*
X92506611Y-110600500D01*
X92677701Y-110573402D01*
X92842445Y-110519873D01*
X92996788Y-110441232D01*
X93136928Y-110339414D01*
X93259414Y-110216928D01*
X93361232Y-110076788D01*
X93439873Y-109922445D01*
X93493402Y-109757701D01*
X93520500Y-109586611D01*
X93520500Y-109413389D01*
X93493402Y-109242299D01*
X93439873Y-109077555D01*
X93361232Y-108923212D01*
X93259414Y-108783072D01*
X93207482Y-108731140D01*
X93173997Y-108669817D01*
X93178981Y-108600125D01*
X93220853Y-108544192D01*
X93286317Y-108519775D01*
X93314561Y-108520986D01*
X93315212Y-108521089D01*
X93315215Y-108521090D01*
X93564038Y-108560500D01*
X93564039Y-108560500D01*
X93815961Y-108560500D01*
X93815962Y-108560500D01*
X94064785Y-108521090D01*
X94304379Y-108443241D01*
X94528845Y-108328870D01*
X94732656Y-108180793D01*
X94910793Y-108002656D01*
X95058870Y-107798845D01*
X95145815Y-107628204D01*
X95193789Y-107577409D01*
X95256300Y-107560500D01*
X95965462Y-107560500D01*
X96032501Y-107580185D01*
X96078256Y-107632989D01*
X96088200Y-107702147D01*
X96059175Y-107765703D01*
X96040948Y-107782876D01*
X96012959Y-107804352D01*
X96012952Y-107804358D01*
X95804358Y-108012952D01*
X95804352Y-108012959D01*
X95624761Y-108247006D01*
X95477258Y-108502489D01*
X95477254Y-108502499D01*
X95364364Y-108775038D01*
X95364361Y-108775048D01*
X95288008Y-109060004D01*
X95288006Y-109060015D01*
X95249500Y-109352486D01*
X95249500Y-109647513D01*
X95269499Y-109799412D01*
X95288007Y-109939993D01*
X95362212Y-110216930D01*
X95364361Y-110224951D01*
X95364364Y-110224961D01*
X95477254Y-110497500D01*
X95477258Y-110497510D01*
X95624761Y-110752993D01*
X95804352Y-110987040D01*
X95804358Y-110987047D01*
X96012952Y-111195641D01*
X96012959Y-111195647D01*
X96247006Y-111375238D01*
X96502489Y-111522741D01*
X96502490Y-111522741D01*
X96502493Y-111522743D01*
X96775048Y-111635639D01*
X97060007Y-111711993D01*
X97352494Y-111750500D01*
X97352501Y-111750500D01*
X97647499Y-111750500D01*
X97647506Y-111750500D01*
X97939993Y-111711993D01*
X98224952Y-111635639D01*
X98497507Y-111522743D01*
X98752994Y-111375238D01*
X98987042Y-111195646D01*
X99195646Y-110987042D01*
X99375238Y-110752994D01*
X99522743Y-110497507D01*
X99635639Y-110224952D01*
X99711993Y-109939993D01*
X99750500Y-109647506D01*
X99750500Y-109413389D01*
X101479500Y-109413389D01*
X101479500Y-109586611D01*
X101506598Y-109757701D01*
X101560127Y-109922445D01*
X101638768Y-110076788D01*
X101740586Y-110216928D01*
X101863072Y-110339414D01*
X102003212Y-110441232D01*
X102157555Y-110519873D01*
X102322299Y-110573402D01*
X102493389Y-110600500D01*
X102493390Y-110600500D01*
X102666610Y-110600500D01*
X102666611Y-110600500D01*
X102837701Y-110573402D01*
X103002445Y-110519873D01*
X103156788Y-110441232D01*
X103296928Y-110339414D01*
X103419414Y-110216928D01*
X103521232Y-110076788D01*
X103599873Y-109922445D01*
X103653402Y-109757701D01*
X103680500Y-109586611D01*
X103680500Y-109413389D01*
X103653402Y-109242299D01*
X103599873Y-109077555D01*
X103521232Y-108923212D01*
X103419414Y-108783072D01*
X103296928Y-108660586D01*
X103156788Y-108558768D01*
X103002445Y-108480127D01*
X102837701Y-108426598D01*
X102837699Y-108426597D01*
X102837698Y-108426597D01*
X102677426Y-108401213D01*
X102666611Y-108399500D01*
X102493389Y-108399500D01*
X102482574Y-108401213D01*
X102322302Y-108426597D01*
X102157552Y-108480128D01*
X102003211Y-108558768D01*
X101946289Y-108600125D01*
X101863072Y-108660586D01*
X101863070Y-108660588D01*
X101863069Y-108660588D01*
X101740588Y-108783069D01*
X101740588Y-108783070D01*
X101740586Y-108783072D01*
X101696859Y-108843256D01*
X101638768Y-108923211D01*
X101560128Y-109077552D01*
X101506597Y-109242302D01*
X101489146Y-109352486D01*
X101479500Y-109413389D01*
X99750500Y-109413389D01*
X99750500Y-109352494D01*
X99711993Y-109060007D01*
X99635639Y-108775048D01*
X99522743Y-108502493D01*
X99467309Y-108406479D01*
X99375238Y-108247006D01*
X99195647Y-108012959D01*
X99195641Y-108012952D01*
X98987047Y-107804358D01*
X98987040Y-107804352D01*
X98959052Y-107782876D01*
X98917849Y-107726448D01*
X98913694Y-107656702D01*
X98947906Y-107595782D01*
X99009624Y-107563029D01*
X99034538Y-107560500D01*
X105979953Y-107560500D01*
X106046992Y-107580185D01*
X106067634Y-107596819D01*
X106152786Y-107681971D01*
X106291673Y-107782876D01*
X106318390Y-107802287D01*
X106434607Y-107861503D01*
X106500776Y-107895218D01*
X106500778Y-107895218D01*
X106500781Y-107895220D01*
X106605137Y-107929127D01*
X106695465Y-107958477D01*
X106796557Y-107974488D01*
X106897648Y-107990500D01*
X106897649Y-107990500D01*
X107102351Y-107990500D01*
X107102352Y-107990500D01*
X107304534Y-107958477D01*
X107499219Y-107895220D01*
X107681610Y-107802287D01*
X107785994Y-107726448D01*
X107847213Y-107681971D01*
X107847215Y-107681968D01*
X107847219Y-107681966D01*
X107991966Y-107537219D01*
X107991968Y-107537215D01*
X107991971Y-107537213D01*
X108056194Y-107448816D01*
X108112287Y-107371610D01*
X108205220Y-107189219D01*
X108268477Y-106994534D01*
X108300500Y-106792352D01*
X108300500Y-106587648D01*
X108268477Y-106385466D01*
X108266900Y-106380614D01*
X108215735Y-106223144D01*
X108205220Y-106190781D01*
X108205218Y-106190778D01*
X108205218Y-106190776D01*
X108124717Y-106032786D01*
X108112287Y-106008390D01*
X108092452Y-105981089D01*
X107991971Y-105842786D01*
X107847213Y-105698028D01*
X107681613Y-105577715D01*
X107681612Y-105577714D01*
X107681610Y-105577713D01*
X107617586Y-105545091D01*
X107499223Y-105484781D01*
X107304534Y-105421522D01*
X107129995Y-105393878D01*
X107102352Y-105389500D01*
X106897648Y-105389500D01*
X106873329Y-105393351D01*
X106695465Y-105421522D01*
X106500776Y-105484781D01*
X106318386Y-105577715D01*
X106152786Y-105698028D01*
X106008028Y-105842786D01*
X105887715Y-106008386D01*
X105794778Y-106190783D01*
X105767799Y-106273818D01*
X105728362Y-106331494D01*
X105664003Y-106358692D01*
X105649868Y-106359500D01*
X95256300Y-106359500D01*
X95189261Y-106339815D01*
X95145815Y-106291795D01*
X95141322Y-106282977D01*
X95058870Y-106121155D01*
X95039952Y-106095117D01*
X94910798Y-105917350D01*
X94910794Y-105917345D01*
X94732654Y-105739205D01*
X94732649Y-105739201D01*
X94528848Y-105591132D01*
X94528847Y-105591131D01*
X94528845Y-105591130D01*
X94304379Y-105476759D01*
X94298150Y-105474735D01*
X94240477Y-105435294D01*
X94213282Y-105370934D01*
X94225201Y-105302088D01*
X94248788Y-105269132D01*
X94461103Y-105056816D01*
X94522425Y-105023334D01*
X94548783Y-105020500D01*
X98473700Y-105020500D01*
X98540739Y-105040185D01*
X98584185Y-105088205D01*
X98671132Y-105258848D01*
X98819201Y-105462649D01*
X98819205Y-105462654D01*
X98997345Y-105640794D01*
X98997350Y-105640798D01*
X99172035Y-105767713D01*
X99201155Y-105788870D01*
X99344184Y-105861747D01*
X99425616Y-105903239D01*
X99425618Y-105903239D01*
X99425621Y-105903241D01*
X99665215Y-105981090D01*
X99914038Y-106020500D01*
X99914039Y-106020500D01*
X100165961Y-106020500D01*
X100165962Y-106020500D01*
X100414785Y-105981090D01*
X100654379Y-105903241D01*
X100878845Y-105788870D01*
X101082656Y-105640793D01*
X101260793Y-105462656D01*
X101408870Y-105258845D01*
X101523241Y-105034379D01*
X101601090Y-104794785D01*
X101640500Y-104545962D01*
X101640500Y-104294038D01*
X117439500Y-104294038D01*
X117439500Y-104545961D01*
X117478910Y-104794785D01*
X117556760Y-105034383D01*
X117671132Y-105258848D01*
X117819201Y-105462649D01*
X117819205Y-105462654D01*
X117997345Y-105640794D01*
X117997350Y-105640798D01*
X118172035Y-105767713D01*
X118201155Y-105788870D01*
X118344184Y-105861747D01*
X118425616Y-105903239D01*
X118425618Y-105903239D01*
X118425621Y-105903241D01*
X118665215Y-105981090D01*
X118914038Y-106020500D01*
X118914039Y-106020500D01*
X119165961Y-106020500D01*
X119165962Y-106020500D01*
X119414785Y-105981090D01*
X119654379Y-105903241D01*
X119878845Y-105788870D01*
X120082656Y-105640793D01*
X120260793Y-105462656D01*
X120408870Y-105258845D01*
X120523241Y-105034379D01*
X120601090Y-104794785D01*
X120640500Y-104545962D01*
X120640500Y-104294038D01*
X120601090Y-104045215D01*
X120523241Y-103805621D01*
X120523239Y-103805618D01*
X120523239Y-103805616D01*
X120481747Y-103724184D01*
X120408870Y-103581155D01*
X120389952Y-103555117D01*
X120260798Y-103377350D01*
X120260794Y-103377345D01*
X120082654Y-103199205D01*
X120082649Y-103199201D01*
X119878848Y-103051132D01*
X119878847Y-103051131D01*
X119878845Y-103051130D01*
X119808747Y-103015413D01*
X119654383Y-102936760D01*
X119414785Y-102858910D01*
X119327037Y-102845012D01*
X119165962Y-102819500D01*
X118914038Y-102819500D01*
X118789626Y-102839205D01*
X118665214Y-102858910D01*
X118425616Y-102936760D01*
X118201151Y-103051132D01*
X117997350Y-103199201D01*
X117997345Y-103199205D01*
X117819205Y-103377345D01*
X117819201Y-103377350D01*
X117671132Y-103581151D01*
X117556760Y-103805616D01*
X117478910Y-104045214D01*
X117439500Y-104294038D01*
X101640500Y-104294038D01*
X101601090Y-104045215D01*
X101523241Y-103805621D01*
X101523239Y-103805618D01*
X101523239Y-103805616D01*
X101481747Y-103724184D01*
X101408870Y-103581155D01*
X101389952Y-103555117D01*
X101260798Y-103377350D01*
X101260794Y-103377345D01*
X101082654Y-103199205D01*
X101082649Y-103199201D01*
X100878848Y-103051132D01*
X100878847Y-103051131D01*
X100878845Y-103051130D01*
X100808747Y-103015413D01*
X100654383Y-102936760D01*
X100414785Y-102858910D01*
X100327037Y-102845012D01*
X100165962Y-102819500D01*
X99914038Y-102819500D01*
X99789626Y-102839205D01*
X99665214Y-102858910D01*
X99425616Y-102936760D01*
X99201151Y-103051132D01*
X98997350Y-103199201D01*
X98997345Y-103199205D01*
X98819205Y-103377345D01*
X98819201Y-103377350D01*
X98671132Y-103581151D01*
X98671130Y-103581155D01*
X98619448Y-103682588D01*
X98584185Y-103751795D01*
X98536211Y-103802591D01*
X98473700Y-103819500D01*
X94335355Y-103819500D01*
X94335339Y-103819499D01*
X94327743Y-103819499D01*
X94169629Y-103819499D01*
X94089696Y-103840917D01*
X94016902Y-103860422D01*
X93974752Y-103884758D01*
X93974751Y-103884757D01*
X93879973Y-103939477D01*
X93879968Y-103939481D01*
X93774236Y-104045214D01*
X93768166Y-104051284D01*
X93768164Y-104051286D01*
X90186462Y-107632989D01*
X86605270Y-111214181D01*
X86543947Y-111247666D01*
X86517589Y-111250500D01*
X80231551Y-111250500D01*
X80164512Y-111230815D01*
X80118757Y-111178011D01*
X80108813Y-111108853D01*
X80137838Y-111045297D01*
X80143870Y-111038819D01*
X80195641Y-110987047D01*
X80195646Y-110987042D01*
X80375238Y-110752994D01*
X80522743Y-110497507D01*
X80635639Y-110224952D01*
X80711993Y-109939993D01*
X80750500Y-109647506D01*
X80750500Y-109413389D01*
X82479500Y-109413389D01*
X82479500Y-109586611D01*
X82506598Y-109757701D01*
X82560127Y-109922445D01*
X82638768Y-110076788D01*
X82740586Y-110216928D01*
X82863072Y-110339414D01*
X83003212Y-110441232D01*
X83157555Y-110519873D01*
X83322299Y-110573402D01*
X83493389Y-110600500D01*
X83493390Y-110600500D01*
X83666610Y-110600500D01*
X83666611Y-110600500D01*
X83837701Y-110573402D01*
X84002445Y-110519873D01*
X84156788Y-110441232D01*
X84296928Y-110339414D01*
X84419414Y-110216928D01*
X84521232Y-110076788D01*
X84599873Y-109922445D01*
X84653402Y-109757701D01*
X84680500Y-109586611D01*
X84680500Y-109413389D01*
X84653402Y-109242299D01*
X84599873Y-109077555D01*
X84521232Y-108923212D01*
X84419414Y-108783072D01*
X84296928Y-108660586D01*
X84156788Y-108558768D01*
X84002445Y-108480127D01*
X83837701Y-108426598D01*
X83837699Y-108426597D01*
X83837698Y-108426597D01*
X83677426Y-108401213D01*
X83666611Y-108399500D01*
X83493389Y-108399500D01*
X83482574Y-108401213D01*
X83322302Y-108426597D01*
X83157552Y-108480128D01*
X83003211Y-108558768D01*
X82946289Y-108600125D01*
X82863072Y-108660586D01*
X82863070Y-108660588D01*
X82863069Y-108660588D01*
X82740588Y-108783069D01*
X82740588Y-108783070D01*
X82740586Y-108783072D01*
X82696859Y-108843256D01*
X82638768Y-108923211D01*
X82560128Y-109077552D01*
X82506597Y-109242302D01*
X82489146Y-109352486D01*
X82479500Y-109413389D01*
X80750500Y-109413389D01*
X80750500Y-109352494D01*
X80711993Y-109060007D01*
X80635639Y-108775048D01*
X80522743Y-108502493D01*
X80467309Y-108406479D01*
X80375238Y-108247006D01*
X80195647Y-108012959D01*
X80195641Y-108012952D01*
X79987047Y-107804358D01*
X79987040Y-107804352D01*
X79959052Y-107782876D01*
X79917849Y-107726448D01*
X79913694Y-107656702D01*
X79947906Y-107595782D01*
X80009624Y-107563029D01*
X80034538Y-107560500D01*
X86979953Y-107560500D01*
X87046992Y-107580185D01*
X87067634Y-107596819D01*
X87152786Y-107681971D01*
X87291673Y-107782876D01*
X87318390Y-107802287D01*
X87434607Y-107861503D01*
X87500776Y-107895218D01*
X87500778Y-107895218D01*
X87500781Y-107895220D01*
X87605137Y-107929127D01*
X87695465Y-107958477D01*
X87796557Y-107974488D01*
X87897648Y-107990500D01*
X87897649Y-107990500D01*
X88102351Y-107990500D01*
X88102352Y-107990500D01*
X88304534Y-107958477D01*
X88499219Y-107895220D01*
X88681610Y-107802287D01*
X88785994Y-107726448D01*
X88847213Y-107681971D01*
X88847215Y-107681968D01*
X88847219Y-107681966D01*
X88991966Y-107537219D01*
X88991968Y-107537215D01*
X88991971Y-107537213D01*
X89056194Y-107448816D01*
X89112287Y-107371610D01*
X89205220Y-107189219D01*
X89268477Y-106994534D01*
X89300500Y-106792352D01*
X89300500Y-106587648D01*
X89268477Y-106385466D01*
X89266900Y-106380614D01*
X89215735Y-106223144D01*
X89205220Y-106190781D01*
X89205218Y-106190778D01*
X89205218Y-106190776D01*
X89124717Y-106032786D01*
X89112287Y-106008390D01*
X89092452Y-105981089D01*
X88991971Y-105842786D01*
X88847213Y-105698028D01*
X88681613Y-105577715D01*
X88681612Y-105577714D01*
X88681610Y-105577713D01*
X88617586Y-105545091D01*
X88499223Y-105484781D01*
X88304534Y-105421522D01*
X88129995Y-105393878D01*
X88102352Y-105389500D01*
X87897648Y-105389500D01*
X87873329Y-105393351D01*
X87695465Y-105421522D01*
X87500776Y-105484781D01*
X87318386Y-105577715D01*
X87152786Y-105698028D01*
X87008028Y-105842786D01*
X86887715Y-106008386D01*
X86794778Y-106190783D01*
X86767799Y-106273818D01*
X86728362Y-106331494D01*
X86664003Y-106358692D01*
X86649868Y-106359500D01*
X76256300Y-106359500D01*
X76189261Y-106339815D01*
X76145815Y-106291795D01*
X76141322Y-106282977D01*
X76058870Y-106121155D01*
X76039952Y-106095117D01*
X75910798Y-105917350D01*
X75910794Y-105917345D01*
X75732654Y-105739205D01*
X75732649Y-105739201D01*
X75528848Y-105591132D01*
X75528847Y-105591131D01*
X75528845Y-105591130D01*
X75451065Y-105551499D01*
X75304383Y-105476760D01*
X75064785Y-105398910D01*
X75005373Y-105389500D01*
X74815962Y-105359500D01*
X74564038Y-105359500D01*
X74439626Y-105379205D01*
X74315214Y-105398910D01*
X74075616Y-105476760D01*
X73851151Y-105591132D01*
X73647350Y-105739201D01*
X73647345Y-105739205D01*
X73469205Y-105917345D01*
X73469201Y-105917350D01*
X73321132Y-106121151D01*
X73206760Y-106345616D01*
X73128910Y-106585214D01*
X73121070Y-106634713D01*
X73089500Y-106834038D01*
X73089500Y-107085962D01*
X73105855Y-107189221D01*
X73128910Y-107334785D01*
X73206760Y-107574383D01*
X73271860Y-107702147D01*
X73312993Y-107782876D01*
X73321132Y-107798848D01*
X73469201Y-108002649D01*
X73469205Y-108002654D01*
X73469207Y-108002656D01*
X73647344Y-108180793D01*
X73647345Y-108180794D01*
X73647344Y-108180794D01*
X73653661Y-108185383D01*
X73696327Y-108240714D01*
X73702305Y-108310327D01*
X73669699Y-108372122D01*
X73608860Y-108406479D01*
X73561378Y-108408174D01*
X73506611Y-108399500D01*
X73333389Y-108399500D01*
X73322574Y-108401213D01*
X73162302Y-108426597D01*
X72997552Y-108480128D01*
X72843211Y-108558768D01*
X72786289Y-108600125D01*
X72703072Y-108660586D01*
X72703070Y-108660588D01*
X72703069Y-108660588D01*
X72580588Y-108783069D01*
X72580588Y-108783070D01*
X72580586Y-108783072D01*
X72536859Y-108843256D01*
X72478768Y-108923211D01*
X72400128Y-109077552D01*
X72346597Y-109242302D01*
X72329146Y-109352486D01*
X72319500Y-109413389D01*
X72319500Y-109586611D01*
X72346598Y-109757701D01*
X72400127Y-109922445D01*
X72478768Y-110076788D01*
X72580586Y-110216928D01*
X72703072Y-110339414D01*
X72843212Y-110441232D01*
X72997555Y-110519873D01*
X73162299Y-110573402D01*
X73333389Y-110600500D01*
X73333390Y-110600500D01*
X73506610Y-110600500D01*
X73506611Y-110600500D01*
X73677701Y-110573402D01*
X73842445Y-110519873D01*
X73996788Y-110441232D01*
X74136928Y-110339414D01*
X74259414Y-110216928D01*
X74361232Y-110076788D01*
X74439873Y-109922445D01*
X74493402Y-109757701D01*
X74520500Y-109586611D01*
X74520500Y-109413389D01*
X74493402Y-109242299D01*
X74439873Y-109077555D01*
X74361232Y-108923212D01*
X74259414Y-108783072D01*
X74207482Y-108731140D01*
X74173997Y-108669817D01*
X74178981Y-108600125D01*
X74220853Y-108544192D01*
X74286317Y-108519775D01*
X74314561Y-108520986D01*
X74315212Y-108521089D01*
X74315215Y-108521090D01*
X74564038Y-108560500D01*
X74564039Y-108560500D01*
X74815961Y-108560500D01*
X74815962Y-108560500D01*
X75064785Y-108521090D01*
X75304379Y-108443241D01*
X75528845Y-108328870D01*
X75732656Y-108180793D01*
X75910793Y-108002656D01*
X76058870Y-107798845D01*
X76145815Y-107628204D01*
X76193789Y-107577409D01*
X76256300Y-107560500D01*
X76965462Y-107560500D01*
X77032501Y-107580185D01*
X77078256Y-107632989D01*
X77088200Y-107702147D01*
X77059175Y-107765703D01*
X77040948Y-107782876D01*
X77012959Y-107804352D01*
X77012952Y-107804358D01*
X76804358Y-108012952D01*
X76804352Y-108012959D01*
X76624761Y-108247006D01*
X76477258Y-108502489D01*
X76477254Y-108502499D01*
X76364364Y-108775038D01*
X76364361Y-108775048D01*
X76288008Y-109060004D01*
X76288006Y-109060015D01*
X76249500Y-109352486D01*
X76249500Y-109647513D01*
X76269499Y-109799412D01*
X76288007Y-109939993D01*
X76362212Y-110216930D01*
X76364361Y-110224951D01*
X76364364Y-110224961D01*
X76477254Y-110497500D01*
X76477258Y-110497510D01*
X76624761Y-110752993D01*
X76804352Y-110987040D01*
X76804358Y-110987047D01*
X76856130Y-111038819D01*
X76889615Y-111100142D01*
X76884631Y-111169834D01*
X76842759Y-111225767D01*
X76777295Y-111250184D01*
X76768449Y-111250500D01*
X61231551Y-111250500D01*
X61164512Y-111230815D01*
X61118757Y-111178011D01*
X61108813Y-111108853D01*
X61137838Y-111045297D01*
X61143870Y-111038819D01*
X61195641Y-110987047D01*
X61195646Y-110987042D01*
X61375238Y-110752994D01*
X61522743Y-110497507D01*
X61635639Y-110224952D01*
X61711993Y-109939993D01*
X61750500Y-109647506D01*
X61750500Y-109413389D01*
X63479500Y-109413389D01*
X63479500Y-109586611D01*
X63506598Y-109757701D01*
X63560127Y-109922445D01*
X63638768Y-110076788D01*
X63740586Y-110216928D01*
X63863072Y-110339414D01*
X64003212Y-110441232D01*
X64157555Y-110519873D01*
X64322299Y-110573402D01*
X64493389Y-110600500D01*
X64493390Y-110600500D01*
X64666610Y-110600500D01*
X64666611Y-110600500D01*
X64837701Y-110573402D01*
X65002445Y-110519873D01*
X65156788Y-110441232D01*
X65296928Y-110339414D01*
X65419414Y-110216928D01*
X65521232Y-110076788D01*
X65599873Y-109922445D01*
X65653402Y-109757701D01*
X65680500Y-109586611D01*
X65680500Y-109413389D01*
X65653402Y-109242299D01*
X65599873Y-109077555D01*
X65521232Y-108923212D01*
X65419414Y-108783072D01*
X65296928Y-108660586D01*
X65156788Y-108558768D01*
X65002445Y-108480127D01*
X64837701Y-108426598D01*
X64837699Y-108426597D01*
X64837698Y-108426597D01*
X64677426Y-108401213D01*
X64666611Y-108399500D01*
X64493389Y-108399500D01*
X64482574Y-108401213D01*
X64322302Y-108426597D01*
X64157552Y-108480128D01*
X64003211Y-108558768D01*
X63946289Y-108600125D01*
X63863072Y-108660586D01*
X63863070Y-108660588D01*
X63863069Y-108660588D01*
X63740588Y-108783069D01*
X63740588Y-108783070D01*
X63740586Y-108783072D01*
X63696859Y-108843256D01*
X63638768Y-108923211D01*
X63560128Y-109077552D01*
X63506597Y-109242302D01*
X63489146Y-109352486D01*
X63479500Y-109413389D01*
X61750500Y-109413389D01*
X61750500Y-109352494D01*
X61711993Y-109060007D01*
X61635639Y-108775048D01*
X61522743Y-108502493D01*
X61467309Y-108406479D01*
X61375238Y-108247006D01*
X61195647Y-108012959D01*
X61195641Y-108012952D01*
X60987047Y-107804358D01*
X60987040Y-107804352D01*
X60959052Y-107782876D01*
X60917849Y-107726448D01*
X60913694Y-107656702D01*
X60947906Y-107595782D01*
X61009624Y-107563029D01*
X61034538Y-107560500D01*
X67823725Y-107560500D01*
X67890764Y-107580185D01*
X67924042Y-107611613D01*
X67956801Y-107656702D01*
X68008034Y-107727219D01*
X68152786Y-107871971D01*
X68245811Y-107939556D01*
X68318390Y-107992287D01*
X68391313Y-108029443D01*
X68500776Y-108085218D01*
X68500778Y-108085218D01*
X68500781Y-108085220D01*
X68605137Y-108119127D01*
X68695465Y-108148477D01*
X68796557Y-108164488D01*
X68897648Y-108180500D01*
X68897649Y-108180500D01*
X69102351Y-108180500D01*
X69102352Y-108180500D01*
X69304534Y-108148477D01*
X69499219Y-108085220D01*
X69681610Y-107992287D01*
X69814073Y-107896048D01*
X69847213Y-107871971D01*
X69847215Y-107871968D01*
X69847219Y-107871966D01*
X69991966Y-107727219D01*
X69991968Y-107727215D01*
X69991971Y-107727213D01*
X70044732Y-107654590D01*
X70112287Y-107561610D01*
X70205220Y-107379219D01*
X70268477Y-107184534D01*
X70300500Y-106982352D01*
X70300500Y-106777648D01*
X70277861Y-106634713D01*
X70268477Y-106575465D01*
X70219510Y-106424761D01*
X70205220Y-106380781D01*
X70205218Y-106380778D01*
X70205218Y-106380776D01*
X70155386Y-106282977D01*
X70112287Y-106198390D01*
X70104556Y-106187749D01*
X69991971Y-106032786D01*
X69847213Y-105888028D01*
X69681613Y-105767715D01*
X69681612Y-105767714D01*
X69681610Y-105767713D01*
X69570101Y-105710896D01*
X69499223Y-105674781D01*
X69304534Y-105611522D01*
X69129995Y-105583878D01*
X69102352Y-105579500D01*
X68897648Y-105579500D01*
X68873329Y-105583351D01*
X68695465Y-105611522D01*
X68500776Y-105674781D01*
X68318386Y-105767715D01*
X68152786Y-105888028D01*
X68008028Y-106032786D01*
X67887715Y-106198385D01*
X67861063Y-106250692D01*
X67849281Y-106273818D01*
X67840121Y-106291795D01*
X67792147Y-106342591D01*
X67729636Y-106359500D01*
X57256300Y-106359500D01*
X57189261Y-106339815D01*
X57145815Y-106291795D01*
X57141322Y-106282977D01*
X57058870Y-106121155D01*
X57039952Y-106095117D01*
X56910798Y-105917350D01*
X56910794Y-105917345D01*
X56732654Y-105739205D01*
X56732649Y-105739201D01*
X56528848Y-105591132D01*
X56528847Y-105591131D01*
X56528845Y-105591130D01*
X56304379Y-105476759D01*
X56298150Y-105474735D01*
X56240477Y-105435294D01*
X56213282Y-105370934D01*
X56225201Y-105302088D01*
X56248788Y-105269132D01*
X56461103Y-105056816D01*
X56522425Y-105023334D01*
X56548783Y-105020500D01*
X60473700Y-105020500D01*
X60540739Y-105040185D01*
X60584185Y-105088205D01*
X60671132Y-105258848D01*
X60819201Y-105462649D01*
X60819205Y-105462654D01*
X60997345Y-105640794D01*
X60997350Y-105640798D01*
X61172035Y-105767713D01*
X61201155Y-105788870D01*
X61344184Y-105861747D01*
X61425616Y-105903239D01*
X61425618Y-105903239D01*
X61425621Y-105903241D01*
X61665215Y-105981090D01*
X61914038Y-106020500D01*
X61914039Y-106020500D01*
X62165961Y-106020500D01*
X62165962Y-106020500D01*
X62414785Y-105981090D01*
X62654379Y-105903241D01*
X62878845Y-105788870D01*
X63082656Y-105640793D01*
X63260793Y-105462656D01*
X63408870Y-105258845D01*
X63523241Y-105034379D01*
X63601090Y-104794785D01*
X63640500Y-104545962D01*
X63640500Y-104294038D01*
X79439500Y-104294038D01*
X79439500Y-104545961D01*
X79478910Y-104794785D01*
X79556760Y-105034383D01*
X79671132Y-105258848D01*
X79819201Y-105462649D01*
X79819205Y-105462654D01*
X79997345Y-105640794D01*
X79997350Y-105640798D01*
X80172035Y-105767713D01*
X80201155Y-105788870D01*
X80344184Y-105861747D01*
X80425616Y-105903239D01*
X80425618Y-105903239D01*
X80425621Y-105903241D01*
X80665215Y-105981090D01*
X80914038Y-106020500D01*
X80914039Y-106020500D01*
X81165961Y-106020500D01*
X81165962Y-106020500D01*
X81414785Y-105981090D01*
X81654379Y-105903241D01*
X81878845Y-105788870D01*
X82082656Y-105640793D01*
X82260793Y-105462656D01*
X82408870Y-105258845D01*
X82523241Y-105034379D01*
X82601090Y-104794785D01*
X82640500Y-104545962D01*
X82640500Y-104294038D01*
X82601090Y-104045215D01*
X82523241Y-103805621D01*
X82523239Y-103805618D01*
X82523239Y-103805616D01*
X82481747Y-103724184D01*
X82408870Y-103581155D01*
X82389952Y-103555117D01*
X82260798Y-103377350D01*
X82260794Y-103377345D01*
X82082654Y-103199205D01*
X82082649Y-103199201D01*
X81878848Y-103051132D01*
X81878847Y-103051131D01*
X81878845Y-103051130D01*
X81808747Y-103015413D01*
X81654383Y-102936760D01*
X81414785Y-102858910D01*
X81327037Y-102845012D01*
X81165962Y-102819500D01*
X80914038Y-102819500D01*
X80789626Y-102839205D01*
X80665214Y-102858910D01*
X80425616Y-102936760D01*
X80201151Y-103051132D01*
X79997350Y-103199201D01*
X79997345Y-103199205D01*
X79819205Y-103377345D01*
X79819201Y-103377350D01*
X79671132Y-103581151D01*
X79556760Y-103805616D01*
X79478910Y-104045214D01*
X79439500Y-104294038D01*
X63640500Y-104294038D01*
X63601090Y-104045215D01*
X63523241Y-103805621D01*
X63523239Y-103805618D01*
X63523239Y-103805616D01*
X63481747Y-103724184D01*
X63408870Y-103581155D01*
X63389952Y-103555117D01*
X63260798Y-103377350D01*
X63260794Y-103377345D01*
X63082654Y-103199205D01*
X63082649Y-103199201D01*
X62878848Y-103051132D01*
X62878847Y-103051131D01*
X62878845Y-103051130D01*
X62808747Y-103015413D01*
X62654383Y-102936760D01*
X62414785Y-102858910D01*
X62327037Y-102845012D01*
X62165962Y-102819500D01*
X61914038Y-102819500D01*
X61789626Y-102839205D01*
X61665214Y-102858910D01*
X61425616Y-102936760D01*
X61201151Y-103051132D01*
X60997350Y-103199201D01*
X60997345Y-103199205D01*
X60819205Y-103377345D01*
X60819201Y-103377350D01*
X60671132Y-103581151D01*
X60671130Y-103581155D01*
X60619448Y-103682588D01*
X60584185Y-103751795D01*
X60536211Y-103802591D01*
X60473700Y-103819500D01*
X56335355Y-103819500D01*
X56335339Y-103819499D01*
X56327743Y-103819499D01*
X56169629Y-103819499D01*
X56089696Y-103840917D01*
X56016902Y-103860422D01*
X55974752Y-103884758D01*
X55974751Y-103884757D01*
X55879973Y-103939477D01*
X55879968Y-103939481D01*
X55774236Y-104045214D01*
X55768166Y-104051284D01*
X55768164Y-104051286D01*
X55302208Y-104517243D01*
X54866270Y-104953181D01*
X54804947Y-104986666D01*
X54778589Y-104989500D01*
X49566290Y-104989500D01*
X49499251Y-104969815D01*
X49453496Y-104917011D01*
X49443552Y-104847853D01*
X49455805Y-104809205D01*
X49501557Y-104719412D01*
X49567246Y-104517243D01*
X49600500Y-104307287D01*
X49600500Y-104094713D01*
X49567246Y-103884757D01*
X49501557Y-103682588D01*
X49405051Y-103493184D01*
X49405049Y-103493181D01*
X49405048Y-103493179D01*
X49280109Y-103321213D01*
X49129786Y-103170890D01*
X48957820Y-103045951D01*
X48768414Y-102949444D01*
X48768413Y-102949443D01*
X48768412Y-102949443D01*
X48566243Y-102883754D01*
X48566241Y-102883753D01*
X48566240Y-102883753D01*
X48399978Y-102857420D01*
X48356287Y-102850500D01*
X46143713Y-102850500D01*
X46100022Y-102857420D01*
X45933760Y-102883753D01*
X45731585Y-102949444D01*
X45542179Y-103045951D01*
X45370213Y-103170890D01*
X45219890Y-103321213D01*
X45094951Y-103493179D01*
X44998444Y-103682585D01*
X44998443Y-103682587D01*
X44998443Y-103682588D01*
X44932754Y-103884757D01*
X44899500Y-104094713D01*
X44899500Y-104307287D01*
X44932754Y-104517243D01*
X44998443Y-104719412D01*
X45036847Y-104794785D01*
X45044195Y-104809205D01*
X45057091Y-104877874D01*
X45030815Y-104942615D01*
X44973709Y-104982872D01*
X44933710Y-104989500D01*
X32374500Y-104989500D01*
X32307461Y-104969815D01*
X32261706Y-104917011D01*
X32250500Y-104865500D01*
X32250499Y-103303129D01*
X32250498Y-103303123D01*
X32244091Y-103243516D01*
X32193797Y-103108671D01*
X32193793Y-103108664D01*
X32107547Y-102993455D01*
X32107544Y-102993452D01*
X31992335Y-102907206D01*
X31992328Y-102907202D01*
X31857482Y-102856908D01*
X31857483Y-102856908D01*
X31797883Y-102850501D01*
X31797881Y-102850500D01*
X31797873Y-102850500D01*
X31797864Y-102850500D01*
X28202129Y-102850500D01*
X28202120Y-102850501D01*
X28137752Y-102857420D01*
X28068992Y-102845012D01*
X28017856Y-102797400D01*
X28000500Y-102734130D01*
X28000500Y-100124500D01*
X28020185Y-100057461D01*
X28072989Y-100011706D01*
X28124500Y-100000500D01*
X125875500Y-100000500D01*
X125942539Y-100020185D01*
G37*
G04 #@! TD.AperFunction*
G04 #@! TA.AperFunction,NonConductor*
G36*
X49627942Y-114981185D02*
G01*
X49648584Y-114997819D01*
X50665425Y-116014660D01*
X50698910Y-116075983D01*
X50699361Y-116078148D01*
X50714113Y-116152307D01*
X50707886Y-116221899D01*
X50665024Y-116277077D01*
X50599134Y-116300322D01*
X50592496Y-116300500D01*
X49485719Y-116300500D01*
X49418680Y-116280815D01*
X49375235Y-116232795D01*
X49355052Y-116193185D01*
X49355051Y-116193184D01*
X49230109Y-116021213D01*
X49079786Y-115870890D01*
X48907820Y-115745951D01*
X48903590Y-115743796D01*
X48899054Y-115741485D01*
X48848259Y-115693512D01*
X48831463Y-115625692D01*
X48853999Y-115559556D01*
X48899054Y-115520515D01*
X48907816Y-115516051D01*
X48944076Y-115489707D01*
X49079786Y-115391109D01*
X49079788Y-115391106D01*
X49079792Y-115391104D01*
X49230104Y-115240792D01*
X49230106Y-115240788D01*
X49230109Y-115240786D01*
X49317729Y-115120185D01*
X49355051Y-115068816D01*
X49355349Y-115068230D01*
X49375235Y-115029205D01*
X49385683Y-115018142D01*
X49392006Y-115004297D01*
X49409187Y-114993255D01*
X49423209Y-114978409D01*
X49438888Y-114974167D01*
X49450784Y-114966523D01*
X49485719Y-114961500D01*
X49560903Y-114961500D01*
X49627942Y-114981185D01*
G37*
G04 #@! TD.AperFunction*
G04 #@! TA.AperFunction,NonConductor*
G36*
X44915188Y-113818425D02*
G01*
X44942910Y-113823223D01*
X44948264Y-113828137D01*
X44955237Y-113830185D01*
X44973656Y-113851442D01*
X44994385Y-113870467D01*
X44996232Y-113877496D01*
X45000992Y-113882989D01*
X45004995Y-113910835D01*
X45012147Y-113938041D01*
X45010377Y-113948264D01*
X45010936Y-113952147D01*
X45006130Y-113972812D01*
X44984228Y-114040220D01*
X44982753Y-114044760D01*
X44949500Y-114254713D01*
X44949500Y-114467286D01*
X44982753Y-114677239D01*
X45048444Y-114879414D01*
X45144951Y-115068820D01*
X45269890Y-115240786D01*
X45420213Y-115391109D01*
X45592182Y-115516050D01*
X45600946Y-115520516D01*
X45651742Y-115568491D01*
X45668536Y-115636312D01*
X45645998Y-115702447D01*
X45600946Y-115741484D01*
X45592182Y-115745949D01*
X45420213Y-115870890D01*
X45269890Y-116021213D01*
X45144951Y-116193179D01*
X45048444Y-116382585D01*
X44982753Y-116584760D01*
X44949500Y-116794713D01*
X44949500Y-117007286D01*
X44982752Y-117217235D01*
X44982754Y-117217243D01*
X45007711Y-117294053D01*
X45048444Y-117419414D01*
X45144951Y-117608820D01*
X45269890Y-117780786D01*
X45420213Y-117931109D01*
X45592182Y-118056050D01*
X45600946Y-118060516D01*
X45651742Y-118108491D01*
X45668536Y-118176312D01*
X45645998Y-118242447D01*
X45600946Y-118281484D01*
X45592182Y-118285949D01*
X45420213Y-118410890D01*
X45269890Y-118561213D01*
X45144951Y-118733179D01*
X45048444Y-118922585D01*
X44982753Y-119124760D01*
X44980600Y-119138355D01*
X44949500Y-119334713D01*
X44949500Y-119547287D01*
X44959534Y-119610644D01*
X44978993Y-119733501D01*
X44982754Y-119757243D01*
X45022371Y-119879172D01*
X45048444Y-119959414D01*
X45144951Y-120148820D01*
X45269890Y-120320786D01*
X45420213Y-120471109D01*
X45592179Y-120596048D01*
X45592181Y-120596049D01*
X45592184Y-120596051D01*
X45781588Y-120692557D01*
X45983757Y-120758246D01*
X46193713Y-120791500D01*
X46193714Y-120791500D01*
X48306286Y-120791500D01*
X48306287Y-120791500D01*
X48516243Y-120758246D01*
X48718412Y-120692557D01*
X48907816Y-120596051D01*
X49069786Y-120478374D01*
X49079786Y-120471109D01*
X49079788Y-120471106D01*
X49079792Y-120471104D01*
X49230104Y-120320792D01*
X49230106Y-120320788D01*
X49230109Y-120320786D01*
X49355048Y-120148820D01*
X49355047Y-120148820D01*
X49355051Y-120148816D01*
X49451557Y-119959412D01*
X49517246Y-119757243D01*
X49550500Y-119547287D01*
X49550500Y-119421153D01*
X53199500Y-119421153D01*
X53199500Y-119578846D01*
X53230261Y-119733489D01*
X53230264Y-119733501D01*
X53290602Y-119879172D01*
X53290609Y-119879185D01*
X53378210Y-120010288D01*
X53378213Y-120010292D01*
X53489707Y-120121786D01*
X53489711Y-120121789D01*
X53620814Y-120209390D01*
X53620827Y-120209397D01*
X53766498Y-120269735D01*
X53766503Y-120269737D01*
X53921153Y-120300499D01*
X53921156Y-120300500D01*
X53921158Y-120300500D01*
X54078844Y-120300500D01*
X54078845Y-120300499D01*
X54233497Y-120269737D01*
X54379179Y-120209394D01*
X54379185Y-120209390D01*
X54510875Y-120121398D01*
X54577553Y-120100520D01*
X54579766Y-120100500D01*
X76819903Y-120100500D01*
X76886942Y-120120185D01*
X76907584Y-120136819D01*
X79507841Y-122737076D01*
X79541326Y-122798399D01*
X79538091Y-122863076D01*
X79478910Y-123045214D01*
X79439500Y-123294038D01*
X79439500Y-123545961D01*
X79478910Y-123794785D01*
X79556760Y-124034383D01*
X79671132Y-124258848D01*
X79819201Y-124462649D01*
X79819205Y-124462654D01*
X79997345Y-124640794D01*
X79997350Y-124640798D01*
X80175117Y-124769952D01*
X80201155Y-124788870D01*
X80344184Y-124861747D01*
X80425616Y-124903239D01*
X80425618Y-124903239D01*
X80425621Y-124903241D01*
X80665215Y-124981090D01*
X80914038Y-125020500D01*
X80914039Y-125020500D01*
X81165961Y-125020500D01*
X81165962Y-125020500D01*
X81414785Y-124981090D01*
X81654379Y-124903241D01*
X81878845Y-124788870D01*
X82082656Y-124640793D01*
X82260793Y-124462656D01*
X82408870Y-124258845D01*
X82523241Y-124034379D01*
X82601090Y-123794785D01*
X82640500Y-123545962D01*
X82640500Y-123294038D01*
X98439500Y-123294038D01*
X98439500Y-123545961D01*
X98478910Y-123794785D01*
X98556760Y-124034383D01*
X98671132Y-124258848D01*
X98819201Y-124462649D01*
X98819205Y-124462654D01*
X98997345Y-124640794D01*
X98997350Y-124640798D01*
X99175117Y-124769952D01*
X99201155Y-124788870D01*
X99344184Y-124861747D01*
X99425616Y-124903239D01*
X99425618Y-124903239D01*
X99425621Y-124903241D01*
X99665215Y-124981090D01*
X99914038Y-125020500D01*
X99914039Y-125020500D01*
X100165961Y-125020500D01*
X100165962Y-125020500D01*
X100414785Y-124981090D01*
X100654379Y-124903241D01*
X100878845Y-124788870D01*
X101082656Y-124640793D01*
X101260793Y-124462656D01*
X101408870Y-124258845D01*
X101523241Y-124034379D01*
X101601090Y-123794785D01*
X101640500Y-123545962D01*
X101640500Y-123294038D01*
X101601090Y-123045215D01*
X101523241Y-122805621D01*
X101523239Y-122805618D01*
X101523239Y-122805616D01*
X101481747Y-122724184D01*
X101408870Y-122581155D01*
X101389952Y-122555117D01*
X101260798Y-122377350D01*
X101260794Y-122377345D01*
X101082654Y-122199205D01*
X101082649Y-122199201D01*
X100878848Y-122051132D01*
X100878847Y-122051131D01*
X100878845Y-122051130D01*
X100808747Y-122015413D01*
X100654383Y-121936760D01*
X100414785Y-121858910D01*
X100165962Y-121819500D01*
X99914038Y-121819500D01*
X99789626Y-121839205D01*
X99665214Y-121858910D01*
X99425616Y-121936760D01*
X99201151Y-122051132D01*
X98997350Y-122199201D01*
X98997345Y-122199205D01*
X98819205Y-122377345D01*
X98819201Y-122377350D01*
X98671132Y-122581151D01*
X98556760Y-122805616D01*
X98478910Y-123045214D01*
X98439500Y-123294038D01*
X82640500Y-123294038D01*
X82601090Y-123045215D01*
X82523241Y-122805621D01*
X82523239Y-122805618D01*
X82523239Y-122805616D01*
X82481747Y-122724184D01*
X82408870Y-122581155D01*
X82389952Y-122555117D01*
X82260798Y-122377350D01*
X82260794Y-122377345D01*
X82082654Y-122199205D01*
X82082649Y-122199201D01*
X81878848Y-122051132D01*
X81878847Y-122051131D01*
X81878845Y-122051130D01*
X81808747Y-122015413D01*
X81654383Y-121936760D01*
X81414785Y-121858910D01*
X81165962Y-121819500D01*
X80914038Y-121819500D01*
X80789626Y-121839205D01*
X80665214Y-121858910D01*
X80576175Y-121887841D01*
X80483074Y-121918091D01*
X80413234Y-121920086D01*
X80357076Y-121887841D01*
X77607590Y-119138355D01*
X77607588Y-119138352D01*
X77488717Y-119019481D01*
X77488716Y-119019480D01*
X77397966Y-118967086D01*
X77351785Y-118940423D01*
X77199057Y-118899499D01*
X77040943Y-118899499D01*
X77033347Y-118899499D01*
X77033331Y-118899500D01*
X54579766Y-118899500D01*
X54512727Y-118879815D01*
X54510875Y-118878602D01*
X54379185Y-118790609D01*
X54379172Y-118790602D01*
X54233501Y-118730264D01*
X54233489Y-118730261D01*
X54078845Y-118699500D01*
X54078842Y-118699500D01*
X53921158Y-118699500D01*
X53921155Y-118699500D01*
X53766510Y-118730261D01*
X53766498Y-118730264D01*
X53620827Y-118790602D01*
X53620814Y-118790609D01*
X53489711Y-118878210D01*
X53489707Y-118878213D01*
X53378213Y-118989707D01*
X53378210Y-118989711D01*
X53290609Y-119120814D01*
X53290602Y-119120827D01*
X53230264Y-119266498D01*
X53230261Y-119266510D01*
X53199500Y-119421153D01*
X49550500Y-119421153D01*
X49550500Y-119334713D01*
X49517246Y-119124757D01*
X49451557Y-118922588D01*
X49355051Y-118733184D01*
X49355049Y-118733181D01*
X49355048Y-118733179D01*
X49230109Y-118561213D01*
X49079786Y-118410890D01*
X48907820Y-118285951D01*
X48907115Y-118285591D01*
X48899054Y-118281485D01*
X48848259Y-118233512D01*
X48831463Y-118165692D01*
X48853999Y-118099556D01*
X48899054Y-118060515D01*
X48907816Y-118056051D01*
X48929789Y-118040086D01*
X49079786Y-117931109D01*
X49079788Y-117931106D01*
X49079792Y-117931104D01*
X49230104Y-117780792D01*
X49230106Y-117780788D01*
X49230109Y-117780786D01*
X49288661Y-117700193D01*
X49355051Y-117608816D01*
X49355349Y-117608230D01*
X49375235Y-117569205D01*
X49423209Y-117518409D01*
X49485719Y-117501500D01*
X112220903Y-117501500D01*
X112287942Y-117521185D01*
X112308584Y-117537819D01*
X117507841Y-122737076D01*
X117541326Y-122798399D01*
X117538091Y-122863076D01*
X117478910Y-123045214D01*
X117439500Y-123294038D01*
X117439500Y-123545961D01*
X117478910Y-123794785D01*
X117556760Y-124034383D01*
X117671132Y-124258848D01*
X117819201Y-124462649D01*
X117819205Y-124462654D01*
X117997345Y-124640794D01*
X117997350Y-124640798D01*
X118175117Y-124769952D01*
X118201155Y-124788870D01*
X118344184Y-124861747D01*
X118425616Y-124903239D01*
X118425618Y-124903239D01*
X118425621Y-124903241D01*
X118665215Y-124981090D01*
X118914038Y-125020500D01*
X118914039Y-125020500D01*
X119165961Y-125020500D01*
X119165962Y-125020500D01*
X119414785Y-124981090D01*
X119654379Y-124903241D01*
X119878845Y-124788870D01*
X120082656Y-124640793D01*
X120260793Y-124462656D01*
X120408870Y-124258845D01*
X120523241Y-124034379D01*
X120601090Y-123794785D01*
X120640500Y-123545962D01*
X120640500Y-123294038D01*
X120601090Y-123045215D01*
X120523241Y-122805621D01*
X120523239Y-122805618D01*
X120523239Y-122805616D01*
X120481747Y-122724184D01*
X120408870Y-122581155D01*
X120389952Y-122555117D01*
X120260798Y-122377350D01*
X120260794Y-122377345D01*
X120082654Y-122199205D01*
X120082649Y-122199201D01*
X119878848Y-122051132D01*
X119878847Y-122051131D01*
X119878845Y-122051130D01*
X119808747Y-122015413D01*
X119654383Y-121936760D01*
X119414785Y-121858910D01*
X119165962Y-121819500D01*
X118914038Y-121819500D01*
X118789626Y-121839205D01*
X118665214Y-121858910D01*
X118576175Y-121887841D01*
X118483074Y-121918091D01*
X118413234Y-121920086D01*
X118357076Y-121887841D01*
X113008590Y-116539355D01*
X113008588Y-116539352D01*
X112889717Y-116420481D01*
X112889716Y-116420480D01*
X112800057Y-116368716D01*
X112800056Y-116368715D01*
X112752783Y-116341422D01*
X112696881Y-116326443D01*
X112600057Y-116300499D01*
X112441943Y-116300499D01*
X112434347Y-116300499D01*
X112434331Y-116300500D01*
X52407504Y-116300500D01*
X52340465Y-116280815D01*
X52294710Y-116228011D01*
X52284766Y-116158853D01*
X52285887Y-116152309D01*
X52300499Y-116078846D01*
X52300500Y-116078844D01*
X52300500Y-115921155D01*
X52300499Y-115921153D01*
X52276499Y-115800498D01*
X52269737Y-115766503D01*
X52259374Y-115741484D01*
X52209397Y-115620827D01*
X52209390Y-115620814D01*
X52121789Y-115489711D01*
X52121786Y-115489707D01*
X52010292Y-115378213D01*
X52010288Y-115378210D01*
X51879185Y-115290609D01*
X51879172Y-115290602D01*
X51733501Y-115230264D01*
X51733491Y-115230261D01*
X51578149Y-115199361D01*
X51516238Y-115166976D01*
X51514660Y-115165425D01*
X50371416Y-114022181D01*
X50337931Y-113960858D01*
X50342915Y-113891166D01*
X50384787Y-113835233D01*
X50450251Y-113810816D01*
X50459097Y-113810500D01*
X67409903Y-113810500D01*
X67439343Y-113819144D01*
X67469330Y-113825668D01*
X67474345Y-113829422D01*
X67476942Y-113830185D01*
X67497584Y-113846819D01*
X67663181Y-114012416D01*
X67696666Y-114073739D01*
X67699500Y-114100097D01*
X67699500Y-115347870D01*
X67699501Y-115347876D01*
X67705908Y-115407483D01*
X67756202Y-115542328D01*
X67756206Y-115542335D01*
X67842452Y-115657544D01*
X67842455Y-115657547D01*
X67957664Y-115743793D01*
X67957671Y-115743797D01*
X68092517Y-115794091D01*
X68092516Y-115794091D01*
X68099444Y-115794835D01*
X68152127Y-115800500D01*
X69847872Y-115800499D01*
X69907483Y-115794091D01*
X70042331Y-115743796D01*
X70157546Y-115657546D01*
X70243796Y-115542331D01*
X70294091Y-115407483D01*
X70300500Y-115347873D01*
X70300500Y-115224500D01*
X70320185Y-115157461D01*
X70372989Y-115111706D01*
X70424500Y-115100500D01*
X86581949Y-115100500D01*
X86648988Y-115120185D01*
X86694743Y-115172989D01*
X86705239Y-115211251D01*
X86705908Y-115217482D01*
X86756202Y-115352328D01*
X86756206Y-115352335D01*
X86842452Y-115467544D01*
X86842455Y-115467547D01*
X86957664Y-115553793D01*
X86957671Y-115553797D01*
X87092517Y-115604091D01*
X87092516Y-115604091D01*
X87099444Y-115604835D01*
X87152127Y-115610500D01*
X88847872Y-115610499D01*
X88907483Y-115604091D01*
X89042331Y-115553796D01*
X89157546Y-115467546D01*
X89243796Y-115352331D01*
X89294091Y-115217483D01*
X89300500Y-115157873D01*
X89300500Y-115034500D01*
X89320185Y-114967461D01*
X89372989Y-114921706D01*
X89424500Y-114910500D01*
X105575501Y-114910500D01*
X105642540Y-114930185D01*
X105688295Y-114982989D01*
X105699501Y-115034500D01*
X105699501Y-115157876D01*
X105705908Y-115217483D01*
X105756202Y-115352328D01*
X105756206Y-115352335D01*
X105842452Y-115467544D01*
X105842455Y-115467547D01*
X105957664Y-115553793D01*
X105957671Y-115553797D01*
X106092517Y-115604091D01*
X106092516Y-115604091D01*
X106099444Y-115604835D01*
X106152127Y-115610500D01*
X107847872Y-115610499D01*
X107907483Y-115604091D01*
X108042331Y-115553796D01*
X108157546Y-115467546D01*
X108243796Y-115352331D01*
X108294091Y-115217483D01*
X108300500Y-115157873D01*
X108300500Y-115034500D01*
X108320185Y-114967461D01*
X108372989Y-114921706D01*
X108424500Y-114910500D01*
X123075501Y-114910500D01*
X123142540Y-114930185D01*
X123188295Y-114982989D01*
X123199501Y-115034500D01*
X123199501Y-115157876D01*
X123205908Y-115217483D01*
X123256202Y-115352328D01*
X123256206Y-115352335D01*
X123342452Y-115467544D01*
X123342455Y-115467547D01*
X123457664Y-115553793D01*
X123457671Y-115553797D01*
X123592517Y-115604091D01*
X123592516Y-115604091D01*
X123599444Y-115604835D01*
X123652127Y-115610500D01*
X125347872Y-115610499D01*
X125407483Y-115604091D01*
X125542331Y-115553796D01*
X125657546Y-115467546D01*
X125743796Y-115352331D01*
X125759318Y-115310715D01*
X125801189Y-115254781D01*
X125866653Y-115230364D01*
X125934926Y-115245215D01*
X125984332Y-115294620D01*
X125999500Y-115354048D01*
X125999500Y-125813575D01*
X125979815Y-125880614D01*
X125927011Y-125926369D01*
X125857853Y-125936313D01*
X125794297Y-125907288D01*
X125757569Y-125851894D01*
X125705218Y-125690776D01*
X125651431Y-125585214D01*
X125612287Y-125508390D01*
X125604556Y-125497749D01*
X125491971Y-125342786D01*
X125347213Y-125198028D01*
X125181613Y-125077715D01*
X125181612Y-125077714D01*
X125181610Y-125077713D01*
X125124653Y-125048691D01*
X124999223Y-124984781D01*
X124804534Y-124921522D01*
X124629995Y-124893878D01*
X124602352Y-124889500D01*
X124397648Y-124889500D01*
X124373329Y-124893351D01*
X124195465Y-124921522D01*
X124000776Y-124984781D01*
X123818386Y-125077715D01*
X123652786Y-125198028D01*
X123652782Y-125198032D01*
X123527634Y-125323181D01*
X123466311Y-125356666D01*
X123439953Y-125359500D01*
X114256300Y-125359500D01*
X114189261Y-125339815D01*
X114145815Y-125291795D01*
X114058870Y-125121155D01*
X113957107Y-124981090D01*
X113910798Y-124917350D01*
X113910794Y-124917345D01*
X113732654Y-124739205D01*
X113732649Y-124739201D01*
X113528848Y-124591132D01*
X113528847Y-124591131D01*
X113528845Y-124591130D01*
X113458747Y-124555413D01*
X113304383Y-124476760D01*
X113064785Y-124398910D01*
X112815962Y-124359500D01*
X112564038Y-124359500D01*
X112439626Y-124379205D01*
X112315214Y-124398910D01*
X112075616Y-124476760D01*
X111851151Y-124591132D01*
X111647350Y-124739201D01*
X111647345Y-124739205D01*
X111469205Y-124917345D01*
X111469201Y-124917350D01*
X111321132Y-125121151D01*
X111206760Y-125345616D01*
X111128910Y-125585214D01*
X111089500Y-125834038D01*
X111089500Y-126085961D01*
X111128910Y-126334785D01*
X111206760Y-126574383D01*
X111265271Y-126689216D01*
X111312993Y-126782876D01*
X111321132Y-126798848D01*
X111469201Y-127002649D01*
X111469205Y-127002654D01*
X111469207Y-127002656D01*
X111647344Y-127180793D01*
X111647345Y-127180794D01*
X111647344Y-127180794D01*
X111653661Y-127185383D01*
X111696327Y-127240714D01*
X111702305Y-127310327D01*
X111669699Y-127372122D01*
X111608860Y-127406479D01*
X111561378Y-127408174D01*
X111506611Y-127399500D01*
X111333389Y-127399500D01*
X111293728Y-127405781D01*
X111162302Y-127426597D01*
X110997552Y-127480128D01*
X110843211Y-127558768D01*
X110786289Y-127600125D01*
X110703072Y-127660586D01*
X110703070Y-127660588D01*
X110703069Y-127660588D01*
X110580588Y-127783069D01*
X110580588Y-127783070D01*
X110580586Y-127783072D01*
X110536859Y-127843256D01*
X110478768Y-127923211D01*
X110400128Y-128077552D01*
X110346597Y-128242302D01*
X110329146Y-128352486D01*
X110319500Y-128413389D01*
X110319500Y-128586611D01*
X110346598Y-128757701D01*
X110400127Y-128922445D01*
X110478768Y-129076788D01*
X110580586Y-129216928D01*
X110703072Y-129339414D01*
X110843212Y-129441232D01*
X110997555Y-129519873D01*
X111162299Y-129573402D01*
X111333389Y-129600500D01*
X111333390Y-129600500D01*
X111506610Y-129600500D01*
X111506611Y-129600500D01*
X111677701Y-129573402D01*
X111842445Y-129519873D01*
X111996788Y-129441232D01*
X112136928Y-129339414D01*
X112259414Y-129216928D01*
X112361232Y-129076788D01*
X112439873Y-128922445D01*
X112493402Y-128757701D01*
X112520500Y-128586611D01*
X112520500Y-128413389D01*
X112493402Y-128242299D01*
X112439873Y-128077555D01*
X112361232Y-127923212D01*
X112259414Y-127783072D01*
X112207482Y-127731140D01*
X112173997Y-127669817D01*
X112178981Y-127600125D01*
X112220853Y-127544192D01*
X112286317Y-127519775D01*
X112314561Y-127520986D01*
X112315212Y-127521089D01*
X112315215Y-127521090D01*
X112564038Y-127560500D01*
X112564039Y-127560500D01*
X112815961Y-127560500D01*
X112815962Y-127560500D01*
X113064785Y-127521090D01*
X113304379Y-127443241D01*
X113528845Y-127328870D01*
X113732656Y-127180793D01*
X113910793Y-127002656D01*
X114058870Y-126798845D01*
X114145815Y-126628204D01*
X114193789Y-126577409D01*
X114256300Y-126560500D01*
X114965462Y-126560500D01*
X115032501Y-126580185D01*
X115078256Y-126632989D01*
X115088200Y-126702147D01*
X115059175Y-126765703D01*
X115040948Y-126782876D01*
X115012959Y-126804352D01*
X115012952Y-126804358D01*
X114804358Y-127012952D01*
X114804352Y-127012959D01*
X114624761Y-127247006D01*
X114477258Y-127502489D01*
X114477254Y-127502499D01*
X114364364Y-127775038D01*
X114364361Y-127775048D01*
X114288008Y-128060004D01*
X114288006Y-128060015D01*
X114249500Y-128352486D01*
X114249500Y-128647513D01*
X114281571Y-128891113D01*
X114288007Y-128939993D01*
X114362212Y-129216930D01*
X114364361Y-129224951D01*
X114364364Y-129224961D01*
X114477254Y-129497500D01*
X114477258Y-129497510D01*
X114624761Y-129752993D01*
X114804352Y-129987040D01*
X114804358Y-129987047D01*
X115012952Y-130195641D01*
X115012959Y-130195647D01*
X115247006Y-130375238D01*
X115502489Y-130522741D01*
X115502490Y-130522741D01*
X115502493Y-130522743D01*
X115775048Y-130635639D01*
X116060007Y-130711993D01*
X116352494Y-130750500D01*
X116352501Y-130750500D01*
X116647499Y-130750500D01*
X116647506Y-130750500D01*
X116939993Y-130711993D01*
X117224952Y-130635639D01*
X117497507Y-130522743D01*
X117752994Y-130375238D01*
X117987042Y-130195646D01*
X118195646Y-129987042D01*
X118375238Y-129752994D01*
X118522743Y-129497507D01*
X118635639Y-129224952D01*
X118711993Y-128939993D01*
X118750500Y-128647506D01*
X118750500Y-128413389D01*
X120479500Y-128413389D01*
X120479500Y-128586611D01*
X120506598Y-128757701D01*
X120560127Y-128922445D01*
X120638768Y-129076788D01*
X120740586Y-129216928D01*
X120863072Y-129339414D01*
X121003212Y-129441232D01*
X121157555Y-129519873D01*
X121322299Y-129573402D01*
X121493389Y-129600500D01*
X121493390Y-129600500D01*
X121666610Y-129600500D01*
X121666611Y-129600500D01*
X121837701Y-129573402D01*
X122002445Y-129519873D01*
X122156788Y-129441232D01*
X122296928Y-129339414D01*
X122419414Y-129216928D01*
X122521232Y-129076788D01*
X122599873Y-128922445D01*
X122653402Y-128757701D01*
X122680500Y-128586611D01*
X122680500Y-128413389D01*
X122653402Y-128242299D01*
X122599873Y-128077555D01*
X122521232Y-127923212D01*
X122419414Y-127783072D01*
X122296928Y-127660586D01*
X122156788Y-127558768D01*
X122002445Y-127480127D01*
X121837701Y-127426598D01*
X121837699Y-127426597D01*
X121837698Y-127426597D01*
X121706271Y-127405781D01*
X121666611Y-127399500D01*
X121493389Y-127399500D01*
X121453728Y-127405781D01*
X121322302Y-127426597D01*
X121157552Y-127480128D01*
X121003211Y-127558768D01*
X120946289Y-127600125D01*
X120863072Y-127660586D01*
X120863070Y-127660588D01*
X120863069Y-127660588D01*
X120740588Y-127783069D01*
X120740588Y-127783070D01*
X120740586Y-127783072D01*
X120696859Y-127843256D01*
X120638768Y-127923211D01*
X120560128Y-128077552D01*
X120506597Y-128242302D01*
X120489146Y-128352486D01*
X120479500Y-128413389D01*
X118750500Y-128413389D01*
X118750500Y-128352494D01*
X118711993Y-128060007D01*
X118635639Y-127775048D01*
X118522743Y-127502493D01*
X118497330Y-127458477D01*
X118375238Y-127247006D01*
X118195647Y-127012959D01*
X118195641Y-127012952D01*
X117987047Y-126804358D01*
X117987040Y-126804352D01*
X117959052Y-126782876D01*
X117917849Y-126726448D01*
X117913694Y-126656702D01*
X117947906Y-126595782D01*
X118009624Y-126563029D01*
X118034538Y-126560500D01*
X123162865Y-126560500D01*
X123229904Y-126580185D01*
X123275659Y-126632989D01*
X123280796Y-126646182D01*
X123294778Y-126689216D01*
X123294779Y-126689219D01*
X123387715Y-126871613D01*
X123508028Y-127037213D01*
X123652786Y-127181971D01*
X123807749Y-127294556D01*
X123818390Y-127302287D01*
X123934607Y-127361503D01*
X124000776Y-127395218D01*
X124000778Y-127395218D01*
X124000781Y-127395220D01*
X124097353Y-127426598D01*
X124195465Y-127458477D01*
X124296557Y-127474488D01*
X124397648Y-127490500D01*
X124397649Y-127490500D01*
X124602351Y-127490500D01*
X124602352Y-127490500D01*
X124804534Y-127458477D01*
X124999219Y-127395220D01*
X125181610Y-127302287D01*
X125274590Y-127234732D01*
X125347213Y-127181971D01*
X125347215Y-127181968D01*
X125347219Y-127181966D01*
X125491966Y-127037219D01*
X125491968Y-127037215D01*
X125491971Y-127037213D01*
X125544732Y-126964590D01*
X125612287Y-126871610D01*
X125705220Y-126689219D01*
X125757569Y-126528106D01*
X125797007Y-126470430D01*
X125861365Y-126443232D01*
X125930212Y-126455147D01*
X125981687Y-126502391D01*
X125999500Y-126566424D01*
X125999500Y-132765951D01*
X125979815Y-132832990D01*
X125927011Y-132878745D01*
X125857853Y-132888689D01*
X125794297Y-132859664D01*
X125759318Y-132809284D01*
X125743797Y-132767671D01*
X125743793Y-132767664D01*
X125657547Y-132652455D01*
X125657544Y-132652452D01*
X125542335Y-132566206D01*
X125542328Y-132566202D01*
X125407482Y-132515908D01*
X125407483Y-132515908D01*
X125347883Y-132509501D01*
X125347881Y-132509500D01*
X125347873Y-132509500D01*
X125347864Y-132509500D01*
X123652129Y-132509500D01*
X123652123Y-132509501D01*
X123592516Y-132515908D01*
X123457671Y-132566202D01*
X123457664Y-132566206D01*
X123342455Y-132652452D01*
X123342452Y-132652455D01*
X123256206Y-132767664D01*
X123256202Y-132767671D01*
X123205908Y-132902517D01*
X123199501Y-132962116D01*
X123199501Y-132962123D01*
X123199500Y-132962135D01*
X123199500Y-133085500D01*
X123179815Y-133152539D01*
X123127011Y-133198294D01*
X123075500Y-133209500D01*
X108424499Y-133209500D01*
X108357460Y-133189815D01*
X108311705Y-133137011D01*
X108300499Y-133085500D01*
X108300499Y-132962129D01*
X108300498Y-132962123D01*
X108300497Y-132962116D01*
X108294091Y-132902517D01*
X108288933Y-132888689D01*
X108243797Y-132767671D01*
X108243793Y-132767664D01*
X108157547Y-132652455D01*
X108157544Y-132652452D01*
X108042335Y-132566206D01*
X108042328Y-132566202D01*
X107907482Y-132515908D01*
X107907483Y-132515908D01*
X107847883Y-132509501D01*
X107847881Y-132509500D01*
X107847873Y-132509500D01*
X107847864Y-132509500D01*
X106152129Y-132509500D01*
X106152123Y-132509501D01*
X106092516Y-132515908D01*
X105957671Y-132566202D01*
X105957664Y-132566206D01*
X105842455Y-132652452D01*
X105842452Y-132652455D01*
X105756206Y-132767664D01*
X105756202Y-132767671D01*
X105705908Y-132902517D01*
X105699501Y-132962116D01*
X105699501Y-132962123D01*
X105699500Y-132962135D01*
X105699500Y-133085500D01*
X105679815Y-133152539D01*
X105627011Y-133198294D01*
X105575500Y-133209500D01*
X89424499Y-133209500D01*
X89357460Y-133189815D01*
X89311705Y-133137011D01*
X89300499Y-133085500D01*
X89300499Y-132962129D01*
X89300498Y-132962123D01*
X89300497Y-132962116D01*
X89294091Y-132902517D01*
X89288933Y-132888689D01*
X89243797Y-132767671D01*
X89243793Y-132767664D01*
X89157547Y-132652455D01*
X89157544Y-132652452D01*
X89042335Y-132566206D01*
X89042328Y-132566202D01*
X88907482Y-132515908D01*
X88907483Y-132515908D01*
X88847883Y-132509501D01*
X88847881Y-132509500D01*
X88847873Y-132509500D01*
X88847864Y-132509500D01*
X87152129Y-132509500D01*
X87152123Y-132509501D01*
X87092516Y-132515908D01*
X86957671Y-132566202D01*
X86957664Y-132566206D01*
X86842455Y-132652452D01*
X86842452Y-132652455D01*
X86756206Y-132767664D01*
X86756202Y-132767671D01*
X86705908Y-132902517D01*
X86699501Y-132962116D01*
X86699501Y-132962123D01*
X86699500Y-132962135D01*
X86699500Y-133085500D01*
X86679815Y-133152539D01*
X86627011Y-133198294D01*
X86575500Y-133209500D01*
X70424499Y-133209500D01*
X70357460Y-133189815D01*
X70311705Y-133137011D01*
X70300499Y-133085500D01*
X70300499Y-132962129D01*
X70300498Y-132962123D01*
X70300497Y-132962116D01*
X70294091Y-132902517D01*
X70288933Y-132888689D01*
X70243797Y-132767671D01*
X70243793Y-132767664D01*
X70157547Y-132652455D01*
X70157544Y-132652452D01*
X70042335Y-132566206D01*
X70042328Y-132566202D01*
X69907482Y-132515908D01*
X69907483Y-132515908D01*
X69847883Y-132509501D01*
X69847881Y-132509500D01*
X69847873Y-132509500D01*
X69847864Y-132509500D01*
X68152129Y-132509500D01*
X68152123Y-132509501D01*
X68092516Y-132515908D01*
X67957671Y-132566202D01*
X67957664Y-132566206D01*
X67842455Y-132652452D01*
X67842452Y-132652455D01*
X67756206Y-132767664D01*
X67756202Y-132767671D01*
X67705908Y-132902517D01*
X67699501Y-132962116D01*
X67699501Y-132962123D01*
X67699500Y-132962135D01*
X67699500Y-133085500D01*
X67679815Y-133152539D01*
X67627011Y-133198294D01*
X67575500Y-133209500D01*
X48209097Y-133209500D01*
X48142058Y-133189815D01*
X48121416Y-133173181D01*
X43361624Y-128413389D01*
X53319500Y-128413389D01*
X53319500Y-128586611D01*
X53346598Y-128757701D01*
X53400127Y-128922445D01*
X53478768Y-129076788D01*
X53580586Y-129216928D01*
X53703072Y-129339414D01*
X53843212Y-129441232D01*
X53997555Y-129519873D01*
X54162299Y-129573402D01*
X54333389Y-129600500D01*
X54333390Y-129600500D01*
X54506610Y-129600500D01*
X54506611Y-129600500D01*
X54677701Y-129573402D01*
X54842445Y-129519873D01*
X54996788Y-129441232D01*
X55136928Y-129339414D01*
X55259414Y-129216928D01*
X55361232Y-129076788D01*
X55439873Y-128922445D01*
X55493402Y-128757701D01*
X55520500Y-128586611D01*
X55520500Y-128413389D01*
X55493402Y-128242299D01*
X55439873Y-128077555D01*
X55361232Y-127923212D01*
X55259414Y-127783072D01*
X55207482Y-127731140D01*
X55173997Y-127669817D01*
X55178981Y-127600125D01*
X55220853Y-127544192D01*
X55286317Y-127519775D01*
X55314561Y-127520986D01*
X55315212Y-127521089D01*
X55315215Y-127521090D01*
X55564038Y-127560500D01*
X55564039Y-127560500D01*
X55815961Y-127560500D01*
X55815962Y-127560500D01*
X56064785Y-127521090D01*
X56304379Y-127443241D01*
X56528845Y-127328870D01*
X56732656Y-127180793D01*
X56910793Y-127002656D01*
X57058870Y-126798845D01*
X57145815Y-126628204D01*
X57193789Y-126577409D01*
X57256300Y-126560500D01*
X57965462Y-126560500D01*
X58032501Y-126580185D01*
X58078256Y-126632989D01*
X58088200Y-126702147D01*
X58059175Y-126765703D01*
X58040948Y-126782876D01*
X58012959Y-126804352D01*
X58012952Y-126804358D01*
X57804358Y-127012952D01*
X57804352Y-127012959D01*
X57624761Y-127247006D01*
X57477258Y-127502489D01*
X57477254Y-127502499D01*
X57364364Y-127775038D01*
X57364361Y-127775048D01*
X57288008Y-128060004D01*
X57288006Y-128060015D01*
X57249500Y-128352486D01*
X57249500Y-128647513D01*
X57281571Y-128891113D01*
X57288007Y-128939993D01*
X57362212Y-129216930D01*
X57364361Y-129224951D01*
X57364364Y-129224961D01*
X57477254Y-129497500D01*
X57477258Y-129497510D01*
X57624761Y-129752993D01*
X57804352Y-129987040D01*
X57804358Y-129987047D01*
X58012952Y-130195641D01*
X58012959Y-130195647D01*
X58247006Y-130375238D01*
X58502489Y-130522741D01*
X58502490Y-130522741D01*
X58502493Y-130522743D01*
X58775048Y-130635639D01*
X59060007Y-130711993D01*
X59352494Y-130750500D01*
X59352501Y-130750500D01*
X59647499Y-130750500D01*
X59647506Y-130750500D01*
X59939993Y-130711993D01*
X60224952Y-130635639D01*
X60497507Y-130522743D01*
X60752994Y-130375238D01*
X60987042Y-130195646D01*
X61195646Y-129987042D01*
X61375238Y-129752994D01*
X61522743Y-129497507D01*
X61635639Y-129224952D01*
X61711993Y-128939993D01*
X61750500Y-128647506D01*
X61750500Y-128413389D01*
X63479500Y-128413389D01*
X63479500Y-128586611D01*
X63506598Y-128757701D01*
X63560127Y-128922445D01*
X63638768Y-129076788D01*
X63740586Y-129216928D01*
X63863072Y-129339414D01*
X64003212Y-129441232D01*
X64157555Y-129519873D01*
X64322299Y-129573402D01*
X64493389Y-129600500D01*
X64493390Y-129600500D01*
X64666610Y-129600500D01*
X64666611Y-129600500D01*
X64837701Y-129573402D01*
X65002445Y-129519873D01*
X65156788Y-129441232D01*
X65296928Y-129339414D01*
X65419414Y-129216928D01*
X65521232Y-129076788D01*
X65599873Y-128922445D01*
X65653402Y-128757701D01*
X65680500Y-128586611D01*
X65680500Y-128413389D01*
X72319500Y-128413389D01*
X72319500Y-128586611D01*
X72346598Y-128757701D01*
X72400127Y-128922445D01*
X72478768Y-129076788D01*
X72580586Y-129216928D01*
X72703072Y-129339414D01*
X72843212Y-129441232D01*
X72997555Y-129519873D01*
X73162299Y-129573402D01*
X73333389Y-129600500D01*
X73333390Y-129600500D01*
X73506610Y-129600500D01*
X73506611Y-129600500D01*
X73677701Y-129573402D01*
X73842445Y-129519873D01*
X73996788Y-129441232D01*
X74136928Y-129339414D01*
X74259414Y-129216928D01*
X74361232Y-129076788D01*
X74439873Y-128922445D01*
X74493402Y-128757701D01*
X74520500Y-128586611D01*
X74520500Y-128413389D01*
X74493402Y-128242299D01*
X74439873Y-128077555D01*
X74361232Y-127923212D01*
X74259414Y-127783072D01*
X74207482Y-127731140D01*
X74173997Y-127669817D01*
X74178981Y-127600125D01*
X74220853Y-127544192D01*
X74286317Y-127519775D01*
X74314561Y-127520986D01*
X74315212Y-127521089D01*
X74315215Y-127521090D01*
X74564038Y-127560500D01*
X74564039Y-127560500D01*
X74815961Y-127560500D01*
X74815962Y-127560500D01*
X75064785Y-127521090D01*
X75304379Y-127443241D01*
X75528845Y-127328870D01*
X75732656Y-127180793D01*
X75910793Y-127002656D01*
X76058870Y-126798845D01*
X76145815Y-126628204D01*
X76193789Y-126577409D01*
X76256300Y-126560500D01*
X76965462Y-126560500D01*
X77032501Y-126580185D01*
X77078256Y-126632989D01*
X77088200Y-126702147D01*
X77059175Y-126765703D01*
X77040948Y-126782876D01*
X77012959Y-126804352D01*
X77012952Y-126804358D01*
X76804358Y-127012952D01*
X76804352Y-127012959D01*
X76624761Y-127247006D01*
X76477258Y-127502489D01*
X76477254Y-127502499D01*
X76364364Y-127775038D01*
X76364361Y-127775048D01*
X76288008Y-128060004D01*
X76288006Y-128060015D01*
X76249500Y-128352486D01*
X76249500Y-128647513D01*
X76281571Y-128891113D01*
X76288007Y-128939993D01*
X76362212Y-129216930D01*
X76364361Y-129224951D01*
X76364364Y-129224961D01*
X76477254Y-129497500D01*
X76477258Y-129497510D01*
X76624761Y-129752993D01*
X76804352Y-129987040D01*
X76804358Y-129987047D01*
X77012952Y-130195641D01*
X77012959Y-130195647D01*
X77247006Y-130375238D01*
X77502489Y-130522741D01*
X77502490Y-130522741D01*
X77502493Y-130522743D01*
X77775048Y-130635639D01*
X78060007Y-130711993D01*
X78352494Y-130750500D01*
X78352501Y-130750500D01*
X78647499Y-130750500D01*
X78647506Y-130750500D01*
X78939993Y-130711993D01*
X79224952Y-130635639D01*
X79497507Y-130522743D01*
X79752994Y-130375238D01*
X79987042Y-130195646D01*
X80195646Y-129987042D01*
X80375238Y-129752994D01*
X80522743Y-129497507D01*
X80635639Y-129224952D01*
X80711993Y-128939993D01*
X80750500Y-128647506D01*
X80750500Y-128413389D01*
X82479500Y-128413389D01*
X82479500Y-128586611D01*
X82506598Y-128757701D01*
X82560127Y-128922445D01*
X82638768Y-129076788D01*
X82740586Y-129216928D01*
X82863072Y-129339414D01*
X83003212Y-129441232D01*
X83157555Y-129519873D01*
X83322299Y-129573402D01*
X83493389Y-129600500D01*
X83493390Y-129600500D01*
X83666610Y-129600500D01*
X83666611Y-129600500D01*
X83837701Y-129573402D01*
X84002445Y-129519873D01*
X84156788Y-129441232D01*
X84296928Y-129339414D01*
X84419414Y-129216928D01*
X84521232Y-129076788D01*
X84599873Y-128922445D01*
X84653402Y-128757701D01*
X84680500Y-128586611D01*
X84680500Y-128413389D01*
X91319500Y-128413389D01*
X91319500Y-128586611D01*
X91346598Y-128757701D01*
X91400127Y-128922445D01*
X91478768Y-129076788D01*
X91580586Y-129216928D01*
X91703072Y-129339414D01*
X91843212Y-129441232D01*
X91997555Y-129519873D01*
X92162299Y-129573402D01*
X92333389Y-129600500D01*
X92333390Y-129600500D01*
X92506610Y-129600500D01*
X92506611Y-129600500D01*
X92677701Y-129573402D01*
X92842445Y-129519873D01*
X92996788Y-129441232D01*
X93136928Y-129339414D01*
X93259414Y-129216928D01*
X93361232Y-129076788D01*
X93439873Y-128922445D01*
X93493402Y-128757701D01*
X93520500Y-128586611D01*
X93520500Y-128413389D01*
X93493402Y-128242299D01*
X93439873Y-128077555D01*
X93361232Y-127923212D01*
X93259414Y-127783072D01*
X93207482Y-127731140D01*
X93173997Y-127669817D01*
X93178981Y-127600125D01*
X93220853Y-127544192D01*
X93286317Y-127519775D01*
X93314561Y-127520986D01*
X93315212Y-127521089D01*
X93315215Y-127521090D01*
X93564038Y-127560500D01*
X93564039Y-127560500D01*
X93815961Y-127560500D01*
X93815962Y-127560500D01*
X94064785Y-127521090D01*
X94304379Y-127443241D01*
X94528845Y-127328870D01*
X94732656Y-127180793D01*
X94910793Y-127002656D01*
X95058870Y-126798845D01*
X95145815Y-126628204D01*
X95193789Y-126577409D01*
X95256300Y-126560500D01*
X95965462Y-126560500D01*
X96032501Y-126580185D01*
X96078256Y-126632989D01*
X96088200Y-126702147D01*
X96059175Y-126765703D01*
X96040948Y-126782876D01*
X96012959Y-126804352D01*
X96012952Y-126804358D01*
X95804358Y-127012952D01*
X95804352Y-127012959D01*
X95624761Y-127247006D01*
X95477258Y-127502489D01*
X95477254Y-127502499D01*
X95364364Y-127775038D01*
X95364361Y-127775048D01*
X95288008Y-128060004D01*
X95288006Y-128060015D01*
X95249500Y-128352486D01*
X95249500Y-128647513D01*
X95281571Y-128891113D01*
X95288007Y-128939993D01*
X95362212Y-129216930D01*
X95364361Y-129224951D01*
X95364364Y-129224961D01*
X95477254Y-129497500D01*
X95477258Y-129497510D01*
X95624761Y-129752993D01*
X95804352Y-129987040D01*
X95804358Y-129987047D01*
X96012952Y-130195641D01*
X96012959Y-130195647D01*
X96247006Y-130375238D01*
X96502489Y-130522741D01*
X96502490Y-130522741D01*
X96502493Y-130522743D01*
X96775048Y-130635639D01*
X97060007Y-130711993D01*
X97352494Y-130750500D01*
X97352501Y-130750500D01*
X97647499Y-130750500D01*
X97647506Y-130750500D01*
X97939993Y-130711993D01*
X98224952Y-130635639D01*
X98497507Y-130522743D01*
X98752994Y-130375238D01*
X98987042Y-130195646D01*
X99195646Y-129987042D01*
X99375238Y-129752994D01*
X99522743Y-129497507D01*
X99635639Y-129224952D01*
X99711993Y-128939993D01*
X99750500Y-128647506D01*
X99750500Y-128413389D01*
X101479500Y-128413389D01*
X101479500Y-128586611D01*
X101506598Y-128757701D01*
X101560127Y-128922445D01*
X101638768Y-129076788D01*
X101740586Y-129216928D01*
X101863072Y-129339414D01*
X102003212Y-129441232D01*
X102157555Y-129519873D01*
X102322299Y-129573402D01*
X102493389Y-129600500D01*
X102493390Y-129600500D01*
X102666610Y-129600500D01*
X102666611Y-129600500D01*
X102837701Y-129573402D01*
X103002445Y-129519873D01*
X103156788Y-129441232D01*
X103296928Y-129339414D01*
X103419414Y-129216928D01*
X103521232Y-129076788D01*
X103599873Y-128922445D01*
X103653402Y-128757701D01*
X103680500Y-128586611D01*
X103680500Y-128413389D01*
X103653402Y-128242299D01*
X103599873Y-128077555D01*
X103521232Y-127923212D01*
X103419414Y-127783072D01*
X103296928Y-127660586D01*
X103156788Y-127558768D01*
X103002445Y-127480127D01*
X102837701Y-127426598D01*
X102837699Y-127426597D01*
X102837698Y-127426597D01*
X102706271Y-127405781D01*
X102666611Y-127399500D01*
X102493389Y-127399500D01*
X102453728Y-127405781D01*
X102322302Y-127426597D01*
X102157552Y-127480128D01*
X102003211Y-127558768D01*
X101946289Y-127600125D01*
X101863072Y-127660586D01*
X101863070Y-127660588D01*
X101863069Y-127660588D01*
X101740588Y-127783069D01*
X101740588Y-127783070D01*
X101740586Y-127783072D01*
X101696859Y-127843256D01*
X101638768Y-127923211D01*
X101560128Y-128077552D01*
X101506597Y-128242302D01*
X101489146Y-128352486D01*
X101479500Y-128413389D01*
X99750500Y-128413389D01*
X99750500Y-128352494D01*
X99711993Y-128060007D01*
X99635639Y-127775048D01*
X99522743Y-127502493D01*
X99497330Y-127458477D01*
X99375238Y-127247006D01*
X99195647Y-127012959D01*
X99195641Y-127012952D01*
X98987047Y-126804358D01*
X98987040Y-126804352D01*
X98959052Y-126782876D01*
X98917849Y-126726448D01*
X98913694Y-126656702D01*
X98947906Y-126595782D01*
X99009624Y-126563029D01*
X99034538Y-126560500D01*
X105662865Y-126560500D01*
X105729904Y-126580185D01*
X105775659Y-126632989D01*
X105780796Y-126646182D01*
X105794778Y-126689216D01*
X105794779Y-126689219D01*
X105887715Y-126871613D01*
X106008028Y-127037213D01*
X106152786Y-127181971D01*
X106307749Y-127294556D01*
X106318390Y-127302287D01*
X106434607Y-127361503D01*
X106500776Y-127395218D01*
X106500778Y-127395218D01*
X106500781Y-127395220D01*
X106597353Y-127426598D01*
X106695465Y-127458477D01*
X106796557Y-127474488D01*
X106897648Y-127490500D01*
X106897649Y-127490500D01*
X107102351Y-127490500D01*
X107102352Y-127490500D01*
X107304534Y-127458477D01*
X107499219Y-127395220D01*
X107681610Y-127302287D01*
X107774590Y-127234732D01*
X107847213Y-127181971D01*
X107847215Y-127181968D01*
X107847219Y-127181966D01*
X107991966Y-127037219D01*
X107991968Y-127037215D01*
X107991971Y-127037213D01*
X108044732Y-126964590D01*
X108112287Y-126871610D01*
X108205220Y-126689219D01*
X108268477Y-126494534D01*
X108300500Y-126292352D01*
X108300500Y-126087648D01*
X108268477Y-125885466D01*
X108266900Y-125880614D01*
X108205218Y-125690776D01*
X108151431Y-125585214D01*
X108112287Y-125508390D01*
X108104556Y-125497749D01*
X107991971Y-125342786D01*
X107847213Y-125198028D01*
X107681613Y-125077715D01*
X107681612Y-125077714D01*
X107681610Y-125077713D01*
X107624653Y-125048691D01*
X107499223Y-124984781D01*
X107304534Y-124921522D01*
X107129995Y-124893878D01*
X107102352Y-124889500D01*
X106897648Y-124889500D01*
X106873329Y-124893351D01*
X106695465Y-124921522D01*
X106500776Y-124984781D01*
X106318386Y-125077715D01*
X106152786Y-125198028D01*
X106152782Y-125198032D01*
X106027634Y-125323181D01*
X105966311Y-125356666D01*
X105939953Y-125359500D01*
X95256300Y-125359500D01*
X95189261Y-125339815D01*
X95145815Y-125291795D01*
X95058870Y-125121155D01*
X94957107Y-124981090D01*
X94910798Y-124917350D01*
X94910794Y-124917345D01*
X94732654Y-124739205D01*
X94732649Y-124739201D01*
X94528848Y-124591132D01*
X94528847Y-124591131D01*
X94528845Y-124591130D01*
X94458747Y-124555413D01*
X94304383Y-124476760D01*
X94064785Y-124398910D01*
X93815962Y-124359500D01*
X93564038Y-124359500D01*
X93439626Y-124379205D01*
X93315214Y-124398910D01*
X93075616Y-124476760D01*
X92851151Y-124591132D01*
X92647350Y-124739201D01*
X92647345Y-124739205D01*
X92469205Y-124917345D01*
X92469201Y-124917350D01*
X92321132Y-125121151D01*
X92206760Y-125345616D01*
X92128910Y-125585214D01*
X92089500Y-125834038D01*
X92089500Y-126085961D01*
X92128910Y-126334785D01*
X92206760Y-126574383D01*
X92265271Y-126689216D01*
X92312993Y-126782876D01*
X92321132Y-126798848D01*
X92469201Y-127002649D01*
X92469205Y-127002654D01*
X92469207Y-127002656D01*
X92647344Y-127180793D01*
X92647345Y-127180794D01*
X92647344Y-127180794D01*
X92653661Y-127185383D01*
X92696327Y-127240714D01*
X92702305Y-127310327D01*
X92669699Y-127372122D01*
X92608860Y-127406479D01*
X92561378Y-127408174D01*
X92506611Y-127399500D01*
X92333389Y-127399500D01*
X92293728Y-127405781D01*
X92162302Y-127426597D01*
X91997552Y-127480128D01*
X91843211Y-127558768D01*
X91786289Y-127600125D01*
X91703072Y-127660586D01*
X91703070Y-127660588D01*
X91703069Y-127660588D01*
X91580588Y-127783069D01*
X91580588Y-127783070D01*
X91580586Y-127783072D01*
X91536859Y-127843256D01*
X91478768Y-127923211D01*
X91400128Y-128077552D01*
X91346597Y-128242302D01*
X91329146Y-128352486D01*
X91319500Y-128413389D01*
X84680500Y-128413389D01*
X84653402Y-128242299D01*
X84599873Y-128077555D01*
X84521232Y-127923212D01*
X84419414Y-127783072D01*
X84296928Y-127660586D01*
X84156788Y-127558768D01*
X84002445Y-127480127D01*
X83837701Y-127426598D01*
X83837699Y-127426597D01*
X83837698Y-127426597D01*
X83706271Y-127405781D01*
X83666611Y-127399500D01*
X83493389Y-127399500D01*
X83453728Y-127405781D01*
X83322302Y-127426597D01*
X83157552Y-127480128D01*
X83003211Y-127558768D01*
X82946289Y-127600125D01*
X82863072Y-127660586D01*
X82863070Y-127660588D01*
X82863069Y-127660588D01*
X82740588Y-127783069D01*
X82740588Y-127783070D01*
X82740586Y-127783072D01*
X82696859Y-127843256D01*
X82638768Y-127923211D01*
X82560128Y-128077552D01*
X82506597Y-128242302D01*
X82489146Y-128352486D01*
X82479500Y-128413389D01*
X80750500Y-128413389D01*
X80750500Y-128352494D01*
X80711993Y-128060007D01*
X80635639Y-127775048D01*
X80522743Y-127502493D01*
X80497330Y-127458477D01*
X80375238Y-127247006D01*
X80195647Y-127012959D01*
X80195641Y-127012952D01*
X79987047Y-126804358D01*
X79987040Y-126804352D01*
X79959052Y-126782876D01*
X79917849Y-126726448D01*
X79913694Y-126656702D01*
X79947906Y-126595782D01*
X80009624Y-126563029D01*
X80034538Y-126560500D01*
X86662865Y-126560500D01*
X86729904Y-126580185D01*
X86775659Y-126632989D01*
X86780796Y-126646182D01*
X86794778Y-126689216D01*
X86794779Y-126689219D01*
X86887715Y-126871613D01*
X87008028Y-127037213D01*
X87152786Y-127181971D01*
X87307749Y-127294556D01*
X87318390Y-127302287D01*
X87434607Y-127361503D01*
X87500776Y-127395218D01*
X87500778Y-127395218D01*
X87500781Y-127395220D01*
X87597353Y-127426598D01*
X87695465Y-127458477D01*
X87796557Y-127474488D01*
X87897648Y-127490500D01*
X87897649Y-127490500D01*
X88102351Y-127490500D01*
X88102352Y-127490500D01*
X88304534Y-127458477D01*
X88499219Y-127395220D01*
X88681610Y-127302287D01*
X88774590Y-127234732D01*
X88847213Y-127181971D01*
X88847215Y-127181968D01*
X88847219Y-127181966D01*
X88991966Y-127037219D01*
X88991968Y-127037215D01*
X88991971Y-127037213D01*
X89044732Y-126964590D01*
X89112287Y-126871610D01*
X89205220Y-126689219D01*
X89268477Y-126494534D01*
X89300500Y-126292352D01*
X89300500Y-126087648D01*
X89268477Y-125885466D01*
X89266900Y-125880614D01*
X89205218Y-125690776D01*
X89151431Y-125585214D01*
X89112287Y-125508390D01*
X89104556Y-125497749D01*
X88991971Y-125342786D01*
X88847213Y-125198028D01*
X88681613Y-125077715D01*
X88681612Y-125077714D01*
X88681610Y-125077713D01*
X88624653Y-125048691D01*
X88499223Y-124984781D01*
X88304534Y-124921522D01*
X88129995Y-124893878D01*
X88102352Y-124889500D01*
X87897648Y-124889500D01*
X87873329Y-124893351D01*
X87695465Y-124921522D01*
X87500776Y-124984781D01*
X87318386Y-125077715D01*
X87152786Y-125198028D01*
X87152782Y-125198032D01*
X87027634Y-125323181D01*
X86966311Y-125356666D01*
X86939953Y-125359500D01*
X76256300Y-125359500D01*
X76189261Y-125339815D01*
X76145815Y-125291795D01*
X76058870Y-125121155D01*
X75957107Y-124981090D01*
X75910798Y-124917350D01*
X75910794Y-124917345D01*
X75732654Y-124739205D01*
X75732649Y-124739201D01*
X75528848Y-124591132D01*
X75528847Y-124591131D01*
X75528845Y-124591130D01*
X75458747Y-124555413D01*
X75304383Y-124476760D01*
X75064785Y-124398910D01*
X74815962Y-124359500D01*
X74564038Y-124359500D01*
X74439626Y-124379205D01*
X74315214Y-124398910D01*
X74075616Y-124476760D01*
X73851151Y-124591132D01*
X73647350Y-124739201D01*
X73647345Y-124739205D01*
X73469205Y-124917345D01*
X73469201Y-124917350D01*
X73321132Y-125121151D01*
X73206760Y-125345616D01*
X73128910Y-125585214D01*
X73089500Y-125834038D01*
X73089500Y-126085961D01*
X73128910Y-126334785D01*
X73206760Y-126574383D01*
X73265271Y-126689216D01*
X73312993Y-126782876D01*
X73321132Y-126798848D01*
X73469201Y-127002649D01*
X73469205Y-127002654D01*
X73469207Y-127002656D01*
X73647344Y-127180793D01*
X73647345Y-127180794D01*
X73647344Y-127180794D01*
X73653661Y-127185383D01*
X73696327Y-127240714D01*
X73702305Y-127310327D01*
X73669699Y-127372122D01*
X73608860Y-127406479D01*
X73561378Y-127408174D01*
X73506611Y-127399500D01*
X73333389Y-127399500D01*
X73293728Y-127405781D01*
X73162302Y-127426597D01*
X72997552Y-127480128D01*
X72843211Y-127558768D01*
X72786289Y-127600125D01*
X72703072Y-127660586D01*
X72703070Y-127660588D01*
X72703069Y-127660588D01*
X72580588Y-127783069D01*
X72580588Y-127783070D01*
X72580586Y-127783072D01*
X72536859Y-127843256D01*
X72478768Y-127923211D01*
X72400128Y-128077552D01*
X72346597Y-128242302D01*
X72329146Y-128352486D01*
X72319500Y-128413389D01*
X65680500Y-128413389D01*
X65653402Y-128242299D01*
X65599873Y-128077555D01*
X65521232Y-127923212D01*
X65419414Y-127783072D01*
X65296928Y-127660586D01*
X65156788Y-127558768D01*
X65002445Y-127480127D01*
X64837701Y-127426598D01*
X64837699Y-127426597D01*
X64837698Y-127426597D01*
X64706271Y-127405781D01*
X64666611Y-127399500D01*
X64493389Y-127399500D01*
X64453728Y-127405781D01*
X64322302Y-127426597D01*
X64157552Y-127480128D01*
X64003211Y-127558768D01*
X63946289Y-127600125D01*
X63863072Y-127660586D01*
X63863070Y-127660588D01*
X63863069Y-127660588D01*
X63740588Y-127783069D01*
X63740588Y-127783070D01*
X63740586Y-127783072D01*
X63696859Y-127843256D01*
X63638768Y-127923211D01*
X63560128Y-128077552D01*
X63506597Y-128242302D01*
X63489146Y-128352486D01*
X63479500Y-128413389D01*
X61750500Y-128413389D01*
X61750500Y-128352494D01*
X61711993Y-128060007D01*
X61635639Y-127775048D01*
X61522743Y-127502493D01*
X61497330Y-127458477D01*
X61375238Y-127247006D01*
X61195647Y-127012959D01*
X61195641Y-127012952D01*
X60987047Y-126804358D01*
X60987040Y-126804352D01*
X60959052Y-126782876D01*
X60917849Y-126726448D01*
X60913694Y-126656702D01*
X60947906Y-126595782D01*
X61009624Y-126563029D01*
X61034538Y-126560500D01*
X67662865Y-126560500D01*
X67729904Y-126580185D01*
X67775659Y-126632989D01*
X67780796Y-126646182D01*
X67794778Y-126689216D01*
X67794779Y-126689219D01*
X67887715Y-126871613D01*
X68008028Y-127037213D01*
X68152786Y-127181971D01*
X68307749Y-127294556D01*
X68318390Y-127302287D01*
X68434607Y-127361503D01*
X68500776Y-127395218D01*
X68500778Y-127395218D01*
X68500781Y-127395220D01*
X68597353Y-127426598D01*
X68695465Y-127458477D01*
X68796557Y-127474488D01*
X68897648Y-127490500D01*
X68897649Y-127490500D01*
X69102351Y-127490500D01*
X69102352Y-127490500D01*
X69304534Y-127458477D01*
X69499219Y-127395220D01*
X69681610Y-127302287D01*
X69774590Y-127234732D01*
X69847213Y-127181971D01*
X69847215Y-127181968D01*
X69847219Y-127181966D01*
X69991966Y-127037219D01*
X69991968Y-127037215D01*
X69991971Y-127037213D01*
X70044732Y-126964590D01*
X70112287Y-126871610D01*
X70205220Y-126689219D01*
X70268477Y-126494534D01*
X70300500Y-126292352D01*
X70300500Y-126087648D01*
X70268477Y-125885466D01*
X70266900Y-125880614D01*
X70205218Y-125690776D01*
X70151431Y-125585214D01*
X70112287Y-125508390D01*
X70104556Y-125497749D01*
X69991971Y-125342786D01*
X69847213Y-125198028D01*
X69681613Y-125077715D01*
X69681612Y-125077714D01*
X69681610Y-125077713D01*
X69624653Y-125048691D01*
X69499223Y-124984781D01*
X69304534Y-124921522D01*
X69129995Y-124893878D01*
X69102352Y-124889500D01*
X68897648Y-124889500D01*
X68873329Y-124893351D01*
X68695465Y-124921522D01*
X68500776Y-124984781D01*
X68318386Y-125077715D01*
X68152786Y-125198028D01*
X68152782Y-125198032D01*
X68027634Y-125323181D01*
X67966311Y-125356666D01*
X67939953Y-125359500D01*
X57256300Y-125359500D01*
X57189261Y-125339815D01*
X57145815Y-125291795D01*
X57058870Y-125121155D01*
X56957107Y-124981090D01*
X56910798Y-124917350D01*
X56910794Y-124917345D01*
X56732654Y-124739205D01*
X56732649Y-124739201D01*
X56528848Y-124591132D01*
X56528847Y-124591131D01*
X56528845Y-124591130D01*
X56458747Y-124555413D01*
X56304383Y-124476760D01*
X56064785Y-124398910D01*
X55815962Y-124359500D01*
X55564038Y-124359500D01*
X55439626Y-124379205D01*
X55315214Y-124398910D01*
X55075616Y-124476760D01*
X54851151Y-124591132D01*
X54647350Y-124739201D01*
X54647345Y-124739205D01*
X54469205Y-124917345D01*
X54469201Y-124917350D01*
X54321132Y-125121151D01*
X54206760Y-125345616D01*
X54128910Y-125585214D01*
X54089500Y-125834038D01*
X54089500Y-126085961D01*
X54128910Y-126334785D01*
X54206760Y-126574383D01*
X54265271Y-126689216D01*
X54312993Y-126782876D01*
X54321132Y-126798848D01*
X54469201Y-127002649D01*
X54469205Y-127002654D01*
X54469207Y-127002656D01*
X54647344Y-127180793D01*
X54647345Y-127180794D01*
X54647344Y-127180794D01*
X54653661Y-127185383D01*
X54696327Y-127240714D01*
X54702305Y-127310327D01*
X54669699Y-127372122D01*
X54608860Y-127406479D01*
X54561378Y-127408174D01*
X54506611Y-127399500D01*
X54333389Y-127399500D01*
X54293728Y-127405781D01*
X54162302Y-127426597D01*
X53997552Y-127480128D01*
X53843211Y-127558768D01*
X53786289Y-127600125D01*
X53703072Y-127660586D01*
X53703070Y-127660588D01*
X53703069Y-127660588D01*
X53580588Y-127783069D01*
X53580588Y-127783070D01*
X53580586Y-127783072D01*
X53536859Y-127843256D01*
X53478768Y-127923211D01*
X53400128Y-128077552D01*
X53346597Y-128242302D01*
X53329146Y-128352486D01*
X53319500Y-128413389D01*
X43361624Y-128413389D01*
X38242273Y-123294038D01*
X60439500Y-123294038D01*
X60439500Y-123545961D01*
X60478910Y-123794785D01*
X60556760Y-124034383D01*
X60671132Y-124258848D01*
X60819201Y-124462649D01*
X60819205Y-124462654D01*
X60997345Y-124640794D01*
X60997350Y-124640798D01*
X61175117Y-124769952D01*
X61201155Y-124788870D01*
X61344184Y-124861747D01*
X61425616Y-124903239D01*
X61425618Y-124903239D01*
X61425621Y-124903241D01*
X61665215Y-124981090D01*
X61914038Y-125020500D01*
X61914039Y-125020500D01*
X62165961Y-125020500D01*
X62165962Y-125020500D01*
X62414785Y-124981090D01*
X62654379Y-124903241D01*
X62878845Y-124788870D01*
X63082656Y-124640793D01*
X63260793Y-124462656D01*
X63408870Y-124258845D01*
X63523241Y-124034379D01*
X63601090Y-123794785D01*
X63640500Y-123545962D01*
X63640500Y-123294038D01*
X63601090Y-123045215D01*
X63523241Y-122805621D01*
X63523239Y-122805618D01*
X63523239Y-122805616D01*
X63481747Y-122724184D01*
X63408870Y-122581155D01*
X63389952Y-122555117D01*
X63260798Y-122377350D01*
X63260794Y-122377345D01*
X63082654Y-122199205D01*
X63082649Y-122199201D01*
X62878848Y-122051132D01*
X62878847Y-122051131D01*
X62878845Y-122051130D01*
X62808747Y-122015413D01*
X62654383Y-121936760D01*
X62414785Y-121858910D01*
X62165962Y-121819500D01*
X61914038Y-121819500D01*
X61789626Y-121839205D01*
X61665214Y-121858910D01*
X61425616Y-121936760D01*
X61201151Y-122051132D01*
X60997350Y-122199201D01*
X60997345Y-122199205D01*
X60819205Y-122377345D01*
X60819201Y-122377350D01*
X60671132Y-122581151D01*
X60556760Y-122805616D01*
X60478910Y-123045214D01*
X60439500Y-123294038D01*
X38242273Y-123294038D01*
X32296019Y-117347784D01*
X32262534Y-117286461D01*
X32265772Y-117221777D01*
X32267246Y-117217243D01*
X32300500Y-117007287D01*
X32300500Y-116794713D01*
X32267246Y-116584757D01*
X32201557Y-116382588D01*
X32105051Y-116193184D01*
X32105049Y-116193181D01*
X32105048Y-116193179D01*
X31980109Y-116021213D01*
X31829786Y-115870890D01*
X31657820Y-115745951D01*
X31653590Y-115743796D01*
X31649054Y-115741485D01*
X31598259Y-115693512D01*
X31581463Y-115625692D01*
X31603999Y-115559556D01*
X31649054Y-115520515D01*
X31657816Y-115516051D01*
X31694076Y-115489707D01*
X31829786Y-115391109D01*
X31829788Y-115391106D01*
X31829792Y-115391104D01*
X31980104Y-115240792D01*
X31980106Y-115240788D01*
X31980109Y-115240786D01*
X32105048Y-115068820D01*
X32105047Y-115068820D01*
X32105051Y-115068816D01*
X32201557Y-114879412D01*
X32267246Y-114677243D01*
X32300500Y-114467287D01*
X32300500Y-114254713D01*
X32267246Y-114044757D01*
X32265770Y-114040217D01*
X32263772Y-113970379D01*
X32296018Y-113914216D01*
X32363418Y-113846817D01*
X32424742Y-113813333D01*
X32451098Y-113810500D01*
X44888198Y-113810500D01*
X44915188Y-113818425D01*
G37*
G04 #@! TD.AperFunction*
G04 #@! TA.AperFunction,NonConductor*
G36*
X32505703Y-119256384D02*
G01*
X32512181Y-119262416D01*
X44216644Y-130966879D01*
X44250129Y-131028202D01*
X44245145Y-131097894D01*
X44203273Y-131153827D01*
X44137809Y-131178244D01*
X44128963Y-131178560D01*
X29755423Y-131178560D01*
X29755423Y-135284508D01*
X44346708Y-135284508D01*
X44346708Y-131396305D01*
X44366393Y-131329266D01*
X44419197Y-131283511D01*
X44488355Y-131273567D01*
X44551911Y-131302592D01*
X44558389Y-131308624D01*
X47424139Y-134174374D01*
X47424149Y-134174385D01*
X47428479Y-134178715D01*
X47428480Y-134178716D01*
X47540284Y-134290520D01*
X47627095Y-134340639D01*
X47627097Y-134340641D01*
X47665151Y-134362611D01*
X47677215Y-134369577D01*
X47829943Y-134410500D01*
X67575501Y-134410500D01*
X67642540Y-134430185D01*
X67688295Y-134482989D01*
X67699501Y-134534500D01*
X67699501Y-134657876D01*
X67705908Y-134717483D01*
X67756202Y-134852328D01*
X67756206Y-134852335D01*
X67842452Y-134967544D01*
X67842455Y-134967547D01*
X67957664Y-135053793D01*
X67957671Y-135053797D01*
X68092517Y-135104091D01*
X68092516Y-135104091D01*
X68099444Y-135104835D01*
X68152127Y-135110500D01*
X69847872Y-135110499D01*
X69907483Y-135104091D01*
X70042331Y-135053796D01*
X70157546Y-134967546D01*
X70243796Y-134852331D01*
X70294091Y-134717483D01*
X70300500Y-134657873D01*
X70300500Y-134534500D01*
X70320185Y-134467461D01*
X70372989Y-134421706D01*
X70424500Y-134410500D01*
X86575501Y-134410500D01*
X86642540Y-134430185D01*
X86688295Y-134482989D01*
X86699501Y-134534500D01*
X86699501Y-134657876D01*
X86705908Y-134717483D01*
X86756202Y-134852328D01*
X86756206Y-134852335D01*
X86842452Y-134967544D01*
X86842455Y-134967547D01*
X86957664Y-135053793D01*
X86957671Y-135053797D01*
X87092517Y-135104091D01*
X87092516Y-135104091D01*
X87099444Y-135104835D01*
X87152127Y-135110500D01*
X88847872Y-135110499D01*
X88907483Y-135104091D01*
X89042331Y-135053796D01*
X89157546Y-134967546D01*
X89243796Y-134852331D01*
X89294091Y-134717483D01*
X89300500Y-134657873D01*
X89300500Y-134534500D01*
X89320185Y-134467461D01*
X89372989Y-134421706D01*
X89424500Y-134410500D01*
X105575501Y-134410500D01*
X105642540Y-134430185D01*
X105688295Y-134482989D01*
X105699501Y-134534500D01*
X105699501Y-134657876D01*
X105705908Y-134717483D01*
X105756202Y-134852328D01*
X105756206Y-134852335D01*
X105842452Y-134967544D01*
X105842455Y-134967547D01*
X105957664Y-135053793D01*
X105957671Y-135053797D01*
X106092517Y-135104091D01*
X106092516Y-135104091D01*
X106099444Y-135104835D01*
X106152127Y-135110500D01*
X107847872Y-135110499D01*
X107907483Y-135104091D01*
X108042331Y-135053796D01*
X108157546Y-134967546D01*
X108243796Y-134852331D01*
X108294091Y-134717483D01*
X108300500Y-134657873D01*
X108300500Y-134534500D01*
X108320185Y-134467461D01*
X108372989Y-134421706D01*
X108424500Y-134410500D01*
X123075501Y-134410500D01*
X123142540Y-134430185D01*
X123188295Y-134482989D01*
X123199501Y-134534500D01*
X123199501Y-134657876D01*
X123205908Y-134717483D01*
X123256202Y-134852328D01*
X123256206Y-134852335D01*
X123342452Y-134967544D01*
X123342455Y-134967547D01*
X123457664Y-135053793D01*
X123457671Y-135053797D01*
X123592517Y-135104091D01*
X123592516Y-135104091D01*
X123599444Y-135104835D01*
X123652127Y-135110500D01*
X125347872Y-135110499D01*
X125407483Y-135104091D01*
X125542331Y-135053796D01*
X125657546Y-134967546D01*
X125743796Y-134852331D01*
X125759318Y-134810715D01*
X125801189Y-134754781D01*
X125866653Y-134730364D01*
X125934926Y-134745215D01*
X125984332Y-134794620D01*
X125999500Y-134854048D01*
X125999500Y-137875500D01*
X125979815Y-137942539D01*
X125927011Y-137988294D01*
X125875500Y-137999500D01*
X28124500Y-137999500D01*
X28057461Y-137979815D01*
X28011706Y-137927011D01*
X28000500Y-137875500D01*
X28000500Y-130689788D01*
X30207804Y-130689788D01*
X38799087Y-130689788D01*
X38799087Y-128240325D01*
X30207804Y-128240325D01*
X30207804Y-130689788D01*
X28000500Y-130689788D01*
X28000500Y-120591168D01*
X28020185Y-120524129D01*
X28072989Y-120478374D01*
X28142147Y-120468430D01*
X28197385Y-120490850D01*
X28328401Y-120586037D01*
X28342184Y-120596051D01*
X28531588Y-120692557D01*
X28733757Y-120758246D01*
X28943713Y-120791500D01*
X28943714Y-120791500D01*
X31056286Y-120791500D01*
X31056287Y-120791500D01*
X31266243Y-120758246D01*
X31468412Y-120692557D01*
X31657816Y-120596051D01*
X31819786Y-120478374D01*
X31829786Y-120471109D01*
X31829788Y-120471106D01*
X31829792Y-120471104D01*
X31980104Y-120320792D01*
X31980106Y-120320788D01*
X31980109Y-120320786D01*
X32105048Y-120148820D01*
X32105047Y-120148820D01*
X32105051Y-120148816D01*
X32201557Y-119959412D01*
X32267246Y-119757243D01*
X32300500Y-119547287D01*
X32300500Y-119350097D01*
X32320185Y-119283058D01*
X32372989Y-119237303D01*
X32442147Y-119227359D01*
X32505703Y-119256384D01*
G37*
G04 #@! TD.AperFunction*
M02*
