M48
; DRILL file {KiCad 9.0.7} date 2026-02-26T22:02:35+1100
; FORMAT={-:-/ absolute / metric / decimal}
; #@! TF.CreationDate,2026-02-26T22:02:35+11:00
; #@! TF.GenerationSoftware,Kicad,Pcbnew,9.0.7
; #@! TF.FileFunction,NonPlated,1,2,NPTH
FMAT,2
METRIC
; #@! TA.AperFunction,NonPlated,NPTH,ComponentDrill
T1C1.700
; #@! TA.AperFunction,NonPlated,NPTH,ComponentDrill
T2C4.000
%
G90
G05
T1
X90.42Y-108.0
X90.42Y-127.0
X100.58Y-108.0
X100.58Y-127.0
X109.42Y-108.0
X109.42Y-127.0
X119.58Y-108.0
X119.58Y-127.0
X128.42Y-108.0
X128.42Y-127.0
X138.58Y-108.0
X138.58Y-127.0
X147.42Y-108.0
X147.42Y-127.0
X157.58Y-108.0
X157.58Y-127.0
T2
X95.5Y-108.0
X95.5Y-127.0
X114.5Y-108.0
X114.5Y-127.0
X133.5Y-108.0
X133.5Y-127.0
X152.5Y-108.0
X152.5Y-127.0
M30
