M48
; DRILL file {KiCad 9.0.7} date 2026-02-20T22:19:16+1100
; FORMAT={-:-/ absolute / metric / decimal}
; #@! TF.CreationDate,2026-02-20T22:19:16+11:00
; #@! TF.GenerationSoftware,Kicad,Pcbnew,9.0.7
; #@! TF.FileFunction,Plated,1,2,PTH
FMAT,2
METRIC
; #@! TA.AperFunction,Plated,PTH,ViaDrill
T1C0.300
; #@! TA.AperFunction,Plated,PTH,ComponentDrill
T2C0.800
; #@! TA.AperFunction,Plated,PTH,ComponentDrill
T3C1.000
; #@! TA.AperFunction,Plated,PTH,ComponentDrill
T4C1.500
%
G90
G05
T1
X70.0Y-86.5
X73.0Y-81.5
X78.5Y-86.5
X79.5Y-55.5
X79.5Y-76.5
X83.0Y-58.5
X85.0Y-60.0
X90.0Y-57.0
X90.0Y-74.0
X93.0Y-58.0
X93.0Y-70.5
X93.0Y-80.0
X95.0Y-60.0
X96.0Y-58.0
X97.5Y-67.0
X103.0Y-57.1
X104.5Y-60.0
X104.53Y-60.96
X107.4Y-59.0
X109.0Y-55.0
X109.5Y-67.0
X110.0Y-58.0
X110.5Y-69.0
X110.5Y-73.5
X111.5Y-57.5
X118.5Y-67.2
X118.5Y-68.0
X119.0Y-64.0
X119.5Y-66.5
X121.5Y-58.0
X123.5Y-60.0
X127.0Y-68.5
X127.5Y-55.0
X130.5Y-54.0
X134.5Y-62.5
X134.5Y-67.0
X138.5Y-68.5
X142.94Y-68.0
X144.332Y-69.168
X145.0Y-73.5
X148.5Y-73.5
X149.5Y-67.5
T2
X80.19Y-71.0
X80.19Y-90.0
X87.81Y-71.0
X87.81Y-90.0
X99.19Y-71.0
X99.19Y-90.0
X106.81Y-71.0
X106.81Y-90.0
X118.19Y-71.0
X118.19Y-90.0
X125.81Y-71.0
X125.81Y-90.0
X137.19Y-71.0
X137.19Y-90.0
X144.81Y-71.0
X144.81Y-90.0
T3
X64.42Y-89.5
X66.96Y-89.5
X69.5Y-89.5
X72.04Y-89.5
X114.764Y-56.092
X114.764Y-58.632
X114.764Y-61.172
X114.764Y-63.712
X114.764Y-66.252
X114.764Y-68.792
X114.764Y-71.332
X130.014Y-56.092
X130.014Y-58.632
X130.014Y-61.172
X130.014Y-63.712
X130.014Y-66.252
X130.014Y-68.792
X130.014Y-71.332
T4
X80.19Y-60.46
X80.19Y-79.46
X86.54Y-57.92
X86.54Y-76.92
X99.19Y-60.46
X99.19Y-79.46
X105.54Y-57.92
X105.54Y-76.92
X118.19Y-60.46
X118.19Y-79.46
X124.54Y-57.92
X124.54Y-76.92
X137.19Y-60.46
X137.19Y-79.46
X143.54Y-57.92
X143.54Y-76.92
M30
