G04 #@! TF.GenerationSoftware,KiCad,Pcbnew,9.0.7*
G04 #@! TF.CreationDate,2026-02-26T22:03:25+11:00*
G04 #@! TF.ProjectId,oled-v2,6f6c6564-2d76-4322-9e6b-696361645f70,rev?*
G04 #@! TF.SameCoordinates,Original*
G04 #@! TF.FileFunction,Soldermask,Top*
G04 #@! TF.FilePolarity,Negative*
%FSLAX46Y46*%
G04 Gerber Fmt 4.6, Leading zero omitted, Abs format (unit mm)*
G04 Created by KiCad (PCBNEW 9.0.7) date 2026-02-26 22:03:25*
%MOMM*%
%LPD*%
G01*
G04 APERTURE LIST*
G04 Aperture macros list*
%AMRoundRect*
0 Rectangle with rounded corners*
0 $1 Rounding radius*
0 $2 $3 $4 $5 $6 $7 $8 $9 X,Y pos of 4 corners*
0 Add a 4 corners polygon primitive as box body*
4,1,4,$2,$3,$4,$5,$6,$7,$8,$9,$2,$3,0*
0 Add four circle primitives for the rounded corners*
1,1,$1+$1,$2,$3*
1,1,$1+$1,$4,$5*
1,1,$1+$1,$6,$7*
1,1,$1+$1,$8,$9*
0 Add four rect primitives between the rounded corners*
20,1,$1+$1,$2,$3,$4,$5,0*
20,1,$1+$1,$4,$5,$6,$7,0*
20,1,$1+$1,$6,$7,$8,$9,0*
20,1,$1+$1,$8,$9,$2,$3,0*%
G04 Aperture macros list end*
%ADD10RoundRect,0.205000X-0.495000X-0.205000X0.495000X-0.205000X0.495000X0.205000X-0.495000X0.205000X0*%
%ADD11R,1.700000X1.700000*%
%ADD12O,1.700000X1.700000*%
%ADD13R,1.600000X1.600000*%
%ADD14O,1.600000X1.600000*%
%ADD15C,1.700000*%
%ADD16C,4.000000*%
%ADD17C,2.200000*%
%ADD18R,3.500000X1.700000*%
%ADD19O,3.600000X1.700000*%
%ADD20O,3.700000X1.700000*%
G04 APERTURE END LIST*
D10*
X98200000Y-99250000D03*
X98200000Y-100750000D03*
X92800000Y-100750000D03*
X92800000Y-99250000D03*
D11*
X83540000Y-134500000D03*
D12*
X81000000Y-134500000D03*
X78460000Y-134500000D03*
X75920000Y-134500000D03*
D13*
X118310000Y-116000000D03*
D14*
X110690000Y-116000000D03*
D10*
X136200000Y-118250000D03*
X136200000Y-119750000D03*
X130800000Y-119750000D03*
X130800000Y-118250000D03*
D15*
X90420000Y-108000000D03*
D16*
X95500000Y-108000000D03*
D15*
X100580000Y-108000000D03*
D17*
X98040000Y-102920000D03*
X91690000Y-105460000D03*
D13*
X137310000Y-116000000D03*
D14*
X129690000Y-116000000D03*
D13*
X137310000Y-135000000D03*
D14*
X129690000Y-135000000D03*
D10*
X155200000Y-99250000D03*
X155200000Y-100750000D03*
X149800000Y-100750000D03*
X149800000Y-99250000D03*
D15*
X109420000Y-127000000D03*
D16*
X114500000Y-127000000D03*
D15*
X119580000Y-127000000D03*
D17*
X117040000Y-121920000D03*
X110690000Y-124460000D03*
D10*
X117200000Y-118250000D03*
X117200000Y-119750000D03*
X111800000Y-119750000D03*
X111800000Y-118250000D03*
D15*
X90420000Y-127000000D03*
D16*
X95500000Y-127000000D03*
D15*
X100580000Y-127000000D03*
D17*
X98040000Y-121920000D03*
X91690000Y-124460000D03*
D10*
X117200000Y-99250000D03*
X117200000Y-100750000D03*
X111800000Y-100750000D03*
X111800000Y-99250000D03*
D13*
X99310000Y-135000000D03*
D14*
X91690000Y-135000000D03*
D15*
X128420000Y-127000000D03*
D16*
X133500000Y-127000000D03*
D15*
X138580000Y-127000000D03*
D17*
X136040000Y-121920000D03*
X129690000Y-124460000D03*
D13*
X118310000Y-135000000D03*
D14*
X110690000Y-135000000D03*
D15*
X128420000Y-108000000D03*
D16*
X133500000Y-108000000D03*
D15*
X138580000Y-108000000D03*
D17*
X136040000Y-102920000D03*
X129690000Y-105460000D03*
D13*
X156310000Y-116000000D03*
D14*
X148690000Y-116000000D03*
D10*
X136200000Y-99250000D03*
X136200000Y-100750000D03*
X130800000Y-100750000D03*
X130800000Y-99250000D03*
X155200000Y-118250000D03*
X155200000Y-119750000D03*
X149800000Y-119750000D03*
X149800000Y-118250000D03*
D15*
X147420000Y-127000000D03*
D16*
X152500000Y-127000000D03*
D15*
X157580000Y-127000000D03*
D17*
X155040000Y-121920000D03*
X148690000Y-124460000D03*
D13*
X156310000Y-135000000D03*
D14*
X148690000Y-135000000D03*
D15*
X147420000Y-108000000D03*
D16*
X152500000Y-108000000D03*
D15*
X157580000Y-108000000D03*
D17*
X155040000Y-102920000D03*
X148690000Y-105460000D03*
D13*
X99310000Y-116000000D03*
D14*
X91690000Y-116000000D03*
D15*
X109420000Y-108000000D03*
D16*
X114500000Y-108000000D03*
D15*
X119580000Y-108000000D03*
D17*
X117040000Y-102920000D03*
X110690000Y-105460000D03*
D10*
X98200000Y-118250000D03*
X98200000Y-119750000D03*
X92800000Y-119750000D03*
X92800000Y-118250000D03*
D18*
X142514500Y-101092015D03*
D19*
X142514500Y-103632015D03*
X142514500Y-106172015D03*
X142514500Y-108712015D03*
X142514500Y-111252015D03*
X142514500Y-113792015D03*
X142514500Y-116332015D03*
X125264500Y-116332015D03*
X125264500Y-113792015D03*
X125264500Y-111252015D03*
D20*
X125264500Y-108712015D03*
X125264500Y-106172015D03*
X125264500Y-103632015D03*
X125264500Y-101092015D03*
M02*
