G04 #@! TF.GenerationSoftware,KiCad,Pcbnew,9.0.7*
G04 #@! TF.CreationDate,2026-02-20T22:20:20+11:00*
G04 #@! TF.ProjectId,oled-v2,6f6c6564-2d76-4322-9e6b-696361645f70,rev?*
G04 #@! TF.SameCoordinates,Original*
G04 #@! TF.FileFunction,Profile,NP*
%FSLAX46Y46*%
G04 Gerber Fmt 4.6, Leading zero omitted, Abs format (unit mm)*
G04 Created by KiCad (PCBNEW 9.0.7) date 2026-02-20 22:20:20*
%MOMM*%
%LPD*%
G01*
G04 APERTURE LIST*
G04 #@! TA.AperFunction,Profile*
%ADD10C,0.050000*%
G04 #@! TD*
G04 #@! TA.AperFunction,Profile*
%ADD11C,0.120000*%
G04 #@! TD*
G04 APERTURE END LIST*
D10*
X61500000Y-52500000D02*
X151000000Y-52500000D01*
X151000000Y-92000000D01*
X61500000Y-92000000D01*
X61500000Y-52500000D01*
D11*
X120300000Y-53500000D02*
X120300000Y-56500000D01*
X120300000Y-56500000D02*
X123700000Y-56500000D01*
X123700000Y-53500000D02*
X120300000Y-53500000D01*
X123700000Y-56500000D02*
X123700000Y-53500000D01*
X139300000Y-53500000D02*
X139300000Y-56500000D01*
X139300000Y-56500000D02*
X142700000Y-56500000D01*
X142700000Y-53500000D02*
X139300000Y-53500000D01*
X142700000Y-56500000D02*
X142700000Y-53500000D01*
X101300000Y-72500000D02*
X101300000Y-75500000D01*
X101300000Y-75500000D02*
X104700000Y-75500000D01*
X104700000Y-72500000D02*
X101300000Y-72500000D01*
X104700000Y-75500000D02*
X104700000Y-72500000D01*
X82300000Y-72500000D02*
X82300000Y-75500000D01*
X82300000Y-75500000D02*
X85700000Y-75500000D01*
X85700000Y-72500000D02*
X82300000Y-72500000D01*
X85700000Y-75500000D02*
X85700000Y-72500000D01*
X120300000Y-72500000D02*
X120300000Y-75500000D01*
X120300000Y-75500000D02*
X123700000Y-75500000D01*
X123700000Y-72500000D02*
X120300000Y-72500000D01*
X123700000Y-75500000D02*
X123700000Y-72500000D01*
X101300000Y-53500000D02*
X101300000Y-56500000D01*
X101300000Y-56500000D02*
X104700000Y-56500000D01*
X104700000Y-53500000D02*
X101300000Y-53500000D01*
X104700000Y-56500000D02*
X104700000Y-53500000D01*
X139300000Y-72500000D02*
X139300000Y-75500000D01*
X139300000Y-75500000D02*
X142700000Y-75500000D01*
X142700000Y-72500000D02*
X139300000Y-72500000D01*
X142700000Y-75500000D02*
X142700000Y-72500000D01*
X82300000Y-53500000D02*
X82300000Y-56500000D01*
X82300000Y-56500000D02*
X85700000Y-56500000D01*
X85700000Y-53500000D02*
X82300000Y-53500000D01*
X85700000Y-56500000D02*
X85700000Y-53500000D01*
M02*
