%TF.GenerationSoftware,KiCad,Pcbnew,9.0.7*%
%TF.CreationDate,2026-02-26T22:02:35+11:00*%
%TF.ProjectId,oled-v2,6f6c6564-2d76-4322-9e6b-696361645f70,rev?*%
%TF.SameCoordinates,Original*%
%TF.FileFunction,Drillmap*%
%TF.FilePolarity,Positive*%
%FSLAX45Y45*%
G04 Gerber Fmt 4.5, Leading zero omitted, Abs format (unit mm)*
G04 Created by KiCad (PCBNEW 9.0.7) date 2026-02-26 22:02:35*
%MOMM*%
%LPD*%
G01*
G04 APERTURE LIST*
%ADD10C,0.050000*%
%ADD11C,0.120000*%
%ADD12C,0.200000*%
%ADD13C,0.100000*%
%ADD14C,0.150000*%
G04 APERTURE END LIST*
D10*
X7350000Y-9800000D02*
X16200000Y-9800000D01*
X16200000Y-13650000D01*
X7350000Y-13650000D01*
X7350000Y-9800000D01*
D11*
X9380000Y-9850000D02*
X9380000Y-10150000D01*
X9380000Y-10150000D02*
X9720000Y-10150000D01*
X9720000Y-9850000D02*
X9380000Y-9850000D01*
X9720000Y-10150000D02*
X9720000Y-9850000D01*
X13180000Y-11750000D02*
X13180000Y-12050000D01*
X13180000Y-12050000D02*
X13520000Y-12050000D01*
X13520000Y-11750000D02*
X13180000Y-11750000D01*
X13520000Y-12050000D02*
X13520000Y-11750000D01*
X15080000Y-9850000D02*
X15080000Y-10150000D01*
X15080000Y-10150000D02*
X15420000Y-10150000D01*
X15420000Y-9850000D02*
X15080000Y-9850000D01*
X15420000Y-10150000D02*
X15420000Y-9850000D01*
X11280000Y-11750000D02*
X11280000Y-12050000D01*
X11280000Y-12050000D02*
X11620000Y-12050000D01*
X11620000Y-11750000D02*
X11280000Y-11750000D01*
X11620000Y-12050000D02*
X11620000Y-11750000D01*
X11280000Y-9850000D02*
X11280000Y-10150000D01*
X11280000Y-10150000D02*
X11620000Y-10150000D01*
X11620000Y-9850000D02*
X11280000Y-9850000D01*
X11620000Y-10150000D02*
X11620000Y-9850000D01*
X13180000Y-9850000D02*
X13180000Y-10150000D01*
X13180000Y-10150000D02*
X13520000Y-10150000D01*
X13520000Y-9850000D02*
X13180000Y-9850000D01*
X13520000Y-10150000D02*
X13520000Y-9850000D01*
X15080000Y-11750000D02*
X15080000Y-12050000D01*
X15080000Y-12050000D02*
X15420000Y-12050000D01*
X15420000Y-11750000D02*
X15080000Y-11750000D01*
X15420000Y-12050000D02*
X15420000Y-11750000D01*
X9380000Y-11750000D02*
X9380000Y-12050000D01*
X9380000Y-12050000D02*
X9720000Y-12050000D01*
X9720000Y-11750000D02*
X9380000Y-11750000D01*
X9720000Y-12050000D02*
X9720000Y-11750000D01*
D12*
D13*
X8185000Y-13135000D02*
X8215000Y-13165000D01*
X8215000Y-13135000D02*
X8185000Y-13165000D01*
X8735000Y-11085000D02*
X8765000Y-11115000D01*
X8765000Y-11085000D02*
X8735000Y-11115000D01*
X8985000Y-13135000D02*
X9015000Y-13165000D01*
X9015000Y-13135000D02*
X8985000Y-13165000D01*
X9035000Y-11085000D02*
X9065000Y-11115000D01*
X9065000Y-11085000D02*
X9035000Y-11115000D01*
X9085000Y-9935000D02*
X9115000Y-9965000D01*
X9115000Y-9935000D02*
X9085000Y-9965000D01*
X9085000Y-11885000D02*
X9115000Y-11915000D01*
X9115000Y-11885000D02*
X9085000Y-11915000D01*
X9335000Y-10285000D02*
X9365000Y-10315000D01*
X9365000Y-10285000D02*
X9335000Y-10315000D01*
X9849000Y-10685000D02*
X9879000Y-10715000D01*
X9879000Y-10685000D02*
X9849000Y-10715000D01*
X9885000Y-10485000D02*
X9915000Y-10515000D01*
X9915000Y-10485000D02*
X9885000Y-10515000D01*
X10085000Y-11835000D02*
X10115000Y-11865000D01*
X10115000Y-11835000D02*
X10085000Y-11865000D01*
X10185000Y-10535000D02*
X10215000Y-10565000D01*
X10215000Y-10535000D02*
X10185000Y-10565000D01*
X10235000Y-9985000D02*
X10265000Y-10015000D01*
X10265000Y-9985000D02*
X10235000Y-10015000D01*
X10235000Y-10135000D02*
X10265000Y-10165000D01*
X10265000Y-10135000D02*
X10235000Y-10165000D01*
X10335000Y-11135000D02*
X10365000Y-11165000D01*
X10365000Y-11135000D02*
X10335000Y-11165000D01*
X10335000Y-11935000D02*
X10365000Y-11965000D01*
X10365000Y-11935000D02*
X10335000Y-11965000D01*
X10385000Y-10485000D02*
X10415000Y-10515000D01*
X10415000Y-10485000D02*
X10385000Y-10515000D01*
X10435000Y-11775000D02*
X10465000Y-11805000D01*
X10465000Y-11775000D02*
X10435000Y-11805000D01*
X10535000Y-10535000D02*
X10565000Y-10565000D01*
X10565000Y-10535000D02*
X10535000Y-10565000D01*
X10585000Y-11775000D02*
X10615000Y-11805000D01*
X10615000Y-11775000D02*
X10585000Y-11805000D01*
X10685000Y-12435000D02*
X10715000Y-12465000D01*
X10715000Y-12435000D02*
X10685000Y-12465000D01*
X10785000Y-12985000D02*
X10815000Y-13015000D01*
X10815000Y-12985000D02*
X10785000Y-13015000D01*
X10835000Y-11735000D02*
X10865000Y-11765000D01*
X10865000Y-11735000D02*
X10835000Y-11765000D01*
X10885000Y-11235000D02*
X10915000Y-11265000D01*
X10915000Y-11235000D02*
X10885000Y-11265000D01*
X10935000Y-10185000D02*
X10965000Y-10215000D01*
X10965000Y-10185000D02*
X10935000Y-10215000D01*
X10935000Y-13085000D02*
X10965000Y-13115000D01*
X10965000Y-13085000D02*
X10935000Y-13115000D01*
X10985000Y-9935000D02*
X11015000Y-9965000D01*
X11015000Y-9935000D02*
X10985000Y-9965000D01*
X11135000Y-10985000D02*
X11165000Y-11015000D01*
X11165000Y-10985000D02*
X11135000Y-11015000D01*
X11135000Y-11235000D02*
X11165000Y-11265000D01*
X11165000Y-11235000D02*
X11135000Y-11265000D01*
X11185000Y-11385000D02*
X11215000Y-11415000D01*
X11215000Y-11385000D02*
X11185000Y-11415000D01*
X11335000Y-10485000D02*
X11365000Y-10515000D01*
X11365000Y-10485000D02*
X11335000Y-10515000D01*
X11535000Y-10545000D02*
X11565000Y-10575000D01*
X11565000Y-10545000D02*
X11535000Y-10575000D01*
X11585000Y-11235000D02*
X11615000Y-11265000D01*
X11615000Y-11235000D02*
X11585000Y-11265000D01*
X11585000Y-11675000D02*
X11615000Y-11705000D01*
X11615000Y-11675000D02*
X11585000Y-11705000D01*
X11629000Y-10545000D02*
X11659000Y-10575000D01*
X11659000Y-10545000D02*
X11629000Y-10575000D01*
X11629000Y-11035000D02*
X11659000Y-11065000D01*
X11659000Y-11035000D02*
X11629000Y-11065000D01*
X11785000Y-11085000D02*
X11815000Y-11115000D01*
X11815000Y-11085000D02*
X11785000Y-11115000D01*
X11885000Y-11785000D02*
X11915000Y-11815000D01*
X11915000Y-11785000D02*
X11885000Y-11815000D01*
X11935000Y-10035000D02*
X11965000Y-10065000D01*
X11965000Y-10035000D02*
X11935000Y-10065000D01*
X11985000Y-10335000D02*
X12015000Y-10365000D01*
X12015000Y-10335000D02*
X11985000Y-10365000D01*
X11985000Y-10485000D02*
X12015000Y-10515000D01*
X12015000Y-10485000D02*
X11985000Y-10515000D01*
X11985000Y-11435000D02*
X12015000Y-11465000D01*
X12015000Y-11435000D02*
X11985000Y-11465000D01*
X12085000Y-11885000D02*
X12115000Y-11915000D01*
X12115000Y-11885000D02*
X12085000Y-11915000D01*
X12135000Y-10835000D02*
X12165000Y-10865000D01*
X12165000Y-10835000D02*
X12135000Y-10865000D01*
X12185000Y-10535000D02*
X12215000Y-10565000D01*
X12215000Y-10535000D02*
X12185000Y-10565000D01*
X12185000Y-10685000D02*
X12215000Y-10715000D01*
X12215000Y-10685000D02*
X12185000Y-10715000D01*
X12185000Y-11673301D02*
X12215000Y-11703301D01*
X12215000Y-11673301D02*
X12185000Y-11703301D01*
X12635000Y-12135000D02*
X12665000Y-12165000D01*
X12665000Y-12135000D02*
X12635000Y-12165000D01*
X12835000Y-9935000D02*
X12865000Y-9965000D01*
X12865000Y-9935000D02*
X12835000Y-9965000D01*
X12935000Y-9985000D02*
X12965000Y-10015000D01*
X12965000Y-9985000D02*
X12935000Y-10015000D01*
X12935000Y-10185000D02*
X12965000Y-10215000D01*
X12965000Y-10185000D02*
X12935000Y-10215000D01*
X13485000Y-11235000D02*
X13515000Y-11265000D01*
X13515000Y-11235000D02*
X13485000Y-11265000D01*
X13529000Y-11385000D02*
X13559000Y-11415000D01*
X13559000Y-11385000D02*
X13529000Y-11415000D01*
X13529000Y-11680009D02*
X13559000Y-11710009D01*
X13559000Y-11680009D02*
X13529000Y-11710009D01*
X13649000Y-10635000D02*
X13679000Y-10665000D01*
X13679000Y-10635000D02*
X13649000Y-10665000D01*
X13649000Y-11385000D02*
X13679000Y-11415000D01*
X13679000Y-11385000D02*
X13649000Y-11415000D01*
X13709000Y-10935000D02*
X13739000Y-10965000D01*
X13739000Y-10935000D02*
X13709000Y-10965000D01*
X13735000Y-9935000D02*
X13765000Y-9965000D01*
X13765000Y-9935000D02*
X13735000Y-9965000D01*
X13735000Y-10535000D02*
X13765000Y-10565000D01*
X13765000Y-10535000D02*
X13735000Y-10565000D01*
X13785000Y-11985000D02*
X13815000Y-12015000D01*
X13815000Y-11985000D02*
X13785000Y-12015000D01*
X13825000Y-12117000D02*
X13855000Y-12147000D01*
X13855000Y-12117000D02*
X13825000Y-12147000D01*
X13885000Y-10285000D02*
X13915000Y-10315000D01*
X13915000Y-10285000D02*
X13885000Y-10315000D01*
X13885000Y-10535000D02*
X13915000Y-10565000D01*
X13915000Y-10535000D02*
X13885000Y-10565000D01*
X13885000Y-13085000D02*
X13915000Y-13115000D01*
X13915000Y-13085000D02*
X13885000Y-13115000D01*
X13935000Y-12935000D02*
X13965000Y-12965000D01*
X13965000Y-12935000D02*
X13935000Y-12965000D01*
X13945000Y-11885000D02*
X13975000Y-11915000D01*
X13975000Y-11885000D02*
X13945000Y-11915000D01*
X13985000Y-11235000D02*
X14015000Y-11265000D01*
X14015000Y-11235000D02*
X13985000Y-11265000D01*
X13985000Y-12117000D02*
X14015000Y-12147000D01*
X14015000Y-12117000D02*
X13985000Y-12147000D01*
X14485000Y-12935000D02*
X14515000Y-12965000D01*
X14515000Y-12935000D02*
X14485000Y-12965000D01*
X14635000Y-11785000D02*
X14665000Y-11815000D01*
X14665000Y-11785000D02*
X14635000Y-11815000D01*
X14735000Y-11835000D02*
X14765000Y-11865000D01*
X14765000Y-11835000D02*
X14735000Y-11865000D01*
X14735000Y-13135000D02*
X14765000Y-13165000D01*
X14765000Y-13135000D02*
X14735000Y-13165000D01*
X14985000Y-11385000D02*
X15015000Y-11415000D01*
X15015000Y-11385000D02*
X14985000Y-11415000D01*
X15085000Y-11185000D02*
X15115000Y-11215000D01*
X15115000Y-11185000D02*
X15085000Y-11215000D01*
X15635000Y-9985000D02*
X15665000Y-10015000D01*
X15665000Y-9985000D02*
X15635000Y-10015000D01*
X15635000Y-11835000D02*
X15665000Y-11865000D01*
X15665000Y-11835000D02*
X15635000Y-11865000D01*
X15785000Y-11235000D02*
X15815000Y-11265000D01*
X15815000Y-11235000D02*
X15785000Y-11265000D01*
X9209000Y-11600000D02*
G75*
G02*
X9129000Y-11600000I-40000J0D01*
G01*
X9129000Y-11600000D02*
G75*
G02*
X9209000Y-11600000I40000J0D01*
G01*
X9209000Y-13500000D02*
G75*
G02*
X9129000Y-13500000I-40000J0D01*
G01*
X9129000Y-13500000D02*
G75*
G02*
X9209000Y-13500000I40000J0D01*
G01*
X9971000Y-11600000D02*
G75*
G02*
X9891000Y-11600000I-40000J0D01*
G01*
X9891000Y-11600000D02*
G75*
G02*
X9971000Y-11600000I40000J0D01*
G01*
X9971000Y-13500000D02*
G75*
G02*
X9891000Y-13500000I-40000J0D01*
G01*
X9891000Y-13500000D02*
G75*
G02*
X9971000Y-13500000I40000J0D01*
G01*
X11109000Y-11600000D02*
G75*
G02*
X11029000Y-11600000I-40000J0D01*
G01*
X11029000Y-11600000D02*
G75*
G02*
X11109000Y-11600000I40000J0D01*
G01*
X11109000Y-13500000D02*
G75*
G02*
X11029000Y-13500000I-40000J0D01*
G01*
X11029000Y-13500000D02*
G75*
G02*
X11109000Y-13500000I40000J0D01*
G01*
X11871000Y-11600000D02*
G75*
G02*
X11791000Y-11600000I-40000J0D01*
G01*
X11791000Y-11600000D02*
G75*
G02*
X11871000Y-11600000I40000J0D01*
G01*
X11871000Y-13500000D02*
G75*
G02*
X11791000Y-13500000I-40000J0D01*
G01*
X11791000Y-13500000D02*
G75*
G02*
X11871000Y-13500000I40000J0D01*
G01*
X13009000Y-11600000D02*
G75*
G02*
X12929000Y-11600000I-40000J0D01*
G01*
X12929000Y-11600000D02*
G75*
G02*
X13009000Y-11600000I40000J0D01*
G01*
X13009000Y-13500000D02*
G75*
G02*
X12929000Y-13500000I-40000J0D01*
G01*
X12929000Y-13500000D02*
G75*
G02*
X13009000Y-13500000I40000J0D01*
G01*
X13771000Y-11600000D02*
G75*
G02*
X13691000Y-11600000I-40000J0D01*
G01*
X13691000Y-11600000D02*
G75*
G02*
X13771000Y-11600000I40000J0D01*
G01*
X13771000Y-13500000D02*
G75*
G02*
X13691000Y-13500000I-40000J0D01*
G01*
X13691000Y-13500000D02*
G75*
G02*
X13771000Y-13500000I40000J0D01*
G01*
X14909000Y-11600000D02*
G75*
G02*
X14829000Y-11600000I-40000J0D01*
G01*
X14829000Y-11600000D02*
G75*
G02*
X14909000Y-11600000I40000J0D01*
G01*
X14909000Y-13500000D02*
G75*
G02*
X14829000Y-13500000I-40000J0D01*
G01*
X14829000Y-13500000D02*
G75*
G02*
X14909000Y-13500000I40000J0D01*
G01*
X15671000Y-11600000D02*
G75*
G02*
X15591000Y-11600000I-40000J0D01*
G01*
X15591000Y-11600000D02*
G75*
G02*
X15671000Y-11600000I40000J0D01*
G01*
X15671000Y-13500000D02*
G75*
G02*
X15591000Y-13500000I-40000J0D01*
G01*
X15591000Y-13500000D02*
G75*
G02*
X15671000Y-13500000I40000J0D01*
G01*
X7592000Y-13400000D02*
X7592000Y-13500000D01*
X7542000Y-13450000D02*
X7642000Y-13450000D01*
X7846000Y-13400000D02*
X7846000Y-13500000D01*
X7796000Y-13450000D02*
X7896000Y-13450000D01*
X8100000Y-13400000D02*
X8100000Y-13500000D01*
X8050000Y-13450000D02*
X8150000Y-13450000D01*
X8354000Y-13400000D02*
X8354000Y-13500000D01*
X8304000Y-13450000D02*
X8404000Y-13450000D01*
X12626450Y-10059202D02*
X12626450Y-10159202D01*
X12576450Y-10109202D02*
X12676450Y-10109202D01*
X12626450Y-10313202D02*
X12626450Y-10413202D01*
X12576450Y-10363202D02*
X12676450Y-10363202D01*
X12626450Y-10567202D02*
X12626450Y-10667202D01*
X12576450Y-10617202D02*
X12676450Y-10617202D01*
X12626450Y-10821202D02*
X12626450Y-10921202D01*
X12576450Y-10871202D02*
X12676450Y-10871202D01*
X12626450Y-11075202D02*
X12626450Y-11175202D01*
X12576450Y-11125202D02*
X12676450Y-11125202D01*
X12626450Y-11329201D02*
X12626450Y-11429201D01*
X12576450Y-11379201D02*
X12676450Y-11379201D01*
X12626450Y-11583201D02*
X12626450Y-11683201D01*
X12576450Y-11633201D02*
X12676450Y-11633201D01*
X14151450Y-10059202D02*
X14151450Y-10159202D01*
X14101450Y-10109202D02*
X14201450Y-10109202D01*
X14151450Y-10313202D02*
X14151450Y-10413202D01*
X14101450Y-10363202D02*
X14201450Y-10363202D01*
X14151450Y-10567202D02*
X14151450Y-10667202D01*
X14101450Y-10617202D02*
X14201450Y-10617202D01*
X14151450Y-10821202D02*
X14151450Y-10921202D01*
X14101450Y-10871202D02*
X14201450Y-10871202D01*
X14151450Y-11075202D02*
X14151450Y-11175202D01*
X14101450Y-11125202D02*
X14201450Y-11125202D01*
X14151450Y-11329201D02*
X14151450Y-11429201D01*
X14101450Y-11379201D02*
X14201450Y-11379201D01*
X14151450Y-11583201D02*
X14151450Y-11683201D01*
X14101450Y-11633201D02*
X14201450Y-11633201D01*
D14*
X9222034Y-10599034D02*
X9222034Y-10492967D01*
X9115967Y-10492967D01*
X9115967Y-10599034D01*
X9222034Y-10599034D01*
X9222034Y-12499033D02*
X9222034Y-12392966D01*
X9115967Y-12392966D01*
X9115967Y-12499033D01*
X9222034Y-12499033D01*
X9857034Y-10345034D02*
X9857034Y-10238967D01*
X9750967Y-10238967D01*
X9750967Y-10345034D01*
X9857034Y-10345034D01*
X9857034Y-12245033D02*
X9857034Y-12138966D01*
X9750967Y-12138966D01*
X9750967Y-12245033D01*
X9857034Y-12245033D01*
X11122034Y-10599034D02*
X11122034Y-10492967D01*
X11015967Y-10492967D01*
X11015967Y-10599034D01*
X11122034Y-10599034D01*
X11122034Y-12499033D02*
X11122034Y-12392966D01*
X11015967Y-12392966D01*
X11015967Y-12499033D01*
X11122034Y-12499033D01*
X11757033Y-10345034D02*
X11757033Y-10238967D01*
X11650966Y-10238967D01*
X11650966Y-10345034D01*
X11757033Y-10345034D01*
X11757033Y-12245033D02*
X11757033Y-12138966D01*
X11650966Y-12138966D01*
X11650966Y-12245033D01*
X11757033Y-12245033D01*
X13022033Y-10599034D02*
X13022033Y-10492967D01*
X12915966Y-10492967D01*
X12915966Y-10599034D01*
X13022033Y-10599034D01*
X13022033Y-12499033D02*
X13022033Y-12392966D01*
X12915966Y-12392966D01*
X12915966Y-12499033D01*
X13022033Y-12499033D01*
X13657033Y-10345034D02*
X13657033Y-10238967D01*
X13550966Y-10238967D01*
X13550966Y-10345034D01*
X13657033Y-10345034D01*
X13657033Y-12245033D02*
X13657033Y-12138966D01*
X13550966Y-12138966D01*
X13550966Y-12245033D01*
X13657033Y-12245033D01*
X14922033Y-10599034D02*
X14922033Y-10492967D01*
X14815966Y-10492967D01*
X14815966Y-10599034D01*
X14922033Y-10599034D01*
X14922033Y-12499033D02*
X14922033Y-12392966D01*
X14815966Y-12392966D01*
X14815966Y-12499033D01*
X14922033Y-12499033D01*
X15557033Y-10345034D02*
X15557033Y-10238967D01*
X15450966Y-10238967D01*
X15450966Y-10345034D01*
X15557033Y-10345034D01*
X15557033Y-12245033D02*
X15557033Y-12138966D01*
X15450966Y-12138966D01*
X15450966Y-12245033D01*
X15557033Y-12245033D01*
D12*
X7608277Y-13963984D02*
X7608277Y-13763984D01*
X7608277Y-13763984D02*
X7655896Y-13763984D01*
X7655896Y-13763984D02*
X7684467Y-13773508D01*
X7684467Y-13773508D02*
X7703515Y-13792555D01*
X7703515Y-13792555D02*
X7713039Y-13811603D01*
X7713039Y-13811603D02*
X7722562Y-13849698D01*
X7722562Y-13849698D02*
X7722562Y-13878269D01*
X7722562Y-13878269D02*
X7713039Y-13916365D01*
X7713039Y-13916365D02*
X7703515Y-13935412D01*
X7703515Y-13935412D02*
X7684467Y-13954460D01*
X7684467Y-13954460D02*
X7655896Y-13963984D01*
X7655896Y-13963984D02*
X7608277Y-13963984D01*
X7808277Y-13963984D02*
X7808277Y-13830650D01*
X7808277Y-13868746D02*
X7817801Y-13849698D01*
X7817801Y-13849698D02*
X7827324Y-13840174D01*
X7827324Y-13840174D02*
X7846372Y-13830650D01*
X7846372Y-13830650D02*
X7865420Y-13830650D01*
X7932086Y-13963984D02*
X7932086Y-13830650D01*
X7932086Y-13763984D02*
X7922562Y-13773508D01*
X7922562Y-13773508D02*
X7932086Y-13783031D01*
X7932086Y-13783031D02*
X7941610Y-13773508D01*
X7941610Y-13773508D02*
X7932086Y-13763984D01*
X7932086Y-13763984D02*
X7932086Y-13783031D01*
X8055896Y-13963984D02*
X8036848Y-13954460D01*
X8036848Y-13954460D02*
X8027324Y-13935412D01*
X8027324Y-13935412D02*
X8027324Y-13763984D01*
X8160658Y-13963984D02*
X8141610Y-13954460D01*
X8141610Y-13954460D02*
X8132086Y-13935412D01*
X8132086Y-13935412D02*
X8132086Y-13763984D01*
X8389229Y-13963984D02*
X8389229Y-13763984D01*
X8389229Y-13763984D02*
X8455896Y-13906841D01*
X8455896Y-13906841D02*
X8522563Y-13763984D01*
X8522563Y-13763984D02*
X8522563Y-13963984D01*
X8703515Y-13963984D02*
X8703515Y-13859222D01*
X8703515Y-13859222D02*
X8693991Y-13840174D01*
X8693991Y-13840174D02*
X8674944Y-13830650D01*
X8674944Y-13830650D02*
X8636848Y-13830650D01*
X8636848Y-13830650D02*
X8617801Y-13840174D01*
X8703515Y-13954460D02*
X8684467Y-13963984D01*
X8684467Y-13963984D02*
X8636848Y-13963984D01*
X8636848Y-13963984D02*
X8617801Y-13954460D01*
X8617801Y-13954460D02*
X8608277Y-13935412D01*
X8608277Y-13935412D02*
X8608277Y-13916365D01*
X8608277Y-13916365D02*
X8617801Y-13897317D01*
X8617801Y-13897317D02*
X8636848Y-13887793D01*
X8636848Y-13887793D02*
X8684467Y-13887793D01*
X8684467Y-13887793D02*
X8703515Y-13878269D01*
X8798753Y-13830650D02*
X8798753Y-14030650D01*
X8798753Y-13840174D02*
X8817801Y-13830650D01*
X8817801Y-13830650D02*
X8855896Y-13830650D01*
X8855896Y-13830650D02*
X8874944Y-13840174D01*
X8874944Y-13840174D02*
X8884467Y-13849698D01*
X8884467Y-13849698D02*
X8893991Y-13868746D01*
X8893991Y-13868746D02*
X8893991Y-13925888D01*
X8893991Y-13925888D02*
X8884467Y-13944936D01*
X8884467Y-13944936D02*
X8874944Y-13954460D01*
X8874944Y-13954460D02*
X8855896Y-13963984D01*
X8855896Y-13963984D02*
X8817801Y-13963984D01*
X8817801Y-13963984D02*
X8798753Y-13954460D01*
X8979705Y-13944936D02*
X8989229Y-13954460D01*
X8989229Y-13954460D02*
X8979705Y-13963984D01*
X8979705Y-13963984D02*
X8970182Y-13954460D01*
X8970182Y-13954460D02*
X8979705Y-13944936D01*
X8979705Y-13944936D02*
X8979705Y-13963984D01*
X8979705Y-13840174D02*
X8989229Y-13849698D01*
X8989229Y-13849698D02*
X8979705Y-13859222D01*
X8979705Y-13859222D02*
X8970182Y-13849698D01*
X8970182Y-13849698D02*
X8979705Y-13840174D01*
X8979705Y-13840174D02*
X8979705Y-13859222D01*
D13*
X7317500Y-14277500D02*
X7347500Y-14307500D01*
X7347500Y-14277500D02*
X7317500Y-14307500D01*
D12*
X7646372Y-14183984D02*
X7665420Y-14183984D01*
X7665420Y-14183984D02*
X7684467Y-14193508D01*
X7684467Y-14193508D02*
X7693991Y-14203031D01*
X7693991Y-14203031D02*
X7703515Y-14222079D01*
X7703515Y-14222079D02*
X7713039Y-14260174D01*
X7713039Y-14260174D02*
X7713039Y-14307793D01*
X7713039Y-14307793D02*
X7703515Y-14345888D01*
X7703515Y-14345888D02*
X7693991Y-14364936D01*
X7693991Y-14364936D02*
X7684467Y-14374460D01*
X7684467Y-14374460D02*
X7665420Y-14383984D01*
X7665420Y-14383984D02*
X7646372Y-14383984D01*
X7646372Y-14383984D02*
X7627324Y-14374460D01*
X7627324Y-14374460D02*
X7617801Y-14364936D01*
X7617801Y-14364936D02*
X7608277Y-14345888D01*
X7608277Y-14345888D02*
X7598753Y-14307793D01*
X7598753Y-14307793D02*
X7598753Y-14260174D01*
X7598753Y-14260174D02*
X7608277Y-14222079D01*
X7608277Y-14222079D02*
X7617801Y-14203031D01*
X7617801Y-14203031D02*
X7627324Y-14193508D01*
X7627324Y-14193508D02*
X7646372Y-14183984D01*
X7798753Y-14364936D02*
X7808277Y-14374460D01*
X7808277Y-14374460D02*
X7798753Y-14383984D01*
X7798753Y-14383984D02*
X7789229Y-14374460D01*
X7789229Y-14374460D02*
X7798753Y-14364936D01*
X7798753Y-14364936D02*
X7798753Y-14383984D01*
X7874943Y-14183984D02*
X7998753Y-14183984D01*
X7998753Y-14183984D02*
X7932086Y-14260174D01*
X7932086Y-14260174D02*
X7960658Y-14260174D01*
X7960658Y-14260174D02*
X7979705Y-14269698D01*
X7979705Y-14269698D02*
X7989229Y-14279222D01*
X7989229Y-14279222D02*
X7998753Y-14298269D01*
X7998753Y-14298269D02*
X7998753Y-14345888D01*
X7998753Y-14345888D02*
X7989229Y-14364936D01*
X7989229Y-14364936D02*
X7979705Y-14374460D01*
X7979705Y-14374460D02*
X7960658Y-14383984D01*
X7960658Y-14383984D02*
X7903515Y-14383984D01*
X7903515Y-14383984D02*
X7884467Y-14374460D01*
X7884467Y-14374460D02*
X7874943Y-14364936D01*
X8122562Y-14183984D02*
X8141610Y-14183984D01*
X8141610Y-14183984D02*
X8160658Y-14193508D01*
X8160658Y-14193508D02*
X8170182Y-14203031D01*
X8170182Y-14203031D02*
X8179705Y-14222079D01*
X8179705Y-14222079D02*
X8189229Y-14260174D01*
X8189229Y-14260174D02*
X8189229Y-14307793D01*
X8189229Y-14307793D02*
X8179705Y-14345888D01*
X8179705Y-14345888D02*
X8170182Y-14364936D01*
X8170182Y-14364936D02*
X8160658Y-14374460D01*
X8160658Y-14374460D02*
X8141610Y-14383984D01*
X8141610Y-14383984D02*
X8122562Y-14383984D01*
X8122562Y-14383984D02*
X8103515Y-14374460D01*
X8103515Y-14374460D02*
X8093991Y-14364936D01*
X8093991Y-14364936D02*
X8084467Y-14345888D01*
X8084467Y-14345888D02*
X8074943Y-14307793D01*
X8074943Y-14307793D02*
X8074943Y-14260174D01*
X8074943Y-14260174D02*
X8084467Y-14222079D01*
X8084467Y-14222079D02*
X8093991Y-14203031D01*
X8093991Y-14203031D02*
X8103515Y-14193508D01*
X8103515Y-14193508D02*
X8122562Y-14183984D01*
X8313039Y-14183984D02*
X8332086Y-14183984D01*
X8332086Y-14183984D02*
X8351134Y-14193508D01*
X8351134Y-14193508D02*
X8360658Y-14203031D01*
X8360658Y-14203031D02*
X8370182Y-14222079D01*
X8370182Y-14222079D02*
X8379705Y-14260174D01*
X8379705Y-14260174D02*
X8379705Y-14307793D01*
X8379705Y-14307793D02*
X8370182Y-14345888D01*
X8370182Y-14345888D02*
X8360658Y-14364936D01*
X8360658Y-14364936D02*
X8351134Y-14374460D01*
X8351134Y-14374460D02*
X8332086Y-14383984D01*
X8332086Y-14383984D02*
X8313039Y-14383984D01*
X8313039Y-14383984D02*
X8293991Y-14374460D01*
X8293991Y-14374460D02*
X8284467Y-14364936D01*
X8284467Y-14364936D02*
X8274943Y-14345888D01*
X8274943Y-14345888D02*
X8265420Y-14307793D01*
X8265420Y-14307793D02*
X8265420Y-14260174D01*
X8265420Y-14260174D02*
X8274943Y-14222079D01*
X8274943Y-14222079D02*
X8284467Y-14203031D01*
X8284467Y-14203031D02*
X8293991Y-14193508D01*
X8293991Y-14193508D02*
X8313039Y-14183984D01*
X8465420Y-14383984D02*
X8465420Y-14250650D01*
X8465420Y-14269698D02*
X8474944Y-14260174D01*
X8474944Y-14260174D02*
X8493991Y-14250650D01*
X8493991Y-14250650D02*
X8522563Y-14250650D01*
X8522563Y-14250650D02*
X8541610Y-14260174D01*
X8541610Y-14260174D02*
X8551134Y-14279222D01*
X8551134Y-14279222D02*
X8551134Y-14383984D01*
X8551134Y-14279222D02*
X8560658Y-14260174D01*
X8560658Y-14260174D02*
X8579705Y-14250650D01*
X8579705Y-14250650D02*
X8608277Y-14250650D01*
X8608277Y-14250650D02*
X8627325Y-14260174D01*
X8627325Y-14260174D02*
X8636848Y-14279222D01*
X8636848Y-14279222D02*
X8636848Y-14383984D01*
X8732086Y-14383984D02*
X8732086Y-14250650D01*
X8732086Y-14269698D02*
X8741610Y-14260174D01*
X8741610Y-14260174D02*
X8760658Y-14250650D01*
X8760658Y-14250650D02*
X8789229Y-14250650D01*
X8789229Y-14250650D02*
X8808277Y-14260174D01*
X8808277Y-14260174D02*
X8817801Y-14279222D01*
X8817801Y-14279222D02*
X8817801Y-14383984D01*
X8817801Y-14279222D02*
X8827325Y-14260174D01*
X8827325Y-14260174D02*
X8846372Y-14250650D01*
X8846372Y-14250650D02*
X8874944Y-14250650D01*
X8874944Y-14250650D02*
X8893991Y-14260174D01*
X8893991Y-14260174D02*
X8903515Y-14279222D01*
X8903515Y-14279222D02*
X8903515Y-14383984D01*
X9293991Y-14174460D02*
X9122563Y-14431603D01*
X9551134Y-14183984D02*
X9570182Y-14183984D01*
X9570182Y-14183984D02*
X9589229Y-14193508D01*
X9589229Y-14193508D02*
X9598753Y-14203031D01*
X9598753Y-14203031D02*
X9608277Y-14222079D01*
X9608277Y-14222079D02*
X9617801Y-14260174D01*
X9617801Y-14260174D02*
X9617801Y-14307793D01*
X9617801Y-14307793D02*
X9608277Y-14345888D01*
X9608277Y-14345888D02*
X9598753Y-14364936D01*
X9598753Y-14364936D02*
X9589229Y-14374460D01*
X9589229Y-14374460D02*
X9570182Y-14383984D01*
X9570182Y-14383984D02*
X9551134Y-14383984D01*
X9551134Y-14383984D02*
X9532087Y-14374460D01*
X9532087Y-14374460D02*
X9522563Y-14364936D01*
X9522563Y-14364936D02*
X9513039Y-14345888D01*
X9513039Y-14345888D02*
X9503515Y-14307793D01*
X9503515Y-14307793D02*
X9503515Y-14260174D01*
X9503515Y-14260174D02*
X9513039Y-14222079D01*
X9513039Y-14222079D02*
X9522563Y-14203031D01*
X9522563Y-14203031D02*
X9532087Y-14193508D01*
X9532087Y-14193508D02*
X9551134Y-14183984D01*
X9703515Y-14364936D02*
X9713039Y-14374460D01*
X9713039Y-14374460D02*
X9703515Y-14383984D01*
X9703515Y-14383984D02*
X9693991Y-14374460D01*
X9693991Y-14374460D02*
X9703515Y-14364936D01*
X9703515Y-14364936D02*
X9703515Y-14383984D01*
X9836848Y-14183984D02*
X9855896Y-14183984D01*
X9855896Y-14183984D02*
X9874944Y-14193508D01*
X9874944Y-14193508D02*
X9884468Y-14203031D01*
X9884468Y-14203031D02*
X9893991Y-14222079D01*
X9893991Y-14222079D02*
X9903515Y-14260174D01*
X9903515Y-14260174D02*
X9903515Y-14307793D01*
X9903515Y-14307793D02*
X9893991Y-14345888D01*
X9893991Y-14345888D02*
X9884468Y-14364936D01*
X9884468Y-14364936D02*
X9874944Y-14374460D01*
X9874944Y-14374460D02*
X9855896Y-14383984D01*
X9855896Y-14383984D02*
X9836848Y-14383984D01*
X9836848Y-14383984D02*
X9817801Y-14374460D01*
X9817801Y-14374460D02*
X9808277Y-14364936D01*
X9808277Y-14364936D02*
X9798753Y-14345888D01*
X9798753Y-14345888D02*
X9789229Y-14307793D01*
X9789229Y-14307793D02*
X9789229Y-14260174D01*
X9789229Y-14260174D02*
X9798753Y-14222079D01*
X9798753Y-14222079D02*
X9808277Y-14203031D01*
X9808277Y-14203031D02*
X9817801Y-14193508D01*
X9817801Y-14193508D02*
X9836848Y-14183984D01*
X10093991Y-14383984D02*
X9979706Y-14383984D01*
X10036848Y-14383984D02*
X10036848Y-14183984D01*
X10036848Y-14183984D02*
X10017801Y-14212555D01*
X10017801Y-14212555D02*
X9998753Y-14231603D01*
X9998753Y-14231603D02*
X9979706Y-14241127D01*
X10284468Y-14383984D02*
X10170182Y-14383984D01*
X10227325Y-14383984D02*
X10227325Y-14183984D01*
X10227325Y-14183984D02*
X10208277Y-14212555D01*
X10208277Y-14212555D02*
X10189229Y-14231603D01*
X10189229Y-14231603D02*
X10170182Y-14241127D01*
X10398753Y-14269698D02*
X10379706Y-14260174D01*
X10379706Y-14260174D02*
X10370182Y-14250650D01*
X10370182Y-14250650D02*
X10360658Y-14231603D01*
X10360658Y-14231603D02*
X10360658Y-14222079D01*
X10360658Y-14222079D02*
X10370182Y-14203031D01*
X10370182Y-14203031D02*
X10379706Y-14193508D01*
X10379706Y-14193508D02*
X10398753Y-14183984D01*
X10398753Y-14183984D02*
X10436849Y-14183984D01*
X10436849Y-14183984D02*
X10455896Y-14193508D01*
X10455896Y-14193508D02*
X10465420Y-14203031D01*
X10465420Y-14203031D02*
X10474944Y-14222079D01*
X10474944Y-14222079D02*
X10474944Y-14231603D01*
X10474944Y-14231603D02*
X10465420Y-14250650D01*
X10465420Y-14250650D02*
X10455896Y-14260174D01*
X10455896Y-14260174D02*
X10436849Y-14269698D01*
X10436849Y-14269698D02*
X10398753Y-14269698D01*
X10398753Y-14269698D02*
X10379706Y-14279222D01*
X10379706Y-14279222D02*
X10370182Y-14288746D01*
X10370182Y-14288746D02*
X10360658Y-14307793D01*
X10360658Y-14307793D02*
X10360658Y-14345888D01*
X10360658Y-14345888D02*
X10370182Y-14364936D01*
X10370182Y-14364936D02*
X10379706Y-14374460D01*
X10379706Y-14374460D02*
X10398753Y-14383984D01*
X10398753Y-14383984D02*
X10436849Y-14383984D01*
X10436849Y-14383984D02*
X10455896Y-14374460D01*
X10455896Y-14374460D02*
X10465420Y-14364936D01*
X10465420Y-14364936D02*
X10474944Y-14345888D01*
X10474944Y-14345888D02*
X10474944Y-14307793D01*
X10474944Y-14307793D02*
X10465420Y-14288746D01*
X10465420Y-14288746D02*
X10455896Y-14279222D01*
X10455896Y-14279222D02*
X10436849Y-14269698D01*
X10551134Y-14183984D02*
X10551134Y-14222079D01*
X10627325Y-14183984D02*
X10627325Y-14222079D01*
X10922563Y-14460174D02*
X10913039Y-14450650D01*
X10913039Y-14450650D02*
X10893991Y-14422079D01*
X10893991Y-14422079D02*
X10884468Y-14403031D01*
X10884468Y-14403031D02*
X10874944Y-14374460D01*
X10874944Y-14374460D02*
X10865420Y-14326841D01*
X10865420Y-14326841D02*
X10865420Y-14288746D01*
X10865420Y-14288746D02*
X10874944Y-14241127D01*
X10874944Y-14241127D02*
X10884468Y-14212555D01*
X10884468Y-14212555D02*
X10893991Y-14193508D01*
X10893991Y-14193508D02*
X10913039Y-14164936D01*
X10913039Y-14164936D02*
X10922563Y-14155412D01*
X10979706Y-14183984D02*
X11113039Y-14183984D01*
X11113039Y-14183984D02*
X11027325Y-14383984D01*
X11274944Y-14183984D02*
X11236848Y-14183984D01*
X11236848Y-14183984D02*
X11217801Y-14193508D01*
X11217801Y-14193508D02*
X11208277Y-14203031D01*
X11208277Y-14203031D02*
X11189229Y-14231603D01*
X11189229Y-14231603D02*
X11179706Y-14269698D01*
X11179706Y-14269698D02*
X11179706Y-14345888D01*
X11179706Y-14345888D02*
X11189229Y-14364936D01*
X11189229Y-14364936D02*
X11198753Y-14374460D01*
X11198753Y-14374460D02*
X11217801Y-14383984D01*
X11217801Y-14383984D02*
X11255896Y-14383984D01*
X11255896Y-14383984D02*
X11274944Y-14374460D01*
X11274944Y-14374460D02*
X11284468Y-14364936D01*
X11284468Y-14364936D02*
X11293991Y-14345888D01*
X11293991Y-14345888D02*
X11293991Y-14298269D01*
X11293991Y-14298269D02*
X11284468Y-14279222D01*
X11284468Y-14279222D02*
X11274944Y-14269698D01*
X11274944Y-14269698D02*
X11255896Y-14260174D01*
X11255896Y-14260174D02*
X11217801Y-14260174D01*
X11217801Y-14260174D02*
X11198753Y-14269698D01*
X11198753Y-14269698D02*
X11189229Y-14279222D01*
X11189229Y-14279222D02*
X11179706Y-14298269D01*
X11532087Y-14383984D02*
X11532087Y-14183984D01*
X11617801Y-14383984D02*
X11617801Y-14279222D01*
X11617801Y-14279222D02*
X11608277Y-14260174D01*
X11608277Y-14260174D02*
X11589230Y-14250650D01*
X11589230Y-14250650D02*
X11560658Y-14250650D01*
X11560658Y-14250650D02*
X11541610Y-14260174D01*
X11541610Y-14260174D02*
X11532087Y-14269698D01*
X11741610Y-14383984D02*
X11722563Y-14374460D01*
X11722563Y-14374460D02*
X11713039Y-14364936D01*
X11713039Y-14364936D02*
X11703515Y-14345888D01*
X11703515Y-14345888D02*
X11703515Y-14288746D01*
X11703515Y-14288746D02*
X11713039Y-14269698D01*
X11713039Y-14269698D02*
X11722563Y-14260174D01*
X11722563Y-14260174D02*
X11741610Y-14250650D01*
X11741610Y-14250650D02*
X11770182Y-14250650D01*
X11770182Y-14250650D02*
X11789230Y-14260174D01*
X11789230Y-14260174D02*
X11798753Y-14269698D01*
X11798753Y-14269698D02*
X11808277Y-14288746D01*
X11808277Y-14288746D02*
X11808277Y-14345888D01*
X11808277Y-14345888D02*
X11798753Y-14364936D01*
X11798753Y-14364936D02*
X11789230Y-14374460D01*
X11789230Y-14374460D02*
X11770182Y-14383984D01*
X11770182Y-14383984D02*
X11741610Y-14383984D01*
X11922563Y-14383984D02*
X11903515Y-14374460D01*
X11903515Y-14374460D02*
X11893991Y-14355412D01*
X11893991Y-14355412D02*
X11893991Y-14183984D01*
X12074944Y-14374460D02*
X12055896Y-14383984D01*
X12055896Y-14383984D02*
X12017801Y-14383984D01*
X12017801Y-14383984D02*
X11998753Y-14374460D01*
X11998753Y-14374460D02*
X11989230Y-14355412D01*
X11989230Y-14355412D02*
X11989230Y-14279222D01*
X11989230Y-14279222D02*
X11998753Y-14260174D01*
X11998753Y-14260174D02*
X12017801Y-14250650D01*
X12017801Y-14250650D02*
X12055896Y-14250650D01*
X12055896Y-14250650D02*
X12074944Y-14260174D01*
X12074944Y-14260174D02*
X12084468Y-14279222D01*
X12084468Y-14279222D02*
X12084468Y-14298269D01*
X12084468Y-14298269D02*
X11989230Y-14317317D01*
X12160658Y-14374460D02*
X12179706Y-14383984D01*
X12179706Y-14383984D02*
X12217801Y-14383984D01*
X12217801Y-14383984D02*
X12236849Y-14374460D01*
X12236849Y-14374460D02*
X12246372Y-14355412D01*
X12246372Y-14355412D02*
X12246372Y-14345888D01*
X12246372Y-14345888D02*
X12236849Y-14326841D01*
X12236849Y-14326841D02*
X12217801Y-14317317D01*
X12217801Y-14317317D02*
X12189230Y-14317317D01*
X12189230Y-14317317D02*
X12170182Y-14307793D01*
X12170182Y-14307793D02*
X12160658Y-14288746D01*
X12160658Y-14288746D02*
X12160658Y-14279222D01*
X12160658Y-14279222D02*
X12170182Y-14260174D01*
X12170182Y-14260174D02*
X12189230Y-14250650D01*
X12189230Y-14250650D02*
X12217801Y-14250650D01*
X12217801Y-14250650D02*
X12236849Y-14260174D01*
X12313039Y-14460174D02*
X12322563Y-14450650D01*
X12322563Y-14450650D02*
X12341611Y-14422079D01*
X12341611Y-14422079D02*
X12351134Y-14403031D01*
X12351134Y-14403031D02*
X12360658Y-14374460D01*
X12360658Y-14374460D02*
X12370182Y-14326841D01*
X12370182Y-14326841D02*
X12370182Y-14288746D01*
X12370182Y-14288746D02*
X12360658Y-14241127D01*
X12360658Y-14241127D02*
X12351134Y-14212555D01*
X12351134Y-14212555D02*
X12341611Y-14193508D01*
X12341611Y-14193508D02*
X12322563Y-14164936D01*
X12322563Y-14164936D02*
X12313039Y-14155412D01*
D13*
X7347500Y-14556500D02*
G75*
G02*
X7267500Y-14556500I-40000J0D01*
G01*
X7267500Y-14556500D02*
G75*
G02*
X7347500Y-14556500I40000J0D01*
G01*
D12*
X7646372Y-14447984D02*
X7665420Y-14447984D01*
X7665420Y-14447984D02*
X7684467Y-14457508D01*
X7684467Y-14457508D02*
X7693991Y-14467031D01*
X7693991Y-14467031D02*
X7703515Y-14486079D01*
X7703515Y-14486079D02*
X7713039Y-14524174D01*
X7713039Y-14524174D02*
X7713039Y-14571793D01*
X7713039Y-14571793D02*
X7703515Y-14609888D01*
X7703515Y-14609888D02*
X7693991Y-14628936D01*
X7693991Y-14628936D02*
X7684467Y-14638460D01*
X7684467Y-14638460D02*
X7665420Y-14647984D01*
X7665420Y-14647984D02*
X7646372Y-14647984D01*
X7646372Y-14647984D02*
X7627324Y-14638460D01*
X7627324Y-14638460D02*
X7617801Y-14628936D01*
X7617801Y-14628936D02*
X7608277Y-14609888D01*
X7608277Y-14609888D02*
X7598753Y-14571793D01*
X7598753Y-14571793D02*
X7598753Y-14524174D01*
X7598753Y-14524174D02*
X7608277Y-14486079D01*
X7608277Y-14486079D02*
X7617801Y-14467031D01*
X7617801Y-14467031D02*
X7627324Y-14457508D01*
X7627324Y-14457508D02*
X7646372Y-14447984D01*
X7798753Y-14628936D02*
X7808277Y-14638460D01*
X7808277Y-14638460D02*
X7798753Y-14647984D01*
X7798753Y-14647984D02*
X7789229Y-14638460D01*
X7789229Y-14638460D02*
X7798753Y-14628936D01*
X7798753Y-14628936D02*
X7798753Y-14647984D01*
X7922562Y-14533698D02*
X7903515Y-14524174D01*
X7903515Y-14524174D02*
X7893991Y-14514650D01*
X7893991Y-14514650D02*
X7884467Y-14495603D01*
X7884467Y-14495603D02*
X7884467Y-14486079D01*
X7884467Y-14486079D02*
X7893991Y-14467031D01*
X7893991Y-14467031D02*
X7903515Y-14457508D01*
X7903515Y-14457508D02*
X7922562Y-14447984D01*
X7922562Y-14447984D02*
X7960658Y-14447984D01*
X7960658Y-14447984D02*
X7979705Y-14457508D01*
X7979705Y-14457508D02*
X7989229Y-14467031D01*
X7989229Y-14467031D02*
X7998753Y-14486079D01*
X7998753Y-14486079D02*
X7998753Y-14495603D01*
X7998753Y-14495603D02*
X7989229Y-14514650D01*
X7989229Y-14514650D02*
X7979705Y-14524174D01*
X7979705Y-14524174D02*
X7960658Y-14533698D01*
X7960658Y-14533698D02*
X7922562Y-14533698D01*
X7922562Y-14533698D02*
X7903515Y-14543222D01*
X7903515Y-14543222D02*
X7893991Y-14552746D01*
X7893991Y-14552746D02*
X7884467Y-14571793D01*
X7884467Y-14571793D02*
X7884467Y-14609888D01*
X7884467Y-14609888D02*
X7893991Y-14628936D01*
X7893991Y-14628936D02*
X7903515Y-14638460D01*
X7903515Y-14638460D02*
X7922562Y-14647984D01*
X7922562Y-14647984D02*
X7960658Y-14647984D01*
X7960658Y-14647984D02*
X7979705Y-14638460D01*
X7979705Y-14638460D02*
X7989229Y-14628936D01*
X7989229Y-14628936D02*
X7998753Y-14609888D01*
X7998753Y-14609888D02*
X7998753Y-14571793D01*
X7998753Y-14571793D02*
X7989229Y-14552746D01*
X7989229Y-14552746D02*
X7979705Y-14543222D01*
X7979705Y-14543222D02*
X7960658Y-14533698D01*
X8122562Y-14447984D02*
X8141610Y-14447984D01*
X8141610Y-14447984D02*
X8160658Y-14457508D01*
X8160658Y-14457508D02*
X8170182Y-14467031D01*
X8170182Y-14467031D02*
X8179705Y-14486079D01*
X8179705Y-14486079D02*
X8189229Y-14524174D01*
X8189229Y-14524174D02*
X8189229Y-14571793D01*
X8189229Y-14571793D02*
X8179705Y-14609888D01*
X8179705Y-14609888D02*
X8170182Y-14628936D01*
X8170182Y-14628936D02*
X8160658Y-14638460D01*
X8160658Y-14638460D02*
X8141610Y-14647984D01*
X8141610Y-14647984D02*
X8122562Y-14647984D01*
X8122562Y-14647984D02*
X8103515Y-14638460D01*
X8103515Y-14638460D02*
X8093991Y-14628936D01*
X8093991Y-14628936D02*
X8084467Y-14609888D01*
X8084467Y-14609888D02*
X8074943Y-14571793D01*
X8074943Y-14571793D02*
X8074943Y-14524174D01*
X8074943Y-14524174D02*
X8084467Y-14486079D01*
X8084467Y-14486079D02*
X8093991Y-14467031D01*
X8093991Y-14467031D02*
X8103515Y-14457508D01*
X8103515Y-14457508D02*
X8122562Y-14447984D01*
X8313039Y-14447984D02*
X8332086Y-14447984D01*
X8332086Y-14447984D02*
X8351134Y-14457508D01*
X8351134Y-14457508D02*
X8360658Y-14467031D01*
X8360658Y-14467031D02*
X8370182Y-14486079D01*
X8370182Y-14486079D02*
X8379705Y-14524174D01*
X8379705Y-14524174D02*
X8379705Y-14571793D01*
X8379705Y-14571793D02*
X8370182Y-14609888D01*
X8370182Y-14609888D02*
X8360658Y-14628936D01*
X8360658Y-14628936D02*
X8351134Y-14638460D01*
X8351134Y-14638460D02*
X8332086Y-14647984D01*
X8332086Y-14647984D02*
X8313039Y-14647984D01*
X8313039Y-14647984D02*
X8293991Y-14638460D01*
X8293991Y-14638460D02*
X8284467Y-14628936D01*
X8284467Y-14628936D02*
X8274943Y-14609888D01*
X8274943Y-14609888D02*
X8265420Y-14571793D01*
X8265420Y-14571793D02*
X8265420Y-14524174D01*
X8265420Y-14524174D02*
X8274943Y-14486079D01*
X8274943Y-14486079D02*
X8284467Y-14467031D01*
X8284467Y-14467031D02*
X8293991Y-14457508D01*
X8293991Y-14457508D02*
X8313039Y-14447984D01*
X8465420Y-14647984D02*
X8465420Y-14514650D01*
X8465420Y-14533698D02*
X8474944Y-14524174D01*
X8474944Y-14524174D02*
X8493991Y-14514650D01*
X8493991Y-14514650D02*
X8522563Y-14514650D01*
X8522563Y-14514650D02*
X8541610Y-14524174D01*
X8541610Y-14524174D02*
X8551134Y-14543222D01*
X8551134Y-14543222D02*
X8551134Y-14647984D01*
X8551134Y-14543222D02*
X8560658Y-14524174D01*
X8560658Y-14524174D02*
X8579705Y-14514650D01*
X8579705Y-14514650D02*
X8608277Y-14514650D01*
X8608277Y-14514650D02*
X8627325Y-14524174D01*
X8627325Y-14524174D02*
X8636848Y-14543222D01*
X8636848Y-14543222D02*
X8636848Y-14647984D01*
X8732086Y-14647984D02*
X8732086Y-14514650D01*
X8732086Y-14533698D02*
X8741610Y-14524174D01*
X8741610Y-14524174D02*
X8760658Y-14514650D01*
X8760658Y-14514650D02*
X8789229Y-14514650D01*
X8789229Y-14514650D02*
X8808277Y-14524174D01*
X8808277Y-14524174D02*
X8817801Y-14543222D01*
X8817801Y-14543222D02*
X8817801Y-14647984D01*
X8817801Y-14543222D02*
X8827325Y-14524174D01*
X8827325Y-14524174D02*
X8846372Y-14514650D01*
X8846372Y-14514650D02*
X8874944Y-14514650D01*
X8874944Y-14514650D02*
X8893991Y-14524174D01*
X8893991Y-14524174D02*
X8903515Y-14543222D01*
X8903515Y-14543222D02*
X8903515Y-14647984D01*
X9293991Y-14438460D02*
X9122563Y-14695603D01*
X9551134Y-14447984D02*
X9570182Y-14447984D01*
X9570182Y-14447984D02*
X9589229Y-14457508D01*
X9589229Y-14457508D02*
X9598753Y-14467031D01*
X9598753Y-14467031D02*
X9608277Y-14486079D01*
X9608277Y-14486079D02*
X9617801Y-14524174D01*
X9617801Y-14524174D02*
X9617801Y-14571793D01*
X9617801Y-14571793D02*
X9608277Y-14609888D01*
X9608277Y-14609888D02*
X9598753Y-14628936D01*
X9598753Y-14628936D02*
X9589229Y-14638460D01*
X9589229Y-14638460D02*
X9570182Y-14647984D01*
X9570182Y-14647984D02*
X9551134Y-14647984D01*
X9551134Y-14647984D02*
X9532087Y-14638460D01*
X9532087Y-14638460D02*
X9522563Y-14628936D01*
X9522563Y-14628936D02*
X9513039Y-14609888D01*
X9513039Y-14609888D02*
X9503515Y-14571793D01*
X9503515Y-14571793D02*
X9503515Y-14524174D01*
X9503515Y-14524174D02*
X9513039Y-14486079D01*
X9513039Y-14486079D02*
X9522563Y-14467031D01*
X9522563Y-14467031D02*
X9532087Y-14457508D01*
X9532087Y-14457508D02*
X9551134Y-14447984D01*
X9703515Y-14628936D02*
X9713039Y-14638460D01*
X9713039Y-14638460D02*
X9703515Y-14647984D01*
X9703515Y-14647984D02*
X9693991Y-14638460D01*
X9693991Y-14638460D02*
X9703515Y-14628936D01*
X9703515Y-14628936D02*
X9703515Y-14647984D01*
X9836848Y-14447984D02*
X9855896Y-14447984D01*
X9855896Y-14447984D02*
X9874944Y-14457508D01*
X9874944Y-14457508D02*
X9884468Y-14467031D01*
X9884468Y-14467031D02*
X9893991Y-14486079D01*
X9893991Y-14486079D02*
X9903515Y-14524174D01*
X9903515Y-14524174D02*
X9903515Y-14571793D01*
X9903515Y-14571793D02*
X9893991Y-14609888D01*
X9893991Y-14609888D02*
X9884468Y-14628936D01*
X9884468Y-14628936D02*
X9874944Y-14638460D01*
X9874944Y-14638460D02*
X9855896Y-14647984D01*
X9855896Y-14647984D02*
X9836848Y-14647984D01*
X9836848Y-14647984D02*
X9817801Y-14638460D01*
X9817801Y-14638460D02*
X9808277Y-14628936D01*
X9808277Y-14628936D02*
X9798753Y-14609888D01*
X9798753Y-14609888D02*
X9789229Y-14571793D01*
X9789229Y-14571793D02*
X9789229Y-14524174D01*
X9789229Y-14524174D02*
X9798753Y-14486079D01*
X9798753Y-14486079D02*
X9808277Y-14467031D01*
X9808277Y-14467031D02*
X9817801Y-14457508D01*
X9817801Y-14457508D02*
X9836848Y-14447984D01*
X9970182Y-14447984D02*
X10093991Y-14447984D01*
X10093991Y-14447984D02*
X10027325Y-14524174D01*
X10027325Y-14524174D02*
X10055896Y-14524174D01*
X10055896Y-14524174D02*
X10074944Y-14533698D01*
X10074944Y-14533698D02*
X10084468Y-14543222D01*
X10084468Y-14543222D02*
X10093991Y-14562269D01*
X10093991Y-14562269D02*
X10093991Y-14609888D01*
X10093991Y-14609888D02*
X10084468Y-14628936D01*
X10084468Y-14628936D02*
X10074944Y-14638460D01*
X10074944Y-14638460D02*
X10055896Y-14647984D01*
X10055896Y-14647984D02*
X9998753Y-14647984D01*
X9998753Y-14647984D02*
X9979706Y-14638460D01*
X9979706Y-14638460D02*
X9970182Y-14628936D01*
X10284468Y-14647984D02*
X10170182Y-14647984D01*
X10227325Y-14647984D02*
X10227325Y-14447984D01*
X10227325Y-14447984D02*
X10208277Y-14476555D01*
X10208277Y-14476555D02*
X10189229Y-14495603D01*
X10189229Y-14495603D02*
X10170182Y-14505127D01*
X10465420Y-14447984D02*
X10370182Y-14447984D01*
X10370182Y-14447984D02*
X10360658Y-14543222D01*
X10360658Y-14543222D02*
X10370182Y-14533698D01*
X10370182Y-14533698D02*
X10389229Y-14524174D01*
X10389229Y-14524174D02*
X10436849Y-14524174D01*
X10436849Y-14524174D02*
X10455896Y-14533698D01*
X10455896Y-14533698D02*
X10465420Y-14543222D01*
X10465420Y-14543222D02*
X10474944Y-14562269D01*
X10474944Y-14562269D02*
X10474944Y-14609888D01*
X10474944Y-14609888D02*
X10465420Y-14628936D01*
X10465420Y-14628936D02*
X10455896Y-14638460D01*
X10455896Y-14638460D02*
X10436849Y-14647984D01*
X10436849Y-14647984D02*
X10389229Y-14647984D01*
X10389229Y-14647984D02*
X10370182Y-14638460D01*
X10370182Y-14638460D02*
X10360658Y-14628936D01*
X10551134Y-14447984D02*
X10551134Y-14486079D01*
X10627325Y-14447984D02*
X10627325Y-14486079D01*
X10922563Y-14724174D02*
X10913039Y-14714650D01*
X10913039Y-14714650D02*
X10893991Y-14686079D01*
X10893991Y-14686079D02*
X10884468Y-14667031D01*
X10884468Y-14667031D02*
X10874944Y-14638460D01*
X10874944Y-14638460D02*
X10865420Y-14590841D01*
X10865420Y-14590841D02*
X10865420Y-14552746D01*
X10865420Y-14552746D02*
X10874944Y-14505127D01*
X10874944Y-14505127D02*
X10884468Y-14476555D01*
X10884468Y-14476555D02*
X10893991Y-14457508D01*
X10893991Y-14457508D02*
X10913039Y-14428936D01*
X10913039Y-14428936D02*
X10922563Y-14419412D01*
X11103515Y-14647984D02*
X10989230Y-14647984D01*
X11046372Y-14647984D02*
X11046372Y-14447984D01*
X11046372Y-14447984D02*
X11027325Y-14476555D01*
X11027325Y-14476555D02*
X11008277Y-14495603D01*
X11008277Y-14495603D02*
X10989230Y-14505127D01*
X11274944Y-14447984D02*
X11236848Y-14447984D01*
X11236848Y-14447984D02*
X11217801Y-14457508D01*
X11217801Y-14457508D02*
X11208277Y-14467031D01*
X11208277Y-14467031D02*
X11189229Y-14495603D01*
X11189229Y-14495603D02*
X11179706Y-14533698D01*
X11179706Y-14533698D02*
X11179706Y-14609888D01*
X11179706Y-14609888D02*
X11189229Y-14628936D01*
X11189229Y-14628936D02*
X11198753Y-14638460D01*
X11198753Y-14638460D02*
X11217801Y-14647984D01*
X11217801Y-14647984D02*
X11255896Y-14647984D01*
X11255896Y-14647984D02*
X11274944Y-14638460D01*
X11274944Y-14638460D02*
X11284468Y-14628936D01*
X11284468Y-14628936D02*
X11293991Y-14609888D01*
X11293991Y-14609888D02*
X11293991Y-14562269D01*
X11293991Y-14562269D02*
X11284468Y-14543222D01*
X11284468Y-14543222D02*
X11274944Y-14533698D01*
X11274944Y-14533698D02*
X11255896Y-14524174D01*
X11255896Y-14524174D02*
X11217801Y-14524174D01*
X11217801Y-14524174D02*
X11198753Y-14533698D01*
X11198753Y-14533698D02*
X11189229Y-14543222D01*
X11189229Y-14543222D02*
X11179706Y-14562269D01*
X11532087Y-14647984D02*
X11532087Y-14447984D01*
X11617801Y-14647984D02*
X11617801Y-14543222D01*
X11617801Y-14543222D02*
X11608277Y-14524174D01*
X11608277Y-14524174D02*
X11589230Y-14514650D01*
X11589230Y-14514650D02*
X11560658Y-14514650D01*
X11560658Y-14514650D02*
X11541610Y-14524174D01*
X11541610Y-14524174D02*
X11532087Y-14533698D01*
X11741610Y-14647984D02*
X11722563Y-14638460D01*
X11722563Y-14638460D02*
X11713039Y-14628936D01*
X11713039Y-14628936D02*
X11703515Y-14609888D01*
X11703515Y-14609888D02*
X11703515Y-14552746D01*
X11703515Y-14552746D02*
X11713039Y-14533698D01*
X11713039Y-14533698D02*
X11722563Y-14524174D01*
X11722563Y-14524174D02*
X11741610Y-14514650D01*
X11741610Y-14514650D02*
X11770182Y-14514650D01*
X11770182Y-14514650D02*
X11789230Y-14524174D01*
X11789230Y-14524174D02*
X11798753Y-14533698D01*
X11798753Y-14533698D02*
X11808277Y-14552746D01*
X11808277Y-14552746D02*
X11808277Y-14609888D01*
X11808277Y-14609888D02*
X11798753Y-14628936D01*
X11798753Y-14628936D02*
X11789230Y-14638460D01*
X11789230Y-14638460D02*
X11770182Y-14647984D01*
X11770182Y-14647984D02*
X11741610Y-14647984D01*
X11922563Y-14647984D02*
X11903515Y-14638460D01*
X11903515Y-14638460D02*
X11893991Y-14619412D01*
X11893991Y-14619412D02*
X11893991Y-14447984D01*
X12074944Y-14638460D02*
X12055896Y-14647984D01*
X12055896Y-14647984D02*
X12017801Y-14647984D01*
X12017801Y-14647984D02*
X11998753Y-14638460D01*
X11998753Y-14638460D02*
X11989230Y-14619412D01*
X11989230Y-14619412D02*
X11989230Y-14543222D01*
X11989230Y-14543222D02*
X11998753Y-14524174D01*
X11998753Y-14524174D02*
X12017801Y-14514650D01*
X12017801Y-14514650D02*
X12055896Y-14514650D01*
X12055896Y-14514650D02*
X12074944Y-14524174D01*
X12074944Y-14524174D02*
X12084468Y-14543222D01*
X12084468Y-14543222D02*
X12084468Y-14562269D01*
X12084468Y-14562269D02*
X11989230Y-14581317D01*
X12160658Y-14638460D02*
X12179706Y-14647984D01*
X12179706Y-14647984D02*
X12217801Y-14647984D01*
X12217801Y-14647984D02*
X12236849Y-14638460D01*
X12236849Y-14638460D02*
X12246372Y-14619412D01*
X12246372Y-14619412D02*
X12246372Y-14609888D01*
X12246372Y-14609888D02*
X12236849Y-14590841D01*
X12236849Y-14590841D02*
X12217801Y-14581317D01*
X12217801Y-14581317D02*
X12189230Y-14581317D01*
X12189230Y-14581317D02*
X12170182Y-14571793D01*
X12170182Y-14571793D02*
X12160658Y-14552746D01*
X12160658Y-14552746D02*
X12160658Y-14543222D01*
X12160658Y-14543222D02*
X12170182Y-14524174D01*
X12170182Y-14524174D02*
X12189230Y-14514650D01*
X12189230Y-14514650D02*
X12217801Y-14514650D01*
X12217801Y-14514650D02*
X12236849Y-14524174D01*
X12313039Y-14724174D02*
X12322563Y-14714650D01*
X12322563Y-14714650D02*
X12341611Y-14686079D01*
X12341611Y-14686079D02*
X12351134Y-14667031D01*
X12351134Y-14667031D02*
X12360658Y-14638460D01*
X12360658Y-14638460D02*
X12370182Y-14590841D01*
X12370182Y-14590841D02*
X12370182Y-14552746D01*
X12370182Y-14552746D02*
X12360658Y-14505127D01*
X12360658Y-14505127D02*
X12351134Y-14476555D01*
X12351134Y-14476555D02*
X12341611Y-14457508D01*
X12341611Y-14457508D02*
X12322563Y-14428936D01*
X12322563Y-14428936D02*
X12313039Y-14419412D01*
D13*
X7297500Y-14770500D02*
X7297500Y-14870500D01*
X7247500Y-14820500D02*
X7347500Y-14820500D01*
D12*
X7713039Y-14911984D02*
X7598753Y-14911984D01*
X7655896Y-14911984D02*
X7655896Y-14711984D01*
X7655896Y-14711984D02*
X7636848Y-14740555D01*
X7636848Y-14740555D02*
X7617801Y-14759603D01*
X7617801Y-14759603D02*
X7598753Y-14769127D01*
X7798753Y-14892936D02*
X7808277Y-14902460D01*
X7808277Y-14902460D02*
X7798753Y-14911984D01*
X7798753Y-14911984D02*
X7789229Y-14902460D01*
X7789229Y-14902460D02*
X7798753Y-14892936D01*
X7798753Y-14892936D02*
X7798753Y-14911984D01*
X7932086Y-14711984D02*
X7951134Y-14711984D01*
X7951134Y-14711984D02*
X7970182Y-14721508D01*
X7970182Y-14721508D02*
X7979705Y-14731031D01*
X7979705Y-14731031D02*
X7989229Y-14750079D01*
X7989229Y-14750079D02*
X7998753Y-14788174D01*
X7998753Y-14788174D02*
X7998753Y-14835793D01*
X7998753Y-14835793D02*
X7989229Y-14873888D01*
X7989229Y-14873888D02*
X7979705Y-14892936D01*
X7979705Y-14892936D02*
X7970182Y-14902460D01*
X7970182Y-14902460D02*
X7951134Y-14911984D01*
X7951134Y-14911984D02*
X7932086Y-14911984D01*
X7932086Y-14911984D02*
X7913039Y-14902460D01*
X7913039Y-14902460D02*
X7903515Y-14892936D01*
X7903515Y-14892936D02*
X7893991Y-14873888D01*
X7893991Y-14873888D02*
X7884467Y-14835793D01*
X7884467Y-14835793D02*
X7884467Y-14788174D01*
X7884467Y-14788174D02*
X7893991Y-14750079D01*
X7893991Y-14750079D02*
X7903515Y-14731031D01*
X7903515Y-14731031D02*
X7913039Y-14721508D01*
X7913039Y-14721508D02*
X7932086Y-14711984D01*
X8122562Y-14711984D02*
X8141610Y-14711984D01*
X8141610Y-14711984D02*
X8160658Y-14721508D01*
X8160658Y-14721508D02*
X8170182Y-14731031D01*
X8170182Y-14731031D02*
X8179705Y-14750079D01*
X8179705Y-14750079D02*
X8189229Y-14788174D01*
X8189229Y-14788174D02*
X8189229Y-14835793D01*
X8189229Y-14835793D02*
X8179705Y-14873888D01*
X8179705Y-14873888D02*
X8170182Y-14892936D01*
X8170182Y-14892936D02*
X8160658Y-14902460D01*
X8160658Y-14902460D02*
X8141610Y-14911984D01*
X8141610Y-14911984D02*
X8122562Y-14911984D01*
X8122562Y-14911984D02*
X8103515Y-14902460D01*
X8103515Y-14902460D02*
X8093991Y-14892936D01*
X8093991Y-14892936D02*
X8084467Y-14873888D01*
X8084467Y-14873888D02*
X8074943Y-14835793D01*
X8074943Y-14835793D02*
X8074943Y-14788174D01*
X8074943Y-14788174D02*
X8084467Y-14750079D01*
X8084467Y-14750079D02*
X8093991Y-14731031D01*
X8093991Y-14731031D02*
X8103515Y-14721508D01*
X8103515Y-14721508D02*
X8122562Y-14711984D01*
X8313039Y-14711984D02*
X8332086Y-14711984D01*
X8332086Y-14711984D02*
X8351134Y-14721508D01*
X8351134Y-14721508D02*
X8360658Y-14731031D01*
X8360658Y-14731031D02*
X8370182Y-14750079D01*
X8370182Y-14750079D02*
X8379705Y-14788174D01*
X8379705Y-14788174D02*
X8379705Y-14835793D01*
X8379705Y-14835793D02*
X8370182Y-14873888D01*
X8370182Y-14873888D02*
X8360658Y-14892936D01*
X8360658Y-14892936D02*
X8351134Y-14902460D01*
X8351134Y-14902460D02*
X8332086Y-14911984D01*
X8332086Y-14911984D02*
X8313039Y-14911984D01*
X8313039Y-14911984D02*
X8293991Y-14902460D01*
X8293991Y-14902460D02*
X8284467Y-14892936D01*
X8284467Y-14892936D02*
X8274943Y-14873888D01*
X8274943Y-14873888D02*
X8265420Y-14835793D01*
X8265420Y-14835793D02*
X8265420Y-14788174D01*
X8265420Y-14788174D02*
X8274943Y-14750079D01*
X8274943Y-14750079D02*
X8284467Y-14731031D01*
X8284467Y-14731031D02*
X8293991Y-14721508D01*
X8293991Y-14721508D02*
X8313039Y-14711984D01*
X8465420Y-14911984D02*
X8465420Y-14778650D01*
X8465420Y-14797698D02*
X8474944Y-14788174D01*
X8474944Y-14788174D02*
X8493991Y-14778650D01*
X8493991Y-14778650D02*
X8522563Y-14778650D01*
X8522563Y-14778650D02*
X8541610Y-14788174D01*
X8541610Y-14788174D02*
X8551134Y-14807222D01*
X8551134Y-14807222D02*
X8551134Y-14911984D01*
X8551134Y-14807222D02*
X8560658Y-14788174D01*
X8560658Y-14788174D02*
X8579705Y-14778650D01*
X8579705Y-14778650D02*
X8608277Y-14778650D01*
X8608277Y-14778650D02*
X8627325Y-14788174D01*
X8627325Y-14788174D02*
X8636848Y-14807222D01*
X8636848Y-14807222D02*
X8636848Y-14911984D01*
X8732086Y-14911984D02*
X8732086Y-14778650D01*
X8732086Y-14797698D02*
X8741610Y-14788174D01*
X8741610Y-14788174D02*
X8760658Y-14778650D01*
X8760658Y-14778650D02*
X8789229Y-14778650D01*
X8789229Y-14778650D02*
X8808277Y-14788174D01*
X8808277Y-14788174D02*
X8817801Y-14807222D01*
X8817801Y-14807222D02*
X8817801Y-14911984D01*
X8817801Y-14807222D02*
X8827325Y-14788174D01*
X8827325Y-14788174D02*
X8846372Y-14778650D01*
X8846372Y-14778650D02*
X8874944Y-14778650D01*
X8874944Y-14778650D02*
X8893991Y-14788174D01*
X8893991Y-14788174D02*
X8903515Y-14807222D01*
X8903515Y-14807222D02*
X8903515Y-14911984D01*
X9293991Y-14702460D02*
X9122563Y-14959603D01*
X9551134Y-14711984D02*
X9570182Y-14711984D01*
X9570182Y-14711984D02*
X9589229Y-14721508D01*
X9589229Y-14721508D02*
X9598753Y-14731031D01*
X9598753Y-14731031D02*
X9608277Y-14750079D01*
X9608277Y-14750079D02*
X9617801Y-14788174D01*
X9617801Y-14788174D02*
X9617801Y-14835793D01*
X9617801Y-14835793D02*
X9608277Y-14873888D01*
X9608277Y-14873888D02*
X9598753Y-14892936D01*
X9598753Y-14892936D02*
X9589229Y-14902460D01*
X9589229Y-14902460D02*
X9570182Y-14911984D01*
X9570182Y-14911984D02*
X9551134Y-14911984D01*
X9551134Y-14911984D02*
X9532087Y-14902460D01*
X9532087Y-14902460D02*
X9522563Y-14892936D01*
X9522563Y-14892936D02*
X9513039Y-14873888D01*
X9513039Y-14873888D02*
X9503515Y-14835793D01*
X9503515Y-14835793D02*
X9503515Y-14788174D01*
X9503515Y-14788174D02*
X9513039Y-14750079D01*
X9513039Y-14750079D02*
X9522563Y-14731031D01*
X9522563Y-14731031D02*
X9532087Y-14721508D01*
X9532087Y-14721508D02*
X9551134Y-14711984D01*
X9703515Y-14892936D02*
X9713039Y-14902460D01*
X9713039Y-14902460D02*
X9703515Y-14911984D01*
X9703515Y-14911984D02*
X9693991Y-14902460D01*
X9693991Y-14902460D02*
X9703515Y-14892936D01*
X9703515Y-14892936D02*
X9703515Y-14911984D01*
X9836848Y-14711984D02*
X9855896Y-14711984D01*
X9855896Y-14711984D02*
X9874944Y-14721508D01*
X9874944Y-14721508D02*
X9884468Y-14731031D01*
X9884468Y-14731031D02*
X9893991Y-14750079D01*
X9893991Y-14750079D02*
X9903515Y-14788174D01*
X9903515Y-14788174D02*
X9903515Y-14835793D01*
X9903515Y-14835793D02*
X9893991Y-14873888D01*
X9893991Y-14873888D02*
X9884468Y-14892936D01*
X9884468Y-14892936D02*
X9874944Y-14902460D01*
X9874944Y-14902460D02*
X9855896Y-14911984D01*
X9855896Y-14911984D02*
X9836848Y-14911984D01*
X9836848Y-14911984D02*
X9817801Y-14902460D01*
X9817801Y-14902460D02*
X9808277Y-14892936D01*
X9808277Y-14892936D02*
X9798753Y-14873888D01*
X9798753Y-14873888D02*
X9789229Y-14835793D01*
X9789229Y-14835793D02*
X9789229Y-14788174D01*
X9789229Y-14788174D02*
X9798753Y-14750079D01*
X9798753Y-14750079D02*
X9808277Y-14731031D01*
X9808277Y-14731031D02*
X9817801Y-14721508D01*
X9817801Y-14721508D02*
X9836848Y-14711984D01*
X9970182Y-14711984D02*
X10093991Y-14711984D01*
X10093991Y-14711984D02*
X10027325Y-14788174D01*
X10027325Y-14788174D02*
X10055896Y-14788174D01*
X10055896Y-14788174D02*
X10074944Y-14797698D01*
X10074944Y-14797698D02*
X10084468Y-14807222D01*
X10084468Y-14807222D02*
X10093991Y-14826269D01*
X10093991Y-14826269D02*
X10093991Y-14873888D01*
X10093991Y-14873888D02*
X10084468Y-14892936D01*
X10084468Y-14892936D02*
X10074944Y-14902460D01*
X10074944Y-14902460D02*
X10055896Y-14911984D01*
X10055896Y-14911984D02*
X9998753Y-14911984D01*
X9998753Y-14911984D02*
X9979706Y-14902460D01*
X9979706Y-14902460D02*
X9970182Y-14892936D01*
X10189229Y-14911984D02*
X10227325Y-14911984D01*
X10227325Y-14911984D02*
X10246372Y-14902460D01*
X10246372Y-14902460D02*
X10255896Y-14892936D01*
X10255896Y-14892936D02*
X10274944Y-14864365D01*
X10274944Y-14864365D02*
X10284468Y-14826269D01*
X10284468Y-14826269D02*
X10284468Y-14750079D01*
X10284468Y-14750079D02*
X10274944Y-14731031D01*
X10274944Y-14731031D02*
X10265420Y-14721508D01*
X10265420Y-14721508D02*
X10246372Y-14711984D01*
X10246372Y-14711984D02*
X10208277Y-14711984D01*
X10208277Y-14711984D02*
X10189229Y-14721508D01*
X10189229Y-14721508D02*
X10179706Y-14731031D01*
X10179706Y-14731031D02*
X10170182Y-14750079D01*
X10170182Y-14750079D02*
X10170182Y-14797698D01*
X10170182Y-14797698D02*
X10179706Y-14816746D01*
X10179706Y-14816746D02*
X10189229Y-14826269D01*
X10189229Y-14826269D02*
X10208277Y-14835793D01*
X10208277Y-14835793D02*
X10246372Y-14835793D01*
X10246372Y-14835793D02*
X10265420Y-14826269D01*
X10265420Y-14826269D02*
X10274944Y-14816746D01*
X10274944Y-14816746D02*
X10284468Y-14797698D01*
X10455896Y-14778650D02*
X10455896Y-14911984D01*
X10408277Y-14702460D02*
X10360658Y-14845317D01*
X10360658Y-14845317D02*
X10484468Y-14845317D01*
X10551134Y-14711984D02*
X10551134Y-14750079D01*
X10627325Y-14711984D02*
X10627325Y-14750079D01*
X10922563Y-14988174D02*
X10913039Y-14978650D01*
X10913039Y-14978650D02*
X10893991Y-14950079D01*
X10893991Y-14950079D02*
X10884468Y-14931031D01*
X10884468Y-14931031D02*
X10874944Y-14902460D01*
X10874944Y-14902460D02*
X10865420Y-14854841D01*
X10865420Y-14854841D02*
X10865420Y-14816746D01*
X10865420Y-14816746D02*
X10874944Y-14769127D01*
X10874944Y-14769127D02*
X10884468Y-14740555D01*
X10884468Y-14740555D02*
X10893991Y-14721508D01*
X10893991Y-14721508D02*
X10913039Y-14692936D01*
X10913039Y-14692936D02*
X10922563Y-14683412D01*
X11103515Y-14911984D02*
X10989230Y-14911984D01*
X11046372Y-14911984D02*
X11046372Y-14711984D01*
X11046372Y-14711984D02*
X11027325Y-14740555D01*
X11027325Y-14740555D02*
X11008277Y-14759603D01*
X11008277Y-14759603D02*
X10989230Y-14769127D01*
X11217801Y-14797698D02*
X11198753Y-14788174D01*
X11198753Y-14788174D02*
X11189229Y-14778650D01*
X11189229Y-14778650D02*
X11179706Y-14759603D01*
X11179706Y-14759603D02*
X11179706Y-14750079D01*
X11179706Y-14750079D02*
X11189229Y-14731031D01*
X11189229Y-14731031D02*
X11198753Y-14721508D01*
X11198753Y-14721508D02*
X11217801Y-14711984D01*
X11217801Y-14711984D02*
X11255896Y-14711984D01*
X11255896Y-14711984D02*
X11274944Y-14721508D01*
X11274944Y-14721508D02*
X11284468Y-14731031D01*
X11284468Y-14731031D02*
X11293991Y-14750079D01*
X11293991Y-14750079D02*
X11293991Y-14759603D01*
X11293991Y-14759603D02*
X11284468Y-14778650D01*
X11284468Y-14778650D02*
X11274944Y-14788174D01*
X11274944Y-14788174D02*
X11255896Y-14797698D01*
X11255896Y-14797698D02*
X11217801Y-14797698D01*
X11217801Y-14797698D02*
X11198753Y-14807222D01*
X11198753Y-14807222D02*
X11189229Y-14816746D01*
X11189229Y-14816746D02*
X11179706Y-14835793D01*
X11179706Y-14835793D02*
X11179706Y-14873888D01*
X11179706Y-14873888D02*
X11189229Y-14892936D01*
X11189229Y-14892936D02*
X11198753Y-14902460D01*
X11198753Y-14902460D02*
X11217801Y-14911984D01*
X11217801Y-14911984D02*
X11255896Y-14911984D01*
X11255896Y-14911984D02*
X11274944Y-14902460D01*
X11274944Y-14902460D02*
X11284468Y-14892936D01*
X11284468Y-14892936D02*
X11293991Y-14873888D01*
X11293991Y-14873888D02*
X11293991Y-14835793D01*
X11293991Y-14835793D02*
X11284468Y-14816746D01*
X11284468Y-14816746D02*
X11274944Y-14807222D01*
X11274944Y-14807222D02*
X11255896Y-14797698D01*
X11532087Y-14911984D02*
X11532087Y-14711984D01*
X11617801Y-14911984D02*
X11617801Y-14807222D01*
X11617801Y-14807222D02*
X11608277Y-14788174D01*
X11608277Y-14788174D02*
X11589230Y-14778650D01*
X11589230Y-14778650D02*
X11560658Y-14778650D01*
X11560658Y-14778650D02*
X11541610Y-14788174D01*
X11541610Y-14788174D02*
X11532087Y-14797698D01*
X11741610Y-14911984D02*
X11722563Y-14902460D01*
X11722563Y-14902460D02*
X11713039Y-14892936D01*
X11713039Y-14892936D02*
X11703515Y-14873888D01*
X11703515Y-14873888D02*
X11703515Y-14816746D01*
X11703515Y-14816746D02*
X11713039Y-14797698D01*
X11713039Y-14797698D02*
X11722563Y-14788174D01*
X11722563Y-14788174D02*
X11741610Y-14778650D01*
X11741610Y-14778650D02*
X11770182Y-14778650D01*
X11770182Y-14778650D02*
X11789230Y-14788174D01*
X11789230Y-14788174D02*
X11798753Y-14797698D01*
X11798753Y-14797698D02*
X11808277Y-14816746D01*
X11808277Y-14816746D02*
X11808277Y-14873888D01*
X11808277Y-14873888D02*
X11798753Y-14892936D01*
X11798753Y-14892936D02*
X11789230Y-14902460D01*
X11789230Y-14902460D02*
X11770182Y-14911984D01*
X11770182Y-14911984D02*
X11741610Y-14911984D01*
X11922563Y-14911984D02*
X11903515Y-14902460D01*
X11903515Y-14902460D02*
X11893991Y-14883412D01*
X11893991Y-14883412D02*
X11893991Y-14711984D01*
X12074944Y-14902460D02*
X12055896Y-14911984D01*
X12055896Y-14911984D02*
X12017801Y-14911984D01*
X12017801Y-14911984D02*
X11998753Y-14902460D01*
X11998753Y-14902460D02*
X11989230Y-14883412D01*
X11989230Y-14883412D02*
X11989230Y-14807222D01*
X11989230Y-14807222D02*
X11998753Y-14788174D01*
X11998753Y-14788174D02*
X12017801Y-14778650D01*
X12017801Y-14778650D02*
X12055896Y-14778650D01*
X12055896Y-14778650D02*
X12074944Y-14788174D01*
X12074944Y-14788174D02*
X12084468Y-14807222D01*
X12084468Y-14807222D02*
X12084468Y-14826269D01*
X12084468Y-14826269D02*
X11989230Y-14845317D01*
X12160658Y-14902460D02*
X12179706Y-14911984D01*
X12179706Y-14911984D02*
X12217801Y-14911984D01*
X12217801Y-14911984D02*
X12236849Y-14902460D01*
X12236849Y-14902460D02*
X12246372Y-14883412D01*
X12246372Y-14883412D02*
X12246372Y-14873888D01*
X12246372Y-14873888D02*
X12236849Y-14854841D01*
X12236849Y-14854841D02*
X12217801Y-14845317D01*
X12217801Y-14845317D02*
X12189230Y-14845317D01*
X12189230Y-14845317D02*
X12170182Y-14835793D01*
X12170182Y-14835793D02*
X12160658Y-14816746D01*
X12160658Y-14816746D02*
X12160658Y-14807222D01*
X12160658Y-14807222D02*
X12170182Y-14788174D01*
X12170182Y-14788174D02*
X12189230Y-14778650D01*
X12189230Y-14778650D02*
X12217801Y-14778650D01*
X12217801Y-14778650D02*
X12236849Y-14788174D01*
X12313039Y-14988174D02*
X12322563Y-14978650D01*
X12322563Y-14978650D02*
X12341611Y-14950079D01*
X12341611Y-14950079D02*
X12351134Y-14931031D01*
X12351134Y-14931031D02*
X12360658Y-14902460D01*
X12360658Y-14902460D02*
X12370182Y-14854841D01*
X12370182Y-14854841D02*
X12370182Y-14816746D01*
X12370182Y-14816746D02*
X12360658Y-14769127D01*
X12360658Y-14769127D02*
X12351134Y-14740555D01*
X12351134Y-14740555D02*
X12341611Y-14721508D01*
X12341611Y-14721508D02*
X12322563Y-14692936D01*
X12322563Y-14692936D02*
X12313039Y-14683412D01*
D14*
X7325533Y-15137533D02*
X7325533Y-15031466D01*
X7219466Y-15031466D01*
X7219466Y-15137533D01*
X7325533Y-15137533D01*
D12*
X7713039Y-15175984D02*
X7598753Y-15175984D01*
X7655896Y-15175984D02*
X7655896Y-14975984D01*
X7655896Y-14975984D02*
X7636848Y-15004555D01*
X7636848Y-15004555D02*
X7617801Y-15023603D01*
X7617801Y-15023603D02*
X7598753Y-15033127D01*
X7798753Y-15156936D02*
X7808277Y-15166460D01*
X7808277Y-15166460D02*
X7798753Y-15175984D01*
X7798753Y-15175984D02*
X7789229Y-15166460D01*
X7789229Y-15166460D02*
X7798753Y-15156936D01*
X7798753Y-15156936D02*
X7798753Y-15175984D01*
X7989229Y-14975984D02*
X7893991Y-14975984D01*
X7893991Y-14975984D02*
X7884467Y-15071222D01*
X7884467Y-15071222D02*
X7893991Y-15061698D01*
X7893991Y-15061698D02*
X7913039Y-15052174D01*
X7913039Y-15052174D02*
X7960658Y-15052174D01*
X7960658Y-15052174D02*
X7979705Y-15061698D01*
X7979705Y-15061698D02*
X7989229Y-15071222D01*
X7989229Y-15071222D02*
X7998753Y-15090269D01*
X7998753Y-15090269D02*
X7998753Y-15137888D01*
X7998753Y-15137888D02*
X7989229Y-15156936D01*
X7989229Y-15156936D02*
X7979705Y-15166460D01*
X7979705Y-15166460D02*
X7960658Y-15175984D01*
X7960658Y-15175984D02*
X7913039Y-15175984D01*
X7913039Y-15175984D02*
X7893991Y-15166460D01*
X7893991Y-15166460D02*
X7884467Y-15156936D01*
X8122562Y-14975984D02*
X8141610Y-14975984D01*
X8141610Y-14975984D02*
X8160658Y-14985508D01*
X8160658Y-14985508D02*
X8170182Y-14995031D01*
X8170182Y-14995031D02*
X8179705Y-15014079D01*
X8179705Y-15014079D02*
X8189229Y-15052174D01*
X8189229Y-15052174D02*
X8189229Y-15099793D01*
X8189229Y-15099793D02*
X8179705Y-15137888D01*
X8179705Y-15137888D02*
X8170182Y-15156936D01*
X8170182Y-15156936D02*
X8160658Y-15166460D01*
X8160658Y-15166460D02*
X8141610Y-15175984D01*
X8141610Y-15175984D02*
X8122562Y-15175984D01*
X8122562Y-15175984D02*
X8103515Y-15166460D01*
X8103515Y-15166460D02*
X8093991Y-15156936D01*
X8093991Y-15156936D02*
X8084467Y-15137888D01*
X8084467Y-15137888D02*
X8074943Y-15099793D01*
X8074943Y-15099793D02*
X8074943Y-15052174D01*
X8074943Y-15052174D02*
X8084467Y-15014079D01*
X8084467Y-15014079D02*
X8093991Y-14995031D01*
X8093991Y-14995031D02*
X8103515Y-14985508D01*
X8103515Y-14985508D02*
X8122562Y-14975984D01*
X8313039Y-14975984D02*
X8332086Y-14975984D01*
X8332086Y-14975984D02*
X8351134Y-14985508D01*
X8351134Y-14985508D02*
X8360658Y-14995031D01*
X8360658Y-14995031D02*
X8370182Y-15014079D01*
X8370182Y-15014079D02*
X8379705Y-15052174D01*
X8379705Y-15052174D02*
X8379705Y-15099793D01*
X8379705Y-15099793D02*
X8370182Y-15137888D01*
X8370182Y-15137888D02*
X8360658Y-15156936D01*
X8360658Y-15156936D02*
X8351134Y-15166460D01*
X8351134Y-15166460D02*
X8332086Y-15175984D01*
X8332086Y-15175984D02*
X8313039Y-15175984D01*
X8313039Y-15175984D02*
X8293991Y-15166460D01*
X8293991Y-15166460D02*
X8284467Y-15156936D01*
X8284467Y-15156936D02*
X8274943Y-15137888D01*
X8274943Y-15137888D02*
X8265420Y-15099793D01*
X8265420Y-15099793D02*
X8265420Y-15052174D01*
X8265420Y-15052174D02*
X8274943Y-15014079D01*
X8274943Y-15014079D02*
X8284467Y-14995031D01*
X8284467Y-14995031D02*
X8293991Y-14985508D01*
X8293991Y-14985508D02*
X8313039Y-14975984D01*
X8465420Y-15175984D02*
X8465420Y-15042650D01*
X8465420Y-15061698D02*
X8474944Y-15052174D01*
X8474944Y-15052174D02*
X8493991Y-15042650D01*
X8493991Y-15042650D02*
X8522563Y-15042650D01*
X8522563Y-15042650D02*
X8541610Y-15052174D01*
X8541610Y-15052174D02*
X8551134Y-15071222D01*
X8551134Y-15071222D02*
X8551134Y-15175984D01*
X8551134Y-15071222D02*
X8560658Y-15052174D01*
X8560658Y-15052174D02*
X8579705Y-15042650D01*
X8579705Y-15042650D02*
X8608277Y-15042650D01*
X8608277Y-15042650D02*
X8627325Y-15052174D01*
X8627325Y-15052174D02*
X8636848Y-15071222D01*
X8636848Y-15071222D02*
X8636848Y-15175984D01*
X8732086Y-15175984D02*
X8732086Y-15042650D01*
X8732086Y-15061698D02*
X8741610Y-15052174D01*
X8741610Y-15052174D02*
X8760658Y-15042650D01*
X8760658Y-15042650D02*
X8789229Y-15042650D01*
X8789229Y-15042650D02*
X8808277Y-15052174D01*
X8808277Y-15052174D02*
X8817801Y-15071222D01*
X8817801Y-15071222D02*
X8817801Y-15175984D01*
X8817801Y-15071222D02*
X8827325Y-15052174D01*
X8827325Y-15052174D02*
X8846372Y-15042650D01*
X8846372Y-15042650D02*
X8874944Y-15042650D01*
X8874944Y-15042650D02*
X8893991Y-15052174D01*
X8893991Y-15052174D02*
X8903515Y-15071222D01*
X8903515Y-15071222D02*
X8903515Y-15175984D01*
X9293991Y-14966460D02*
X9122563Y-15223603D01*
X9551134Y-14975984D02*
X9570182Y-14975984D01*
X9570182Y-14975984D02*
X9589229Y-14985508D01*
X9589229Y-14985508D02*
X9598753Y-14995031D01*
X9598753Y-14995031D02*
X9608277Y-15014079D01*
X9608277Y-15014079D02*
X9617801Y-15052174D01*
X9617801Y-15052174D02*
X9617801Y-15099793D01*
X9617801Y-15099793D02*
X9608277Y-15137888D01*
X9608277Y-15137888D02*
X9598753Y-15156936D01*
X9598753Y-15156936D02*
X9589229Y-15166460D01*
X9589229Y-15166460D02*
X9570182Y-15175984D01*
X9570182Y-15175984D02*
X9551134Y-15175984D01*
X9551134Y-15175984D02*
X9532087Y-15166460D01*
X9532087Y-15166460D02*
X9522563Y-15156936D01*
X9522563Y-15156936D02*
X9513039Y-15137888D01*
X9513039Y-15137888D02*
X9503515Y-15099793D01*
X9503515Y-15099793D02*
X9503515Y-15052174D01*
X9503515Y-15052174D02*
X9513039Y-15014079D01*
X9513039Y-15014079D02*
X9522563Y-14995031D01*
X9522563Y-14995031D02*
X9532087Y-14985508D01*
X9532087Y-14985508D02*
X9551134Y-14975984D01*
X9703515Y-15156936D02*
X9713039Y-15166460D01*
X9713039Y-15166460D02*
X9703515Y-15175984D01*
X9703515Y-15175984D02*
X9693991Y-15166460D01*
X9693991Y-15166460D02*
X9703515Y-15156936D01*
X9703515Y-15156936D02*
X9703515Y-15175984D01*
X9836848Y-14975984D02*
X9855896Y-14975984D01*
X9855896Y-14975984D02*
X9874944Y-14985508D01*
X9874944Y-14985508D02*
X9884468Y-14995031D01*
X9884468Y-14995031D02*
X9893991Y-15014079D01*
X9893991Y-15014079D02*
X9903515Y-15052174D01*
X9903515Y-15052174D02*
X9903515Y-15099793D01*
X9903515Y-15099793D02*
X9893991Y-15137888D01*
X9893991Y-15137888D02*
X9884468Y-15156936D01*
X9884468Y-15156936D02*
X9874944Y-15166460D01*
X9874944Y-15166460D02*
X9855896Y-15175984D01*
X9855896Y-15175984D02*
X9836848Y-15175984D01*
X9836848Y-15175984D02*
X9817801Y-15166460D01*
X9817801Y-15166460D02*
X9808277Y-15156936D01*
X9808277Y-15156936D02*
X9798753Y-15137888D01*
X9798753Y-15137888D02*
X9789229Y-15099793D01*
X9789229Y-15099793D02*
X9789229Y-15052174D01*
X9789229Y-15052174D02*
X9798753Y-15014079D01*
X9798753Y-15014079D02*
X9808277Y-14995031D01*
X9808277Y-14995031D02*
X9817801Y-14985508D01*
X9817801Y-14985508D02*
X9836848Y-14975984D01*
X10084468Y-14975984D02*
X9989229Y-14975984D01*
X9989229Y-14975984D02*
X9979706Y-15071222D01*
X9979706Y-15071222D02*
X9989229Y-15061698D01*
X9989229Y-15061698D02*
X10008277Y-15052174D01*
X10008277Y-15052174D02*
X10055896Y-15052174D01*
X10055896Y-15052174D02*
X10074944Y-15061698D01*
X10074944Y-15061698D02*
X10084468Y-15071222D01*
X10084468Y-15071222D02*
X10093991Y-15090269D01*
X10093991Y-15090269D02*
X10093991Y-15137888D01*
X10093991Y-15137888D02*
X10084468Y-15156936D01*
X10084468Y-15156936D02*
X10074944Y-15166460D01*
X10074944Y-15166460D02*
X10055896Y-15175984D01*
X10055896Y-15175984D02*
X10008277Y-15175984D01*
X10008277Y-15175984D02*
X9989229Y-15166460D01*
X9989229Y-15166460D02*
X9979706Y-15156936D01*
X10189229Y-15175984D02*
X10227325Y-15175984D01*
X10227325Y-15175984D02*
X10246372Y-15166460D01*
X10246372Y-15166460D02*
X10255896Y-15156936D01*
X10255896Y-15156936D02*
X10274944Y-15128365D01*
X10274944Y-15128365D02*
X10284468Y-15090269D01*
X10284468Y-15090269D02*
X10284468Y-15014079D01*
X10284468Y-15014079D02*
X10274944Y-14995031D01*
X10274944Y-14995031D02*
X10265420Y-14985508D01*
X10265420Y-14985508D02*
X10246372Y-14975984D01*
X10246372Y-14975984D02*
X10208277Y-14975984D01*
X10208277Y-14975984D02*
X10189229Y-14985508D01*
X10189229Y-14985508D02*
X10179706Y-14995031D01*
X10179706Y-14995031D02*
X10170182Y-15014079D01*
X10170182Y-15014079D02*
X10170182Y-15061698D01*
X10170182Y-15061698D02*
X10179706Y-15080746D01*
X10179706Y-15080746D02*
X10189229Y-15090269D01*
X10189229Y-15090269D02*
X10208277Y-15099793D01*
X10208277Y-15099793D02*
X10246372Y-15099793D01*
X10246372Y-15099793D02*
X10265420Y-15090269D01*
X10265420Y-15090269D02*
X10274944Y-15080746D01*
X10274944Y-15080746D02*
X10284468Y-15061698D01*
X10474944Y-15175984D02*
X10360658Y-15175984D01*
X10417801Y-15175984D02*
X10417801Y-14975984D01*
X10417801Y-14975984D02*
X10398753Y-15004555D01*
X10398753Y-15004555D02*
X10379706Y-15023603D01*
X10379706Y-15023603D02*
X10360658Y-15033127D01*
X10551134Y-14975984D02*
X10551134Y-15014079D01*
X10627325Y-14975984D02*
X10627325Y-15014079D01*
X10922563Y-15252174D02*
X10913039Y-15242650D01*
X10913039Y-15242650D02*
X10893991Y-15214079D01*
X10893991Y-15214079D02*
X10884468Y-15195031D01*
X10884468Y-15195031D02*
X10874944Y-15166460D01*
X10874944Y-15166460D02*
X10865420Y-15118841D01*
X10865420Y-15118841D02*
X10865420Y-15080746D01*
X10865420Y-15080746D02*
X10874944Y-15033127D01*
X10874944Y-15033127D02*
X10884468Y-15004555D01*
X10884468Y-15004555D02*
X10893991Y-14985508D01*
X10893991Y-14985508D02*
X10913039Y-14956936D01*
X10913039Y-14956936D02*
X10922563Y-14947412D01*
X11103515Y-15175984D02*
X10989230Y-15175984D01*
X11046372Y-15175984D02*
X11046372Y-14975984D01*
X11046372Y-14975984D02*
X11027325Y-15004555D01*
X11027325Y-15004555D02*
X11008277Y-15023603D01*
X11008277Y-15023603D02*
X10989230Y-15033127D01*
X11274944Y-14975984D02*
X11236848Y-14975984D01*
X11236848Y-14975984D02*
X11217801Y-14985508D01*
X11217801Y-14985508D02*
X11208277Y-14995031D01*
X11208277Y-14995031D02*
X11189229Y-15023603D01*
X11189229Y-15023603D02*
X11179706Y-15061698D01*
X11179706Y-15061698D02*
X11179706Y-15137888D01*
X11179706Y-15137888D02*
X11189229Y-15156936D01*
X11189229Y-15156936D02*
X11198753Y-15166460D01*
X11198753Y-15166460D02*
X11217801Y-15175984D01*
X11217801Y-15175984D02*
X11255896Y-15175984D01*
X11255896Y-15175984D02*
X11274944Y-15166460D01*
X11274944Y-15166460D02*
X11284468Y-15156936D01*
X11284468Y-15156936D02*
X11293991Y-15137888D01*
X11293991Y-15137888D02*
X11293991Y-15090269D01*
X11293991Y-15090269D02*
X11284468Y-15071222D01*
X11284468Y-15071222D02*
X11274944Y-15061698D01*
X11274944Y-15061698D02*
X11255896Y-15052174D01*
X11255896Y-15052174D02*
X11217801Y-15052174D01*
X11217801Y-15052174D02*
X11198753Y-15061698D01*
X11198753Y-15061698D02*
X11189229Y-15071222D01*
X11189229Y-15071222D02*
X11179706Y-15090269D01*
X11532087Y-15175984D02*
X11532087Y-14975984D01*
X11617801Y-15175984D02*
X11617801Y-15071222D01*
X11617801Y-15071222D02*
X11608277Y-15052174D01*
X11608277Y-15052174D02*
X11589230Y-15042650D01*
X11589230Y-15042650D02*
X11560658Y-15042650D01*
X11560658Y-15042650D02*
X11541610Y-15052174D01*
X11541610Y-15052174D02*
X11532087Y-15061698D01*
X11741610Y-15175984D02*
X11722563Y-15166460D01*
X11722563Y-15166460D02*
X11713039Y-15156936D01*
X11713039Y-15156936D02*
X11703515Y-15137888D01*
X11703515Y-15137888D02*
X11703515Y-15080746D01*
X11703515Y-15080746D02*
X11713039Y-15061698D01*
X11713039Y-15061698D02*
X11722563Y-15052174D01*
X11722563Y-15052174D02*
X11741610Y-15042650D01*
X11741610Y-15042650D02*
X11770182Y-15042650D01*
X11770182Y-15042650D02*
X11789230Y-15052174D01*
X11789230Y-15052174D02*
X11798753Y-15061698D01*
X11798753Y-15061698D02*
X11808277Y-15080746D01*
X11808277Y-15080746D02*
X11808277Y-15137888D01*
X11808277Y-15137888D02*
X11798753Y-15156936D01*
X11798753Y-15156936D02*
X11789230Y-15166460D01*
X11789230Y-15166460D02*
X11770182Y-15175984D01*
X11770182Y-15175984D02*
X11741610Y-15175984D01*
X11922563Y-15175984D02*
X11903515Y-15166460D01*
X11903515Y-15166460D02*
X11893991Y-15147412D01*
X11893991Y-15147412D02*
X11893991Y-14975984D01*
X12074944Y-15166460D02*
X12055896Y-15175984D01*
X12055896Y-15175984D02*
X12017801Y-15175984D01*
X12017801Y-15175984D02*
X11998753Y-15166460D01*
X11998753Y-15166460D02*
X11989230Y-15147412D01*
X11989230Y-15147412D02*
X11989230Y-15071222D01*
X11989230Y-15071222D02*
X11998753Y-15052174D01*
X11998753Y-15052174D02*
X12017801Y-15042650D01*
X12017801Y-15042650D02*
X12055896Y-15042650D01*
X12055896Y-15042650D02*
X12074944Y-15052174D01*
X12074944Y-15052174D02*
X12084468Y-15071222D01*
X12084468Y-15071222D02*
X12084468Y-15090269D01*
X12084468Y-15090269D02*
X11989230Y-15109317D01*
X12160658Y-15166460D02*
X12179706Y-15175984D01*
X12179706Y-15175984D02*
X12217801Y-15175984D01*
X12217801Y-15175984D02*
X12236849Y-15166460D01*
X12236849Y-15166460D02*
X12246372Y-15147412D01*
X12246372Y-15147412D02*
X12246372Y-15137888D01*
X12246372Y-15137888D02*
X12236849Y-15118841D01*
X12236849Y-15118841D02*
X12217801Y-15109317D01*
X12217801Y-15109317D02*
X12189230Y-15109317D01*
X12189230Y-15109317D02*
X12170182Y-15099793D01*
X12170182Y-15099793D02*
X12160658Y-15080746D01*
X12160658Y-15080746D02*
X12160658Y-15071222D01*
X12160658Y-15071222D02*
X12170182Y-15052174D01*
X12170182Y-15052174D02*
X12189230Y-15042650D01*
X12189230Y-15042650D02*
X12217801Y-15042650D01*
X12217801Y-15042650D02*
X12236849Y-15052174D01*
X12313039Y-15252174D02*
X12322563Y-15242650D01*
X12322563Y-15242650D02*
X12341611Y-15214079D01*
X12341611Y-15214079D02*
X12351134Y-15195031D01*
X12351134Y-15195031D02*
X12360658Y-15166460D01*
X12360658Y-15166460D02*
X12370182Y-15118841D01*
X12370182Y-15118841D02*
X12370182Y-15080746D01*
X12370182Y-15080746D02*
X12360658Y-15033127D01*
X12360658Y-15033127D02*
X12351134Y-15004555D01*
X12351134Y-15004555D02*
X12341611Y-14985508D01*
X12341611Y-14985508D02*
X12322563Y-14956936D01*
X12322563Y-14956936D02*
X12313039Y-14947412D01*
M02*
