G04 #@! TF.GenerationSoftware,KiCad,Pcbnew,9.0.7*
G04 #@! TF.CreationDate,2026-02-20T22:20:20+11:00*
G04 #@! TF.ProjectId,oled-v2,6f6c6564-2d76-4322-9e6b-696361645f70,rev?*
G04 #@! TF.SameCoordinates,Original*
G04 #@! TF.FileFunction,Legend,Top*
G04 #@! TF.FilePolarity,Positive*
%FSLAX46Y46*%
G04 Gerber Fmt 4.6, Leading zero omitted, Abs format (unit mm)*
G04 Created by KiCad (PCBNEW 9.0.7) date 2026-02-20 22:20:20*
%MOMM*%
%LPD*%
G01*
G04 APERTURE LIST*
G04 Aperture macros list*
%AMRoundRect*
0 Rectangle with rounded corners*
0 $1 Rounding radius*
0 $2 $3 $4 $5 $6 $7 $8 $9 X,Y pos of 4 corners*
0 Add a 4 corners polygon primitive as box body*
4,1,4,$2,$3,$4,$5,$6,$7,$8,$9,$2,$3,0*
0 Add four circle primitives for the rounded corners*
1,1,$1+$1,$2,$3*
1,1,$1+$1,$4,$5*
1,1,$1+$1,$6,$7*
1,1,$1+$1,$8,$9*
0 Add four rect primitives between the rounded corners*
20,1,$1+$1,$2,$3,$4,$5,0*
20,1,$1+$1,$4,$5,$6,$7,0*
20,1,$1+$1,$6,$7,$8,$9,0*
20,1,$1+$1,$8,$9,$2,$3,0*%
G04 Aperture macros list end*
%ADD10C,0.150000*%
%ADD11C,0.100000*%
%ADD12C,0.120000*%
%ADD13R,1.600000X1.600000*%
%ADD14O,1.600000X1.600000*%
%ADD15C,1.700000*%
%ADD16C,4.000000*%
%ADD17C,2.200000*%
%ADD18RoundRect,0.205000X-0.495000X-0.205000X0.495000X-0.205000X0.495000X0.205000X-0.495000X0.205000X0*%
%ADD19R,1.700000X1.700000*%
%ADD20O,1.700000X1.700000*%
%ADD21R,3.500000X1.700000*%
%ADD22O,3.600000X1.700000*%
%ADD23O,3.700000X1.700000*%
G04 APERTURE END LIST*
D10*
X102238095Y-55533200D02*
X102380952Y-55580819D01*
X102380952Y-55580819D02*
X102619047Y-55580819D01*
X102619047Y-55580819D02*
X102714285Y-55533200D01*
X102714285Y-55533200D02*
X102761904Y-55485580D01*
X102761904Y-55485580D02*
X102809523Y-55390342D01*
X102809523Y-55390342D02*
X102809523Y-55295104D01*
X102809523Y-55295104D02*
X102761904Y-55199866D01*
X102761904Y-55199866D02*
X102714285Y-55152247D01*
X102714285Y-55152247D02*
X102619047Y-55104628D01*
X102619047Y-55104628D02*
X102428571Y-55057009D01*
X102428571Y-55057009D02*
X102333333Y-55009390D01*
X102333333Y-55009390D02*
X102285714Y-54961771D01*
X102285714Y-54961771D02*
X102238095Y-54866533D01*
X102238095Y-54866533D02*
X102238095Y-54771295D01*
X102238095Y-54771295D02*
X102285714Y-54676057D01*
X102285714Y-54676057D02*
X102333333Y-54628438D01*
X102333333Y-54628438D02*
X102428571Y-54580819D01*
X102428571Y-54580819D02*
X102666666Y-54580819D01*
X102666666Y-54580819D02*
X102809523Y-54628438D01*
X103190476Y-54676057D02*
X103238095Y-54628438D01*
X103238095Y-54628438D02*
X103333333Y-54580819D01*
X103333333Y-54580819D02*
X103571428Y-54580819D01*
X103571428Y-54580819D02*
X103666666Y-54628438D01*
X103666666Y-54628438D02*
X103714285Y-54676057D01*
X103714285Y-54676057D02*
X103761904Y-54771295D01*
X103761904Y-54771295D02*
X103761904Y-54866533D01*
X103761904Y-54866533D02*
X103714285Y-55009390D01*
X103714285Y-55009390D02*
X103142857Y-55580819D01*
X103142857Y-55580819D02*
X103761904Y-55580819D01*
X83238095Y-55533200D02*
X83380952Y-55580819D01*
X83380952Y-55580819D02*
X83619047Y-55580819D01*
X83619047Y-55580819D02*
X83714285Y-55533200D01*
X83714285Y-55533200D02*
X83761904Y-55485580D01*
X83761904Y-55485580D02*
X83809523Y-55390342D01*
X83809523Y-55390342D02*
X83809523Y-55295104D01*
X83809523Y-55295104D02*
X83761904Y-55199866D01*
X83761904Y-55199866D02*
X83714285Y-55152247D01*
X83714285Y-55152247D02*
X83619047Y-55104628D01*
X83619047Y-55104628D02*
X83428571Y-55057009D01*
X83428571Y-55057009D02*
X83333333Y-55009390D01*
X83333333Y-55009390D02*
X83285714Y-54961771D01*
X83285714Y-54961771D02*
X83238095Y-54866533D01*
X83238095Y-54866533D02*
X83238095Y-54771295D01*
X83238095Y-54771295D02*
X83285714Y-54676057D01*
X83285714Y-54676057D02*
X83333333Y-54628438D01*
X83333333Y-54628438D02*
X83428571Y-54580819D01*
X83428571Y-54580819D02*
X83666666Y-54580819D01*
X83666666Y-54580819D02*
X83809523Y-54628438D01*
X84761904Y-55580819D02*
X84190476Y-55580819D01*
X84476190Y-55580819D02*
X84476190Y-54580819D01*
X84476190Y-54580819D02*
X84380952Y-54723676D01*
X84380952Y-54723676D02*
X84285714Y-54818914D01*
X84285714Y-54818914D02*
X84190476Y-54866533D01*
X140238095Y-55533200D02*
X140380952Y-55580819D01*
X140380952Y-55580819D02*
X140619047Y-55580819D01*
X140619047Y-55580819D02*
X140714285Y-55533200D01*
X140714285Y-55533200D02*
X140761904Y-55485580D01*
X140761904Y-55485580D02*
X140809523Y-55390342D01*
X140809523Y-55390342D02*
X140809523Y-55295104D01*
X140809523Y-55295104D02*
X140761904Y-55199866D01*
X140761904Y-55199866D02*
X140714285Y-55152247D01*
X140714285Y-55152247D02*
X140619047Y-55104628D01*
X140619047Y-55104628D02*
X140428571Y-55057009D01*
X140428571Y-55057009D02*
X140333333Y-55009390D01*
X140333333Y-55009390D02*
X140285714Y-54961771D01*
X140285714Y-54961771D02*
X140238095Y-54866533D01*
X140238095Y-54866533D02*
X140238095Y-54771295D01*
X140238095Y-54771295D02*
X140285714Y-54676057D01*
X140285714Y-54676057D02*
X140333333Y-54628438D01*
X140333333Y-54628438D02*
X140428571Y-54580819D01*
X140428571Y-54580819D02*
X140666666Y-54580819D01*
X140666666Y-54580819D02*
X140809523Y-54628438D01*
X141666666Y-54914152D02*
X141666666Y-55580819D01*
X141428571Y-54533200D02*
X141190476Y-55247485D01*
X141190476Y-55247485D02*
X141809523Y-55247485D01*
X121238095Y-74533200D02*
X121380952Y-74580819D01*
X121380952Y-74580819D02*
X121619047Y-74580819D01*
X121619047Y-74580819D02*
X121714285Y-74533200D01*
X121714285Y-74533200D02*
X121761904Y-74485580D01*
X121761904Y-74485580D02*
X121809523Y-74390342D01*
X121809523Y-74390342D02*
X121809523Y-74295104D01*
X121809523Y-74295104D02*
X121761904Y-74199866D01*
X121761904Y-74199866D02*
X121714285Y-74152247D01*
X121714285Y-74152247D02*
X121619047Y-74104628D01*
X121619047Y-74104628D02*
X121428571Y-74057009D01*
X121428571Y-74057009D02*
X121333333Y-74009390D01*
X121333333Y-74009390D02*
X121285714Y-73961771D01*
X121285714Y-73961771D02*
X121238095Y-73866533D01*
X121238095Y-73866533D02*
X121238095Y-73771295D01*
X121238095Y-73771295D02*
X121285714Y-73676057D01*
X121285714Y-73676057D02*
X121333333Y-73628438D01*
X121333333Y-73628438D02*
X121428571Y-73580819D01*
X121428571Y-73580819D02*
X121666666Y-73580819D01*
X121666666Y-73580819D02*
X121809523Y-73628438D01*
X122142857Y-73580819D02*
X122809523Y-73580819D01*
X122809523Y-73580819D02*
X122380952Y-74580819D01*
X83238095Y-74533200D02*
X83380952Y-74580819D01*
X83380952Y-74580819D02*
X83619047Y-74580819D01*
X83619047Y-74580819D02*
X83714285Y-74533200D01*
X83714285Y-74533200D02*
X83761904Y-74485580D01*
X83761904Y-74485580D02*
X83809523Y-74390342D01*
X83809523Y-74390342D02*
X83809523Y-74295104D01*
X83809523Y-74295104D02*
X83761904Y-74199866D01*
X83761904Y-74199866D02*
X83714285Y-74152247D01*
X83714285Y-74152247D02*
X83619047Y-74104628D01*
X83619047Y-74104628D02*
X83428571Y-74057009D01*
X83428571Y-74057009D02*
X83333333Y-74009390D01*
X83333333Y-74009390D02*
X83285714Y-73961771D01*
X83285714Y-73961771D02*
X83238095Y-73866533D01*
X83238095Y-73866533D02*
X83238095Y-73771295D01*
X83238095Y-73771295D02*
X83285714Y-73676057D01*
X83285714Y-73676057D02*
X83333333Y-73628438D01*
X83333333Y-73628438D02*
X83428571Y-73580819D01*
X83428571Y-73580819D02*
X83666666Y-73580819D01*
X83666666Y-73580819D02*
X83809523Y-73628438D01*
X84714285Y-73580819D02*
X84238095Y-73580819D01*
X84238095Y-73580819D02*
X84190476Y-74057009D01*
X84190476Y-74057009D02*
X84238095Y-74009390D01*
X84238095Y-74009390D02*
X84333333Y-73961771D01*
X84333333Y-73961771D02*
X84571428Y-73961771D01*
X84571428Y-73961771D02*
X84666666Y-74009390D01*
X84666666Y-74009390D02*
X84714285Y-74057009D01*
X84714285Y-74057009D02*
X84761904Y-74152247D01*
X84761904Y-74152247D02*
X84761904Y-74390342D01*
X84761904Y-74390342D02*
X84714285Y-74485580D01*
X84714285Y-74485580D02*
X84666666Y-74533200D01*
X84666666Y-74533200D02*
X84571428Y-74580819D01*
X84571428Y-74580819D02*
X84333333Y-74580819D01*
X84333333Y-74580819D02*
X84238095Y-74533200D01*
X84238095Y-74533200D02*
X84190476Y-74485580D01*
X140238095Y-74533200D02*
X140380952Y-74580819D01*
X140380952Y-74580819D02*
X140619047Y-74580819D01*
X140619047Y-74580819D02*
X140714285Y-74533200D01*
X140714285Y-74533200D02*
X140761904Y-74485580D01*
X140761904Y-74485580D02*
X140809523Y-74390342D01*
X140809523Y-74390342D02*
X140809523Y-74295104D01*
X140809523Y-74295104D02*
X140761904Y-74199866D01*
X140761904Y-74199866D02*
X140714285Y-74152247D01*
X140714285Y-74152247D02*
X140619047Y-74104628D01*
X140619047Y-74104628D02*
X140428571Y-74057009D01*
X140428571Y-74057009D02*
X140333333Y-74009390D01*
X140333333Y-74009390D02*
X140285714Y-73961771D01*
X140285714Y-73961771D02*
X140238095Y-73866533D01*
X140238095Y-73866533D02*
X140238095Y-73771295D01*
X140238095Y-73771295D02*
X140285714Y-73676057D01*
X140285714Y-73676057D02*
X140333333Y-73628438D01*
X140333333Y-73628438D02*
X140428571Y-73580819D01*
X140428571Y-73580819D02*
X140666666Y-73580819D01*
X140666666Y-73580819D02*
X140809523Y-73628438D01*
X141380952Y-74009390D02*
X141285714Y-73961771D01*
X141285714Y-73961771D02*
X141238095Y-73914152D01*
X141238095Y-73914152D02*
X141190476Y-73818914D01*
X141190476Y-73818914D02*
X141190476Y-73771295D01*
X141190476Y-73771295D02*
X141238095Y-73676057D01*
X141238095Y-73676057D02*
X141285714Y-73628438D01*
X141285714Y-73628438D02*
X141380952Y-73580819D01*
X141380952Y-73580819D02*
X141571428Y-73580819D01*
X141571428Y-73580819D02*
X141666666Y-73628438D01*
X141666666Y-73628438D02*
X141714285Y-73676057D01*
X141714285Y-73676057D02*
X141761904Y-73771295D01*
X141761904Y-73771295D02*
X141761904Y-73818914D01*
X141761904Y-73818914D02*
X141714285Y-73914152D01*
X141714285Y-73914152D02*
X141666666Y-73961771D01*
X141666666Y-73961771D02*
X141571428Y-74009390D01*
X141571428Y-74009390D02*
X141380952Y-74009390D01*
X141380952Y-74009390D02*
X141285714Y-74057009D01*
X141285714Y-74057009D02*
X141238095Y-74104628D01*
X141238095Y-74104628D02*
X141190476Y-74199866D01*
X141190476Y-74199866D02*
X141190476Y-74390342D01*
X141190476Y-74390342D02*
X141238095Y-74485580D01*
X141238095Y-74485580D02*
X141285714Y-74533200D01*
X141285714Y-74533200D02*
X141380952Y-74580819D01*
X141380952Y-74580819D02*
X141571428Y-74580819D01*
X141571428Y-74580819D02*
X141666666Y-74533200D01*
X141666666Y-74533200D02*
X141714285Y-74485580D01*
X141714285Y-74485580D02*
X141761904Y-74390342D01*
X141761904Y-74390342D02*
X141761904Y-74199866D01*
X141761904Y-74199866D02*
X141714285Y-74104628D01*
X141714285Y-74104628D02*
X141666666Y-74057009D01*
X141666666Y-74057009D02*
X141571428Y-74009390D01*
X121238095Y-55533200D02*
X121380952Y-55580819D01*
X121380952Y-55580819D02*
X121619047Y-55580819D01*
X121619047Y-55580819D02*
X121714285Y-55533200D01*
X121714285Y-55533200D02*
X121761904Y-55485580D01*
X121761904Y-55485580D02*
X121809523Y-55390342D01*
X121809523Y-55390342D02*
X121809523Y-55295104D01*
X121809523Y-55295104D02*
X121761904Y-55199866D01*
X121761904Y-55199866D02*
X121714285Y-55152247D01*
X121714285Y-55152247D02*
X121619047Y-55104628D01*
X121619047Y-55104628D02*
X121428571Y-55057009D01*
X121428571Y-55057009D02*
X121333333Y-55009390D01*
X121333333Y-55009390D02*
X121285714Y-54961771D01*
X121285714Y-54961771D02*
X121238095Y-54866533D01*
X121238095Y-54866533D02*
X121238095Y-54771295D01*
X121238095Y-54771295D02*
X121285714Y-54676057D01*
X121285714Y-54676057D02*
X121333333Y-54628438D01*
X121333333Y-54628438D02*
X121428571Y-54580819D01*
X121428571Y-54580819D02*
X121666666Y-54580819D01*
X121666666Y-54580819D02*
X121809523Y-54628438D01*
X122142857Y-54580819D02*
X122761904Y-54580819D01*
X122761904Y-54580819D02*
X122428571Y-54961771D01*
X122428571Y-54961771D02*
X122571428Y-54961771D01*
X122571428Y-54961771D02*
X122666666Y-55009390D01*
X122666666Y-55009390D02*
X122714285Y-55057009D01*
X122714285Y-55057009D02*
X122761904Y-55152247D01*
X122761904Y-55152247D02*
X122761904Y-55390342D01*
X122761904Y-55390342D02*
X122714285Y-55485580D01*
X122714285Y-55485580D02*
X122666666Y-55533200D01*
X122666666Y-55533200D02*
X122571428Y-55580819D01*
X122571428Y-55580819D02*
X122285714Y-55580819D01*
X122285714Y-55580819D02*
X122190476Y-55533200D01*
X122190476Y-55533200D02*
X122142857Y-55485580D01*
X102238095Y-74533200D02*
X102380952Y-74580819D01*
X102380952Y-74580819D02*
X102619047Y-74580819D01*
X102619047Y-74580819D02*
X102714285Y-74533200D01*
X102714285Y-74533200D02*
X102761904Y-74485580D01*
X102761904Y-74485580D02*
X102809523Y-74390342D01*
X102809523Y-74390342D02*
X102809523Y-74295104D01*
X102809523Y-74295104D02*
X102761904Y-74199866D01*
X102761904Y-74199866D02*
X102714285Y-74152247D01*
X102714285Y-74152247D02*
X102619047Y-74104628D01*
X102619047Y-74104628D02*
X102428571Y-74057009D01*
X102428571Y-74057009D02*
X102333333Y-74009390D01*
X102333333Y-74009390D02*
X102285714Y-73961771D01*
X102285714Y-73961771D02*
X102238095Y-73866533D01*
X102238095Y-73866533D02*
X102238095Y-73771295D01*
X102238095Y-73771295D02*
X102285714Y-73676057D01*
X102285714Y-73676057D02*
X102333333Y-73628438D01*
X102333333Y-73628438D02*
X102428571Y-73580819D01*
X102428571Y-73580819D02*
X102666666Y-73580819D01*
X102666666Y-73580819D02*
X102809523Y-73628438D01*
X103666666Y-73580819D02*
X103476190Y-73580819D01*
X103476190Y-73580819D02*
X103380952Y-73628438D01*
X103380952Y-73628438D02*
X103333333Y-73676057D01*
X103333333Y-73676057D02*
X103238095Y-73818914D01*
X103238095Y-73818914D02*
X103190476Y-74009390D01*
X103190476Y-74009390D02*
X103190476Y-74390342D01*
X103190476Y-74390342D02*
X103238095Y-74485580D01*
X103238095Y-74485580D02*
X103285714Y-74533200D01*
X103285714Y-74533200D02*
X103380952Y-74580819D01*
X103380952Y-74580819D02*
X103571428Y-74580819D01*
X103571428Y-74580819D02*
X103666666Y-74533200D01*
X103666666Y-74533200D02*
X103714285Y-74485580D01*
X103714285Y-74485580D02*
X103761904Y-74390342D01*
X103761904Y-74390342D02*
X103761904Y-74152247D01*
X103761904Y-74152247D02*
X103714285Y-74057009D01*
X103714285Y-74057009D02*
X103666666Y-74009390D01*
X103666666Y-74009390D02*
X103571428Y-73961771D01*
X103571428Y-73961771D02*
X103380952Y-73961771D01*
X103380952Y-73961771D02*
X103285714Y-74009390D01*
X103285714Y-74009390D02*
X103238095Y-74057009D01*
X103238095Y-74057009D02*
X103190476Y-74152247D01*
D11*
X121750000Y-89600000D02*
X122350000Y-90000000D01*
X121750000Y-90000000D02*
X121250000Y-90000000D01*
X121750000Y-90400000D02*
X121750000Y-89600000D01*
X122350000Y-90000000D02*
X121750000Y-90400000D01*
X122350000Y-90550000D02*
X122350000Y-89450000D01*
X122750000Y-90000000D02*
X122350000Y-90000000D01*
D12*
X96015000Y-56015000D02*
X109985000Y-56015000D01*
X96015000Y-69985000D02*
X96015000Y-56015000D01*
X109985000Y-56015000D02*
X109985000Y-69985000D01*
X109985000Y-69985000D02*
X96015000Y-69985000D01*
D11*
X102750000Y-89600000D02*
X103350000Y-90000000D01*
X102750000Y-90000000D02*
X102250000Y-90000000D01*
X102750000Y-90400000D02*
X102750000Y-89600000D01*
X103350000Y-90000000D02*
X102750000Y-90400000D01*
X103350000Y-90550000D02*
X103350000Y-89450000D01*
X103750000Y-90000000D02*
X103350000Y-90000000D01*
X140750000Y-70600000D02*
X141350000Y-71000000D01*
X140750000Y-71000000D02*
X140250000Y-71000000D01*
X140750000Y-71400000D02*
X140750000Y-70600000D01*
X141350000Y-71000000D02*
X140750000Y-71400000D01*
X141350000Y-71550000D02*
X141350000Y-70450000D01*
X141750000Y-71000000D02*
X141350000Y-71000000D01*
D12*
X77015000Y-56015000D02*
X90985000Y-56015000D01*
X77015000Y-69985000D02*
X77015000Y-56015000D01*
X90985000Y-56015000D02*
X90985000Y-69985000D01*
X90985000Y-69985000D02*
X77015000Y-69985000D01*
D11*
X83750000Y-70600000D02*
X84350000Y-71000000D01*
X83750000Y-71000000D02*
X83250000Y-71000000D01*
X83750000Y-71400000D02*
X83750000Y-70600000D01*
X84350000Y-71000000D02*
X83750000Y-71400000D01*
X84350000Y-71550000D02*
X84350000Y-70450000D01*
X84750000Y-71000000D02*
X84350000Y-71000000D01*
D12*
X134015000Y-56015000D02*
X147985000Y-56015000D01*
X134015000Y-69985000D02*
X134015000Y-56015000D01*
X147985000Y-56015000D02*
X147985000Y-69985000D01*
X147985000Y-69985000D02*
X134015000Y-69985000D01*
X115015000Y-75015000D02*
X128985000Y-75015000D01*
X115015000Y-88985000D02*
X115015000Y-75015000D01*
X128985000Y-75015000D02*
X128985000Y-88985000D01*
X128985000Y-88985000D02*
X115015000Y-88985000D01*
X77015000Y-75015000D02*
X90985000Y-75015000D01*
X77015000Y-88985000D02*
X77015000Y-75015000D01*
X90985000Y-75015000D02*
X90985000Y-88985000D01*
X90985000Y-88985000D02*
X77015000Y-88985000D01*
D11*
X121750000Y-70600000D02*
X122350000Y-71000000D01*
X121750000Y-71000000D02*
X121250000Y-71000000D01*
X121750000Y-71400000D02*
X121750000Y-70600000D01*
X122350000Y-71000000D02*
X121750000Y-71400000D01*
X122350000Y-71550000D02*
X122350000Y-70450000D01*
X122750000Y-71000000D02*
X122350000Y-71000000D01*
X83750000Y-89600000D02*
X84350000Y-90000000D01*
X83750000Y-90000000D02*
X83250000Y-90000000D01*
X83750000Y-90400000D02*
X83750000Y-89600000D01*
X84350000Y-90000000D02*
X83750000Y-90400000D01*
X84350000Y-90550000D02*
X84350000Y-89450000D01*
X84750000Y-90000000D02*
X84350000Y-90000000D01*
X140750000Y-89600000D02*
X141350000Y-90000000D01*
X140750000Y-90000000D02*
X140250000Y-90000000D01*
X140750000Y-90400000D02*
X140750000Y-89600000D01*
X141350000Y-90000000D02*
X140750000Y-90400000D01*
X141350000Y-90550000D02*
X141350000Y-89450000D01*
X141750000Y-90000000D02*
X141350000Y-90000000D01*
D12*
X134015000Y-75015000D02*
X147985000Y-75015000D01*
X134015000Y-88985000D02*
X134015000Y-75015000D01*
X147985000Y-75015000D02*
X147985000Y-88985000D01*
X147985000Y-88985000D02*
X134015000Y-88985000D01*
X115015000Y-56015000D02*
X128985000Y-56015000D01*
X115015000Y-69985000D02*
X115015000Y-56015000D01*
X128985000Y-56015000D02*
X128985000Y-69985000D01*
X128985000Y-69985000D02*
X115015000Y-69985000D01*
D11*
X102750000Y-70600000D02*
X103350000Y-71000000D01*
X102750000Y-71000000D02*
X102250000Y-71000000D01*
X102750000Y-71400000D02*
X102750000Y-70600000D01*
X103350000Y-71000000D02*
X102750000Y-71400000D01*
X103350000Y-71550000D02*
X103350000Y-70450000D01*
X103750000Y-71000000D02*
X103350000Y-71000000D01*
D12*
X96015000Y-75015000D02*
X109985000Y-75015000D01*
X96015000Y-88985000D02*
X96015000Y-75015000D01*
X109985000Y-75015000D02*
X109985000Y-88985000D01*
X109985000Y-88985000D02*
X96015000Y-88985000D01*
%LPC*%
D13*
X125810000Y-90000000D03*
D14*
X118190000Y-90000000D03*
D15*
X97920000Y-63000000D03*
D16*
X103000000Y-63000000D03*
D15*
X108080000Y-63000000D03*
D17*
X105540000Y-57920000D03*
X99190000Y-60460000D03*
D13*
X106810000Y-90000000D03*
D14*
X99190000Y-90000000D03*
D13*
X144810000Y-71000000D03*
D14*
X137190000Y-71000000D03*
D18*
X124700000Y-54250000D03*
X124700000Y-55750000D03*
X119300000Y-55750000D03*
X119300000Y-54250000D03*
D15*
X78920000Y-63000000D03*
D16*
X84000000Y-63000000D03*
D15*
X89080000Y-63000000D03*
D17*
X86540000Y-57920000D03*
X80190000Y-60460000D03*
D13*
X87810000Y-71000000D03*
D14*
X80190000Y-71000000D03*
D18*
X143700000Y-54250000D03*
X143700000Y-55750000D03*
X138300000Y-55750000D03*
X138300000Y-54250000D03*
D19*
X72040000Y-89500000D03*
D20*
X69500000Y-89500000D03*
X66960000Y-89500000D03*
X64420000Y-89500000D03*
D15*
X135920000Y-63000000D03*
D16*
X141000000Y-63000000D03*
D15*
X146080000Y-63000000D03*
D17*
X143540000Y-57920000D03*
X137190000Y-60460000D03*
D15*
X116920000Y-82000000D03*
D16*
X122000000Y-82000000D03*
D15*
X127080000Y-82000000D03*
D17*
X124540000Y-76920000D03*
X118190000Y-79460000D03*
D15*
X78920000Y-82000000D03*
D16*
X84000000Y-82000000D03*
D15*
X89080000Y-82000000D03*
D17*
X86540000Y-76920000D03*
X80190000Y-79460000D03*
D13*
X125810000Y-71000000D03*
D14*
X118190000Y-71000000D03*
D13*
X87810000Y-90000000D03*
D14*
X80190000Y-90000000D03*
D13*
X144810000Y-90000000D03*
D14*
X137190000Y-90000000D03*
D18*
X105700000Y-73250000D03*
X105700000Y-74750000D03*
X100300000Y-74750000D03*
X100300000Y-73250000D03*
X86700000Y-73250000D03*
X86700000Y-74750000D03*
X81300000Y-74750000D03*
X81300000Y-73250000D03*
D15*
X135920000Y-82000000D03*
D16*
X141000000Y-82000000D03*
D15*
X146080000Y-82000000D03*
D17*
X143540000Y-76920000D03*
X137190000Y-79460000D03*
D18*
X124700000Y-73250000D03*
X124700000Y-74750000D03*
X119300000Y-74750000D03*
X119300000Y-73250000D03*
X105700000Y-54250000D03*
X105700000Y-55750000D03*
X100300000Y-55750000D03*
X100300000Y-54250000D03*
D15*
X116920000Y-63000000D03*
D16*
X122000000Y-63000000D03*
D15*
X127080000Y-63000000D03*
D17*
X124540000Y-57920000D03*
X118190000Y-60460000D03*
D13*
X106810000Y-71000000D03*
D14*
X99190000Y-71000000D03*
D18*
X143700000Y-73250000D03*
X143700000Y-74750000D03*
X138300000Y-74750000D03*
X138300000Y-73250000D03*
D15*
X97920000Y-82000000D03*
D16*
X103000000Y-82000000D03*
D15*
X108080000Y-82000000D03*
D17*
X105540000Y-76920000D03*
X99190000Y-79460000D03*
D18*
X86700000Y-54250000D03*
X86700000Y-55750000D03*
X81300000Y-55750000D03*
X81300000Y-54250000D03*
D21*
X131014500Y-56092015D03*
D22*
X131014500Y-58632015D03*
X131014500Y-61172015D03*
X131014500Y-63712015D03*
X131014500Y-66252015D03*
X131014500Y-68792015D03*
X131014500Y-71332015D03*
X113764500Y-71332015D03*
X113764500Y-68792015D03*
X113764500Y-66252015D03*
D23*
X113764500Y-63712015D03*
X113764500Y-61172015D03*
X113764500Y-58632015D03*
X113764500Y-56092015D03*
%LPD*%
M02*
