G04 #@! TF.GenerationSoftware,KiCad,Pcbnew,9.0.7*
G04 #@! TF.CreationDate,2026-02-26T22:03:25+11:00*
G04 #@! TF.ProjectId,oled-v2,6f6c6564-2d76-4322-9e6b-696361645f70,rev?*
G04 #@! TF.SameCoordinates,Original*
G04 #@! TF.FileFunction,Legend,Top*
G04 #@! TF.FilePolarity,Positive*
%FSLAX46Y46*%
G04 Gerber Fmt 4.6, Leading zero omitted, Abs format (unit mm)*
G04 Created by KiCad (PCBNEW 9.0.7) date 2026-02-26 22:03:25*
%MOMM*%
%LPD*%
G01*
G04 APERTURE LIST*
G04 Aperture macros list*
%AMRoundRect*
0 Rectangle with rounded corners*
0 $1 Rounding radius*
0 $2 $3 $4 $5 $6 $7 $8 $9 X,Y pos of 4 corners*
0 Add a 4 corners polygon primitive as box body*
4,1,4,$2,$3,$4,$5,$6,$7,$8,$9,$2,$3,0*
0 Add four circle primitives for the rounded corners*
1,1,$1+$1,$2,$3*
1,1,$1+$1,$4,$5*
1,1,$1+$1,$6,$7*
1,1,$1+$1,$8,$9*
0 Add four rect primitives between the rounded corners*
20,1,$1+$1,$2,$3,$4,$5,0*
20,1,$1+$1,$4,$5,$6,$7,0*
20,1,$1+$1,$6,$7,$8,$9,0*
20,1,$1+$1,$8,$9,$2,$3,0*%
G04 Aperture macros list end*
%ADD10C,0.150000*%
%ADD11C,0.100000*%
%ADD12C,0.120000*%
%ADD13RoundRect,0.205000X-0.495000X-0.205000X0.495000X-0.205000X0.495000X0.205000X-0.495000X0.205000X0*%
%ADD14R,1.700000X1.700000*%
%ADD15O,1.700000X1.700000*%
%ADD16R,1.600000X1.600000*%
%ADD17O,1.600000X1.600000*%
%ADD18C,1.700000*%
%ADD19C,4.000000*%
%ADD20C,2.200000*%
%ADD21R,3.500000X1.700000*%
%ADD22O,3.600000X1.700000*%
%ADD23O,3.700000X1.700000*%
G04 APERTURE END LIST*
D10*
X94738095Y-100533200D02*
X94880952Y-100580819D01*
X94880952Y-100580819D02*
X95119047Y-100580819D01*
X95119047Y-100580819D02*
X95214285Y-100533200D01*
X95214285Y-100533200D02*
X95261904Y-100485580D01*
X95261904Y-100485580D02*
X95309523Y-100390342D01*
X95309523Y-100390342D02*
X95309523Y-100295104D01*
X95309523Y-100295104D02*
X95261904Y-100199866D01*
X95261904Y-100199866D02*
X95214285Y-100152247D01*
X95214285Y-100152247D02*
X95119047Y-100104628D01*
X95119047Y-100104628D02*
X94928571Y-100057009D01*
X94928571Y-100057009D02*
X94833333Y-100009390D01*
X94833333Y-100009390D02*
X94785714Y-99961771D01*
X94785714Y-99961771D02*
X94738095Y-99866533D01*
X94738095Y-99866533D02*
X94738095Y-99771295D01*
X94738095Y-99771295D02*
X94785714Y-99676057D01*
X94785714Y-99676057D02*
X94833333Y-99628438D01*
X94833333Y-99628438D02*
X94928571Y-99580819D01*
X94928571Y-99580819D02*
X95166666Y-99580819D01*
X95166666Y-99580819D02*
X95309523Y-99628438D01*
X96261904Y-100580819D02*
X95690476Y-100580819D01*
X95976190Y-100580819D02*
X95976190Y-99580819D01*
X95976190Y-99580819D02*
X95880952Y-99723676D01*
X95880952Y-99723676D02*
X95785714Y-99818914D01*
X95785714Y-99818914D02*
X95690476Y-99866533D01*
X113738095Y-119533200D02*
X113880952Y-119580819D01*
X113880952Y-119580819D02*
X114119047Y-119580819D01*
X114119047Y-119580819D02*
X114214285Y-119533200D01*
X114214285Y-119533200D02*
X114261904Y-119485580D01*
X114261904Y-119485580D02*
X114309523Y-119390342D01*
X114309523Y-119390342D02*
X114309523Y-119295104D01*
X114309523Y-119295104D02*
X114261904Y-119199866D01*
X114261904Y-119199866D02*
X114214285Y-119152247D01*
X114214285Y-119152247D02*
X114119047Y-119104628D01*
X114119047Y-119104628D02*
X113928571Y-119057009D01*
X113928571Y-119057009D02*
X113833333Y-119009390D01*
X113833333Y-119009390D02*
X113785714Y-118961771D01*
X113785714Y-118961771D02*
X113738095Y-118866533D01*
X113738095Y-118866533D02*
X113738095Y-118771295D01*
X113738095Y-118771295D02*
X113785714Y-118676057D01*
X113785714Y-118676057D02*
X113833333Y-118628438D01*
X113833333Y-118628438D02*
X113928571Y-118580819D01*
X113928571Y-118580819D02*
X114166666Y-118580819D01*
X114166666Y-118580819D02*
X114309523Y-118628438D01*
X115166666Y-118580819D02*
X114976190Y-118580819D01*
X114976190Y-118580819D02*
X114880952Y-118628438D01*
X114880952Y-118628438D02*
X114833333Y-118676057D01*
X114833333Y-118676057D02*
X114738095Y-118818914D01*
X114738095Y-118818914D02*
X114690476Y-119009390D01*
X114690476Y-119009390D02*
X114690476Y-119390342D01*
X114690476Y-119390342D02*
X114738095Y-119485580D01*
X114738095Y-119485580D02*
X114785714Y-119533200D01*
X114785714Y-119533200D02*
X114880952Y-119580819D01*
X114880952Y-119580819D02*
X115071428Y-119580819D01*
X115071428Y-119580819D02*
X115166666Y-119533200D01*
X115166666Y-119533200D02*
X115214285Y-119485580D01*
X115214285Y-119485580D02*
X115261904Y-119390342D01*
X115261904Y-119390342D02*
X115261904Y-119152247D01*
X115261904Y-119152247D02*
X115214285Y-119057009D01*
X115214285Y-119057009D02*
X115166666Y-119009390D01*
X115166666Y-119009390D02*
X115071428Y-118961771D01*
X115071428Y-118961771D02*
X114880952Y-118961771D01*
X114880952Y-118961771D02*
X114785714Y-119009390D01*
X114785714Y-119009390D02*
X114738095Y-119057009D01*
X114738095Y-119057009D02*
X114690476Y-119152247D01*
X94738095Y-119533200D02*
X94880952Y-119580819D01*
X94880952Y-119580819D02*
X95119047Y-119580819D01*
X95119047Y-119580819D02*
X95214285Y-119533200D01*
X95214285Y-119533200D02*
X95261904Y-119485580D01*
X95261904Y-119485580D02*
X95309523Y-119390342D01*
X95309523Y-119390342D02*
X95309523Y-119295104D01*
X95309523Y-119295104D02*
X95261904Y-119199866D01*
X95261904Y-119199866D02*
X95214285Y-119152247D01*
X95214285Y-119152247D02*
X95119047Y-119104628D01*
X95119047Y-119104628D02*
X94928571Y-119057009D01*
X94928571Y-119057009D02*
X94833333Y-119009390D01*
X94833333Y-119009390D02*
X94785714Y-118961771D01*
X94785714Y-118961771D02*
X94738095Y-118866533D01*
X94738095Y-118866533D02*
X94738095Y-118771295D01*
X94738095Y-118771295D02*
X94785714Y-118676057D01*
X94785714Y-118676057D02*
X94833333Y-118628438D01*
X94833333Y-118628438D02*
X94928571Y-118580819D01*
X94928571Y-118580819D02*
X95166666Y-118580819D01*
X95166666Y-118580819D02*
X95309523Y-118628438D01*
X96214285Y-118580819D02*
X95738095Y-118580819D01*
X95738095Y-118580819D02*
X95690476Y-119057009D01*
X95690476Y-119057009D02*
X95738095Y-119009390D01*
X95738095Y-119009390D02*
X95833333Y-118961771D01*
X95833333Y-118961771D02*
X96071428Y-118961771D01*
X96071428Y-118961771D02*
X96166666Y-119009390D01*
X96166666Y-119009390D02*
X96214285Y-119057009D01*
X96214285Y-119057009D02*
X96261904Y-119152247D01*
X96261904Y-119152247D02*
X96261904Y-119390342D01*
X96261904Y-119390342D02*
X96214285Y-119485580D01*
X96214285Y-119485580D02*
X96166666Y-119533200D01*
X96166666Y-119533200D02*
X96071428Y-119580819D01*
X96071428Y-119580819D02*
X95833333Y-119580819D01*
X95833333Y-119580819D02*
X95738095Y-119533200D01*
X95738095Y-119533200D02*
X95690476Y-119485580D01*
X132738095Y-119533200D02*
X132880952Y-119580819D01*
X132880952Y-119580819D02*
X133119047Y-119580819D01*
X133119047Y-119580819D02*
X133214285Y-119533200D01*
X133214285Y-119533200D02*
X133261904Y-119485580D01*
X133261904Y-119485580D02*
X133309523Y-119390342D01*
X133309523Y-119390342D02*
X133309523Y-119295104D01*
X133309523Y-119295104D02*
X133261904Y-119199866D01*
X133261904Y-119199866D02*
X133214285Y-119152247D01*
X133214285Y-119152247D02*
X133119047Y-119104628D01*
X133119047Y-119104628D02*
X132928571Y-119057009D01*
X132928571Y-119057009D02*
X132833333Y-119009390D01*
X132833333Y-119009390D02*
X132785714Y-118961771D01*
X132785714Y-118961771D02*
X132738095Y-118866533D01*
X132738095Y-118866533D02*
X132738095Y-118771295D01*
X132738095Y-118771295D02*
X132785714Y-118676057D01*
X132785714Y-118676057D02*
X132833333Y-118628438D01*
X132833333Y-118628438D02*
X132928571Y-118580819D01*
X132928571Y-118580819D02*
X133166666Y-118580819D01*
X133166666Y-118580819D02*
X133309523Y-118628438D01*
X133642857Y-118580819D02*
X134309523Y-118580819D01*
X134309523Y-118580819D02*
X133880952Y-119580819D01*
X132738095Y-100533200D02*
X132880952Y-100580819D01*
X132880952Y-100580819D02*
X133119047Y-100580819D01*
X133119047Y-100580819D02*
X133214285Y-100533200D01*
X133214285Y-100533200D02*
X133261904Y-100485580D01*
X133261904Y-100485580D02*
X133309523Y-100390342D01*
X133309523Y-100390342D02*
X133309523Y-100295104D01*
X133309523Y-100295104D02*
X133261904Y-100199866D01*
X133261904Y-100199866D02*
X133214285Y-100152247D01*
X133214285Y-100152247D02*
X133119047Y-100104628D01*
X133119047Y-100104628D02*
X132928571Y-100057009D01*
X132928571Y-100057009D02*
X132833333Y-100009390D01*
X132833333Y-100009390D02*
X132785714Y-99961771D01*
X132785714Y-99961771D02*
X132738095Y-99866533D01*
X132738095Y-99866533D02*
X132738095Y-99771295D01*
X132738095Y-99771295D02*
X132785714Y-99676057D01*
X132785714Y-99676057D02*
X132833333Y-99628438D01*
X132833333Y-99628438D02*
X132928571Y-99580819D01*
X132928571Y-99580819D02*
X133166666Y-99580819D01*
X133166666Y-99580819D02*
X133309523Y-99628438D01*
X133642857Y-99580819D02*
X134261904Y-99580819D01*
X134261904Y-99580819D02*
X133928571Y-99961771D01*
X133928571Y-99961771D02*
X134071428Y-99961771D01*
X134071428Y-99961771D02*
X134166666Y-100009390D01*
X134166666Y-100009390D02*
X134214285Y-100057009D01*
X134214285Y-100057009D02*
X134261904Y-100152247D01*
X134261904Y-100152247D02*
X134261904Y-100390342D01*
X134261904Y-100390342D02*
X134214285Y-100485580D01*
X134214285Y-100485580D02*
X134166666Y-100533200D01*
X134166666Y-100533200D02*
X134071428Y-100580819D01*
X134071428Y-100580819D02*
X133785714Y-100580819D01*
X133785714Y-100580819D02*
X133690476Y-100533200D01*
X133690476Y-100533200D02*
X133642857Y-100485580D01*
X151738095Y-119533200D02*
X151880952Y-119580819D01*
X151880952Y-119580819D02*
X152119047Y-119580819D01*
X152119047Y-119580819D02*
X152214285Y-119533200D01*
X152214285Y-119533200D02*
X152261904Y-119485580D01*
X152261904Y-119485580D02*
X152309523Y-119390342D01*
X152309523Y-119390342D02*
X152309523Y-119295104D01*
X152309523Y-119295104D02*
X152261904Y-119199866D01*
X152261904Y-119199866D02*
X152214285Y-119152247D01*
X152214285Y-119152247D02*
X152119047Y-119104628D01*
X152119047Y-119104628D02*
X151928571Y-119057009D01*
X151928571Y-119057009D02*
X151833333Y-119009390D01*
X151833333Y-119009390D02*
X151785714Y-118961771D01*
X151785714Y-118961771D02*
X151738095Y-118866533D01*
X151738095Y-118866533D02*
X151738095Y-118771295D01*
X151738095Y-118771295D02*
X151785714Y-118676057D01*
X151785714Y-118676057D02*
X151833333Y-118628438D01*
X151833333Y-118628438D02*
X151928571Y-118580819D01*
X151928571Y-118580819D02*
X152166666Y-118580819D01*
X152166666Y-118580819D02*
X152309523Y-118628438D01*
X152880952Y-119009390D02*
X152785714Y-118961771D01*
X152785714Y-118961771D02*
X152738095Y-118914152D01*
X152738095Y-118914152D02*
X152690476Y-118818914D01*
X152690476Y-118818914D02*
X152690476Y-118771295D01*
X152690476Y-118771295D02*
X152738095Y-118676057D01*
X152738095Y-118676057D02*
X152785714Y-118628438D01*
X152785714Y-118628438D02*
X152880952Y-118580819D01*
X152880952Y-118580819D02*
X153071428Y-118580819D01*
X153071428Y-118580819D02*
X153166666Y-118628438D01*
X153166666Y-118628438D02*
X153214285Y-118676057D01*
X153214285Y-118676057D02*
X153261904Y-118771295D01*
X153261904Y-118771295D02*
X153261904Y-118818914D01*
X153261904Y-118818914D02*
X153214285Y-118914152D01*
X153214285Y-118914152D02*
X153166666Y-118961771D01*
X153166666Y-118961771D02*
X153071428Y-119009390D01*
X153071428Y-119009390D02*
X152880952Y-119009390D01*
X152880952Y-119009390D02*
X152785714Y-119057009D01*
X152785714Y-119057009D02*
X152738095Y-119104628D01*
X152738095Y-119104628D02*
X152690476Y-119199866D01*
X152690476Y-119199866D02*
X152690476Y-119390342D01*
X152690476Y-119390342D02*
X152738095Y-119485580D01*
X152738095Y-119485580D02*
X152785714Y-119533200D01*
X152785714Y-119533200D02*
X152880952Y-119580819D01*
X152880952Y-119580819D02*
X153071428Y-119580819D01*
X153071428Y-119580819D02*
X153166666Y-119533200D01*
X153166666Y-119533200D02*
X153214285Y-119485580D01*
X153214285Y-119485580D02*
X153261904Y-119390342D01*
X153261904Y-119390342D02*
X153261904Y-119199866D01*
X153261904Y-119199866D02*
X153214285Y-119104628D01*
X153214285Y-119104628D02*
X153166666Y-119057009D01*
X153166666Y-119057009D02*
X153071428Y-119009390D01*
X151738095Y-100533200D02*
X151880952Y-100580819D01*
X151880952Y-100580819D02*
X152119047Y-100580819D01*
X152119047Y-100580819D02*
X152214285Y-100533200D01*
X152214285Y-100533200D02*
X152261904Y-100485580D01*
X152261904Y-100485580D02*
X152309523Y-100390342D01*
X152309523Y-100390342D02*
X152309523Y-100295104D01*
X152309523Y-100295104D02*
X152261904Y-100199866D01*
X152261904Y-100199866D02*
X152214285Y-100152247D01*
X152214285Y-100152247D02*
X152119047Y-100104628D01*
X152119047Y-100104628D02*
X151928571Y-100057009D01*
X151928571Y-100057009D02*
X151833333Y-100009390D01*
X151833333Y-100009390D02*
X151785714Y-99961771D01*
X151785714Y-99961771D02*
X151738095Y-99866533D01*
X151738095Y-99866533D02*
X151738095Y-99771295D01*
X151738095Y-99771295D02*
X151785714Y-99676057D01*
X151785714Y-99676057D02*
X151833333Y-99628438D01*
X151833333Y-99628438D02*
X151928571Y-99580819D01*
X151928571Y-99580819D02*
X152166666Y-99580819D01*
X152166666Y-99580819D02*
X152309523Y-99628438D01*
X153166666Y-99914152D02*
X153166666Y-100580819D01*
X152928571Y-99533200D02*
X152690476Y-100247485D01*
X152690476Y-100247485D02*
X153309523Y-100247485D01*
X113738095Y-100533200D02*
X113880952Y-100580819D01*
X113880952Y-100580819D02*
X114119047Y-100580819D01*
X114119047Y-100580819D02*
X114214285Y-100533200D01*
X114214285Y-100533200D02*
X114261904Y-100485580D01*
X114261904Y-100485580D02*
X114309523Y-100390342D01*
X114309523Y-100390342D02*
X114309523Y-100295104D01*
X114309523Y-100295104D02*
X114261904Y-100199866D01*
X114261904Y-100199866D02*
X114214285Y-100152247D01*
X114214285Y-100152247D02*
X114119047Y-100104628D01*
X114119047Y-100104628D02*
X113928571Y-100057009D01*
X113928571Y-100057009D02*
X113833333Y-100009390D01*
X113833333Y-100009390D02*
X113785714Y-99961771D01*
X113785714Y-99961771D02*
X113738095Y-99866533D01*
X113738095Y-99866533D02*
X113738095Y-99771295D01*
X113738095Y-99771295D02*
X113785714Y-99676057D01*
X113785714Y-99676057D02*
X113833333Y-99628438D01*
X113833333Y-99628438D02*
X113928571Y-99580819D01*
X113928571Y-99580819D02*
X114166666Y-99580819D01*
X114166666Y-99580819D02*
X114309523Y-99628438D01*
X114690476Y-99676057D02*
X114738095Y-99628438D01*
X114738095Y-99628438D02*
X114833333Y-99580819D01*
X114833333Y-99580819D02*
X115071428Y-99580819D01*
X115071428Y-99580819D02*
X115166666Y-99628438D01*
X115166666Y-99628438D02*
X115214285Y-99676057D01*
X115214285Y-99676057D02*
X115261904Y-99771295D01*
X115261904Y-99771295D02*
X115261904Y-99866533D01*
X115261904Y-99866533D02*
X115214285Y-100009390D01*
X115214285Y-100009390D02*
X114642857Y-100580819D01*
X114642857Y-100580819D02*
X115261904Y-100580819D01*
D11*
X114250000Y-115600000D02*
X114850000Y-116000000D01*
X114250000Y-116000000D02*
X113750000Y-116000000D01*
X114250000Y-116400000D02*
X114250000Y-115600000D01*
X114850000Y-116000000D02*
X114250000Y-116400000D01*
X114850000Y-116550000D02*
X114850000Y-115450000D01*
X115250000Y-116000000D02*
X114850000Y-116000000D01*
D12*
X88515000Y-101015000D02*
X102485000Y-101015000D01*
X88515000Y-114985000D02*
X88515000Y-101015000D01*
X102485000Y-101015000D02*
X102485000Y-114985000D01*
X102485000Y-114985000D02*
X88515000Y-114985000D01*
D11*
X133250000Y-115600000D02*
X133850000Y-116000000D01*
X133250000Y-116000000D02*
X132750000Y-116000000D01*
X133250000Y-116400000D02*
X133250000Y-115600000D01*
X133850000Y-116000000D02*
X133250000Y-116400000D01*
X133850000Y-116550000D02*
X133850000Y-115450000D01*
X134250000Y-116000000D02*
X133850000Y-116000000D01*
X133250000Y-134600000D02*
X133850000Y-135000000D01*
X133250000Y-135000000D02*
X132750000Y-135000000D01*
X133250000Y-135400000D02*
X133250000Y-134600000D01*
X133850000Y-135000000D02*
X133250000Y-135400000D01*
X133850000Y-135550000D02*
X133850000Y-134450000D01*
X134250000Y-135000000D02*
X133850000Y-135000000D01*
D12*
X107515000Y-120015000D02*
X121485000Y-120015000D01*
X107515000Y-133985000D02*
X107515000Y-120015000D01*
X121485000Y-120015000D02*
X121485000Y-133985000D01*
X121485000Y-133985000D02*
X107515000Y-133985000D01*
X88515000Y-120015000D02*
X102485000Y-120015000D01*
X88515000Y-133985000D02*
X88515000Y-120015000D01*
X102485000Y-120015000D02*
X102485000Y-133985000D01*
X102485000Y-133985000D02*
X88515000Y-133985000D01*
D11*
X95250000Y-134600000D02*
X95850000Y-135000000D01*
X95250000Y-135000000D02*
X94750000Y-135000000D01*
X95250000Y-135400000D02*
X95250000Y-134600000D01*
X95850000Y-135000000D02*
X95250000Y-135400000D01*
X95850000Y-135550000D02*
X95850000Y-134450000D01*
X96250000Y-135000000D02*
X95850000Y-135000000D01*
D12*
X126515000Y-120015000D02*
X140485000Y-120015000D01*
X126515000Y-133985000D02*
X126515000Y-120015000D01*
X140485000Y-120015000D02*
X140485000Y-133985000D01*
X140485000Y-133985000D02*
X126515000Y-133985000D01*
D11*
X114250000Y-134600000D02*
X114850000Y-135000000D01*
X114250000Y-135000000D02*
X113750000Y-135000000D01*
X114250000Y-135400000D02*
X114250000Y-134600000D01*
X114850000Y-135000000D02*
X114250000Y-135400000D01*
X114850000Y-135550000D02*
X114850000Y-134450000D01*
X115250000Y-135000000D02*
X114850000Y-135000000D01*
D12*
X126515000Y-101015000D02*
X140485000Y-101015000D01*
X126515000Y-114985000D02*
X126515000Y-101015000D01*
X140485000Y-101015000D02*
X140485000Y-114985000D01*
X140485000Y-114985000D02*
X126515000Y-114985000D01*
D11*
X152250000Y-115600000D02*
X152850000Y-116000000D01*
X152250000Y-116000000D02*
X151750000Y-116000000D01*
X152250000Y-116400000D02*
X152250000Y-115600000D01*
X152850000Y-116000000D02*
X152250000Y-116400000D01*
X152850000Y-116550000D02*
X152850000Y-115450000D01*
X153250000Y-116000000D02*
X152850000Y-116000000D01*
D12*
X145515000Y-120015000D02*
X159485000Y-120015000D01*
X145515000Y-133985000D02*
X145515000Y-120015000D01*
X159485000Y-120015000D02*
X159485000Y-133985000D01*
X159485000Y-133985000D02*
X145515000Y-133985000D01*
D11*
X152250000Y-134600000D02*
X152850000Y-135000000D01*
X152250000Y-135000000D02*
X151750000Y-135000000D01*
X152250000Y-135400000D02*
X152250000Y-134600000D01*
X152850000Y-135000000D02*
X152250000Y-135400000D01*
X152850000Y-135550000D02*
X152850000Y-134450000D01*
X153250000Y-135000000D02*
X152850000Y-135000000D01*
D12*
X145515000Y-101015000D02*
X159485000Y-101015000D01*
X145515000Y-114985000D02*
X145515000Y-101015000D01*
X159485000Y-101015000D02*
X159485000Y-114985000D01*
X159485000Y-114985000D02*
X145515000Y-114985000D01*
D11*
X95250000Y-115600000D02*
X95850000Y-116000000D01*
X95250000Y-116000000D02*
X94750000Y-116000000D01*
X95250000Y-116400000D02*
X95250000Y-115600000D01*
X95850000Y-116000000D02*
X95250000Y-116400000D01*
X95850000Y-116550000D02*
X95850000Y-115450000D01*
X96250000Y-116000000D02*
X95850000Y-116000000D01*
D12*
X107515000Y-101015000D02*
X121485000Y-101015000D01*
X107515000Y-114985000D02*
X107515000Y-101015000D01*
X121485000Y-101015000D02*
X121485000Y-114985000D01*
X121485000Y-114985000D02*
X107515000Y-114985000D01*
%LPC*%
D13*
X98200000Y-99250000D03*
X98200000Y-100750000D03*
X92800000Y-100750000D03*
X92800000Y-99250000D03*
D14*
X83540000Y-134500000D03*
D15*
X81000000Y-134500000D03*
X78460000Y-134500000D03*
X75920000Y-134500000D03*
D16*
X118310000Y-116000000D03*
D17*
X110690000Y-116000000D03*
D13*
X136200000Y-118250000D03*
X136200000Y-119750000D03*
X130800000Y-119750000D03*
X130800000Y-118250000D03*
D18*
X90420000Y-108000000D03*
D19*
X95500000Y-108000000D03*
D18*
X100580000Y-108000000D03*
D20*
X98040000Y-102920000D03*
X91690000Y-105460000D03*
D16*
X137310000Y-116000000D03*
D17*
X129690000Y-116000000D03*
D16*
X137310000Y-135000000D03*
D17*
X129690000Y-135000000D03*
D13*
X155200000Y-99250000D03*
X155200000Y-100750000D03*
X149800000Y-100750000D03*
X149800000Y-99250000D03*
D18*
X109420000Y-127000000D03*
D19*
X114500000Y-127000000D03*
D18*
X119580000Y-127000000D03*
D20*
X117040000Y-121920000D03*
X110690000Y-124460000D03*
D13*
X117200000Y-118250000D03*
X117200000Y-119750000D03*
X111800000Y-119750000D03*
X111800000Y-118250000D03*
D18*
X90420000Y-127000000D03*
D19*
X95500000Y-127000000D03*
D18*
X100580000Y-127000000D03*
D20*
X98040000Y-121920000D03*
X91690000Y-124460000D03*
D13*
X117200000Y-99250000D03*
X117200000Y-100750000D03*
X111800000Y-100750000D03*
X111800000Y-99250000D03*
D16*
X99310000Y-135000000D03*
D17*
X91690000Y-135000000D03*
D18*
X128420000Y-127000000D03*
D19*
X133500000Y-127000000D03*
D18*
X138580000Y-127000000D03*
D20*
X136040000Y-121920000D03*
X129690000Y-124460000D03*
D16*
X118310000Y-135000000D03*
D17*
X110690000Y-135000000D03*
D18*
X128420000Y-108000000D03*
D19*
X133500000Y-108000000D03*
D18*
X138580000Y-108000000D03*
D20*
X136040000Y-102920000D03*
X129690000Y-105460000D03*
D16*
X156310000Y-116000000D03*
D17*
X148690000Y-116000000D03*
D13*
X136200000Y-99250000D03*
X136200000Y-100750000D03*
X130800000Y-100750000D03*
X130800000Y-99250000D03*
X155200000Y-118250000D03*
X155200000Y-119750000D03*
X149800000Y-119750000D03*
X149800000Y-118250000D03*
D18*
X147420000Y-127000000D03*
D19*
X152500000Y-127000000D03*
D18*
X157580000Y-127000000D03*
D20*
X155040000Y-121920000D03*
X148690000Y-124460000D03*
D16*
X156310000Y-135000000D03*
D17*
X148690000Y-135000000D03*
D18*
X147420000Y-108000000D03*
D19*
X152500000Y-108000000D03*
D18*
X157580000Y-108000000D03*
D20*
X155040000Y-102920000D03*
X148690000Y-105460000D03*
D16*
X99310000Y-116000000D03*
D17*
X91690000Y-116000000D03*
D18*
X109420000Y-108000000D03*
D19*
X114500000Y-108000000D03*
D18*
X119580000Y-108000000D03*
D20*
X117040000Y-102920000D03*
X110690000Y-105460000D03*
D13*
X98200000Y-118250000D03*
X98200000Y-119750000D03*
X92800000Y-119750000D03*
X92800000Y-118250000D03*
D21*
X142514500Y-101092015D03*
D22*
X142514500Y-103632015D03*
X142514500Y-106172015D03*
X142514500Y-108712015D03*
X142514500Y-111252015D03*
X142514500Y-113792015D03*
X142514500Y-116332015D03*
X125264500Y-116332015D03*
X125264500Y-113792015D03*
X125264500Y-111252015D03*
D23*
X125264500Y-108712015D03*
X125264500Y-106172015D03*
X125264500Y-103632015D03*
X125264500Y-101092015D03*
%LPD*%
M02*
