G04 #@! TF.GenerationSoftware,KiCad,Pcbnew,9.0.7*
G04 #@! TF.CreationDate,2026-02-26T22:03:25+11:00*
G04 #@! TF.ProjectId,oled-v2,6f6c6564-2d76-4322-9e6b-696361645f70,rev?*
G04 #@! TF.SameCoordinates,Original*
G04 #@! TF.FileFunction,Legend,Bot*
G04 #@! TF.FilePolarity,Positive*
%FSLAX46Y46*%
G04 Gerber Fmt 4.6, Leading zero omitted, Abs format (unit mm)*
G04 Created by KiCad (PCBNEW 9.0.7) date 2026-02-26 22:03:25*
%MOMM*%
%LPD*%
G01*
G04 APERTURE LIST*
%ADD10C,0.101600*%
%ADD11C,0.150000*%
%ADD12C,0.127000*%
%ADD13C,0.120000*%
%ADD14C,0.254000*%
%ADD15C,0.025400*%
%ADD16R,1.700000X1.700000*%
%ADD17O,1.700000X1.700000*%
%ADD18R,1.600000X1.600000*%
%ADD19O,1.600000X1.600000*%
%ADD20C,1.700000*%
%ADD21C,4.000000*%
%ADD22C,2.200000*%
%ADD23R,3.500000X1.700000*%
%ADD24O,3.600000X1.700000*%
%ADD25O,3.700000X1.700000*%
G04 APERTURE END LIST*
D10*
X134566833Y-110769000D02*
X134566833Y-111488667D01*
X134566833Y-111488667D02*
X134524500Y-111573333D01*
X134524500Y-111573333D02*
X134482166Y-111615667D01*
X134482166Y-111615667D02*
X134397500Y-111658000D01*
X134397500Y-111658000D02*
X134228166Y-111658000D01*
X134228166Y-111658000D02*
X134143500Y-111615667D01*
X134143500Y-111615667D02*
X134101166Y-111573333D01*
X134101166Y-111573333D02*
X134058833Y-111488667D01*
X134058833Y-111488667D02*
X134058833Y-110769000D01*
X133169833Y-111658000D02*
X133677833Y-111658000D01*
X133423833Y-111658000D02*
X133423833Y-110769000D01*
X133423833Y-110769000D02*
X133508500Y-110896000D01*
X133508500Y-110896000D02*
X133593167Y-110980667D01*
X133593167Y-110980667D02*
X133677833Y-111023000D01*
D11*
X138651404Y-107619215D02*
X138508547Y-107666834D01*
X138508547Y-107666834D02*
X138270452Y-107666834D01*
X138270452Y-107666834D02*
X138175214Y-107619215D01*
X138175214Y-107619215D02*
X138127595Y-107571595D01*
X138127595Y-107571595D02*
X138079976Y-107476357D01*
X138079976Y-107476357D02*
X138079976Y-107381119D01*
X138079976Y-107381119D02*
X138127595Y-107285881D01*
X138127595Y-107285881D02*
X138175214Y-107238262D01*
X138175214Y-107238262D02*
X138270452Y-107190643D01*
X138270452Y-107190643D02*
X138460928Y-107143024D01*
X138460928Y-107143024D02*
X138556166Y-107095405D01*
X138556166Y-107095405D02*
X138603785Y-107047786D01*
X138603785Y-107047786D02*
X138651404Y-106952548D01*
X138651404Y-106952548D02*
X138651404Y-106857310D01*
X138651404Y-106857310D02*
X138603785Y-106762072D01*
X138603785Y-106762072D02*
X138556166Y-106714453D01*
X138556166Y-106714453D02*
X138460928Y-106666834D01*
X138460928Y-106666834D02*
X138222833Y-106666834D01*
X138222833Y-106666834D02*
X138079976Y-106714453D01*
X137270452Y-107619215D02*
X137365690Y-107666834D01*
X137365690Y-107666834D02*
X137556166Y-107666834D01*
X137556166Y-107666834D02*
X137651404Y-107619215D01*
X137651404Y-107619215D02*
X137699023Y-107523976D01*
X137699023Y-107523976D02*
X137699023Y-107143024D01*
X137699023Y-107143024D02*
X137651404Y-107047786D01*
X137651404Y-107047786D02*
X137556166Y-107000167D01*
X137556166Y-107000167D02*
X137365690Y-107000167D01*
X137365690Y-107000167D02*
X137270452Y-107047786D01*
X137270452Y-107047786D02*
X137222833Y-107143024D01*
X137222833Y-107143024D02*
X137222833Y-107238262D01*
X137222833Y-107238262D02*
X137699023Y-107333500D01*
X136413309Y-107619215D02*
X136508547Y-107666834D01*
X136508547Y-107666834D02*
X136699023Y-107666834D01*
X136699023Y-107666834D02*
X136794261Y-107619215D01*
X136794261Y-107619215D02*
X136841880Y-107523976D01*
X136841880Y-107523976D02*
X136841880Y-107143024D01*
X136841880Y-107143024D02*
X136794261Y-107047786D01*
X136794261Y-107047786D02*
X136699023Y-107000167D01*
X136699023Y-107000167D02*
X136508547Y-107000167D01*
X136508547Y-107000167D02*
X136413309Y-107047786D01*
X136413309Y-107047786D02*
X136365690Y-107143024D01*
X136365690Y-107143024D02*
X136365690Y-107238262D01*
X136365690Y-107238262D02*
X136841880Y-107333500D01*
X135556166Y-107619215D02*
X135651404Y-107666834D01*
X135651404Y-107666834D02*
X135841880Y-107666834D01*
X135841880Y-107666834D02*
X135937118Y-107619215D01*
X135937118Y-107619215D02*
X135984737Y-107523976D01*
X135984737Y-107523976D02*
X135984737Y-107143024D01*
X135984737Y-107143024D02*
X135937118Y-107047786D01*
X135937118Y-107047786D02*
X135841880Y-107000167D01*
X135841880Y-107000167D02*
X135651404Y-107000167D01*
X135651404Y-107000167D02*
X135556166Y-107047786D01*
X135556166Y-107047786D02*
X135508547Y-107143024D01*
X135508547Y-107143024D02*
X135508547Y-107238262D01*
X135508547Y-107238262D02*
X135984737Y-107333500D01*
X134651404Y-107666834D02*
X134651404Y-106666834D01*
X134651404Y-107619215D02*
X134746642Y-107666834D01*
X134746642Y-107666834D02*
X134937118Y-107666834D01*
X134937118Y-107666834D02*
X135032356Y-107619215D01*
X135032356Y-107619215D02*
X135079975Y-107571595D01*
X135079975Y-107571595D02*
X135127594Y-107476357D01*
X135127594Y-107476357D02*
X135127594Y-107190643D01*
X135127594Y-107190643D02*
X135079975Y-107095405D01*
X135079975Y-107095405D02*
X135032356Y-107047786D01*
X135032356Y-107047786D02*
X134937118Y-107000167D01*
X134937118Y-107000167D02*
X134746642Y-107000167D01*
X134746642Y-107000167D02*
X134651404Y-107047786D01*
X133460927Y-107619215D02*
X133318070Y-107666834D01*
X133318070Y-107666834D02*
X133079975Y-107666834D01*
X133079975Y-107666834D02*
X132984737Y-107619215D01*
X132984737Y-107619215D02*
X132937118Y-107571595D01*
X132937118Y-107571595D02*
X132889499Y-107476357D01*
X132889499Y-107476357D02*
X132889499Y-107381119D01*
X132889499Y-107381119D02*
X132937118Y-107285881D01*
X132937118Y-107285881D02*
X132984737Y-107238262D01*
X132984737Y-107238262D02*
X133079975Y-107190643D01*
X133079975Y-107190643D02*
X133270451Y-107143024D01*
X133270451Y-107143024D02*
X133365689Y-107095405D01*
X133365689Y-107095405D02*
X133413308Y-107047786D01*
X133413308Y-107047786D02*
X133460927Y-106952548D01*
X133460927Y-106952548D02*
X133460927Y-106857310D01*
X133460927Y-106857310D02*
X133413308Y-106762072D01*
X133413308Y-106762072D02*
X133365689Y-106714453D01*
X133365689Y-106714453D02*
X133270451Y-106666834D01*
X133270451Y-106666834D02*
X133032356Y-106666834D01*
X133032356Y-106666834D02*
X132889499Y-106714453D01*
X132603784Y-107000167D02*
X132222832Y-107000167D01*
X132460927Y-106666834D02*
X132460927Y-107523976D01*
X132460927Y-107523976D02*
X132413308Y-107619215D01*
X132413308Y-107619215D02*
X132318070Y-107666834D01*
X132318070Y-107666834D02*
X132222832Y-107666834D01*
X131460927Y-107000167D02*
X131460927Y-107666834D01*
X131889498Y-107000167D02*
X131889498Y-107523976D01*
X131889498Y-107523976D02*
X131841879Y-107619215D01*
X131841879Y-107619215D02*
X131746641Y-107666834D01*
X131746641Y-107666834D02*
X131603784Y-107666834D01*
X131603784Y-107666834D02*
X131508546Y-107619215D01*
X131508546Y-107619215D02*
X131460927Y-107571595D01*
X130556165Y-107666834D02*
X130556165Y-106666834D01*
X130556165Y-107619215D02*
X130651403Y-107666834D01*
X130651403Y-107666834D02*
X130841879Y-107666834D01*
X130841879Y-107666834D02*
X130937117Y-107619215D01*
X130937117Y-107619215D02*
X130984736Y-107571595D01*
X130984736Y-107571595D02*
X131032355Y-107476357D01*
X131032355Y-107476357D02*
X131032355Y-107190643D01*
X131032355Y-107190643D02*
X130984736Y-107095405D01*
X130984736Y-107095405D02*
X130937117Y-107047786D01*
X130937117Y-107047786D02*
X130841879Y-107000167D01*
X130841879Y-107000167D02*
X130651403Y-107000167D01*
X130651403Y-107000167D02*
X130556165Y-107047786D01*
X130079974Y-107666834D02*
X130079974Y-107000167D01*
X130079974Y-106666834D02*
X130127593Y-106714453D01*
X130127593Y-106714453D02*
X130079974Y-106762072D01*
X130079974Y-106762072D02*
X130032355Y-106714453D01*
X130032355Y-106714453D02*
X130079974Y-106666834D01*
X130079974Y-106666834D02*
X130079974Y-106762072D01*
X129460927Y-107666834D02*
X129556165Y-107619215D01*
X129556165Y-107619215D02*
X129603784Y-107571595D01*
X129603784Y-107571595D02*
X129651403Y-107476357D01*
X129651403Y-107476357D02*
X129651403Y-107190643D01*
X129651403Y-107190643D02*
X129603784Y-107095405D01*
X129603784Y-107095405D02*
X129556165Y-107047786D01*
X129556165Y-107047786D02*
X129460927Y-107000167D01*
X129460927Y-107000167D02*
X129318070Y-107000167D01*
X129318070Y-107000167D02*
X129222832Y-107047786D01*
X129222832Y-107047786D02*
X129175213Y-107095405D01*
X129175213Y-107095405D02*
X129127594Y-107190643D01*
X129127594Y-107190643D02*
X129127594Y-107476357D01*
X129127594Y-107476357D02*
X129175213Y-107571595D01*
X129175213Y-107571595D02*
X129222832Y-107619215D01*
X129222832Y-107619215D02*
X129318070Y-107666834D01*
X129318070Y-107666834D02*
X129460927Y-107666834D01*
X135413308Y-108666834D02*
X134746642Y-109666834D01*
X134746642Y-108666834D02*
X135413308Y-109666834D01*
X134365689Y-109666834D02*
X134365689Y-108666834D01*
X133937118Y-109381119D02*
X133460928Y-109381119D01*
X134032356Y-109666834D02*
X133699023Y-108666834D01*
X133699023Y-108666834D02*
X133365690Y-109666834D01*
X132841880Y-108666834D02*
X132651404Y-108666834D01*
X132651404Y-108666834D02*
X132556166Y-108714453D01*
X132556166Y-108714453D02*
X132460928Y-108809691D01*
X132460928Y-108809691D02*
X132413309Y-109000167D01*
X132413309Y-109000167D02*
X132413309Y-109333500D01*
X132413309Y-109333500D02*
X132460928Y-109523976D01*
X132460928Y-109523976D02*
X132556166Y-109619215D01*
X132556166Y-109619215D02*
X132651404Y-109666834D01*
X132651404Y-109666834D02*
X132841880Y-109666834D01*
X132841880Y-109666834D02*
X132937118Y-109619215D01*
X132937118Y-109619215D02*
X133032356Y-109523976D01*
X133032356Y-109523976D02*
X133079975Y-109333500D01*
X133079975Y-109333500D02*
X133079975Y-109000167D01*
X133079975Y-109000167D02*
X133032356Y-108809691D01*
X133032356Y-108809691D02*
X132937118Y-108714453D01*
X132937118Y-108714453D02*
X132841880Y-108666834D01*
D12*
X124989500Y-117212015D02*
X124989500Y-100212015D01*
X126989500Y-98212925D02*
X140789500Y-98212925D01*
X129389500Y-96787985D02*
X129389500Y-104141285D01*
X129389500Y-104141285D02*
X138389500Y-104141285D01*
X138389500Y-96787985D02*
X129389500Y-96787985D01*
X138389500Y-104141285D02*
X138389500Y-96787985D01*
X140789500Y-119212015D02*
X126989500Y-119212015D01*
X142789500Y-100212015D02*
X142789500Y-117212015D01*
D13*
X124989500Y-100212015D02*
G75*
G02*
X126989500Y-98212015I2044610J-44610D01*
G01*
X126989500Y-119212015D02*
G75*
G02*
X124989500Y-117212015I0J2000000D01*
G01*
X140789500Y-98212015D02*
G75*
G02*
X142789500Y-100212015I-44612J-2044612D01*
G01*
X142789500Y-117212015D02*
G75*
G02*
X140789500Y-119212015I-2044857J44857D01*
G01*
D14*
X145016500Y-99912015D02*
G75*
G02*
X144762500Y-99912015I-127000J0D01*
G01*
X144762500Y-99912015D02*
G75*
G02*
X145016500Y-99912015I127000J0D01*
G01*
D15*
X142774167Y-100101542D02*
X142777215Y-100150310D01*
X142770103Y-100052521D01*
X142774167Y-100101542D01*
X125047252Y-117622970D02*
X125037347Y-117574965D01*
X125028456Y-117526705D01*
X125020836Y-117478190D01*
X125014232Y-117429422D01*
X125008899Y-117380654D01*
X125004835Y-117331633D01*
X125001787Y-117282865D01*
X125000008Y-117233589D01*
X125047252Y-117622970D01*
%LPC*%
D16*
X83540000Y-134500000D03*
D17*
X81000000Y-134500000D03*
X78460000Y-134500000D03*
X75920000Y-134500000D03*
D18*
X118310000Y-116000000D03*
D19*
X110690000Y-116000000D03*
D20*
X90420000Y-108000000D03*
D21*
X95500000Y-108000000D03*
D20*
X100580000Y-108000000D03*
D22*
X98040000Y-102920000D03*
X91690000Y-105460000D03*
D18*
X137310000Y-116000000D03*
D19*
X129690000Y-116000000D03*
D18*
X137310000Y-135000000D03*
D19*
X129690000Y-135000000D03*
D20*
X109420000Y-127000000D03*
D21*
X114500000Y-127000000D03*
D20*
X119580000Y-127000000D03*
D22*
X117040000Y-121920000D03*
X110690000Y-124460000D03*
D20*
X90420000Y-127000000D03*
D21*
X95500000Y-127000000D03*
D20*
X100580000Y-127000000D03*
D22*
X98040000Y-121920000D03*
X91690000Y-124460000D03*
D18*
X99310000Y-135000000D03*
D19*
X91690000Y-135000000D03*
D20*
X128420000Y-127000000D03*
D21*
X133500000Y-127000000D03*
D20*
X138580000Y-127000000D03*
D22*
X136040000Y-121920000D03*
X129690000Y-124460000D03*
D18*
X118310000Y-135000000D03*
D19*
X110690000Y-135000000D03*
D20*
X128420000Y-108000000D03*
D21*
X133500000Y-108000000D03*
D20*
X138580000Y-108000000D03*
D22*
X136040000Y-102920000D03*
X129690000Y-105460000D03*
D18*
X156310000Y-116000000D03*
D19*
X148690000Y-116000000D03*
D20*
X147420000Y-127000000D03*
D21*
X152500000Y-127000000D03*
D20*
X157580000Y-127000000D03*
D22*
X155040000Y-121920000D03*
X148690000Y-124460000D03*
D18*
X156310000Y-135000000D03*
D19*
X148690000Y-135000000D03*
D20*
X147420000Y-108000000D03*
D21*
X152500000Y-108000000D03*
D20*
X157580000Y-108000000D03*
D22*
X155040000Y-102920000D03*
X148690000Y-105460000D03*
D18*
X99310000Y-116000000D03*
D19*
X91690000Y-116000000D03*
D20*
X109420000Y-108000000D03*
D21*
X114500000Y-108000000D03*
D20*
X119580000Y-108000000D03*
D22*
X117040000Y-102920000D03*
X110690000Y-105460000D03*
D23*
X142514500Y-101092015D03*
D24*
X142514500Y-103632015D03*
X142514500Y-106172015D03*
X142514500Y-108712015D03*
X142514500Y-111252015D03*
X142514500Y-113792015D03*
X142514500Y-116332015D03*
X125264500Y-116332015D03*
X125264500Y-113792015D03*
X125264500Y-111252015D03*
D25*
X125264500Y-108712015D03*
X125264500Y-106172015D03*
X125264500Y-103632015D03*
X125264500Y-101092015D03*
%LPD*%
M02*
