G04 #@! TF.GenerationSoftware,KiCad,Pcbnew,9.0.7*
G04 #@! TF.CreationDate,2026-02-20T22:20:20+11:00*
G04 #@! TF.ProjectId,oled-v2,6f6c6564-2d76-4322-9e6b-696361645f70,rev?*
G04 #@! TF.SameCoordinates,Original*
G04 #@! TF.FileFunction,Copper,L1,Top*
G04 #@! TF.FilePolarity,Positive*
%FSLAX46Y46*%
G04 Gerber Fmt 4.6, Leading zero omitted, Abs format (unit mm)*
G04 Created by KiCad (PCBNEW 9.0.7) date 2026-02-20 22:20:20*
%MOMM*%
%LPD*%
G01*
G04 APERTURE LIST*
G04 Aperture macros list*
%AMRoundRect*
0 Rectangle with rounded corners*
0 $1 Rounding radius*
0 $2 $3 $4 $5 $6 $7 $8 $9 X,Y pos of 4 corners*
0 Add a 4 corners polygon primitive as box body*
4,1,4,$2,$3,$4,$5,$6,$7,$8,$9,$2,$3,0*
0 Add four circle primitives for the rounded corners*
1,1,$1+$1,$2,$3*
1,1,$1+$1,$4,$5*
1,1,$1+$1,$6,$7*
1,1,$1+$1,$8,$9*
0 Add four rect primitives between the rounded corners*
20,1,$1+$1,$2,$3,$4,$5,0*
20,1,$1+$1,$4,$5,$6,$7,0*
20,1,$1+$1,$6,$7,$8,$9,0*
20,1,$1+$1,$8,$9,$2,$3,0*%
G04 Aperture macros list end*
G04 #@! TA.AperFunction,ComponentPad*
%ADD10R,1.600000X1.600000*%
G04 #@! TD*
G04 #@! TA.AperFunction,ComponentPad*
%ADD11O,1.600000X1.600000*%
G04 #@! TD*
G04 #@! TA.AperFunction,ComponentPad*
%ADD12C,2.200000*%
G04 #@! TD*
G04 #@! TA.AperFunction,SMDPad,CuDef*
%ADD13RoundRect,0.205000X-0.495000X-0.205000X0.495000X-0.205000X0.495000X0.205000X-0.495000X0.205000X0*%
G04 #@! TD*
G04 #@! TA.AperFunction,ComponentPad*
%ADD14R,1.700000X1.700000*%
G04 #@! TD*
G04 #@! TA.AperFunction,ComponentPad*
%ADD15O,1.700000X1.700000*%
G04 #@! TD*
G04 #@! TA.AperFunction,ComponentPad*
%ADD16R,3.500000X1.700000*%
G04 #@! TD*
G04 #@! TA.AperFunction,ComponentPad*
%ADD17O,3.600000X1.700000*%
G04 #@! TD*
G04 #@! TA.AperFunction,ComponentPad*
%ADD18O,3.700000X1.700000*%
G04 #@! TD*
G04 #@! TA.AperFunction,ViaPad*
%ADD19C,0.600000*%
G04 #@! TD*
G04 #@! TA.AperFunction,Conductor*
%ADD20C,0.200000*%
G04 #@! TD*
G04 APERTURE END LIST*
D10*
X125810000Y-90000000D03*
D11*
X118190000Y-90000000D03*
D12*
X105540000Y-57920000D03*
X99190000Y-60460000D03*
D10*
X106810000Y-90000000D03*
D11*
X99190000Y-90000000D03*
D10*
X144810000Y-71000000D03*
D11*
X137190000Y-71000000D03*
D13*
X124700000Y-54250000D03*
X124700000Y-55750000D03*
X119300000Y-55750000D03*
X119300000Y-54250000D03*
D12*
X86540000Y-57920000D03*
X80190000Y-60460000D03*
D10*
X87810000Y-71000000D03*
D11*
X80190000Y-71000000D03*
D13*
X143700000Y-54250000D03*
X143700000Y-55750000D03*
X138300000Y-55750000D03*
X138300000Y-54250000D03*
D14*
X72040000Y-89500000D03*
D15*
X69500000Y-89500000D03*
X66960000Y-89500000D03*
X64420000Y-89500000D03*
D12*
X143540000Y-57920000D03*
X137190000Y-60460000D03*
X124540000Y-76920000D03*
X118190000Y-79460000D03*
X86540000Y-76920000D03*
X80190000Y-79460000D03*
D10*
X125810000Y-71000000D03*
D11*
X118190000Y-71000000D03*
D10*
X87810000Y-90000000D03*
D11*
X80190000Y-90000000D03*
D10*
X144810000Y-90000000D03*
D11*
X137190000Y-90000000D03*
D13*
X105700000Y-73250000D03*
X105700000Y-74750000D03*
X100300000Y-74750000D03*
X100300000Y-73250000D03*
X86700000Y-73250000D03*
X86700000Y-74750000D03*
X81300000Y-74750000D03*
X81300000Y-73250000D03*
D12*
X143540000Y-76920000D03*
X137190000Y-79460000D03*
D13*
X124700000Y-73250000D03*
X124700000Y-74750000D03*
X119300000Y-74750000D03*
X119300000Y-73250000D03*
X105700000Y-54250000D03*
X105700000Y-55750000D03*
X100300000Y-55750000D03*
X100300000Y-54250000D03*
D12*
X124540000Y-57920000D03*
X118190000Y-60460000D03*
D10*
X106810000Y-71000000D03*
D11*
X99190000Y-71000000D03*
D13*
X143700000Y-73250000D03*
X143700000Y-74750000D03*
X138300000Y-74750000D03*
X138300000Y-73250000D03*
D12*
X105540000Y-76920000D03*
X99190000Y-79460000D03*
D13*
X86700000Y-54250000D03*
X86700000Y-55750000D03*
X81300000Y-55750000D03*
X81300000Y-54250000D03*
D16*
X131014500Y-56092015D03*
D17*
X131014500Y-58632015D03*
X131014500Y-61172015D03*
X131014500Y-63712015D03*
X131014500Y-66252015D03*
X131014500Y-68792015D03*
X131014500Y-71332015D03*
X113764500Y-71332015D03*
X113764500Y-68792015D03*
X113764500Y-66252015D03*
D18*
X113764500Y-63712015D03*
X113764500Y-61172015D03*
X113764500Y-58632015D03*
X113764500Y-56092015D03*
D19*
X90000000Y-57000000D03*
X104530000Y-60960000D03*
X134500000Y-62500000D03*
X134500000Y-67000000D03*
X110500000Y-73500000D03*
X73000000Y-81500000D03*
X90000000Y-74000000D03*
X145000000Y-73500000D03*
X110000000Y-58000000D03*
X110500000Y-69000000D03*
X93000000Y-58000000D03*
X148500000Y-73500000D03*
X93000000Y-70500000D03*
X109000000Y-55000000D03*
X96000000Y-58000000D03*
X121500000Y-58000000D03*
X103000000Y-57100000D03*
X79500000Y-76500000D03*
X104500000Y-60000000D03*
X123500000Y-60000000D03*
X83000000Y-58500000D03*
X85000000Y-60000000D03*
X107400000Y-59000000D03*
X111500000Y-57500000D03*
X79500000Y-55500000D03*
X95000000Y-60000000D03*
X119500000Y-66500000D03*
X119000000Y-64000000D03*
X127000000Y-68500000D03*
X118500000Y-68000000D03*
X127500000Y-55000000D03*
X130500000Y-54000000D03*
X118500000Y-67199997D03*
X109500000Y-67000000D03*
X138500000Y-68500000D03*
X142940000Y-68000000D03*
X149500000Y-67500000D03*
X144331735Y-69168265D03*
X78500000Y-86500000D03*
X97500000Y-67000000D03*
X93000000Y-80000000D03*
X70000000Y-86500000D03*
D20*
X119300000Y-54250000D02*
X111758414Y-54250000D01*
X107040000Y-60960000D02*
X104530000Y-60960000D01*
X90000000Y-57000000D02*
X88750000Y-55750000D01*
X108000000Y-58008414D02*
X108000000Y-60000000D01*
X111758414Y-54250000D02*
X108000000Y-58008414D01*
X108000000Y-60000000D02*
X107040000Y-60960000D01*
X88750000Y-55750000D02*
X86700000Y-55750000D01*
X106941000Y-56991000D02*
X106941000Y-58500314D01*
X98668686Y-59000000D02*
X98347686Y-59321000D01*
X106120314Y-59321000D02*
X102321000Y-59321000D01*
X102321000Y-59321000D02*
X102000000Y-59000000D01*
X79750000Y-54250000D02*
X81300000Y-54250000D01*
X98347686Y-59321000D02*
X81321000Y-59321000D01*
X105700000Y-55750000D02*
X106941000Y-56991000D01*
X78500000Y-55500000D02*
X79750000Y-54250000D01*
X106941000Y-58500314D02*
X106120314Y-59321000D01*
X81321000Y-59321000D02*
X78500000Y-56500000D01*
X102000000Y-59000000D02*
X98668686Y-59000000D01*
X78500000Y-56500000D02*
X78500000Y-55500000D01*
X87810000Y-71000000D02*
X89810000Y-69000000D01*
X117451935Y-70181015D02*
X117733950Y-69899000D01*
X125810000Y-71000000D02*
X126628985Y-70181015D01*
X136733950Y-69899000D02*
X143709000Y-69899000D01*
X104810000Y-69000000D02*
X106810000Y-71000000D01*
X89810000Y-69000000D02*
X104810000Y-69000000D01*
X136451935Y-70181015D02*
X136733950Y-69899000D01*
X124709000Y-69899000D02*
X125810000Y-71000000D01*
X134500000Y-62500000D02*
X133172015Y-61172015D01*
X133172015Y-61172015D02*
X130014500Y-61172015D01*
X107628985Y-70181015D02*
X117451935Y-70181015D01*
X144810000Y-71000000D02*
X140810000Y-67000000D01*
X126628985Y-70181015D02*
X136451935Y-70181015D01*
X140810000Y-67000000D02*
X134500000Y-67000000D01*
X117733950Y-69899000D02*
X124709000Y-69899000D01*
X106810000Y-71000000D02*
X107628985Y-70181015D01*
X143709000Y-69899000D02*
X144810000Y-71000000D01*
X109000000Y-55000000D02*
X108250000Y-54250000D01*
X111000000Y-68500000D02*
X110500000Y-69000000D01*
X119693900Y-72539000D02*
X120133900Y-72099000D01*
X110461000Y-72539000D02*
X119693900Y-72539000D01*
X124700000Y-72840000D02*
X124700000Y-73250000D01*
X90000000Y-73250000D02*
X86700000Y-73250000D01*
X123270701Y-58632015D02*
X123959686Y-59321000D01*
X111000000Y-58632015D02*
X111000000Y-68500000D01*
X110632015Y-58632015D02*
X110000000Y-58000000D01*
X104860000Y-72000000D02*
X100000000Y-72000000D01*
X128101000Y-56340314D02*
X128101000Y-54751057D01*
X143700000Y-72840000D02*
X143700000Y-73250000D01*
X114764500Y-58632015D02*
X123270701Y-58632015D01*
X123959000Y-72099000D02*
X124700000Y-72840000D01*
X143950000Y-73500000D02*
X143700000Y-73250000D01*
X93000000Y-58000000D02*
X93000000Y-54500000D01*
X123959686Y-59321000D02*
X125120314Y-59321000D01*
X111000000Y-58632015D02*
X110632015Y-58632015D01*
X110500000Y-73500000D02*
X110000000Y-73500000D01*
X114764500Y-58632015D02*
X114764500Y-58764500D01*
X98750000Y-73250000D02*
X93000000Y-73250000D01*
X138693900Y-72539000D02*
X139133900Y-72099000D01*
X93000000Y-73250000D02*
X90000000Y-73250000D01*
X90000000Y-74000000D02*
X90000000Y-73250000D01*
X142959000Y-72099000D02*
X143700000Y-72840000D01*
X108250000Y-54250000D02*
X105700000Y-54250000D01*
X148500000Y-59050000D02*
X148500000Y-73500000D01*
X109750000Y-73250000D02*
X105700000Y-73250000D01*
X105700000Y-73250000D02*
X105700000Y-72840000D01*
X100000000Y-72000000D02*
X98750000Y-73250000D01*
X143700000Y-54250000D02*
X148500000Y-59050000D01*
X124700000Y-73250000D02*
X125411000Y-72539000D01*
X109750000Y-73250000D02*
X110461000Y-72539000D01*
X93000000Y-73250000D02*
X93000000Y-70500000D01*
X127599943Y-54250000D02*
X124700000Y-54250000D01*
X145000000Y-73500000D02*
X143950000Y-73500000D01*
X125411000Y-72539000D02*
X138693900Y-72539000D01*
X92750000Y-54250000D02*
X86700000Y-54250000D01*
X72040000Y-89500000D02*
X72040000Y-82460000D01*
X125120314Y-59321000D02*
X128101000Y-56340314D01*
X139133900Y-72099000D02*
X142959000Y-72099000D01*
X114764500Y-58764500D02*
X115000000Y-59000000D01*
X114764500Y-58632015D02*
X111000000Y-58632015D01*
X110000000Y-73500000D02*
X109750000Y-73250000D01*
X93000000Y-54500000D02*
X92750000Y-54250000D01*
X105700000Y-72840000D02*
X104860000Y-72000000D01*
X72040000Y-82460000D02*
X73000000Y-81500000D01*
X128101000Y-54751057D02*
X127599943Y-54250000D01*
X120133900Y-72099000D02*
X123959000Y-72099000D01*
X115729000Y-78321000D02*
X119300000Y-74750000D01*
X111500000Y-57500000D02*
X112907985Y-56092015D01*
X119300000Y-55750000D02*
X119300000Y-56160000D01*
X103461000Y-78321000D02*
X115729000Y-78321000D01*
X96000000Y-58000000D02*
X98250000Y-55750000D01*
X119300000Y-75300000D02*
X122321000Y-78321000D01*
X100300000Y-75160000D02*
X103461000Y-78321000D01*
X123500000Y-60000000D02*
X132500000Y-60000000D01*
X101100000Y-57100000D02*
X103000000Y-57100000D01*
X81300000Y-74750000D02*
X79550000Y-76500000D01*
X119300000Y-74750000D02*
X119300000Y-75300000D01*
X115106515Y-55750000D02*
X119300000Y-55750000D01*
X119300000Y-56160000D02*
X121140000Y-58000000D01*
X100300000Y-74750000D02*
X96729000Y-78321000D01*
X106400000Y-60000000D02*
X107400000Y-59000000D01*
X79500000Y-55500000D02*
X81050000Y-55500000D01*
X81300000Y-56800000D02*
X83000000Y-58500000D01*
X132500000Y-60000000D02*
X136750000Y-55750000D01*
X81050000Y-55500000D02*
X81300000Y-55750000D01*
X81300000Y-55750000D02*
X81300000Y-56800000D01*
X85000000Y-60000000D02*
X95000000Y-60000000D01*
X112907985Y-56092015D02*
X114764500Y-56092015D01*
X100300000Y-56300000D02*
X101100000Y-57100000D01*
X100300000Y-55750000D02*
X100300000Y-56300000D01*
X136750000Y-55750000D02*
X138300000Y-55750000D01*
X122321000Y-78321000D02*
X134729000Y-78321000D01*
X84461000Y-78321000D02*
X81300000Y-75160000D01*
X100300000Y-74750000D02*
X100300000Y-75160000D01*
X79550000Y-76500000D02*
X79500000Y-76500000D01*
X104500000Y-60000000D02*
X106400000Y-60000000D01*
X98250000Y-55750000D02*
X100300000Y-55750000D01*
X134729000Y-78321000D02*
X138300000Y-74750000D01*
X114764500Y-56092015D02*
X115106515Y-55750000D01*
X81300000Y-75160000D02*
X81300000Y-74750000D01*
X121140000Y-58000000D02*
X121500000Y-58000000D01*
X96729000Y-78321000D02*
X84461000Y-78321000D01*
X119500000Y-66500000D02*
X119000000Y-66000000D01*
X119000000Y-66000000D02*
X119000000Y-64000000D01*
X141363000Y-65351000D02*
X132691245Y-65351000D01*
X143709000Y-88899000D02*
X144810000Y-90000000D01*
X105709000Y-88899000D02*
X106810000Y-90000000D01*
X87810000Y-90000000D02*
X88911000Y-88899000D01*
X145911000Y-69899000D02*
X141363000Y-65351000D01*
X144810000Y-90000000D02*
X144810000Y-77631314D01*
X88911000Y-88899000D02*
X105709000Y-88899000D01*
X106810000Y-90000000D02*
X108310000Y-88500000D01*
X124310000Y-88500000D02*
X125810000Y-90000000D01*
X126911000Y-88899000D02*
X143709000Y-88899000D01*
X125810000Y-90000000D02*
X126911000Y-88899000D01*
X145911000Y-76530314D02*
X145911000Y-69899000D01*
X144810000Y-77631314D02*
X145911000Y-76530314D01*
X108310000Y-88500000D02*
X124310000Y-88500000D01*
X131052260Y-63712015D02*
X130014500Y-63712015D01*
X132691245Y-65351000D02*
X131052260Y-63712015D01*
X86920000Y-57920000D02*
X87500000Y-58500000D01*
X86540000Y-57920000D02*
X86920000Y-57920000D01*
X119000000Y-68500000D02*
X118500000Y-68000000D01*
X127000000Y-68500000D02*
X119000000Y-68500000D01*
X101041000Y-53099000D02*
X127021485Y-53099000D01*
X127021485Y-53099000D02*
X130014500Y-56092015D01*
X100300000Y-54250000D02*
X100300000Y-53840000D01*
X100300000Y-53840000D02*
X101041000Y-53099000D01*
X131000000Y-54000000D02*
X131250000Y-54250000D01*
X130500000Y-54000000D02*
X131000000Y-54000000D01*
X124700000Y-55750000D02*
X126750000Y-55750000D01*
X131250000Y-54250000D02*
X138300000Y-54250000D01*
X126750000Y-55750000D02*
X127500000Y-55000000D01*
X76000000Y-78550000D02*
X81300000Y-73250000D01*
X143700000Y-55750000D02*
X147281000Y-59331000D01*
X147281000Y-89731000D02*
X145911000Y-91101000D01*
X145911000Y-91101000D02*
X78101000Y-91101000D01*
X76000000Y-89000000D02*
X76000000Y-78550000D01*
X147281000Y-59331000D02*
X147281000Y-89731000D01*
X78101000Y-91101000D02*
X76000000Y-89000000D01*
X86700000Y-74750000D02*
X98800000Y-74750000D01*
X98800000Y-74750000D02*
X100300000Y-73250000D01*
X117800000Y-74750000D02*
X119300000Y-73250000D01*
X105700000Y-74750000D02*
X117800000Y-74750000D01*
X136800000Y-74750000D02*
X138300000Y-73250000D01*
X124700000Y-74750000D02*
X136800000Y-74750000D01*
X108500000Y-66000000D02*
X109500000Y-67000000D01*
X75000000Y-66500000D02*
X75500000Y-66000000D01*
X64420000Y-89500000D02*
X64420000Y-77080000D01*
X118500000Y-67199997D02*
X129066518Y-67199997D01*
X129066518Y-67199997D02*
X130014500Y-66252015D01*
X75500000Y-66000000D02*
X108500000Y-66000000D01*
X64420000Y-77080000D02*
X75000000Y-66500000D01*
X130306515Y-68500000D02*
X130014500Y-68792015D01*
X144108265Y-69168265D02*
X142940000Y-68000000D01*
X146077100Y-91502000D02*
X149500000Y-88079100D01*
X68962000Y-91502000D02*
X146077100Y-91502000D01*
X149500000Y-88079100D02*
X149500000Y-67500000D01*
X144331735Y-69168265D02*
X144108265Y-69168265D01*
X66960000Y-89500000D02*
X68962000Y-91502000D01*
X138500000Y-68500000D02*
X130306515Y-68500000D01*
X110251057Y-69601000D02*
X110748943Y-69601000D01*
X69500000Y-89500000D02*
X69500000Y-87000000D01*
X86500000Y-86500000D02*
X93000000Y-80000000D01*
X111500000Y-63348755D02*
X113676740Y-61172015D01*
X107650057Y-67000000D02*
X110251057Y-69601000D01*
X97500000Y-67000000D02*
X107650057Y-67000000D01*
X69500000Y-87000000D02*
X70000000Y-86500000D01*
X113676740Y-61172015D02*
X114764500Y-61172015D01*
X111500000Y-68849943D02*
X111500000Y-63348755D01*
X78500000Y-86500000D02*
X86500000Y-86500000D01*
X110748943Y-69601000D02*
X111500000Y-68849943D01*
G04 #@! TA.AperFunction,NonConductor*
G36*
X126567942Y-54870185D02*
G01*
X126613697Y-54922989D01*
X126623641Y-54992147D01*
X126594616Y-55055703D01*
X126588584Y-55062181D01*
X126537584Y-55113181D01*
X126476261Y-55146666D01*
X126449903Y-55149500D01*
X125848337Y-55149500D01*
X125781298Y-55129815D01*
X125760698Y-55111055D01*
X125759741Y-55112013D01*
X125735409Y-55087681D01*
X125701924Y-55026358D01*
X125706908Y-54956666D01*
X125735409Y-54912319D01*
X125759741Y-54887987D01*
X125761837Y-54890083D01*
X125807562Y-54857396D01*
X125848337Y-54850500D01*
X126500903Y-54850500D01*
X126567942Y-54870185D01*
G37*
G04 #@! TD.AperFunction*
G04 #@! TA.AperFunction,NonConductor*
G36*
X118154708Y-54851394D02*
G01*
X118157794Y-54850652D01*
X118188009Y-54861172D01*
X118218702Y-54870185D01*
X118221678Y-54872895D01*
X118223779Y-54873627D01*
X118239537Y-54888708D01*
X118240259Y-54887987D01*
X118264591Y-54912319D01*
X118298076Y-54973642D01*
X118293092Y-55043334D01*
X118264591Y-55087681D01*
X118240259Y-55112013D01*
X118238162Y-55109916D01*
X118192438Y-55142604D01*
X118151663Y-55149500D01*
X115783243Y-55149500D01*
X115716204Y-55129815D01*
X115695562Y-55113181D01*
X115644562Y-55062181D01*
X115611077Y-55000858D01*
X115616061Y-54931166D01*
X115657933Y-54875233D01*
X115723397Y-54850816D01*
X115732243Y-54850500D01*
X118151663Y-54850500D01*
X118154708Y-54851394D01*
G37*
G04 #@! TD.AperFunction*
G04 #@! TA.AperFunction,NonConductor*
G36*
X111227355Y-53719185D02*
G01*
X111273110Y-53771989D01*
X111283054Y-53841147D01*
X111254029Y-53904703D01*
X111247997Y-53911181D01*
X110012181Y-55146997D01*
X109950858Y-55180482D01*
X109881166Y-55175498D01*
X109825233Y-55133626D01*
X109800816Y-55068162D01*
X109800500Y-55059316D01*
X109800500Y-54921155D01*
X109800499Y-54921153D01*
X109793756Y-54887255D01*
X109769737Y-54766503D01*
X109757306Y-54736492D01*
X109709397Y-54620827D01*
X109709390Y-54620814D01*
X109621789Y-54489711D01*
X109621786Y-54489707D01*
X109510292Y-54378213D01*
X109510288Y-54378210D01*
X109379185Y-54290609D01*
X109379172Y-54290602D01*
X109233501Y-54230264D01*
X109233491Y-54230261D01*
X109078149Y-54199361D01*
X109016238Y-54166976D01*
X109014660Y-54165425D01*
X108760416Y-53911181D01*
X108726931Y-53849858D01*
X108731915Y-53780166D01*
X108773787Y-53724233D01*
X108839251Y-53699816D01*
X108848097Y-53699500D01*
X111160316Y-53699500D01*
X111227355Y-53719185D01*
G37*
G04 #@! TD.AperFunction*
G04 #@! TA.AperFunction,NonConductor*
G36*
X127015413Y-56320944D02*
G01*
X127073276Y-56360105D01*
X127100781Y-56424334D01*
X127089195Y-56493236D01*
X127065339Y-56526737D01*
X126230874Y-57361202D01*
X126169551Y-57394687D01*
X126099859Y-57389703D01*
X126043926Y-57347831D01*
X126025262Y-57311839D01*
X126023242Y-57305623D01*
X125986488Y-57233489D01*
X125908870Y-57081155D01*
X125842558Y-56989884D01*
X125760798Y-56877350D01*
X125760794Y-56877345D01*
X125598494Y-56715045D01*
X125565009Y-56653722D01*
X125569993Y-56584030D01*
X125601119Y-56537134D01*
X125610725Y-56528078D01*
X125633291Y-56514437D01*
X125754437Y-56393291D01*
X125755398Y-56391700D01*
X125763281Y-56384270D01*
X125786432Y-56372501D01*
X125807562Y-56357396D01*
X125820428Y-56355219D01*
X125825565Y-56352609D01*
X125832009Y-56353261D01*
X125848337Y-56350500D01*
X126663331Y-56350500D01*
X126663347Y-56350501D01*
X126670943Y-56350501D01*
X126829055Y-56350501D01*
X126829057Y-56350501D01*
X126945565Y-56319282D01*
X127015413Y-56320944D01*
G37*
G04 #@! TD.AperFunction*
G04 #@! TA.AperFunction,NonConductor*
G36*
X111388909Y-55571253D02*
G01*
X111444842Y-55613125D01*
X111469259Y-55678589D01*
X111463506Y-55725752D01*
X111447254Y-55775770D01*
X111447253Y-55775774D01*
X111414000Y-55985728D01*
X111414000Y-56198301D01*
X111447253Y-56408255D01*
X111491434Y-56544231D01*
X111493429Y-56614073D01*
X111457348Y-56673905D01*
X111397695Y-56704166D01*
X111266508Y-56730261D01*
X111266498Y-56730264D01*
X111120827Y-56790602D01*
X111120814Y-56790609D01*
X110989711Y-56878210D01*
X110989707Y-56878213D01*
X110878213Y-56989707D01*
X110878210Y-56989711D01*
X110790609Y-57120814D01*
X110790602Y-57120827D01*
X110730264Y-57266498D01*
X110730261Y-57266507D01*
X110720491Y-57315626D01*
X110688105Y-57377536D01*
X110627389Y-57412110D01*
X110557620Y-57408369D01*
X110515303Y-57381704D01*
X110514999Y-57382076D01*
X110512040Y-57379647D01*
X110511193Y-57379114D01*
X110510292Y-57378213D01*
X110510288Y-57378210D01*
X110379185Y-57290609D01*
X110379172Y-57290602D01*
X110233501Y-57230264D01*
X110233489Y-57230261D01*
X110078845Y-57199500D01*
X110078842Y-57199500D01*
X109957511Y-57199500D01*
X109890472Y-57179815D01*
X109844717Y-57127011D01*
X109834773Y-57057853D01*
X109863798Y-56994297D01*
X109869830Y-56987819D01*
X110557150Y-56300499D01*
X111257896Y-55599752D01*
X111319217Y-55566269D01*
X111388909Y-55571253D01*
G37*
G04 #@! TD.AperFunction*
G04 #@! TA.AperFunction,NonConductor*
G36*
X108016942Y-54870185D02*
G01*
X108037584Y-54886819D01*
X108165425Y-55014660D01*
X108198910Y-55075983D01*
X108199361Y-55078149D01*
X108230261Y-55233491D01*
X108230264Y-55233501D01*
X108290602Y-55379172D01*
X108290609Y-55379185D01*
X108378210Y-55510288D01*
X108378213Y-55510292D01*
X108489707Y-55621786D01*
X108489711Y-55621789D01*
X108620814Y-55709390D01*
X108620827Y-55709397D01*
X108766498Y-55769735D01*
X108766503Y-55769737D01*
X108921153Y-55800499D01*
X108921156Y-55800500D01*
X109059316Y-55800500D01*
X109126355Y-55820185D01*
X109172110Y-55872989D01*
X109182054Y-55942147D01*
X109153029Y-56005703D01*
X109146997Y-56012181D01*
X107753181Y-57405997D01*
X107733744Y-57416609D01*
X107717011Y-57431110D01*
X107703679Y-57433026D01*
X107691858Y-57439482D01*
X107669771Y-57437902D01*
X107647853Y-57441054D01*
X107635601Y-57435458D01*
X107622166Y-57434498D01*
X107604439Y-57421227D01*
X107584297Y-57412029D01*
X107577014Y-57400697D01*
X107566233Y-57392626D01*
X107558495Y-57371880D01*
X107546523Y-57353251D01*
X107543371Y-57331332D01*
X107541816Y-57327162D01*
X107541500Y-57318316D01*
X107541500Y-57080059D01*
X107541501Y-57080046D01*
X107541501Y-56911945D01*
X107541501Y-56911943D01*
X107500577Y-56759215D01*
X107462068Y-56692516D01*
X107431281Y-56639190D01*
X107421522Y-56622287D01*
X107421521Y-56622286D01*
X107421520Y-56622284D01*
X107309716Y-56510480D01*
X107309715Y-56510479D01*
X107305385Y-56506149D01*
X107305374Y-56506139D01*
X106934131Y-56134896D01*
X106900646Y-56073573D01*
X106898321Y-56035998D01*
X106900500Y-56012026D01*
X106900500Y-55487974D01*
X106894041Y-55416896D01*
X106848105Y-55269481D01*
X106843072Y-55253329D01*
X106843071Y-55253327D01*
X106754437Y-55106709D01*
X106754435Y-55106707D01*
X106754434Y-55106705D01*
X106735409Y-55087680D01*
X106731218Y-55080006D01*
X106724193Y-55074801D01*
X106714729Y-55049808D01*
X106701924Y-55026357D01*
X106702547Y-55017636D01*
X106699451Y-55009459D01*
X106705001Y-54983318D01*
X106706908Y-54956665D01*
X106712529Y-54947870D01*
X106713964Y-54941113D01*
X106734303Y-54913803D01*
X106734974Y-54912754D01*
X106754437Y-54893291D01*
X106754738Y-54892792D01*
X106760221Y-54887255D01*
X106784758Y-54873698D01*
X106807562Y-54857396D01*
X106817221Y-54855762D01*
X106821378Y-54853466D01*
X106828139Y-54853915D01*
X106848337Y-54850500D01*
X107949903Y-54850500D01*
X108016942Y-54870185D01*
G37*
G04 #@! TD.AperFunction*
G04 #@! TA.AperFunction,NonConductor*
G36*
X123143753Y-56804047D02*
G01*
X123156298Y-56802970D01*
X123176643Y-56813704D01*
X123198712Y-56820185D01*
X123206955Y-56829698D01*
X123218093Y-56835575D01*
X123229405Y-56855607D01*
X123244467Y-56872989D01*
X123246258Y-56885450D01*
X123252450Y-56896414D01*
X123251137Y-56919377D01*
X123254411Y-56942147D01*
X123249085Y-56955269D01*
X123248462Y-56966169D01*
X123231992Y-56997385D01*
X123171129Y-57081155D01*
X123056760Y-57305616D01*
X122978910Y-57545214D01*
X122939500Y-57794038D01*
X122939500Y-57907515D01*
X122919815Y-57974554D01*
X122867011Y-58020309D01*
X122815500Y-58031515D01*
X122423756Y-58031515D01*
X122356717Y-58011830D01*
X122310962Y-57959026D01*
X122302332Y-57927004D01*
X122301689Y-57927132D01*
X122274531Y-57790606D01*
X122269737Y-57766503D01*
X122263822Y-57752223D01*
X122209397Y-57620827D01*
X122209390Y-57620814D01*
X122121789Y-57489711D01*
X122121786Y-57489707D01*
X122010292Y-57378213D01*
X122010288Y-57378210D01*
X121879185Y-57290609D01*
X121879172Y-57290602D01*
X121733501Y-57230264D01*
X121733489Y-57230261D01*
X121578845Y-57199500D01*
X121578842Y-57199500D01*
X121421158Y-57199500D01*
X121421153Y-57199500D01*
X121292301Y-57225130D01*
X121222709Y-57218903D01*
X121180429Y-57191194D01*
X121001416Y-57012181D01*
X120967931Y-56950858D01*
X120972915Y-56881166D01*
X121014787Y-56825233D01*
X121080251Y-56800816D01*
X121089097Y-56800500D01*
X123131673Y-56800500D01*
X123143753Y-56804047D01*
G37*
G04 #@! TD.AperFunction*
G04 #@! TA.AperFunction,NonConductor*
G36*
X118218702Y-56370185D02*
G01*
X118239301Y-56388945D01*
X118240260Y-56387987D01*
X118245561Y-56393288D01*
X118245563Y-56393291D01*
X118366709Y-56514437D01*
X118513327Y-56603071D01*
X118513330Y-56603072D01*
X118513329Y-56603072D01*
X118570266Y-56620814D01*
X118676896Y-56654041D01*
X118747974Y-56660500D01*
X118899903Y-56660500D01*
X118966942Y-56680185D01*
X118987584Y-56696819D01*
X120110599Y-57819834D01*
X120144084Y-57881157D01*
X120139100Y-57950849D01*
X120097228Y-58006782D01*
X120031764Y-58031199D01*
X120022918Y-58031515D01*
X116050219Y-58031515D01*
X115983180Y-58011830D01*
X115939735Y-57963810D01*
X115919552Y-57924200D01*
X115919551Y-57924199D01*
X115794609Y-57752228D01*
X115644286Y-57601905D01*
X115472320Y-57476966D01*
X115471615Y-57476606D01*
X115463554Y-57472500D01*
X115412759Y-57424527D01*
X115395963Y-57356707D01*
X115418499Y-57290571D01*
X115463554Y-57251530D01*
X115472316Y-57247066D01*
X115511079Y-57218903D01*
X115644286Y-57122124D01*
X115644288Y-57122121D01*
X115644292Y-57122119D01*
X115794604Y-56971807D01*
X115794606Y-56971803D01*
X115794609Y-56971801D01*
X115909472Y-56813704D01*
X115919551Y-56799831D01*
X116016057Y-56610427D01*
X116072673Y-56436180D01*
X116112111Y-56378506D01*
X116176469Y-56351308D01*
X116190604Y-56350500D01*
X118151663Y-56350500D01*
X118218702Y-56370185D01*
G37*
G04 #@! TD.AperFunction*
G04 #@! TA.AperFunction,NonConductor*
G36*
X137218702Y-54870185D02*
G01*
X137239301Y-54888944D01*
X137240259Y-54887987D01*
X137264591Y-54912319D01*
X137298076Y-54973642D01*
X137293092Y-55043334D01*
X137264591Y-55087681D01*
X137240259Y-55112013D01*
X137238162Y-55109916D01*
X137192438Y-55142604D01*
X137151663Y-55149500D01*
X136836670Y-55149500D01*
X136836654Y-55149499D01*
X136829058Y-55149499D01*
X136670943Y-55149499D01*
X136594579Y-55169961D01*
X136518214Y-55190423D01*
X136518209Y-55190426D01*
X136381290Y-55269475D01*
X136381282Y-55269481D01*
X133437886Y-58212877D01*
X133376563Y-58246362D01*
X133306871Y-58241378D01*
X133250938Y-58199506D01*
X133232274Y-58163515D01*
X133216055Y-58113598D01*
X133136524Y-57957511D01*
X133119551Y-57924199D01*
X133119549Y-57924196D01*
X133119548Y-57924194D01*
X132994609Y-57752228D01*
X132867486Y-57625105D01*
X132834001Y-57563782D01*
X132838985Y-57494090D01*
X132880857Y-57438157D01*
X132911835Y-57421242D01*
X132911876Y-57421227D01*
X133006831Y-57385811D01*
X133122046Y-57299561D01*
X133208296Y-57184346D01*
X133258591Y-57049498D01*
X133265000Y-56989888D01*
X133264999Y-55194143D01*
X133258591Y-55134532D01*
X133250464Y-55112743D01*
X133215066Y-55017832D01*
X133210082Y-54948141D01*
X133243568Y-54886818D01*
X133304891Y-54853334D01*
X133331248Y-54850500D01*
X137151663Y-54850500D01*
X137218702Y-54870185D01*
G37*
G04 #@! TD.AperFunction*
G04 #@! TA.AperFunction,NonConductor*
G36*
X99154708Y-56351394D02*
G01*
X99157794Y-56350652D01*
X99188009Y-56361172D01*
X99218702Y-56370185D01*
X99221678Y-56372895D01*
X99223779Y-56373627D01*
X99239537Y-56388709D01*
X99240260Y-56387987D01*
X99245561Y-56393288D01*
X99245563Y-56393291D01*
X99366709Y-56514437D01*
X99513327Y-56603071D01*
X99513330Y-56603072D01*
X99513329Y-56603072D01*
X99570266Y-56620814D01*
X99676896Y-56654041D01*
X99747974Y-56660500D01*
X99759902Y-56660500D01*
X99789338Y-56669143D01*
X99819328Y-56675667D01*
X99824344Y-56679422D01*
X99826941Y-56680185D01*
X99847577Y-56696813D01*
X99931284Y-56780520D01*
X99931286Y-56780521D01*
X99938356Y-56787591D01*
X100615139Y-57464374D01*
X100615149Y-57464385D01*
X100619479Y-57468715D01*
X100619480Y-57468716D01*
X100731284Y-57580520D01*
X100801088Y-57620821D01*
X100868215Y-57659577D01*
X101020943Y-57700501D01*
X101020946Y-57700501D01*
X101186653Y-57700501D01*
X101186669Y-57700500D01*
X102420234Y-57700500D01*
X102487273Y-57720185D01*
X102489125Y-57721398D01*
X102620814Y-57809390D01*
X102620827Y-57809397D01*
X102697919Y-57841329D01*
X102766503Y-57869737D01*
X102921153Y-57900499D01*
X102921156Y-57900500D01*
X102921158Y-57900500D01*
X103078844Y-57900500D01*
X103078845Y-57900499D01*
X103233497Y-57869737D01*
X103379179Y-57809394D01*
X103510289Y-57721789D01*
X103621789Y-57610289D01*
X103709394Y-57479179D01*
X103710312Y-57476964D01*
X103750621Y-57379647D01*
X103769737Y-57333497D01*
X103800500Y-57178842D01*
X103800500Y-57021158D01*
X103800500Y-57021155D01*
X103800499Y-57021153D01*
X103786086Y-56948691D01*
X103787963Y-56927707D01*
X103784965Y-56906853D01*
X103791015Y-56893605D01*
X103792313Y-56879100D01*
X103805237Y-56862461D01*
X103813990Y-56843297D01*
X103826241Y-56835423D01*
X103835176Y-56823922D01*
X103855044Y-56816912D01*
X103872768Y-56805523D01*
X103897351Y-56801988D01*
X103901066Y-56800678D01*
X103907703Y-56800500D01*
X104131673Y-56800500D01*
X104198712Y-56820185D01*
X104244467Y-56872989D01*
X104254411Y-56942147D01*
X104231992Y-56997385D01*
X104171129Y-57081155D01*
X104056760Y-57305616D01*
X103978910Y-57545214D01*
X103960797Y-57659575D01*
X103939500Y-57794038D01*
X103939500Y-58045962D01*
X103978910Y-58294785D01*
X104056759Y-58534379D01*
X104056761Y-58534382D01*
X104056762Y-58534386D01*
X104059728Y-58540208D01*
X104072623Y-58608878D01*
X104046345Y-58673617D01*
X103989237Y-58713873D01*
X103949242Y-58720500D01*
X102621098Y-58720500D01*
X102554059Y-58700815D01*
X102533417Y-58684181D01*
X102368717Y-58519481D01*
X102368716Y-58519480D01*
X102281904Y-58469360D01*
X102281904Y-58469359D01*
X102281900Y-58469358D01*
X102231785Y-58440423D01*
X102079057Y-58399499D01*
X101920943Y-58399499D01*
X101913347Y-58399499D01*
X101913331Y-58399500D01*
X98755356Y-58399500D01*
X98755340Y-58399499D01*
X98747744Y-58399499D01*
X98589629Y-58399499D01*
X98513265Y-58419961D01*
X98436900Y-58440423D01*
X98436895Y-58440426D01*
X98299976Y-58519475D01*
X98299968Y-58519481D01*
X98135269Y-58684181D01*
X98073946Y-58717666D01*
X98047588Y-58720500D01*
X96710941Y-58720500D01*
X96643902Y-58700815D01*
X96598147Y-58648011D01*
X96588203Y-58578853D01*
X96617228Y-58515297D01*
X96621032Y-58511211D01*
X96621786Y-58510292D01*
X96621789Y-58510289D01*
X96709394Y-58379179D01*
X96769737Y-58233497D01*
X96793587Y-58113598D01*
X96800638Y-58078150D01*
X96833023Y-58016239D01*
X96834517Y-58014717D01*
X98462417Y-56386819D01*
X98523740Y-56353334D01*
X98550098Y-56350500D01*
X99151663Y-56350500D01*
X99154708Y-56351394D01*
G37*
G04 #@! TD.AperFunction*
G04 #@! TA.AperFunction,NonConductor*
G36*
X92342539Y-54870185D02*
G01*
X92388294Y-54922989D01*
X92399500Y-54974500D01*
X92399500Y-57420234D01*
X92379815Y-57487273D01*
X92378602Y-57489125D01*
X92290609Y-57620814D01*
X92290602Y-57620827D01*
X92230264Y-57766498D01*
X92230261Y-57766510D01*
X92199500Y-57921153D01*
X92199500Y-58078846D01*
X92230261Y-58233489D01*
X92230264Y-58233501D01*
X92290602Y-58379172D01*
X92290609Y-58379185D01*
X92378210Y-58510288D01*
X92382076Y-58514999D01*
X92380721Y-58516110D01*
X92410225Y-58570142D01*
X92405241Y-58639834D01*
X92363369Y-58695767D01*
X92297905Y-58720184D01*
X92289059Y-58720500D01*
X88223274Y-58720500D01*
X88156235Y-58700815D01*
X88110480Y-58648011D01*
X88099422Y-58602557D01*
X88098616Y-58586089D01*
X88100501Y-58579057D01*
X88100501Y-58420943D01*
X88088316Y-58375471D01*
X88087669Y-58362238D01*
X88092879Y-58340638D01*
X88093408Y-58318428D01*
X88093469Y-58318235D01*
X88101090Y-58294785D01*
X88140500Y-58045962D01*
X88140500Y-57794038D01*
X88101090Y-57545215D01*
X88023241Y-57305621D01*
X88023239Y-57305618D01*
X88023239Y-57305616D01*
X87968869Y-57198910D01*
X87908870Y-57081155D01*
X87842558Y-56989884D01*
X87760798Y-56877350D01*
X87760794Y-56877345D01*
X87598494Y-56715045D01*
X87565009Y-56653722D01*
X87569993Y-56584030D01*
X87601119Y-56537134D01*
X87610725Y-56528078D01*
X87633291Y-56514437D01*
X87754437Y-56393291D01*
X87755398Y-56391700D01*
X87763281Y-56384270D01*
X87786432Y-56372501D01*
X87807562Y-56357396D01*
X87820428Y-56355219D01*
X87825565Y-56352609D01*
X87832009Y-56353261D01*
X87848337Y-56350500D01*
X88449903Y-56350500D01*
X88516942Y-56370185D01*
X88537584Y-56386819D01*
X89165425Y-57014660D01*
X89198910Y-57075983D01*
X89199361Y-57078149D01*
X89230261Y-57233491D01*
X89230264Y-57233501D01*
X89290602Y-57379172D01*
X89290609Y-57379185D01*
X89378210Y-57510288D01*
X89378213Y-57510292D01*
X89489707Y-57621786D01*
X89489711Y-57621789D01*
X89620814Y-57709390D01*
X89620827Y-57709397D01*
X89724220Y-57752223D01*
X89766503Y-57769737D01*
X89888672Y-57794038D01*
X89921153Y-57800499D01*
X89921156Y-57800500D01*
X89921158Y-57800500D01*
X90078844Y-57800500D01*
X90078845Y-57800499D01*
X90233497Y-57769737D01*
X90379179Y-57709394D01*
X90510289Y-57621789D01*
X90621789Y-57510289D01*
X90709394Y-57379179D01*
X90769737Y-57233497D01*
X90800500Y-57078842D01*
X90800500Y-56921158D01*
X90800500Y-56921155D01*
X90800499Y-56921153D01*
X90798667Y-56911943D01*
X90769737Y-56766503D01*
X90763864Y-56752325D01*
X90709397Y-56620827D01*
X90709390Y-56620814D01*
X90621789Y-56489711D01*
X90621786Y-56489707D01*
X90510292Y-56378213D01*
X90510288Y-56378210D01*
X90379185Y-56290609D01*
X90379172Y-56290602D01*
X90233501Y-56230264D01*
X90233491Y-56230261D01*
X90078149Y-56199361D01*
X90016238Y-56166976D01*
X90014660Y-56165425D01*
X89237590Y-55388355D01*
X89237588Y-55388352D01*
X89118717Y-55269481D01*
X89118709Y-55269475D01*
X89007697Y-55205383D01*
X89007696Y-55205382D01*
X88988219Y-55194138D01*
X88981785Y-55190423D01*
X88829057Y-55149499D01*
X88670943Y-55149499D01*
X88663347Y-55149499D01*
X88663331Y-55149500D01*
X87848337Y-55149500D01*
X87818619Y-55140773D01*
X87788368Y-55134035D01*
X87784526Y-55130763D01*
X87781298Y-55129815D01*
X87760220Y-55112743D01*
X87754736Y-55107204D01*
X87754437Y-55106709D01*
X87735172Y-55087444D01*
X87734973Y-55087243D01*
X87718508Y-55056729D01*
X87701924Y-55026358D01*
X87701946Y-55026037D01*
X87701794Y-55025754D01*
X87704433Y-54991266D01*
X87706908Y-54956666D01*
X87707105Y-54956359D01*
X87707126Y-54956088D01*
X87708146Y-54954738D01*
X87735409Y-54912319D01*
X87759741Y-54887987D01*
X87761837Y-54890083D01*
X87807562Y-54857396D01*
X87848337Y-54850500D01*
X92275500Y-54850500D01*
X92342539Y-54870185D01*
G37*
G04 #@! TD.AperFunction*
G04 #@! TA.AperFunction,NonConductor*
G36*
X85143753Y-56804047D02*
G01*
X85156298Y-56802970D01*
X85176643Y-56813704D01*
X85198712Y-56820185D01*
X85206955Y-56829698D01*
X85218093Y-56835575D01*
X85229405Y-56855607D01*
X85244467Y-56872989D01*
X85246258Y-56885450D01*
X85252450Y-56896414D01*
X85251137Y-56919377D01*
X85254411Y-56942147D01*
X85249085Y-56955269D01*
X85248462Y-56966169D01*
X85231992Y-56997385D01*
X85171129Y-57081155D01*
X85056760Y-57305616D01*
X84978910Y-57545214D01*
X84960797Y-57659575D01*
X84939500Y-57794038D01*
X84939500Y-58045962D01*
X84978910Y-58294785D01*
X85056759Y-58534379D01*
X85056761Y-58534382D01*
X85056762Y-58534386D01*
X85059728Y-58540208D01*
X85072623Y-58608878D01*
X85046345Y-58673617D01*
X84989237Y-58713873D01*
X84949242Y-58720500D01*
X83923361Y-58720500D01*
X83856322Y-58700815D01*
X83810567Y-58648011D01*
X83799958Y-58584347D01*
X83800500Y-58578843D01*
X83800500Y-58421155D01*
X83800499Y-58421153D01*
X83788780Y-58362238D01*
X83769737Y-58266503D01*
X83769735Y-58266498D01*
X83709397Y-58120827D01*
X83709390Y-58120814D01*
X83621789Y-57989711D01*
X83621786Y-57989707D01*
X83510292Y-57878213D01*
X83510288Y-57878210D01*
X83379185Y-57790609D01*
X83379172Y-57790602D01*
X83233501Y-57730264D01*
X83233491Y-57730261D01*
X83078149Y-57699361D01*
X83016238Y-57666976D01*
X83014660Y-57665425D01*
X82361416Y-57012181D01*
X82327931Y-56950858D01*
X82332915Y-56881166D01*
X82374787Y-56825233D01*
X82440251Y-56800816D01*
X82449097Y-56800500D01*
X85131673Y-56800500D01*
X85143753Y-56804047D01*
G37*
G04 #@! TD.AperFunction*
G04 #@! TA.AperFunction,NonConductor*
G36*
X80095580Y-56151979D02*
G01*
X80142270Y-56203957D01*
X80148799Y-56220584D01*
X80156928Y-56246670D01*
X80156929Y-56246673D01*
X80231595Y-56370185D01*
X80245565Y-56393294D01*
X80366705Y-56514434D01*
X80366707Y-56514435D01*
X80366709Y-56514437D01*
X80513327Y-56603071D01*
X80612391Y-56633940D01*
X80670537Y-56672677D01*
X80698511Y-56736702D01*
X80699499Y-56752325D01*
X80699499Y-56879054D01*
X80699498Y-56879054D01*
X80729197Y-56989891D01*
X80740423Y-57031785D01*
X80750209Y-57048735D01*
X80762518Y-57070053D01*
X80762519Y-57070057D01*
X80819475Y-57168709D01*
X80819481Y-57168717D01*
X80938349Y-57287585D01*
X80938355Y-57287590D01*
X82159584Y-58508819D01*
X82193069Y-58570142D01*
X82188085Y-58639834D01*
X82146213Y-58695767D01*
X82080749Y-58720184D01*
X82071903Y-58720500D01*
X81621097Y-58720500D01*
X81554058Y-58700815D01*
X81533416Y-58684181D01*
X79361416Y-56512181D01*
X79327931Y-56450858D01*
X79332915Y-56381166D01*
X79374787Y-56325233D01*
X79440251Y-56300816D01*
X79449097Y-56300500D01*
X79578844Y-56300500D01*
X79578845Y-56300499D01*
X79733497Y-56269737D01*
X79879179Y-56209394D01*
X79961525Y-56154372D01*
X80028200Y-56133495D01*
X80095580Y-56151979D01*
G37*
G04 #@! TD.AperFunction*
G04 #@! TA.AperFunction,NonConductor*
G36*
X128669897Y-56708768D02*
G01*
X128683334Y-56709729D01*
X128701062Y-56723000D01*
X128721202Y-56732198D01*
X128728484Y-56743528D01*
X128739267Y-56751601D01*
X128747004Y-56772346D01*
X128758977Y-56790975D01*
X128762128Y-56812895D01*
X128763684Y-56817065D01*
X128764000Y-56825910D01*
X128764000Y-56989884D01*
X128764001Y-56989891D01*
X128770408Y-57049498D01*
X128820702Y-57184343D01*
X128820706Y-57184350D01*
X128906952Y-57299559D01*
X128906955Y-57299562D01*
X129022164Y-57385808D01*
X129022173Y-57385813D01*
X129117164Y-57421242D01*
X129173098Y-57463113D01*
X129197516Y-57528577D01*
X129182665Y-57596850D01*
X129161514Y-57625105D01*
X129034389Y-57752230D01*
X128909451Y-57924194D01*
X128812944Y-58113600D01*
X128747253Y-58315775D01*
X128714000Y-58525728D01*
X128714000Y-58738301D01*
X128745301Y-58935932D01*
X128747254Y-58948258D01*
X128809814Y-59140798D01*
X128812944Y-59150429D01*
X128847987Y-59219205D01*
X128860883Y-59287874D01*
X128834607Y-59352615D01*
X128777500Y-59392872D01*
X128737502Y-59399500D01*
X126190411Y-59399500D01*
X126123372Y-59379815D01*
X126077617Y-59327011D01*
X126067673Y-59257853D01*
X126096698Y-59194297D01*
X126102730Y-59187819D01*
X127212399Y-58078150D01*
X128552321Y-56738228D01*
X128571752Y-56727618D01*
X128588488Y-56713117D01*
X128601820Y-56711199D01*
X128613642Y-56704745D01*
X128635728Y-56706324D01*
X128657646Y-56703173D01*
X128669897Y-56708768D01*
G37*
G04 #@! TD.AperFunction*
G04 #@! TA.AperFunction,NonConductor*
G36*
X111805703Y-59583560D02*
G01*
X111812181Y-59589592D01*
X111884713Y-59662124D01*
X112056682Y-59787065D01*
X112065446Y-59791531D01*
X112116242Y-59839506D01*
X112133036Y-59907327D01*
X112110498Y-59973462D01*
X112065446Y-60012499D01*
X112056682Y-60016964D01*
X111884713Y-60141905D01*
X111884709Y-60141909D01*
X111812181Y-60214438D01*
X111750858Y-60247923D01*
X111681166Y-60242939D01*
X111625233Y-60201067D01*
X111600816Y-60135603D01*
X111600500Y-60126757D01*
X111600500Y-59677273D01*
X111620185Y-59610234D01*
X111672989Y-59564479D01*
X111742147Y-59554535D01*
X111805703Y-59583560D01*
G37*
G04 #@! TD.AperFunction*
G04 #@! TA.AperFunction,NonConductor*
G36*
X116872209Y-59236062D02*
G01*
X116884754Y-59234985D01*
X116905098Y-59245719D01*
X116927168Y-59252200D01*
X116935412Y-59261715D01*
X116946549Y-59267591D01*
X116957860Y-59287621D01*
X116972923Y-59305004D01*
X116974714Y-59317465D01*
X116980906Y-59328429D01*
X116979593Y-59351393D01*
X116982867Y-59374162D01*
X116977541Y-59387283D01*
X116976918Y-59398185D01*
X116960447Y-59429400D01*
X116821132Y-59621151D01*
X116706760Y-59845616D01*
X116628910Y-60085214D01*
X116605424Y-60233497D01*
X116589500Y-60334038D01*
X116589500Y-60585962D01*
X116619134Y-60773065D01*
X116628910Y-60834785D01*
X116706760Y-61074383D01*
X116732430Y-61124762D01*
X116810662Y-61278301D01*
X116821132Y-61298848D01*
X116969201Y-61502649D01*
X116969205Y-61502654D01*
X116969207Y-61502656D01*
X117147344Y-61680793D01*
X117147345Y-61680794D01*
X117147344Y-61680794D01*
X117153661Y-61685383D01*
X117196327Y-61740714D01*
X117202305Y-61810327D01*
X117169699Y-61872122D01*
X117108860Y-61906479D01*
X117061378Y-61908174D01*
X117006611Y-61899500D01*
X116833389Y-61899500D01*
X116793728Y-61905781D01*
X116662302Y-61926597D01*
X116497552Y-61980128D01*
X116343211Y-62058768D01*
X116319019Y-62076345D01*
X116203072Y-62160586D01*
X116203070Y-62160588D01*
X116203069Y-62160588D01*
X116080588Y-62283069D01*
X116080588Y-62283070D01*
X116080586Y-62283072D01*
X116045380Y-62331529D01*
X115978768Y-62423211D01*
X115900128Y-62577550D01*
X115874324Y-62656969D01*
X115834886Y-62714644D01*
X115770527Y-62741842D01*
X115701681Y-62729927D01*
X115668712Y-62706331D01*
X115644286Y-62681905D01*
X115472320Y-62556966D01*
X115471615Y-62556606D01*
X115463554Y-62552500D01*
X115412759Y-62504527D01*
X115395963Y-62436707D01*
X115418499Y-62370571D01*
X115463554Y-62331530D01*
X115472316Y-62327066D01*
X115604348Y-62231140D01*
X115644286Y-62202124D01*
X115644288Y-62202121D01*
X115644292Y-62202119D01*
X115794604Y-62051807D01*
X115794606Y-62051803D01*
X115794609Y-62051801D01*
X115919548Y-61879835D01*
X115919547Y-61879835D01*
X115919551Y-61879831D01*
X116016057Y-61690427D01*
X116081746Y-61488258D01*
X116115000Y-61278302D01*
X116115000Y-61065728D01*
X116081746Y-60855772D01*
X116016057Y-60653603D01*
X115919551Y-60464199D01*
X115919549Y-60464196D01*
X115919548Y-60464194D01*
X115794609Y-60292228D01*
X115644286Y-60141905D01*
X115472320Y-60016966D01*
X115471615Y-60016606D01*
X115463554Y-60012500D01*
X115412759Y-59964527D01*
X115395963Y-59896707D01*
X115418499Y-59830571D01*
X115463554Y-59791530D01*
X115472316Y-59787066D01*
X115500626Y-59766498D01*
X115644286Y-59662124D01*
X115644288Y-59662121D01*
X115644292Y-59662119D01*
X115794604Y-59511807D01*
X115794606Y-59511803D01*
X115794609Y-59511801D01*
X115854476Y-59429400D01*
X115919551Y-59339831D01*
X115926083Y-59327011D01*
X115939735Y-59300220D01*
X115987709Y-59249424D01*
X116050219Y-59232515D01*
X116860129Y-59232515D01*
X116872209Y-59236062D01*
G37*
G04 #@! TD.AperFunction*
G04 #@! TA.AperFunction,NonConductor*
G36*
X101766941Y-59620185D02*
G01*
X101787583Y-59636819D01*
X101952284Y-59801520D01*
X101952286Y-59801521D01*
X101952290Y-59801524D01*
X102089209Y-59880573D01*
X102089216Y-59880577D01*
X102241943Y-59921501D01*
X102241945Y-59921501D01*
X102407654Y-59921501D01*
X102407670Y-59921500D01*
X103575500Y-59921500D01*
X103642539Y-59941185D01*
X103688294Y-59993989D01*
X103699500Y-60045500D01*
X103699500Y-60078846D01*
X103730261Y-60233489D01*
X103730264Y-60233501D01*
X103790602Y-60379171D01*
X103790612Y-60379189D01*
X103826940Y-60433558D01*
X103847818Y-60500235D01*
X103838351Y-60550017D01*
X103833687Y-60561242D01*
X103820606Y-60580821D01*
X103760263Y-60726503D01*
X103755875Y-60748558D01*
X103751166Y-60759896D01*
X103736616Y-60777912D01*
X103725883Y-60798431D01*
X103715079Y-60804582D01*
X103707269Y-60814255D01*
X103685290Y-60821545D01*
X103665167Y-60833004D01*
X103651364Y-60832798D01*
X103640953Y-60836252D01*
X103626007Y-60832421D01*
X103604560Y-60832102D01*
X103541760Y-60815275D01*
X103439993Y-60788007D01*
X103363315Y-60777912D01*
X103147513Y-60749500D01*
X103147506Y-60749500D01*
X102852494Y-60749500D01*
X102852486Y-60749500D01*
X102574085Y-60786153D01*
X102560007Y-60788007D01*
X102434841Y-60821545D01*
X102275048Y-60864361D01*
X102275038Y-60864364D01*
X102002499Y-60977254D01*
X102002489Y-60977258D01*
X101747006Y-61124761D01*
X101512959Y-61304352D01*
X101512952Y-61304358D01*
X101304358Y-61512952D01*
X101304352Y-61512959D01*
X101124761Y-61747006D01*
X100977258Y-62002489D01*
X100977254Y-62002499D01*
X100864364Y-62275038D01*
X100864361Y-62275048D01*
X100788823Y-62556964D01*
X100788008Y-62560004D01*
X100788006Y-62560015D01*
X100749500Y-62852486D01*
X100749500Y-63147513D01*
X100779873Y-63378210D01*
X100788007Y-63439993D01*
X100862212Y-63716930D01*
X100864361Y-63724951D01*
X100864364Y-63724961D01*
X100977254Y-63997500D01*
X100977258Y-63997510D01*
X101124761Y-64252993D01*
X101304352Y-64487040D01*
X101304358Y-64487047D01*
X101512952Y-64695641D01*
X101512959Y-64695647D01*
X101747006Y-64875238D01*
X102002489Y-65022741D01*
X102002490Y-65022741D01*
X102002493Y-65022743D01*
X102275048Y-65135639D01*
X102350013Y-65155725D01*
X102409673Y-65192090D01*
X102440202Y-65254937D01*
X102431907Y-65324312D01*
X102387422Y-65378190D01*
X102320870Y-65399465D01*
X102317919Y-65399500D01*
X84682081Y-65399500D01*
X84615042Y-65379815D01*
X84569287Y-65327011D01*
X84559343Y-65257853D01*
X84588368Y-65194297D01*
X84647146Y-65156523D01*
X84649956Y-65155733D01*
X84724952Y-65135639D01*
X84997507Y-65022743D01*
X85252994Y-64875238D01*
X85487042Y-64695646D01*
X85695646Y-64487042D01*
X85875238Y-64252994D01*
X86022743Y-63997507D01*
X86135639Y-63724952D01*
X86211993Y-63439993D01*
X86250500Y-63147506D01*
X86250500Y-62913389D01*
X87979500Y-62913389D01*
X87979500Y-63086610D01*
X88001423Y-63225032D01*
X88006598Y-63257701D01*
X88060127Y-63422445D01*
X88138768Y-63576788D01*
X88240586Y-63716928D01*
X88363072Y-63839414D01*
X88503212Y-63941232D01*
X88657555Y-64019873D01*
X88822299Y-64073402D01*
X88993389Y-64100500D01*
X88993390Y-64100500D01*
X89166610Y-64100500D01*
X89166611Y-64100500D01*
X89337701Y-64073402D01*
X89502445Y-64019873D01*
X89656788Y-63941232D01*
X89796928Y-63839414D01*
X89919414Y-63716928D01*
X90021232Y-63576788D01*
X90099873Y-63422445D01*
X90153402Y-63257701D01*
X90180500Y-63086611D01*
X90180500Y-62913389D01*
X90153402Y-62742299D01*
X90099873Y-62577555D01*
X90021232Y-62423212D01*
X89919414Y-62283072D01*
X89796928Y-62160586D01*
X89656788Y-62058768D01*
X89502445Y-61980127D01*
X89337701Y-61926598D01*
X89337699Y-61926597D01*
X89337698Y-61926597D01*
X89206271Y-61905781D01*
X89166611Y-61899500D01*
X88993389Y-61899500D01*
X88953728Y-61905781D01*
X88822302Y-61926597D01*
X88657552Y-61980128D01*
X88503211Y-62058768D01*
X88479019Y-62076345D01*
X88363072Y-62160586D01*
X88363070Y-62160588D01*
X88363069Y-62160588D01*
X88240588Y-62283069D01*
X88240588Y-62283070D01*
X88240586Y-62283072D01*
X88205380Y-62331529D01*
X88138768Y-62423211D01*
X88060128Y-62577552D01*
X88006597Y-62742302D01*
X87979500Y-62913389D01*
X86250500Y-62913389D01*
X86250500Y-62852494D01*
X86211993Y-62560007D01*
X86135639Y-62275048D01*
X86022743Y-62002493D01*
X86021398Y-62000164D01*
X85875238Y-61747006D01*
X85695647Y-61512959D01*
X85695641Y-61512952D01*
X85487047Y-61304358D01*
X85487040Y-61304352D01*
X85252993Y-61124761D01*
X85075967Y-61022555D01*
X85027751Y-60971988D01*
X85014528Y-60903381D01*
X85040496Y-60838516D01*
X85097411Y-60797988D01*
X85113773Y-60793551D01*
X85233497Y-60769737D01*
X85379179Y-60709394D01*
X85433663Y-60672989D01*
X85510875Y-60621398D01*
X85577553Y-60600520D01*
X85579766Y-60600500D01*
X94420234Y-60600500D01*
X94487273Y-60620185D01*
X94489125Y-60621398D01*
X94620814Y-60709390D01*
X94620827Y-60709397D01*
X94749799Y-60762818D01*
X94766503Y-60769737D01*
X94910757Y-60798431D01*
X94921153Y-60800499D01*
X94921156Y-60800500D01*
X94921158Y-60800500D01*
X95078844Y-60800500D01*
X95078845Y-60800499D01*
X95233497Y-60769737D01*
X95379179Y-60709394D01*
X95510289Y-60621789D01*
X95621789Y-60510289D01*
X95709394Y-60379179D01*
X95769737Y-60233497D01*
X95800500Y-60078842D01*
X95800500Y-60045500D01*
X95820185Y-59978461D01*
X95872989Y-59932706D01*
X95924500Y-59921500D01*
X97511432Y-59921500D01*
X97578471Y-59941185D01*
X97624226Y-59993989D01*
X97634170Y-60063147D01*
X97629365Y-60083813D01*
X97628910Y-60085212D01*
X97628910Y-60085213D01*
X97596123Y-60292223D01*
X97589500Y-60334038D01*
X97589500Y-60585962D01*
X97619134Y-60773065D01*
X97628910Y-60834785D01*
X97706760Y-61074383D01*
X97732430Y-61124762D01*
X97810662Y-61278301D01*
X97821132Y-61298848D01*
X97969201Y-61502649D01*
X97969205Y-61502654D01*
X97969207Y-61502656D01*
X98147344Y-61680793D01*
X98147345Y-61680794D01*
X98147344Y-61680794D01*
X98153661Y-61685383D01*
X98196327Y-61740714D01*
X98202305Y-61810327D01*
X98169699Y-61872122D01*
X98108860Y-61906479D01*
X98061378Y-61908174D01*
X98006611Y-61899500D01*
X97833389Y-61899500D01*
X97793728Y-61905781D01*
X97662302Y-61926597D01*
X97497552Y-61980128D01*
X97343211Y-62058768D01*
X97319019Y-62076345D01*
X97203072Y-62160586D01*
X97203070Y-62160588D01*
X97203069Y-62160588D01*
X97080588Y-62283069D01*
X97080588Y-62283070D01*
X97080586Y-62283072D01*
X97045380Y-62331529D01*
X96978768Y-62423211D01*
X96900128Y-62577552D01*
X96846597Y-62742302D01*
X96819500Y-62913389D01*
X96819500Y-63086610D01*
X96841423Y-63225032D01*
X96846598Y-63257701D01*
X96900127Y-63422445D01*
X96978768Y-63576788D01*
X97080586Y-63716928D01*
X97203072Y-63839414D01*
X97343212Y-63941232D01*
X97497555Y-64019873D01*
X97662299Y-64073402D01*
X97833389Y-64100500D01*
X97833390Y-64100500D01*
X98006610Y-64100500D01*
X98006611Y-64100500D01*
X98177701Y-64073402D01*
X98342445Y-64019873D01*
X98496788Y-63941232D01*
X98636928Y-63839414D01*
X98759414Y-63716928D01*
X98861232Y-63576788D01*
X98939873Y-63422445D01*
X98993402Y-63257701D01*
X99020500Y-63086611D01*
X99020500Y-62913389D01*
X98993402Y-62742299D01*
X98939873Y-62577555D01*
X98861232Y-62423212D01*
X98759414Y-62283072D01*
X98707482Y-62231140D01*
X98673997Y-62169817D01*
X98678981Y-62100125D01*
X98720853Y-62044192D01*
X98786317Y-62019775D01*
X98814561Y-62020986D01*
X98815212Y-62021089D01*
X98815215Y-62021090D01*
X99064038Y-62060500D01*
X99064039Y-62060500D01*
X99315961Y-62060500D01*
X99315962Y-62060500D01*
X99564785Y-62021090D01*
X99804379Y-61943241D01*
X100028845Y-61828870D01*
X100232656Y-61680793D01*
X100410793Y-61502656D01*
X100558870Y-61298845D01*
X100673241Y-61074379D01*
X100751090Y-60834785D01*
X100790500Y-60585962D01*
X100790500Y-60334038D01*
X100751090Y-60085215D01*
X100673241Y-59845621D01*
X100673239Y-59845618D01*
X100673238Y-59845613D01*
X100640211Y-59780794D01*
X100627315Y-59712125D01*
X100653592Y-59647385D01*
X100710698Y-59607128D01*
X100750696Y-59600500D01*
X101699902Y-59600500D01*
X101766941Y-59620185D01*
G37*
G04 #@! TD.AperFunction*
G04 #@! TA.AperFunction,NonConductor*
G36*
X109118834Y-57841329D02*
G01*
X109174767Y-57883201D01*
X109199184Y-57948665D01*
X109199500Y-57957511D01*
X109199500Y-58078846D01*
X109230261Y-58233489D01*
X109230264Y-58233501D01*
X109290602Y-58379172D01*
X109290609Y-58379185D01*
X109378210Y-58510288D01*
X109378213Y-58510292D01*
X109489707Y-58621786D01*
X109489711Y-58621789D01*
X109620814Y-58709390D01*
X109620827Y-58709397D01*
X109740207Y-58758845D01*
X109766503Y-58769737D01*
X109831147Y-58782595D01*
X109921849Y-58800638D01*
X109938605Y-58809402D01*
X109957085Y-58813423D01*
X109982123Y-58832167D01*
X109983760Y-58833023D01*
X109985339Y-58834574D01*
X110147154Y-58996389D01*
X110147164Y-58996400D01*
X110263300Y-59112536D01*
X110296178Y-59131517D01*
X110329057Y-59150500D01*
X110337496Y-59155372D01*
X110385713Y-59205935D01*
X110399500Y-59262761D01*
X110399500Y-66496560D01*
X110379815Y-66563599D01*
X110327011Y-66609354D01*
X110257853Y-66619298D01*
X110194297Y-66590273D01*
X110172398Y-66565451D01*
X110121789Y-66489711D01*
X110121786Y-66489707D01*
X110010292Y-66378213D01*
X110010288Y-66378210D01*
X109879185Y-66290609D01*
X109879172Y-66290602D01*
X109733501Y-66230264D01*
X109733491Y-66230261D01*
X109578151Y-66199362D01*
X109516241Y-66166977D01*
X109514662Y-66165426D01*
X108987590Y-65638355D01*
X108987588Y-65638352D01*
X108868717Y-65519481D01*
X108868716Y-65519480D01*
X108781904Y-65469360D01*
X108781904Y-65469359D01*
X108781900Y-65469358D01*
X108731785Y-65440423D01*
X108579057Y-65399499D01*
X108420943Y-65399499D01*
X108413347Y-65399499D01*
X108413331Y-65399500D01*
X103682081Y-65399500D01*
X103615042Y-65379815D01*
X103569287Y-65327011D01*
X103559343Y-65257853D01*
X103588368Y-65194297D01*
X103647146Y-65156523D01*
X103649956Y-65155733D01*
X103724952Y-65135639D01*
X103997507Y-65022743D01*
X104252994Y-64875238D01*
X104487042Y-64695646D01*
X104695646Y-64487042D01*
X104875238Y-64252994D01*
X105022743Y-63997507D01*
X105135639Y-63724952D01*
X105211993Y-63439993D01*
X105250500Y-63147506D01*
X105250500Y-62913389D01*
X106979500Y-62913389D01*
X106979500Y-63086610D01*
X107001423Y-63225032D01*
X107006598Y-63257701D01*
X107060127Y-63422445D01*
X107138768Y-63576788D01*
X107240586Y-63716928D01*
X107363072Y-63839414D01*
X107503212Y-63941232D01*
X107657555Y-64019873D01*
X107822299Y-64073402D01*
X107993389Y-64100500D01*
X107993390Y-64100500D01*
X108166610Y-64100500D01*
X108166611Y-64100500D01*
X108337701Y-64073402D01*
X108502445Y-64019873D01*
X108656788Y-63941232D01*
X108796928Y-63839414D01*
X108919414Y-63716928D01*
X109021232Y-63576788D01*
X109099873Y-63422445D01*
X109153402Y-63257701D01*
X109180500Y-63086611D01*
X109180500Y-62913389D01*
X109153402Y-62742299D01*
X109099873Y-62577555D01*
X109021232Y-62423212D01*
X108919414Y-62283072D01*
X108796928Y-62160586D01*
X108656788Y-62058768D01*
X108502445Y-61980127D01*
X108337701Y-61926598D01*
X108337699Y-61926597D01*
X108337698Y-61926597D01*
X108206271Y-61905781D01*
X108166611Y-61899500D01*
X107993389Y-61899500D01*
X107953728Y-61905781D01*
X107822302Y-61926597D01*
X107657552Y-61980128D01*
X107503211Y-62058768D01*
X107479019Y-62076345D01*
X107363072Y-62160586D01*
X107363070Y-62160588D01*
X107363069Y-62160588D01*
X107240588Y-62283069D01*
X107240588Y-62283070D01*
X107240586Y-62283072D01*
X107205380Y-62331529D01*
X107138768Y-62423211D01*
X107060128Y-62577552D01*
X107006597Y-62742302D01*
X106979500Y-62913389D01*
X105250500Y-62913389D01*
X105250500Y-62852494D01*
X105211993Y-62560007D01*
X105135639Y-62275048D01*
X105022743Y-62002493D01*
X104910419Y-61807942D01*
X104909254Y-61803138D01*
X104905950Y-61799460D01*
X104901099Y-61769524D01*
X104893947Y-61740044D01*
X104895564Y-61735369D01*
X104894774Y-61730490D01*
X104906879Y-61702679D01*
X104916800Y-61674017D01*
X104921225Y-61669720D01*
X104922660Y-61666426D01*
X104948913Y-61642844D01*
X105040289Y-61581789D01*
X105040288Y-61581789D01*
X105040876Y-61581397D01*
X105107554Y-61560520D01*
X105109766Y-61560500D01*
X106953331Y-61560500D01*
X106953347Y-61560501D01*
X106960943Y-61560501D01*
X107119054Y-61560501D01*
X107119057Y-61560501D01*
X107271785Y-61519577D01*
X107326031Y-61488258D01*
X107326032Y-61488258D01*
X107408709Y-61440524D01*
X107408708Y-61440524D01*
X107408716Y-61440520D01*
X107520520Y-61328716D01*
X107520520Y-61328714D01*
X107530724Y-61318511D01*
X107530728Y-61318506D01*
X108368713Y-60480521D01*
X108368716Y-60480520D01*
X108480520Y-60368716D01*
X108530639Y-60281904D01*
X108559577Y-60231785D01*
X108600501Y-60079057D01*
X108600501Y-59920943D01*
X108600501Y-59913348D01*
X108600500Y-59913330D01*
X108600500Y-58308511D01*
X108620185Y-58241472D01*
X108636819Y-58220830D01*
X108987819Y-57869830D01*
X109049142Y-57836345D01*
X109118834Y-57841329D01*
G37*
G04 #@! TD.AperFunction*
G04 #@! TA.AperFunction,NonConductor*
G36*
X138029061Y-67610043D02*
G01*
X138061728Y-67619005D01*
X138062497Y-67619861D01*
X138063600Y-67620185D01*
X138085768Y-67645769D01*
X138108418Y-67670984D01*
X138108602Y-67672120D01*
X138109355Y-67672989D01*
X138114176Y-67706520D01*
X138119594Y-67739954D01*
X138119135Y-67741007D01*
X138119299Y-67742147D01*
X138105218Y-67772978D01*
X138091708Y-67804017D01*
X138090582Y-67805028D01*
X138090274Y-67805703D01*
X138065452Y-67827602D01*
X137989125Y-67878602D01*
X137922447Y-67899480D01*
X137920234Y-67899500D01*
X135003439Y-67899500D01*
X134936400Y-67879815D01*
X134890645Y-67827011D01*
X134880701Y-67757853D01*
X134909726Y-67694297D01*
X134934548Y-67672398D01*
X135010875Y-67621398D01*
X135077553Y-67600520D01*
X135079766Y-67600500D01*
X137996561Y-67600500D01*
X138029061Y-67610043D01*
G37*
G04 #@! TD.AperFunction*
G04 #@! TA.AperFunction,NonConductor*
G36*
X134482105Y-65971185D02*
G01*
X134497575Y-65989038D01*
X134499630Y-65985504D01*
X134561827Y-65953672D01*
X134584934Y-65951500D01*
X141062903Y-65951500D01*
X141129942Y-65971185D01*
X141150584Y-65987819D01*
X142397662Y-67234897D01*
X142431147Y-67296220D01*
X142426163Y-67365912D01*
X142397662Y-67410259D01*
X142321259Y-67486662D01*
X142259936Y-67520147D01*
X142190244Y-67515163D01*
X142145897Y-67486662D01*
X141297590Y-66638355D01*
X141297588Y-66638352D01*
X141178717Y-66519481D01*
X141178716Y-66519480D01*
X141091904Y-66469360D01*
X141091904Y-66469359D01*
X141091900Y-66469358D01*
X141041785Y-66440423D01*
X140889057Y-66399499D01*
X140730943Y-66399499D01*
X140723347Y-66399499D01*
X140723331Y-66399500D01*
X135079766Y-66399500D01*
X135012727Y-66379815D01*
X135010875Y-66378602D01*
X134879185Y-66290609D01*
X134879172Y-66290602D01*
X134733501Y-66230264D01*
X134733489Y-66230261D01*
X134578846Y-66199500D01*
X134572782Y-66198903D01*
X134507994Y-66172743D01*
X134500436Y-66162064D01*
X134450001Y-66194477D01*
X134427218Y-66198903D01*
X134421153Y-66199500D01*
X134266510Y-66230261D01*
X134266498Y-66230264D01*
X134120827Y-66290602D01*
X134120814Y-66290609D01*
X133989711Y-66378210D01*
X133989707Y-66378213D01*
X133878213Y-66489707D01*
X133878210Y-66489711D01*
X133790609Y-66620814D01*
X133790602Y-66620827D01*
X133730264Y-66766498D01*
X133730261Y-66766510D01*
X133699500Y-66921153D01*
X133699500Y-67078846D01*
X133730261Y-67233489D01*
X133730264Y-67233501D01*
X133790602Y-67379172D01*
X133790609Y-67379185D01*
X133878210Y-67510288D01*
X133878213Y-67510292D01*
X133989707Y-67621786D01*
X133989711Y-67621789D01*
X134065452Y-67672398D01*
X134110257Y-67726010D01*
X134118964Y-67795335D01*
X134088810Y-67858363D01*
X134029366Y-67895082D01*
X133996561Y-67899500D01*
X133033243Y-67899500D01*
X132966204Y-67879815D01*
X132945562Y-67863181D01*
X132844286Y-67761905D01*
X132672320Y-67636966D01*
X132671615Y-67636606D01*
X132663554Y-67632500D01*
X132612759Y-67584527D01*
X132595963Y-67516707D01*
X132618499Y-67450571D01*
X132663554Y-67411530D01*
X132672316Y-67407066D01*
X132696159Y-67389743D01*
X132844286Y-67282124D01*
X132844288Y-67282121D01*
X132844292Y-67282119D01*
X132994604Y-67131807D01*
X132994606Y-67131803D01*
X132994609Y-67131801D01*
X133119548Y-66959835D01*
X133119547Y-66959835D01*
X133119551Y-66959831D01*
X133216057Y-66770427D01*
X133281746Y-66568258D01*
X133315000Y-66358302D01*
X133315000Y-66145728D01*
X133306949Y-66094897D01*
X133315903Y-66025605D01*
X133360899Y-65972153D01*
X133427651Y-65951513D01*
X133429422Y-65951500D01*
X134415066Y-65951500D01*
X134482105Y-65971185D01*
G37*
G04 #@! TD.AperFunction*
G04 #@! TA.AperFunction,NonConductor*
G36*
X110358363Y-67411190D02*
G01*
X110395082Y-67470634D01*
X110399500Y-67503439D01*
X110399500Y-68102044D01*
X110379815Y-68169083D01*
X110327011Y-68214838D01*
X110299691Y-68223661D01*
X110266510Y-68230261D01*
X110266498Y-68230264D01*
X110120827Y-68290602D01*
X110120816Y-68290608D01*
X110007059Y-68366618D01*
X109940382Y-68387495D01*
X109873002Y-68369010D01*
X109850488Y-68351196D01*
X109510129Y-68010837D01*
X109476644Y-67949514D01*
X109481628Y-67879822D01*
X109523500Y-67823889D01*
X109573619Y-67801539D01*
X109578842Y-67800500D01*
X109733497Y-67769737D01*
X109879179Y-67709394D01*
X110010289Y-67621789D01*
X110121789Y-67510289D01*
X110152730Y-67463981D01*
X110172398Y-67434548D01*
X110226010Y-67389743D01*
X110295335Y-67381036D01*
X110358363Y-67411190D01*
G37*
G04 #@! TD.AperFunction*
G04 #@! TA.AperFunction,NonConductor*
G36*
X140576942Y-67620185D02*
G01*
X140597584Y-67636819D01*
X142047584Y-69086819D01*
X142081069Y-69148142D01*
X142076085Y-69217834D01*
X142034213Y-69273767D01*
X141968749Y-69298184D01*
X141959903Y-69298500D01*
X139132941Y-69298500D01*
X139065902Y-69278815D01*
X139020147Y-69226011D01*
X139010203Y-69156853D01*
X139039228Y-69093297D01*
X139045260Y-69086819D01*
X139121786Y-69010292D01*
X139121789Y-69010289D01*
X139209394Y-68879179D01*
X139269737Y-68733497D01*
X139300500Y-68578842D01*
X139300500Y-68421158D01*
X139300500Y-68421155D01*
X139300499Y-68421153D01*
X139289651Y-68366618D01*
X139269737Y-68266503D01*
X139256062Y-68233489D01*
X139209397Y-68120827D01*
X139209390Y-68120814D01*
X139121789Y-67989711D01*
X139121786Y-67989707D01*
X139010292Y-67878213D01*
X139010288Y-67878210D01*
X138934548Y-67827602D01*
X138889743Y-67773990D01*
X138881036Y-67704665D01*
X138911190Y-67641637D01*
X138970634Y-67604918D01*
X139003439Y-67600500D01*
X140509903Y-67600500D01*
X140576942Y-67620185D01*
G37*
G04 #@! TD.AperFunction*
G04 #@! TA.AperFunction,NonConductor*
G36*
X136522626Y-69120185D02*
G01*
X136568381Y-69172989D01*
X136578325Y-69242147D01*
X136549300Y-69305703D01*
X136508901Y-69334834D01*
X136509204Y-69335359D01*
X136504036Y-69338342D01*
X136503040Y-69339061D01*
X136502161Y-69339424D01*
X136365240Y-69418475D01*
X136365232Y-69418481D01*
X136253430Y-69530284D01*
X136239518Y-69544196D01*
X136209055Y-69560830D01*
X136178199Y-69577680D01*
X136178196Y-69577680D01*
X136178195Y-69577681D01*
X136178191Y-69577680D01*
X136151837Y-69580515D01*
X133280790Y-69580515D01*
X133213751Y-69560830D01*
X133167996Y-69508026D01*
X133158052Y-69438868D01*
X133170305Y-69400220D01*
X133203354Y-69335359D01*
X133216057Y-69310427D01*
X133256427Y-69186180D01*
X133295865Y-69128506D01*
X133360224Y-69101308D01*
X133374358Y-69100500D01*
X136455587Y-69100500D01*
X136522626Y-69120185D01*
G37*
G04 #@! TD.AperFunction*
G04 #@! TA.AperFunction,NonConductor*
G36*
X122903083Y-59252200D02*
G01*
X122948838Y-59305004D01*
X122958782Y-59374162D01*
X122929757Y-59437718D01*
X122923725Y-59444196D01*
X122878213Y-59489707D01*
X122878210Y-59489711D01*
X122790609Y-59620814D01*
X122790602Y-59620827D01*
X122730264Y-59766498D01*
X122730261Y-59766510D01*
X122699500Y-59921153D01*
X122699500Y-60078846D01*
X122730261Y-60233489D01*
X122730264Y-60233501D01*
X122790602Y-60379172D01*
X122790609Y-60379185D01*
X122878210Y-60510288D01*
X122878213Y-60510292D01*
X122989707Y-60621786D01*
X122989711Y-60621789D01*
X123120814Y-60709390D01*
X123120827Y-60709397D01*
X123249799Y-60762818D01*
X123266503Y-60769737D01*
X123410757Y-60798431D01*
X123421153Y-60800499D01*
X123421156Y-60800500D01*
X123421158Y-60800500D01*
X123578844Y-60800500D01*
X123578845Y-60800499D01*
X123733497Y-60769737D01*
X123879179Y-60709394D01*
X123933663Y-60672989D01*
X124010875Y-60621398D01*
X124077553Y-60600520D01*
X124079766Y-60600500D01*
X128659526Y-60600500D01*
X128726565Y-60620185D01*
X128772320Y-60672989D01*
X128782264Y-60742147D01*
X128777457Y-60762815D01*
X128765213Y-60800500D01*
X128747253Y-60855775D01*
X128714000Y-61065728D01*
X128714000Y-61278301D01*
X128739693Y-61440524D01*
X128747254Y-61488258D01*
X128809814Y-61680798D01*
X128812944Y-61690429D01*
X128909451Y-61879835D01*
X129034390Y-62051801D01*
X129184713Y-62202124D01*
X129356682Y-62327065D01*
X129365446Y-62331531D01*
X129416242Y-62379506D01*
X129433036Y-62447327D01*
X129410498Y-62513462D01*
X129365446Y-62552499D01*
X129356682Y-62556964D01*
X129184713Y-62681905D01*
X129034390Y-62832228D01*
X128909451Y-63004194D01*
X128812944Y-63193600D01*
X128812943Y-63193602D01*
X128812943Y-63193603D01*
X128792116Y-63257701D01*
X128747253Y-63395775D01*
X128714000Y-63605728D01*
X128714000Y-63818301D01*
X128745925Y-64019871D01*
X128747254Y-64028258D01*
X128780799Y-64131499D01*
X128812944Y-64230429D01*
X128909451Y-64419835D01*
X129034390Y-64591801D01*
X129184713Y-64742124D01*
X129356682Y-64867065D01*
X129365446Y-64871531D01*
X129416242Y-64919506D01*
X129433036Y-64987327D01*
X129410498Y-65053462D01*
X129365446Y-65092499D01*
X129356682Y-65096964D01*
X129184713Y-65221905D01*
X129034390Y-65372228D01*
X128909451Y-65544194D01*
X128812944Y-65733600D01*
X128747253Y-65935775D01*
X128724560Y-66079054D01*
X128714000Y-66145728D01*
X128714000Y-66358302D01*
X128725397Y-66430261D01*
X128729490Y-66456099D01*
X128720536Y-66525392D01*
X128675540Y-66578844D01*
X128608788Y-66599484D01*
X128607017Y-66599497D01*
X120424500Y-66599497D01*
X120357461Y-66579812D01*
X120311706Y-66527008D01*
X120300500Y-66475497D01*
X120300500Y-66421155D01*
X120300499Y-66421153D01*
X120291957Y-66378210D01*
X120269737Y-66266503D01*
X120255357Y-66231787D01*
X120209397Y-66120827D01*
X120209390Y-66120814D01*
X120121789Y-65989711D01*
X120121786Y-65989707D01*
X120010292Y-65878213D01*
X120010288Y-65878210D01*
X119879185Y-65790609D01*
X119879172Y-65790602D01*
X119733501Y-65730264D01*
X119733489Y-65730261D01*
X119700309Y-65723661D01*
X119638398Y-65691276D01*
X119603824Y-65630561D01*
X119600500Y-65602044D01*
X119600500Y-64579765D01*
X119620185Y-64512726D01*
X119621398Y-64510874D01*
X119637324Y-64487040D01*
X119709394Y-64379179D01*
X119769737Y-64233497D01*
X119793551Y-64113775D01*
X119825935Y-64051865D01*
X119886651Y-64017291D01*
X119956420Y-64021030D01*
X120013093Y-64061896D01*
X120022555Y-64075967D01*
X120124761Y-64252993D01*
X120304352Y-64487040D01*
X120304358Y-64487047D01*
X120512952Y-64695641D01*
X120512959Y-64695647D01*
X120747006Y-64875238D01*
X121002489Y-65022741D01*
X121002490Y-65022741D01*
X121002493Y-65022743D01*
X121275048Y-65135639D01*
X121560007Y-65211993D01*
X121852494Y-65250500D01*
X121852501Y-65250500D01*
X122147499Y-65250500D01*
X122147506Y-65250500D01*
X122439993Y-65211993D01*
X122724952Y-65135639D01*
X122997507Y-65022743D01*
X123252994Y-64875238D01*
X123487042Y-64695646D01*
X123695646Y-64487042D01*
X123875238Y-64252994D01*
X124022743Y-63997507D01*
X124135639Y-63724952D01*
X124211993Y-63439993D01*
X124250500Y-63147506D01*
X124250500Y-62913389D01*
X125979500Y-62913389D01*
X125979500Y-63086610D01*
X126001423Y-63225032D01*
X126006598Y-63257701D01*
X126060127Y-63422445D01*
X126138768Y-63576788D01*
X126240586Y-63716928D01*
X126363072Y-63839414D01*
X126503212Y-63941232D01*
X126657555Y-64019873D01*
X126822299Y-64073402D01*
X126993389Y-64100500D01*
X126993390Y-64100500D01*
X127166610Y-64100500D01*
X127166611Y-64100500D01*
X127337701Y-64073402D01*
X127502445Y-64019873D01*
X127656788Y-63941232D01*
X127796928Y-63839414D01*
X127919414Y-63716928D01*
X128021232Y-63576788D01*
X128099873Y-63422445D01*
X128153402Y-63257701D01*
X128180500Y-63086611D01*
X128180500Y-62913389D01*
X128153402Y-62742299D01*
X128099873Y-62577555D01*
X128021232Y-62423212D01*
X127919414Y-62283072D01*
X127796928Y-62160586D01*
X127656788Y-62058768D01*
X127502445Y-61980127D01*
X127337701Y-61926598D01*
X127337699Y-61926597D01*
X127337698Y-61926597D01*
X127206271Y-61905781D01*
X127166611Y-61899500D01*
X126993389Y-61899500D01*
X126953728Y-61905781D01*
X126822302Y-61926597D01*
X126657552Y-61980128D01*
X126503211Y-62058768D01*
X126479019Y-62076345D01*
X126363072Y-62160586D01*
X126363070Y-62160588D01*
X126363069Y-62160588D01*
X126240588Y-62283069D01*
X126240588Y-62283070D01*
X126240586Y-62283072D01*
X126205380Y-62331529D01*
X126138768Y-62423211D01*
X126060128Y-62577552D01*
X126006597Y-62742302D01*
X125979500Y-62913389D01*
X124250500Y-62913389D01*
X124250500Y-62852494D01*
X124211993Y-62560007D01*
X124135639Y-62275048D01*
X124022743Y-62002493D01*
X124021398Y-62000164D01*
X123875238Y-61747006D01*
X123695647Y-61512959D01*
X123695641Y-61512952D01*
X123487047Y-61304358D01*
X123487040Y-61304352D01*
X123252993Y-61124761D01*
X122997510Y-60977258D01*
X122997500Y-60977254D01*
X122724961Y-60864364D01*
X122724954Y-60864362D01*
X122724952Y-60864361D01*
X122439993Y-60788007D01*
X122363315Y-60777912D01*
X122147513Y-60749500D01*
X122147506Y-60749500D01*
X121852494Y-60749500D01*
X121852486Y-60749500D01*
X121574085Y-60786153D01*
X121560007Y-60788007D01*
X121434841Y-60821545D01*
X121275048Y-60864361D01*
X121275038Y-60864364D01*
X121002499Y-60977254D01*
X121002489Y-60977258D01*
X120747006Y-61124761D01*
X120512959Y-61304352D01*
X120512952Y-61304358D01*
X120304358Y-61512952D01*
X120304352Y-61512959D01*
X120124761Y-61747006D01*
X119977258Y-62002489D01*
X119977254Y-62002499D01*
X119864364Y-62275038D01*
X119864361Y-62275048D01*
X119788823Y-62556964D01*
X119788008Y-62560004D01*
X119788006Y-62560015D01*
X119749500Y-62852486D01*
X119749500Y-63147499D01*
X119749501Y-63147515D01*
X119773065Y-63326500D01*
X119762299Y-63395535D01*
X119715920Y-63447791D01*
X119648651Y-63466676D01*
X119581850Y-63446195D01*
X119562445Y-63430366D01*
X119510292Y-63378213D01*
X119510288Y-63378210D01*
X119379185Y-63290609D01*
X119379172Y-63290602D01*
X119233501Y-63230264D01*
X119233489Y-63230261D01*
X119078845Y-63199500D01*
X119078842Y-63199500D01*
X118921158Y-63199500D01*
X118921155Y-63199500D01*
X118766510Y-63230261D01*
X118766498Y-63230264D01*
X118620827Y-63290602D01*
X118620814Y-63290609D01*
X118489711Y-63378210D01*
X118489707Y-63378213D01*
X118378213Y-63489707D01*
X118378210Y-63489711D01*
X118290609Y-63620814D01*
X118290602Y-63620827D01*
X118230264Y-63766498D01*
X118230261Y-63766510D01*
X118199500Y-63921153D01*
X118199500Y-64078846D01*
X118230261Y-64233489D01*
X118230264Y-64233501D01*
X118290602Y-64379172D01*
X118290609Y-64379185D01*
X118378602Y-64510874D01*
X118399480Y-64577551D01*
X118399500Y-64579765D01*
X118399500Y-65913330D01*
X118399499Y-65913348D01*
X118399499Y-66079054D01*
X118399498Y-66079054D01*
X118399499Y-66079057D01*
X118440015Y-66230264D01*
X118440424Y-66231787D01*
X118443533Y-66239293D01*
X118441491Y-66240138D01*
X118455244Y-66296824D01*
X118432391Y-66362851D01*
X118377470Y-66406042D01*
X118355576Y-66412541D01*
X118266508Y-66430258D01*
X118266498Y-66430261D01*
X118120827Y-66490599D01*
X118120814Y-66490606D01*
X117989711Y-66578207D01*
X117989707Y-66578210D01*
X117878213Y-66689704D01*
X117878210Y-66689708D01*
X117790609Y-66820811D01*
X117790602Y-66820824D01*
X117730264Y-66966495D01*
X117730261Y-66966507D01*
X117699500Y-67121150D01*
X117699500Y-67278843D01*
X117730261Y-67433486D01*
X117730264Y-67433498D01*
X117779575Y-67552546D01*
X117787044Y-67622015D01*
X117779575Y-67647450D01*
X117730264Y-67766498D01*
X117730261Y-67766510D01*
X117699500Y-67921153D01*
X117699500Y-68078846D01*
X117730261Y-68233489D01*
X117730264Y-68233501D01*
X117790602Y-68379172D01*
X117790609Y-68379185D01*
X117878210Y-68510288D01*
X117878213Y-68510292D01*
X117989707Y-68621786D01*
X117989711Y-68621789D01*
X118120814Y-68709390D01*
X118120827Y-68709397D01*
X118266498Y-68769735D01*
X118266503Y-68769737D01*
X118421158Y-68800500D01*
X118421847Y-68800637D01*
X118483758Y-68833022D01*
X118485337Y-68834573D01*
X118631284Y-68980520D01*
X118631286Y-68980521D01*
X118631290Y-68980524D01*
X118768211Y-69059575D01*
X118769090Y-69059939D01*
X118769716Y-69060444D01*
X118775254Y-69063641D01*
X118774755Y-69064504D01*
X118823494Y-69103781D01*
X118845558Y-69170075D01*
X118828278Y-69237774D01*
X118777141Y-69285384D01*
X118721637Y-69298500D01*
X117654890Y-69298500D01*
X117618963Y-69308126D01*
X117618964Y-69308127D01*
X117502164Y-69339423D01*
X117502159Y-69339426D01*
X117365240Y-69418475D01*
X117365232Y-69418481D01*
X117253430Y-69530284D01*
X117239518Y-69544196D01*
X117209055Y-69560830D01*
X117178199Y-69577680D01*
X117178196Y-69577680D01*
X117178195Y-69577681D01*
X117178191Y-69577680D01*
X117151837Y-69580515D01*
X116030790Y-69580515D01*
X115963751Y-69560830D01*
X115917996Y-69508026D01*
X115908052Y-69438868D01*
X115920305Y-69400220D01*
X115936297Y-69368834D01*
X115966057Y-69310427D01*
X116031746Y-69108258D01*
X116065000Y-68898302D01*
X116065000Y-68685728D01*
X116031746Y-68475772D01*
X115966057Y-68273603D01*
X115869551Y-68084199D01*
X115869549Y-68084196D01*
X115869548Y-68084194D01*
X115744609Y-67912228D01*
X115594286Y-67761905D01*
X115422320Y-67636966D01*
X115421615Y-67636606D01*
X115413554Y-67632500D01*
X115362759Y-67584527D01*
X115345963Y-67516707D01*
X115368499Y-67450571D01*
X115413554Y-67411530D01*
X115422316Y-67407066D01*
X115446159Y-67389743D01*
X115594286Y-67282124D01*
X115594288Y-67282121D01*
X115594292Y-67282119D01*
X115744604Y-67131807D01*
X115744606Y-67131803D01*
X115744609Y-67131801D01*
X115869548Y-66959835D01*
X115869547Y-66959835D01*
X115869551Y-66959831D01*
X115966057Y-66770427D01*
X116031746Y-66568258D01*
X116065000Y-66358302D01*
X116065000Y-66145728D01*
X116031746Y-65935772D01*
X115966057Y-65733603D01*
X115869551Y-65544199D01*
X115869549Y-65544196D01*
X115869548Y-65544194D01*
X115744609Y-65372228D01*
X115594290Y-65221909D01*
X115594285Y-65221905D01*
X115420640Y-65095745D01*
X115377974Y-65040415D01*
X115371995Y-64970802D01*
X115404600Y-64909007D01*
X115437230Y-64884943D01*
X115472316Y-64867066D01*
X115472315Y-64867066D01*
X115472318Y-64867065D01*
X115644286Y-64742124D01*
X115644288Y-64742121D01*
X115644292Y-64742119D01*
X115794604Y-64591807D01*
X115794606Y-64591803D01*
X115794609Y-64591801D01*
X115919548Y-64419835D01*
X115919547Y-64419835D01*
X115919551Y-64419831D01*
X116016057Y-64230427D01*
X116081746Y-64028258D01*
X116089435Y-63979705D01*
X116119363Y-63916575D01*
X116178674Y-63879643D01*
X116248537Y-63880639D01*
X116284794Y-63898789D01*
X116343207Y-63941229D01*
X116343209Y-63941230D01*
X116343212Y-63941232D01*
X116497555Y-64019873D01*
X116662299Y-64073402D01*
X116833389Y-64100500D01*
X116833390Y-64100500D01*
X117006610Y-64100500D01*
X117006611Y-64100500D01*
X117177701Y-64073402D01*
X117342445Y-64019873D01*
X117496788Y-63941232D01*
X117636928Y-63839414D01*
X117759414Y-63716928D01*
X117861232Y-63576788D01*
X117939873Y-63422445D01*
X117993402Y-63257701D01*
X118020500Y-63086611D01*
X118020500Y-62913389D01*
X117993402Y-62742299D01*
X117939873Y-62577555D01*
X117861232Y-62423212D01*
X117759414Y-62283072D01*
X117707482Y-62231140D01*
X117673997Y-62169817D01*
X117678981Y-62100125D01*
X117720853Y-62044192D01*
X117786317Y-62019775D01*
X117814561Y-62020986D01*
X117815212Y-62021089D01*
X117815215Y-62021090D01*
X118064038Y-62060500D01*
X118064039Y-62060500D01*
X118315961Y-62060500D01*
X118315962Y-62060500D01*
X118564785Y-62021090D01*
X118804379Y-61943241D01*
X119028845Y-61828870D01*
X119232656Y-61680793D01*
X119410793Y-61502656D01*
X119558870Y-61298845D01*
X119673241Y-61074379D01*
X119751090Y-60834785D01*
X119790500Y-60585962D01*
X119790500Y-60334038D01*
X119751090Y-60085215D01*
X119673241Y-59845621D01*
X119673239Y-59845618D01*
X119673239Y-59845616D01*
X119605221Y-59712125D01*
X119558870Y-59621155D01*
X119510468Y-59554535D01*
X119419553Y-59429400D01*
X119396073Y-59363594D01*
X119411899Y-59295540D01*
X119462004Y-59246845D01*
X119519871Y-59232515D01*
X122836044Y-59232515D01*
X122903083Y-59252200D01*
G37*
G04 #@! TD.AperFunction*
G04 #@! TA.AperFunction,NonConductor*
G36*
X137218702Y-56370185D02*
G01*
X137239301Y-56388945D01*
X137240260Y-56387987D01*
X137245561Y-56393288D01*
X137245563Y-56393291D01*
X137366709Y-56514437D01*
X137513327Y-56603071D01*
X137513330Y-56603072D01*
X137513329Y-56603072D01*
X137570266Y-56620814D01*
X137676896Y-56654041D01*
X137747974Y-56660500D01*
X137747977Y-56660500D01*
X138852023Y-56660500D01*
X138852026Y-56660500D01*
X138923104Y-56654041D01*
X138932323Y-56651167D01*
X139002180Y-56650012D01*
X139056899Y-56681870D01*
X139059540Y-56684511D01*
X139115489Y-56740460D01*
X139115491Y-56740461D01*
X139115495Y-56740464D01*
X139160588Y-56766498D01*
X139184011Y-56780021D01*
X139260438Y-56800500D01*
X142131673Y-56800500D01*
X142198712Y-56820185D01*
X142244467Y-56872989D01*
X142254411Y-56942147D01*
X142231992Y-56997385D01*
X142171129Y-57081155D01*
X142056760Y-57305616D01*
X141978910Y-57545214D01*
X141960797Y-57659575D01*
X141939500Y-57794038D01*
X141939500Y-58045962D01*
X141972949Y-58257149D01*
X141978910Y-58294785D01*
X142056760Y-58534383D01*
X142106135Y-58631285D01*
X142160662Y-58738301D01*
X142171132Y-58758848D01*
X142319201Y-58962649D01*
X142319205Y-58962654D01*
X142497345Y-59140794D01*
X142497350Y-59140798D01*
X142643312Y-59246845D01*
X142701155Y-59288870D01*
X142826262Y-59352615D01*
X142925616Y-59403239D01*
X142925618Y-59403239D01*
X142925621Y-59403241D01*
X143165215Y-59481090D01*
X143414038Y-59520500D01*
X143414039Y-59520500D01*
X143665961Y-59520500D01*
X143665962Y-59520500D01*
X143914785Y-59481090D01*
X144154379Y-59403241D01*
X144378845Y-59288870D01*
X144582656Y-59140793D01*
X144760793Y-58962656D01*
X144908870Y-58758845D01*
X145023241Y-58534379D01*
X145101090Y-58294785D01*
X145103280Y-58280956D01*
X145133204Y-58217823D01*
X145192514Y-58180888D01*
X145262377Y-58181882D01*
X145313434Y-58212669D01*
X146644181Y-59543416D01*
X146677666Y-59604739D01*
X146680500Y-59631097D01*
X146680500Y-61868500D01*
X146660815Y-61935539D01*
X146608011Y-61981294D01*
X146538853Y-61991238D01*
X146507271Y-61981228D01*
X146506954Y-61981994D01*
X146502452Y-61980129D01*
X146352335Y-61931353D01*
X146337701Y-61926598D01*
X146337699Y-61926597D01*
X146337698Y-61926597D01*
X146206271Y-61905781D01*
X146166611Y-61899500D01*
X145993389Y-61899500D01*
X145953728Y-61905781D01*
X145822302Y-61926597D01*
X145657552Y-61980128D01*
X145503211Y-62058768D01*
X145479019Y-62076345D01*
X145363072Y-62160586D01*
X145363070Y-62160588D01*
X145363069Y-62160588D01*
X145240588Y-62283069D01*
X145240588Y-62283070D01*
X145240586Y-62283072D01*
X145205380Y-62331529D01*
X145138768Y-62423211D01*
X145060128Y-62577552D01*
X145006597Y-62742302D01*
X144979500Y-62913389D01*
X144979500Y-63086610D01*
X145001423Y-63225032D01*
X145006598Y-63257701D01*
X145060127Y-63422445D01*
X145138768Y-63576788D01*
X145240586Y-63716928D01*
X145363072Y-63839414D01*
X145503212Y-63941232D01*
X145657555Y-64019873D01*
X145822299Y-64073402D01*
X145993389Y-64100500D01*
X145993390Y-64100500D01*
X146166610Y-64100500D01*
X146166611Y-64100500D01*
X146337701Y-64073402D01*
X146502445Y-64019873D01*
X146502448Y-64019870D01*
X146502452Y-64019870D01*
X146506954Y-64018006D01*
X146507625Y-64019626D01*
X146568852Y-64008116D01*
X146633597Y-64034380D01*
X146673864Y-64091479D01*
X146680500Y-64131499D01*
X146680500Y-69568038D01*
X146679639Y-69570967D01*
X146680360Y-69573937D01*
X146669857Y-69604283D01*
X146660815Y-69635077D01*
X146658507Y-69637076D01*
X146657508Y-69639964D01*
X146632266Y-69659814D01*
X146608011Y-69680832D01*
X146604988Y-69681266D01*
X146602587Y-69683155D01*
X146570632Y-69686206D01*
X146538853Y-69690776D01*
X146536073Y-69689506D01*
X146533034Y-69689797D01*
X146504503Y-69675089D01*
X146475297Y-69661751D01*
X146472826Y-69658759D01*
X146470931Y-69657782D01*
X146449113Y-69630039D01*
X146421917Y-69582934D01*
X146391520Y-69530284D01*
X146279716Y-69418480D01*
X146279715Y-69418479D01*
X146275385Y-69414149D01*
X146275374Y-69414139D01*
X142039800Y-65178565D01*
X142006315Y-65117242D01*
X142011299Y-65047550D01*
X142053171Y-64991617D01*
X142065460Y-64983509D01*
X142252994Y-64875238D01*
X142487042Y-64695646D01*
X142695646Y-64487042D01*
X142875238Y-64252994D01*
X143022743Y-63997507D01*
X143135639Y-63724952D01*
X143211993Y-63439993D01*
X143250500Y-63147506D01*
X143250500Y-62852494D01*
X143211993Y-62560007D01*
X143135639Y-62275048D01*
X143022743Y-62002493D01*
X143021398Y-62000164D01*
X142875238Y-61747006D01*
X142695647Y-61512959D01*
X142695641Y-61512952D01*
X142487047Y-61304358D01*
X142487040Y-61304352D01*
X142252993Y-61124761D01*
X141997510Y-60977258D01*
X141997500Y-60977254D01*
X141724961Y-60864364D01*
X141724954Y-60864362D01*
X141724952Y-60864361D01*
X141439993Y-60788007D01*
X141363315Y-60777912D01*
X141147513Y-60749500D01*
X141147506Y-60749500D01*
X140852494Y-60749500D01*
X140852486Y-60749500D01*
X140574085Y-60786153D01*
X140560007Y-60788007D01*
X140434841Y-60821545D01*
X140275048Y-60864361D01*
X140275038Y-60864364D01*
X140002499Y-60977254D01*
X140002489Y-60977258D01*
X139747006Y-61124761D01*
X139512959Y-61304352D01*
X139512952Y-61304358D01*
X139304358Y-61512952D01*
X139304352Y-61512959D01*
X139124761Y-61747006D01*
X138977258Y-62002489D01*
X138977254Y-62002499D01*
X138864364Y-62275038D01*
X138864361Y-62275048D01*
X138788823Y-62556964D01*
X138788008Y-62560004D01*
X138788006Y-62560015D01*
X138749500Y-62852486D01*
X138749500Y-63147513D01*
X138779873Y-63378210D01*
X138788007Y-63439993D01*
X138862212Y-63716930D01*
X138864361Y-63724951D01*
X138864364Y-63724961D01*
X138977254Y-63997500D01*
X138977258Y-63997510D01*
X139124761Y-64252993D01*
X139304352Y-64487040D01*
X139304358Y-64487047D01*
X139356130Y-64538819D01*
X139389615Y-64600142D01*
X139384631Y-64669834D01*
X139342759Y-64725767D01*
X139277295Y-64750184D01*
X139268449Y-64750500D01*
X133122671Y-64750500D01*
X133055632Y-64730815D01*
X133009877Y-64678011D01*
X132999933Y-64608853D01*
X133022353Y-64553615D01*
X133119548Y-64419835D01*
X133119547Y-64419835D01*
X133119551Y-64419831D01*
X133216057Y-64230427D01*
X133281746Y-64028258D01*
X133315000Y-63818302D01*
X133315000Y-63605728D01*
X133281746Y-63395772D01*
X133216057Y-63193603D01*
X133119551Y-63004199D01*
X133119549Y-63004196D01*
X133119548Y-63004194D01*
X132994609Y-62832228D01*
X132844286Y-62681905D01*
X132672320Y-62556966D01*
X132671615Y-62556606D01*
X132663554Y-62552500D01*
X132612759Y-62504527D01*
X132595963Y-62436707D01*
X132618499Y-62370571D01*
X132663554Y-62331530D01*
X132672316Y-62327066D01*
X132804348Y-62231140D01*
X132844286Y-62202124D01*
X132844288Y-62202121D01*
X132844292Y-62202119D01*
X132994604Y-62051807D01*
X132996776Y-62048818D01*
X133052103Y-62006148D01*
X133121716Y-62000164D01*
X133183513Y-62032766D01*
X133184780Y-62034015D01*
X133665425Y-62514660D01*
X133698910Y-62575983D01*
X133699361Y-62578149D01*
X133730261Y-62733491D01*
X133730264Y-62733501D01*
X133790602Y-62879172D01*
X133790609Y-62879185D01*
X133878210Y-63010288D01*
X133878213Y-63010292D01*
X133989707Y-63121786D01*
X133989711Y-63121789D01*
X134120814Y-63209390D01*
X134120827Y-63209397D01*
X134237445Y-63257701D01*
X134266503Y-63269737D01*
X134421153Y-63300499D01*
X134421156Y-63300500D01*
X134421158Y-63300500D01*
X134578844Y-63300500D01*
X134735333Y-63269372D01*
X134804925Y-63275599D01*
X134860102Y-63318462D01*
X134877454Y-63352667D01*
X134900127Y-63422445D01*
X134978768Y-63576788D01*
X135080586Y-63716928D01*
X135203072Y-63839414D01*
X135343212Y-63941232D01*
X135497555Y-64019873D01*
X135662299Y-64073402D01*
X135833389Y-64100500D01*
X135833390Y-64100500D01*
X136006610Y-64100500D01*
X136006611Y-64100500D01*
X136177701Y-64073402D01*
X136342445Y-64019873D01*
X136496788Y-63941232D01*
X136636928Y-63839414D01*
X136759414Y-63716928D01*
X136861232Y-63576788D01*
X136939873Y-63422445D01*
X136993402Y-63257701D01*
X137020500Y-63086611D01*
X137020500Y-62913389D01*
X136993402Y-62742299D01*
X136939873Y-62577555D01*
X136861232Y-62423212D01*
X136759414Y-62283072D01*
X136707482Y-62231140D01*
X136673997Y-62169817D01*
X136678981Y-62100125D01*
X136720853Y-62044192D01*
X136786317Y-62019775D01*
X136814561Y-62020986D01*
X136815212Y-62021089D01*
X136815215Y-62021090D01*
X137064038Y-62060500D01*
X137064039Y-62060500D01*
X137315961Y-62060500D01*
X137315962Y-62060500D01*
X137564785Y-62021090D01*
X137804379Y-61943241D01*
X138028845Y-61828870D01*
X138232656Y-61680793D01*
X138410793Y-61502656D01*
X138558870Y-61298845D01*
X138673241Y-61074379D01*
X138751090Y-60834785D01*
X138790500Y-60585962D01*
X138790500Y-60334038D01*
X138751090Y-60085215D01*
X138673241Y-59845621D01*
X138673239Y-59845618D01*
X138673239Y-59845616D01*
X138605221Y-59712125D01*
X138558870Y-59621155D01*
X138510468Y-59554535D01*
X138410798Y-59417350D01*
X138410794Y-59417345D01*
X138232654Y-59239205D01*
X138232649Y-59239201D01*
X138028848Y-59091132D01*
X138028847Y-59091131D01*
X138028845Y-59091130D01*
X137958747Y-59055413D01*
X137804383Y-58976760D01*
X137564785Y-58898910D01*
X137362380Y-58866852D01*
X137315962Y-58859500D01*
X137064038Y-58859500D01*
X137017620Y-58866852D01*
X136815214Y-58898910D01*
X136575616Y-58976760D01*
X136351151Y-59091132D01*
X136147350Y-59239201D01*
X136147345Y-59239205D01*
X135969205Y-59417345D01*
X135969201Y-59417350D01*
X135821132Y-59621151D01*
X135706760Y-59845616D01*
X135628910Y-60085214D01*
X135605424Y-60233497D01*
X135589500Y-60334038D01*
X135589500Y-60585962D01*
X135619134Y-60773065D01*
X135628910Y-60834785D01*
X135706760Y-61074383D01*
X135732430Y-61124762D01*
X135810662Y-61278301D01*
X135821132Y-61298848D01*
X135969201Y-61502649D01*
X135969205Y-61502654D01*
X135969207Y-61502656D01*
X136147344Y-61680793D01*
X136147345Y-61680794D01*
X136147344Y-61680794D01*
X136153661Y-61685383D01*
X136196327Y-61740714D01*
X136202305Y-61810327D01*
X136169699Y-61872122D01*
X136108860Y-61906479D01*
X136061378Y-61908174D01*
X136006611Y-61899500D01*
X135833389Y-61899500D01*
X135793728Y-61905781D01*
X135662302Y-61926597D01*
X135497552Y-61980128D01*
X135343210Y-62058769D01*
X135343204Y-62058772D01*
X135329549Y-62068694D01*
X135263742Y-62092172D01*
X135195689Y-62076345D01*
X135153564Y-62037265D01*
X135121789Y-61989711D01*
X135121786Y-61989707D01*
X135010292Y-61878213D01*
X135010288Y-61878210D01*
X134879185Y-61790609D01*
X134879172Y-61790602D01*
X134733501Y-61730264D01*
X134733491Y-61730261D01*
X134578149Y-61699361D01*
X134516238Y-61666976D01*
X134514660Y-61665425D01*
X133659605Y-60810370D01*
X133659603Y-60810367D01*
X133540732Y-60691496D01*
X133540731Y-60691495D01*
X133453919Y-60641375D01*
X133453919Y-60641374D01*
X133453915Y-60641373D01*
X133403800Y-60612438D01*
X133251072Y-60571514D01*
X133251069Y-60571514D01*
X133250218Y-60571514D01*
X133249525Y-60571310D01*
X133243012Y-60570453D01*
X133243145Y-60569437D01*
X133240908Y-60568780D01*
X133231288Y-60570061D01*
X133207929Y-60559096D01*
X133183179Y-60551829D01*
X133175139Y-60543704D01*
X133168039Y-60540372D01*
X133154378Y-60522726D01*
X133145207Y-60513459D01*
X133142255Y-60508759D01*
X133119551Y-60464199D01*
X133080644Y-60410648D01*
X133078421Y-60407108D01*
X133070022Y-60377356D01*
X133059634Y-60348243D01*
X133060614Y-60344028D01*
X133059439Y-60339866D01*
X133068456Y-60310304D01*
X133075459Y-60280189D01*
X133079106Y-60275388D01*
X133079824Y-60273036D01*
X133082834Y-60270482D01*
X133095747Y-60253486D01*
X136962417Y-56386819D01*
X137023740Y-56353334D01*
X137050098Y-56350500D01*
X137151663Y-56350500D01*
X137218702Y-56370185D01*
G37*
G04 #@! TD.AperFunction*
G04 #@! TA.AperFunction,NonConductor*
G36*
X128939245Y-67820182D02*
G01*
X128985000Y-67872986D01*
X128994944Y-67942144D01*
X128972524Y-67997382D01*
X128909451Y-68084195D01*
X128812944Y-68273600D01*
X128747253Y-68475775D01*
X128714000Y-68685728D01*
X128714000Y-68898301D01*
X128739543Y-69059577D01*
X128747254Y-69108258D01*
X128812943Y-69310427D01*
X128825646Y-69335359D01*
X128858695Y-69400220D01*
X128871591Y-69468889D01*
X128845315Y-69533630D01*
X128788209Y-69573887D01*
X128748210Y-69580515D01*
X126715655Y-69580515D01*
X126715639Y-69580514D01*
X126708043Y-69580514D01*
X126549928Y-69580514D01*
X126475341Y-69600500D01*
X126397199Y-69621438D01*
X126397198Y-69621439D01*
X126345838Y-69651092D01*
X126290765Y-69682887D01*
X126228768Y-69699500D01*
X125410097Y-69699500D01*
X125380656Y-69690855D01*
X125350670Y-69684332D01*
X125345654Y-69680577D01*
X125343058Y-69679815D01*
X125322416Y-69663181D01*
X125196590Y-69537355D01*
X125196588Y-69537352D01*
X125077717Y-69418481D01*
X125077716Y-69418480D01*
X124990904Y-69368360D01*
X124940785Y-69339423D01*
X124937098Y-69338435D01*
X124927066Y-69332852D01*
X124907371Y-69312838D01*
X124885506Y-69295218D01*
X124883193Y-69288269D01*
X124878059Y-69283052D01*
X124872310Y-69255569D01*
X124863443Y-69228923D01*
X124865253Y-69221828D01*
X124863755Y-69214662D01*
X124873779Y-69188430D01*
X124880724Y-69161224D01*
X124886082Y-69156235D01*
X124888696Y-69149396D01*
X124911310Y-69132748D01*
X124931862Y-69113615D01*
X124939872Y-69111722D01*
X124944964Y-69107974D01*
X124959688Y-69107039D01*
X124987364Y-69100500D01*
X126420234Y-69100500D01*
X126487273Y-69120185D01*
X126489125Y-69121398D01*
X126620814Y-69209390D01*
X126620827Y-69209397D01*
X126699894Y-69242147D01*
X126766503Y-69269737D01*
X126921153Y-69300499D01*
X126921156Y-69300500D01*
X126921158Y-69300500D01*
X127078844Y-69300500D01*
X127078845Y-69300499D01*
X127233497Y-69269737D01*
X127379179Y-69209394D01*
X127510289Y-69121789D01*
X127621789Y-69010289D01*
X127709394Y-68879179D01*
X127769737Y-68733497D01*
X127800500Y-68578842D01*
X127800500Y-68421158D01*
X127800500Y-68421155D01*
X127800499Y-68421153D01*
X127789651Y-68366618D01*
X127769737Y-68266503D01*
X127756062Y-68233489D01*
X127709397Y-68120827D01*
X127709390Y-68120814D01*
X127624246Y-67993388D01*
X127603368Y-67926711D01*
X127621852Y-67859331D01*
X127673831Y-67812640D01*
X127727348Y-67800497D01*
X128872206Y-67800497D01*
X128939245Y-67820182D01*
G37*
G04 #@! TD.AperFunction*
G04 #@! TA.AperFunction,NonConductor*
G36*
X104576942Y-69620185D02*
G01*
X104597584Y-69636819D01*
X105473181Y-70512416D01*
X105506666Y-70573739D01*
X105509500Y-70600097D01*
X105509500Y-71500902D01*
X105505524Y-71514440D01*
X105506384Y-71528526D01*
X105495875Y-71547300D01*
X105489815Y-71567941D01*
X105479151Y-71577180D01*
X105472259Y-71589496D01*
X105453267Y-71599609D01*
X105437011Y-71613696D01*
X105423044Y-71615704D01*
X105410589Y-71622337D01*
X105389148Y-71620577D01*
X105367853Y-71623640D01*
X105353638Y-71617664D01*
X105340954Y-71616624D01*
X105322272Y-71604479D01*
X105310155Y-71599386D01*
X105303630Y-71594394D01*
X105228716Y-71519480D01*
X105141904Y-71469360D01*
X105091785Y-71440423D01*
X104939057Y-71399499D01*
X104780943Y-71399499D01*
X104773347Y-71399499D01*
X104773331Y-71399500D01*
X100588621Y-71399500D01*
X100521582Y-71379815D01*
X100475827Y-71327011D01*
X100465883Y-71257853D01*
X100466148Y-71256102D01*
X100490500Y-71102351D01*
X100490500Y-70897648D01*
X100458477Y-70695465D01*
X100420584Y-70578844D01*
X100395220Y-70500781D01*
X100395218Y-70500778D01*
X100395218Y-70500776D01*
X100354647Y-70421153D01*
X100302287Y-70318390D01*
X100294556Y-70307749D01*
X100181971Y-70152786D01*
X100037213Y-70008028D01*
X99871613Y-69887715D01*
X99871612Y-69887714D01*
X99871610Y-69887713D01*
X99782786Y-69842455D01*
X99768126Y-69834985D01*
X99717330Y-69787010D01*
X99700535Y-69719189D01*
X99723073Y-69653054D01*
X99777788Y-69609603D01*
X99824421Y-69600500D01*
X104509903Y-69600500D01*
X104576942Y-69620185D01*
G37*
G04 #@! TD.AperFunction*
G04 #@! TA.AperFunction,NonConductor*
G36*
X143452539Y-70519185D02*
G01*
X143498294Y-70571989D01*
X143509500Y-70623500D01*
X143509500Y-71508658D01*
X143489815Y-71575697D01*
X143437011Y-71621452D01*
X143367853Y-71631396D01*
X143323501Y-71616046D01*
X143270852Y-71585650D01*
X143225692Y-71559577D01*
X143225691Y-71559576D01*
X143190783Y-71539422D01*
X143134881Y-71524443D01*
X143038057Y-71498499D01*
X142879943Y-71498499D01*
X142872347Y-71498499D01*
X142872331Y-71498500D01*
X139220569Y-71498500D01*
X139220553Y-71498499D01*
X139212957Y-71498499D01*
X139054843Y-71498499D01*
X138976542Y-71519480D01*
X138902116Y-71539422D01*
X138867206Y-71559578D01*
X138867205Y-71559577D01*
X138765187Y-71618477D01*
X138765182Y-71618481D01*
X138653378Y-71730286D01*
X138481484Y-71902181D01*
X138454556Y-71916884D01*
X138428738Y-71933477D01*
X138422537Y-71934368D01*
X138420161Y-71935666D01*
X138393803Y-71938500D01*
X138359010Y-71938500D01*
X138291971Y-71918815D01*
X138246216Y-71866011D01*
X138236272Y-71796853D01*
X138258692Y-71741615D01*
X138280598Y-71711461D01*
X138302287Y-71681610D01*
X138395220Y-71499219D01*
X138458477Y-71304534D01*
X138490500Y-71102352D01*
X138490500Y-70897648D01*
X138458477Y-70695466D01*
X138458475Y-70695462D01*
X138458475Y-70695457D01*
X138447545Y-70661817D01*
X138445550Y-70591976D01*
X138481631Y-70532144D01*
X138544332Y-70501316D01*
X138565476Y-70499500D01*
X143385500Y-70499500D01*
X143452539Y-70519185D01*
G37*
G04 #@! TD.AperFunction*
G04 #@! TA.AperFunction,NonConductor*
G36*
X135832539Y-70801200D02*
G01*
X135878294Y-70854004D01*
X135889500Y-70905515D01*
X135889500Y-71102351D01*
X135921522Y-71304534D01*
X135984781Y-71499223D01*
X136077715Y-71681613D01*
X136121308Y-71741615D01*
X136144788Y-71807422D01*
X136128962Y-71875475D01*
X136078856Y-71924170D01*
X136020990Y-71938500D01*
X133358111Y-71938500D01*
X133291072Y-71918815D01*
X133245317Y-71866011D01*
X133235373Y-71796853D01*
X133240177Y-71776192D01*
X133281746Y-71648258D01*
X133315000Y-71438302D01*
X133315000Y-71225728D01*
X133281746Y-71015772D01*
X133258370Y-70943831D01*
X133256376Y-70873992D01*
X133292456Y-70814159D01*
X133355157Y-70783331D01*
X133376302Y-70781515D01*
X135765500Y-70781515D01*
X135832539Y-70801200D01*
G37*
G04 #@! TD.AperFunction*
G04 #@! TA.AperFunction,NonConductor*
G36*
X128679688Y-70789440D02*
G01*
X128707410Y-70794238D01*
X128712764Y-70799152D01*
X128719737Y-70801200D01*
X128738156Y-70822457D01*
X128758885Y-70841482D01*
X128760732Y-70848511D01*
X128765492Y-70854004D01*
X128769495Y-70881850D01*
X128776647Y-70909056D01*
X128774877Y-70919279D01*
X128775436Y-70923162D01*
X128770629Y-70943833D01*
X128747253Y-71015775D01*
X128737469Y-71077551D01*
X128714000Y-71225728D01*
X128714000Y-71438302D01*
X128747254Y-71648258D01*
X128788820Y-71776184D01*
X128790815Y-71846023D01*
X128754735Y-71905856D01*
X128692034Y-71936684D01*
X128670889Y-71938500D01*
X127234500Y-71938500D01*
X127167461Y-71918815D01*
X127121706Y-71866011D01*
X127110500Y-71814500D01*
X127110500Y-71379815D01*
X127110499Y-70905514D01*
X127130183Y-70838476D01*
X127182987Y-70792721D01*
X127234499Y-70781515D01*
X128652698Y-70781515D01*
X128679688Y-70789440D01*
G37*
G04 #@! TD.AperFunction*
G04 #@! TA.AperFunction,NonConductor*
G36*
X124452539Y-70519185D02*
G01*
X124498294Y-70571989D01*
X124509500Y-70623500D01*
X124509500Y-71508658D01*
X124489815Y-71575697D01*
X124437011Y-71621452D01*
X124367853Y-71631396D01*
X124323501Y-71616046D01*
X124270852Y-71585650D01*
X124225692Y-71559577D01*
X124225691Y-71559576D01*
X124190783Y-71539422D01*
X124134881Y-71524443D01*
X124038057Y-71498499D01*
X123879943Y-71498499D01*
X123872347Y-71498499D01*
X123872331Y-71498500D01*
X120220569Y-71498500D01*
X120220553Y-71498499D01*
X120212957Y-71498499D01*
X120054843Y-71498499D01*
X119976542Y-71519480D01*
X119902116Y-71539422D01*
X119867206Y-71559578D01*
X119867205Y-71559577D01*
X119765187Y-71618477D01*
X119765182Y-71618481D01*
X119653378Y-71730286D01*
X119481484Y-71902181D01*
X119454556Y-71916884D01*
X119428738Y-71933477D01*
X119422537Y-71934368D01*
X119420161Y-71935666D01*
X119393803Y-71938500D01*
X119359010Y-71938500D01*
X119291971Y-71918815D01*
X119246216Y-71866011D01*
X119236272Y-71796853D01*
X119258692Y-71741615D01*
X119280598Y-71711461D01*
X119302287Y-71681610D01*
X119395220Y-71499219D01*
X119458477Y-71304534D01*
X119490500Y-71102352D01*
X119490500Y-70897648D01*
X119458477Y-70695466D01*
X119458475Y-70695462D01*
X119458475Y-70695457D01*
X119447545Y-70661817D01*
X119445550Y-70591976D01*
X119481631Y-70532144D01*
X119544332Y-70501316D01*
X119565476Y-70499500D01*
X124385500Y-70499500D01*
X124452539Y-70519185D01*
G37*
G04 #@! TD.AperFunction*
G04 #@! TA.AperFunction,NonConductor*
G36*
X116774185Y-70784065D02*
G01*
X116783147Y-70782777D01*
X116807187Y-70793755D01*
X116832539Y-70801200D01*
X116838466Y-70808040D01*
X116846703Y-70811802D01*
X116860992Y-70834036D01*
X116878294Y-70854004D01*
X116880581Y-70864518D01*
X116884477Y-70870580D01*
X116889500Y-70905515D01*
X116889500Y-71102351D01*
X116921522Y-71304534D01*
X116984781Y-71499223D01*
X117077715Y-71681613D01*
X117121308Y-71741615D01*
X117144788Y-71807422D01*
X117128962Y-71875475D01*
X117078856Y-71924170D01*
X117020990Y-71938500D01*
X116108111Y-71938500D01*
X116041072Y-71918815D01*
X115995317Y-71866011D01*
X115985373Y-71796853D01*
X115990177Y-71776192D01*
X116031746Y-71648258D01*
X116065000Y-71438302D01*
X116065000Y-71225728D01*
X116031746Y-71015772D01*
X116008370Y-70943831D01*
X116006376Y-70873992D01*
X116042456Y-70814159D01*
X116105157Y-70783331D01*
X116126302Y-70781515D01*
X116765500Y-70781515D01*
X116774185Y-70784065D01*
G37*
G04 #@! TD.AperFunction*
G04 #@! TA.AperFunction,NonConductor*
G36*
X111469737Y-70801200D02*
G01*
X111515492Y-70854004D01*
X111525436Y-70923162D01*
X111520629Y-70943833D01*
X111497253Y-71015775D01*
X111487469Y-71077551D01*
X111464000Y-71225728D01*
X111464000Y-71438302D01*
X111497254Y-71648258D01*
X111538820Y-71776184D01*
X111540815Y-71846023D01*
X111504735Y-71905856D01*
X111442034Y-71936684D01*
X111420889Y-71938500D01*
X110547669Y-71938500D01*
X110547653Y-71938499D01*
X110540057Y-71938499D01*
X110381943Y-71938499D01*
X110274587Y-71967265D01*
X110229210Y-71979424D01*
X110229209Y-71979425D01*
X110179096Y-72008359D01*
X110179095Y-72008360D01*
X110135689Y-72033420D01*
X110092285Y-72058479D01*
X110092282Y-72058481D01*
X110035613Y-72115151D01*
X109980480Y-72170284D01*
X109980478Y-72170286D01*
X109753836Y-72396929D01*
X109537584Y-72613181D01*
X109476261Y-72646666D01*
X109449903Y-72649500D01*
X106848337Y-72649500D01*
X106818823Y-72640833D01*
X106788773Y-72634257D01*
X106784723Y-72630820D01*
X106781298Y-72629815D01*
X106760545Y-72613071D01*
X106754803Y-72607314D01*
X106754437Y-72606709D01*
X106659798Y-72512070D01*
X106643012Y-72481236D01*
X106626424Y-72450856D01*
X106626429Y-72450776D01*
X106626391Y-72450705D01*
X106628905Y-72416161D01*
X106631408Y-72381165D01*
X106631457Y-72381099D01*
X106631463Y-72381019D01*
X106652369Y-72353164D01*
X106673280Y-72325232D01*
X106673355Y-72325203D01*
X106673405Y-72325138D01*
X106706349Y-72312897D01*
X106738745Y-72300815D01*
X106738883Y-72300810D01*
X106738900Y-72300804D01*
X106738921Y-72300808D01*
X106747590Y-72300499D01*
X107657871Y-72300499D01*
X107657872Y-72300499D01*
X107717483Y-72294091D01*
X107852331Y-72243796D01*
X107967546Y-72157546D01*
X108053796Y-72042331D01*
X108104091Y-71907483D01*
X108110500Y-71847873D01*
X108110499Y-70905514D01*
X108130183Y-70838476D01*
X108182987Y-70792721D01*
X108234499Y-70781515D01*
X111402698Y-70781515D01*
X111469737Y-70801200D01*
G37*
G04 #@! TD.AperFunction*
G04 #@! TA.AperFunction,NonConductor*
G36*
X98561691Y-69602294D02*
G01*
X98567953Y-69601119D01*
X98594812Y-69612020D01*
X98622618Y-69620185D01*
X98626788Y-69624998D01*
X98632694Y-69627395D01*
X98649399Y-69651092D01*
X98668373Y-69672989D01*
X98669279Y-69679292D01*
X98672951Y-69684501D01*
X98674192Y-69713460D01*
X98678317Y-69742147D01*
X98675670Y-69747942D01*
X98675943Y-69754307D01*
X98661333Y-69779336D01*
X98649292Y-69805703D01*
X98643126Y-69810527D01*
X98640721Y-69814649D01*
X98611874Y-69834985D01*
X98508386Y-69887715D01*
X98342786Y-70008028D01*
X98198028Y-70152786D01*
X98077715Y-70318386D01*
X97984781Y-70500776D01*
X97921522Y-70695465D01*
X97889500Y-70897648D01*
X97889500Y-71102351D01*
X97921522Y-71304534D01*
X97984781Y-71499223D01*
X98077715Y-71681613D01*
X98198028Y-71847213D01*
X98342786Y-71991971D01*
X98497749Y-72104556D01*
X98508390Y-72112287D01*
X98597212Y-72157544D01*
X98690780Y-72205220D01*
X98695281Y-72207084D01*
X98694870Y-72208076D01*
X98748291Y-72244598D01*
X98775494Y-72308955D01*
X98763584Y-72377802D01*
X98739984Y-72410780D01*
X98537584Y-72613181D01*
X98476261Y-72646666D01*
X98449903Y-72649500D01*
X93724500Y-72649500D01*
X93657461Y-72629815D01*
X93611706Y-72577011D01*
X93600500Y-72525500D01*
X93600500Y-71079765D01*
X93620185Y-71012726D01*
X93621398Y-71010874D01*
X93666194Y-70943833D01*
X93709394Y-70879179D01*
X93769737Y-70733497D01*
X93800500Y-70578842D01*
X93800500Y-70421158D01*
X93800500Y-70421155D01*
X93800499Y-70421153D01*
X93769738Y-70266510D01*
X93769737Y-70266503D01*
X93769735Y-70266498D01*
X93709397Y-70120827D01*
X93709390Y-70120814D01*
X93621789Y-69989711D01*
X93621786Y-69989707D01*
X93510292Y-69878213D01*
X93510288Y-69878210D01*
X93434548Y-69827602D01*
X93389743Y-69773990D01*
X93381036Y-69704665D01*
X93411190Y-69641637D01*
X93470634Y-69604918D01*
X93503439Y-69600500D01*
X98555579Y-69600500D01*
X98561691Y-69602294D01*
G37*
G04 #@! TD.AperFunction*
G04 #@! TA.AperFunction,NonConductor*
G36*
X92563600Y-69620185D02*
G01*
X92609355Y-69672989D01*
X92619299Y-69742147D01*
X92590274Y-69805703D01*
X92565452Y-69827602D01*
X92489711Y-69878210D01*
X92489707Y-69878213D01*
X92378213Y-69989707D01*
X92378210Y-69989711D01*
X92290609Y-70120814D01*
X92290602Y-70120827D01*
X92230264Y-70266498D01*
X92230261Y-70266510D01*
X92199500Y-70421153D01*
X92199500Y-70578846D01*
X92230261Y-70733489D01*
X92230264Y-70733501D01*
X92290602Y-70879172D01*
X92290609Y-70879185D01*
X92378602Y-71010874D01*
X92399480Y-71077551D01*
X92399500Y-71079765D01*
X92399500Y-72525500D01*
X92379815Y-72592539D01*
X92327011Y-72638294D01*
X92275500Y-72649500D01*
X87848337Y-72649500D01*
X87818823Y-72640833D01*
X87788773Y-72634257D01*
X87784723Y-72630820D01*
X87781298Y-72629815D01*
X87760545Y-72613071D01*
X87754803Y-72607314D01*
X87754437Y-72606709D01*
X87659798Y-72512070D01*
X87643012Y-72481236D01*
X87626424Y-72450856D01*
X87626429Y-72450776D01*
X87626391Y-72450705D01*
X87628905Y-72416161D01*
X87631408Y-72381165D01*
X87631457Y-72381099D01*
X87631463Y-72381019D01*
X87652369Y-72353164D01*
X87673280Y-72325232D01*
X87673355Y-72325203D01*
X87673405Y-72325138D01*
X87706349Y-72312897D01*
X87738745Y-72300815D01*
X87738883Y-72300810D01*
X87738900Y-72300804D01*
X87738921Y-72300808D01*
X87747574Y-72300499D01*
X88657872Y-72300499D01*
X88717483Y-72294091D01*
X88852331Y-72243796D01*
X88967546Y-72157546D01*
X89053796Y-72042331D01*
X89104091Y-71907483D01*
X89110500Y-71847873D01*
X89110499Y-70600095D01*
X89130184Y-70533057D01*
X89146813Y-70512420D01*
X90022416Y-69636819D01*
X90083739Y-69603334D01*
X90110097Y-69600500D01*
X92496561Y-69600500D01*
X92563600Y-69620185D01*
G37*
G04 #@! TD.AperFunction*
G04 #@! TA.AperFunction,NonConductor*
G36*
X145253539Y-72320184D02*
G01*
X145299294Y-72372988D01*
X145310500Y-72424499D01*
X145310500Y-72594485D01*
X145290815Y-72661524D01*
X145238011Y-72707279D01*
X145168853Y-72717223D01*
X145162309Y-72716102D01*
X145078845Y-72699500D01*
X145078842Y-72699500D01*
X144921158Y-72699500D01*
X144921156Y-72699500D01*
X144907711Y-72702174D01*
X144838120Y-72695945D01*
X144790021Y-72662001D01*
X144782966Y-72653901D01*
X144754437Y-72606709D01*
X144656897Y-72509169D01*
X144654088Y-72505944D01*
X144641202Y-72477921D01*
X144626424Y-72450857D01*
X144626738Y-72446465D01*
X144624898Y-72442464D01*
X144629207Y-72411928D01*
X144631408Y-72381165D01*
X144634047Y-72377638D01*
X144634663Y-72373280D01*
X144654796Y-72349922D01*
X144673280Y-72325232D01*
X144677405Y-72323693D01*
X144680281Y-72320357D01*
X144709855Y-72311589D01*
X144738744Y-72300815D01*
X144747225Y-72300512D01*
X144747269Y-72300499D01*
X144747304Y-72300509D01*
X144747590Y-72300499D01*
X145186500Y-72300499D01*
X145253539Y-72320184D01*
G37*
G04 #@! TD.AperFunction*
G04 #@! TA.AperFunction,NonConductor*
G36*
X137042539Y-73159185D02*
G01*
X137088294Y-73211989D01*
X137099500Y-73263500D01*
X137099500Y-73512026D01*
X137101722Y-73536488D01*
X137101762Y-73536959D01*
X137094811Y-73570760D01*
X137088141Y-73604538D01*
X137087759Y-73605057D01*
X137087690Y-73605396D01*
X137086974Y-73606128D01*
X137065868Y-73634895D01*
X136587584Y-74113181D01*
X136526261Y-74146666D01*
X136499903Y-74149500D01*
X125848337Y-74149500D01*
X125781298Y-74129815D01*
X125760698Y-74111055D01*
X125759741Y-74112013D01*
X125735409Y-74087681D01*
X125701924Y-74026358D01*
X125706908Y-73956666D01*
X125735411Y-73912317D01*
X125754434Y-73893294D01*
X125754437Y-73893291D01*
X125843071Y-73746673D01*
X125894041Y-73583104D01*
X125900500Y-73512026D01*
X125900500Y-73263500D01*
X125920185Y-73196461D01*
X125972989Y-73150706D01*
X126024500Y-73139500D01*
X136975500Y-73139500D01*
X137042539Y-73159185D01*
G37*
G04 #@! TD.AperFunction*
G04 #@! TA.AperFunction,NonConductor*
G36*
X118042539Y-73159185D02*
G01*
X118088294Y-73211989D01*
X118099500Y-73263500D01*
X118099500Y-73512026D01*
X118101722Y-73536488D01*
X118101762Y-73536959D01*
X118094811Y-73570760D01*
X118088141Y-73604538D01*
X118087759Y-73605057D01*
X118087690Y-73605396D01*
X118086974Y-73606128D01*
X118065868Y-73634895D01*
X117587584Y-74113181D01*
X117526261Y-74146666D01*
X117499903Y-74149500D01*
X111260759Y-74149500D01*
X111193720Y-74129815D01*
X111147965Y-74077011D01*
X111138021Y-74007853D01*
X111157657Y-73956609D01*
X111186922Y-73912810D01*
X111209394Y-73879179D01*
X111216632Y-73861706D01*
X111264279Y-73746673D01*
X111269737Y-73733497D01*
X111300500Y-73578842D01*
X111300500Y-73421158D01*
X111300500Y-73421155D01*
X111273952Y-73287692D01*
X111280179Y-73218100D01*
X111323042Y-73162923D01*
X111388932Y-73139678D01*
X111395569Y-73139500D01*
X117975500Y-73139500D01*
X118042539Y-73159185D01*
G37*
G04 #@! TD.AperFunction*
G04 #@! TA.AperFunction,NonConductor*
G36*
X109516940Y-73870185D02*
G01*
X109537581Y-73886818D01*
X109588582Y-73937818D01*
X109622068Y-73999141D01*
X109617084Y-74068832D01*
X109575213Y-74124766D01*
X109509749Y-74149184D01*
X109500902Y-74149500D01*
X106848337Y-74149500D01*
X106781298Y-74129815D01*
X106760698Y-74111055D01*
X106759741Y-74112013D01*
X106735409Y-74087681D01*
X106701924Y-74026358D01*
X106706908Y-73956666D01*
X106735409Y-73912319D01*
X106759741Y-73887987D01*
X106761837Y-73890083D01*
X106807562Y-73857396D01*
X106848337Y-73850500D01*
X109449901Y-73850500D01*
X109516940Y-73870185D01*
G37*
G04 #@! TD.AperFunction*
G04 #@! TA.AperFunction,NonConductor*
G36*
X98572148Y-73856738D02*
G01*
X98594237Y-73858318D01*
X98605020Y-73866390D01*
X98617942Y-73870185D01*
X98632441Y-73886918D01*
X98650170Y-73900190D01*
X98654877Y-73912810D01*
X98663697Y-73922989D01*
X98666848Y-73944906D01*
X98674587Y-73965654D01*
X98671724Y-73978814D01*
X98673641Y-73992147D01*
X98664441Y-74012290D01*
X98659735Y-74033927D01*
X98646466Y-74051652D01*
X98644616Y-74055703D01*
X98638584Y-74062181D01*
X98587584Y-74113181D01*
X98526261Y-74146666D01*
X98499903Y-74149500D01*
X90924500Y-74149500D01*
X90857461Y-74129815D01*
X90811706Y-74077011D01*
X90800500Y-74025500D01*
X90800500Y-73974500D01*
X90820185Y-73907461D01*
X90872989Y-73861706D01*
X90924500Y-73850500D01*
X92920943Y-73850500D01*
X93079057Y-73850500D01*
X98550903Y-73850500D01*
X98572148Y-73856738D01*
G37*
G04 #@! TD.AperFunction*
G04 #@! TA.AperFunction,NonConductor*
G36*
X89142539Y-73870185D02*
G01*
X89188294Y-73922989D01*
X89199500Y-73974500D01*
X89199500Y-74025500D01*
X89179815Y-74092539D01*
X89127011Y-74138294D01*
X89075500Y-74149500D01*
X87848337Y-74149500D01*
X87781298Y-74129815D01*
X87760698Y-74111055D01*
X87759741Y-74112013D01*
X87735409Y-74087681D01*
X87701924Y-74026358D01*
X87706908Y-73956666D01*
X87735409Y-73912319D01*
X87759741Y-73887987D01*
X87761837Y-73890083D01*
X87807562Y-73857396D01*
X87848337Y-73850500D01*
X89075500Y-73850500D01*
X89142539Y-73870185D01*
G37*
G04 #@! TD.AperFunction*
G04 #@! TA.AperFunction,NonConductor*
G36*
X145202047Y-74287452D02*
G01*
X145231899Y-74290124D01*
X145236102Y-74293388D01*
X145241346Y-74294303D01*
X145263406Y-74314598D01*
X145287077Y-74332986D01*
X145288847Y-74338004D01*
X145292765Y-74341609D01*
X145300350Y-74370611D01*
X145310322Y-74398876D01*
X145310500Y-74405514D01*
X145310500Y-76230216D01*
X145290815Y-76297255D01*
X145274181Y-76317897D01*
X145230874Y-76361204D01*
X145169551Y-76394689D01*
X145099859Y-76389705D01*
X145043926Y-76347833D01*
X145025261Y-76311838D01*
X145023241Y-76305621D01*
X145023241Y-76305620D01*
X144983635Y-76227890D01*
X144908870Y-76081155D01*
X144848008Y-75997385D01*
X144760798Y-75877350D01*
X144760794Y-75877345D01*
X144598494Y-75715045D01*
X144565009Y-75653722D01*
X144569993Y-75584030D01*
X144611865Y-75528097D01*
X144622016Y-75521252D01*
X144633291Y-75514437D01*
X144754437Y-75393291D01*
X144843071Y-75246673D01*
X144894041Y-75083104D01*
X144900500Y-75012026D01*
X144900500Y-74487974D01*
X144895752Y-74435721D01*
X144897234Y-74428213D01*
X144895298Y-74420809D01*
X144903909Y-74394412D01*
X144909289Y-74367175D01*
X144914595Y-74361660D01*
X144916969Y-74354385D01*
X144938485Y-74336834D01*
X144957736Y-74316830D01*
X144966540Y-74313951D01*
X144971112Y-74310222D01*
X144988984Y-74306611D01*
X145005257Y-74301291D01*
X145012225Y-74300500D01*
X145078842Y-74300500D01*
X145167389Y-74282886D01*
X145172514Y-74282305D01*
X145202047Y-74287452D01*
G37*
G04 #@! TD.AperFunction*
G04 #@! TA.AperFunction,NonConductor*
G36*
X136617941Y-75370185D02*
G01*
X136663696Y-75422989D01*
X136673640Y-75492147D01*
X136644615Y-75555703D01*
X136638583Y-75562181D01*
X134516584Y-77684181D01*
X134455261Y-77717666D01*
X134428903Y-77720500D01*
X126130758Y-77720500D01*
X126063719Y-77700815D01*
X126017964Y-77648011D01*
X126008020Y-77578853D01*
X126020272Y-77540208D01*
X126023237Y-77534386D01*
X126023241Y-77534379D01*
X126101090Y-77294785D01*
X126140500Y-77045962D01*
X126140500Y-76794038D01*
X126101090Y-76545215D01*
X126023241Y-76305621D01*
X126023239Y-76305618D01*
X126023239Y-76305616D01*
X125981747Y-76224184D01*
X125908870Y-76081155D01*
X125848008Y-75997385D01*
X125760798Y-75877350D01*
X125760794Y-75877345D01*
X125598494Y-75715045D01*
X125565009Y-75653722D01*
X125569993Y-75584030D01*
X125601119Y-75537134D01*
X125610725Y-75528078D01*
X125633291Y-75514437D01*
X125754437Y-75393291D01*
X125755398Y-75391700D01*
X125763281Y-75384270D01*
X125786432Y-75372501D01*
X125807562Y-75357396D01*
X125820428Y-75355219D01*
X125825565Y-75352609D01*
X125832009Y-75353261D01*
X125848337Y-75350500D01*
X136550902Y-75350500D01*
X136617941Y-75370185D01*
G37*
G04 #@! TD.AperFunction*
G04 #@! TA.AperFunction,NonConductor*
G36*
X123198712Y-75820185D02*
G01*
X123244467Y-75872989D01*
X123254411Y-75942147D01*
X123231992Y-75997385D01*
X123171129Y-76081155D01*
X123056760Y-76305616D01*
X122978910Y-76545214D01*
X122952607Y-76711284D01*
X122939500Y-76794038D01*
X122939500Y-77045962D01*
X122978910Y-77294785D01*
X123056759Y-77534379D01*
X123056761Y-77534382D01*
X123056762Y-77534386D01*
X123059728Y-77540208D01*
X123072623Y-77608878D01*
X123046345Y-77673617D01*
X122989237Y-77713873D01*
X122949242Y-77720500D01*
X122621097Y-77720500D01*
X122554058Y-77700815D01*
X122533416Y-77684181D01*
X120861416Y-76012181D01*
X120827931Y-75950858D01*
X120832915Y-75881166D01*
X120874787Y-75825233D01*
X120940251Y-75800816D01*
X120949097Y-75800500D01*
X123131673Y-75800500D01*
X123198712Y-75820185D01*
G37*
G04 #@! TD.AperFunction*
G04 #@! TA.AperFunction,NonConductor*
G36*
X117617941Y-75370185D02*
G01*
X117663696Y-75422989D01*
X117673640Y-75492147D01*
X117644615Y-75555703D01*
X117638583Y-75562181D01*
X115516584Y-77684181D01*
X115455261Y-77717666D01*
X115428903Y-77720500D01*
X107130758Y-77720500D01*
X107063719Y-77700815D01*
X107017964Y-77648011D01*
X107008020Y-77578853D01*
X107020272Y-77540208D01*
X107023237Y-77534386D01*
X107023241Y-77534379D01*
X107101090Y-77294785D01*
X107140500Y-77045962D01*
X107140500Y-76794038D01*
X107101090Y-76545215D01*
X107023241Y-76305621D01*
X107023239Y-76305618D01*
X107023239Y-76305616D01*
X106981747Y-76224184D01*
X106908870Y-76081155D01*
X106848008Y-75997385D01*
X106760798Y-75877350D01*
X106760794Y-75877345D01*
X106598494Y-75715045D01*
X106565009Y-75653722D01*
X106569993Y-75584030D01*
X106601119Y-75537134D01*
X106610725Y-75528078D01*
X106633291Y-75514437D01*
X106754437Y-75393291D01*
X106755398Y-75391700D01*
X106763281Y-75384270D01*
X106786432Y-75372501D01*
X106807562Y-75357396D01*
X106820428Y-75355219D01*
X106825565Y-75352609D01*
X106832009Y-75353261D01*
X106848337Y-75350500D01*
X117550902Y-75350500D01*
X117617941Y-75370185D01*
G37*
G04 #@! TD.AperFunction*
G04 #@! TA.AperFunction,NonConductor*
G36*
X104198712Y-75820185D02*
G01*
X104244467Y-75872989D01*
X104254411Y-75942147D01*
X104231992Y-75997385D01*
X104171129Y-76081155D01*
X104056760Y-76305616D01*
X103978910Y-76545214D01*
X103952607Y-76711284D01*
X103939500Y-76794038D01*
X103939500Y-77045962D01*
X103978910Y-77294785D01*
X104056759Y-77534379D01*
X104056761Y-77534382D01*
X104056762Y-77534386D01*
X104059728Y-77540208D01*
X104060235Y-77542911D01*
X104062036Y-77544989D01*
X104066644Y-77577042D01*
X104072623Y-77608878D01*
X104071588Y-77611425D01*
X104071980Y-77614147D01*
X104058527Y-77643603D01*
X104046345Y-77673617D01*
X104044097Y-77675201D01*
X104042955Y-77677703D01*
X104015706Y-77695214D01*
X103989237Y-77713873D01*
X103985782Y-77714445D01*
X103984177Y-77715477D01*
X103949242Y-77720500D01*
X103761097Y-77720500D01*
X103694058Y-77700815D01*
X103673416Y-77684181D01*
X102001416Y-76012181D01*
X101967931Y-75950858D01*
X101972915Y-75881166D01*
X102014787Y-75825233D01*
X102080251Y-75800816D01*
X102089097Y-75800500D01*
X104131673Y-75800500D01*
X104198712Y-75820185D01*
G37*
G04 #@! TD.AperFunction*
G04 #@! TA.AperFunction,NonConductor*
G36*
X98617941Y-75370185D02*
G01*
X98663696Y-75422989D01*
X98673640Y-75492147D01*
X98644615Y-75555703D01*
X98638583Y-75562181D01*
X96516584Y-77684181D01*
X96455261Y-77717666D01*
X96428903Y-77720500D01*
X88130758Y-77720500D01*
X88063719Y-77700815D01*
X88017964Y-77648011D01*
X88008020Y-77578853D01*
X88020272Y-77540208D01*
X88023237Y-77534386D01*
X88023241Y-77534379D01*
X88101090Y-77294785D01*
X88140500Y-77045962D01*
X88140500Y-76794038D01*
X88101090Y-76545215D01*
X88023241Y-76305621D01*
X88023239Y-76305618D01*
X88023239Y-76305616D01*
X87981747Y-76224184D01*
X87908870Y-76081155D01*
X87848008Y-75997385D01*
X87760798Y-75877350D01*
X87760794Y-75877345D01*
X87598494Y-75715045D01*
X87565009Y-75653722D01*
X87569993Y-75584030D01*
X87601119Y-75537134D01*
X87610725Y-75528078D01*
X87633291Y-75514437D01*
X87754437Y-75393291D01*
X87755398Y-75391700D01*
X87763281Y-75384270D01*
X87786432Y-75372501D01*
X87807562Y-75357396D01*
X87820428Y-75355219D01*
X87825565Y-75352609D01*
X87832009Y-75353261D01*
X87848337Y-75350500D01*
X98550902Y-75350500D01*
X98617941Y-75370185D01*
G37*
G04 #@! TD.AperFunction*
G04 #@! TA.AperFunction,NonConductor*
G36*
X85198712Y-75820185D02*
G01*
X85244467Y-75872989D01*
X85254411Y-75942147D01*
X85231992Y-75997385D01*
X85171129Y-76081155D01*
X85056760Y-76305616D01*
X84978910Y-76545214D01*
X84952607Y-76711284D01*
X84939500Y-76794038D01*
X84939500Y-77045962D01*
X84978910Y-77294785D01*
X85056759Y-77534379D01*
X85056761Y-77534382D01*
X85056762Y-77534386D01*
X85059728Y-77540208D01*
X85060235Y-77542911D01*
X85062036Y-77544989D01*
X85066644Y-77577042D01*
X85072623Y-77608878D01*
X85071588Y-77611425D01*
X85071980Y-77614147D01*
X85058527Y-77643603D01*
X85046345Y-77673617D01*
X85044097Y-77675201D01*
X85042955Y-77677703D01*
X85015706Y-77695214D01*
X84989237Y-77713873D01*
X84985782Y-77714445D01*
X84984177Y-77715477D01*
X84949242Y-77720500D01*
X84761097Y-77720500D01*
X84694058Y-77700815D01*
X84673416Y-77684181D01*
X83001416Y-76012181D01*
X82967931Y-75950858D01*
X82972915Y-75881166D01*
X83014787Y-75825233D01*
X83080251Y-75800816D01*
X83089097Y-75800500D01*
X85131673Y-75800500D01*
X85198712Y-75820185D01*
G37*
G04 #@! TD.AperFunction*
G04 #@! TA.AperFunction,NonConductor*
G36*
X146633151Y-76763804D02*
G01*
X146673680Y-76820718D01*
X146680500Y-76861275D01*
X146680500Y-80868500D01*
X146660815Y-80935539D01*
X146608011Y-80981294D01*
X146538853Y-80991238D01*
X146507271Y-80981228D01*
X146506954Y-80981994D01*
X146502452Y-80980129D01*
X146423694Y-80954539D01*
X146337701Y-80926598D01*
X146337699Y-80926597D01*
X146337698Y-80926597D01*
X146192857Y-80903657D01*
X146166611Y-80899500D01*
X145993389Y-80899500D01*
X145967143Y-80903657D01*
X145822302Y-80926597D01*
X145657549Y-80980129D01*
X145590794Y-81014142D01*
X145522125Y-81027038D01*
X145457384Y-81000761D01*
X145417128Y-80943654D01*
X145410500Y-80903657D01*
X145410500Y-77931410D01*
X145430185Y-77864371D01*
X145446815Y-77843733D01*
X146269506Y-77021041D01*
X146269511Y-77021038D01*
X146279714Y-77010834D01*
X146279716Y-77010834D01*
X146391520Y-76899030D01*
X146449113Y-76799274D01*
X146499679Y-76751060D01*
X146568286Y-76737836D01*
X146633151Y-76763804D01*
G37*
G04 #@! TD.AperFunction*
G04 #@! TA.AperFunction,NonConductor*
G36*
X148074392Y-74178371D02*
G01*
X148120813Y-74209389D01*
X148120816Y-74209391D01*
X148120821Y-74209394D01*
X148120823Y-74209395D01*
X148120827Y-74209397D01*
X148266498Y-74269735D01*
X148266503Y-74269737D01*
X148368995Y-74290124D01*
X148421153Y-74300499D01*
X148421156Y-74300500D01*
X148421158Y-74300500D01*
X148578844Y-74300500D01*
X148578845Y-74300499D01*
X148733497Y-74269737D01*
X148733509Y-74269731D01*
X148739324Y-74267969D01*
X148740158Y-74270720D01*
X148797359Y-74264497D01*
X148859878Y-74295691D01*
X148895608Y-74355734D01*
X148899500Y-74386555D01*
X148899500Y-87779002D01*
X148879815Y-87846041D01*
X148863181Y-87866683D01*
X148093181Y-88636683D01*
X148031858Y-88670168D01*
X147962166Y-88665184D01*
X147906233Y-88623312D01*
X147881816Y-88557848D01*
X147881500Y-88549002D01*
X147881500Y-74281472D01*
X147901185Y-74214433D01*
X147953989Y-74168678D01*
X148023147Y-74158734D01*
X148074392Y-74178371D01*
G37*
G04 #@! TD.AperFunction*
G04 #@! TA.AperFunction,NonConductor*
G36*
X145555488Y-82974663D02*
G01*
X145557388Y-82974473D01*
X145590792Y-82985856D01*
X145657555Y-83019873D01*
X145822299Y-83073402D01*
X145993389Y-83100500D01*
X145993390Y-83100500D01*
X146166610Y-83100500D01*
X146166611Y-83100500D01*
X146337701Y-83073402D01*
X146502445Y-83019873D01*
X146502448Y-83019870D01*
X146502452Y-83019870D01*
X146506954Y-83018006D01*
X146507625Y-83019626D01*
X146568852Y-83008116D01*
X146633597Y-83034380D01*
X146673864Y-83091479D01*
X146680500Y-83131499D01*
X146680500Y-89430902D01*
X146660815Y-89497941D01*
X146644181Y-89518583D01*
X146322180Y-89840584D01*
X146260857Y-89874069D01*
X146191165Y-89869085D01*
X146135232Y-89827213D01*
X146110815Y-89761749D01*
X146110499Y-89752903D01*
X146110499Y-89152129D01*
X146110498Y-89152123D01*
X146110497Y-89152116D01*
X146104091Y-89092517D01*
X146053796Y-88957669D01*
X146053795Y-88957668D01*
X146053793Y-88957664D01*
X145967547Y-88842455D01*
X145967544Y-88842452D01*
X145852335Y-88756206D01*
X145852328Y-88756202D01*
X145717482Y-88705908D01*
X145717483Y-88705908D01*
X145657883Y-88699501D01*
X145657881Y-88699500D01*
X145657873Y-88699500D01*
X145657865Y-88699500D01*
X145534500Y-88699500D01*
X145467461Y-88679815D01*
X145421706Y-88627011D01*
X145410500Y-88575500D01*
X145410500Y-83096342D01*
X145411275Y-83093701D01*
X145410614Y-83091031D01*
X145421061Y-83060375D01*
X145430185Y-83029303D01*
X145432264Y-83027501D01*
X145433152Y-83024896D01*
X145458521Y-83004749D01*
X145482989Y-82983548D01*
X145485711Y-82983156D01*
X145487867Y-82981445D01*
X145520087Y-82978213D01*
X145552147Y-82973604D01*
X145555488Y-82974663D01*
G37*
G04 #@! TD.AperFunction*
G04 #@! TA.AperFunction,NonConductor*
G36*
X143452539Y-89519185D02*
G01*
X143498294Y-89571989D01*
X143509500Y-89623500D01*
X143509500Y-90018414D01*
X143509501Y-90376500D01*
X143489817Y-90443539D01*
X143437013Y-90489294D01*
X143385501Y-90500500D01*
X138565476Y-90500500D01*
X138498437Y-90480815D01*
X138452682Y-90428011D01*
X138442738Y-90358853D01*
X138447545Y-90338183D01*
X138458475Y-90304542D01*
X138458475Y-90304538D01*
X138458477Y-90304534D01*
X138490500Y-90102352D01*
X138490500Y-89897648D01*
X138458477Y-89695466D01*
X138458475Y-89695462D01*
X138458475Y-89695457D01*
X138447545Y-89661817D01*
X138445550Y-89591976D01*
X138481631Y-89532144D01*
X138544332Y-89501316D01*
X138565476Y-89499500D01*
X143385500Y-89499500D01*
X143452539Y-89519185D01*
G37*
G04 #@! TD.AperFunction*
G04 #@! TA.AperFunction,NonConductor*
G36*
X135841511Y-89507424D02*
G01*
X135869235Y-89512222D01*
X135874591Y-89517137D01*
X135881563Y-89519185D01*
X135899980Y-89540439D01*
X135920711Y-89559466D01*
X135922559Y-89566496D01*
X135927318Y-89571989D01*
X135931321Y-89599833D01*
X135938473Y-89627040D01*
X135936703Y-89637264D01*
X135937262Y-89641147D01*
X135932455Y-89661817D01*
X135921524Y-89695457D01*
X135921523Y-89695464D01*
X135889500Y-89897648D01*
X135889500Y-90102351D01*
X135921523Y-90304535D01*
X135921524Y-90304542D01*
X135932455Y-90338183D01*
X135934450Y-90408024D01*
X135898369Y-90467856D01*
X135835668Y-90498684D01*
X135814524Y-90500500D01*
X127234500Y-90500500D01*
X127167461Y-90480815D01*
X127121706Y-90428011D01*
X127110500Y-90376500D01*
X127110499Y-89623500D01*
X127130183Y-89556461D01*
X127182987Y-89510706D01*
X127234499Y-89499500D01*
X135814524Y-89499500D01*
X135841511Y-89507424D01*
G37*
G04 #@! TD.AperFunction*
G04 #@! TA.AperFunction,NonConductor*
G36*
X124076942Y-89120185D02*
G01*
X124097584Y-89136819D01*
X124473181Y-89512416D01*
X124506666Y-89573739D01*
X124509500Y-89600097D01*
X124509500Y-90018414D01*
X124509501Y-90376500D01*
X124489817Y-90443539D01*
X124437013Y-90489294D01*
X124385501Y-90500500D01*
X119565476Y-90500500D01*
X119498437Y-90480815D01*
X119452682Y-90428011D01*
X119442738Y-90358853D01*
X119447545Y-90338183D01*
X119458475Y-90304542D01*
X119458475Y-90304538D01*
X119458477Y-90304534D01*
X119490500Y-90102352D01*
X119490500Y-89897648D01*
X119458477Y-89695466D01*
X119458476Y-89695464D01*
X119414288Y-89559466D01*
X119395220Y-89500781D01*
X119395218Y-89500778D01*
X119395218Y-89500776D01*
X119302287Y-89318390D01*
X119287026Y-89297385D01*
X119263547Y-89231578D01*
X119279373Y-89163524D01*
X119329479Y-89114830D01*
X119387345Y-89100500D01*
X124009903Y-89100500D01*
X124076942Y-89120185D01*
G37*
G04 #@! TD.AperFunction*
G04 #@! TA.AperFunction,NonConductor*
G36*
X117004735Y-89104047D02*
G01*
X117017279Y-89102970D01*
X117037623Y-89113704D01*
X117059694Y-89120185D01*
X117067938Y-89129699D01*
X117079074Y-89135575D01*
X117090386Y-89155605D01*
X117105449Y-89172989D01*
X117107240Y-89185450D01*
X117113432Y-89196413D01*
X117112119Y-89219377D01*
X117115393Y-89242147D01*
X117110067Y-89255269D01*
X117109444Y-89266169D01*
X117092974Y-89297385D01*
X117077712Y-89318390D01*
X116984781Y-89500776D01*
X116921522Y-89695465D01*
X116889500Y-89897648D01*
X116889500Y-90102351D01*
X116921523Y-90304535D01*
X116921524Y-90304542D01*
X116932455Y-90338183D01*
X116934450Y-90408024D01*
X116898369Y-90467856D01*
X116835668Y-90498684D01*
X116814524Y-90500500D01*
X108234500Y-90500500D01*
X108167461Y-90480815D01*
X108121706Y-90428011D01*
X108110500Y-90376500D01*
X108110499Y-89600097D01*
X108130183Y-89533058D01*
X108146818Y-89512416D01*
X108522416Y-89136819D01*
X108583739Y-89103334D01*
X108610097Y-89100500D01*
X116992655Y-89100500D01*
X117004735Y-89104047D01*
G37*
G04 #@! TD.AperFunction*
G04 #@! TA.AperFunction,NonConductor*
G36*
X105452539Y-89519185D02*
G01*
X105498294Y-89571989D01*
X105509500Y-89623500D01*
X105509500Y-90018414D01*
X105509501Y-90376500D01*
X105489817Y-90443539D01*
X105437013Y-90489294D01*
X105385501Y-90500500D01*
X100565476Y-90500500D01*
X100498437Y-90480815D01*
X100452682Y-90428011D01*
X100442738Y-90358853D01*
X100447545Y-90338183D01*
X100458475Y-90304542D01*
X100458475Y-90304538D01*
X100458477Y-90304534D01*
X100490500Y-90102352D01*
X100490500Y-89897648D01*
X100458477Y-89695466D01*
X100458475Y-89695462D01*
X100458475Y-89695457D01*
X100447545Y-89661817D01*
X100445550Y-89591976D01*
X100481631Y-89532144D01*
X100544332Y-89501316D01*
X100565476Y-89499500D01*
X105385500Y-89499500D01*
X105452539Y-89519185D01*
G37*
G04 #@! TD.AperFunction*
G04 #@! TA.AperFunction,NonConductor*
G36*
X97881563Y-89519185D02*
G01*
X97927318Y-89571989D01*
X97937262Y-89641147D01*
X97932455Y-89661817D01*
X97921524Y-89695457D01*
X97921523Y-89695464D01*
X97889500Y-89897648D01*
X97889500Y-90102351D01*
X97921523Y-90304535D01*
X97921524Y-90304542D01*
X97932455Y-90338183D01*
X97934450Y-90408024D01*
X97898369Y-90467856D01*
X97835668Y-90498684D01*
X97814524Y-90500500D01*
X89234500Y-90500500D01*
X89167461Y-90480815D01*
X89121706Y-90428011D01*
X89110500Y-90376500D01*
X89110499Y-89623500D01*
X89130183Y-89556461D01*
X89182987Y-89510706D01*
X89234499Y-89499500D01*
X97814524Y-89499500D01*
X97881563Y-89519185D01*
G37*
G04 #@! TD.AperFunction*
G04 #@! TA.AperFunction,NonConductor*
G36*
X139056899Y-75681870D02*
G01*
X139059540Y-75684511D01*
X139115489Y-75740460D01*
X139115491Y-75740461D01*
X139115495Y-75740464D01*
X139184004Y-75780017D01*
X139184011Y-75780021D01*
X139260438Y-75800500D01*
X142131673Y-75800500D01*
X142198712Y-75820185D01*
X142244467Y-75872989D01*
X142254411Y-75942147D01*
X142231992Y-75997385D01*
X142171129Y-76081155D01*
X142056760Y-76305616D01*
X141978910Y-76545214D01*
X141952607Y-76711284D01*
X141939500Y-76794038D01*
X141939500Y-77045962D01*
X141951510Y-77121789D01*
X141978910Y-77294785D01*
X142056760Y-77534383D01*
X142171132Y-77758848D01*
X142319201Y-77962649D01*
X142319205Y-77962654D01*
X142497345Y-78140794D01*
X142497350Y-78140798D01*
X142675117Y-78269952D01*
X142701155Y-78288870D01*
X142844184Y-78361747D01*
X142925616Y-78403239D01*
X142925618Y-78403239D01*
X142925621Y-78403241D01*
X143165215Y-78481090D01*
X143414038Y-78520500D01*
X143414039Y-78520500D01*
X143665961Y-78520500D01*
X143665962Y-78520500D01*
X143914785Y-78481090D01*
X144047183Y-78438070D01*
X144117022Y-78436076D01*
X144176855Y-78472156D01*
X144207684Y-78534856D01*
X144209500Y-78556002D01*
X144209500Y-88279791D01*
X144207790Y-88285614D01*
X144208939Y-88291574D01*
X144198060Y-88318749D01*
X144189815Y-88346830D01*
X144185228Y-88350804D01*
X144182973Y-88356439D01*
X144159128Y-88373419D01*
X144137011Y-88392585D01*
X144131004Y-88393448D01*
X144126060Y-88396970D01*
X144096820Y-88398363D01*
X144067853Y-88402529D01*
X144060782Y-88400081D01*
X144056270Y-88400297D01*
X144023502Y-88387179D01*
X144008936Y-88378770D01*
X143990906Y-88368361D01*
X143990904Y-88368359D01*
X143990900Y-88368358D01*
X143940785Y-88339423D01*
X143788057Y-88298499D01*
X143629943Y-88298499D01*
X143622347Y-88298499D01*
X143622331Y-88298500D01*
X126990057Y-88298500D01*
X126831943Y-88298500D01*
X126679215Y-88339423D01*
X126679214Y-88339423D01*
X126679212Y-88339424D01*
X126679209Y-88339425D01*
X126629096Y-88368359D01*
X126629095Y-88368360D01*
X126596499Y-88387179D01*
X126542285Y-88418479D01*
X126542282Y-88418481D01*
X126297583Y-88663181D01*
X126236260Y-88696666D01*
X126209902Y-88699500D01*
X125410097Y-88699500D01*
X125343058Y-88679815D01*
X125322416Y-88663181D01*
X124797590Y-88138355D01*
X124797588Y-88138352D01*
X124678717Y-88019481D01*
X124678716Y-88019480D01*
X124591904Y-87969360D01*
X124591904Y-87969359D01*
X124591900Y-87969358D01*
X124541785Y-87940423D01*
X124389057Y-87899499D01*
X124230943Y-87899499D01*
X124223347Y-87899499D01*
X124223331Y-87899500D01*
X108230940Y-87899500D01*
X108190019Y-87910464D01*
X108190019Y-87910465D01*
X108152751Y-87920451D01*
X108078214Y-87940423D01*
X108078209Y-87940426D01*
X107941290Y-88019475D01*
X107941282Y-88019481D01*
X107297583Y-88663181D01*
X107236260Y-88696666D01*
X107209902Y-88699500D01*
X106410097Y-88699500D01*
X106380656Y-88690855D01*
X106350670Y-88684332D01*
X106345654Y-88680577D01*
X106343058Y-88679815D01*
X106322416Y-88663181D01*
X106196590Y-88537355D01*
X106196588Y-88537352D01*
X106077717Y-88418481D01*
X106077716Y-88418480D01*
X105990904Y-88368360D01*
X105990904Y-88368359D01*
X105990900Y-88368358D01*
X105940785Y-88339423D01*
X105788057Y-88298499D01*
X105629943Y-88298499D01*
X105622347Y-88298499D01*
X105622331Y-88298500D01*
X88990057Y-88298500D01*
X88831943Y-88298500D01*
X88679215Y-88339423D01*
X88679214Y-88339423D01*
X88679212Y-88339424D01*
X88679209Y-88339425D01*
X88629096Y-88368359D01*
X88629095Y-88368360D01*
X88596499Y-88387179D01*
X88542285Y-88418479D01*
X88542282Y-88418481D01*
X88430480Y-88530283D01*
X88430480Y-88530284D01*
X88430478Y-88530286D01*
X88358641Y-88602123D01*
X88297582Y-88663182D01*
X88236259Y-88696666D01*
X88209901Y-88699500D01*
X86962129Y-88699500D01*
X86962123Y-88699501D01*
X86902516Y-88705908D01*
X86767671Y-88756202D01*
X86767664Y-88756206D01*
X86652455Y-88842452D01*
X86652452Y-88842455D01*
X86566206Y-88957664D01*
X86566202Y-88957671D01*
X86515908Y-89092517D01*
X86509501Y-89152116D01*
X86509500Y-89152127D01*
X86509500Y-89816243D01*
X86509501Y-90376500D01*
X86489816Y-90443539D01*
X86437013Y-90489294D01*
X86385501Y-90500500D01*
X81565476Y-90500500D01*
X81498437Y-90480815D01*
X81452682Y-90428011D01*
X81442738Y-90358853D01*
X81447545Y-90338183D01*
X81458475Y-90304542D01*
X81458475Y-90304538D01*
X81458477Y-90304534D01*
X81490500Y-90102352D01*
X81490500Y-89897648D01*
X81458477Y-89695466D01*
X81458476Y-89695464D01*
X81414288Y-89559466D01*
X81395220Y-89500781D01*
X81395218Y-89500778D01*
X81395218Y-89500776D01*
X81340666Y-89393713D01*
X81302287Y-89318390D01*
X81264347Y-89266169D01*
X81181971Y-89152786D01*
X81037213Y-89008028D01*
X80871613Y-88887715D01*
X80871612Y-88887714D01*
X80871610Y-88887713D01*
X80801013Y-88851742D01*
X80689223Y-88794781D01*
X80494534Y-88731522D01*
X80319995Y-88703878D01*
X80292352Y-88699500D01*
X80087648Y-88699500D01*
X80063329Y-88703351D01*
X79885465Y-88731522D01*
X79690776Y-88794781D01*
X79508386Y-88887715D01*
X79342786Y-89008028D01*
X79198028Y-89152786D01*
X79077715Y-89318386D01*
X78984781Y-89500776D01*
X78921522Y-89695465D01*
X78889500Y-89897648D01*
X78889500Y-90102351D01*
X78921523Y-90304535D01*
X78921524Y-90304542D01*
X78932455Y-90338183D01*
X78934450Y-90408024D01*
X78898369Y-90467856D01*
X78835668Y-90498684D01*
X78814524Y-90500500D01*
X78401098Y-90500500D01*
X78334059Y-90480815D01*
X78313417Y-90464181D01*
X76636819Y-88787583D01*
X76603334Y-88726260D01*
X76600500Y-88699902D01*
X76600500Y-86421153D01*
X77699500Y-86421153D01*
X77699500Y-86578846D01*
X77730261Y-86733489D01*
X77730264Y-86733501D01*
X77790602Y-86879172D01*
X77790609Y-86879185D01*
X77878210Y-87010288D01*
X77878213Y-87010292D01*
X77989707Y-87121786D01*
X77989711Y-87121789D01*
X78120814Y-87209390D01*
X78120827Y-87209397D01*
X78266498Y-87269735D01*
X78266503Y-87269737D01*
X78421153Y-87300499D01*
X78421156Y-87300500D01*
X78421158Y-87300500D01*
X78578844Y-87300500D01*
X78578845Y-87300499D01*
X78733497Y-87269737D01*
X78879179Y-87209394D01*
X78879185Y-87209390D01*
X79010875Y-87121398D01*
X79077553Y-87100520D01*
X79079766Y-87100500D01*
X86413331Y-87100500D01*
X86413347Y-87100501D01*
X86420943Y-87100501D01*
X86579054Y-87100501D01*
X86579057Y-87100501D01*
X86731785Y-87059577D01*
X86781904Y-87030639D01*
X86868716Y-86980520D01*
X86980520Y-86868716D01*
X86980520Y-86868714D01*
X86990728Y-86858507D01*
X86990729Y-86858504D01*
X91935845Y-81913389D01*
X96819500Y-81913389D01*
X96819500Y-82086610D01*
X96841927Y-82228214D01*
X96846598Y-82257701D01*
X96900127Y-82422445D01*
X96978768Y-82576788D01*
X97080586Y-82716928D01*
X97203072Y-82839414D01*
X97343212Y-82941232D01*
X97497555Y-83019873D01*
X97662299Y-83073402D01*
X97833389Y-83100500D01*
X97833390Y-83100500D01*
X98006610Y-83100500D01*
X98006611Y-83100500D01*
X98177701Y-83073402D01*
X98342445Y-83019873D01*
X98496788Y-82941232D01*
X98636928Y-82839414D01*
X98759414Y-82716928D01*
X98861232Y-82576788D01*
X98939873Y-82422445D01*
X98993402Y-82257701D01*
X99020500Y-82086611D01*
X99020500Y-81913389D01*
X99010854Y-81852486D01*
X100749500Y-81852486D01*
X100749500Y-81852494D01*
X100749500Y-82147506D01*
X100788007Y-82439993D01*
X100862212Y-82716930D01*
X100864361Y-82724951D01*
X100864364Y-82724961D01*
X100977254Y-82997500D01*
X100977258Y-82997510D01*
X101124761Y-83252993D01*
X101304352Y-83487040D01*
X101304358Y-83487047D01*
X101512952Y-83695641D01*
X101512959Y-83695647D01*
X101747006Y-83875238D01*
X102002489Y-84022741D01*
X102002490Y-84022741D01*
X102002493Y-84022743D01*
X102275048Y-84135639D01*
X102560007Y-84211993D01*
X102852494Y-84250500D01*
X102852501Y-84250500D01*
X103147499Y-84250500D01*
X103147506Y-84250500D01*
X103439993Y-84211993D01*
X103724952Y-84135639D01*
X103997507Y-84022743D01*
X104252994Y-83875238D01*
X104487042Y-83695646D01*
X104695646Y-83487042D01*
X104875238Y-83252994D01*
X105022743Y-82997507D01*
X105135639Y-82724952D01*
X105211993Y-82439993D01*
X105250500Y-82147506D01*
X105250500Y-81913389D01*
X106979500Y-81913389D01*
X106979500Y-82086610D01*
X107001927Y-82228214D01*
X107006598Y-82257701D01*
X107060127Y-82422445D01*
X107138768Y-82576788D01*
X107240586Y-82716928D01*
X107363072Y-82839414D01*
X107503212Y-82941232D01*
X107657555Y-83019873D01*
X107822299Y-83073402D01*
X107993389Y-83100500D01*
X107993390Y-83100500D01*
X108166610Y-83100500D01*
X108166611Y-83100500D01*
X108337701Y-83073402D01*
X108502445Y-83019873D01*
X108656788Y-82941232D01*
X108796928Y-82839414D01*
X108919414Y-82716928D01*
X109021232Y-82576788D01*
X109099873Y-82422445D01*
X109153402Y-82257701D01*
X109180500Y-82086611D01*
X109180500Y-81913389D01*
X115819500Y-81913389D01*
X115819500Y-82086610D01*
X115841927Y-82228214D01*
X115846598Y-82257701D01*
X115900127Y-82422445D01*
X115978768Y-82576788D01*
X116080586Y-82716928D01*
X116203072Y-82839414D01*
X116343212Y-82941232D01*
X116497555Y-83019873D01*
X116662299Y-83073402D01*
X116833389Y-83100500D01*
X116833390Y-83100500D01*
X117006610Y-83100500D01*
X117006611Y-83100500D01*
X117177701Y-83073402D01*
X117342445Y-83019873D01*
X117496788Y-82941232D01*
X117636928Y-82839414D01*
X117759414Y-82716928D01*
X117861232Y-82576788D01*
X117939873Y-82422445D01*
X117993402Y-82257701D01*
X118020500Y-82086611D01*
X118020500Y-81913389D01*
X118010854Y-81852486D01*
X119749500Y-81852486D01*
X119749500Y-81852494D01*
X119749500Y-82147506D01*
X119788007Y-82439993D01*
X119862212Y-82716930D01*
X119864361Y-82724951D01*
X119864364Y-82724961D01*
X119977254Y-82997500D01*
X119977258Y-82997510D01*
X120124761Y-83252993D01*
X120304352Y-83487040D01*
X120304358Y-83487047D01*
X120512952Y-83695641D01*
X120512959Y-83695647D01*
X120747006Y-83875238D01*
X121002489Y-84022741D01*
X121002490Y-84022741D01*
X121002493Y-84022743D01*
X121275048Y-84135639D01*
X121560007Y-84211993D01*
X121852494Y-84250500D01*
X121852501Y-84250500D01*
X122147499Y-84250500D01*
X122147506Y-84250500D01*
X122439993Y-84211993D01*
X122724952Y-84135639D01*
X122997507Y-84022743D01*
X123252994Y-83875238D01*
X123487042Y-83695646D01*
X123695646Y-83487042D01*
X123875238Y-83252994D01*
X124022743Y-82997507D01*
X124135639Y-82724952D01*
X124211993Y-82439993D01*
X124250500Y-82147506D01*
X124250500Y-81913389D01*
X125979500Y-81913389D01*
X125979500Y-82086610D01*
X126001927Y-82228214D01*
X126006598Y-82257701D01*
X126060127Y-82422445D01*
X126138768Y-82576788D01*
X126240586Y-82716928D01*
X126363072Y-82839414D01*
X126503212Y-82941232D01*
X126657555Y-83019873D01*
X126822299Y-83073402D01*
X126993389Y-83100500D01*
X126993390Y-83100500D01*
X127166610Y-83100500D01*
X127166611Y-83100500D01*
X127337701Y-83073402D01*
X127502445Y-83019873D01*
X127656788Y-82941232D01*
X127796928Y-82839414D01*
X127919414Y-82716928D01*
X128021232Y-82576788D01*
X128099873Y-82422445D01*
X128153402Y-82257701D01*
X128180500Y-82086611D01*
X128180500Y-81913389D01*
X134819500Y-81913389D01*
X134819500Y-82086610D01*
X134841927Y-82228214D01*
X134846598Y-82257701D01*
X134900127Y-82422445D01*
X134978768Y-82576788D01*
X135080586Y-82716928D01*
X135203072Y-82839414D01*
X135343212Y-82941232D01*
X135497555Y-83019873D01*
X135662299Y-83073402D01*
X135833389Y-83100500D01*
X135833390Y-83100500D01*
X136006610Y-83100500D01*
X136006611Y-83100500D01*
X136177701Y-83073402D01*
X136342445Y-83019873D01*
X136496788Y-82941232D01*
X136636928Y-82839414D01*
X136759414Y-82716928D01*
X136861232Y-82576788D01*
X136939873Y-82422445D01*
X136993402Y-82257701D01*
X137020500Y-82086611D01*
X137020500Y-81913389D01*
X137010854Y-81852486D01*
X138749500Y-81852486D01*
X138749500Y-81852494D01*
X138749500Y-82147506D01*
X138788007Y-82439993D01*
X138862212Y-82716930D01*
X138864361Y-82724951D01*
X138864364Y-82724961D01*
X138977254Y-82997500D01*
X138977258Y-82997510D01*
X139124761Y-83252993D01*
X139304352Y-83487040D01*
X139304358Y-83487047D01*
X139512952Y-83695641D01*
X139512959Y-83695647D01*
X139747006Y-83875238D01*
X140002489Y-84022741D01*
X140002490Y-84022741D01*
X140002493Y-84022743D01*
X140275048Y-84135639D01*
X140560007Y-84211993D01*
X140852494Y-84250500D01*
X140852501Y-84250500D01*
X141147499Y-84250500D01*
X141147506Y-84250500D01*
X141439993Y-84211993D01*
X141724952Y-84135639D01*
X141997507Y-84022743D01*
X142252994Y-83875238D01*
X142487042Y-83695646D01*
X142695646Y-83487042D01*
X142875238Y-83252994D01*
X143022743Y-82997507D01*
X143135639Y-82724952D01*
X143211993Y-82439993D01*
X143250500Y-82147506D01*
X143250500Y-81852494D01*
X143211993Y-81560007D01*
X143135639Y-81275048D01*
X143132102Y-81266510D01*
X143073954Y-81126127D01*
X143022743Y-81002493D01*
X143015363Y-80989711D01*
X142875238Y-80747006D01*
X142695647Y-80512959D01*
X142695641Y-80512952D01*
X142487047Y-80304358D01*
X142487040Y-80304352D01*
X142252993Y-80124761D01*
X141997510Y-79977258D01*
X141997500Y-79977254D01*
X141724961Y-79864364D01*
X141724954Y-79864362D01*
X141724952Y-79864361D01*
X141439993Y-79788007D01*
X141391113Y-79781571D01*
X141147513Y-79749500D01*
X141147506Y-79749500D01*
X140852494Y-79749500D01*
X140852486Y-79749500D01*
X140574085Y-79786153D01*
X140560007Y-79788007D01*
X140385428Y-79834785D01*
X140275048Y-79864361D01*
X140275038Y-79864364D01*
X140002499Y-79977254D01*
X140002489Y-79977258D01*
X139747006Y-80124761D01*
X139512959Y-80304352D01*
X139512952Y-80304358D01*
X139304358Y-80512952D01*
X139304352Y-80512959D01*
X139124761Y-80747006D01*
X138977258Y-81002489D01*
X138977254Y-81002499D01*
X138864364Y-81275038D01*
X138864361Y-81275048D01*
X138788008Y-81560004D01*
X138788006Y-81560015D01*
X138749500Y-81852486D01*
X137010854Y-81852486D01*
X136993402Y-81742299D01*
X136939873Y-81577555D01*
X136861232Y-81423212D01*
X136759414Y-81283072D01*
X136707482Y-81231140D01*
X136673997Y-81169817D01*
X136678981Y-81100125D01*
X136720853Y-81044192D01*
X136786317Y-81019775D01*
X136814561Y-81020986D01*
X136815212Y-81021089D01*
X136815215Y-81021090D01*
X137064038Y-81060500D01*
X137064039Y-81060500D01*
X137315961Y-81060500D01*
X137315962Y-81060500D01*
X137564785Y-81021090D01*
X137804379Y-80943241D01*
X138028845Y-80828870D01*
X138232656Y-80680793D01*
X138410793Y-80502656D01*
X138558870Y-80298845D01*
X138673241Y-80074379D01*
X138751090Y-79834785D01*
X138790500Y-79585962D01*
X138790500Y-79334038D01*
X138751090Y-79085215D01*
X138673241Y-78845621D01*
X138673239Y-78845618D01*
X138673239Y-78845616D01*
X138630845Y-78762415D01*
X138558870Y-78621155D01*
X138457107Y-78481090D01*
X138410798Y-78417350D01*
X138410794Y-78417345D01*
X138232654Y-78239205D01*
X138232649Y-78239201D01*
X138028848Y-78091132D01*
X138028847Y-78091131D01*
X138028845Y-78091130D01*
X137958747Y-78055413D01*
X137804383Y-77976760D01*
X137564785Y-77898910D01*
X137445702Y-77880049D01*
X137315962Y-77859500D01*
X137064038Y-77859500D01*
X136939626Y-77879205D01*
X136815214Y-77898910D01*
X136575616Y-77976760D01*
X136351151Y-78091132D01*
X136147350Y-78239201D01*
X136147345Y-78239205D01*
X135969205Y-78417345D01*
X135969201Y-78417350D01*
X135821132Y-78621151D01*
X135706760Y-78845616D01*
X135628910Y-79085214D01*
X135589500Y-79334038D01*
X135589500Y-79585961D01*
X135628910Y-79834785D01*
X135706760Y-80074383D01*
X135732430Y-80124762D01*
X135787829Y-80233489D01*
X135821132Y-80298848D01*
X135969201Y-80502649D01*
X135969205Y-80502654D01*
X135969207Y-80502656D01*
X136147344Y-80680793D01*
X136147345Y-80680794D01*
X136147344Y-80680794D01*
X136153661Y-80685383D01*
X136196327Y-80740714D01*
X136202305Y-80810327D01*
X136169699Y-80872122D01*
X136108860Y-80906479D01*
X136061378Y-80908174D01*
X136006611Y-80899500D01*
X135833389Y-80899500D01*
X135807143Y-80903657D01*
X135662302Y-80926597D01*
X135497552Y-80980128D01*
X135343211Y-81058768D01*
X135286289Y-81100125D01*
X135203072Y-81160586D01*
X135203070Y-81160588D01*
X135203069Y-81160588D01*
X135080588Y-81283069D01*
X135080588Y-81283070D01*
X135080586Y-81283072D01*
X135036859Y-81343256D01*
X134978768Y-81423211D01*
X134900128Y-81577552D01*
X134846597Y-81742302D01*
X134819500Y-81913389D01*
X128180500Y-81913389D01*
X128153402Y-81742299D01*
X128099873Y-81577555D01*
X128021232Y-81423212D01*
X127919414Y-81283072D01*
X127796928Y-81160586D01*
X127656788Y-81058768D01*
X127502445Y-80980127D01*
X127337701Y-80926598D01*
X127337699Y-80926597D01*
X127337698Y-80926597D01*
X127192857Y-80903657D01*
X127166611Y-80899500D01*
X126993389Y-80899500D01*
X126967143Y-80903657D01*
X126822302Y-80926597D01*
X126657552Y-80980128D01*
X126503211Y-81058768D01*
X126446289Y-81100125D01*
X126363072Y-81160586D01*
X126363070Y-81160588D01*
X126363069Y-81160588D01*
X126240588Y-81283069D01*
X126240588Y-81283070D01*
X126240586Y-81283072D01*
X126196859Y-81343256D01*
X126138768Y-81423211D01*
X126060128Y-81577552D01*
X126006597Y-81742302D01*
X125979500Y-81913389D01*
X124250500Y-81913389D01*
X124250500Y-81852494D01*
X124211993Y-81560007D01*
X124135639Y-81275048D01*
X124132102Y-81266510D01*
X124073954Y-81126127D01*
X124022743Y-81002493D01*
X124015363Y-80989711D01*
X123875238Y-80747006D01*
X123695647Y-80512959D01*
X123695641Y-80512952D01*
X123487047Y-80304358D01*
X123487040Y-80304352D01*
X123252993Y-80124761D01*
X122997510Y-79977258D01*
X122997500Y-79977254D01*
X122724961Y-79864364D01*
X122724954Y-79864362D01*
X122724952Y-79864361D01*
X122439993Y-79788007D01*
X122391113Y-79781571D01*
X122147513Y-79749500D01*
X122147506Y-79749500D01*
X121852494Y-79749500D01*
X121852486Y-79749500D01*
X121574085Y-79786153D01*
X121560007Y-79788007D01*
X121385428Y-79834785D01*
X121275048Y-79864361D01*
X121275038Y-79864364D01*
X121002499Y-79977254D01*
X121002489Y-79977258D01*
X120747006Y-80124761D01*
X120512959Y-80304352D01*
X120512952Y-80304358D01*
X120304358Y-80512952D01*
X120304352Y-80512959D01*
X120124761Y-80747006D01*
X119977258Y-81002489D01*
X119977254Y-81002499D01*
X119864364Y-81275038D01*
X119864361Y-81275048D01*
X119788008Y-81560004D01*
X119788006Y-81560015D01*
X119749500Y-81852486D01*
X118010854Y-81852486D01*
X117993402Y-81742299D01*
X117939873Y-81577555D01*
X117861232Y-81423212D01*
X117759414Y-81283072D01*
X117707482Y-81231140D01*
X117673997Y-81169817D01*
X117678981Y-81100125D01*
X117720853Y-81044192D01*
X117786317Y-81019775D01*
X117814561Y-81020986D01*
X117815212Y-81021089D01*
X117815215Y-81021090D01*
X118064038Y-81060500D01*
X118064039Y-81060500D01*
X118315961Y-81060500D01*
X118315962Y-81060500D01*
X118564785Y-81021090D01*
X118804379Y-80943241D01*
X119028845Y-80828870D01*
X119232656Y-80680793D01*
X119410793Y-80502656D01*
X119558870Y-80298845D01*
X119673241Y-80074379D01*
X119751090Y-79834785D01*
X119790500Y-79585962D01*
X119790500Y-79334038D01*
X119751090Y-79085215D01*
X119673241Y-78845621D01*
X119673239Y-78845618D01*
X119673239Y-78845616D01*
X119630845Y-78762415D01*
X119558870Y-78621155D01*
X119457107Y-78481090D01*
X119410798Y-78417350D01*
X119410794Y-78417345D01*
X119232654Y-78239205D01*
X119232649Y-78239201D01*
X119028848Y-78091132D01*
X119028847Y-78091131D01*
X119028845Y-78091130D01*
X118958747Y-78055413D01*
X118804383Y-77976760D01*
X118564785Y-77898910D01*
X118445702Y-77880049D01*
X118315962Y-77859500D01*
X118064038Y-77859500D01*
X117939626Y-77879205D01*
X117815214Y-77898910D01*
X117575616Y-77976760D01*
X117351151Y-78091132D01*
X117147350Y-78239201D01*
X117147345Y-78239205D01*
X116969205Y-78417345D01*
X116969201Y-78417350D01*
X116821132Y-78621151D01*
X116706760Y-78845616D01*
X116628910Y-79085214D01*
X116589500Y-79334038D01*
X116589500Y-79585961D01*
X116628910Y-79834785D01*
X116706760Y-80074383D01*
X116732430Y-80124762D01*
X116787829Y-80233489D01*
X116821132Y-80298848D01*
X116969201Y-80502649D01*
X116969205Y-80502654D01*
X116969207Y-80502656D01*
X117147344Y-80680793D01*
X117147345Y-80680794D01*
X117147344Y-80680794D01*
X117153661Y-80685383D01*
X117196327Y-80740714D01*
X117202305Y-80810327D01*
X117169699Y-80872122D01*
X117108860Y-80906479D01*
X117061378Y-80908174D01*
X117006611Y-80899500D01*
X116833389Y-80899500D01*
X116807143Y-80903657D01*
X116662302Y-80926597D01*
X116497552Y-80980128D01*
X116343211Y-81058768D01*
X116286289Y-81100125D01*
X116203072Y-81160586D01*
X116203070Y-81160588D01*
X116203069Y-81160588D01*
X116080588Y-81283069D01*
X116080588Y-81283070D01*
X116080586Y-81283072D01*
X116036859Y-81343256D01*
X115978768Y-81423211D01*
X115900128Y-81577552D01*
X115846597Y-81742302D01*
X115819500Y-81913389D01*
X109180500Y-81913389D01*
X109153402Y-81742299D01*
X109099873Y-81577555D01*
X109021232Y-81423212D01*
X108919414Y-81283072D01*
X108796928Y-81160586D01*
X108656788Y-81058768D01*
X108502445Y-80980127D01*
X108337701Y-80926598D01*
X108337699Y-80926597D01*
X108337698Y-80926597D01*
X108192857Y-80903657D01*
X108166611Y-80899500D01*
X107993389Y-80899500D01*
X107967143Y-80903657D01*
X107822302Y-80926597D01*
X107657552Y-80980128D01*
X107503211Y-81058768D01*
X107446289Y-81100125D01*
X107363072Y-81160586D01*
X107363070Y-81160588D01*
X107363069Y-81160588D01*
X107240588Y-81283069D01*
X107240588Y-81283070D01*
X107240586Y-81283072D01*
X107196859Y-81343256D01*
X107138768Y-81423211D01*
X107060128Y-81577552D01*
X107006597Y-81742302D01*
X106979500Y-81913389D01*
X105250500Y-81913389D01*
X105250500Y-81852494D01*
X105211993Y-81560007D01*
X105135639Y-81275048D01*
X105132102Y-81266510D01*
X105073954Y-81126127D01*
X105022743Y-81002493D01*
X105015363Y-80989711D01*
X104875238Y-80747006D01*
X104695647Y-80512959D01*
X104695641Y-80512952D01*
X104487047Y-80304358D01*
X104487040Y-80304352D01*
X104252993Y-80124761D01*
X103997510Y-79977258D01*
X103997500Y-79977254D01*
X103724961Y-79864364D01*
X103724954Y-79864362D01*
X103724952Y-79864361D01*
X103439993Y-79788007D01*
X103391113Y-79781571D01*
X103147513Y-79749500D01*
X103147506Y-79749500D01*
X102852494Y-79749500D01*
X102852486Y-79749500D01*
X102574085Y-79786153D01*
X102560007Y-79788007D01*
X102385428Y-79834785D01*
X102275048Y-79864361D01*
X102275038Y-79864364D01*
X102002499Y-79977254D01*
X102002489Y-79977258D01*
X101747006Y-80124761D01*
X101512959Y-80304352D01*
X101512952Y-80304358D01*
X101304358Y-80512952D01*
X101304352Y-80512959D01*
X101124761Y-80747006D01*
X100977258Y-81002489D01*
X100977254Y-81002499D01*
X100864364Y-81275038D01*
X100864361Y-81275048D01*
X100788008Y-81560004D01*
X100788006Y-81560015D01*
X100749500Y-81852486D01*
X99010854Y-81852486D01*
X98993402Y-81742299D01*
X98939873Y-81577555D01*
X98861232Y-81423212D01*
X98759414Y-81283072D01*
X98707482Y-81231140D01*
X98673997Y-81169817D01*
X98678981Y-81100125D01*
X98720853Y-81044192D01*
X98786317Y-81019775D01*
X98814561Y-81020986D01*
X98815212Y-81021089D01*
X98815215Y-81021090D01*
X99064038Y-81060500D01*
X99064039Y-81060500D01*
X99315961Y-81060500D01*
X99315962Y-81060500D01*
X99564785Y-81021090D01*
X99804379Y-80943241D01*
X100028845Y-80828870D01*
X100232656Y-80680793D01*
X100410793Y-80502656D01*
X100558870Y-80298845D01*
X100673241Y-80074379D01*
X100751090Y-79834785D01*
X100790500Y-79585962D01*
X100790500Y-79334038D01*
X100751090Y-79085215D01*
X100673241Y-78845621D01*
X100673239Y-78845618D01*
X100673239Y-78845616D01*
X100630845Y-78762415D01*
X100558870Y-78621155D01*
X100457107Y-78481090D01*
X100410798Y-78417350D01*
X100410794Y-78417345D01*
X100232654Y-78239205D01*
X100232649Y-78239201D01*
X100028848Y-78091132D01*
X100028847Y-78091131D01*
X100028845Y-78091130D01*
X99958747Y-78055413D01*
X99804383Y-77976760D01*
X99564785Y-77898910D01*
X99445702Y-77880049D01*
X99315962Y-77859500D01*
X99064038Y-77859500D01*
X98939626Y-77879205D01*
X98815214Y-77898910D01*
X98575616Y-77976760D01*
X98351151Y-78091132D01*
X98147350Y-78239201D01*
X98147345Y-78239205D01*
X97969205Y-78417345D01*
X97969201Y-78417350D01*
X97821132Y-78621151D01*
X97706760Y-78845616D01*
X97628910Y-79085214D01*
X97589500Y-79334038D01*
X97589500Y-79585961D01*
X97628910Y-79834785D01*
X97706760Y-80074383D01*
X97732430Y-80124762D01*
X97787829Y-80233489D01*
X97821132Y-80298848D01*
X97969201Y-80502649D01*
X97969205Y-80502654D01*
X97969207Y-80502656D01*
X98147344Y-80680793D01*
X98147345Y-80680794D01*
X98147344Y-80680794D01*
X98153661Y-80685383D01*
X98196327Y-80740714D01*
X98202305Y-80810327D01*
X98169699Y-80872122D01*
X98108860Y-80906479D01*
X98061378Y-80908174D01*
X98006611Y-80899500D01*
X97833389Y-80899500D01*
X97807143Y-80903657D01*
X97662302Y-80926597D01*
X97497552Y-80980128D01*
X97343211Y-81058768D01*
X97286289Y-81100125D01*
X97203072Y-81160586D01*
X97203070Y-81160588D01*
X97203069Y-81160588D01*
X97080588Y-81283069D01*
X97080588Y-81283070D01*
X97080586Y-81283072D01*
X97036859Y-81343256D01*
X96978768Y-81423211D01*
X96900128Y-81577552D01*
X96846597Y-81742302D01*
X96819500Y-81913389D01*
X91935845Y-81913389D01*
X93014662Y-80834572D01*
X93075983Y-80801089D01*
X93078150Y-80800638D01*
X93136085Y-80789113D01*
X93233497Y-80769737D01*
X93379179Y-80709394D01*
X93510289Y-80621789D01*
X93621789Y-80510289D01*
X93709394Y-80379179D01*
X93769737Y-80233497D01*
X93800500Y-80078842D01*
X93800500Y-79921158D01*
X93800500Y-79921155D01*
X93800499Y-79921153D01*
X93783319Y-79834785D01*
X93769737Y-79766503D01*
X93762694Y-79749500D01*
X93709397Y-79620827D01*
X93709390Y-79620814D01*
X93621789Y-79489711D01*
X93621786Y-79489707D01*
X93510292Y-79378213D01*
X93510288Y-79378210D01*
X93379185Y-79290609D01*
X93379172Y-79290602D01*
X93233501Y-79230264D01*
X93233489Y-79230261D01*
X93078845Y-79199500D01*
X93078842Y-79199500D01*
X92921158Y-79199500D01*
X92921155Y-79199500D01*
X92766510Y-79230261D01*
X92766498Y-79230264D01*
X92620827Y-79290602D01*
X92620814Y-79290609D01*
X92489711Y-79378210D01*
X92489707Y-79378213D01*
X92378213Y-79489707D01*
X92378210Y-79489711D01*
X92290609Y-79620814D01*
X92290602Y-79620827D01*
X92230264Y-79766498D01*
X92230261Y-79766508D01*
X92199361Y-79921850D01*
X92166976Y-79983761D01*
X92165425Y-79985339D01*
X90359035Y-81791729D01*
X90297712Y-81825214D01*
X90228020Y-81820230D01*
X90172087Y-81778358D01*
X90153423Y-81742366D01*
X90153402Y-81742302D01*
X90153402Y-81742299D01*
X90099873Y-81577555D01*
X90021232Y-81423212D01*
X89919414Y-81283072D01*
X89796928Y-81160586D01*
X89656788Y-81058768D01*
X89502445Y-80980127D01*
X89337701Y-80926598D01*
X89337699Y-80926597D01*
X89337698Y-80926597D01*
X89192857Y-80903657D01*
X89166611Y-80899500D01*
X88993389Y-80899500D01*
X88967143Y-80903657D01*
X88822302Y-80926597D01*
X88657552Y-80980128D01*
X88503211Y-81058768D01*
X88446289Y-81100125D01*
X88363072Y-81160586D01*
X88363070Y-81160588D01*
X88363069Y-81160588D01*
X88240588Y-81283069D01*
X88240588Y-81283070D01*
X88240586Y-81283072D01*
X88196859Y-81343256D01*
X88138768Y-81423211D01*
X88060128Y-81577552D01*
X88006597Y-81742302D01*
X87979500Y-81913389D01*
X87979500Y-82086610D01*
X88001927Y-82228214D01*
X88006598Y-82257701D01*
X88060127Y-82422445D01*
X88138768Y-82576788D01*
X88240586Y-82716928D01*
X88363072Y-82839414D01*
X88503212Y-82941232D01*
X88657555Y-83019873D01*
X88822299Y-83073402D01*
X88822303Y-83073402D01*
X88822366Y-83073423D01*
X88880042Y-83112860D01*
X88907240Y-83177219D01*
X88895325Y-83246065D01*
X88871729Y-83279035D01*
X86287584Y-85863181D01*
X86226261Y-85896666D01*
X86199903Y-85899500D01*
X79079766Y-85899500D01*
X79012727Y-85879815D01*
X79010875Y-85878602D01*
X78879185Y-85790609D01*
X78879172Y-85790602D01*
X78733501Y-85730264D01*
X78733489Y-85730261D01*
X78578845Y-85699500D01*
X78578842Y-85699500D01*
X78421158Y-85699500D01*
X78421155Y-85699500D01*
X78266510Y-85730261D01*
X78266498Y-85730264D01*
X78120827Y-85790602D01*
X78120814Y-85790609D01*
X77989711Y-85878210D01*
X77989707Y-85878213D01*
X77878213Y-85989707D01*
X77878210Y-85989711D01*
X77790609Y-86120814D01*
X77790602Y-86120827D01*
X77730264Y-86266498D01*
X77730261Y-86266510D01*
X77699500Y-86421153D01*
X76600500Y-86421153D01*
X76600500Y-81913389D01*
X77819500Y-81913389D01*
X77819500Y-82086610D01*
X77841927Y-82228214D01*
X77846598Y-82257701D01*
X77900127Y-82422445D01*
X77978768Y-82576788D01*
X78080586Y-82716928D01*
X78203072Y-82839414D01*
X78343212Y-82941232D01*
X78497555Y-83019873D01*
X78662299Y-83073402D01*
X78833389Y-83100500D01*
X78833390Y-83100500D01*
X79006610Y-83100500D01*
X79006611Y-83100500D01*
X79177701Y-83073402D01*
X79342445Y-83019873D01*
X79496788Y-82941232D01*
X79636928Y-82839414D01*
X79759414Y-82716928D01*
X79861232Y-82576788D01*
X79939873Y-82422445D01*
X79993402Y-82257701D01*
X80020500Y-82086611D01*
X80020500Y-81913389D01*
X80010854Y-81852486D01*
X81749500Y-81852486D01*
X81749500Y-81852494D01*
X81749500Y-82147506D01*
X81788007Y-82439993D01*
X81862212Y-82716930D01*
X81864361Y-82724951D01*
X81864364Y-82724961D01*
X81977254Y-82997500D01*
X81977258Y-82997510D01*
X82124761Y-83252993D01*
X82304352Y-83487040D01*
X82304358Y-83487047D01*
X82512952Y-83695641D01*
X82512959Y-83695647D01*
X82747006Y-83875238D01*
X83002489Y-84022741D01*
X83002490Y-84022741D01*
X83002493Y-84022743D01*
X83275048Y-84135639D01*
X83560007Y-84211993D01*
X83852494Y-84250500D01*
X83852501Y-84250500D01*
X84147499Y-84250500D01*
X84147506Y-84250500D01*
X84439993Y-84211993D01*
X84724952Y-84135639D01*
X84997507Y-84022743D01*
X85252994Y-83875238D01*
X85487042Y-83695646D01*
X85695646Y-83487042D01*
X85875238Y-83252994D01*
X86022743Y-82997507D01*
X86135639Y-82724952D01*
X86211993Y-82439993D01*
X86250500Y-82147506D01*
X86250500Y-81852494D01*
X86211993Y-81560007D01*
X86135639Y-81275048D01*
X86132102Y-81266510D01*
X86073954Y-81126127D01*
X86022743Y-81002493D01*
X86015363Y-80989711D01*
X85875238Y-80747006D01*
X85695647Y-80512959D01*
X85695641Y-80512952D01*
X85487047Y-80304358D01*
X85487040Y-80304352D01*
X85252993Y-80124761D01*
X84997510Y-79977258D01*
X84997500Y-79977254D01*
X84724961Y-79864364D01*
X84724954Y-79864362D01*
X84724952Y-79864361D01*
X84439993Y-79788007D01*
X84391113Y-79781571D01*
X84147513Y-79749500D01*
X84147506Y-79749500D01*
X83852494Y-79749500D01*
X83852486Y-79749500D01*
X83574085Y-79786153D01*
X83560007Y-79788007D01*
X83385428Y-79834785D01*
X83275048Y-79864361D01*
X83275038Y-79864364D01*
X83002499Y-79977254D01*
X83002489Y-79977258D01*
X82747006Y-80124761D01*
X82512959Y-80304352D01*
X82512952Y-80304358D01*
X82304358Y-80512952D01*
X82304352Y-80512959D01*
X82124761Y-80747006D01*
X81977258Y-81002489D01*
X81977254Y-81002499D01*
X81864364Y-81275038D01*
X81864361Y-81275048D01*
X81788008Y-81560004D01*
X81788006Y-81560015D01*
X81749500Y-81852486D01*
X80010854Y-81852486D01*
X79993402Y-81742299D01*
X79939873Y-81577555D01*
X79861232Y-81423212D01*
X79759414Y-81283072D01*
X79707482Y-81231140D01*
X79673997Y-81169817D01*
X79678981Y-81100125D01*
X79720853Y-81044192D01*
X79786317Y-81019775D01*
X79814561Y-81020986D01*
X79815212Y-81021089D01*
X79815215Y-81021090D01*
X80064038Y-81060500D01*
X80064039Y-81060500D01*
X80315961Y-81060500D01*
X80315962Y-81060500D01*
X80564785Y-81021090D01*
X80804379Y-80943241D01*
X81028845Y-80828870D01*
X81232656Y-80680793D01*
X81410793Y-80502656D01*
X81558870Y-80298845D01*
X81673241Y-80074379D01*
X81751090Y-79834785D01*
X81790500Y-79585962D01*
X81790500Y-79334038D01*
X81751090Y-79085215D01*
X81673241Y-78845621D01*
X81673239Y-78845618D01*
X81673239Y-78845616D01*
X81630845Y-78762415D01*
X81558870Y-78621155D01*
X81457107Y-78481090D01*
X81410798Y-78417350D01*
X81410794Y-78417345D01*
X81232654Y-78239205D01*
X81232649Y-78239201D01*
X81028848Y-78091132D01*
X81028847Y-78091131D01*
X81028845Y-78091130D01*
X80958747Y-78055413D01*
X80804383Y-77976760D01*
X80564785Y-77898910D01*
X80445702Y-77880049D01*
X80315962Y-77859500D01*
X80064038Y-77859500D01*
X79939626Y-77879205D01*
X79815214Y-77898910D01*
X79575616Y-77976760D01*
X79351151Y-78091132D01*
X79147350Y-78239201D01*
X79147345Y-78239205D01*
X78969205Y-78417345D01*
X78969201Y-78417350D01*
X78821132Y-78621151D01*
X78706760Y-78845616D01*
X78628910Y-79085214D01*
X78589500Y-79334038D01*
X78589500Y-79585961D01*
X78628910Y-79834785D01*
X78706760Y-80074383D01*
X78732430Y-80124762D01*
X78787829Y-80233489D01*
X78821132Y-80298848D01*
X78969201Y-80502649D01*
X78969205Y-80502654D01*
X78969207Y-80502656D01*
X79147344Y-80680793D01*
X79147345Y-80680794D01*
X79147344Y-80680794D01*
X79153661Y-80685383D01*
X79196327Y-80740714D01*
X79202305Y-80810327D01*
X79169699Y-80872122D01*
X79108860Y-80906479D01*
X79061378Y-80908174D01*
X79006611Y-80899500D01*
X78833389Y-80899500D01*
X78807143Y-80903657D01*
X78662302Y-80926597D01*
X78497552Y-80980128D01*
X78343211Y-81058768D01*
X78286289Y-81100125D01*
X78203072Y-81160586D01*
X78203070Y-81160588D01*
X78203069Y-81160588D01*
X78080588Y-81283069D01*
X78080588Y-81283070D01*
X78080586Y-81283072D01*
X78036859Y-81343256D01*
X77978768Y-81423211D01*
X77900128Y-81577552D01*
X77846597Y-81742302D01*
X77819500Y-81913389D01*
X76600500Y-81913389D01*
X76600500Y-78850096D01*
X76620185Y-78783057D01*
X76636814Y-78762420D01*
X78580141Y-76819092D01*
X78641462Y-76785609D01*
X78711154Y-76790593D01*
X78767087Y-76832465D01*
X78782381Y-76859323D01*
X78790602Y-76879173D01*
X78790609Y-76879185D01*
X78878210Y-77010288D01*
X78878213Y-77010292D01*
X78989707Y-77121786D01*
X78989711Y-77121789D01*
X79120814Y-77209390D01*
X79120827Y-77209397D01*
X79266498Y-77269735D01*
X79266503Y-77269737D01*
X79392427Y-77294785D01*
X79421153Y-77300499D01*
X79421156Y-77300500D01*
X79421158Y-77300500D01*
X79578844Y-77300500D01*
X79578845Y-77300499D01*
X79733497Y-77269737D01*
X79879179Y-77209394D01*
X80010289Y-77121789D01*
X80121789Y-77010289D01*
X80209394Y-76879179D01*
X80269737Y-76733497D01*
X80288222Y-76640563D01*
X80320604Y-76578656D01*
X80322097Y-76577136D01*
X81007322Y-75891912D01*
X81068641Y-75858430D01*
X81138333Y-75863414D01*
X81182680Y-75891915D01*
X83976139Y-78685374D01*
X83976149Y-78685385D01*
X83980479Y-78689715D01*
X83980480Y-78689716D01*
X84092284Y-78801520D01*
X84168670Y-78845621D01*
X84229215Y-78880577D01*
X84381943Y-78921500D01*
X96642331Y-78921500D01*
X96642347Y-78921501D01*
X96649943Y-78921501D01*
X96808054Y-78921501D01*
X96808057Y-78921501D01*
X96960785Y-78880577D01*
X97021330Y-78845621D01*
X97097716Y-78801520D01*
X97209520Y-78689716D01*
X97209520Y-78689714D01*
X97219724Y-78679511D01*
X97219727Y-78679506D01*
X100007322Y-75891912D01*
X100068641Y-75858430D01*
X100138333Y-75863414D01*
X100182680Y-75891915D01*
X102976139Y-78685374D01*
X102976149Y-78685385D01*
X102980479Y-78689715D01*
X102980480Y-78689716D01*
X103092284Y-78801520D01*
X103168670Y-78845621D01*
X103229215Y-78880577D01*
X103381943Y-78921500D01*
X103540057Y-78921500D01*
X115642331Y-78921500D01*
X115642347Y-78921501D01*
X115649943Y-78921501D01*
X115808054Y-78921501D01*
X115808057Y-78921501D01*
X115960785Y-78880577D01*
X116021330Y-78845621D01*
X116097716Y-78801520D01*
X116209520Y-78689716D01*
X116209520Y-78689714D01*
X116219724Y-78679511D01*
X116219727Y-78679506D01*
X118937322Y-75961912D01*
X118998641Y-75928430D01*
X119068333Y-75933414D01*
X119112680Y-75961915D01*
X121836139Y-78685374D01*
X121836149Y-78685385D01*
X121840479Y-78689715D01*
X121840480Y-78689716D01*
X121952284Y-78801520D01*
X122028670Y-78845621D01*
X122089215Y-78880577D01*
X122241943Y-78921500D01*
X134642331Y-78921500D01*
X134642347Y-78921501D01*
X134649943Y-78921501D01*
X134808054Y-78921501D01*
X134808057Y-78921501D01*
X134960785Y-78880577D01*
X135021330Y-78845621D01*
X135097716Y-78801520D01*
X135209520Y-78689716D01*
X135209520Y-78689714D01*
X135219724Y-78679511D01*
X135219727Y-78679506D01*
X138202417Y-75696819D01*
X138263740Y-75663334D01*
X138290098Y-75660500D01*
X138852023Y-75660500D01*
X138852026Y-75660500D01*
X138923104Y-75654041D01*
X138932323Y-75651167D01*
X139002180Y-75650012D01*
X139056899Y-75681870D01*
G37*
G04 #@! TD.AperFunction*
G04 #@! TA.AperFunction,NonConductor*
G36*
X96644985Y-66609761D02*
G01*
X96676856Y-66617940D01*
X96678362Y-66619561D01*
X96680484Y-66620185D01*
X96702008Y-66645025D01*
X96724401Y-66669139D01*
X96724791Y-66671318D01*
X96726239Y-66672989D01*
X96730919Y-66705537D01*
X96736717Y-66737915D01*
X96735984Y-66740768D01*
X96736183Y-66742147D01*
X96731159Y-66760411D01*
X96732031Y-66760676D01*
X96730261Y-66766510D01*
X96699500Y-66921153D01*
X96699500Y-67078846D01*
X96730261Y-67233489D01*
X96730264Y-67233501D01*
X96790602Y-67379172D01*
X96790609Y-67379185D01*
X96878210Y-67510288D01*
X96878213Y-67510292D01*
X96989707Y-67621786D01*
X96989711Y-67621789D01*
X97120814Y-67709390D01*
X97120827Y-67709397D01*
X97247609Y-67761911D01*
X97266503Y-67769737D01*
X97421143Y-67800497D01*
X97421153Y-67800499D01*
X97421156Y-67800500D01*
X97421158Y-67800500D01*
X97578844Y-67800500D01*
X97578845Y-67800499D01*
X97733497Y-67769737D01*
X97879179Y-67709394D01*
X97886256Y-67704665D01*
X98010875Y-67621398D01*
X98077553Y-67600520D01*
X98079766Y-67600500D01*
X107349960Y-67600500D01*
X107416999Y-67620185D01*
X107437641Y-67636819D01*
X109169656Y-69368834D01*
X109203141Y-69430157D01*
X109198157Y-69499849D01*
X109156285Y-69555782D01*
X109090821Y-69580199D01*
X109081975Y-69580515D01*
X107715655Y-69580515D01*
X107715639Y-69580514D01*
X107708043Y-69580514D01*
X107549928Y-69580514D01*
X107475341Y-69600500D01*
X107397199Y-69621438D01*
X107397198Y-69621439D01*
X107345838Y-69651092D01*
X107290765Y-69682887D01*
X107228768Y-69699500D01*
X106410097Y-69699500D01*
X106343058Y-69679815D01*
X106322416Y-69663181D01*
X105297590Y-68638355D01*
X105297588Y-68638352D01*
X105178717Y-68519481D01*
X105178716Y-68519480D01*
X105091904Y-68469360D01*
X105091904Y-68469359D01*
X105091900Y-68469358D01*
X105041785Y-68440423D01*
X104889057Y-68399499D01*
X104730943Y-68399499D01*
X104723347Y-68399499D01*
X104723331Y-68399500D01*
X89889057Y-68399500D01*
X89730943Y-68399500D01*
X89578215Y-68440423D01*
X89578214Y-68440423D01*
X89578212Y-68440424D01*
X89578209Y-68440425D01*
X89528096Y-68469359D01*
X89528095Y-68469360D01*
X89516984Y-68475775D01*
X89441285Y-68519479D01*
X89441282Y-68519481D01*
X89329478Y-68631286D01*
X88297582Y-69663181D01*
X88236259Y-69696666D01*
X88209901Y-69699500D01*
X86962129Y-69699500D01*
X86962123Y-69699501D01*
X86902516Y-69705908D01*
X86767671Y-69756202D01*
X86767664Y-69756206D01*
X86652455Y-69842452D01*
X86652452Y-69842455D01*
X86566206Y-69957664D01*
X86566202Y-69957671D01*
X86515908Y-70092517D01*
X86509501Y-70152116D01*
X86509500Y-70152135D01*
X86509500Y-71847870D01*
X86509501Y-71847876D01*
X86515908Y-71907483D01*
X86566202Y-72042328D01*
X86566204Y-72042331D01*
X86640209Y-72141189D01*
X86664627Y-72206653D01*
X86649776Y-72274926D01*
X86600371Y-72324332D01*
X86540943Y-72339500D01*
X86147974Y-72339500D01*
X86121319Y-72341922D01*
X86076891Y-72345959D01*
X86076887Y-72345960D01*
X86067664Y-72348834D01*
X85997804Y-72349982D01*
X85943099Y-72318128D01*
X85884512Y-72259541D01*
X85884504Y-72259535D01*
X85815995Y-72219982D01*
X85815990Y-72219979D01*
X85771567Y-72208076D01*
X85739562Y-72199500D01*
X82339562Y-72199500D01*
X82260438Y-72199500D01*
X82232135Y-72207084D01*
X82184009Y-72219979D01*
X82184004Y-72219982D01*
X82115495Y-72259535D01*
X82115491Y-72259538D01*
X82056899Y-72318130D01*
X81995575Y-72351614D01*
X81932330Y-72348834D01*
X81923104Y-72345959D01*
X81852026Y-72339500D01*
X80940503Y-72339500D01*
X80873464Y-72319815D01*
X80827709Y-72267011D01*
X80817765Y-72197853D01*
X80846790Y-72134297D01*
X80868347Y-72116084D01*
X80867669Y-72115151D01*
X81037213Y-71991971D01*
X81037215Y-71991968D01*
X81037219Y-71991966D01*
X81181966Y-71847219D01*
X81181968Y-71847215D01*
X81181971Y-71847213D01*
X81266922Y-71730286D01*
X81302287Y-71681610D01*
X81395220Y-71499219D01*
X81458477Y-71304534D01*
X81490500Y-71102352D01*
X81490500Y-70897648D01*
X81458477Y-70695466D01*
X81458476Y-70695464D01*
X81420584Y-70578844D01*
X81395220Y-70500781D01*
X81395218Y-70500778D01*
X81395218Y-70500776D01*
X81354647Y-70421153D01*
X81302287Y-70318390D01*
X81294556Y-70307749D01*
X81181971Y-70152786D01*
X81037213Y-70008028D01*
X80871613Y-69887715D01*
X80871612Y-69887714D01*
X80871610Y-69887713D01*
X80814653Y-69858691D01*
X80689223Y-69794781D01*
X80494534Y-69731522D01*
X80319995Y-69703878D01*
X80292352Y-69699500D01*
X80087648Y-69699500D01*
X80063329Y-69703351D01*
X79885465Y-69731522D01*
X79690776Y-69794781D01*
X79508386Y-69887715D01*
X79342786Y-70008028D01*
X79198028Y-70152786D01*
X79077715Y-70318386D01*
X78984781Y-70500776D01*
X78921522Y-70695465D01*
X78889500Y-70897648D01*
X78889500Y-71102351D01*
X78921522Y-71304534D01*
X78984781Y-71499223D01*
X79077715Y-71681613D01*
X79198028Y-71847213D01*
X79342786Y-71991971D01*
X79497749Y-72104556D01*
X79508390Y-72112287D01*
X79597212Y-72157544D01*
X79690776Y-72205218D01*
X79690778Y-72205218D01*
X79690781Y-72205220D01*
X79736205Y-72219979D01*
X79885465Y-72268477D01*
X79986557Y-72284488D01*
X80087648Y-72300500D01*
X80087649Y-72300500D01*
X80252409Y-72300500D01*
X80319448Y-72320185D01*
X80365203Y-72372989D01*
X80375147Y-72442147D01*
X80346122Y-72505703D01*
X80340090Y-72512181D01*
X80245566Y-72606704D01*
X80245565Y-72606705D01*
X80156927Y-72753329D01*
X80105959Y-72916894D01*
X80099500Y-72987976D01*
X80099500Y-73512024D01*
X80101678Y-73535993D01*
X80088141Y-73604538D01*
X80065868Y-73634895D01*
X75631286Y-78069478D01*
X75519481Y-78181282D01*
X75519479Y-78181285D01*
X75485414Y-78240289D01*
X75485413Y-78240291D01*
X75440423Y-78318214D01*
X75440423Y-78318215D01*
X75399499Y-78470943D01*
X75399499Y-78470945D01*
X75399499Y-78639046D01*
X75399500Y-78639059D01*
X75399500Y-88913330D01*
X75399499Y-88913348D01*
X75399499Y-89079054D01*
X75399498Y-89079054D01*
X75410519Y-89120185D01*
X75440423Y-89231785D01*
X75440424Y-89231787D01*
X75440423Y-89231787D01*
X75451217Y-89250481D01*
X75451218Y-89250483D01*
X75519475Y-89368709D01*
X75519481Y-89368717D01*
X75638349Y-89487585D01*
X75638355Y-89487590D01*
X76840583Y-90689819D01*
X76874068Y-90751142D01*
X76869084Y-90820834D01*
X76827212Y-90876767D01*
X76761748Y-90901184D01*
X76752902Y-90901500D01*
X73350074Y-90901500D01*
X73283035Y-90881815D01*
X73237280Y-90829011D01*
X73227336Y-90759853D01*
X73250808Y-90703189D01*
X73333793Y-90592335D01*
X73333792Y-90592335D01*
X73333796Y-90592331D01*
X73384091Y-90457483D01*
X73390500Y-90397873D01*
X73390499Y-88602128D01*
X73384091Y-88542517D01*
X73382810Y-88539083D01*
X73333797Y-88407671D01*
X73333793Y-88407664D01*
X73247547Y-88292455D01*
X73247544Y-88292452D01*
X73132335Y-88206206D01*
X73132328Y-88206202D01*
X72997482Y-88155908D01*
X72997483Y-88155908D01*
X72937883Y-88149501D01*
X72937881Y-88149500D01*
X72937873Y-88149500D01*
X72937865Y-88149500D01*
X72764500Y-88149500D01*
X72697461Y-88129815D01*
X72651706Y-88077011D01*
X72640500Y-88025500D01*
X72640500Y-82760097D01*
X72660185Y-82693058D01*
X72676819Y-82672416D01*
X72810178Y-82539057D01*
X73014662Y-82334572D01*
X73075983Y-82301089D01*
X73078150Y-82300638D01*
X73136085Y-82289113D01*
X73233497Y-82269737D01*
X73379179Y-82209394D01*
X73510289Y-82121789D01*
X73621789Y-82010289D01*
X73709394Y-81879179D01*
X73769737Y-81733497D01*
X73800500Y-81578842D01*
X73800500Y-81421158D01*
X73800500Y-81421155D01*
X73800499Y-81421153D01*
X73769737Y-81266503D01*
X73711592Y-81126127D01*
X73709397Y-81120827D01*
X73709390Y-81120814D01*
X73621789Y-80989711D01*
X73621786Y-80989707D01*
X73510292Y-80878213D01*
X73510288Y-80878210D01*
X73379185Y-80790609D01*
X73379172Y-80790602D01*
X73233501Y-80730264D01*
X73233489Y-80730261D01*
X73078845Y-80699500D01*
X73078842Y-80699500D01*
X72921158Y-80699500D01*
X72921155Y-80699500D01*
X72766510Y-80730261D01*
X72766498Y-80730264D01*
X72620827Y-80790602D01*
X72620814Y-80790609D01*
X72489711Y-80878210D01*
X72489707Y-80878213D01*
X72378213Y-80989707D01*
X72378210Y-80989711D01*
X72290609Y-81120814D01*
X72290602Y-81120827D01*
X72230264Y-81266498D01*
X72230261Y-81266508D01*
X72199361Y-81421850D01*
X72166976Y-81483761D01*
X72165425Y-81485339D01*
X71559481Y-82091282D01*
X71559479Y-82091285D01*
X71527022Y-82147504D01*
X71527021Y-82147506D01*
X71480423Y-82228214D01*
X71480423Y-82228215D01*
X71439499Y-82380943D01*
X71439499Y-82380945D01*
X71439499Y-82549046D01*
X71439500Y-82549059D01*
X71439500Y-88025500D01*
X71419815Y-88092539D01*
X71367011Y-88138294D01*
X71315501Y-88149500D01*
X71142130Y-88149500D01*
X71142123Y-88149501D01*
X71082516Y-88155908D01*
X70947671Y-88206202D01*
X70947664Y-88206206D01*
X70832455Y-88292452D01*
X70832452Y-88292455D01*
X70746206Y-88407664D01*
X70746203Y-88407669D01*
X70697189Y-88539083D01*
X70655317Y-88595016D01*
X70589853Y-88619433D01*
X70521580Y-88604581D01*
X70493326Y-88583430D01*
X70379786Y-88469890D01*
X70207815Y-88344948D01*
X70207814Y-88344947D01*
X70168205Y-88324765D01*
X70117409Y-88276791D01*
X70100500Y-88214281D01*
X70100500Y-87397955D01*
X70120185Y-87330916D01*
X70172989Y-87285161D01*
X70200303Y-87276339D01*
X70233497Y-87269737D01*
X70379179Y-87209394D01*
X70510289Y-87121789D01*
X70621789Y-87010289D01*
X70709394Y-86879179D01*
X70769737Y-86733497D01*
X70800500Y-86578842D01*
X70800500Y-86421158D01*
X70800500Y-86421155D01*
X70800499Y-86421153D01*
X70769738Y-86266510D01*
X70769738Y-86266508D01*
X70769737Y-86266503D01*
X70769735Y-86266498D01*
X70709397Y-86120827D01*
X70709390Y-86120814D01*
X70621789Y-85989711D01*
X70621786Y-85989707D01*
X70510292Y-85878213D01*
X70510288Y-85878210D01*
X70379185Y-85790609D01*
X70379172Y-85790602D01*
X70233501Y-85730264D01*
X70233489Y-85730261D01*
X70078845Y-85699500D01*
X70078842Y-85699500D01*
X69921158Y-85699500D01*
X69921155Y-85699500D01*
X69766510Y-85730261D01*
X69766498Y-85730264D01*
X69620827Y-85790602D01*
X69620814Y-85790609D01*
X69489711Y-85878210D01*
X69489707Y-85878213D01*
X69378213Y-85989707D01*
X69378210Y-85989711D01*
X69290609Y-86120814D01*
X69290602Y-86120827D01*
X69230264Y-86266498D01*
X69230261Y-86266508D01*
X69199362Y-86421847D01*
X69190597Y-86438602D01*
X69186578Y-86457081D01*
X69167834Y-86482118D01*
X69166977Y-86483758D01*
X69165427Y-86485335D01*
X69124224Y-86526538D01*
X69124212Y-86526552D01*
X69019478Y-86631286D01*
X68969361Y-86718094D01*
X68969359Y-86718096D01*
X68940425Y-86768209D01*
X68940424Y-86768210D01*
X68940423Y-86768215D01*
X68899499Y-86920943D01*
X68899499Y-86920945D01*
X68899499Y-87089046D01*
X68899500Y-87089059D01*
X68899500Y-88214281D01*
X68879815Y-88281320D01*
X68831795Y-88324765D01*
X68792185Y-88344947D01*
X68792184Y-88344948D01*
X68620213Y-88469890D01*
X68469890Y-88620213D01*
X68344949Y-88792182D01*
X68340484Y-88800946D01*
X68292509Y-88851742D01*
X68224688Y-88868536D01*
X68158553Y-88845998D01*
X68119516Y-88800946D01*
X68115050Y-88792182D01*
X67990109Y-88620213D01*
X67839786Y-88469890D01*
X67667820Y-88344951D01*
X67478414Y-88248444D01*
X67478413Y-88248443D01*
X67478412Y-88248443D01*
X67276243Y-88182754D01*
X67276241Y-88182753D01*
X67276240Y-88182753D01*
X67114957Y-88157208D01*
X67066287Y-88149500D01*
X66853713Y-88149500D01*
X66805042Y-88157208D01*
X66643760Y-88182753D01*
X66441585Y-88248444D01*
X66252179Y-88344951D01*
X66080213Y-88469890D01*
X65929890Y-88620213D01*
X65804949Y-88792182D01*
X65800484Y-88800946D01*
X65752509Y-88851742D01*
X65684688Y-88868536D01*
X65618553Y-88845998D01*
X65579516Y-88800946D01*
X65575050Y-88792182D01*
X65450109Y-88620213D01*
X65299786Y-88469890D01*
X65127815Y-88344948D01*
X65127814Y-88344947D01*
X65088205Y-88324765D01*
X65037409Y-88276791D01*
X65020500Y-88214281D01*
X65020500Y-77380097D01*
X65040185Y-77313058D01*
X65056819Y-77292416D01*
X75539102Y-66810133D01*
X75539106Y-66810128D01*
X75558626Y-66790609D01*
X75619850Y-66729385D01*
X75712419Y-66636818D01*
X75773742Y-66603334D01*
X75800099Y-66600500D01*
X96613445Y-66600500D01*
X96644985Y-66609761D01*
G37*
G04 #@! TD.AperFunction*
G04 #@! TA.AperFunction,NonConductor*
G36*
X70624340Y-90388068D02*
G01*
X70680274Y-90429939D01*
X70697189Y-90460917D01*
X70746202Y-90592328D01*
X70746206Y-90592335D01*
X70829192Y-90703189D01*
X70853610Y-90768653D01*
X70838759Y-90836926D01*
X70789354Y-90886332D01*
X70729926Y-90901500D01*
X70240630Y-90901500D01*
X70173591Y-90881815D01*
X70127836Y-90829011D01*
X70117892Y-90759853D01*
X70146917Y-90696297D01*
X70184335Y-90667015D01*
X70207816Y-90655051D01*
X70379792Y-90530104D01*
X70493329Y-90416566D01*
X70554648Y-90383084D01*
X70624340Y-90388068D01*
G37*
G04 #@! TD.AperFunction*
G04 #@! TA.AperFunction,NonConductor*
G36*
X150642539Y-52820185D02*
G01*
X150688294Y-52872989D01*
X150699500Y-52924500D01*
X150699500Y-91575500D01*
X150679815Y-91642539D01*
X150627011Y-91688294D01*
X150575500Y-91699500D01*
X147028197Y-91699500D01*
X146961158Y-91679815D01*
X146915403Y-91627011D01*
X146905459Y-91557853D01*
X146934484Y-91494297D01*
X146940516Y-91487819D01*
X148325984Y-90102351D01*
X149980520Y-88447816D01*
X150059577Y-88310884D01*
X150100501Y-88158157D01*
X150100501Y-88000042D01*
X150100501Y-87992447D01*
X150100500Y-87992429D01*
X150100500Y-68079765D01*
X150120185Y-68012726D01*
X150121398Y-68010874D01*
X150209390Y-67879185D01*
X150209390Y-67879184D01*
X150209394Y-67879179D01*
X150269737Y-67733497D01*
X150300500Y-67578842D01*
X150300500Y-67421158D01*
X150300500Y-67421155D01*
X150300499Y-67421153D01*
X150272843Y-67282119D01*
X150269737Y-67266503D01*
X150269735Y-67266498D01*
X150209397Y-67120827D01*
X150209390Y-67120814D01*
X150121789Y-66989711D01*
X150121786Y-66989707D01*
X150010292Y-66878213D01*
X150010288Y-66878210D01*
X149879185Y-66790609D01*
X149879172Y-66790602D01*
X149733501Y-66730264D01*
X149733489Y-66730261D01*
X149578845Y-66699500D01*
X149578842Y-66699500D01*
X149421158Y-66699500D01*
X149421155Y-66699500D01*
X149266510Y-66730261D01*
X149260676Y-66732031D01*
X149259873Y-66729385D01*
X149202056Y-66735396D01*
X149139687Y-66703902D01*
X149104245Y-66643689D01*
X149100500Y-66613444D01*
X149100500Y-58970943D01*
X149100499Y-58970940D01*
X149091119Y-58935931D01*
X149059577Y-58818215D01*
X149010665Y-58733497D01*
X148980520Y-58681284D01*
X148868716Y-58569480D01*
X148868715Y-58569479D01*
X148864385Y-58565149D01*
X148864374Y-58565139D01*
X144934131Y-54634896D01*
X144900646Y-54573573D01*
X144898321Y-54535998D01*
X144900500Y-54512026D01*
X144900500Y-53987974D01*
X144894041Y-53916896D01*
X144857771Y-53800500D01*
X144843072Y-53753329D01*
X144825483Y-53724233D01*
X144754437Y-53606709D01*
X144754435Y-53606707D01*
X144754434Y-53606705D01*
X144633294Y-53485565D01*
X144603770Y-53467717D01*
X144486673Y-53396929D01*
X144486671Y-53396928D01*
X144486669Y-53396927D01*
X144486670Y-53396927D01*
X144323104Y-53345959D01*
X144323106Y-53345959D01*
X144294672Y-53343375D01*
X144252026Y-53339500D01*
X143147974Y-53339500D01*
X143121319Y-53341922D01*
X143076891Y-53345959D01*
X143076887Y-53345960D01*
X143067664Y-53348834D01*
X142997804Y-53349982D01*
X142943099Y-53318128D01*
X142884512Y-53259541D01*
X142884504Y-53259535D01*
X142815995Y-53219982D01*
X142815990Y-53219979D01*
X142790513Y-53213152D01*
X142739562Y-53199500D01*
X139339562Y-53199500D01*
X139260438Y-53199500D01*
X139222224Y-53209739D01*
X139184009Y-53219979D01*
X139184004Y-53219982D01*
X139115495Y-53259535D01*
X139115491Y-53259538D01*
X139056899Y-53318130D01*
X138995575Y-53351614D01*
X138932330Y-53348834D01*
X138923104Y-53345959D01*
X138852026Y-53339500D01*
X137747974Y-53339500D01*
X137705327Y-53343375D01*
X137676894Y-53345959D01*
X137513329Y-53396927D01*
X137366707Y-53485564D01*
X137332793Y-53519479D01*
X137245563Y-53606709D01*
X137245561Y-53606711D01*
X137240260Y-53612013D01*
X137238162Y-53609915D01*
X137192438Y-53642604D01*
X137151663Y-53649500D01*
X131550098Y-53649500D01*
X131483059Y-53629815D01*
X131462417Y-53613181D01*
X131368717Y-53519481D01*
X131368716Y-53519480D01*
X131279057Y-53467716D01*
X131279056Y-53467715D01*
X131231783Y-53440422D01*
X131079054Y-53399498D01*
X131070997Y-53398438D01*
X131071188Y-53396981D01*
X131012725Y-53379814D01*
X131010873Y-53378601D01*
X130879185Y-53290609D01*
X130879172Y-53290602D01*
X130733501Y-53230264D01*
X130733489Y-53230261D01*
X130578845Y-53199500D01*
X130578842Y-53199500D01*
X130421158Y-53199500D01*
X130421155Y-53199500D01*
X130266510Y-53230261D01*
X130266498Y-53230264D01*
X130120827Y-53290602D01*
X130120814Y-53290609D01*
X129989711Y-53378210D01*
X129989707Y-53378213D01*
X129878213Y-53489707D01*
X129878210Y-53489711D01*
X129790609Y-53620814D01*
X129790602Y-53620827D01*
X129730264Y-53766498D01*
X129730261Y-53766510D01*
X129699500Y-53921153D01*
X129699500Y-54078846D01*
X129730261Y-54233489D01*
X129730264Y-54233501D01*
X129790602Y-54379172D01*
X129790609Y-54379185D01*
X129878210Y-54510288D01*
X129878213Y-54510292D01*
X129897755Y-54529834D01*
X129908367Y-54549270D01*
X129922868Y-54566004D01*
X129924784Y-54579335D01*
X129931240Y-54591157D01*
X129929660Y-54613243D01*
X129932812Y-54635162D01*
X129927216Y-54647413D01*
X129926256Y-54660849D01*
X129912985Y-54678575D01*
X129903787Y-54698718D01*
X129892455Y-54706000D01*
X129884384Y-54716782D01*
X129863638Y-54724519D01*
X129845009Y-54736492D01*
X129823090Y-54739643D01*
X129818920Y-54741199D01*
X129810074Y-54741515D01*
X129564597Y-54741515D01*
X129497558Y-54721830D01*
X129476916Y-54705196D01*
X127783901Y-53012181D01*
X127750416Y-52950858D01*
X127755400Y-52881166D01*
X127797272Y-52825233D01*
X127862736Y-52800816D01*
X127871582Y-52800500D01*
X150575500Y-52800500D01*
X150642539Y-52820185D01*
G37*
G04 #@! TD.AperFunction*
G04 #@! TA.AperFunction,NonConductor*
G36*
X100257942Y-52820185D02*
G01*
X100303697Y-52872989D01*
X100313641Y-52942147D01*
X100284616Y-53005703D01*
X100278584Y-53012181D01*
X99987584Y-53303181D01*
X99926261Y-53336666D01*
X99899903Y-53339500D01*
X99747974Y-53339500D01*
X99705327Y-53343375D01*
X99676894Y-53345959D01*
X99513329Y-53396927D01*
X99366705Y-53485565D01*
X99245565Y-53606705D01*
X99156927Y-53753329D01*
X99105959Y-53916894D01*
X99105959Y-53916896D01*
X99099500Y-53987974D01*
X99099500Y-54512026D01*
X99104344Y-54565334D01*
X99105959Y-54583105D01*
X99156927Y-54746670D01*
X99156929Y-54746673D01*
X99242792Y-54888708D01*
X99245565Y-54893294D01*
X99264590Y-54912319D01*
X99268779Y-54919990D01*
X99275803Y-54925194D01*
X99285267Y-54950187D01*
X99298075Y-54973642D01*
X99297451Y-54982360D01*
X99300547Y-54990535D01*
X99294997Y-55016674D01*
X99293091Y-55043334D01*
X99287470Y-55052127D01*
X99286037Y-55058881D01*
X99265693Y-55086200D01*
X99265028Y-55087241D01*
X99264729Y-55087542D01*
X99245563Y-55106709D01*
X99245263Y-55107204D01*
X99239782Y-55112741D01*
X99215245Y-55126298D01*
X99192438Y-55142604D01*
X99182782Y-55144237D01*
X99178627Y-55146533D01*
X99171865Y-55146083D01*
X99151663Y-55149500D01*
X98336670Y-55149500D01*
X98336654Y-55149499D01*
X98329058Y-55149499D01*
X98170943Y-55149499D01*
X98094579Y-55169961D01*
X98018214Y-55190423D01*
X98018209Y-55190426D01*
X97881290Y-55269475D01*
X97881282Y-55269481D01*
X95985339Y-57165425D01*
X95924016Y-57198910D01*
X95921850Y-57199361D01*
X95766508Y-57230261D01*
X95766498Y-57230264D01*
X95620827Y-57290602D01*
X95620814Y-57290609D01*
X95489711Y-57378210D01*
X95489707Y-57378213D01*
X95378213Y-57489707D01*
X95378210Y-57489711D01*
X95290609Y-57620814D01*
X95290602Y-57620827D01*
X95230264Y-57766498D01*
X95230261Y-57766510D01*
X95199500Y-57921153D01*
X95199500Y-58078846D01*
X95230261Y-58233489D01*
X95230264Y-58233501D01*
X95290602Y-58379172D01*
X95290609Y-58379185D01*
X95378210Y-58510288D01*
X95382076Y-58514999D01*
X95380721Y-58516110D01*
X95410225Y-58570142D01*
X95405241Y-58639834D01*
X95363369Y-58695767D01*
X95297905Y-58720184D01*
X95289059Y-58720500D01*
X93710941Y-58720500D01*
X93643902Y-58700815D01*
X93598147Y-58648011D01*
X93588203Y-58578853D01*
X93617228Y-58515297D01*
X93621032Y-58511211D01*
X93621786Y-58510292D01*
X93621789Y-58510289D01*
X93709394Y-58379179D01*
X93769737Y-58233497D01*
X93800500Y-58078842D01*
X93800500Y-57921158D01*
X93800500Y-57921155D01*
X93800499Y-57921153D01*
X93784621Y-57841329D01*
X93769737Y-57766503D01*
X93763822Y-57752223D01*
X93709397Y-57620827D01*
X93709390Y-57620814D01*
X93621398Y-57489125D01*
X93600520Y-57422447D01*
X93600500Y-57420234D01*
X93600500Y-54420943D01*
X93594754Y-54399500D01*
X93575879Y-54329057D01*
X93559577Y-54268216D01*
X93559575Y-54268212D01*
X93559574Y-54268209D01*
X93480524Y-54131290D01*
X93480521Y-54131286D01*
X93480520Y-54131284D01*
X93368716Y-54019480D01*
X93368715Y-54019479D01*
X93364385Y-54015149D01*
X93364374Y-54015139D01*
X93237590Y-53888355D01*
X93237588Y-53888352D01*
X93118717Y-53769481D01*
X93118716Y-53769480D01*
X93031904Y-53719360D01*
X93031904Y-53719359D01*
X93031900Y-53719358D01*
X92981785Y-53690423D01*
X92829057Y-53649499D01*
X92670943Y-53649499D01*
X92663347Y-53649499D01*
X92663331Y-53649500D01*
X87848337Y-53649500D01*
X87781298Y-53629815D01*
X87760698Y-53611054D01*
X87759740Y-53612013D01*
X87754438Y-53606711D01*
X87754437Y-53606709D01*
X87633291Y-53485563D01*
X87486673Y-53396929D01*
X87486671Y-53396928D01*
X87486669Y-53396927D01*
X87486670Y-53396927D01*
X87323104Y-53345959D01*
X87323106Y-53345959D01*
X87294672Y-53343375D01*
X87252026Y-53339500D01*
X86147974Y-53339500D01*
X86121319Y-53341922D01*
X86076891Y-53345959D01*
X86076887Y-53345960D01*
X86067664Y-53348834D01*
X85997804Y-53349982D01*
X85943099Y-53318128D01*
X85884512Y-53259541D01*
X85884504Y-53259535D01*
X85815995Y-53219982D01*
X85815990Y-53219979D01*
X85790513Y-53213152D01*
X85739562Y-53199500D01*
X82339562Y-53199500D01*
X82260438Y-53199500D01*
X82222224Y-53209739D01*
X82184009Y-53219979D01*
X82184004Y-53219982D01*
X82115495Y-53259535D01*
X82115491Y-53259538D01*
X82056899Y-53318130D01*
X81995575Y-53351614D01*
X81932330Y-53348834D01*
X81923104Y-53345959D01*
X81852026Y-53339500D01*
X80747974Y-53339500D01*
X80705327Y-53343375D01*
X80676894Y-53345959D01*
X80513329Y-53396927D01*
X80366707Y-53485564D01*
X80332793Y-53519479D01*
X80245563Y-53606709D01*
X80245561Y-53606711D01*
X80240260Y-53612013D01*
X80238162Y-53609915D01*
X80192438Y-53642604D01*
X80151663Y-53649500D01*
X79836669Y-53649500D01*
X79836653Y-53649499D01*
X79829057Y-53649499D01*
X79670943Y-53649499D01*
X79563587Y-53678265D01*
X79518210Y-53690424D01*
X79518209Y-53690425D01*
X79468096Y-53719359D01*
X79468095Y-53719360D01*
X79459655Y-53724233D01*
X79381285Y-53769479D01*
X79381282Y-53769481D01*
X78019481Y-55131282D01*
X78019475Y-55131290D01*
X77983189Y-55194141D01*
X77983189Y-55194143D01*
X77940423Y-55268214D01*
X77940423Y-55268215D01*
X77899499Y-55420943D01*
X77899499Y-55420945D01*
X77899499Y-55589046D01*
X77899500Y-55589059D01*
X77899500Y-56413330D01*
X77899499Y-56413348D01*
X77899499Y-56579054D01*
X77899498Y-56579054D01*
X77934326Y-56709030D01*
X77940423Y-56731785D01*
X77960468Y-56766503D01*
X77994375Y-56825233D01*
X78019479Y-56868715D01*
X78138349Y-56987585D01*
X78138355Y-56987590D01*
X79849094Y-58698329D01*
X79882579Y-58759652D01*
X79877595Y-58829344D01*
X79835723Y-58885277D01*
X79799731Y-58903941D01*
X79575618Y-58976760D01*
X79351151Y-59091132D01*
X79147350Y-59239201D01*
X79147345Y-59239205D01*
X78969205Y-59417345D01*
X78969201Y-59417350D01*
X78821132Y-59621151D01*
X78706760Y-59845616D01*
X78628910Y-60085214D01*
X78605424Y-60233497D01*
X78589500Y-60334038D01*
X78589500Y-60585962D01*
X78619134Y-60773065D01*
X78628910Y-60834785D01*
X78706760Y-61074383D01*
X78732430Y-61124762D01*
X78810662Y-61278301D01*
X78821132Y-61298848D01*
X78969201Y-61502649D01*
X78969205Y-61502654D01*
X78969207Y-61502656D01*
X79147344Y-61680793D01*
X79147345Y-61680794D01*
X79147344Y-61680794D01*
X79153661Y-61685383D01*
X79196327Y-61740714D01*
X79202305Y-61810327D01*
X79169699Y-61872122D01*
X79108860Y-61906479D01*
X79061378Y-61908174D01*
X79006611Y-61899500D01*
X78833389Y-61899500D01*
X78793728Y-61905781D01*
X78662302Y-61926597D01*
X78497552Y-61980128D01*
X78343211Y-62058768D01*
X78319019Y-62076345D01*
X78203072Y-62160586D01*
X78203070Y-62160588D01*
X78203069Y-62160588D01*
X78080588Y-62283069D01*
X78080588Y-62283070D01*
X78080586Y-62283072D01*
X78045380Y-62331529D01*
X77978768Y-62423211D01*
X77900128Y-62577552D01*
X77846597Y-62742302D01*
X77819500Y-62913389D01*
X77819500Y-63086610D01*
X77841423Y-63225032D01*
X77846598Y-63257701D01*
X77900127Y-63422445D01*
X77978768Y-63576788D01*
X78080586Y-63716928D01*
X78203072Y-63839414D01*
X78343212Y-63941232D01*
X78497555Y-64019873D01*
X78662299Y-64073402D01*
X78833389Y-64100500D01*
X78833390Y-64100500D01*
X79006610Y-64100500D01*
X79006611Y-64100500D01*
X79177701Y-64073402D01*
X79342445Y-64019873D01*
X79496788Y-63941232D01*
X79636928Y-63839414D01*
X79759414Y-63716928D01*
X79861232Y-63576788D01*
X79939873Y-63422445D01*
X79993402Y-63257701D01*
X80020500Y-63086611D01*
X80020500Y-62913389D01*
X79993402Y-62742299D01*
X79939873Y-62577555D01*
X79861232Y-62423212D01*
X79759414Y-62283072D01*
X79707482Y-62231140D01*
X79673997Y-62169817D01*
X79678981Y-62100125D01*
X79720853Y-62044192D01*
X79786317Y-62019775D01*
X79814561Y-62020986D01*
X79815212Y-62021089D01*
X79815215Y-62021090D01*
X80064038Y-62060500D01*
X80064039Y-62060500D01*
X80315961Y-62060500D01*
X80315962Y-62060500D01*
X80564785Y-62021090D01*
X80804379Y-61943241D01*
X81028845Y-61828870D01*
X81232656Y-61680793D01*
X81410793Y-61502656D01*
X81558870Y-61298845D01*
X81673241Y-61074379D01*
X81751090Y-60834785D01*
X81790500Y-60585962D01*
X81790500Y-60334038D01*
X81751090Y-60085215D01*
X81751068Y-60085149D01*
X81750635Y-60083813D01*
X81750618Y-60083251D01*
X81749951Y-60080468D01*
X81750535Y-60080327D01*
X81748643Y-60013972D01*
X81784726Y-59954141D01*
X81847428Y-59923315D01*
X81868568Y-59921500D01*
X84075500Y-59921500D01*
X84142539Y-59941185D01*
X84188294Y-59993989D01*
X84199500Y-60045500D01*
X84199500Y-60078846D01*
X84230261Y-60233489D01*
X84230264Y-60233501D01*
X84290602Y-60379172D01*
X84290609Y-60379185D01*
X84378210Y-60510288D01*
X84378213Y-60510292D01*
X84430366Y-60562445D01*
X84463851Y-60623768D01*
X84458867Y-60693460D01*
X84416995Y-60749393D01*
X84351531Y-60773810D01*
X84326500Y-60773065D01*
X84147515Y-60749501D01*
X84147512Y-60749500D01*
X84147506Y-60749500D01*
X83852494Y-60749500D01*
X83852486Y-60749500D01*
X83574085Y-60786153D01*
X83560007Y-60788007D01*
X83434841Y-60821545D01*
X83275048Y-60864361D01*
X83275038Y-60864364D01*
X83002499Y-60977254D01*
X83002489Y-60977258D01*
X82747006Y-61124761D01*
X82512959Y-61304352D01*
X82512952Y-61304358D01*
X82304358Y-61512952D01*
X82304352Y-61512959D01*
X82124761Y-61747006D01*
X81977258Y-62002489D01*
X81977254Y-62002499D01*
X81864364Y-62275038D01*
X81864361Y-62275048D01*
X81788823Y-62556964D01*
X81788008Y-62560004D01*
X81788006Y-62560015D01*
X81749500Y-62852486D01*
X81749500Y-63147513D01*
X81779873Y-63378210D01*
X81788007Y-63439993D01*
X81862212Y-63716930D01*
X81864361Y-63724951D01*
X81864364Y-63724961D01*
X81977254Y-63997500D01*
X81977258Y-63997510D01*
X82124761Y-64252993D01*
X82304352Y-64487040D01*
X82304358Y-64487047D01*
X82512952Y-64695641D01*
X82512959Y-64695647D01*
X82747006Y-64875238D01*
X83002489Y-65022741D01*
X83002490Y-65022741D01*
X83002493Y-65022743D01*
X83275048Y-65135639D01*
X83350013Y-65155725D01*
X83409673Y-65192090D01*
X83440202Y-65254937D01*
X83431907Y-65324312D01*
X83387422Y-65378190D01*
X83320870Y-65399465D01*
X83317919Y-65399500D01*
X75586670Y-65399500D01*
X75586654Y-65399499D01*
X75579058Y-65399499D01*
X75420943Y-65399499D01*
X75344579Y-65419961D01*
X75268214Y-65440423D01*
X75268209Y-65440426D01*
X75131290Y-65519475D01*
X75131282Y-65519481D01*
X74631284Y-66019481D01*
X64051286Y-76599478D01*
X63939482Y-76711281D01*
X63939480Y-76711283D01*
X63939480Y-76711284D01*
X63891702Y-76794038D01*
X63891701Y-76794038D01*
X63860424Y-76848212D01*
X63860423Y-76848213D01*
X63839961Y-76924579D01*
X63819499Y-77000943D01*
X63819499Y-77000945D01*
X63819499Y-77169046D01*
X63819500Y-77169059D01*
X63819500Y-88214281D01*
X63799815Y-88281320D01*
X63751795Y-88324765D01*
X63712185Y-88344947D01*
X63712184Y-88344948D01*
X63540213Y-88469890D01*
X63389890Y-88620213D01*
X63264951Y-88792179D01*
X63168444Y-88981585D01*
X63102753Y-89183760D01*
X63069500Y-89393713D01*
X63069500Y-89606286D01*
X63083624Y-89695465D01*
X63102754Y-89816243D01*
X63129204Y-89897648D01*
X63168444Y-90018414D01*
X63264951Y-90207820D01*
X63389890Y-90379786D01*
X63540213Y-90530109D01*
X63712179Y-90655048D01*
X63712181Y-90655049D01*
X63712184Y-90655051D01*
X63901588Y-90751557D01*
X64103757Y-90817246D01*
X64313713Y-90850500D01*
X64313714Y-90850500D01*
X64526286Y-90850500D01*
X64526287Y-90850500D01*
X64736243Y-90817246D01*
X64938412Y-90751557D01*
X65127816Y-90655051D01*
X65214138Y-90592335D01*
X65299786Y-90530109D01*
X65299788Y-90530106D01*
X65299792Y-90530104D01*
X65450104Y-90379792D01*
X65450106Y-90379788D01*
X65450109Y-90379786D01*
X65575048Y-90207820D01*
X65575047Y-90207820D01*
X65575051Y-90207816D01*
X65579514Y-90199054D01*
X65627488Y-90148259D01*
X65695308Y-90131463D01*
X65761444Y-90153999D01*
X65800486Y-90199056D01*
X65804951Y-90207820D01*
X65929890Y-90379786D01*
X66080213Y-90530109D01*
X66252179Y-90655048D01*
X66252181Y-90655049D01*
X66252184Y-90655051D01*
X66441588Y-90751557D01*
X66643757Y-90817246D01*
X66853713Y-90850500D01*
X66853714Y-90850500D01*
X67066286Y-90850500D01*
X67066287Y-90850500D01*
X67276243Y-90817246D01*
X67318523Y-90803507D01*
X67388362Y-90801511D01*
X67444522Y-90833757D01*
X68098583Y-91487819D01*
X68132068Y-91549142D01*
X68127084Y-91618834D01*
X68085212Y-91674767D01*
X68019748Y-91699184D01*
X68010902Y-91699500D01*
X61924500Y-91699500D01*
X61857461Y-91679815D01*
X61811706Y-91627011D01*
X61800500Y-91575500D01*
X61800500Y-52924500D01*
X61820185Y-52857461D01*
X61872989Y-52811706D01*
X61924500Y-52800500D01*
X100190903Y-52800500D01*
X100257942Y-52820185D01*
G37*
G04 #@! TD.AperFunction*
M02*
