%TF.GenerationSoftware,KiCad,Pcbnew,9.0.7*%
%TF.CreationDate,2026-02-20T22:19:16+11:00*%
%TF.ProjectId,oled-v2,6f6c6564-2d76-4322-9e6b-696361645f70,rev?*%
%TF.SameCoordinates,Original*%
%TF.FileFunction,Drillmap*%
%TF.FilePolarity,Positive*%
%FSLAX45Y45*%
G04 Gerber Fmt 4.5, Leading zero omitted, Abs format (unit mm)*
G04 Created by KiCad (PCBNEW 9.0.7) date 2026-02-20 22:19:16*
%MOMM*%
%LPD*%
G01*
G04 APERTURE LIST*
%ADD10C,0.050000*%
%ADD11C,0.120000*%
%ADD12C,0.200000*%
%ADD13C,0.170000*%
%ADD14C,0.400000*%
G04 APERTURE END LIST*
D10*
X6150000Y-5250000D02*
X15100000Y-5250000D01*
X15100000Y-9200000D01*
X6150000Y-9200000D01*
X6150000Y-5250000D01*
D11*
X12030000Y-5350000D02*
X12030000Y-5650000D01*
X12030000Y-5650000D02*
X12370000Y-5650000D01*
X12370000Y-5350000D02*
X12030000Y-5350000D01*
X12370000Y-5650000D02*
X12370000Y-5350000D01*
X13930000Y-5350000D02*
X13930000Y-5650000D01*
X13930000Y-5650000D02*
X14270000Y-5650000D01*
X14270000Y-5350000D02*
X13930000Y-5350000D01*
X14270000Y-5650000D02*
X14270000Y-5350000D01*
X10130000Y-7250000D02*
X10130000Y-7550000D01*
X10130000Y-7550000D02*
X10470000Y-7550000D01*
X10470000Y-7250000D02*
X10130000Y-7250000D01*
X10470000Y-7550000D02*
X10470000Y-7250000D01*
X8230000Y-7250000D02*
X8230000Y-7550000D01*
X8230000Y-7550000D02*
X8570000Y-7550000D01*
X8570000Y-7250000D02*
X8230000Y-7250000D01*
X8570000Y-7550000D02*
X8570000Y-7250000D01*
X12030000Y-7250000D02*
X12030000Y-7550000D01*
X12030000Y-7550000D02*
X12370000Y-7550000D01*
X12370000Y-7250000D02*
X12030000Y-7250000D01*
X12370000Y-7550000D02*
X12370000Y-7250000D01*
X10130000Y-5350000D02*
X10130000Y-5650000D01*
X10130000Y-5650000D02*
X10470000Y-5650000D01*
X10470000Y-5350000D02*
X10130000Y-5350000D01*
X10470000Y-5650000D02*
X10470000Y-5350000D01*
X13930000Y-7250000D02*
X13930000Y-7550000D01*
X13930000Y-7550000D02*
X14270000Y-7550000D01*
X14270000Y-7250000D02*
X13930000Y-7250000D01*
X14270000Y-7550000D02*
X14270000Y-7250000D01*
X8230000Y-5350000D02*
X8230000Y-5650000D01*
X8230000Y-5650000D02*
X8570000Y-5650000D01*
X8570000Y-5350000D02*
X8230000Y-5350000D01*
X8570000Y-5650000D02*
X8570000Y-5350000D01*
D12*
D13*
X7807000Y-6215000D02*
X7977000Y-6385000D01*
X7977000Y-6215000D02*
X7807000Y-6385000D01*
X7807000Y-8115000D02*
X7977000Y-8285000D01*
X7977000Y-8115000D02*
X7807000Y-8285000D01*
X8823000Y-6215000D02*
X8993000Y-6385000D01*
X8993000Y-6215000D02*
X8823000Y-6385000D01*
X8823000Y-8115000D02*
X8993000Y-8285000D01*
X8993000Y-8115000D02*
X8823000Y-8285000D01*
X9707000Y-6215000D02*
X9877000Y-6385000D01*
X9877000Y-6215000D02*
X9707000Y-6385000D01*
X9707000Y-8115000D02*
X9877000Y-8285000D01*
X9877000Y-8115000D02*
X9707000Y-8285000D01*
X10723000Y-6215000D02*
X10893000Y-6385000D01*
X10893000Y-6215000D02*
X10723000Y-6385000D01*
X10723000Y-8115000D02*
X10893000Y-8285000D01*
X10893000Y-8115000D02*
X10723000Y-8285000D01*
X11607000Y-6215000D02*
X11777000Y-6385000D01*
X11777000Y-6215000D02*
X11607000Y-6385000D01*
X11607000Y-8115000D02*
X11777000Y-8285000D01*
X11777000Y-8115000D02*
X11607000Y-8285000D01*
X12623000Y-6215000D02*
X12793000Y-6385000D01*
X12793000Y-6215000D02*
X12623000Y-6385000D01*
X12623000Y-8115000D02*
X12793000Y-8285000D01*
X12793000Y-8115000D02*
X12623000Y-8285000D01*
X13507000Y-6215000D02*
X13677000Y-6385000D01*
X13677000Y-6215000D02*
X13507000Y-6385000D01*
X13507000Y-8115000D02*
X13677000Y-8285000D01*
X13677000Y-8115000D02*
X13507000Y-8285000D01*
X14523000Y-6215000D02*
X14693000Y-6385000D01*
X14693000Y-6215000D02*
X14523000Y-6385000D01*
X14523000Y-8115000D02*
X14693000Y-8285000D01*
X14693000Y-8115000D02*
X14523000Y-8285000D01*
D14*
X8600000Y-6300000D02*
G75*
G02*
X8200000Y-6300000I-200000J0D01*
G01*
X8200000Y-6300000D02*
G75*
G02*
X8600000Y-6300000I200000J0D01*
G01*
X8600000Y-8200000D02*
G75*
G02*
X8200000Y-8200000I-200000J0D01*
G01*
X8200000Y-8200000D02*
G75*
G02*
X8600000Y-8200000I200000J0D01*
G01*
X10500000Y-6300000D02*
G75*
G02*
X10100000Y-6300000I-200000J0D01*
G01*
X10100000Y-6300000D02*
G75*
G02*
X10500000Y-6300000I200000J0D01*
G01*
X10500000Y-8200000D02*
G75*
G02*
X10100000Y-8200000I-200000J0D01*
G01*
X10100000Y-8200000D02*
G75*
G02*
X10500000Y-8200000I200000J0D01*
G01*
X12400000Y-6300000D02*
G75*
G02*
X12000000Y-6300000I-200000J0D01*
G01*
X12000000Y-6300000D02*
G75*
G02*
X12400000Y-6300000I200000J0D01*
G01*
X12400000Y-8200000D02*
G75*
G02*
X12000000Y-8200000I-200000J0D01*
G01*
X12000000Y-8200000D02*
G75*
G02*
X12400000Y-8200000I200000J0D01*
G01*
X14300000Y-6300000D02*
G75*
G02*
X13900000Y-6300000I-200000J0D01*
G01*
X13900000Y-6300000D02*
G75*
G02*
X14300000Y-6300000I200000J0D01*
G01*
X14300000Y-8200000D02*
G75*
G02*
X13900000Y-8200000I-200000J0D01*
G01*
X13900000Y-8200000D02*
G75*
G02*
X14300000Y-8200000I200000J0D01*
G01*
D12*
X6408277Y-9513984D02*
X6408277Y-9313984D01*
X6408277Y-9313984D02*
X6455896Y-9313984D01*
X6455896Y-9313984D02*
X6484467Y-9323508D01*
X6484467Y-9323508D02*
X6503515Y-9342555D01*
X6503515Y-9342555D02*
X6513039Y-9361603D01*
X6513039Y-9361603D02*
X6522562Y-9399698D01*
X6522562Y-9399698D02*
X6522562Y-9428270D01*
X6522562Y-9428270D02*
X6513039Y-9466365D01*
X6513039Y-9466365D02*
X6503515Y-9485412D01*
X6503515Y-9485412D02*
X6484467Y-9504460D01*
X6484467Y-9504460D02*
X6455896Y-9513984D01*
X6455896Y-9513984D02*
X6408277Y-9513984D01*
X6608277Y-9513984D02*
X6608277Y-9380650D01*
X6608277Y-9418746D02*
X6617801Y-9399698D01*
X6617801Y-9399698D02*
X6627324Y-9390174D01*
X6627324Y-9390174D02*
X6646372Y-9380650D01*
X6646372Y-9380650D02*
X6665420Y-9380650D01*
X6732086Y-9513984D02*
X6732086Y-9380650D01*
X6732086Y-9313984D02*
X6722562Y-9323508D01*
X6722562Y-9323508D02*
X6732086Y-9333031D01*
X6732086Y-9333031D02*
X6741610Y-9323508D01*
X6741610Y-9323508D02*
X6732086Y-9313984D01*
X6732086Y-9313984D02*
X6732086Y-9333031D01*
X6855896Y-9513984D02*
X6836848Y-9504460D01*
X6836848Y-9504460D02*
X6827324Y-9485412D01*
X6827324Y-9485412D02*
X6827324Y-9313984D01*
X6960658Y-9513984D02*
X6941610Y-9504460D01*
X6941610Y-9504460D02*
X6932086Y-9485412D01*
X6932086Y-9485412D02*
X6932086Y-9313984D01*
X7189229Y-9513984D02*
X7189229Y-9313984D01*
X7189229Y-9313984D02*
X7255896Y-9456841D01*
X7255896Y-9456841D02*
X7322562Y-9313984D01*
X7322562Y-9313984D02*
X7322562Y-9513984D01*
X7503515Y-9513984D02*
X7503515Y-9409222D01*
X7503515Y-9409222D02*
X7493991Y-9390174D01*
X7493991Y-9390174D02*
X7474943Y-9380650D01*
X7474943Y-9380650D02*
X7436848Y-9380650D01*
X7436848Y-9380650D02*
X7417801Y-9390174D01*
X7503515Y-9504460D02*
X7484467Y-9513984D01*
X7484467Y-9513984D02*
X7436848Y-9513984D01*
X7436848Y-9513984D02*
X7417801Y-9504460D01*
X7417801Y-9504460D02*
X7408277Y-9485412D01*
X7408277Y-9485412D02*
X7408277Y-9466365D01*
X7408277Y-9466365D02*
X7417801Y-9447317D01*
X7417801Y-9447317D02*
X7436848Y-9437793D01*
X7436848Y-9437793D02*
X7484467Y-9437793D01*
X7484467Y-9437793D02*
X7503515Y-9428270D01*
X7598753Y-9380650D02*
X7598753Y-9580650D01*
X7598753Y-9390174D02*
X7617801Y-9380650D01*
X7617801Y-9380650D02*
X7655896Y-9380650D01*
X7655896Y-9380650D02*
X7674943Y-9390174D01*
X7674943Y-9390174D02*
X7684467Y-9399698D01*
X7684467Y-9399698D02*
X7693991Y-9418746D01*
X7693991Y-9418746D02*
X7693991Y-9475889D01*
X7693991Y-9475889D02*
X7684467Y-9494936D01*
X7684467Y-9494936D02*
X7674943Y-9504460D01*
X7674943Y-9504460D02*
X7655896Y-9513984D01*
X7655896Y-9513984D02*
X7617801Y-9513984D01*
X7617801Y-9513984D02*
X7598753Y-9504460D01*
X7779705Y-9494936D02*
X7789229Y-9504460D01*
X7789229Y-9504460D02*
X7779705Y-9513984D01*
X7779705Y-9513984D02*
X7770182Y-9504460D01*
X7770182Y-9504460D02*
X7779705Y-9494936D01*
X7779705Y-9494936D02*
X7779705Y-9513984D01*
X7779705Y-9390174D02*
X7789229Y-9399698D01*
X7789229Y-9399698D02*
X7779705Y-9409222D01*
X7779705Y-9409222D02*
X7770182Y-9399698D01*
X7770182Y-9399698D02*
X7779705Y-9390174D01*
X7779705Y-9390174D02*
X7779705Y-9409222D01*
D13*
X5977500Y-9757500D02*
X6147500Y-9927500D01*
X6147500Y-9757500D02*
X5977500Y-9927500D01*
D12*
X6513039Y-9933984D02*
X6398753Y-9933984D01*
X6455896Y-9933984D02*
X6455896Y-9733984D01*
X6455896Y-9733984D02*
X6436848Y-9762555D01*
X6436848Y-9762555D02*
X6417801Y-9781603D01*
X6417801Y-9781603D02*
X6398753Y-9791127D01*
X6598753Y-9914936D02*
X6608277Y-9924460D01*
X6608277Y-9924460D02*
X6598753Y-9933984D01*
X6598753Y-9933984D02*
X6589229Y-9924460D01*
X6589229Y-9924460D02*
X6598753Y-9914936D01*
X6598753Y-9914936D02*
X6598753Y-9933984D01*
X6674943Y-9733984D02*
X6808277Y-9733984D01*
X6808277Y-9733984D02*
X6722562Y-9933984D01*
X6922562Y-9733984D02*
X6941610Y-9733984D01*
X6941610Y-9733984D02*
X6960658Y-9743508D01*
X6960658Y-9743508D02*
X6970182Y-9753031D01*
X6970182Y-9753031D02*
X6979705Y-9772079D01*
X6979705Y-9772079D02*
X6989229Y-9810174D01*
X6989229Y-9810174D02*
X6989229Y-9857793D01*
X6989229Y-9857793D02*
X6979705Y-9895889D01*
X6979705Y-9895889D02*
X6970182Y-9914936D01*
X6970182Y-9914936D02*
X6960658Y-9924460D01*
X6960658Y-9924460D02*
X6941610Y-9933984D01*
X6941610Y-9933984D02*
X6922562Y-9933984D01*
X6922562Y-9933984D02*
X6903515Y-9924460D01*
X6903515Y-9924460D02*
X6893991Y-9914936D01*
X6893991Y-9914936D02*
X6884467Y-9895889D01*
X6884467Y-9895889D02*
X6874943Y-9857793D01*
X6874943Y-9857793D02*
X6874943Y-9810174D01*
X6874943Y-9810174D02*
X6884467Y-9772079D01*
X6884467Y-9772079D02*
X6893991Y-9753031D01*
X6893991Y-9753031D02*
X6903515Y-9743508D01*
X6903515Y-9743508D02*
X6922562Y-9733984D01*
X7113039Y-9733984D02*
X7132086Y-9733984D01*
X7132086Y-9733984D02*
X7151134Y-9743508D01*
X7151134Y-9743508D02*
X7160658Y-9753031D01*
X7160658Y-9753031D02*
X7170182Y-9772079D01*
X7170182Y-9772079D02*
X7179705Y-9810174D01*
X7179705Y-9810174D02*
X7179705Y-9857793D01*
X7179705Y-9857793D02*
X7170182Y-9895889D01*
X7170182Y-9895889D02*
X7160658Y-9914936D01*
X7160658Y-9914936D02*
X7151134Y-9924460D01*
X7151134Y-9924460D02*
X7132086Y-9933984D01*
X7132086Y-9933984D02*
X7113039Y-9933984D01*
X7113039Y-9933984D02*
X7093991Y-9924460D01*
X7093991Y-9924460D02*
X7084467Y-9914936D01*
X7084467Y-9914936D02*
X7074943Y-9895889D01*
X7074943Y-9895889D02*
X7065420Y-9857793D01*
X7065420Y-9857793D02*
X7065420Y-9810174D01*
X7065420Y-9810174D02*
X7074943Y-9772079D01*
X7074943Y-9772079D02*
X7084467Y-9753031D01*
X7084467Y-9753031D02*
X7093991Y-9743508D01*
X7093991Y-9743508D02*
X7113039Y-9733984D01*
X7265420Y-9933984D02*
X7265420Y-9800650D01*
X7265420Y-9819698D02*
X7274943Y-9810174D01*
X7274943Y-9810174D02*
X7293991Y-9800650D01*
X7293991Y-9800650D02*
X7322563Y-9800650D01*
X7322563Y-9800650D02*
X7341610Y-9810174D01*
X7341610Y-9810174D02*
X7351134Y-9829222D01*
X7351134Y-9829222D02*
X7351134Y-9933984D01*
X7351134Y-9829222D02*
X7360658Y-9810174D01*
X7360658Y-9810174D02*
X7379705Y-9800650D01*
X7379705Y-9800650D02*
X7408277Y-9800650D01*
X7408277Y-9800650D02*
X7427324Y-9810174D01*
X7427324Y-9810174D02*
X7436848Y-9829222D01*
X7436848Y-9829222D02*
X7436848Y-9933984D01*
X7532086Y-9933984D02*
X7532086Y-9800650D01*
X7532086Y-9819698D02*
X7541610Y-9810174D01*
X7541610Y-9810174D02*
X7560658Y-9800650D01*
X7560658Y-9800650D02*
X7589229Y-9800650D01*
X7589229Y-9800650D02*
X7608277Y-9810174D01*
X7608277Y-9810174D02*
X7617801Y-9829222D01*
X7617801Y-9829222D02*
X7617801Y-9933984D01*
X7617801Y-9829222D02*
X7627324Y-9810174D01*
X7627324Y-9810174D02*
X7646372Y-9800650D01*
X7646372Y-9800650D02*
X7674943Y-9800650D01*
X7674943Y-9800650D02*
X7693991Y-9810174D01*
X7693991Y-9810174D02*
X7703515Y-9829222D01*
X7703515Y-9829222D02*
X7703515Y-9933984D01*
X8093991Y-9724460D02*
X7922563Y-9981603D01*
X8351134Y-9733984D02*
X8370182Y-9733984D01*
X8370182Y-9733984D02*
X8389229Y-9743508D01*
X8389229Y-9743508D02*
X8398753Y-9753031D01*
X8398753Y-9753031D02*
X8408277Y-9772079D01*
X8408277Y-9772079D02*
X8417801Y-9810174D01*
X8417801Y-9810174D02*
X8417801Y-9857793D01*
X8417801Y-9857793D02*
X8408277Y-9895889D01*
X8408277Y-9895889D02*
X8398753Y-9914936D01*
X8398753Y-9914936D02*
X8389229Y-9924460D01*
X8389229Y-9924460D02*
X8370182Y-9933984D01*
X8370182Y-9933984D02*
X8351134Y-9933984D01*
X8351134Y-9933984D02*
X8332086Y-9924460D01*
X8332086Y-9924460D02*
X8322563Y-9914936D01*
X8322563Y-9914936D02*
X8313039Y-9895889D01*
X8313039Y-9895889D02*
X8303515Y-9857793D01*
X8303515Y-9857793D02*
X8303515Y-9810174D01*
X8303515Y-9810174D02*
X8313039Y-9772079D01*
X8313039Y-9772079D02*
X8322563Y-9753031D01*
X8322563Y-9753031D02*
X8332086Y-9743508D01*
X8332086Y-9743508D02*
X8351134Y-9733984D01*
X8503515Y-9914936D02*
X8513039Y-9924460D01*
X8513039Y-9924460D02*
X8503515Y-9933984D01*
X8503515Y-9933984D02*
X8493991Y-9924460D01*
X8493991Y-9924460D02*
X8503515Y-9914936D01*
X8503515Y-9914936D02*
X8503515Y-9933984D01*
X8636848Y-9733984D02*
X8655896Y-9733984D01*
X8655896Y-9733984D02*
X8674944Y-9743508D01*
X8674944Y-9743508D02*
X8684468Y-9753031D01*
X8684468Y-9753031D02*
X8693991Y-9772079D01*
X8693991Y-9772079D02*
X8703515Y-9810174D01*
X8703515Y-9810174D02*
X8703515Y-9857793D01*
X8703515Y-9857793D02*
X8693991Y-9895889D01*
X8693991Y-9895889D02*
X8684468Y-9914936D01*
X8684468Y-9914936D02*
X8674944Y-9924460D01*
X8674944Y-9924460D02*
X8655896Y-9933984D01*
X8655896Y-9933984D02*
X8636848Y-9933984D01*
X8636848Y-9933984D02*
X8617801Y-9924460D01*
X8617801Y-9924460D02*
X8608277Y-9914936D01*
X8608277Y-9914936D02*
X8598753Y-9895889D01*
X8598753Y-9895889D02*
X8589229Y-9857793D01*
X8589229Y-9857793D02*
X8589229Y-9810174D01*
X8589229Y-9810174D02*
X8598753Y-9772079D01*
X8598753Y-9772079D02*
X8608277Y-9753031D01*
X8608277Y-9753031D02*
X8617801Y-9743508D01*
X8617801Y-9743508D02*
X8636848Y-9733984D01*
X8874944Y-9733984D02*
X8836848Y-9733984D01*
X8836848Y-9733984D02*
X8817801Y-9743508D01*
X8817801Y-9743508D02*
X8808277Y-9753031D01*
X8808277Y-9753031D02*
X8789229Y-9781603D01*
X8789229Y-9781603D02*
X8779706Y-9819698D01*
X8779706Y-9819698D02*
X8779706Y-9895889D01*
X8779706Y-9895889D02*
X8789229Y-9914936D01*
X8789229Y-9914936D02*
X8798753Y-9924460D01*
X8798753Y-9924460D02*
X8817801Y-9933984D01*
X8817801Y-9933984D02*
X8855896Y-9933984D01*
X8855896Y-9933984D02*
X8874944Y-9924460D01*
X8874944Y-9924460D02*
X8884468Y-9914936D01*
X8884468Y-9914936D02*
X8893991Y-9895889D01*
X8893991Y-9895889D02*
X8893991Y-9848270D01*
X8893991Y-9848270D02*
X8884468Y-9829222D01*
X8884468Y-9829222D02*
X8874944Y-9819698D01*
X8874944Y-9819698D02*
X8855896Y-9810174D01*
X8855896Y-9810174D02*
X8817801Y-9810174D01*
X8817801Y-9810174D02*
X8798753Y-9819698D01*
X8798753Y-9819698D02*
X8789229Y-9829222D01*
X8789229Y-9829222D02*
X8779706Y-9848270D01*
X9065420Y-9733984D02*
X9027325Y-9733984D01*
X9027325Y-9733984D02*
X9008277Y-9743508D01*
X9008277Y-9743508D02*
X8998753Y-9753031D01*
X8998753Y-9753031D02*
X8979706Y-9781603D01*
X8979706Y-9781603D02*
X8970182Y-9819698D01*
X8970182Y-9819698D02*
X8970182Y-9895889D01*
X8970182Y-9895889D02*
X8979706Y-9914936D01*
X8979706Y-9914936D02*
X8989229Y-9924460D01*
X8989229Y-9924460D02*
X9008277Y-9933984D01*
X9008277Y-9933984D02*
X9046372Y-9933984D01*
X9046372Y-9933984D02*
X9065420Y-9924460D01*
X9065420Y-9924460D02*
X9074944Y-9914936D01*
X9074944Y-9914936D02*
X9084468Y-9895889D01*
X9084468Y-9895889D02*
X9084468Y-9848270D01*
X9084468Y-9848270D02*
X9074944Y-9829222D01*
X9074944Y-9829222D02*
X9065420Y-9819698D01*
X9065420Y-9819698D02*
X9046372Y-9810174D01*
X9046372Y-9810174D02*
X9008277Y-9810174D01*
X9008277Y-9810174D02*
X8989229Y-9819698D01*
X8989229Y-9819698D02*
X8979706Y-9829222D01*
X8979706Y-9829222D02*
X8970182Y-9848270D01*
X9179706Y-9933984D02*
X9217801Y-9933984D01*
X9217801Y-9933984D02*
X9236849Y-9924460D01*
X9236849Y-9924460D02*
X9246372Y-9914936D01*
X9246372Y-9914936D02*
X9265420Y-9886365D01*
X9265420Y-9886365D02*
X9274944Y-9848270D01*
X9274944Y-9848270D02*
X9274944Y-9772079D01*
X9274944Y-9772079D02*
X9265420Y-9753031D01*
X9265420Y-9753031D02*
X9255896Y-9743508D01*
X9255896Y-9743508D02*
X9236849Y-9733984D01*
X9236849Y-9733984D02*
X9198753Y-9733984D01*
X9198753Y-9733984D02*
X9179706Y-9743508D01*
X9179706Y-9743508D02*
X9170182Y-9753031D01*
X9170182Y-9753031D02*
X9160658Y-9772079D01*
X9160658Y-9772079D02*
X9160658Y-9819698D01*
X9160658Y-9819698D02*
X9170182Y-9838746D01*
X9170182Y-9838746D02*
X9179706Y-9848270D01*
X9179706Y-9848270D02*
X9198753Y-9857793D01*
X9198753Y-9857793D02*
X9236849Y-9857793D01*
X9236849Y-9857793D02*
X9255896Y-9848270D01*
X9255896Y-9848270D02*
X9265420Y-9838746D01*
X9265420Y-9838746D02*
X9274944Y-9819698D01*
X9351134Y-9733984D02*
X9351134Y-9772079D01*
X9427325Y-9733984D02*
X9427325Y-9772079D01*
X9722563Y-10010174D02*
X9713039Y-10000650D01*
X9713039Y-10000650D02*
X9693991Y-9972079D01*
X9693991Y-9972079D02*
X9684468Y-9953031D01*
X9684468Y-9953031D02*
X9674944Y-9924460D01*
X9674944Y-9924460D02*
X9665420Y-9876841D01*
X9665420Y-9876841D02*
X9665420Y-9838746D01*
X9665420Y-9838746D02*
X9674944Y-9791127D01*
X9674944Y-9791127D02*
X9684468Y-9762555D01*
X9684468Y-9762555D02*
X9693991Y-9743508D01*
X9693991Y-9743508D02*
X9713039Y-9714936D01*
X9713039Y-9714936D02*
X9722563Y-9705412D01*
X9903515Y-9933984D02*
X9789230Y-9933984D01*
X9846372Y-9933984D02*
X9846372Y-9733984D01*
X9846372Y-9733984D02*
X9827325Y-9762555D01*
X9827325Y-9762555D02*
X9808277Y-9781603D01*
X9808277Y-9781603D02*
X9789230Y-9791127D01*
X10074944Y-9733984D02*
X10036849Y-9733984D01*
X10036849Y-9733984D02*
X10017801Y-9743508D01*
X10017801Y-9743508D02*
X10008277Y-9753031D01*
X10008277Y-9753031D02*
X9989230Y-9781603D01*
X9989230Y-9781603D02*
X9979706Y-9819698D01*
X9979706Y-9819698D02*
X9979706Y-9895889D01*
X9979706Y-9895889D02*
X9989230Y-9914936D01*
X9989230Y-9914936D02*
X9998753Y-9924460D01*
X9998753Y-9924460D02*
X10017801Y-9933984D01*
X10017801Y-9933984D02*
X10055896Y-9933984D01*
X10055896Y-9933984D02*
X10074944Y-9924460D01*
X10074944Y-9924460D02*
X10084468Y-9914936D01*
X10084468Y-9914936D02*
X10093991Y-9895889D01*
X10093991Y-9895889D02*
X10093991Y-9848270D01*
X10093991Y-9848270D02*
X10084468Y-9829222D01*
X10084468Y-9829222D02*
X10074944Y-9819698D01*
X10074944Y-9819698D02*
X10055896Y-9810174D01*
X10055896Y-9810174D02*
X10017801Y-9810174D01*
X10017801Y-9810174D02*
X9998753Y-9819698D01*
X9998753Y-9819698D02*
X9989230Y-9829222D01*
X9989230Y-9829222D02*
X9979706Y-9848270D01*
X10332087Y-9933984D02*
X10332087Y-9733984D01*
X10417801Y-9933984D02*
X10417801Y-9829222D01*
X10417801Y-9829222D02*
X10408277Y-9810174D01*
X10408277Y-9810174D02*
X10389230Y-9800650D01*
X10389230Y-9800650D02*
X10360658Y-9800650D01*
X10360658Y-9800650D02*
X10341611Y-9810174D01*
X10341611Y-9810174D02*
X10332087Y-9819698D01*
X10541611Y-9933984D02*
X10522563Y-9924460D01*
X10522563Y-9924460D02*
X10513039Y-9914936D01*
X10513039Y-9914936D02*
X10503515Y-9895889D01*
X10503515Y-9895889D02*
X10503515Y-9838746D01*
X10503515Y-9838746D02*
X10513039Y-9819698D01*
X10513039Y-9819698D02*
X10522563Y-9810174D01*
X10522563Y-9810174D02*
X10541611Y-9800650D01*
X10541611Y-9800650D02*
X10570182Y-9800650D01*
X10570182Y-9800650D02*
X10589230Y-9810174D01*
X10589230Y-9810174D02*
X10598753Y-9819698D01*
X10598753Y-9819698D02*
X10608277Y-9838746D01*
X10608277Y-9838746D02*
X10608277Y-9895889D01*
X10608277Y-9895889D02*
X10598753Y-9914936D01*
X10598753Y-9914936D02*
X10589230Y-9924460D01*
X10589230Y-9924460D02*
X10570182Y-9933984D01*
X10570182Y-9933984D02*
X10541611Y-9933984D01*
X10722563Y-9933984D02*
X10703515Y-9924460D01*
X10703515Y-9924460D02*
X10693992Y-9905412D01*
X10693992Y-9905412D02*
X10693992Y-9733984D01*
X10874944Y-9924460D02*
X10855896Y-9933984D01*
X10855896Y-9933984D02*
X10817801Y-9933984D01*
X10817801Y-9933984D02*
X10798753Y-9924460D01*
X10798753Y-9924460D02*
X10789230Y-9905412D01*
X10789230Y-9905412D02*
X10789230Y-9829222D01*
X10789230Y-9829222D02*
X10798753Y-9810174D01*
X10798753Y-9810174D02*
X10817801Y-9800650D01*
X10817801Y-9800650D02*
X10855896Y-9800650D01*
X10855896Y-9800650D02*
X10874944Y-9810174D01*
X10874944Y-9810174D02*
X10884468Y-9829222D01*
X10884468Y-9829222D02*
X10884468Y-9848270D01*
X10884468Y-9848270D02*
X10789230Y-9867317D01*
X10960658Y-9924460D02*
X10979706Y-9933984D01*
X10979706Y-9933984D02*
X11017801Y-9933984D01*
X11017801Y-9933984D02*
X11036849Y-9924460D01*
X11036849Y-9924460D02*
X11046373Y-9905412D01*
X11046373Y-9905412D02*
X11046373Y-9895889D01*
X11046373Y-9895889D02*
X11036849Y-9876841D01*
X11036849Y-9876841D02*
X11017801Y-9867317D01*
X11017801Y-9867317D02*
X10989230Y-9867317D01*
X10989230Y-9867317D02*
X10970182Y-9857793D01*
X10970182Y-9857793D02*
X10960658Y-9838746D01*
X10960658Y-9838746D02*
X10960658Y-9829222D01*
X10960658Y-9829222D02*
X10970182Y-9810174D01*
X10970182Y-9810174D02*
X10989230Y-9800650D01*
X10989230Y-9800650D02*
X11017801Y-9800650D01*
X11017801Y-9800650D02*
X11036849Y-9810174D01*
X11113039Y-10010174D02*
X11122563Y-10000650D01*
X11122563Y-10000650D02*
X11141611Y-9972079D01*
X11141611Y-9972079D02*
X11151134Y-9953031D01*
X11151134Y-9953031D02*
X11160658Y-9924460D01*
X11160658Y-9924460D02*
X11170182Y-9876841D01*
X11170182Y-9876841D02*
X11170182Y-9838746D01*
X11170182Y-9838746D02*
X11160658Y-9791127D01*
X11160658Y-9791127D02*
X11151134Y-9762555D01*
X11151134Y-9762555D02*
X11141611Y-9743508D01*
X11141611Y-9743508D02*
X11122563Y-9714936D01*
X11122563Y-9714936D02*
X11113039Y-9705412D01*
X11474944Y-10010174D02*
X11465420Y-10000650D01*
X11465420Y-10000650D02*
X11446372Y-9972079D01*
X11446372Y-9972079D02*
X11436849Y-9953031D01*
X11436849Y-9953031D02*
X11427325Y-9924460D01*
X11427325Y-9924460D02*
X11417801Y-9876841D01*
X11417801Y-9876841D02*
X11417801Y-9838746D01*
X11417801Y-9838746D02*
X11427325Y-9791127D01*
X11427325Y-9791127D02*
X11436849Y-9762555D01*
X11436849Y-9762555D02*
X11446372Y-9743508D01*
X11446372Y-9743508D02*
X11465420Y-9714936D01*
X11465420Y-9714936D02*
X11474944Y-9705412D01*
X11551134Y-9800650D02*
X11551134Y-9933984D01*
X11551134Y-9819698D02*
X11560658Y-9810174D01*
X11560658Y-9810174D02*
X11579706Y-9800650D01*
X11579706Y-9800650D02*
X11608277Y-9800650D01*
X11608277Y-9800650D02*
X11627325Y-9810174D01*
X11627325Y-9810174D02*
X11636849Y-9829222D01*
X11636849Y-9829222D02*
X11636849Y-9933984D01*
X11760658Y-9933984D02*
X11741611Y-9924460D01*
X11741611Y-9924460D02*
X11732087Y-9914936D01*
X11732087Y-9914936D02*
X11722563Y-9895889D01*
X11722563Y-9895889D02*
X11722563Y-9838746D01*
X11722563Y-9838746D02*
X11732087Y-9819698D01*
X11732087Y-9819698D02*
X11741611Y-9810174D01*
X11741611Y-9810174D02*
X11760658Y-9800650D01*
X11760658Y-9800650D02*
X11789230Y-9800650D01*
X11789230Y-9800650D02*
X11808277Y-9810174D01*
X11808277Y-9810174D02*
X11817801Y-9819698D01*
X11817801Y-9819698D02*
X11827325Y-9838746D01*
X11827325Y-9838746D02*
X11827325Y-9895889D01*
X11827325Y-9895889D02*
X11817801Y-9914936D01*
X11817801Y-9914936D02*
X11808277Y-9924460D01*
X11808277Y-9924460D02*
X11789230Y-9933984D01*
X11789230Y-9933984D02*
X11760658Y-9933984D01*
X11884468Y-9800650D02*
X11960658Y-9800650D01*
X11913039Y-9733984D02*
X11913039Y-9905412D01*
X11913039Y-9905412D02*
X11922563Y-9924460D01*
X11922563Y-9924460D02*
X11941611Y-9933984D01*
X11941611Y-9933984D02*
X11960658Y-9933984D01*
X12179706Y-9800650D02*
X12179706Y-10000650D01*
X12179706Y-9810174D02*
X12198753Y-9800650D01*
X12198753Y-9800650D02*
X12236849Y-9800650D01*
X12236849Y-9800650D02*
X12255896Y-9810174D01*
X12255896Y-9810174D02*
X12265420Y-9819698D01*
X12265420Y-9819698D02*
X12274944Y-9838746D01*
X12274944Y-9838746D02*
X12274944Y-9895889D01*
X12274944Y-9895889D02*
X12265420Y-9914936D01*
X12265420Y-9914936D02*
X12255896Y-9924460D01*
X12255896Y-9924460D02*
X12236849Y-9933984D01*
X12236849Y-9933984D02*
X12198753Y-9933984D01*
X12198753Y-9933984D02*
X12179706Y-9924460D01*
X12389230Y-9933984D02*
X12370182Y-9924460D01*
X12370182Y-9924460D02*
X12360658Y-9905412D01*
X12360658Y-9905412D02*
X12360658Y-9733984D01*
X12551134Y-9933984D02*
X12551134Y-9829222D01*
X12551134Y-9829222D02*
X12541611Y-9810174D01*
X12541611Y-9810174D02*
X12522563Y-9800650D01*
X12522563Y-9800650D02*
X12484468Y-9800650D01*
X12484468Y-9800650D02*
X12465420Y-9810174D01*
X12551134Y-9924460D02*
X12532087Y-9933984D01*
X12532087Y-9933984D02*
X12484468Y-9933984D01*
X12484468Y-9933984D02*
X12465420Y-9924460D01*
X12465420Y-9924460D02*
X12455896Y-9905412D01*
X12455896Y-9905412D02*
X12455896Y-9886365D01*
X12455896Y-9886365D02*
X12465420Y-9867317D01*
X12465420Y-9867317D02*
X12484468Y-9857793D01*
X12484468Y-9857793D02*
X12532087Y-9857793D01*
X12532087Y-9857793D02*
X12551134Y-9848270D01*
X12617801Y-9800650D02*
X12693992Y-9800650D01*
X12646373Y-9733984D02*
X12646373Y-9905412D01*
X12646373Y-9905412D02*
X12655896Y-9924460D01*
X12655896Y-9924460D02*
X12674944Y-9933984D01*
X12674944Y-9933984D02*
X12693992Y-9933984D01*
X12836849Y-9924460D02*
X12817801Y-9933984D01*
X12817801Y-9933984D02*
X12779706Y-9933984D01*
X12779706Y-9933984D02*
X12760658Y-9924460D01*
X12760658Y-9924460D02*
X12751134Y-9905412D01*
X12751134Y-9905412D02*
X12751134Y-9829222D01*
X12751134Y-9829222D02*
X12760658Y-9810174D01*
X12760658Y-9810174D02*
X12779706Y-9800650D01*
X12779706Y-9800650D02*
X12817801Y-9800650D01*
X12817801Y-9800650D02*
X12836849Y-9810174D01*
X12836849Y-9810174D02*
X12846373Y-9829222D01*
X12846373Y-9829222D02*
X12846373Y-9848270D01*
X12846373Y-9848270D02*
X12751134Y-9867317D01*
X13017801Y-9933984D02*
X13017801Y-9733984D01*
X13017801Y-9924460D02*
X12998754Y-9933984D01*
X12998754Y-9933984D02*
X12960658Y-9933984D01*
X12960658Y-9933984D02*
X12941611Y-9924460D01*
X12941611Y-9924460D02*
X12932087Y-9914936D01*
X12932087Y-9914936D02*
X12922563Y-9895889D01*
X12922563Y-9895889D02*
X12922563Y-9838746D01*
X12922563Y-9838746D02*
X12932087Y-9819698D01*
X12932087Y-9819698D02*
X12941611Y-9810174D01*
X12941611Y-9810174D02*
X12960658Y-9800650D01*
X12960658Y-9800650D02*
X12998754Y-9800650D01*
X12998754Y-9800650D02*
X13017801Y-9810174D01*
X13093992Y-10010174D02*
X13103515Y-10000650D01*
X13103515Y-10000650D02*
X13122563Y-9972079D01*
X13122563Y-9972079D02*
X13132087Y-9953031D01*
X13132087Y-9953031D02*
X13141611Y-9924460D01*
X13141611Y-9924460D02*
X13151134Y-9876841D01*
X13151134Y-9876841D02*
X13151134Y-9838746D01*
X13151134Y-9838746D02*
X13141611Y-9791127D01*
X13141611Y-9791127D02*
X13132087Y-9762555D01*
X13132087Y-9762555D02*
X13122563Y-9743508D01*
X13122563Y-9743508D02*
X13103515Y-9714936D01*
X13103515Y-9714936D02*
X13093992Y-9705412D01*
X6147500Y-10132500D02*
G75*
G02*
X5947500Y-10132500I-100000J0D01*
G01*
X5947500Y-10132500D02*
G75*
G02*
X6147500Y-10132500I100000J0D01*
G01*
X6493991Y-10090650D02*
X6493991Y-10223984D01*
X6446372Y-10014460D02*
X6398753Y-10157317D01*
X6398753Y-10157317D02*
X6522562Y-10157317D01*
X6598753Y-10204936D02*
X6608277Y-10214460D01*
X6608277Y-10214460D02*
X6598753Y-10223984D01*
X6598753Y-10223984D02*
X6589229Y-10214460D01*
X6589229Y-10214460D02*
X6598753Y-10204936D01*
X6598753Y-10204936D02*
X6598753Y-10223984D01*
X6732086Y-10023984D02*
X6751134Y-10023984D01*
X6751134Y-10023984D02*
X6770182Y-10033508D01*
X6770182Y-10033508D02*
X6779705Y-10043031D01*
X6779705Y-10043031D02*
X6789229Y-10062079D01*
X6789229Y-10062079D02*
X6798753Y-10100174D01*
X6798753Y-10100174D02*
X6798753Y-10147793D01*
X6798753Y-10147793D02*
X6789229Y-10185889D01*
X6789229Y-10185889D02*
X6779705Y-10204936D01*
X6779705Y-10204936D02*
X6770182Y-10214460D01*
X6770182Y-10214460D02*
X6751134Y-10223984D01*
X6751134Y-10223984D02*
X6732086Y-10223984D01*
X6732086Y-10223984D02*
X6713039Y-10214460D01*
X6713039Y-10214460D02*
X6703515Y-10204936D01*
X6703515Y-10204936D02*
X6693991Y-10185889D01*
X6693991Y-10185889D02*
X6684467Y-10147793D01*
X6684467Y-10147793D02*
X6684467Y-10100174D01*
X6684467Y-10100174D02*
X6693991Y-10062079D01*
X6693991Y-10062079D02*
X6703515Y-10043031D01*
X6703515Y-10043031D02*
X6713039Y-10033508D01*
X6713039Y-10033508D02*
X6732086Y-10023984D01*
X6922562Y-10023984D02*
X6941610Y-10023984D01*
X6941610Y-10023984D02*
X6960658Y-10033508D01*
X6960658Y-10033508D02*
X6970182Y-10043031D01*
X6970182Y-10043031D02*
X6979705Y-10062079D01*
X6979705Y-10062079D02*
X6989229Y-10100174D01*
X6989229Y-10100174D02*
X6989229Y-10147793D01*
X6989229Y-10147793D02*
X6979705Y-10185889D01*
X6979705Y-10185889D02*
X6970182Y-10204936D01*
X6970182Y-10204936D02*
X6960658Y-10214460D01*
X6960658Y-10214460D02*
X6941610Y-10223984D01*
X6941610Y-10223984D02*
X6922562Y-10223984D01*
X6922562Y-10223984D02*
X6903515Y-10214460D01*
X6903515Y-10214460D02*
X6893991Y-10204936D01*
X6893991Y-10204936D02*
X6884467Y-10185889D01*
X6884467Y-10185889D02*
X6874943Y-10147793D01*
X6874943Y-10147793D02*
X6874943Y-10100174D01*
X6874943Y-10100174D02*
X6884467Y-10062079D01*
X6884467Y-10062079D02*
X6893991Y-10043031D01*
X6893991Y-10043031D02*
X6903515Y-10033508D01*
X6903515Y-10033508D02*
X6922562Y-10023984D01*
X7113039Y-10023984D02*
X7132086Y-10023984D01*
X7132086Y-10023984D02*
X7151134Y-10033508D01*
X7151134Y-10033508D02*
X7160658Y-10043031D01*
X7160658Y-10043031D02*
X7170182Y-10062079D01*
X7170182Y-10062079D02*
X7179705Y-10100174D01*
X7179705Y-10100174D02*
X7179705Y-10147793D01*
X7179705Y-10147793D02*
X7170182Y-10185889D01*
X7170182Y-10185889D02*
X7160658Y-10204936D01*
X7160658Y-10204936D02*
X7151134Y-10214460D01*
X7151134Y-10214460D02*
X7132086Y-10223984D01*
X7132086Y-10223984D02*
X7113039Y-10223984D01*
X7113039Y-10223984D02*
X7093991Y-10214460D01*
X7093991Y-10214460D02*
X7084467Y-10204936D01*
X7084467Y-10204936D02*
X7074943Y-10185889D01*
X7074943Y-10185889D02*
X7065420Y-10147793D01*
X7065420Y-10147793D02*
X7065420Y-10100174D01*
X7065420Y-10100174D02*
X7074943Y-10062079D01*
X7074943Y-10062079D02*
X7084467Y-10043031D01*
X7084467Y-10043031D02*
X7093991Y-10033508D01*
X7093991Y-10033508D02*
X7113039Y-10023984D01*
X7265420Y-10223984D02*
X7265420Y-10090650D01*
X7265420Y-10109698D02*
X7274943Y-10100174D01*
X7274943Y-10100174D02*
X7293991Y-10090650D01*
X7293991Y-10090650D02*
X7322563Y-10090650D01*
X7322563Y-10090650D02*
X7341610Y-10100174D01*
X7341610Y-10100174D02*
X7351134Y-10119222D01*
X7351134Y-10119222D02*
X7351134Y-10223984D01*
X7351134Y-10119222D02*
X7360658Y-10100174D01*
X7360658Y-10100174D02*
X7379705Y-10090650D01*
X7379705Y-10090650D02*
X7408277Y-10090650D01*
X7408277Y-10090650D02*
X7427324Y-10100174D01*
X7427324Y-10100174D02*
X7436848Y-10119222D01*
X7436848Y-10119222D02*
X7436848Y-10223984D01*
X7532086Y-10223984D02*
X7532086Y-10090650D01*
X7532086Y-10109698D02*
X7541610Y-10100174D01*
X7541610Y-10100174D02*
X7560658Y-10090650D01*
X7560658Y-10090650D02*
X7589229Y-10090650D01*
X7589229Y-10090650D02*
X7608277Y-10100174D01*
X7608277Y-10100174D02*
X7617801Y-10119222D01*
X7617801Y-10119222D02*
X7617801Y-10223984D01*
X7617801Y-10119222D02*
X7627324Y-10100174D01*
X7627324Y-10100174D02*
X7646372Y-10090650D01*
X7646372Y-10090650D02*
X7674943Y-10090650D01*
X7674943Y-10090650D02*
X7693991Y-10100174D01*
X7693991Y-10100174D02*
X7703515Y-10119222D01*
X7703515Y-10119222D02*
X7703515Y-10223984D01*
X8093991Y-10014460D02*
X7922563Y-10271603D01*
X8351134Y-10023984D02*
X8370182Y-10023984D01*
X8370182Y-10023984D02*
X8389229Y-10033508D01*
X8389229Y-10033508D02*
X8398753Y-10043031D01*
X8398753Y-10043031D02*
X8408277Y-10062079D01*
X8408277Y-10062079D02*
X8417801Y-10100174D01*
X8417801Y-10100174D02*
X8417801Y-10147793D01*
X8417801Y-10147793D02*
X8408277Y-10185889D01*
X8408277Y-10185889D02*
X8398753Y-10204936D01*
X8398753Y-10204936D02*
X8389229Y-10214460D01*
X8389229Y-10214460D02*
X8370182Y-10223984D01*
X8370182Y-10223984D02*
X8351134Y-10223984D01*
X8351134Y-10223984D02*
X8332086Y-10214460D01*
X8332086Y-10214460D02*
X8322563Y-10204936D01*
X8322563Y-10204936D02*
X8313039Y-10185889D01*
X8313039Y-10185889D02*
X8303515Y-10147793D01*
X8303515Y-10147793D02*
X8303515Y-10100174D01*
X8303515Y-10100174D02*
X8313039Y-10062079D01*
X8313039Y-10062079D02*
X8322563Y-10043031D01*
X8322563Y-10043031D02*
X8332086Y-10033508D01*
X8332086Y-10033508D02*
X8351134Y-10023984D01*
X8503515Y-10204936D02*
X8513039Y-10214460D01*
X8513039Y-10214460D02*
X8503515Y-10223984D01*
X8503515Y-10223984D02*
X8493991Y-10214460D01*
X8493991Y-10214460D02*
X8503515Y-10204936D01*
X8503515Y-10204936D02*
X8503515Y-10223984D01*
X8703515Y-10223984D02*
X8589229Y-10223984D01*
X8646372Y-10223984D02*
X8646372Y-10023984D01*
X8646372Y-10023984D02*
X8627325Y-10052555D01*
X8627325Y-10052555D02*
X8608277Y-10071603D01*
X8608277Y-10071603D02*
X8589229Y-10081127D01*
X8884468Y-10023984D02*
X8789229Y-10023984D01*
X8789229Y-10023984D02*
X8779706Y-10119222D01*
X8779706Y-10119222D02*
X8789229Y-10109698D01*
X8789229Y-10109698D02*
X8808277Y-10100174D01*
X8808277Y-10100174D02*
X8855896Y-10100174D01*
X8855896Y-10100174D02*
X8874944Y-10109698D01*
X8874944Y-10109698D02*
X8884468Y-10119222D01*
X8884468Y-10119222D02*
X8893991Y-10138270D01*
X8893991Y-10138270D02*
X8893991Y-10185889D01*
X8893991Y-10185889D02*
X8884468Y-10204936D01*
X8884468Y-10204936D02*
X8874944Y-10214460D01*
X8874944Y-10214460D02*
X8855896Y-10223984D01*
X8855896Y-10223984D02*
X8808277Y-10223984D01*
X8808277Y-10223984D02*
X8789229Y-10214460D01*
X8789229Y-10214460D02*
X8779706Y-10204936D01*
X8960658Y-10023984D02*
X9093991Y-10023984D01*
X9093991Y-10023984D02*
X9008277Y-10223984D01*
X9265420Y-10023984D02*
X9170182Y-10023984D01*
X9170182Y-10023984D02*
X9160658Y-10119222D01*
X9160658Y-10119222D02*
X9170182Y-10109698D01*
X9170182Y-10109698D02*
X9189229Y-10100174D01*
X9189229Y-10100174D02*
X9236849Y-10100174D01*
X9236849Y-10100174D02*
X9255896Y-10109698D01*
X9255896Y-10109698D02*
X9265420Y-10119222D01*
X9265420Y-10119222D02*
X9274944Y-10138270D01*
X9274944Y-10138270D02*
X9274944Y-10185889D01*
X9274944Y-10185889D02*
X9265420Y-10204936D01*
X9265420Y-10204936D02*
X9255896Y-10214460D01*
X9255896Y-10214460D02*
X9236849Y-10223984D01*
X9236849Y-10223984D02*
X9189229Y-10223984D01*
X9189229Y-10223984D02*
X9170182Y-10214460D01*
X9170182Y-10214460D02*
X9160658Y-10204936D01*
X9351134Y-10023984D02*
X9351134Y-10062079D01*
X9427325Y-10023984D02*
X9427325Y-10062079D01*
X9722563Y-10300174D02*
X9713039Y-10290650D01*
X9713039Y-10290650D02*
X9693991Y-10262079D01*
X9693991Y-10262079D02*
X9684468Y-10243031D01*
X9684468Y-10243031D02*
X9674944Y-10214460D01*
X9674944Y-10214460D02*
X9665420Y-10166841D01*
X9665420Y-10166841D02*
X9665420Y-10128746D01*
X9665420Y-10128746D02*
X9674944Y-10081127D01*
X9674944Y-10081127D02*
X9684468Y-10052555D01*
X9684468Y-10052555D02*
X9693991Y-10033508D01*
X9693991Y-10033508D02*
X9713039Y-10004936D01*
X9713039Y-10004936D02*
X9722563Y-9995412D01*
X9827325Y-10109698D02*
X9808277Y-10100174D01*
X9808277Y-10100174D02*
X9798753Y-10090650D01*
X9798753Y-10090650D02*
X9789230Y-10071603D01*
X9789230Y-10071603D02*
X9789230Y-10062079D01*
X9789230Y-10062079D02*
X9798753Y-10043031D01*
X9798753Y-10043031D02*
X9808277Y-10033508D01*
X9808277Y-10033508D02*
X9827325Y-10023984D01*
X9827325Y-10023984D02*
X9865420Y-10023984D01*
X9865420Y-10023984D02*
X9884468Y-10033508D01*
X9884468Y-10033508D02*
X9893991Y-10043031D01*
X9893991Y-10043031D02*
X9903515Y-10062079D01*
X9903515Y-10062079D02*
X9903515Y-10071603D01*
X9903515Y-10071603D02*
X9893991Y-10090650D01*
X9893991Y-10090650D02*
X9884468Y-10100174D01*
X9884468Y-10100174D02*
X9865420Y-10109698D01*
X9865420Y-10109698D02*
X9827325Y-10109698D01*
X9827325Y-10109698D02*
X9808277Y-10119222D01*
X9808277Y-10119222D02*
X9798753Y-10128746D01*
X9798753Y-10128746D02*
X9789230Y-10147793D01*
X9789230Y-10147793D02*
X9789230Y-10185889D01*
X9789230Y-10185889D02*
X9798753Y-10204936D01*
X9798753Y-10204936D02*
X9808277Y-10214460D01*
X9808277Y-10214460D02*
X9827325Y-10223984D01*
X9827325Y-10223984D02*
X9865420Y-10223984D01*
X9865420Y-10223984D02*
X9884468Y-10214460D01*
X9884468Y-10214460D02*
X9893991Y-10204936D01*
X9893991Y-10204936D02*
X9903515Y-10185889D01*
X9903515Y-10185889D02*
X9903515Y-10147793D01*
X9903515Y-10147793D02*
X9893991Y-10128746D01*
X9893991Y-10128746D02*
X9884468Y-10119222D01*
X9884468Y-10119222D02*
X9865420Y-10109698D01*
X10141611Y-10223984D02*
X10141611Y-10023984D01*
X10227325Y-10223984D02*
X10227325Y-10119222D01*
X10227325Y-10119222D02*
X10217801Y-10100174D01*
X10217801Y-10100174D02*
X10198753Y-10090650D01*
X10198753Y-10090650D02*
X10170182Y-10090650D01*
X10170182Y-10090650D02*
X10151134Y-10100174D01*
X10151134Y-10100174D02*
X10141611Y-10109698D01*
X10351134Y-10223984D02*
X10332087Y-10214460D01*
X10332087Y-10214460D02*
X10322563Y-10204936D01*
X10322563Y-10204936D02*
X10313039Y-10185889D01*
X10313039Y-10185889D02*
X10313039Y-10128746D01*
X10313039Y-10128746D02*
X10322563Y-10109698D01*
X10322563Y-10109698D02*
X10332087Y-10100174D01*
X10332087Y-10100174D02*
X10351134Y-10090650D01*
X10351134Y-10090650D02*
X10379706Y-10090650D01*
X10379706Y-10090650D02*
X10398753Y-10100174D01*
X10398753Y-10100174D02*
X10408277Y-10109698D01*
X10408277Y-10109698D02*
X10417801Y-10128746D01*
X10417801Y-10128746D02*
X10417801Y-10185889D01*
X10417801Y-10185889D02*
X10408277Y-10204936D01*
X10408277Y-10204936D02*
X10398753Y-10214460D01*
X10398753Y-10214460D02*
X10379706Y-10223984D01*
X10379706Y-10223984D02*
X10351134Y-10223984D01*
X10532087Y-10223984D02*
X10513039Y-10214460D01*
X10513039Y-10214460D02*
X10503515Y-10195412D01*
X10503515Y-10195412D02*
X10503515Y-10023984D01*
X10684468Y-10214460D02*
X10665420Y-10223984D01*
X10665420Y-10223984D02*
X10627325Y-10223984D01*
X10627325Y-10223984D02*
X10608277Y-10214460D01*
X10608277Y-10214460D02*
X10598753Y-10195412D01*
X10598753Y-10195412D02*
X10598753Y-10119222D01*
X10598753Y-10119222D02*
X10608277Y-10100174D01*
X10608277Y-10100174D02*
X10627325Y-10090650D01*
X10627325Y-10090650D02*
X10665420Y-10090650D01*
X10665420Y-10090650D02*
X10684468Y-10100174D01*
X10684468Y-10100174D02*
X10693992Y-10119222D01*
X10693992Y-10119222D02*
X10693992Y-10138270D01*
X10693992Y-10138270D02*
X10598753Y-10157317D01*
X10770182Y-10214460D02*
X10789230Y-10223984D01*
X10789230Y-10223984D02*
X10827325Y-10223984D01*
X10827325Y-10223984D02*
X10846373Y-10214460D01*
X10846373Y-10214460D02*
X10855896Y-10195412D01*
X10855896Y-10195412D02*
X10855896Y-10185889D01*
X10855896Y-10185889D02*
X10846373Y-10166841D01*
X10846373Y-10166841D02*
X10827325Y-10157317D01*
X10827325Y-10157317D02*
X10798753Y-10157317D01*
X10798753Y-10157317D02*
X10779706Y-10147793D01*
X10779706Y-10147793D02*
X10770182Y-10128746D01*
X10770182Y-10128746D02*
X10770182Y-10119222D01*
X10770182Y-10119222D02*
X10779706Y-10100174D01*
X10779706Y-10100174D02*
X10798753Y-10090650D01*
X10798753Y-10090650D02*
X10827325Y-10090650D01*
X10827325Y-10090650D02*
X10846373Y-10100174D01*
X10922563Y-10300174D02*
X10932087Y-10290650D01*
X10932087Y-10290650D02*
X10951134Y-10262079D01*
X10951134Y-10262079D02*
X10960658Y-10243031D01*
X10960658Y-10243031D02*
X10970182Y-10214460D01*
X10970182Y-10214460D02*
X10979706Y-10166841D01*
X10979706Y-10166841D02*
X10979706Y-10128746D01*
X10979706Y-10128746D02*
X10970182Y-10081127D01*
X10970182Y-10081127D02*
X10960658Y-10052555D01*
X10960658Y-10052555D02*
X10951134Y-10033508D01*
X10951134Y-10033508D02*
X10932087Y-10004936D01*
X10932087Y-10004936D02*
X10922563Y-9995412D01*
X11284468Y-10300174D02*
X11274944Y-10290650D01*
X11274944Y-10290650D02*
X11255896Y-10262079D01*
X11255896Y-10262079D02*
X11246372Y-10243031D01*
X11246372Y-10243031D02*
X11236849Y-10214460D01*
X11236849Y-10214460D02*
X11227325Y-10166841D01*
X11227325Y-10166841D02*
X11227325Y-10128746D01*
X11227325Y-10128746D02*
X11236849Y-10081127D01*
X11236849Y-10081127D02*
X11246372Y-10052555D01*
X11246372Y-10052555D02*
X11255896Y-10033508D01*
X11255896Y-10033508D02*
X11274944Y-10004936D01*
X11274944Y-10004936D02*
X11284468Y-9995412D01*
X11360658Y-10090650D02*
X11360658Y-10223984D01*
X11360658Y-10109698D02*
X11370182Y-10100174D01*
X11370182Y-10100174D02*
X11389230Y-10090650D01*
X11389230Y-10090650D02*
X11417801Y-10090650D01*
X11417801Y-10090650D02*
X11436849Y-10100174D01*
X11436849Y-10100174D02*
X11446372Y-10119222D01*
X11446372Y-10119222D02*
X11446372Y-10223984D01*
X11570182Y-10223984D02*
X11551134Y-10214460D01*
X11551134Y-10214460D02*
X11541611Y-10204936D01*
X11541611Y-10204936D02*
X11532087Y-10185889D01*
X11532087Y-10185889D02*
X11532087Y-10128746D01*
X11532087Y-10128746D02*
X11541611Y-10109698D01*
X11541611Y-10109698D02*
X11551134Y-10100174D01*
X11551134Y-10100174D02*
X11570182Y-10090650D01*
X11570182Y-10090650D02*
X11598753Y-10090650D01*
X11598753Y-10090650D02*
X11617801Y-10100174D01*
X11617801Y-10100174D02*
X11627325Y-10109698D01*
X11627325Y-10109698D02*
X11636849Y-10128746D01*
X11636849Y-10128746D02*
X11636849Y-10185889D01*
X11636849Y-10185889D02*
X11627325Y-10204936D01*
X11627325Y-10204936D02*
X11617801Y-10214460D01*
X11617801Y-10214460D02*
X11598753Y-10223984D01*
X11598753Y-10223984D02*
X11570182Y-10223984D01*
X11693992Y-10090650D02*
X11770182Y-10090650D01*
X11722563Y-10023984D02*
X11722563Y-10195412D01*
X11722563Y-10195412D02*
X11732087Y-10214460D01*
X11732087Y-10214460D02*
X11751134Y-10223984D01*
X11751134Y-10223984D02*
X11770182Y-10223984D01*
X11989230Y-10090650D02*
X11989230Y-10290650D01*
X11989230Y-10100174D02*
X12008277Y-10090650D01*
X12008277Y-10090650D02*
X12046373Y-10090650D01*
X12046373Y-10090650D02*
X12065420Y-10100174D01*
X12065420Y-10100174D02*
X12074944Y-10109698D01*
X12074944Y-10109698D02*
X12084468Y-10128746D01*
X12084468Y-10128746D02*
X12084468Y-10185889D01*
X12084468Y-10185889D02*
X12074944Y-10204936D01*
X12074944Y-10204936D02*
X12065420Y-10214460D01*
X12065420Y-10214460D02*
X12046373Y-10223984D01*
X12046373Y-10223984D02*
X12008277Y-10223984D01*
X12008277Y-10223984D02*
X11989230Y-10214460D01*
X12198753Y-10223984D02*
X12179706Y-10214460D01*
X12179706Y-10214460D02*
X12170182Y-10195412D01*
X12170182Y-10195412D02*
X12170182Y-10023984D01*
X12360658Y-10223984D02*
X12360658Y-10119222D01*
X12360658Y-10119222D02*
X12351134Y-10100174D01*
X12351134Y-10100174D02*
X12332087Y-10090650D01*
X12332087Y-10090650D02*
X12293992Y-10090650D01*
X12293992Y-10090650D02*
X12274944Y-10100174D01*
X12360658Y-10214460D02*
X12341611Y-10223984D01*
X12341611Y-10223984D02*
X12293992Y-10223984D01*
X12293992Y-10223984D02*
X12274944Y-10214460D01*
X12274944Y-10214460D02*
X12265420Y-10195412D01*
X12265420Y-10195412D02*
X12265420Y-10176365D01*
X12265420Y-10176365D02*
X12274944Y-10157317D01*
X12274944Y-10157317D02*
X12293992Y-10147793D01*
X12293992Y-10147793D02*
X12341611Y-10147793D01*
X12341611Y-10147793D02*
X12360658Y-10138270D01*
X12427325Y-10090650D02*
X12503515Y-10090650D01*
X12455896Y-10023984D02*
X12455896Y-10195412D01*
X12455896Y-10195412D02*
X12465420Y-10214460D01*
X12465420Y-10214460D02*
X12484468Y-10223984D01*
X12484468Y-10223984D02*
X12503515Y-10223984D01*
X12646373Y-10214460D02*
X12627325Y-10223984D01*
X12627325Y-10223984D02*
X12589230Y-10223984D01*
X12589230Y-10223984D02*
X12570182Y-10214460D01*
X12570182Y-10214460D02*
X12560658Y-10195412D01*
X12560658Y-10195412D02*
X12560658Y-10119222D01*
X12560658Y-10119222D02*
X12570182Y-10100174D01*
X12570182Y-10100174D02*
X12589230Y-10090650D01*
X12589230Y-10090650D02*
X12627325Y-10090650D01*
X12627325Y-10090650D02*
X12646373Y-10100174D01*
X12646373Y-10100174D02*
X12655896Y-10119222D01*
X12655896Y-10119222D02*
X12655896Y-10138270D01*
X12655896Y-10138270D02*
X12560658Y-10157317D01*
X12827325Y-10223984D02*
X12827325Y-10023984D01*
X12827325Y-10214460D02*
X12808277Y-10223984D01*
X12808277Y-10223984D02*
X12770182Y-10223984D01*
X12770182Y-10223984D02*
X12751134Y-10214460D01*
X12751134Y-10214460D02*
X12741611Y-10204936D01*
X12741611Y-10204936D02*
X12732087Y-10185889D01*
X12732087Y-10185889D02*
X12732087Y-10128746D01*
X12732087Y-10128746D02*
X12741611Y-10109698D01*
X12741611Y-10109698D02*
X12751134Y-10100174D01*
X12751134Y-10100174D02*
X12770182Y-10090650D01*
X12770182Y-10090650D02*
X12808277Y-10090650D01*
X12808277Y-10090650D02*
X12827325Y-10100174D01*
X12903515Y-10300174D02*
X12913039Y-10290650D01*
X12913039Y-10290650D02*
X12932087Y-10262079D01*
X12932087Y-10262079D02*
X12941611Y-10243031D01*
X12941611Y-10243031D02*
X12951134Y-10214460D01*
X12951134Y-10214460D02*
X12960658Y-10166841D01*
X12960658Y-10166841D02*
X12960658Y-10128746D01*
X12960658Y-10128746D02*
X12951134Y-10081127D01*
X12951134Y-10081127D02*
X12941611Y-10052555D01*
X12941611Y-10052555D02*
X12932087Y-10033508D01*
X12932087Y-10033508D02*
X12913039Y-10004936D01*
X12913039Y-10004936D02*
X12903515Y-9995412D01*
M02*
