M48
; DRILL file {KiCad 9.0.7} date 2026-02-20T22:19:16+1100
; FORMAT={-:-/ absolute / metric / decimal}
; #@! TF.CreationDate,2026-02-20T22:19:16+11:00
; #@! TF.GenerationSoftware,Kicad,Pcbnew,9.0.7
; #@! TF.FileFunction,NonPlated,1,2,NPTH
FMAT,2
METRIC
; #@! TA.AperFunction,NonPlated,NPTH,ComponentDrill
T1C1.700
; #@! TA.AperFunction,NonPlated,NPTH,ComponentDrill
T2C4.000
%
G90
G05
T1
X78.92Y-63.0
X78.92Y-82.0
X89.08Y-63.0
X89.08Y-82.0
X97.92Y-63.0
X97.92Y-82.0
X108.08Y-63.0
X108.08Y-82.0
X116.92Y-63.0
X116.92Y-82.0
X127.08Y-63.0
X127.08Y-82.0
X135.92Y-63.0
X135.92Y-82.0
X146.08Y-63.0
X146.08Y-82.0
T2
X84.0Y-63.0
X84.0Y-82.0
X103.0Y-63.0
X103.0Y-82.0
X122.0Y-63.0
X122.0Y-82.0
X141.0Y-63.0
X141.0Y-82.0
M30
