G04 #@! TF.GenerationSoftware,KiCad,Pcbnew,9.0.7*
G04 #@! TF.CreationDate,2026-02-26T22:03:25+11:00*
G04 #@! TF.ProjectId,oled-v2,6f6c6564-2d76-4322-9e6b-696361645f70,rev?*
G04 #@! TF.SameCoordinates,Original*
G04 #@! TF.FileFunction,Soldermask,Bot*
G04 #@! TF.FilePolarity,Negative*
%FSLAX46Y46*%
G04 Gerber Fmt 4.6, Leading zero omitted, Abs format (unit mm)*
G04 Created by KiCad (PCBNEW 9.0.7) date 2026-02-26 22:03:25*
%MOMM*%
%LPD*%
G01*
G04 APERTURE LIST*
%ADD10R,1.700000X1.700000*%
%ADD11O,1.700000X1.700000*%
%ADD12R,1.600000X1.600000*%
%ADD13O,1.600000X1.600000*%
%ADD14C,1.700000*%
%ADD15C,4.000000*%
%ADD16C,2.200000*%
%ADD17R,3.500000X1.700000*%
%ADD18O,3.600000X1.700000*%
%ADD19O,3.700000X1.700000*%
G04 APERTURE END LIST*
D10*
X83540000Y-134500000D03*
D11*
X81000000Y-134500000D03*
X78460000Y-134500000D03*
X75920000Y-134500000D03*
D12*
X118310000Y-116000000D03*
D13*
X110690000Y-116000000D03*
D14*
X90420000Y-108000000D03*
D15*
X95500000Y-108000000D03*
D14*
X100580000Y-108000000D03*
D16*
X98040000Y-102920000D03*
X91690000Y-105460000D03*
D12*
X137310000Y-116000000D03*
D13*
X129690000Y-116000000D03*
D12*
X137310000Y-135000000D03*
D13*
X129690000Y-135000000D03*
D14*
X109420000Y-127000000D03*
D15*
X114500000Y-127000000D03*
D14*
X119580000Y-127000000D03*
D16*
X117040000Y-121920000D03*
X110690000Y-124460000D03*
D14*
X90420000Y-127000000D03*
D15*
X95500000Y-127000000D03*
D14*
X100580000Y-127000000D03*
D16*
X98040000Y-121920000D03*
X91690000Y-124460000D03*
D12*
X99310000Y-135000000D03*
D13*
X91690000Y-135000000D03*
D14*
X128420000Y-127000000D03*
D15*
X133500000Y-127000000D03*
D14*
X138580000Y-127000000D03*
D16*
X136040000Y-121920000D03*
X129690000Y-124460000D03*
D12*
X118310000Y-135000000D03*
D13*
X110690000Y-135000000D03*
D14*
X128420000Y-108000000D03*
D15*
X133500000Y-108000000D03*
D14*
X138580000Y-108000000D03*
D16*
X136040000Y-102920000D03*
X129690000Y-105460000D03*
D12*
X156310000Y-116000000D03*
D13*
X148690000Y-116000000D03*
D14*
X147420000Y-127000000D03*
D15*
X152500000Y-127000000D03*
D14*
X157580000Y-127000000D03*
D16*
X155040000Y-121920000D03*
X148690000Y-124460000D03*
D12*
X156310000Y-135000000D03*
D13*
X148690000Y-135000000D03*
D14*
X147420000Y-108000000D03*
D15*
X152500000Y-108000000D03*
D14*
X157580000Y-108000000D03*
D16*
X155040000Y-102920000D03*
X148690000Y-105460000D03*
D12*
X99310000Y-116000000D03*
D13*
X91690000Y-116000000D03*
D14*
X109420000Y-108000000D03*
D15*
X114500000Y-108000000D03*
D14*
X119580000Y-108000000D03*
D16*
X117040000Y-102920000D03*
X110690000Y-105460000D03*
D17*
X142514500Y-101092015D03*
D18*
X142514500Y-103632015D03*
X142514500Y-106172015D03*
X142514500Y-108712015D03*
X142514500Y-111252015D03*
X142514500Y-113792015D03*
X142514500Y-116332015D03*
X125264500Y-116332015D03*
X125264500Y-113792015D03*
X125264500Y-111252015D03*
D19*
X125264500Y-108712015D03*
X125264500Y-106172015D03*
X125264500Y-103632015D03*
X125264500Y-101092015D03*
M02*
