%TF.GenerationSoftware,KiCad,Pcbnew,9.0.7*%
%TF.CreationDate,2026-02-20T22:19:16+11:00*%
%TF.ProjectId,oled-v2,6f6c6564-2d76-4322-9e6b-696361645f70,rev?*%
%TF.SameCoordinates,Original*%
%TF.FileFunction,Drillmap*%
%TF.FilePolarity,Positive*%
%FSLAX45Y45*%
G04 Gerber Fmt 4.5, Leading zero omitted, Abs format (unit mm)*
G04 Created by KiCad (PCBNEW 9.0.7) date 2026-02-20 22:19:16*
%MOMM*%
%LPD*%
G01*
G04 APERTURE LIST*
%ADD10C,0.050000*%
%ADD11C,0.120000*%
%ADD12C,0.200000*%
%ADD13C,0.100000*%
%ADD14C,0.150000*%
G04 APERTURE END LIST*
D10*
X6150000Y-5250000D02*
X15100000Y-5250000D01*
X15100000Y-9200000D01*
X6150000Y-9200000D01*
X6150000Y-5250000D01*
D11*
X12030000Y-5350000D02*
X12030000Y-5650000D01*
X12030000Y-5650000D02*
X12370000Y-5650000D01*
X12370000Y-5350000D02*
X12030000Y-5350000D01*
X12370000Y-5650000D02*
X12370000Y-5350000D01*
X13930000Y-5350000D02*
X13930000Y-5650000D01*
X13930000Y-5650000D02*
X14270000Y-5650000D01*
X14270000Y-5350000D02*
X13930000Y-5350000D01*
X14270000Y-5650000D02*
X14270000Y-5350000D01*
X10130000Y-7250000D02*
X10130000Y-7550000D01*
X10130000Y-7550000D02*
X10470000Y-7550000D01*
X10470000Y-7250000D02*
X10130000Y-7250000D01*
X10470000Y-7550000D02*
X10470000Y-7250000D01*
X8230000Y-7250000D02*
X8230000Y-7550000D01*
X8230000Y-7550000D02*
X8570000Y-7550000D01*
X8570000Y-7250000D02*
X8230000Y-7250000D01*
X8570000Y-7550000D02*
X8570000Y-7250000D01*
X12030000Y-7250000D02*
X12030000Y-7550000D01*
X12030000Y-7550000D02*
X12370000Y-7550000D01*
X12370000Y-7250000D02*
X12030000Y-7250000D01*
X12370000Y-7550000D02*
X12370000Y-7250000D01*
X10130000Y-5350000D02*
X10130000Y-5650000D01*
X10130000Y-5650000D02*
X10470000Y-5650000D01*
X10470000Y-5350000D02*
X10130000Y-5350000D01*
X10470000Y-5650000D02*
X10470000Y-5350000D01*
X13930000Y-7250000D02*
X13930000Y-7550000D01*
X13930000Y-7550000D02*
X14270000Y-7550000D01*
X14270000Y-7250000D02*
X13930000Y-7250000D01*
X14270000Y-7550000D02*
X14270000Y-7250000D01*
X8230000Y-5350000D02*
X8230000Y-5650000D01*
X8230000Y-5650000D02*
X8570000Y-5650000D01*
X8570000Y-5350000D02*
X8230000Y-5350000D01*
X8570000Y-5650000D02*
X8570000Y-5350000D01*
D12*
D13*
X6985000Y-8635000D02*
X7015000Y-8665000D01*
X7015000Y-8635000D02*
X6985000Y-8665000D01*
X7285000Y-8135000D02*
X7315000Y-8165000D01*
X7315000Y-8135000D02*
X7285000Y-8165000D01*
X7835000Y-8635000D02*
X7865000Y-8665000D01*
X7865000Y-8635000D02*
X7835000Y-8665000D01*
X7935000Y-5535000D02*
X7965000Y-5565000D01*
X7965000Y-5535000D02*
X7935000Y-5565000D01*
X7935000Y-7635000D02*
X7965000Y-7665000D01*
X7965000Y-7635000D02*
X7935000Y-7665000D01*
X8285000Y-5835000D02*
X8315000Y-5865000D01*
X8315000Y-5835000D02*
X8285000Y-5865000D01*
X8485000Y-5985000D02*
X8515000Y-6015000D01*
X8515000Y-5985000D02*
X8485000Y-6015000D01*
X8985000Y-5685000D02*
X9015000Y-5715000D01*
X9015000Y-5685000D02*
X8985000Y-5715000D01*
X8985000Y-7385000D02*
X9015000Y-7415000D01*
X9015000Y-7385000D02*
X8985000Y-7415000D01*
X9285000Y-5785000D02*
X9315000Y-5815000D01*
X9315000Y-5785000D02*
X9285000Y-5815000D01*
X9285000Y-7035000D02*
X9315000Y-7065000D01*
X9315000Y-7035000D02*
X9285000Y-7065000D01*
X9285000Y-7985000D02*
X9315000Y-8015000D01*
X9315000Y-7985000D02*
X9285000Y-8015000D01*
X9485000Y-5985000D02*
X9515000Y-6015000D01*
X9515000Y-5985000D02*
X9485000Y-6015000D01*
X9585000Y-5785000D02*
X9615000Y-5815000D01*
X9615000Y-5785000D02*
X9585000Y-5815000D01*
X9735000Y-6685000D02*
X9765000Y-6715000D01*
X9765000Y-6685000D02*
X9735000Y-6715000D01*
X10285000Y-5695000D02*
X10315000Y-5725000D01*
X10315000Y-5695000D02*
X10285000Y-5725000D01*
X10435000Y-5985000D02*
X10465000Y-6015000D01*
X10465000Y-5985000D02*
X10435000Y-6015000D01*
X10438000Y-6081000D02*
X10468000Y-6111000D01*
X10468000Y-6081000D02*
X10438000Y-6111000D01*
X10725000Y-5885000D02*
X10755000Y-5915000D01*
X10755000Y-5885000D02*
X10725000Y-5915000D01*
X10885000Y-5485000D02*
X10915000Y-5515000D01*
X10915000Y-5485000D02*
X10885000Y-5515000D01*
X10935000Y-6685000D02*
X10965000Y-6715000D01*
X10965000Y-6685000D02*
X10935000Y-6715000D01*
X10985000Y-5785000D02*
X11015000Y-5815000D01*
X11015000Y-5785000D02*
X10985000Y-5815000D01*
X11035000Y-6885000D02*
X11065000Y-6915000D01*
X11065000Y-6885000D02*
X11035000Y-6915000D01*
X11035000Y-7335000D02*
X11065000Y-7365000D01*
X11065000Y-7335000D02*
X11035000Y-7365000D01*
X11135000Y-5735000D02*
X11165000Y-5765000D01*
X11165000Y-5735000D02*
X11135000Y-5765000D01*
X11835000Y-6705000D02*
X11865000Y-6735000D01*
X11865000Y-6705000D02*
X11835000Y-6735000D01*
X11835000Y-6785000D02*
X11865000Y-6815000D01*
X11865000Y-6785000D02*
X11835000Y-6815000D01*
X11885000Y-6385000D02*
X11915000Y-6415000D01*
X11915000Y-6385000D02*
X11885000Y-6415000D01*
X11935000Y-6635000D02*
X11965000Y-6665000D01*
X11965000Y-6635000D02*
X11935000Y-6665000D01*
X12135000Y-5785000D02*
X12165000Y-5815000D01*
X12165000Y-5785000D02*
X12135000Y-5815000D01*
X12335000Y-5985000D02*
X12365000Y-6015000D01*
X12365000Y-5985000D02*
X12335000Y-6015000D01*
X12685000Y-6835000D02*
X12715000Y-6865000D01*
X12715000Y-6835000D02*
X12685000Y-6865000D01*
X12735000Y-5485000D02*
X12765000Y-5515000D01*
X12765000Y-5485000D02*
X12735000Y-5515000D01*
X13035000Y-5385000D02*
X13065000Y-5415000D01*
X13065000Y-5385000D02*
X13035000Y-5415000D01*
X13435000Y-6235000D02*
X13465000Y-6265000D01*
X13465000Y-6235000D02*
X13435000Y-6265000D01*
X13435000Y-6685000D02*
X13465000Y-6715000D01*
X13465000Y-6685000D02*
X13435000Y-6715000D01*
X13835000Y-6835000D02*
X13865000Y-6865000D01*
X13865000Y-6835000D02*
X13835000Y-6865000D01*
X14279000Y-6785000D02*
X14309000Y-6815000D01*
X14309000Y-6785000D02*
X14279000Y-6815000D01*
X14418173Y-6901826D02*
X14448173Y-6931826D01*
X14448173Y-6901826D02*
X14418173Y-6931826D01*
X14485000Y-7335000D02*
X14515000Y-7365000D01*
X14515000Y-7335000D02*
X14485000Y-7365000D01*
X14835000Y-7335000D02*
X14865000Y-7365000D01*
X14865000Y-7335000D02*
X14835000Y-7365000D01*
X14935000Y-6735000D02*
X14965000Y-6765000D01*
X14965000Y-6735000D02*
X14935000Y-6765000D01*
X8059000Y-7100000D02*
G75*
G02*
X7979000Y-7100000I-40000J0D01*
G01*
X7979000Y-7100000D02*
G75*
G02*
X8059000Y-7100000I40000J0D01*
G01*
X8059000Y-9000000D02*
G75*
G02*
X7979000Y-9000000I-40000J0D01*
G01*
X7979000Y-9000000D02*
G75*
G02*
X8059000Y-9000000I40000J0D01*
G01*
X8821000Y-7100000D02*
G75*
G02*
X8741000Y-7100000I-40000J0D01*
G01*
X8741000Y-7100000D02*
G75*
G02*
X8821000Y-7100000I40000J0D01*
G01*
X8821000Y-9000000D02*
G75*
G02*
X8741000Y-9000000I-40000J0D01*
G01*
X8741000Y-9000000D02*
G75*
G02*
X8821000Y-9000000I40000J0D01*
G01*
X9959000Y-7100000D02*
G75*
G02*
X9879000Y-7100000I-40000J0D01*
G01*
X9879000Y-7100000D02*
G75*
G02*
X9959000Y-7100000I40000J0D01*
G01*
X9959000Y-9000000D02*
G75*
G02*
X9879000Y-9000000I-40000J0D01*
G01*
X9879000Y-9000000D02*
G75*
G02*
X9959000Y-9000000I40000J0D01*
G01*
X10721000Y-7100000D02*
G75*
G02*
X10641000Y-7100000I-40000J0D01*
G01*
X10641000Y-7100000D02*
G75*
G02*
X10721000Y-7100000I40000J0D01*
G01*
X10721000Y-9000000D02*
G75*
G02*
X10641000Y-9000000I-40000J0D01*
G01*
X10641000Y-9000000D02*
G75*
G02*
X10721000Y-9000000I40000J0D01*
G01*
X11859000Y-7100000D02*
G75*
G02*
X11779000Y-7100000I-40000J0D01*
G01*
X11779000Y-7100000D02*
G75*
G02*
X11859000Y-7100000I40000J0D01*
G01*
X11859000Y-9000000D02*
G75*
G02*
X11779000Y-9000000I-40000J0D01*
G01*
X11779000Y-9000000D02*
G75*
G02*
X11859000Y-9000000I40000J0D01*
G01*
X12621000Y-7100000D02*
G75*
G02*
X12541000Y-7100000I-40000J0D01*
G01*
X12541000Y-7100000D02*
G75*
G02*
X12621000Y-7100000I40000J0D01*
G01*
X12621000Y-9000000D02*
G75*
G02*
X12541000Y-9000000I-40000J0D01*
G01*
X12541000Y-9000000D02*
G75*
G02*
X12621000Y-9000000I40000J0D01*
G01*
X13759000Y-7100000D02*
G75*
G02*
X13679000Y-7100000I-40000J0D01*
G01*
X13679000Y-7100000D02*
G75*
G02*
X13759000Y-7100000I40000J0D01*
G01*
X13759000Y-9000000D02*
G75*
G02*
X13679000Y-9000000I-40000J0D01*
G01*
X13679000Y-9000000D02*
G75*
G02*
X13759000Y-9000000I40000J0D01*
G01*
X14521000Y-7100000D02*
G75*
G02*
X14441000Y-7100000I-40000J0D01*
G01*
X14441000Y-7100000D02*
G75*
G02*
X14521000Y-7100000I40000J0D01*
G01*
X14521000Y-9000000D02*
G75*
G02*
X14441000Y-9000000I-40000J0D01*
G01*
X14441000Y-9000000D02*
G75*
G02*
X14521000Y-9000000I40000J0D01*
G01*
X6442000Y-8900000D02*
X6442000Y-9000000D01*
X6392000Y-8950000D02*
X6492000Y-8950000D01*
X6696000Y-8900000D02*
X6696000Y-9000000D01*
X6646000Y-8950000D02*
X6746000Y-8950000D01*
X6950000Y-8900000D02*
X6950000Y-9000000D01*
X6900000Y-8950000D02*
X7000000Y-8950000D01*
X7204000Y-8900000D02*
X7204000Y-9000000D01*
X7154000Y-8950000D02*
X7254000Y-8950000D01*
X11476450Y-5559202D02*
X11476450Y-5659201D01*
X11426450Y-5609201D02*
X11526450Y-5609201D01*
X11476450Y-5813201D02*
X11476450Y-5913201D01*
X11426450Y-5863201D02*
X11526450Y-5863201D01*
X11476450Y-6067201D02*
X11476450Y-6167201D01*
X11426450Y-6117201D02*
X11526450Y-6117201D01*
X11476450Y-6321201D02*
X11476450Y-6421201D01*
X11426450Y-6371201D02*
X11526450Y-6371201D01*
X11476450Y-6575201D02*
X11476450Y-6675201D01*
X11426450Y-6625201D02*
X11526450Y-6625201D01*
X11476450Y-6829201D02*
X11476450Y-6929201D01*
X11426450Y-6879201D02*
X11526450Y-6879201D01*
X11476450Y-7083201D02*
X11476450Y-7183201D01*
X11426450Y-7133201D02*
X11526450Y-7133201D01*
X13001450Y-5559202D02*
X13001450Y-5659201D01*
X12951450Y-5609201D02*
X13051450Y-5609201D01*
X13001450Y-5813201D02*
X13001450Y-5913201D01*
X12951450Y-5863201D02*
X13051450Y-5863201D01*
X13001450Y-6067201D02*
X13001450Y-6167201D01*
X12951450Y-6117201D02*
X13051450Y-6117201D01*
X13001450Y-6321201D02*
X13001450Y-6421201D01*
X12951450Y-6371201D02*
X13051450Y-6371201D01*
X13001450Y-6575201D02*
X13001450Y-6675201D01*
X12951450Y-6625201D02*
X13051450Y-6625201D01*
X13001450Y-6829201D02*
X13001450Y-6929201D01*
X12951450Y-6879201D02*
X13051450Y-6879201D01*
X13001450Y-7083201D02*
X13001450Y-7183201D01*
X12951450Y-7133201D02*
X13051450Y-7133201D01*
D14*
X8072033Y-6099033D02*
X8072033Y-5992966D01*
X7965966Y-5992966D01*
X7965966Y-6099033D01*
X8072033Y-6099033D01*
X8072033Y-7999033D02*
X8072033Y-7892966D01*
X7965966Y-7892966D01*
X7965966Y-7999033D01*
X8072033Y-7999033D01*
X8707034Y-5845033D02*
X8707034Y-5738966D01*
X8600967Y-5738966D01*
X8600967Y-5845033D01*
X8707034Y-5845033D01*
X8707034Y-7745033D02*
X8707034Y-7638966D01*
X8600967Y-7638966D01*
X8600967Y-7745033D01*
X8707034Y-7745033D01*
X9972034Y-6099033D02*
X9972034Y-5992966D01*
X9865967Y-5992966D01*
X9865967Y-6099033D01*
X9972034Y-6099033D01*
X9972034Y-7999033D02*
X9972034Y-7892966D01*
X9865967Y-7892966D01*
X9865967Y-7999033D01*
X9972034Y-7999033D01*
X10607034Y-5845033D02*
X10607034Y-5738966D01*
X10500967Y-5738966D01*
X10500967Y-5845033D01*
X10607034Y-5845033D01*
X10607034Y-7745033D02*
X10607034Y-7638966D01*
X10500967Y-7638966D01*
X10500967Y-7745033D01*
X10607034Y-7745033D01*
X11872033Y-6099033D02*
X11872033Y-5992966D01*
X11765966Y-5992966D01*
X11765966Y-6099033D01*
X11872033Y-6099033D01*
X11872033Y-7999033D02*
X11872033Y-7892966D01*
X11765966Y-7892966D01*
X11765966Y-7999033D01*
X11872033Y-7999033D01*
X12507033Y-5845033D02*
X12507033Y-5738966D01*
X12400966Y-5738966D01*
X12400966Y-5845033D01*
X12507033Y-5845033D01*
X12507033Y-7745033D02*
X12507033Y-7638966D01*
X12400966Y-7638966D01*
X12400966Y-7745033D01*
X12507033Y-7745033D01*
X13772033Y-6099033D02*
X13772033Y-5992966D01*
X13665966Y-5992966D01*
X13665966Y-6099033D01*
X13772033Y-6099033D01*
X13772033Y-7999033D02*
X13772033Y-7892966D01*
X13665966Y-7892966D01*
X13665966Y-7999033D01*
X13772033Y-7999033D01*
X14407033Y-5845033D02*
X14407033Y-5738966D01*
X14300966Y-5738966D01*
X14300966Y-5845033D01*
X14407033Y-5845033D01*
X14407033Y-7745033D02*
X14407033Y-7638966D01*
X14300966Y-7638966D01*
X14300966Y-7745033D01*
X14407033Y-7745033D01*
D12*
X6408277Y-9513984D02*
X6408277Y-9313984D01*
X6408277Y-9313984D02*
X6455896Y-9313984D01*
X6455896Y-9313984D02*
X6484467Y-9323508D01*
X6484467Y-9323508D02*
X6503515Y-9342555D01*
X6503515Y-9342555D02*
X6513039Y-9361603D01*
X6513039Y-9361603D02*
X6522562Y-9399698D01*
X6522562Y-9399698D02*
X6522562Y-9428270D01*
X6522562Y-9428270D02*
X6513039Y-9466365D01*
X6513039Y-9466365D02*
X6503515Y-9485412D01*
X6503515Y-9485412D02*
X6484467Y-9504460D01*
X6484467Y-9504460D02*
X6455896Y-9513984D01*
X6455896Y-9513984D02*
X6408277Y-9513984D01*
X6608277Y-9513984D02*
X6608277Y-9380650D01*
X6608277Y-9418746D02*
X6617801Y-9399698D01*
X6617801Y-9399698D02*
X6627324Y-9390174D01*
X6627324Y-9390174D02*
X6646372Y-9380650D01*
X6646372Y-9380650D02*
X6665420Y-9380650D01*
X6732086Y-9513984D02*
X6732086Y-9380650D01*
X6732086Y-9313984D02*
X6722562Y-9323508D01*
X6722562Y-9323508D02*
X6732086Y-9333031D01*
X6732086Y-9333031D02*
X6741610Y-9323508D01*
X6741610Y-9323508D02*
X6732086Y-9313984D01*
X6732086Y-9313984D02*
X6732086Y-9333031D01*
X6855896Y-9513984D02*
X6836848Y-9504460D01*
X6836848Y-9504460D02*
X6827324Y-9485412D01*
X6827324Y-9485412D02*
X6827324Y-9313984D01*
X6960658Y-9513984D02*
X6941610Y-9504460D01*
X6941610Y-9504460D02*
X6932086Y-9485412D01*
X6932086Y-9485412D02*
X6932086Y-9313984D01*
X7189229Y-9513984D02*
X7189229Y-9313984D01*
X7189229Y-9313984D02*
X7255896Y-9456841D01*
X7255896Y-9456841D02*
X7322562Y-9313984D01*
X7322562Y-9313984D02*
X7322562Y-9513984D01*
X7503515Y-9513984D02*
X7503515Y-9409222D01*
X7503515Y-9409222D02*
X7493991Y-9390174D01*
X7493991Y-9390174D02*
X7474943Y-9380650D01*
X7474943Y-9380650D02*
X7436848Y-9380650D01*
X7436848Y-9380650D02*
X7417801Y-9390174D01*
X7503515Y-9504460D02*
X7484467Y-9513984D01*
X7484467Y-9513984D02*
X7436848Y-9513984D01*
X7436848Y-9513984D02*
X7417801Y-9504460D01*
X7417801Y-9504460D02*
X7408277Y-9485412D01*
X7408277Y-9485412D02*
X7408277Y-9466365D01*
X7408277Y-9466365D02*
X7417801Y-9447317D01*
X7417801Y-9447317D02*
X7436848Y-9437793D01*
X7436848Y-9437793D02*
X7484467Y-9437793D01*
X7484467Y-9437793D02*
X7503515Y-9428270D01*
X7598753Y-9380650D02*
X7598753Y-9580650D01*
X7598753Y-9390174D02*
X7617801Y-9380650D01*
X7617801Y-9380650D02*
X7655896Y-9380650D01*
X7655896Y-9380650D02*
X7674943Y-9390174D01*
X7674943Y-9390174D02*
X7684467Y-9399698D01*
X7684467Y-9399698D02*
X7693991Y-9418746D01*
X7693991Y-9418746D02*
X7693991Y-9475889D01*
X7693991Y-9475889D02*
X7684467Y-9494936D01*
X7684467Y-9494936D02*
X7674943Y-9504460D01*
X7674943Y-9504460D02*
X7655896Y-9513984D01*
X7655896Y-9513984D02*
X7617801Y-9513984D01*
X7617801Y-9513984D02*
X7598753Y-9504460D01*
X7779705Y-9494936D02*
X7789229Y-9504460D01*
X7789229Y-9504460D02*
X7779705Y-9513984D01*
X7779705Y-9513984D02*
X7770182Y-9504460D01*
X7770182Y-9504460D02*
X7779705Y-9494936D01*
X7779705Y-9494936D02*
X7779705Y-9513984D01*
X7779705Y-9390174D02*
X7789229Y-9399698D01*
X7789229Y-9399698D02*
X7779705Y-9409222D01*
X7779705Y-9409222D02*
X7770182Y-9399698D01*
X7770182Y-9399698D02*
X7779705Y-9390174D01*
X7779705Y-9390174D02*
X7779705Y-9409222D01*
D13*
X6117500Y-9827500D02*
X6147500Y-9857500D01*
X6147500Y-9827500D02*
X6117500Y-9857500D01*
D12*
X6446372Y-9733984D02*
X6465420Y-9733984D01*
X6465420Y-9733984D02*
X6484467Y-9743508D01*
X6484467Y-9743508D02*
X6493991Y-9753031D01*
X6493991Y-9753031D02*
X6503515Y-9772079D01*
X6503515Y-9772079D02*
X6513039Y-9810174D01*
X6513039Y-9810174D02*
X6513039Y-9857793D01*
X6513039Y-9857793D02*
X6503515Y-9895889D01*
X6503515Y-9895889D02*
X6493991Y-9914936D01*
X6493991Y-9914936D02*
X6484467Y-9924460D01*
X6484467Y-9924460D02*
X6465420Y-9933984D01*
X6465420Y-9933984D02*
X6446372Y-9933984D01*
X6446372Y-9933984D02*
X6427324Y-9924460D01*
X6427324Y-9924460D02*
X6417801Y-9914936D01*
X6417801Y-9914936D02*
X6408277Y-9895889D01*
X6408277Y-9895889D02*
X6398753Y-9857793D01*
X6398753Y-9857793D02*
X6398753Y-9810174D01*
X6398753Y-9810174D02*
X6408277Y-9772079D01*
X6408277Y-9772079D02*
X6417801Y-9753031D01*
X6417801Y-9753031D02*
X6427324Y-9743508D01*
X6427324Y-9743508D02*
X6446372Y-9733984D01*
X6598753Y-9914936D02*
X6608277Y-9924460D01*
X6608277Y-9924460D02*
X6598753Y-9933984D01*
X6598753Y-9933984D02*
X6589229Y-9924460D01*
X6589229Y-9924460D02*
X6598753Y-9914936D01*
X6598753Y-9914936D02*
X6598753Y-9933984D01*
X6674943Y-9733984D02*
X6798753Y-9733984D01*
X6798753Y-9733984D02*
X6732086Y-9810174D01*
X6732086Y-9810174D02*
X6760658Y-9810174D01*
X6760658Y-9810174D02*
X6779705Y-9819698D01*
X6779705Y-9819698D02*
X6789229Y-9829222D01*
X6789229Y-9829222D02*
X6798753Y-9848270D01*
X6798753Y-9848270D02*
X6798753Y-9895889D01*
X6798753Y-9895889D02*
X6789229Y-9914936D01*
X6789229Y-9914936D02*
X6779705Y-9924460D01*
X6779705Y-9924460D02*
X6760658Y-9933984D01*
X6760658Y-9933984D02*
X6703515Y-9933984D01*
X6703515Y-9933984D02*
X6684467Y-9924460D01*
X6684467Y-9924460D02*
X6674943Y-9914936D01*
X6922562Y-9733984D02*
X6941610Y-9733984D01*
X6941610Y-9733984D02*
X6960658Y-9743508D01*
X6960658Y-9743508D02*
X6970182Y-9753031D01*
X6970182Y-9753031D02*
X6979705Y-9772079D01*
X6979705Y-9772079D02*
X6989229Y-9810174D01*
X6989229Y-9810174D02*
X6989229Y-9857793D01*
X6989229Y-9857793D02*
X6979705Y-9895889D01*
X6979705Y-9895889D02*
X6970182Y-9914936D01*
X6970182Y-9914936D02*
X6960658Y-9924460D01*
X6960658Y-9924460D02*
X6941610Y-9933984D01*
X6941610Y-9933984D02*
X6922562Y-9933984D01*
X6922562Y-9933984D02*
X6903515Y-9924460D01*
X6903515Y-9924460D02*
X6893991Y-9914936D01*
X6893991Y-9914936D02*
X6884467Y-9895889D01*
X6884467Y-9895889D02*
X6874943Y-9857793D01*
X6874943Y-9857793D02*
X6874943Y-9810174D01*
X6874943Y-9810174D02*
X6884467Y-9772079D01*
X6884467Y-9772079D02*
X6893991Y-9753031D01*
X6893991Y-9753031D02*
X6903515Y-9743508D01*
X6903515Y-9743508D02*
X6922562Y-9733984D01*
X7113039Y-9733984D02*
X7132086Y-9733984D01*
X7132086Y-9733984D02*
X7151134Y-9743508D01*
X7151134Y-9743508D02*
X7160658Y-9753031D01*
X7160658Y-9753031D02*
X7170182Y-9772079D01*
X7170182Y-9772079D02*
X7179705Y-9810174D01*
X7179705Y-9810174D02*
X7179705Y-9857793D01*
X7179705Y-9857793D02*
X7170182Y-9895889D01*
X7170182Y-9895889D02*
X7160658Y-9914936D01*
X7160658Y-9914936D02*
X7151134Y-9924460D01*
X7151134Y-9924460D02*
X7132086Y-9933984D01*
X7132086Y-9933984D02*
X7113039Y-9933984D01*
X7113039Y-9933984D02*
X7093991Y-9924460D01*
X7093991Y-9924460D02*
X7084467Y-9914936D01*
X7084467Y-9914936D02*
X7074943Y-9895889D01*
X7074943Y-9895889D02*
X7065420Y-9857793D01*
X7065420Y-9857793D02*
X7065420Y-9810174D01*
X7065420Y-9810174D02*
X7074943Y-9772079D01*
X7074943Y-9772079D02*
X7084467Y-9753031D01*
X7084467Y-9753031D02*
X7093991Y-9743508D01*
X7093991Y-9743508D02*
X7113039Y-9733984D01*
X7265420Y-9933984D02*
X7265420Y-9800650D01*
X7265420Y-9819698D02*
X7274943Y-9810174D01*
X7274943Y-9810174D02*
X7293991Y-9800650D01*
X7293991Y-9800650D02*
X7322563Y-9800650D01*
X7322563Y-9800650D02*
X7341610Y-9810174D01*
X7341610Y-9810174D02*
X7351134Y-9829222D01*
X7351134Y-9829222D02*
X7351134Y-9933984D01*
X7351134Y-9829222D02*
X7360658Y-9810174D01*
X7360658Y-9810174D02*
X7379705Y-9800650D01*
X7379705Y-9800650D02*
X7408277Y-9800650D01*
X7408277Y-9800650D02*
X7427324Y-9810174D01*
X7427324Y-9810174D02*
X7436848Y-9829222D01*
X7436848Y-9829222D02*
X7436848Y-9933984D01*
X7532086Y-9933984D02*
X7532086Y-9800650D01*
X7532086Y-9819698D02*
X7541610Y-9810174D01*
X7541610Y-9810174D02*
X7560658Y-9800650D01*
X7560658Y-9800650D02*
X7589229Y-9800650D01*
X7589229Y-9800650D02*
X7608277Y-9810174D01*
X7608277Y-9810174D02*
X7617801Y-9829222D01*
X7617801Y-9829222D02*
X7617801Y-9933984D01*
X7617801Y-9829222D02*
X7627324Y-9810174D01*
X7627324Y-9810174D02*
X7646372Y-9800650D01*
X7646372Y-9800650D02*
X7674943Y-9800650D01*
X7674943Y-9800650D02*
X7693991Y-9810174D01*
X7693991Y-9810174D02*
X7703515Y-9829222D01*
X7703515Y-9829222D02*
X7703515Y-9933984D01*
X8093991Y-9724460D02*
X7922563Y-9981603D01*
X8351134Y-9733984D02*
X8370182Y-9733984D01*
X8370182Y-9733984D02*
X8389229Y-9743508D01*
X8389229Y-9743508D02*
X8398753Y-9753031D01*
X8398753Y-9753031D02*
X8408277Y-9772079D01*
X8408277Y-9772079D02*
X8417801Y-9810174D01*
X8417801Y-9810174D02*
X8417801Y-9857793D01*
X8417801Y-9857793D02*
X8408277Y-9895889D01*
X8408277Y-9895889D02*
X8398753Y-9914936D01*
X8398753Y-9914936D02*
X8389229Y-9924460D01*
X8389229Y-9924460D02*
X8370182Y-9933984D01*
X8370182Y-9933984D02*
X8351134Y-9933984D01*
X8351134Y-9933984D02*
X8332086Y-9924460D01*
X8332086Y-9924460D02*
X8322563Y-9914936D01*
X8322563Y-9914936D02*
X8313039Y-9895889D01*
X8313039Y-9895889D02*
X8303515Y-9857793D01*
X8303515Y-9857793D02*
X8303515Y-9810174D01*
X8303515Y-9810174D02*
X8313039Y-9772079D01*
X8313039Y-9772079D02*
X8322563Y-9753031D01*
X8322563Y-9753031D02*
X8332086Y-9743508D01*
X8332086Y-9743508D02*
X8351134Y-9733984D01*
X8503515Y-9914936D02*
X8513039Y-9924460D01*
X8513039Y-9924460D02*
X8503515Y-9933984D01*
X8503515Y-9933984D02*
X8493991Y-9924460D01*
X8493991Y-9924460D02*
X8503515Y-9914936D01*
X8503515Y-9914936D02*
X8503515Y-9933984D01*
X8636848Y-9733984D02*
X8655896Y-9733984D01*
X8655896Y-9733984D02*
X8674944Y-9743508D01*
X8674944Y-9743508D02*
X8684468Y-9753031D01*
X8684468Y-9753031D02*
X8693991Y-9772079D01*
X8693991Y-9772079D02*
X8703515Y-9810174D01*
X8703515Y-9810174D02*
X8703515Y-9857793D01*
X8703515Y-9857793D02*
X8693991Y-9895889D01*
X8693991Y-9895889D02*
X8684468Y-9914936D01*
X8684468Y-9914936D02*
X8674944Y-9924460D01*
X8674944Y-9924460D02*
X8655896Y-9933984D01*
X8655896Y-9933984D02*
X8636848Y-9933984D01*
X8636848Y-9933984D02*
X8617801Y-9924460D01*
X8617801Y-9924460D02*
X8608277Y-9914936D01*
X8608277Y-9914936D02*
X8598753Y-9895889D01*
X8598753Y-9895889D02*
X8589229Y-9857793D01*
X8589229Y-9857793D02*
X8589229Y-9810174D01*
X8589229Y-9810174D02*
X8598753Y-9772079D01*
X8598753Y-9772079D02*
X8608277Y-9753031D01*
X8608277Y-9753031D02*
X8617801Y-9743508D01*
X8617801Y-9743508D02*
X8636848Y-9733984D01*
X8893991Y-9933984D02*
X8779706Y-9933984D01*
X8836848Y-9933984D02*
X8836848Y-9733984D01*
X8836848Y-9733984D02*
X8817801Y-9762555D01*
X8817801Y-9762555D02*
X8798753Y-9781603D01*
X8798753Y-9781603D02*
X8779706Y-9791127D01*
X9084468Y-9933984D02*
X8970182Y-9933984D01*
X9027325Y-9933984D02*
X9027325Y-9733984D01*
X9027325Y-9733984D02*
X9008277Y-9762555D01*
X9008277Y-9762555D02*
X8989229Y-9781603D01*
X8989229Y-9781603D02*
X8970182Y-9791127D01*
X9198753Y-9819698D02*
X9179706Y-9810174D01*
X9179706Y-9810174D02*
X9170182Y-9800650D01*
X9170182Y-9800650D02*
X9160658Y-9781603D01*
X9160658Y-9781603D02*
X9160658Y-9772079D01*
X9160658Y-9772079D02*
X9170182Y-9753031D01*
X9170182Y-9753031D02*
X9179706Y-9743508D01*
X9179706Y-9743508D02*
X9198753Y-9733984D01*
X9198753Y-9733984D02*
X9236849Y-9733984D01*
X9236849Y-9733984D02*
X9255896Y-9743508D01*
X9255896Y-9743508D02*
X9265420Y-9753031D01*
X9265420Y-9753031D02*
X9274944Y-9772079D01*
X9274944Y-9772079D02*
X9274944Y-9781603D01*
X9274944Y-9781603D02*
X9265420Y-9800650D01*
X9265420Y-9800650D02*
X9255896Y-9810174D01*
X9255896Y-9810174D02*
X9236849Y-9819698D01*
X9236849Y-9819698D02*
X9198753Y-9819698D01*
X9198753Y-9819698D02*
X9179706Y-9829222D01*
X9179706Y-9829222D02*
X9170182Y-9838746D01*
X9170182Y-9838746D02*
X9160658Y-9857793D01*
X9160658Y-9857793D02*
X9160658Y-9895889D01*
X9160658Y-9895889D02*
X9170182Y-9914936D01*
X9170182Y-9914936D02*
X9179706Y-9924460D01*
X9179706Y-9924460D02*
X9198753Y-9933984D01*
X9198753Y-9933984D02*
X9236849Y-9933984D01*
X9236849Y-9933984D02*
X9255896Y-9924460D01*
X9255896Y-9924460D02*
X9265420Y-9914936D01*
X9265420Y-9914936D02*
X9274944Y-9895889D01*
X9274944Y-9895889D02*
X9274944Y-9857793D01*
X9274944Y-9857793D02*
X9265420Y-9838746D01*
X9265420Y-9838746D02*
X9255896Y-9829222D01*
X9255896Y-9829222D02*
X9236849Y-9819698D01*
X9351134Y-9733984D02*
X9351134Y-9772079D01*
X9427325Y-9733984D02*
X9427325Y-9772079D01*
X9722563Y-10010174D02*
X9713039Y-10000650D01*
X9713039Y-10000650D02*
X9693991Y-9972079D01*
X9693991Y-9972079D02*
X9684468Y-9953031D01*
X9684468Y-9953031D02*
X9674944Y-9924460D01*
X9674944Y-9924460D02*
X9665420Y-9876841D01*
X9665420Y-9876841D02*
X9665420Y-9838746D01*
X9665420Y-9838746D02*
X9674944Y-9791127D01*
X9674944Y-9791127D02*
X9684468Y-9762555D01*
X9684468Y-9762555D02*
X9693991Y-9743508D01*
X9693991Y-9743508D02*
X9713039Y-9714936D01*
X9713039Y-9714936D02*
X9722563Y-9705412D01*
X9884468Y-9800650D02*
X9884468Y-9933984D01*
X9836849Y-9724460D02*
X9789230Y-9867317D01*
X9789230Y-9867317D02*
X9913039Y-9867317D01*
X9979706Y-9753031D02*
X9989230Y-9743508D01*
X9989230Y-9743508D02*
X10008277Y-9733984D01*
X10008277Y-9733984D02*
X10055896Y-9733984D01*
X10055896Y-9733984D02*
X10074944Y-9743508D01*
X10074944Y-9743508D02*
X10084468Y-9753031D01*
X10084468Y-9753031D02*
X10093991Y-9772079D01*
X10093991Y-9772079D02*
X10093991Y-9791127D01*
X10093991Y-9791127D02*
X10084468Y-9819698D01*
X10084468Y-9819698D02*
X9970182Y-9933984D01*
X9970182Y-9933984D02*
X10093991Y-9933984D01*
X10332087Y-9933984D02*
X10332087Y-9733984D01*
X10417801Y-9933984D02*
X10417801Y-9829222D01*
X10417801Y-9829222D02*
X10408277Y-9810174D01*
X10408277Y-9810174D02*
X10389230Y-9800650D01*
X10389230Y-9800650D02*
X10360658Y-9800650D01*
X10360658Y-9800650D02*
X10341611Y-9810174D01*
X10341611Y-9810174D02*
X10332087Y-9819698D01*
X10541611Y-9933984D02*
X10522563Y-9924460D01*
X10522563Y-9924460D02*
X10513039Y-9914936D01*
X10513039Y-9914936D02*
X10503515Y-9895889D01*
X10503515Y-9895889D02*
X10503515Y-9838746D01*
X10503515Y-9838746D02*
X10513039Y-9819698D01*
X10513039Y-9819698D02*
X10522563Y-9810174D01*
X10522563Y-9810174D02*
X10541611Y-9800650D01*
X10541611Y-9800650D02*
X10570182Y-9800650D01*
X10570182Y-9800650D02*
X10589230Y-9810174D01*
X10589230Y-9810174D02*
X10598753Y-9819698D01*
X10598753Y-9819698D02*
X10608277Y-9838746D01*
X10608277Y-9838746D02*
X10608277Y-9895889D01*
X10608277Y-9895889D02*
X10598753Y-9914936D01*
X10598753Y-9914936D02*
X10589230Y-9924460D01*
X10589230Y-9924460D02*
X10570182Y-9933984D01*
X10570182Y-9933984D02*
X10541611Y-9933984D01*
X10722563Y-9933984D02*
X10703515Y-9924460D01*
X10703515Y-9924460D02*
X10693992Y-9905412D01*
X10693992Y-9905412D02*
X10693992Y-9733984D01*
X10874944Y-9924460D02*
X10855896Y-9933984D01*
X10855896Y-9933984D02*
X10817801Y-9933984D01*
X10817801Y-9933984D02*
X10798753Y-9924460D01*
X10798753Y-9924460D02*
X10789230Y-9905412D01*
X10789230Y-9905412D02*
X10789230Y-9829222D01*
X10789230Y-9829222D02*
X10798753Y-9810174D01*
X10798753Y-9810174D02*
X10817801Y-9800650D01*
X10817801Y-9800650D02*
X10855896Y-9800650D01*
X10855896Y-9800650D02*
X10874944Y-9810174D01*
X10874944Y-9810174D02*
X10884468Y-9829222D01*
X10884468Y-9829222D02*
X10884468Y-9848270D01*
X10884468Y-9848270D02*
X10789230Y-9867317D01*
X10960658Y-9924460D02*
X10979706Y-9933984D01*
X10979706Y-9933984D02*
X11017801Y-9933984D01*
X11017801Y-9933984D02*
X11036849Y-9924460D01*
X11036849Y-9924460D02*
X11046373Y-9905412D01*
X11046373Y-9905412D02*
X11046373Y-9895889D01*
X11046373Y-9895889D02*
X11036849Y-9876841D01*
X11036849Y-9876841D02*
X11017801Y-9867317D01*
X11017801Y-9867317D02*
X10989230Y-9867317D01*
X10989230Y-9867317D02*
X10970182Y-9857793D01*
X10970182Y-9857793D02*
X10960658Y-9838746D01*
X10960658Y-9838746D02*
X10960658Y-9829222D01*
X10960658Y-9829222D02*
X10970182Y-9810174D01*
X10970182Y-9810174D02*
X10989230Y-9800650D01*
X10989230Y-9800650D02*
X11017801Y-9800650D01*
X11017801Y-9800650D02*
X11036849Y-9810174D01*
X11113039Y-10010174D02*
X11122563Y-10000650D01*
X11122563Y-10000650D02*
X11141611Y-9972079D01*
X11141611Y-9972079D02*
X11151134Y-9953031D01*
X11151134Y-9953031D02*
X11160658Y-9924460D01*
X11160658Y-9924460D02*
X11170182Y-9876841D01*
X11170182Y-9876841D02*
X11170182Y-9838746D01*
X11170182Y-9838746D02*
X11160658Y-9791127D01*
X11160658Y-9791127D02*
X11151134Y-9762555D01*
X11151134Y-9762555D02*
X11141611Y-9743508D01*
X11141611Y-9743508D02*
X11122563Y-9714936D01*
X11122563Y-9714936D02*
X11113039Y-9705412D01*
D13*
X6147500Y-10106500D02*
G75*
G02*
X6067500Y-10106500I-40000J0D01*
G01*
X6067500Y-10106500D02*
G75*
G02*
X6147500Y-10106500I40000J0D01*
G01*
D12*
X6446372Y-9997984D02*
X6465420Y-9997984D01*
X6465420Y-9997984D02*
X6484467Y-10007508D01*
X6484467Y-10007508D02*
X6493991Y-10017031D01*
X6493991Y-10017031D02*
X6503515Y-10036079D01*
X6503515Y-10036079D02*
X6513039Y-10074174D01*
X6513039Y-10074174D02*
X6513039Y-10121793D01*
X6513039Y-10121793D02*
X6503515Y-10159889D01*
X6503515Y-10159889D02*
X6493991Y-10178936D01*
X6493991Y-10178936D02*
X6484467Y-10188460D01*
X6484467Y-10188460D02*
X6465420Y-10197984D01*
X6465420Y-10197984D02*
X6446372Y-10197984D01*
X6446372Y-10197984D02*
X6427324Y-10188460D01*
X6427324Y-10188460D02*
X6417801Y-10178936D01*
X6417801Y-10178936D02*
X6408277Y-10159889D01*
X6408277Y-10159889D02*
X6398753Y-10121793D01*
X6398753Y-10121793D02*
X6398753Y-10074174D01*
X6398753Y-10074174D02*
X6408277Y-10036079D01*
X6408277Y-10036079D02*
X6417801Y-10017031D01*
X6417801Y-10017031D02*
X6427324Y-10007508D01*
X6427324Y-10007508D02*
X6446372Y-9997984D01*
X6598753Y-10178936D02*
X6608277Y-10188460D01*
X6608277Y-10188460D02*
X6598753Y-10197984D01*
X6598753Y-10197984D02*
X6589229Y-10188460D01*
X6589229Y-10188460D02*
X6598753Y-10178936D01*
X6598753Y-10178936D02*
X6598753Y-10197984D01*
X6722562Y-10083698D02*
X6703515Y-10074174D01*
X6703515Y-10074174D02*
X6693991Y-10064650D01*
X6693991Y-10064650D02*
X6684467Y-10045603D01*
X6684467Y-10045603D02*
X6684467Y-10036079D01*
X6684467Y-10036079D02*
X6693991Y-10017031D01*
X6693991Y-10017031D02*
X6703515Y-10007508D01*
X6703515Y-10007508D02*
X6722562Y-9997984D01*
X6722562Y-9997984D02*
X6760658Y-9997984D01*
X6760658Y-9997984D02*
X6779705Y-10007508D01*
X6779705Y-10007508D02*
X6789229Y-10017031D01*
X6789229Y-10017031D02*
X6798753Y-10036079D01*
X6798753Y-10036079D02*
X6798753Y-10045603D01*
X6798753Y-10045603D02*
X6789229Y-10064650D01*
X6789229Y-10064650D02*
X6779705Y-10074174D01*
X6779705Y-10074174D02*
X6760658Y-10083698D01*
X6760658Y-10083698D02*
X6722562Y-10083698D01*
X6722562Y-10083698D02*
X6703515Y-10093222D01*
X6703515Y-10093222D02*
X6693991Y-10102746D01*
X6693991Y-10102746D02*
X6684467Y-10121793D01*
X6684467Y-10121793D02*
X6684467Y-10159889D01*
X6684467Y-10159889D02*
X6693991Y-10178936D01*
X6693991Y-10178936D02*
X6703515Y-10188460D01*
X6703515Y-10188460D02*
X6722562Y-10197984D01*
X6722562Y-10197984D02*
X6760658Y-10197984D01*
X6760658Y-10197984D02*
X6779705Y-10188460D01*
X6779705Y-10188460D02*
X6789229Y-10178936D01*
X6789229Y-10178936D02*
X6798753Y-10159889D01*
X6798753Y-10159889D02*
X6798753Y-10121793D01*
X6798753Y-10121793D02*
X6789229Y-10102746D01*
X6789229Y-10102746D02*
X6779705Y-10093222D01*
X6779705Y-10093222D02*
X6760658Y-10083698D01*
X6922562Y-9997984D02*
X6941610Y-9997984D01*
X6941610Y-9997984D02*
X6960658Y-10007508D01*
X6960658Y-10007508D02*
X6970182Y-10017031D01*
X6970182Y-10017031D02*
X6979705Y-10036079D01*
X6979705Y-10036079D02*
X6989229Y-10074174D01*
X6989229Y-10074174D02*
X6989229Y-10121793D01*
X6989229Y-10121793D02*
X6979705Y-10159889D01*
X6979705Y-10159889D02*
X6970182Y-10178936D01*
X6970182Y-10178936D02*
X6960658Y-10188460D01*
X6960658Y-10188460D02*
X6941610Y-10197984D01*
X6941610Y-10197984D02*
X6922562Y-10197984D01*
X6922562Y-10197984D02*
X6903515Y-10188460D01*
X6903515Y-10188460D02*
X6893991Y-10178936D01*
X6893991Y-10178936D02*
X6884467Y-10159889D01*
X6884467Y-10159889D02*
X6874943Y-10121793D01*
X6874943Y-10121793D02*
X6874943Y-10074174D01*
X6874943Y-10074174D02*
X6884467Y-10036079D01*
X6884467Y-10036079D02*
X6893991Y-10017031D01*
X6893991Y-10017031D02*
X6903515Y-10007508D01*
X6903515Y-10007508D02*
X6922562Y-9997984D01*
X7113039Y-9997984D02*
X7132086Y-9997984D01*
X7132086Y-9997984D02*
X7151134Y-10007508D01*
X7151134Y-10007508D02*
X7160658Y-10017031D01*
X7160658Y-10017031D02*
X7170182Y-10036079D01*
X7170182Y-10036079D02*
X7179705Y-10074174D01*
X7179705Y-10074174D02*
X7179705Y-10121793D01*
X7179705Y-10121793D02*
X7170182Y-10159889D01*
X7170182Y-10159889D02*
X7160658Y-10178936D01*
X7160658Y-10178936D02*
X7151134Y-10188460D01*
X7151134Y-10188460D02*
X7132086Y-10197984D01*
X7132086Y-10197984D02*
X7113039Y-10197984D01*
X7113039Y-10197984D02*
X7093991Y-10188460D01*
X7093991Y-10188460D02*
X7084467Y-10178936D01*
X7084467Y-10178936D02*
X7074943Y-10159889D01*
X7074943Y-10159889D02*
X7065420Y-10121793D01*
X7065420Y-10121793D02*
X7065420Y-10074174D01*
X7065420Y-10074174D02*
X7074943Y-10036079D01*
X7074943Y-10036079D02*
X7084467Y-10017031D01*
X7084467Y-10017031D02*
X7093991Y-10007508D01*
X7093991Y-10007508D02*
X7113039Y-9997984D01*
X7265420Y-10197984D02*
X7265420Y-10064650D01*
X7265420Y-10083698D02*
X7274943Y-10074174D01*
X7274943Y-10074174D02*
X7293991Y-10064650D01*
X7293991Y-10064650D02*
X7322563Y-10064650D01*
X7322563Y-10064650D02*
X7341610Y-10074174D01*
X7341610Y-10074174D02*
X7351134Y-10093222D01*
X7351134Y-10093222D02*
X7351134Y-10197984D01*
X7351134Y-10093222D02*
X7360658Y-10074174D01*
X7360658Y-10074174D02*
X7379705Y-10064650D01*
X7379705Y-10064650D02*
X7408277Y-10064650D01*
X7408277Y-10064650D02*
X7427324Y-10074174D01*
X7427324Y-10074174D02*
X7436848Y-10093222D01*
X7436848Y-10093222D02*
X7436848Y-10197984D01*
X7532086Y-10197984D02*
X7532086Y-10064650D01*
X7532086Y-10083698D02*
X7541610Y-10074174D01*
X7541610Y-10074174D02*
X7560658Y-10064650D01*
X7560658Y-10064650D02*
X7589229Y-10064650D01*
X7589229Y-10064650D02*
X7608277Y-10074174D01*
X7608277Y-10074174D02*
X7617801Y-10093222D01*
X7617801Y-10093222D02*
X7617801Y-10197984D01*
X7617801Y-10093222D02*
X7627324Y-10074174D01*
X7627324Y-10074174D02*
X7646372Y-10064650D01*
X7646372Y-10064650D02*
X7674943Y-10064650D01*
X7674943Y-10064650D02*
X7693991Y-10074174D01*
X7693991Y-10074174D02*
X7703515Y-10093222D01*
X7703515Y-10093222D02*
X7703515Y-10197984D01*
X8093991Y-9988460D02*
X7922563Y-10245603D01*
X8351134Y-9997984D02*
X8370182Y-9997984D01*
X8370182Y-9997984D02*
X8389229Y-10007508D01*
X8389229Y-10007508D02*
X8398753Y-10017031D01*
X8398753Y-10017031D02*
X8408277Y-10036079D01*
X8408277Y-10036079D02*
X8417801Y-10074174D01*
X8417801Y-10074174D02*
X8417801Y-10121793D01*
X8417801Y-10121793D02*
X8408277Y-10159889D01*
X8408277Y-10159889D02*
X8398753Y-10178936D01*
X8398753Y-10178936D02*
X8389229Y-10188460D01*
X8389229Y-10188460D02*
X8370182Y-10197984D01*
X8370182Y-10197984D02*
X8351134Y-10197984D01*
X8351134Y-10197984D02*
X8332086Y-10188460D01*
X8332086Y-10188460D02*
X8322563Y-10178936D01*
X8322563Y-10178936D02*
X8313039Y-10159889D01*
X8313039Y-10159889D02*
X8303515Y-10121793D01*
X8303515Y-10121793D02*
X8303515Y-10074174D01*
X8303515Y-10074174D02*
X8313039Y-10036079D01*
X8313039Y-10036079D02*
X8322563Y-10017031D01*
X8322563Y-10017031D02*
X8332086Y-10007508D01*
X8332086Y-10007508D02*
X8351134Y-9997984D01*
X8503515Y-10178936D02*
X8513039Y-10188460D01*
X8513039Y-10188460D02*
X8503515Y-10197984D01*
X8503515Y-10197984D02*
X8493991Y-10188460D01*
X8493991Y-10188460D02*
X8503515Y-10178936D01*
X8503515Y-10178936D02*
X8503515Y-10197984D01*
X8636848Y-9997984D02*
X8655896Y-9997984D01*
X8655896Y-9997984D02*
X8674944Y-10007508D01*
X8674944Y-10007508D02*
X8684468Y-10017031D01*
X8684468Y-10017031D02*
X8693991Y-10036079D01*
X8693991Y-10036079D02*
X8703515Y-10074174D01*
X8703515Y-10074174D02*
X8703515Y-10121793D01*
X8703515Y-10121793D02*
X8693991Y-10159889D01*
X8693991Y-10159889D02*
X8684468Y-10178936D01*
X8684468Y-10178936D02*
X8674944Y-10188460D01*
X8674944Y-10188460D02*
X8655896Y-10197984D01*
X8655896Y-10197984D02*
X8636848Y-10197984D01*
X8636848Y-10197984D02*
X8617801Y-10188460D01*
X8617801Y-10188460D02*
X8608277Y-10178936D01*
X8608277Y-10178936D02*
X8598753Y-10159889D01*
X8598753Y-10159889D02*
X8589229Y-10121793D01*
X8589229Y-10121793D02*
X8589229Y-10074174D01*
X8589229Y-10074174D02*
X8598753Y-10036079D01*
X8598753Y-10036079D02*
X8608277Y-10017031D01*
X8608277Y-10017031D02*
X8617801Y-10007508D01*
X8617801Y-10007508D02*
X8636848Y-9997984D01*
X8770182Y-9997984D02*
X8893991Y-9997984D01*
X8893991Y-9997984D02*
X8827325Y-10074174D01*
X8827325Y-10074174D02*
X8855896Y-10074174D01*
X8855896Y-10074174D02*
X8874944Y-10083698D01*
X8874944Y-10083698D02*
X8884468Y-10093222D01*
X8884468Y-10093222D02*
X8893991Y-10112270D01*
X8893991Y-10112270D02*
X8893991Y-10159889D01*
X8893991Y-10159889D02*
X8884468Y-10178936D01*
X8884468Y-10178936D02*
X8874944Y-10188460D01*
X8874944Y-10188460D02*
X8855896Y-10197984D01*
X8855896Y-10197984D02*
X8798753Y-10197984D01*
X8798753Y-10197984D02*
X8779706Y-10188460D01*
X8779706Y-10188460D02*
X8770182Y-10178936D01*
X9084468Y-10197984D02*
X8970182Y-10197984D01*
X9027325Y-10197984D02*
X9027325Y-9997984D01*
X9027325Y-9997984D02*
X9008277Y-10026555D01*
X9008277Y-10026555D02*
X8989229Y-10045603D01*
X8989229Y-10045603D02*
X8970182Y-10055127D01*
X9265420Y-9997984D02*
X9170182Y-9997984D01*
X9170182Y-9997984D02*
X9160658Y-10093222D01*
X9160658Y-10093222D02*
X9170182Y-10083698D01*
X9170182Y-10083698D02*
X9189229Y-10074174D01*
X9189229Y-10074174D02*
X9236849Y-10074174D01*
X9236849Y-10074174D02*
X9255896Y-10083698D01*
X9255896Y-10083698D02*
X9265420Y-10093222D01*
X9265420Y-10093222D02*
X9274944Y-10112270D01*
X9274944Y-10112270D02*
X9274944Y-10159889D01*
X9274944Y-10159889D02*
X9265420Y-10178936D01*
X9265420Y-10178936D02*
X9255896Y-10188460D01*
X9255896Y-10188460D02*
X9236849Y-10197984D01*
X9236849Y-10197984D02*
X9189229Y-10197984D01*
X9189229Y-10197984D02*
X9170182Y-10188460D01*
X9170182Y-10188460D02*
X9160658Y-10178936D01*
X9351134Y-9997984D02*
X9351134Y-10036079D01*
X9427325Y-9997984D02*
X9427325Y-10036079D01*
X9722563Y-10274174D02*
X9713039Y-10264650D01*
X9713039Y-10264650D02*
X9693991Y-10236079D01*
X9693991Y-10236079D02*
X9684468Y-10217031D01*
X9684468Y-10217031D02*
X9674944Y-10188460D01*
X9674944Y-10188460D02*
X9665420Y-10140841D01*
X9665420Y-10140841D02*
X9665420Y-10102746D01*
X9665420Y-10102746D02*
X9674944Y-10055127D01*
X9674944Y-10055127D02*
X9684468Y-10026555D01*
X9684468Y-10026555D02*
X9693991Y-10007508D01*
X9693991Y-10007508D02*
X9713039Y-9978936D01*
X9713039Y-9978936D02*
X9722563Y-9969412D01*
X9903515Y-10197984D02*
X9789230Y-10197984D01*
X9846372Y-10197984D02*
X9846372Y-9997984D01*
X9846372Y-9997984D02*
X9827325Y-10026555D01*
X9827325Y-10026555D02*
X9808277Y-10045603D01*
X9808277Y-10045603D02*
X9789230Y-10055127D01*
X10074944Y-9997984D02*
X10036849Y-9997984D01*
X10036849Y-9997984D02*
X10017801Y-10007508D01*
X10017801Y-10007508D02*
X10008277Y-10017031D01*
X10008277Y-10017031D02*
X9989230Y-10045603D01*
X9989230Y-10045603D02*
X9979706Y-10083698D01*
X9979706Y-10083698D02*
X9979706Y-10159889D01*
X9979706Y-10159889D02*
X9989230Y-10178936D01*
X9989230Y-10178936D02*
X9998753Y-10188460D01*
X9998753Y-10188460D02*
X10017801Y-10197984D01*
X10017801Y-10197984D02*
X10055896Y-10197984D01*
X10055896Y-10197984D02*
X10074944Y-10188460D01*
X10074944Y-10188460D02*
X10084468Y-10178936D01*
X10084468Y-10178936D02*
X10093991Y-10159889D01*
X10093991Y-10159889D02*
X10093991Y-10112270D01*
X10093991Y-10112270D02*
X10084468Y-10093222D01*
X10084468Y-10093222D02*
X10074944Y-10083698D01*
X10074944Y-10083698D02*
X10055896Y-10074174D01*
X10055896Y-10074174D02*
X10017801Y-10074174D01*
X10017801Y-10074174D02*
X9998753Y-10083698D01*
X9998753Y-10083698D02*
X9989230Y-10093222D01*
X9989230Y-10093222D02*
X9979706Y-10112270D01*
X10332087Y-10197984D02*
X10332087Y-9997984D01*
X10417801Y-10197984D02*
X10417801Y-10093222D01*
X10417801Y-10093222D02*
X10408277Y-10074174D01*
X10408277Y-10074174D02*
X10389230Y-10064650D01*
X10389230Y-10064650D02*
X10360658Y-10064650D01*
X10360658Y-10064650D02*
X10341611Y-10074174D01*
X10341611Y-10074174D02*
X10332087Y-10083698D01*
X10541611Y-10197984D02*
X10522563Y-10188460D01*
X10522563Y-10188460D02*
X10513039Y-10178936D01*
X10513039Y-10178936D02*
X10503515Y-10159889D01*
X10503515Y-10159889D02*
X10503515Y-10102746D01*
X10503515Y-10102746D02*
X10513039Y-10083698D01*
X10513039Y-10083698D02*
X10522563Y-10074174D01*
X10522563Y-10074174D02*
X10541611Y-10064650D01*
X10541611Y-10064650D02*
X10570182Y-10064650D01*
X10570182Y-10064650D02*
X10589230Y-10074174D01*
X10589230Y-10074174D02*
X10598753Y-10083698D01*
X10598753Y-10083698D02*
X10608277Y-10102746D01*
X10608277Y-10102746D02*
X10608277Y-10159889D01*
X10608277Y-10159889D02*
X10598753Y-10178936D01*
X10598753Y-10178936D02*
X10589230Y-10188460D01*
X10589230Y-10188460D02*
X10570182Y-10197984D01*
X10570182Y-10197984D02*
X10541611Y-10197984D01*
X10722563Y-10197984D02*
X10703515Y-10188460D01*
X10703515Y-10188460D02*
X10693992Y-10169412D01*
X10693992Y-10169412D02*
X10693992Y-9997984D01*
X10874944Y-10188460D02*
X10855896Y-10197984D01*
X10855896Y-10197984D02*
X10817801Y-10197984D01*
X10817801Y-10197984D02*
X10798753Y-10188460D01*
X10798753Y-10188460D02*
X10789230Y-10169412D01*
X10789230Y-10169412D02*
X10789230Y-10093222D01*
X10789230Y-10093222D02*
X10798753Y-10074174D01*
X10798753Y-10074174D02*
X10817801Y-10064650D01*
X10817801Y-10064650D02*
X10855896Y-10064650D01*
X10855896Y-10064650D02*
X10874944Y-10074174D01*
X10874944Y-10074174D02*
X10884468Y-10093222D01*
X10884468Y-10093222D02*
X10884468Y-10112270D01*
X10884468Y-10112270D02*
X10789230Y-10131317D01*
X10960658Y-10188460D02*
X10979706Y-10197984D01*
X10979706Y-10197984D02*
X11017801Y-10197984D01*
X11017801Y-10197984D02*
X11036849Y-10188460D01*
X11036849Y-10188460D02*
X11046373Y-10169412D01*
X11046373Y-10169412D02*
X11046373Y-10159889D01*
X11046373Y-10159889D02*
X11036849Y-10140841D01*
X11036849Y-10140841D02*
X11017801Y-10131317D01*
X11017801Y-10131317D02*
X10989230Y-10131317D01*
X10989230Y-10131317D02*
X10970182Y-10121793D01*
X10970182Y-10121793D02*
X10960658Y-10102746D01*
X10960658Y-10102746D02*
X10960658Y-10093222D01*
X10960658Y-10093222D02*
X10970182Y-10074174D01*
X10970182Y-10074174D02*
X10989230Y-10064650D01*
X10989230Y-10064650D02*
X11017801Y-10064650D01*
X11017801Y-10064650D02*
X11036849Y-10074174D01*
X11113039Y-10274174D02*
X11122563Y-10264650D01*
X11122563Y-10264650D02*
X11141611Y-10236079D01*
X11141611Y-10236079D02*
X11151134Y-10217031D01*
X11151134Y-10217031D02*
X11160658Y-10188460D01*
X11160658Y-10188460D02*
X11170182Y-10140841D01*
X11170182Y-10140841D02*
X11170182Y-10102746D01*
X11170182Y-10102746D02*
X11160658Y-10055127D01*
X11160658Y-10055127D02*
X11151134Y-10026555D01*
X11151134Y-10026555D02*
X11141611Y-10007508D01*
X11141611Y-10007508D02*
X11122563Y-9978936D01*
X11122563Y-9978936D02*
X11113039Y-9969412D01*
D13*
X6097500Y-10320500D02*
X6097500Y-10420500D01*
X6047500Y-10370500D02*
X6147500Y-10370500D01*
D12*
X6513039Y-10461984D02*
X6398753Y-10461984D01*
X6455896Y-10461984D02*
X6455896Y-10261984D01*
X6455896Y-10261984D02*
X6436848Y-10290555D01*
X6436848Y-10290555D02*
X6417801Y-10309603D01*
X6417801Y-10309603D02*
X6398753Y-10319127D01*
X6598753Y-10442936D02*
X6608277Y-10452460D01*
X6608277Y-10452460D02*
X6598753Y-10461984D01*
X6598753Y-10461984D02*
X6589229Y-10452460D01*
X6589229Y-10452460D02*
X6598753Y-10442936D01*
X6598753Y-10442936D02*
X6598753Y-10461984D01*
X6732086Y-10261984D02*
X6751134Y-10261984D01*
X6751134Y-10261984D02*
X6770182Y-10271508D01*
X6770182Y-10271508D02*
X6779705Y-10281031D01*
X6779705Y-10281031D02*
X6789229Y-10300079D01*
X6789229Y-10300079D02*
X6798753Y-10338174D01*
X6798753Y-10338174D02*
X6798753Y-10385793D01*
X6798753Y-10385793D02*
X6789229Y-10423889D01*
X6789229Y-10423889D02*
X6779705Y-10442936D01*
X6779705Y-10442936D02*
X6770182Y-10452460D01*
X6770182Y-10452460D02*
X6751134Y-10461984D01*
X6751134Y-10461984D02*
X6732086Y-10461984D01*
X6732086Y-10461984D02*
X6713039Y-10452460D01*
X6713039Y-10452460D02*
X6703515Y-10442936D01*
X6703515Y-10442936D02*
X6693991Y-10423889D01*
X6693991Y-10423889D02*
X6684467Y-10385793D01*
X6684467Y-10385793D02*
X6684467Y-10338174D01*
X6684467Y-10338174D02*
X6693991Y-10300079D01*
X6693991Y-10300079D02*
X6703515Y-10281031D01*
X6703515Y-10281031D02*
X6713039Y-10271508D01*
X6713039Y-10271508D02*
X6732086Y-10261984D01*
X6922562Y-10261984D02*
X6941610Y-10261984D01*
X6941610Y-10261984D02*
X6960658Y-10271508D01*
X6960658Y-10271508D02*
X6970182Y-10281031D01*
X6970182Y-10281031D02*
X6979705Y-10300079D01*
X6979705Y-10300079D02*
X6989229Y-10338174D01*
X6989229Y-10338174D02*
X6989229Y-10385793D01*
X6989229Y-10385793D02*
X6979705Y-10423889D01*
X6979705Y-10423889D02*
X6970182Y-10442936D01*
X6970182Y-10442936D02*
X6960658Y-10452460D01*
X6960658Y-10452460D02*
X6941610Y-10461984D01*
X6941610Y-10461984D02*
X6922562Y-10461984D01*
X6922562Y-10461984D02*
X6903515Y-10452460D01*
X6903515Y-10452460D02*
X6893991Y-10442936D01*
X6893991Y-10442936D02*
X6884467Y-10423889D01*
X6884467Y-10423889D02*
X6874943Y-10385793D01*
X6874943Y-10385793D02*
X6874943Y-10338174D01*
X6874943Y-10338174D02*
X6884467Y-10300079D01*
X6884467Y-10300079D02*
X6893991Y-10281031D01*
X6893991Y-10281031D02*
X6903515Y-10271508D01*
X6903515Y-10271508D02*
X6922562Y-10261984D01*
X7113039Y-10261984D02*
X7132086Y-10261984D01*
X7132086Y-10261984D02*
X7151134Y-10271508D01*
X7151134Y-10271508D02*
X7160658Y-10281031D01*
X7160658Y-10281031D02*
X7170182Y-10300079D01*
X7170182Y-10300079D02*
X7179705Y-10338174D01*
X7179705Y-10338174D02*
X7179705Y-10385793D01*
X7179705Y-10385793D02*
X7170182Y-10423889D01*
X7170182Y-10423889D02*
X7160658Y-10442936D01*
X7160658Y-10442936D02*
X7151134Y-10452460D01*
X7151134Y-10452460D02*
X7132086Y-10461984D01*
X7132086Y-10461984D02*
X7113039Y-10461984D01*
X7113039Y-10461984D02*
X7093991Y-10452460D01*
X7093991Y-10452460D02*
X7084467Y-10442936D01*
X7084467Y-10442936D02*
X7074943Y-10423889D01*
X7074943Y-10423889D02*
X7065420Y-10385793D01*
X7065420Y-10385793D02*
X7065420Y-10338174D01*
X7065420Y-10338174D02*
X7074943Y-10300079D01*
X7074943Y-10300079D02*
X7084467Y-10281031D01*
X7084467Y-10281031D02*
X7093991Y-10271508D01*
X7093991Y-10271508D02*
X7113039Y-10261984D01*
X7265420Y-10461984D02*
X7265420Y-10328650D01*
X7265420Y-10347698D02*
X7274943Y-10338174D01*
X7274943Y-10338174D02*
X7293991Y-10328650D01*
X7293991Y-10328650D02*
X7322563Y-10328650D01*
X7322563Y-10328650D02*
X7341610Y-10338174D01*
X7341610Y-10338174D02*
X7351134Y-10357222D01*
X7351134Y-10357222D02*
X7351134Y-10461984D01*
X7351134Y-10357222D02*
X7360658Y-10338174D01*
X7360658Y-10338174D02*
X7379705Y-10328650D01*
X7379705Y-10328650D02*
X7408277Y-10328650D01*
X7408277Y-10328650D02*
X7427324Y-10338174D01*
X7427324Y-10338174D02*
X7436848Y-10357222D01*
X7436848Y-10357222D02*
X7436848Y-10461984D01*
X7532086Y-10461984D02*
X7532086Y-10328650D01*
X7532086Y-10347698D02*
X7541610Y-10338174D01*
X7541610Y-10338174D02*
X7560658Y-10328650D01*
X7560658Y-10328650D02*
X7589229Y-10328650D01*
X7589229Y-10328650D02*
X7608277Y-10338174D01*
X7608277Y-10338174D02*
X7617801Y-10357222D01*
X7617801Y-10357222D02*
X7617801Y-10461984D01*
X7617801Y-10357222D02*
X7627324Y-10338174D01*
X7627324Y-10338174D02*
X7646372Y-10328650D01*
X7646372Y-10328650D02*
X7674943Y-10328650D01*
X7674943Y-10328650D02*
X7693991Y-10338174D01*
X7693991Y-10338174D02*
X7703515Y-10357222D01*
X7703515Y-10357222D02*
X7703515Y-10461984D01*
X8093991Y-10252460D02*
X7922563Y-10509603D01*
X8351134Y-10261984D02*
X8370182Y-10261984D01*
X8370182Y-10261984D02*
X8389229Y-10271508D01*
X8389229Y-10271508D02*
X8398753Y-10281031D01*
X8398753Y-10281031D02*
X8408277Y-10300079D01*
X8408277Y-10300079D02*
X8417801Y-10338174D01*
X8417801Y-10338174D02*
X8417801Y-10385793D01*
X8417801Y-10385793D02*
X8408277Y-10423889D01*
X8408277Y-10423889D02*
X8398753Y-10442936D01*
X8398753Y-10442936D02*
X8389229Y-10452460D01*
X8389229Y-10452460D02*
X8370182Y-10461984D01*
X8370182Y-10461984D02*
X8351134Y-10461984D01*
X8351134Y-10461984D02*
X8332086Y-10452460D01*
X8332086Y-10452460D02*
X8322563Y-10442936D01*
X8322563Y-10442936D02*
X8313039Y-10423889D01*
X8313039Y-10423889D02*
X8303515Y-10385793D01*
X8303515Y-10385793D02*
X8303515Y-10338174D01*
X8303515Y-10338174D02*
X8313039Y-10300079D01*
X8313039Y-10300079D02*
X8322563Y-10281031D01*
X8322563Y-10281031D02*
X8332086Y-10271508D01*
X8332086Y-10271508D02*
X8351134Y-10261984D01*
X8503515Y-10442936D02*
X8513039Y-10452460D01*
X8513039Y-10452460D02*
X8503515Y-10461984D01*
X8503515Y-10461984D02*
X8493991Y-10452460D01*
X8493991Y-10452460D02*
X8503515Y-10442936D01*
X8503515Y-10442936D02*
X8503515Y-10461984D01*
X8636848Y-10261984D02*
X8655896Y-10261984D01*
X8655896Y-10261984D02*
X8674944Y-10271508D01*
X8674944Y-10271508D02*
X8684468Y-10281031D01*
X8684468Y-10281031D02*
X8693991Y-10300079D01*
X8693991Y-10300079D02*
X8703515Y-10338174D01*
X8703515Y-10338174D02*
X8703515Y-10385793D01*
X8703515Y-10385793D02*
X8693991Y-10423889D01*
X8693991Y-10423889D02*
X8684468Y-10442936D01*
X8684468Y-10442936D02*
X8674944Y-10452460D01*
X8674944Y-10452460D02*
X8655896Y-10461984D01*
X8655896Y-10461984D02*
X8636848Y-10461984D01*
X8636848Y-10461984D02*
X8617801Y-10452460D01*
X8617801Y-10452460D02*
X8608277Y-10442936D01*
X8608277Y-10442936D02*
X8598753Y-10423889D01*
X8598753Y-10423889D02*
X8589229Y-10385793D01*
X8589229Y-10385793D02*
X8589229Y-10338174D01*
X8589229Y-10338174D02*
X8598753Y-10300079D01*
X8598753Y-10300079D02*
X8608277Y-10281031D01*
X8608277Y-10281031D02*
X8617801Y-10271508D01*
X8617801Y-10271508D02*
X8636848Y-10261984D01*
X8770182Y-10261984D02*
X8893991Y-10261984D01*
X8893991Y-10261984D02*
X8827325Y-10338174D01*
X8827325Y-10338174D02*
X8855896Y-10338174D01*
X8855896Y-10338174D02*
X8874944Y-10347698D01*
X8874944Y-10347698D02*
X8884468Y-10357222D01*
X8884468Y-10357222D02*
X8893991Y-10376270D01*
X8893991Y-10376270D02*
X8893991Y-10423889D01*
X8893991Y-10423889D02*
X8884468Y-10442936D01*
X8884468Y-10442936D02*
X8874944Y-10452460D01*
X8874944Y-10452460D02*
X8855896Y-10461984D01*
X8855896Y-10461984D02*
X8798753Y-10461984D01*
X8798753Y-10461984D02*
X8779706Y-10452460D01*
X8779706Y-10452460D02*
X8770182Y-10442936D01*
X8989229Y-10461984D02*
X9027325Y-10461984D01*
X9027325Y-10461984D02*
X9046372Y-10452460D01*
X9046372Y-10452460D02*
X9055896Y-10442936D01*
X9055896Y-10442936D02*
X9074944Y-10414365D01*
X9074944Y-10414365D02*
X9084468Y-10376270D01*
X9084468Y-10376270D02*
X9084468Y-10300079D01*
X9084468Y-10300079D02*
X9074944Y-10281031D01*
X9074944Y-10281031D02*
X9065420Y-10271508D01*
X9065420Y-10271508D02*
X9046372Y-10261984D01*
X9046372Y-10261984D02*
X9008277Y-10261984D01*
X9008277Y-10261984D02*
X8989229Y-10271508D01*
X8989229Y-10271508D02*
X8979706Y-10281031D01*
X8979706Y-10281031D02*
X8970182Y-10300079D01*
X8970182Y-10300079D02*
X8970182Y-10347698D01*
X8970182Y-10347698D02*
X8979706Y-10366746D01*
X8979706Y-10366746D02*
X8989229Y-10376270D01*
X8989229Y-10376270D02*
X9008277Y-10385793D01*
X9008277Y-10385793D02*
X9046372Y-10385793D01*
X9046372Y-10385793D02*
X9065420Y-10376270D01*
X9065420Y-10376270D02*
X9074944Y-10366746D01*
X9074944Y-10366746D02*
X9084468Y-10347698D01*
X9255896Y-10328650D02*
X9255896Y-10461984D01*
X9208277Y-10252460D02*
X9160658Y-10395317D01*
X9160658Y-10395317D02*
X9284468Y-10395317D01*
X9351134Y-10261984D02*
X9351134Y-10300079D01*
X9427325Y-10261984D02*
X9427325Y-10300079D01*
X9722563Y-10538174D02*
X9713039Y-10528650D01*
X9713039Y-10528650D02*
X9693991Y-10500079D01*
X9693991Y-10500079D02*
X9684468Y-10481031D01*
X9684468Y-10481031D02*
X9674944Y-10452460D01*
X9674944Y-10452460D02*
X9665420Y-10404841D01*
X9665420Y-10404841D02*
X9665420Y-10366746D01*
X9665420Y-10366746D02*
X9674944Y-10319127D01*
X9674944Y-10319127D02*
X9684468Y-10290555D01*
X9684468Y-10290555D02*
X9693991Y-10271508D01*
X9693991Y-10271508D02*
X9713039Y-10242936D01*
X9713039Y-10242936D02*
X9722563Y-10233412D01*
X9903515Y-10461984D02*
X9789230Y-10461984D01*
X9846372Y-10461984D02*
X9846372Y-10261984D01*
X9846372Y-10261984D02*
X9827325Y-10290555D01*
X9827325Y-10290555D02*
X9808277Y-10309603D01*
X9808277Y-10309603D02*
X9789230Y-10319127D01*
X10017801Y-10347698D02*
X9998753Y-10338174D01*
X9998753Y-10338174D02*
X9989230Y-10328650D01*
X9989230Y-10328650D02*
X9979706Y-10309603D01*
X9979706Y-10309603D02*
X9979706Y-10300079D01*
X9979706Y-10300079D02*
X9989230Y-10281031D01*
X9989230Y-10281031D02*
X9998753Y-10271508D01*
X9998753Y-10271508D02*
X10017801Y-10261984D01*
X10017801Y-10261984D02*
X10055896Y-10261984D01*
X10055896Y-10261984D02*
X10074944Y-10271508D01*
X10074944Y-10271508D02*
X10084468Y-10281031D01*
X10084468Y-10281031D02*
X10093991Y-10300079D01*
X10093991Y-10300079D02*
X10093991Y-10309603D01*
X10093991Y-10309603D02*
X10084468Y-10328650D01*
X10084468Y-10328650D02*
X10074944Y-10338174D01*
X10074944Y-10338174D02*
X10055896Y-10347698D01*
X10055896Y-10347698D02*
X10017801Y-10347698D01*
X10017801Y-10347698D02*
X9998753Y-10357222D01*
X9998753Y-10357222D02*
X9989230Y-10366746D01*
X9989230Y-10366746D02*
X9979706Y-10385793D01*
X9979706Y-10385793D02*
X9979706Y-10423889D01*
X9979706Y-10423889D02*
X9989230Y-10442936D01*
X9989230Y-10442936D02*
X9998753Y-10452460D01*
X9998753Y-10452460D02*
X10017801Y-10461984D01*
X10017801Y-10461984D02*
X10055896Y-10461984D01*
X10055896Y-10461984D02*
X10074944Y-10452460D01*
X10074944Y-10452460D02*
X10084468Y-10442936D01*
X10084468Y-10442936D02*
X10093991Y-10423889D01*
X10093991Y-10423889D02*
X10093991Y-10385793D01*
X10093991Y-10385793D02*
X10084468Y-10366746D01*
X10084468Y-10366746D02*
X10074944Y-10357222D01*
X10074944Y-10357222D02*
X10055896Y-10347698D01*
X10332087Y-10461984D02*
X10332087Y-10261984D01*
X10417801Y-10461984D02*
X10417801Y-10357222D01*
X10417801Y-10357222D02*
X10408277Y-10338174D01*
X10408277Y-10338174D02*
X10389230Y-10328650D01*
X10389230Y-10328650D02*
X10360658Y-10328650D01*
X10360658Y-10328650D02*
X10341611Y-10338174D01*
X10341611Y-10338174D02*
X10332087Y-10347698D01*
X10541611Y-10461984D02*
X10522563Y-10452460D01*
X10522563Y-10452460D02*
X10513039Y-10442936D01*
X10513039Y-10442936D02*
X10503515Y-10423889D01*
X10503515Y-10423889D02*
X10503515Y-10366746D01*
X10503515Y-10366746D02*
X10513039Y-10347698D01*
X10513039Y-10347698D02*
X10522563Y-10338174D01*
X10522563Y-10338174D02*
X10541611Y-10328650D01*
X10541611Y-10328650D02*
X10570182Y-10328650D01*
X10570182Y-10328650D02*
X10589230Y-10338174D01*
X10589230Y-10338174D02*
X10598753Y-10347698D01*
X10598753Y-10347698D02*
X10608277Y-10366746D01*
X10608277Y-10366746D02*
X10608277Y-10423889D01*
X10608277Y-10423889D02*
X10598753Y-10442936D01*
X10598753Y-10442936D02*
X10589230Y-10452460D01*
X10589230Y-10452460D02*
X10570182Y-10461984D01*
X10570182Y-10461984D02*
X10541611Y-10461984D01*
X10722563Y-10461984D02*
X10703515Y-10452460D01*
X10703515Y-10452460D02*
X10693992Y-10433412D01*
X10693992Y-10433412D02*
X10693992Y-10261984D01*
X10874944Y-10452460D02*
X10855896Y-10461984D01*
X10855896Y-10461984D02*
X10817801Y-10461984D01*
X10817801Y-10461984D02*
X10798753Y-10452460D01*
X10798753Y-10452460D02*
X10789230Y-10433412D01*
X10789230Y-10433412D02*
X10789230Y-10357222D01*
X10789230Y-10357222D02*
X10798753Y-10338174D01*
X10798753Y-10338174D02*
X10817801Y-10328650D01*
X10817801Y-10328650D02*
X10855896Y-10328650D01*
X10855896Y-10328650D02*
X10874944Y-10338174D01*
X10874944Y-10338174D02*
X10884468Y-10357222D01*
X10884468Y-10357222D02*
X10884468Y-10376270D01*
X10884468Y-10376270D02*
X10789230Y-10395317D01*
X10960658Y-10452460D02*
X10979706Y-10461984D01*
X10979706Y-10461984D02*
X11017801Y-10461984D01*
X11017801Y-10461984D02*
X11036849Y-10452460D01*
X11036849Y-10452460D02*
X11046373Y-10433412D01*
X11046373Y-10433412D02*
X11046373Y-10423889D01*
X11046373Y-10423889D02*
X11036849Y-10404841D01*
X11036849Y-10404841D02*
X11017801Y-10395317D01*
X11017801Y-10395317D02*
X10989230Y-10395317D01*
X10989230Y-10395317D02*
X10970182Y-10385793D01*
X10970182Y-10385793D02*
X10960658Y-10366746D01*
X10960658Y-10366746D02*
X10960658Y-10357222D01*
X10960658Y-10357222D02*
X10970182Y-10338174D01*
X10970182Y-10338174D02*
X10989230Y-10328650D01*
X10989230Y-10328650D02*
X11017801Y-10328650D01*
X11017801Y-10328650D02*
X11036849Y-10338174D01*
X11113039Y-10538174D02*
X11122563Y-10528650D01*
X11122563Y-10528650D02*
X11141611Y-10500079D01*
X11141611Y-10500079D02*
X11151134Y-10481031D01*
X11151134Y-10481031D02*
X11160658Y-10452460D01*
X11160658Y-10452460D02*
X11170182Y-10404841D01*
X11170182Y-10404841D02*
X11170182Y-10366746D01*
X11170182Y-10366746D02*
X11160658Y-10319127D01*
X11160658Y-10319127D02*
X11151134Y-10290555D01*
X11151134Y-10290555D02*
X11141611Y-10271508D01*
X11141611Y-10271508D02*
X11122563Y-10242936D01*
X11122563Y-10242936D02*
X11113039Y-10233412D01*
D14*
X6125533Y-10687534D02*
X6125533Y-10581467D01*
X6019466Y-10581467D01*
X6019466Y-10687534D01*
X6125533Y-10687534D01*
D12*
X6513039Y-10725984D02*
X6398753Y-10725984D01*
X6455896Y-10725984D02*
X6455896Y-10525984D01*
X6455896Y-10525984D02*
X6436848Y-10554555D01*
X6436848Y-10554555D02*
X6417801Y-10573603D01*
X6417801Y-10573603D02*
X6398753Y-10583127D01*
X6598753Y-10706936D02*
X6608277Y-10716460D01*
X6608277Y-10716460D02*
X6598753Y-10725984D01*
X6598753Y-10725984D02*
X6589229Y-10716460D01*
X6589229Y-10716460D02*
X6598753Y-10706936D01*
X6598753Y-10706936D02*
X6598753Y-10725984D01*
X6789229Y-10525984D02*
X6693991Y-10525984D01*
X6693991Y-10525984D02*
X6684467Y-10621222D01*
X6684467Y-10621222D02*
X6693991Y-10611698D01*
X6693991Y-10611698D02*
X6713039Y-10602174D01*
X6713039Y-10602174D02*
X6760658Y-10602174D01*
X6760658Y-10602174D02*
X6779705Y-10611698D01*
X6779705Y-10611698D02*
X6789229Y-10621222D01*
X6789229Y-10621222D02*
X6798753Y-10640270D01*
X6798753Y-10640270D02*
X6798753Y-10687889D01*
X6798753Y-10687889D02*
X6789229Y-10706936D01*
X6789229Y-10706936D02*
X6779705Y-10716460D01*
X6779705Y-10716460D02*
X6760658Y-10725984D01*
X6760658Y-10725984D02*
X6713039Y-10725984D01*
X6713039Y-10725984D02*
X6693991Y-10716460D01*
X6693991Y-10716460D02*
X6684467Y-10706936D01*
X6922562Y-10525984D02*
X6941610Y-10525984D01*
X6941610Y-10525984D02*
X6960658Y-10535508D01*
X6960658Y-10535508D02*
X6970182Y-10545031D01*
X6970182Y-10545031D02*
X6979705Y-10564079D01*
X6979705Y-10564079D02*
X6989229Y-10602174D01*
X6989229Y-10602174D02*
X6989229Y-10649793D01*
X6989229Y-10649793D02*
X6979705Y-10687889D01*
X6979705Y-10687889D02*
X6970182Y-10706936D01*
X6970182Y-10706936D02*
X6960658Y-10716460D01*
X6960658Y-10716460D02*
X6941610Y-10725984D01*
X6941610Y-10725984D02*
X6922562Y-10725984D01*
X6922562Y-10725984D02*
X6903515Y-10716460D01*
X6903515Y-10716460D02*
X6893991Y-10706936D01*
X6893991Y-10706936D02*
X6884467Y-10687889D01*
X6884467Y-10687889D02*
X6874943Y-10649793D01*
X6874943Y-10649793D02*
X6874943Y-10602174D01*
X6874943Y-10602174D02*
X6884467Y-10564079D01*
X6884467Y-10564079D02*
X6893991Y-10545031D01*
X6893991Y-10545031D02*
X6903515Y-10535508D01*
X6903515Y-10535508D02*
X6922562Y-10525984D01*
X7113039Y-10525984D02*
X7132086Y-10525984D01*
X7132086Y-10525984D02*
X7151134Y-10535508D01*
X7151134Y-10535508D02*
X7160658Y-10545031D01*
X7160658Y-10545031D02*
X7170182Y-10564079D01*
X7170182Y-10564079D02*
X7179705Y-10602174D01*
X7179705Y-10602174D02*
X7179705Y-10649793D01*
X7179705Y-10649793D02*
X7170182Y-10687889D01*
X7170182Y-10687889D02*
X7160658Y-10706936D01*
X7160658Y-10706936D02*
X7151134Y-10716460D01*
X7151134Y-10716460D02*
X7132086Y-10725984D01*
X7132086Y-10725984D02*
X7113039Y-10725984D01*
X7113039Y-10725984D02*
X7093991Y-10716460D01*
X7093991Y-10716460D02*
X7084467Y-10706936D01*
X7084467Y-10706936D02*
X7074943Y-10687889D01*
X7074943Y-10687889D02*
X7065420Y-10649793D01*
X7065420Y-10649793D02*
X7065420Y-10602174D01*
X7065420Y-10602174D02*
X7074943Y-10564079D01*
X7074943Y-10564079D02*
X7084467Y-10545031D01*
X7084467Y-10545031D02*
X7093991Y-10535508D01*
X7093991Y-10535508D02*
X7113039Y-10525984D01*
X7265420Y-10725984D02*
X7265420Y-10592650D01*
X7265420Y-10611698D02*
X7274943Y-10602174D01*
X7274943Y-10602174D02*
X7293991Y-10592650D01*
X7293991Y-10592650D02*
X7322563Y-10592650D01*
X7322563Y-10592650D02*
X7341610Y-10602174D01*
X7341610Y-10602174D02*
X7351134Y-10621222D01*
X7351134Y-10621222D02*
X7351134Y-10725984D01*
X7351134Y-10621222D02*
X7360658Y-10602174D01*
X7360658Y-10602174D02*
X7379705Y-10592650D01*
X7379705Y-10592650D02*
X7408277Y-10592650D01*
X7408277Y-10592650D02*
X7427324Y-10602174D01*
X7427324Y-10602174D02*
X7436848Y-10621222D01*
X7436848Y-10621222D02*
X7436848Y-10725984D01*
X7532086Y-10725984D02*
X7532086Y-10592650D01*
X7532086Y-10611698D02*
X7541610Y-10602174D01*
X7541610Y-10602174D02*
X7560658Y-10592650D01*
X7560658Y-10592650D02*
X7589229Y-10592650D01*
X7589229Y-10592650D02*
X7608277Y-10602174D01*
X7608277Y-10602174D02*
X7617801Y-10621222D01*
X7617801Y-10621222D02*
X7617801Y-10725984D01*
X7617801Y-10621222D02*
X7627324Y-10602174D01*
X7627324Y-10602174D02*
X7646372Y-10592650D01*
X7646372Y-10592650D02*
X7674943Y-10592650D01*
X7674943Y-10592650D02*
X7693991Y-10602174D01*
X7693991Y-10602174D02*
X7703515Y-10621222D01*
X7703515Y-10621222D02*
X7703515Y-10725984D01*
X8093991Y-10516460D02*
X7922563Y-10773603D01*
X8351134Y-10525984D02*
X8370182Y-10525984D01*
X8370182Y-10525984D02*
X8389229Y-10535508D01*
X8389229Y-10535508D02*
X8398753Y-10545031D01*
X8398753Y-10545031D02*
X8408277Y-10564079D01*
X8408277Y-10564079D02*
X8417801Y-10602174D01*
X8417801Y-10602174D02*
X8417801Y-10649793D01*
X8417801Y-10649793D02*
X8408277Y-10687889D01*
X8408277Y-10687889D02*
X8398753Y-10706936D01*
X8398753Y-10706936D02*
X8389229Y-10716460D01*
X8389229Y-10716460D02*
X8370182Y-10725984D01*
X8370182Y-10725984D02*
X8351134Y-10725984D01*
X8351134Y-10725984D02*
X8332086Y-10716460D01*
X8332086Y-10716460D02*
X8322563Y-10706936D01*
X8322563Y-10706936D02*
X8313039Y-10687889D01*
X8313039Y-10687889D02*
X8303515Y-10649793D01*
X8303515Y-10649793D02*
X8303515Y-10602174D01*
X8303515Y-10602174D02*
X8313039Y-10564079D01*
X8313039Y-10564079D02*
X8322563Y-10545031D01*
X8322563Y-10545031D02*
X8332086Y-10535508D01*
X8332086Y-10535508D02*
X8351134Y-10525984D01*
X8503515Y-10706936D02*
X8513039Y-10716460D01*
X8513039Y-10716460D02*
X8503515Y-10725984D01*
X8503515Y-10725984D02*
X8493991Y-10716460D01*
X8493991Y-10716460D02*
X8503515Y-10706936D01*
X8503515Y-10706936D02*
X8503515Y-10725984D01*
X8636848Y-10525984D02*
X8655896Y-10525984D01*
X8655896Y-10525984D02*
X8674944Y-10535508D01*
X8674944Y-10535508D02*
X8684468Y-10545031D01*
X8684468Y-10545031D02*
X8693991Y-10564079D01*
X8693991Y-10564079D02*
X8703515Y-10602174D01*
X8703515Y-10602174D02*
X8703515Y-10649793D01*
X8703515Y-10649793D02*
X8693991Y-10687889D01*
X8693991Y-10687889D02*
X8684468Y-10706936D01*
X8684468Y-10706936D02*
X8674944Y-10716460D01*
X8674944Y-10716460D02*
X8655896Y-10725984D01*
X8655896Y-10725984D02*
X8636848Y-10725984D01*
X8636848Y-10725984D02*
X8617801Y-10716460D01*
X8617801Y-10716460D02*
X8608277Y-10706936D01*
X8608277Y-10706936D02*
X8598753Y-10687889D01*
X8598753Y-10687889D02*
X8589229Y-10649793D01*
X8589229Y-10649793D02*
X8589229Y-10602174D01*
X8589229Y-10602174D02*
X8598753Y-10564079D01*
X8598753Y-10564079D02*
X8608277Y-10545031D01*
X8608277Y-10545031D02*
X8617801Y-10535508D01*
X8617801Y-10535508D02*
X8636848Y-10525984D01*
X8884468Y-10525984D02*
X8789229Y-10525984D01*
X8789229Y-10525984D02*
X8779706Y-10621222D01*
X8779706Y-10621222D02*
X8789229Y-10611698D01*
X8789229Y-10611698D02*
X8808277Y-10602174D01*
X8808277Y-10602174D02*
X8855896Y-10602174D01*
X8855896Y-10602174D02*
X8874944Y-10611698D01*
X8874944Y-10611698D02*
X8884468Y-10621222D01*
X8884468Y-10621222D02*
X8893991Y-10640270D01*
X8893991Y-10640270D02*
X8893991Y-10687889D01*
X8893991Y-10687889D02*
X8884468Y-10706936D01*
X8884468Y-10706936D02*
X8874944Y-10716460D01*
X8874944Y-10716460D02*
X8855896Y-10725984D01*
X8855896Y-10725984D02*
X8808277Y-10725984D01*
X8808277Y-10725984D02*
X8789229Y-10716460D01*
X8789229Y-10716460D02*
X8779706Y-10706936D01*
X8989229Y-10725984D02*
X9027325Y-10725984D01*
X9027325Y-10725984D02*
X9046372Y-10716460D01*
X9046372Y-10716460D02*
X9055896Y-10706936D01*
X9055896Y-10706936D02*
X9074944Y-10678365D01*
X9074944Y-10678365D02*
X9084468Y-10640270D01*
X9084468Y-10640270D02*
X9084468Y-10564079D01*
X9084468Y-10564079D02*
X9074944Y-10545031D01*
X9074944Y-10545031D02*
X9065420Y-10535508D01*
X9065420Y-10535508D02*
X9046372Y-10525984D01*
X9046372Y-10525984D02*
X9008277Y-10525984D01*
X9008277Y-10525984D02*
X8989229Y-10535508D01*
X8989229Y-10535508D02*
X8979706Y-10545031D01*
X8979706Y-10545031D02*
X8970182Y-10564079D01*
X8970182Y-10564079D02*
X8970182Y-10611698D01*
X8970182Y-10611698D02*
X8979706Y-10630746D01*
X8979706Y-10630746D02*
X8989229Y-10640270D01*
X8989229Y-10640270D02*
X9008277Y-10649793D01*
X9008277Y-10649793D02*
X9046372Y-10649793D01*
X9046372Y-10649793D02*
X9065420Y-10640270D01*
X9065420Y-10640270D02*
X9074944Y-10630746D01*
X9074944Y-10630746D02*
X9084468Y-10611698D01*
X9274944Y-10725984D02*
X9160658Y-10725984D01*
X9217801Y-10725984D02*
X9217801Y-10525984D01*
X9217801Y-10525984D02*
X9198753Y-10554555D01*
X9198753Y-10554555D02*
X9179706Y-10573603D01*
X9179706Y-10573603D02*
X9160658Y-10583127D01*
X9351134Y-10525984D02*
X9351134Y-10564079D01*
X9427325Y-10525984D02*
X9427325Y-10564079D01*
X9722563Y-10802174D02*
X9713039Y-10792650D01*
X9713039Y-10792650D02*
X9693991Y-10764079D01*
X9693991Y-10764079D02*
X9684468Y-10745031D01*
X9684468Y-10745031D02*
X9674944Y-10716460D01*
X9674944Y-10716460D02*
X9665420Y-10668841D01*
X9665420Y-10668841D02*
X9665420Y-10630746D01*
X9665420Y-10630746D02*
X9674944Y-10583127D01*
X9674944Y-10583127D02*
X9684468Y-10554555D01*
X9684468Y-10554555D02*
X9693991Y-10535508D01*
X9693991Y-10535508D02*
X9713039Y-10506936D01*
X9713039Y-10506936D02*
X9722563Y-10497412D01*
X9903515Y-10725984D02*
X9789230Y-10725984D01*
X9846372Y-10725984D02*
X9846372Y-10525984D01*
X9846372Y-10525984D02*
X9827325Y-10554555D01*
X9827325Y-10554555D02*
X9808277Y-10573603D01*
X9808277Y-10573603D02*
X9789230Y-10583127D01*
X10074944Y-10525984D02*
X10036849Y-10525984D01*
X10036849Y-10525984D02*
X10017801Y-10535508D01*
X10017801Y-10535508D02*
X10008277Y-10545031D01*
X10008277Y-10545031D02*
X9989230Y-10573603D01*
X9989230Y-10573603D02*
X9979706Y-10611698D01*
X9979706Y-10611698D02*
X9979706Y-10687889D01*
X9979706Y-10687889D02*
X9989230Y-10706936D01*
X9989230Y-10706936D02*
X9998753Y-10716460D01*
X9998753Y-10716460D02*
X10017801Y-10725984D01*
X10017801Y-10725984D02*
X10055896Y-10725984D01*
X10055896Y-10725984D02*
X10074944Y-10716460D01*
X10074944Y-10716460D02*
X10084468Y-10706936D01*
X10084468Y-10706936D02*
X10093991Y-10687889D01*
X10093991Y-10687889D02*
X10093991Y-10640270D01*
X10093991Y-10640270D02*
X10084468Y-10621222D01*
X10084468Y-10621222D02*
X10074944Y-10611698D01*
X10074944Y-10611698D02*
X10055896Y-10602174D01*
X10055896Y-10602174D02*
X10017801Y-10602174D01*
X10017801Y-10602174D02*
X9998753Y-10611698D01*
X9998753Y-10611698D02*
X9989230Y-10621222D01*
X9989230Y-10621222D02*
X9979706Y-10640270D01*
X10332087Y-10725984D02*
X10332087Y-10525984D01*
X10417801Y-10725984D02*
X10417801Y-10621222D01*
X10417801Y-10621222D02*
X10408277Y-10602174D01*
X10408277Y-10602174D02*
X10389230Y-10592650D01*
X10389230Y-10592650D02*
X10360658Y-10592650D01*
X10360658Y-10592650D02*
X10341611Y-10602174D01*
X10341611Y-10602174D02*
X10332087Y-10611698D01*
X10541611Y-10725984D02*
X10522563Y-10716460D01*
X10522563Y-10716460D02*
X10513039Y-10706936D01*
X10513039Y-10706936D02*
X10503515Y-10687889D01*
X10503515Y-10687889D02*
X10503515Y-10630746D01*
X10503515Y-10630746D02*
X10513039Y-10611698D01*
X10513039Y-10611698D02*
X10522563Y-10602174D01*
X10522563Y-10602174D02*
X10541611Y-10592650D01*
X10541611Y-10592650D02*
X10570182Y-10592650D01*
X10570182Y-10592650D02*
X10589230Y-10602174D01*
X10589230Y-10602174D02*
X10598753Y-10611698D01*
X10598753Y-10611698D02*
X10608277Y-10630746D01*
X10608277Y-10630746D02*
X10608277Y-10687889D01*
X10608277Y-10687889D02*
X10598753Y-10706936D01*
X10598753Y-10706936D02*
X10589230Y-10716460D01*
X10589230Y-10716460D02*
X10570182Y-10725984D01*
X10570182Y-10725984D02*
X10541611Y-10725984D01*
X10722563Y-10725984D02*
X10703515Y-10716460D01*
X10703515Y-10716460D02*
X10693992Y-10697412D01*
X10693992Y-10697412D02*
X10693992Y-10525984D01*
X10874944Y-10716460D02*
X10855896Y-10725984D01*
X10855896Y-10725984D02*
X10817801Y-10725984D01*
X10817801Y-10725984D02*
X10798753Y-10716460D01*
X10798753Y-10716460D02*
X10789230Y-10697412D01*
X10789230Y-10697412D02*
X10789230Y-10621222D01*
X10789230Y-10621222D02*
X10798753Y-10602174D01*
X10798753Y-10602174D02*
X10817801Y-10592650D01*
X10817801Y-10592650D02*
X10855896Y-10592650D01*
X10855896Y-10592650D02*
X10874944Y-10602174D01*
X10874944Y-10602174D02*
X10884468Y-10621222D01*
X10884468Y-10621222D02*
X10884468Y-10640270D01*
X10884468Y-10640270D02*
X10789230Y-10659317D01*
X10960658Y-10716460D02*
X10979706Y-10725984D01*
X10979706Y-10725984D02*
X11017801Y-10725984D01*
X11017801Y-10725984D02*
X11036849Y-10716460D01*
X11036849Y-10716460D02*
X11046373Y-10697412D01*
X11046373Y-10697412D02*
X11046373Y-10687889D01*
X11046373Y-10687889D02*
X11036849Y-10668841D01*
X11036849Y-10668841D02*
X11017801Y-10659317D01*
X11017801Y-10659317D02*
X10989230Y-10659317D01*
X10989230Y-10659317D02*
X10970182Y-10649793D01*
X10970182Y-10649793D02*
X10960658Y-10630746D01*
X10960658Y-10630746D02*
X10960658Y-10621222D01*
X10960658Y-10621222D02*
X10970182Y-10602174D01*
X10970182Y-10602174D02*
X10989230Y-10592650D01*
X10989230Y-10592650D02*
X11017801Y-10592650D01*
X11017801Y-10592650D02*
X11036849Y-10602174D01*
X11113039Y-10802174D02*
X11122563Y-10792650D01*
X11122563Y-10792650D02*
X11141611Y-10764079D01*
X11141611Y-10764079D02*
X11151134Y-10745031D01*
X11151134Y-10745031D02*
X11160658Y-10716460D01*
X11160658Y-10716460D02*
X11170182Y-10668841D01*
X11170182Y-10668841D02*
X11170182Y-10630746D01*
X11170182Y-10630746D02*
X11160658Y-10583127D01*
X11160658Y-10583127D02*
X11151134Y-10554555D01*
X11151134Y-10554555D02*
X11141611Y-10535508D01*
X11141611Y-10535508D02*
X11122563Y-10506936D01*
X11122563Y-10506936D02*
X11113039Y-10497412D01*
M02*
