G04 #@! TF.GenerationSoftware,KiCad,Pcbnew,9.0.7*
G04 #@! TF.CreationDate,2026-02-20T22:20:20+11:00*
G04 #@! TF.ProjectId,oled-v2,6f6c6564-2d76-4322-9e6b-696361645f70,rev?*
G04 #@! TF.SameCoordinates,Original*
G04 #@! TF.FileFunction,Copper,L2,Bot*
G04 #@! TF.FilePolarity,Positive*
%FSLAX46Y46*%
G04 Gerber Fmt 4.6, Leading zero omitted, Abs format (unit mm)*
G04 Created by KiCad (PCBNEW 9.0.7) date 2026-02-20 22:20:20*
%MOMM*%
%LPD*%
G01*
G04 APERTURE LIST*
G04 #@! TA.AperFunction,ComponentPad*
%ADD10R,1.600000X1.600000*%
G04 #@! TD*
G04 #@! TA.AperFunction,ComponentPad*
%ADD11O,1.600000X1.600000*%
G04 #@! TD*
G04 #@! TA.AperFunction,ComponentPad*
%ADD12C,2.200000*%
G04 #@! TD*
G04 #@! TA.AperFunction,ComponentPad*
%ADD13R,1.700000X1.700000*%
G04 #@! TD*
G04 #@! TA.AperFunction,ComponentPad*
%ADD14O,1.700000X1.700000*%
G04 #@! TD*
G04 #@! TA.AperFunction,ComponentPad*
%ADD15R,3.500000X1.700000*%
G04 #@! TD*
G04 #@! TA.AperFunction,ComponentPad*
%ADD16O,3.600000X1.700000*%
G04 #@! TD*
G04 #@! TA.AperFunction,ComponentPad*
%ADD17O,3.700000X1.700000*%
G04 #@! TD*
G04 #@! TA.AperFunction,ViaPad*
%ADD18C,0.600000*%
G04 #@! TD*
G04 #@! TA.AperFunction,Conductor*
%ADD19C,0.200000*%
G04 #@! TD*
G04 APERTURE END LIST*
D10*
X125810000Y-90000000D03*
D11*
X118190000Y-90000000D03*
D12*
X105540000Y-57920000D03*
X99190000Y-60460000D03*
D10*
X106810000Y-90000000D03*
D11*
X99190000Y-90000000D03*
D10*
X144810000Y-71000000D03*
D11*
X137190000Y-71000000D03*
D12*
X86540000Y-57920000D03*
X80190000Y-60460000D03*
D10*
X87810000Y-71000000D03*
D11*
X80190000Y-71000000D03*
D13*
X72040000Y-89500000D03*
D14*
X69500000Y-89500000D03*
X66960000Y-89500000D03*
X64420000Y-89500000D03*
D12*
X143540000Y-57920000D03*
X137190000Y-60460000D03*
X124540000Y-76920000D03*
X118190000Y-79460000D03*
X86540000Y-76920000D03*
X80190000Y-79460000D03*
D10*
X125810000Y-71000000D03*
D11*
X118190000Y-71000000D03*
D10*
X87810000Y-90000000D03*
D11*
X80190000Y-90000000D03*
D10*
X144810000Y-90000000D03*
D11*
X137190000Y-90000000D03*
D12*
X143540000Y-76920000D03*
X137190000Y-79460000D03*
X124540000Y-57920000D03*
X118190000Y-60460000D03*
D10*
X106810000Y-71000000D03*
D11*
X99190000Y-71000000D03*
D12*
X105540000Y-76920000D03*
X99190000Y-79460000D03*
D15*
X131014500Y-56092015D03*
D16*
X131014500Y-58632015D03*
X131014500Y-61172015D03*
X131014500Y-63712015D03*
X131014500Y-66252015D03*
X131014500Y-68792015D03*
X131014500Y-71332015D03*
X113764500Y-71332015D03*
X113764500Y-68792015D03*
X113764500Y-66252015D03*
D17*
X113764500Y-63712015D03*
X113764500Y-61172015D03*
X113764500Y-58632015D03*
X113764500Y-56092015D03*
D18*
X90000000Y-57000000D03*
X104530000Y-60960000D03*
X134500000Y-62500000D03*
X134500000Y-67000000D03*
X110500000Y-73500000D03*
X73000000Y-81500000D03*
X90000000Y-74000000D03*
X145000000Y-73500000D03*
X110000000Y-58000000D03*
X110500000Y-69000000D03*
X93000000Y-58000000D03*
X148500000Y-73500000D03*
X93000000Y-70500000D03*
X109000000Y-55000000D03*
X96000000Y-58000000D03*
X121500000Y-58000000D03*
X103000000Y-57100000D03*
X79500000Y-76500000D03*
X104500000Y-60000000D03*
X123500000Y-60000000D03*
X83000000Y-58500000D03*
X85000000Y-60000000D03*
X107400000Y-59000000D03*
X111500000Y-57500000D03*
X79500000Y-55500000D03*
X95000000Y-60000000D03*
X119500000Y-66500000D03*
X119000000Y-64000000D03*
X127000000Y-68500000D03*
X118500000Y-68000000D03*
X127500000Y-55000000D03*
X130500000Y-54000000D03*
X118500000Y-67199997D03*
X109500000Y-67000000D03*
X138500000Y-68500000D03*
X142940000Y-68000000D03*
X149500000Y-67500000D03*
X144331735Y-69168265D03*
X78500000Y-86500000D03*
X97500000Y-67000000D03*
X93000000Y-80000000D03*
X70000000Y-86500000D03*
D19*
X100570000Y-57000000D02*
X90000000Y-57000000D01*
X104530000Y-60960000D02*
X100570000Y-57000000D01*
X134500000Y-67000000D02*
X134500000Y-62500000D01*
X85959686Y-78321000D02*
X87120314Y-78321000D01*
X148500000Y-73500000D02*
X145000000Y-73500000D01*
X85638686Y-78000000D02*
X85959686Y-78321000D01*
X93000000Y-70500000D02*
X93000000Y-58000000D01*
X110500000Y-69000000D02*
X110500000Y-73500000D01*
X110000000Y-56000000D02*
X109000000Y-55000000D01*
X110000000Y-58000000D02*
X110000000Y-56000000D01*
X87120314Y-78321000D02*
X90000000Y-75441314D01*
X73000000Y-81500000D02*
X76500000Y-78000000D01*
X76500000Y-78000000D02*
X85638686Y-78000000D01*
X90000000Y-75441314D02*
X90000000Y-74000000D01*
X107400000Y-59000000D02*
X110000000Y-59000000D01*
X77719000Y-57281000D02*
X79500000Y-55500000D01*
X79500000Y-76500000D02*
X77719000Y-74719000D01*
X95000000Y-59000000D02*
X96000000Y-58000000D01*
X83000000Y-58500000D02*
X84500000Y-60000000D01*
X77719000Y-74719000D02*
X77719000Y-57281000D01*
X121500000Y-58000000D02*
X123500000Y-60000000D01*
X103000000Y-58500000D02*
X104500000Y-60000000D01*
X110000000Y-59000000D02*
X111500000Y-57500000D01*
X95000000Y-60000000D02*
X95000000Y-59000000D01*
X103000000Y-57100000D02*
X103000000Y-58500000D01*
X84500000Y-60000000D02*
X85000000Y-60000000D01*
X80190000Y-71000000D02*
X80190000Y-60460000D01*
X99190000Y-71000000D02*
X99190000Y-60460000D01*
X118190000Y-63190000D02*
X118190000Y-60460000D01*
X119000000Y-64000000D02*
X118190000Y-63190000D01*
X120000000Y-67000000D02*
X119500000Y-66500000D01*
X118190000Y-71000000D02*
X120000000Y-69190000D01*
X120000000Y-69190000D02*
X120000000Y-67000000D01*
X137190000Y-71000000D02*
X137190000Y-60460000D01*
X80190000Y-79460000D02*
X80190000Y-90000000D01*
X99190000Y-79460000D02*
X99190000Y-90000000D01*
X118190000Y-79460000D02*
X118190000Y-90000000D01*
X137190000Y-79460000D02*
X137190000Y-90000000D01*
X91361000Y-53099000D02*
X132099000Y-53099000D01*
X133367985Y-58632015D02*
X130014500Y-58632015D01*
X134000000Y-55000000D02*
X134000000Y-58000000D01*
X86540000Y-57920000D02*
X91361000Y-53099000D01*
X134000000Y-58000000D02*
X133367985Y-58632015D01*
X86540000Y-57920000D02*
X86540000Y-76920000D01*
X132099000Y-53099000D02*
X134000000Y-55000000D01*
X105540000Y-57920000D02*
X105540000Y-76920000D01*
X105540000Y-58115275D02*
X113676740Y-66252015D01*
X105540000Y-57920000D02*
X105540000Y-58115275D01*
X113676740Y-66252015D02*
X114764500Y-66252015D01*
X124540000Y-63784816D02*
X122824816Y-65500000D01*
X124540000Y-57920000D02*
X124540000Y-76920000D01*
X124540000Y-57920000D02*
X124540000Y-63784816D01*
X122824816Y-65500000D02*
X116552485Y-65500000D01*
X116552485Y-65500000D02*
X114764500Y-63712015D01*
X134024725Y-76920000D02*
X127000000Y-69895275D01*
X118500000Y-68000000D02*
X117707985Y-68792015D01*
X117707985Y-68792015D02*
X114764500Y-68792015D01*
X143540000Y-57920000D02*
X143540000Y-76920000D01*
X127000000Y-69895275D02*
X127000000Y-68500000D01*
X143540000Y-76920000D02*
X134024725Y-76920000D01*
X127500000Y-55000000D02*
X128500000Y-54000000D01*
X128500000Y-54000000D02*
X130500000Y-54000000D01*
X109500000Y-67000000D02*
X109903015Y-67403015D01*
X109903015Y-67403015D02*
X118296982Y-67403015D01*
X118296982Y-67403015D02*
X118500000Y-67199997D01*
X147000000Y-66500000D02*
X144331735Y-69168265D01*
X139000000Y-68000000D02*
X138500000Y-68500000D01*
X142940000Y-68000000D02*
X139000000Y-68000000D01*
X148500000Y-66500000D02*
X147000000Y-66500000D01*
X149500000Y-67500000D02*
X148500000Y-66500000D01*
X93000000Y-80000000D02*
X97500000Y-75500000D01*
X70000000Y-86500000D02*
X78500000Y-86500000D01*
X97500000Y-75500000D02*
X97500000Y-67000000D01*
G04 #@! TA.AperFunction,NonConductor*
G36*
X131865942Y-53719185D02*
G01*
X131886584Y-53735819D01*
X132680599Y-54529834D01*
X132714084Y-54591157D01*
X132709100Y-54660849D01*
X132667228Y-54716782D01*
X132601764Y-54741199D01*
X132592918Y-54741515D01*
X131189926Y-54741515D01*
X131122887Y-54721830D01*
X131077132Y-54669026D01*
X131067188Y-54599868D01*
X131096213Y-54536312D01*
X131102245Y-54529834D01*
X131121786Y-54510292D01*
X131121789Y-54510289D01*
X131209394Y-54379179D01*
X131269737Y-54233497D01*
X131300500Y-54078842D01*
X131300500Y-53921158D01*
X131300500Y-53921155D01*
X131300499Y-53921153D01*
X131285887Y-53847691D01*
X131292114Y-53778100D01*
X131334977Y-53722923D01*
X131400867Y-53699678D01*
X131407504Y-53699500D01*
X131798903Y-53699500D01*
X131865942Y-53719185D01*
G37*
G04 #@! TD.AperFunction*
G04 #@! TA.AperFunction,NonConductor*
G36*
X102159336Y-56820185D02*
G01*
X102205091Y-56872989D01*
X102215035Y-56942147D01*
X102213914Y-56948691D01*
X102199500Y-57021153D01*
X102199500Y-57178846D01*
X102230261Y-57333489D01*
X102230264Y-57333501D01*
X102290602Y-57479172D01*
X102290609Y-57479185D01*
X102378602Y-57610874D01*
X102384252Y-57628920D01*
X102394477Y-57644830D01*
X102398928Y-57675789D01*
X102399480Y-57677551D01*
X102399500Y-57679765D01*
X102399500Y-57680902D01*
X102379815Y-57747941D01*
X102327011Y-57793696D01*
X102257853Y-57803640D01*
X102194297Y-57774615D01*
X102187819Y-57768583D01*
X101822474Y-57403239D01*
X101431415Y-57012180D01*
X101397931Y-56950858D01*
X101402915Y-56881167D01*
X101444787Y-56825233D01*
X101510251Y-56800816D01*
X101519097Y-56800500D01*
X102092297Y-56800500D01*
X102159336Y-56820185D01*
G37*
G04 #@! TD.AperFunction*
G04 #@! TA.AperFunction,NonConductor*
G36*
X133363182Y-57213806D02*
G01*
X133396666Y-57275130D01*
X133399500Y-57301487D01*
X133399500Y-57699902D01*
X133379815Y-57766941D01*
X133363181Y-57787583D01*
X133267245Y-57883519D01*
X133205922Y-57917004D01*
X133136230Y-57912020D01*
X133080297Y-57870148D01*
X133079283Y-57868775D01*
X132994604Y-57752223D01*
X132867486Y-57625105D01*
X132834001Y-57563782D01*
X132838985Y-57494090D01*
X132880857Y-57438157D01*
X132911835Y-57421242D01*
X132912061Y-57421158D01*
X133006831Y-57385811D01*
X133122046Y-57299561D01*
X133176234Y-57227175D01*
X133232167Y-57185305D01*
X133301859Y-57180321D01*
X133363182Y-57213806D01*
G37*
G04 #@! TD.AperFunction*
G04 #@! TA.AperFunction,NonConductor*
G36*
X104143753Y-56804047D02*
G01*
X104156298Y-56802970D01*
X104176643Y-56813704D01*
X104198712Y-56820185D01*
X104206955Y-56829698D01*
X104218093Y-56835575D01*
X104229405Y-56855607D01*
X104244467Y-56872989D01*
X104246258Y-56885450D01*
X104252450Y-56896414D01*
X104251137Y-56919377D01*
X104254411Y-56942147D01*
X104249085Y-56955269D01*
X104248462Y-56966169D01*
X104231992Y-56997385D01*
X104171129Y-57081155D01*
X104056760Y-57305616D01*
X103978910Y-57545214D01*
X103965652Y-57628920D01*
X103939500Y-57794038D01*
X103939500Y-58045962D01*
X103951357Y-58120821D01*
X103978248Y-58290609D01*
X103978910Y-58294785D01*
X103978910Y-58294786D01*
X103978909Y-58294786D01*
X103980488Y-58299643D01*
X103982482Y-58369484D01*
X103946400Y-58429316D01*
X103883699Y-58460143D01*
X103814285Y-58452178D01*
X103774875Y-58425640D01*
X103636819Y-58287584D01*
X103603334Y-58226261D01*
X103600500Y-58199903D01*
X103600500Y-57679765D01*
X103620185Y-57612726D01*
X103621398Y-57610874D01*
X103675614Y-57529735D01*
X103709394Y-57479179D01*
X103710312Y-57476964D01*
X103750285Y-57380458D01*
X103769737Y-57333497D01*
X103800500Y-57178842D01*
X103800500Y-57021158D01*
X103800500Y-57021155D01*
X103800499Y-57021153D01*
X103786086Y-56948691D01*
X103792313Y-56879100D01*
X103835176Y-56823922D01*
X103901066Y-56800678D01*
X103907703Y-56800500D01*
X104131673Y-56800500D01*
X104143753Y-56804047D01*
G37*
G04 #@! TD.AperFunction*
G04 #@! TA.AperFunction,NonConductor*
G36*
X85898363Y-60351326D02*
G01*
X85935082Y-60410770D01*
X85939500Y-60443575D01*
X85939500Y-61465461D01*
X85919815Y-61532500D01*
X85867011Y-61578255D01*
X85797853Y-61588199D01*
X85734297Y-61559174D01*
X85717125Y-61540949D01*
X85695644Y-61512955D01*
X85487047Y-61304358D01*
X85487040Y-61304352D01*
X85252993Y-61124761D01*
X85075967Y-61022555D01*
X85027751Y-60971988D01*
X85014528Y-60903381D01*
X85040496Y-60838516D01*
X85097411Y-60797988D01*
X85113773Y-60793551D01*
X85233497Y-60769737D01*
X85379179Y-60709394D01*
X85510289Y-60621789D01*
X85621789Y-60510289D01*
X85709394Y-60379179D01*
X85712398Y-60374684D01*
X85766010Y-60329879D01*
X85835335Y-60321172D01*
X85898363Y-60351326D01*
G37*
G04 #@! TD.AperFunction*
G04 #@! TA.AperFunction,NonConductor*
G36*
X111333334Y-58618414D02*
G01*
X111389267Y-58660286D01*
X111413684Y-58725750D01*
X111414000Y-58734596D01*
X111414000Y-58738301D01*
X111442927Y-58920943D01*
X111447254Y-58948258D01*
X111509814Y-59140798D01*
X111512944Y-59150429D01*
X111609451Y-59339835D01*
X111734390Y-59511801D01*
X111884713Y-59662124D01*
X112056682Y-59787065D01*
X112065446Y-59791531D01*
X112116242Y-59839506D01*
X112133036Y-59907327D01*
X112110498Y-59973462D01*
X112065446Y-60012499D01*
X112056682Y-60016964D01*
X111884713Y-60141905D01*
X111734390Y-60292228D01*
X111609451Y-60464194D01*
X111512944Y-60653600D01*
X111447253Y-60855775D01*
X111428012Y-60977258D01*
X111414000Y-61065728D01*
X111414000Y-61278302D01*
X111447254Y-61488258D01*
X111509814Y-61680798D01*
X111512944Y-61690429D01*
X111609451Y-61879835D01*
X111734390Y-62051801D01*
X111884713Y-62202124D01*
X112056682Y-62327065D01*
X112065446Y-62331531D01*
X112116242Y-62379506D01*
X112133036Y-62447327D01*
X112110498Y-62513462D01*
X112065446Y-62552499D01*
X112056682Y-62556964D01*
X111884713Y-62681905D01*
X111734390Y-62832228D01*
X111609449Y-63004197D01*
X111575107Y-63071597D01*
X111527133Y-63122392D01*
X111459312Y-63139187D01*
X111393177Y-63116649D01*
X111376942Y-63102982D01*
X108086141Y-59812181D01*
X108052656Y-59750858D01*
X108057640Y-59681166D01*
X108099512Y-59625233D01*
X108164976Y-59600816D01*
X108173822Y-59600500D01*
X109913331Y-59600500D01*
X109913347Y-59600501D01*
X109920943Y-59600501D01*
X110079054Y-59600501D01*
X110079057Y-59600501D01*
X110231785Y-59559577D01*
X110299468Y-59520500D01*
X110368716Y-59480520D01*
X110480520Y-59368716D01*
X110480520Y-59368714D01*
X110490724Y-59358511D01*
X110490728Y-59358506D01*
X111202319Y-58646915D01*
X111263642Y-58613430D01*
X111333334Y-58618414D01*
G37*
G04 #@! TD.AperFunction*
G04 #@! TA.AperFunction,NonConductor*
G36*
X119942539Y-53719185D02*
G01*
X119988294Y-53771989D01*
X119999500Y-53823500D01*
X119999500Y-56460438D01*
X119999500Y-56539562D01*
X120013152Y-56590513D01*
X120019979Y-56615990D01*
X120019982Y-56615995D01*
X120059535Y-56684504D01*
X120059539Y-56684509D01*
X120059540Y-56684511D01*
X120115489Y-56740460D01*
X120115491Y-56740461D01*
X120115495Y-56740464D01*
X120160588Y-56766498D01*
X120184011Y-56780021D01*
X120260438Y-56800500D01*
X123131673Y-56800500D01*
X123198712Y-56820185D01*
X123244467Y-56872989D01*
X123254411Y-56942147D01*
X123231992Y-56997385D01*
X123171129Y-57081155D01*
X123056760Y-57305616D01*
X122978910Y-57545214D01*
X122965652Y-57628920D01*
X122939500Y-57794038D01*
X122939500Y-58045962D01*
X122951357Y-58120821D01*
X122978248Y-58290609D01*
X122978910Y-58294785D01*
X122978910Y-58294786D01*
X122978909Y-58294786D01*
X122980488Y-58299643D01*
X122982482Y-58369484D01*
X122946400Y-58429316D01*
X122883699Y-58460143D01*
X122814285Y-58452178D01*
X122774875Y-58425640D01*
X122334574Y-57985339D01*
X122301089Y-57924016D01*
X122300638Y-57921849D01*
X122274531Y-57790606D01*
X122269737Y-57766503D01*
X122262710Y-57749539D01*
X122209397Y-57620827D01*
X122209390Y-57620814D01*
X122121789Y-57489711D01*
X122121786Y-57489707D01*
X122010292Y-57378213D01*
X122010288Y-57378210D01*
X121879185Y-57290609D01*
X121879172Y-57290602D01*
X121733501Y-57230264D01*
X121733489Y-57230261D01*
X121578845Y-57199500D01*
X121578842Y-57199500D01*
X121421158Y-57199500D01*
X121421155Y-57199500D01*
X121266510Y-57230261D01*
X121266498Y-57230264D01*
X121120827Y-57290602D01*
X121120814Y-57290609D01*
X120989711Y-57378210D01*
X120989707Y-57378213D01*
X120878213Y-57489707D01*
X120878210Y-57489711D01*
X120790609Y-57620814D01*
X120790602Y-57620827D01*
X120730264Y-57766498D01*
X120730261Y-57766510D01*
X120699500Y-57921153D01*
X120699500Y-58078846D01*
X120730261Y-58233489D01*
X120730264Y-58233501D01*
X120790602Y-58379172D01*
X120790609Y-58379185D01*
X120878210Y-58510288D01*
X120878213Y-58510292D01*
X120989707Y-58621786D01*
X120989711Y-58621789D01*
X121120814Y-58709390D01*
X121120827Y-58709397D01*
X121266498Y-58769735D01*
X121266503Y-58769737D01*
X121331147Y-58782595D01*
X121421849Y-58800638D01*
X121483760Y-58833023D01*
X121485339Y-58834574D01*
X122665425Y-60014660D01*
X122698910Y-60075983D01*
X122699361Y-60078149D01*
X122730261Y-60233491D01*
X122730264Y-60233501D01*
X122790602Y-60379172D01*
X122790609Y-60379185D01*
X122878210Y-60510288D01*
X122878213Y-60510292D01*
X122989707Y-60621786D01*
X122989711Y-60621789D01*
X123120814Y-60709390D01*
X123120827Y-60709397D01*
X123231953Y-60755426D01*
X123266503Y-60769737D01*
X123421153Y-60800499D01*
X123421156Y-60800500D01*
X123421158Y-60800500D01*
X123578844Y-60800500D01*
X123578845Y-60800499D01*
X123733497Y-60769737D01*
X123768047Y-60755425D01*
X123837515Y-60747956D01*
X123899994Y-60779230D01*
X123935648Y-60839318D01*
X123939500Y-60869986D01*
X123939500Y-61465461D01*
X123919815Y-61532500D01*
X123867011Y-61578255D01*
X123797853Y-61588199D01*
X123734297Y-61559174D01*
X123717125Y-61540949D01*
X123695644Y-61512955D01*
X123487047Y-61304358D01*
X123487040Y-61304352D01*
X123252993Y-61124761D01*
X122997510Y-60977258D01*
X122997500Y-60977254D01*
X122724961Y-60864364D01*
X122724954Y-60864362D01*
X122724952Y-60864361D01*
X122439993Y-60788007D01*
X122373326Y-60779230D01*
X122147513Y-60749500D01*
X122147506Y-60749500D01*
X121852494Y-60749500D01*
X121852486Y-60749500D01*
X121574085Y-60786153D01*
X121560007Y-60788007D01*
X121307103Y-60855772D01*
X121275048Y-60864361D01*
X121275038Y-60864364D01*
X121002499Y-60977254D01*
X121002489Y-60977258D01*
X120747006Y-61124761D01*
X120512959Y-61304352D01*
X120512952Y-61304358D01*
X120304358Y-61512952D01*
X120304352Y-61512959D01*
X120124761Y-61747006D01*
X119977258Y-62002489D01*
X119977254Y-62002499D01*
X119864364Y-62275038D01*
X119864361Y-62275048D01*
X119788823Y-62556964D01*
X119788008Y-62560004D01*
X119788006Y-62560015D01*
X119749500Y-62852486D01*
X119749500Y-63147499D01*
X119749501Y-63147515D01*
X119773065Y-63326500D01*
X119762299Y-63395535D01*
X119715920Y-63447791D01*
X119648651Y-63466676D01*
X119581850Y-63446195D01*
X119562445Y-63430366D01*
X119510292Y-63378213D01*
X119510288Y-63378210D01*
X119379185Y-63290609D01*
X119379172Y-63290602D01*
X119233501Y-63230264D01*
X119233491Y-63230261D01*
X119078149Y-63199361D01*
X119016238Y-63166976D01*
X119014660Y-63165425D01*
X118826819Y-62977584D01*
X118793334Y-62916261D01*
X118790500Y-62889903D01*
X118790500Y-62026300D01*
X118810185Y-61959261D01*
X118858204Y-61915815D01*
X119028845Y-61828870D01*
X119232656Y-61680793D01*
X119410793Y-61502656D01*
X119558870Y-61298845D01*
X119673241Y-61074379D01*
X119751090Y-60834785D01*
X119790500Y-60585962D01*
X119790500Y-60334038D01*
X119751090Y-60085215D01*
X119673241Y-59845621D01*
X119673239Y-59845618D01*
X119673239Y-59845616D01*
X119589447Y-59681166D01*
X119558870Y-59621155D01*
X119485740Y-59520500D01*
X119410798Y-59417350D01*
X119410794Y-59417345D01*
X119232654Y-59239205D01*
X119232649Y-59239201D01*
X119028848Y-59091132D01*
X119028847Y-59091131D01*
X119028845Y-59091130D01*
X118927109Y-59039293D01*
X118804383Y-58976760D01*
X118564785Y-58898910D01*
X118440165Y-58879172D01*
X118315962Y-58859500D01*
X118064038Y-58859500D01*
X117939835Y-58879172D01*
X117815214Y-58898910D01*
X117575616Y-58976760D01*
X117351151Y-59091132D01*
X117147350Y-59239201D01*
X117147345Y-59239205D01*
X116969205Y-59417345D01*
X116969201Y-59417350D01*
X116821132Y-59621151D01*
X116706760Y-59845616D01*
X116628910Y-60085214D01*
X116605425Y-60233491D01*
X116589500Y-60334038D01*
X116589500Y-60585962D01*
X116620111Y-60779230D01*
X116628910Y-60834785D01*
X116706760Y-61074383D01*
X116732430Y-61124762D01*
X116810662Y-61278301D01*
X116821132Y-61298848D01*
X116969201Y-61502649D01*
X116969205Y-61502654D01*
X116969207Y-61502656D01*
X117147344Y-61680793D01*
X117147345Y-61680794D01*
X117147344Y-61680794D01*
X117153661Y-61685383D01*
X117196327Y-61740714D01*
X117202305Y-61810327D01*
X117169699Y-61872122D01*
X117108860Y-61906479D01*
X117061378Y-61908174D01*
X117006611Y-61899500D01*
X116833389Y-61899500D01*
X116793728Y-61905781D01*
X116662302Y-61926597D01*
X116497552Y-61980128D01*
X116343211Y-62058768D01*
X116319019Y-62076345D01*
X116203072Y-62160586D01*
X116203070Y-62160588D01*
X116203069Y-62160588D01*
X116080588Y-62283069D01*
X116080588Y-62283070D01*
X116080586Y-62283072D01*
X116045380Y-62331529D01*
X115978768Y-62423211D01*
X115900128Y-62577550D01*
X115874324Y-62656969D01*
X115834886Y-62714644D01*
X115770527Y-62741842D01*
X115701681Y-62729927D01*
X115668712Y-62706331D01*
X115644286Y-62681905D01*
X115472320Y-62556966D01*
X115471615Y-62556606D01*
X115463554Y-62552500D01*
X115412759Y-62504527D01*
X115395963Y-62436707D01*
X115418499Y-62370571D01*
X115463554Y-62331530D01*
X115472316Y-62327066D01*
X115555665Y-62266510D01*
X115644286Y-62202124D01*
X115644288Y-62202121D01*
X115644292Y-62202119D01*
X115794604Y-62051807D01*
X115794606Y-62051803D01*
X115794609Y-62051801D01*
X115919548Y-61879835D01*
X115919547Y-61879835D01*
X115919551Y-61879831D01*
X116016057Y-61690427D01*
X116081746Y-61488258D01*
X116115000Y-61278302D01*
X116115000Y-61065728D01*
X116081746Y-60855772D01*
X116016057Y-60653603D01*
X115919551Y-60464199D01*
X115919549Y-60464196D01*
X115919548Y-60464194D01*
X115794609Y-60292228D01*
X115644286Y-60141905D01*
X115472320Y-60016966D01*
X115467794Y-60014660D01*
X115463554Y-60012500D01*
X115412759Y-59964527D01*
X115395963Y-59896707D01*
X115418499Y-59830571D01*
X115463554Y-59791530D01*
X115472316Y-59787066D01*
X115500626Y-59766498D01*
X115644286Y-59662124D01*
X115644288Y-59662121D01*
X115644292Y-59662119D01*
X115794604Y-59511807D01*
X115794606Y-59511803D01*
X115794609Y-59511801D01*
X115919548Y-59339835D01*
X115919547Y-59339835D01*
X115919551Y-59339831D01*
X116016057Y-59150427D01*
X116081746Y-58948258D01*
X116115000Y-58738302D01*
X116115000Y-58525728D01*
X116081746Y-58315772D01*
X116016057Y-58113603D01*
X115919551Y-57924199D01*
X115919549Y-57924196D01*
X115919548Y-57924194D01*
X115794609Y-57752228D01*
X115644286Y-57601905D01*
X115472320Y-57476966D01*
X115471615Y-57476606D01*
X115463554Y-57472500D01*
X115412759Y-57424527D01*
X115395963Y-57356707D01*
X115418499Y-57290571D01*
X115463554Y-57251530D01*
X115472316Y-57247066D01*
X115534423Y-57201943D01*
X115644286Y-57122124D01*
X115644288Y-57122121D01*
X115644292Y-57122119D01*
X115794604Y-56971807D01*
X115794606Y-56971803D01*
X115794609Y-56971801D01*
X115919548Y-56799835D01*
X115919547Y-56799835D01*
X115919551Y-56799831D01*
X116016057Y-56610427D01*
X116081746Y-56408258D01*
X116115000Y-56198302D01*
X116115000Y-55985728D01*
X116081746Y-55775772D01*
X116016057Y-55573603D01*
X115919551Y-55384199D01*
X115919549Y-55384196D01*
X115919548Y-55384194D01*
X115794609Y-55212228D01*
X115644286Y-55061905D01*
X115472320Y-54936966D01*
X115282914Y-54840459D01*
X115282913Y-54840458D01*
X115282912Y-54840458D01*
X115080743Y-54774769D01*
X115080741Y-54774768D01*
X115080740Y-54774768D01*
X114919457Y-54749223D01*
X114870787Y-54741515D01*
X112658213Y-54741515D01*
X112609542Y-54749223D01*
X112448260Y-54774768D01*
X112246085Y-54840459D01*
X112056679Y-54936966D01*
X111884713Y-55061905D01*
X111734390Y-55212228D01*
X111609451Y-55384194D01*
X111512944Y-55573600D01*
X111447253Y-55775775D01*
X111430877Y-55879172D01*
X111414000Y-55985728D01*
X111414000Y-56198302D01*
X111419062Y-56230261D01*
X111447253Y-56408255D01*
X111491434Y-56544231D01*
X111493429Y-56614073D01*
X111457348Y-56673905D01*
X111397695Y-56704166D01*
X111266508Y-56730261D01*
X111266498Y-56730264D01*
X111120827Y-56790602D01*
X111120814Y-56790609D01*
X110989711Y-56878210D01*
X110989707Y-56878213D01*
X110878213Y-56989707D01*
X110878210Y-56989711D01*
X110827602Y-57065451D01*
X110773989Y-57110256D01*
X110704664Y-57118963D01*
X110641637Y-57088808D01*
X110604918Y-57029365D01*
X110600500Y-56996560D01*
X110600500Y-56089060D01*
X110600501Y-56089047D01*
X110600501Y-55920944D01*
X110600501Y-55920943D01*
X110559577Y-55768216D01*
X110559573Y-55768209D01*
X110480524Y-55631290D01*
X110480518Y-55631282D01*
X109834573Y-54985337D01*
X109801088Y-54924014D01*
X109800637Y-54921847D01*
X109784448Y-54840459D01*
X109769737Y-54766503D01*
X109768621Y-54763809D01*
X109709397Y-54620827D01*
X109709390Y-54620814D01*
X109621789Y-54489711D01*
X109621786Y-54489707D01*
X109510292Y-54378213D01*
X109510288Y-54378210D01*
X109379185Y-54290609D01*
X109379172Y-54290602D01*
X109233501Y-54230264D01*
X109233489Y-54230261D01*
X109078845Y-54199500D01*
X109078842Y-54199500D01*
X108921158Y-54199500D01*
X108921155Y-54199500D01*
X108766510Y-54230261D01*
X108766498Y-54230264D01*
X108620827Y-54290602D01*
X108620814Y-54290609D01*
X108489711Y-54378210D01*
X108489707Y-54378213D01*
X108378213Y-54489707D01*
X108378210Y-54489711D01*
X108290609Y-54620814D01*
X108290602Y-54620827D01*
X108230264Y-54766498D01*
X108230261Y-54766510D01*
X108199500Y-54921153D01*
X108199500Y-55078846D01*
X108230261Y-55233489D01*
X108230264Y-55233501D01*
X108290602Y-55379172D01*
X108290609Y-55379185D01*
X108378210Y-55510288D01*
X108378213Y-55510292D01*
X108489707Y-55621786D01*
X108489711Y-55621789D01*
X108620814Y-55709390D01*
X108620827Y-55709397D01*
X108762814Y-55768209D01*
X108766503Y-55769737D01*
X108831147Y-55782595D01*
X108921849Y-55800638D01*
X108983760Y-55833023D01*
X108985339Y-55834574D01*
X109363181Y-56212416D01*
X109396666Y-56273739D01*
X109399500Y-56300097D01*
X109399500Y-57420234D01*
X109379815Y-57487273D01*
X109378602Y-57489125D01*
X109290609Y-57620814D01*
X109290602Y-57620827D01*
X109230264Y-57766498D01*
X109230261Y-57766510D01*
X109199500Y-57921153D01*
X109199500Y-58078846D01*
X109230261Y-58233489D01*
X109232031Y-58239324D01*
X109229279Y-58240158D01*
X109235503Y-58297359D01*
X109204309Y-58359878D01*
X109144266Y-58395608D01*
X109113445Y-58399500D01*
X107979766Y-58399500D01*
X107912727Y-58379815D01*
X107910875Y-58378602D01*
X107779185Y-58290609D01*
X107779172Y-58290602D01*
X107633501Y-58230264D01*
X107633489Y-58230261D01*
X107478845Y-58199500D01*
X107478842Y-58199500D01*
X107321158Y-58199500D01*
X107284009Y-58206889D01*
X107214417Y-58200660D01*
X107159241Y-58157797D01*
X107135997Y-58091907D01*
X107137345Y-58065876D01*
X107140500Y-58045962D01*
X107140500Y-57794038D01*
X107101090Y-57545215D01*
X107023241Y-57305621D01*
X107023239Y-57305618D01*
X107023239Y-57305616D01*
X106976459Y-57213806D01*
X106908870Y-57081155D01*
X106885663Y-57049213D01*
X106760798Y-56877350D01*
X106760794Y-56877345D01*
X106582654Y-56699205D01*
X106582649Y-56699201D01*
X106378848Y-56551132D01*
X106378847Y-56551131D01*
X106378845Y-56551130D01*
X106308747Y-56515413D01*
X106154383Y-56436760D01*
X105914785Y-56358910D01*
X105665962Y-56319500D01*
X105414038Y-56319500D01*
X105331097Y-56332636D01*
X105165213Y-56358910D01*
X105165209Y-56358911D01*
X105162815Y-56359689D01*
X105161853Y-56359716D01*
X105160468Y-56360049D01*
X105160398Y-56359757D01*
X105092974Y-56361682D01*
X105033142Y-56325601D01*
X105002316Y-56262899D01*
X105000500Y-56241757D01*
X105000500Y-53823500D01*
X105020185Y-53756461D01*
X105072989Y-53710706D01*
X105124500Y-53699500D01*
X119875500Y-53699500D01*
X119942539Y-53719185D01*
G37*
G04 #@! TD.AperFunction*
G04 #@! TA.AperFunction,NonConductor*
G36*
X119947010Y-64020525D02*
G01*
X119956420Y-64021030D01*
X119977566Y-64036278D01*
X120000738Y-64048224D01*
X120009389Y-64059225D01*
X120013093Y-64061896D01*
X120022555Y-64075967D01*
X120124761Y-64252993D01*
X120304352Y-64487040D01*
X120304358Y-64487047D01*
X120505130Y-64687819D01*
X120538615Y-64749142D01*
X120533631Y-64818834D01*
X120491759Y-64874767D01*
X120426295Y-64899184D01*
X120417449Y-64899500D01*
X119503439Y-64899500D01*
X119436400Y-64879815D01*
X119390645Y-64827011D01*
X119380701Y-64757853D01*
X119409726Y-64694297D01*
X119434548Y-64672398D01*
X119463981Y-64652730D01*
X119510289Y-64621789D01*
X119621789Y-64510289D01*
X119709394Y-64379179D01*
X119769737Y-64233497D01*
X119793551Y-64113775D01*
X119805634Y-64090675D01*
X119814161Y-64066040D01*
X119821566Y-64060215D01*
X119825935Y-64051865D01*
X119848589Y-64038964D01*
X119869082Y-64022849D01*
X119878463Y-64021953D01*
X119886651Y-64017291D01*
X119912681Y-64018686D01*
X119938635Y-64016208D01*
X119947010Y-64020525D01*
G37*
G04 #@! TD.AperFunction*
G04 #@! TA.AperFunction,NonConductor*
G36*
X117856886Y-63721968D02*
G01*
X117901234Y-63750469D01*
X118165425Y-64014660D01*
X118198910Y-64075983D01*
X118199361Y-64078149D01*
X118230261Y-64233491D01*
X118230264Y-64233501D01*
X118290602Y-64379172D01*
X118290609Y-64379185D01*
X118378210Y-64510288D01*
X118378213Y-64510292D01*
X118489707Y-64621786D01*
X118489711Y-64621789D01*
X118565452Y-64672398D01*
X118610257Y-64726010D01*
X118618964Y-64795335D01*
X118588810Y-64858363D01*
X118529366Y-64895082D01*
X118496561Y-64899500D01*
X116852583Y-64899500D01*
X116785544Y-64879815D01*
X116764902Y-64863181D01*
X116098257Y-64196537D01*
X116093377Y-64187601D01*
X116085338Y-64181352D01*
X116076915Y-64157452D01*
X116064772Y-64135214D01*
X116064880Y-64123303D01*
X116062114Y-64115455D01*
X116065161Y-64092226D01*
X116065270Y-64080303D01*
X116066435Y-64075377D01*
X116081746Y-64028258D01*
X116090168Y-63975081D01*
X116091240Y-63970553D01*
X116106318Y-63944092D01*
X116119363Y-63916575D01*
X116123448Y-63914030D01*
X116125833Y-63909847D01*
X116152829Y-63895736D01*
X116178674Y-63879643D01*
X116183486Y-63879711D01*
X116187754Y-63877481D01*
X116218087Y-63880204D01*
X116248537Y-63880639D01*
X116254136Y-63883441D01*
X116257344Y-63883730D01*
X116262105Y-63887431D01*
X116284794Y-63898789D01*
X116343207Y-63941229D01*
X116343209Y-63941230D01*
X116343212Y-63941232D01*
X116497555Y-64019873D01*
X116662299Y-64073402D01*
X116833389Y-64100500D01*
X116833390Y-64100500D01*
X117006610Y-64100500D01*
X117006611Y-64100500D01*
X117177701Y-64073402D01*
X117342445Y-64019873D01*
X117496788Y-63941232D01*
X117636928Y-63839414D01*
X117725875Y-63750466D01*
X117787194Y-63716984D01*
X117856886Y-63721968D01*
G37*
G04 #@! TD.AperFunction*
G04 #@! TA.AperFunction,NonConductor*
G36*
X116201712Y-66005996D02*
G01*
X116216621Y-66005286D01*
X116249385Y-66018403D01*
X116320701Y-66059577D01*
X116473428Y-66100501D01*
X116473430Y-66100501D01*
X116639139Y-66100501D01*
X116639155Y-66100500D01*
X118613445Y-66100500D01*
X118680484Y-66120185D01*
X118726239Y-66172989D01*
X118736183Y-66242147D01*
X118734483Y-66251441D01*
X118732138Y-66261976D01*
X118730263Y-66266503D01*
X118722973Y-66303149D01*
X118722664Y-66304540D01*
X118706424Y-66333942D01*
X118690857Y-66363702D01*
X118689589Y-66364423D01*
X118688884Y-66365701D01*
X118659329Y-66381655D01*
X118630141Y-66398276D01*
X118628484Y-66398305D01*
X118627400Y-66398891D01*
X118621397Y-66398432D01*
X118585004Y-66399084D01*
X118584905Y-66400094D01*
X118578843Y-66399497D01*
X118578842Y-66399497D01*
X118421158Y-66399497D01*
X118421155Y-66399497D01*
X118266510Y-66430258D01*
X118266498Y-66430261D01*
X118120827Y-66490599D01*
X118120814Y-66490606D01*
X117989711Y-66578207D01*
X117989707Y-66578210D01*
X117878213Y-66689704D01*
X117878210Y-66689708D01*
X117839658Y-66747406D01*
X117786046Y-66792211D01*
X117736556Y-66802515D01*
X116126302Y-66802515D01*
X116059263Y-66782830D01*
X116013508Y-66730026D01*
X116003564Y-66660868D01*
X116008371Y-66640197D01*
X116031746Y-66568258D01*
X116065000Y-66358302D01*
X116065000Y-66145728D01*
X116064915Y-66145195D01*
X116064941Y-66144991D01*
X116064618Y-66140877D01*
X116065482Y-66140808D01*
X116066939Y-66129524D01*
X116063948Y-66114004D01*
X116071322Y-66095582D01*
X116073864Y-66075905D01*
X116084041Y-66063813D01*
X116089916Y-66049139D01*
X116106080Y-66037628D01*
X116118856Y-66022450D01*
X116133953Y-66017780D01*
X116146830Y-66008611D01*
X116166650Y-66007666D01*
X116185605Y-66001804D01*
X116201712Y-66005996D01*
G37*
G04 #@! TD.AperFunction*
G04 #@! TA.AperFunction,NonConductor*
G36*
X111565249Y-68023200D02*
G01*
X111611004Y-68076004D01*
X111620948Y-68145162D01*
X111608695Y-68183810D01*
X111562944Y-68273600D01*
X111497253Y-68475775D01*
X111469790Y-68649168D01*
X111439861Y-68712303D01*
X111380549Y-68749234D01*
X111310686Y-68748236D01*
X111252454Y-68709626D01*
X111232756Y-68677222D01*
X111209396Y-68620826D01*
X111209390Y-68620814D01*
X111121789Y-68489711D01*
X111121786Y-68489707D01*
X111010292Y-68378213D01*
X111010288Y-68378210D01*
X110879185Y-68290609D01*
X110879172Y-68290602D01*
X110762017Y-68242076D01*
X110707613Y-68198236D01*
X110685548Y-68131941D01*
X110702827Y-68064242D01*
X110753964Y-68016631D01*
X110809469Y-68003515D01*
X111498210Y-68003515D01*
X111565249Y-68023200D01*
G37*
G04 #@! TD.AperFunction*
G04 #@! TA.AperFunction,NonConductor*
G36*
X127718941Y-53719185D02*
G01*
X127764696Y-53771989D01*
X127774640Y-53841147D01*
X127745615Y-53904703D01*
X127739583Y-53911181D01*
X127485339Y-54165425D01*
X127424016Y-54198910D01*
X127421850Y-54199361D01*
X127266508Y-54230261D01*
X127266498Y-54230264D01*
X127120827Y-54290602D01*
X127120814Y-54290609D01*
X126989711Y-54378210D01*
X126989707Y-54378213D01*
X126878213Y-54489707D01*
X126878210Y-54489711D01*
X126790609Y-54620814D01*
X126790602Y-54620827D01*
X126730264Y-54766498D01*
X126730261Y-54766510D01*
X126699500Y-54921153D01*
X126699500Y-55078846D01*
X126730261Y-55233489D01*
X126730264Y-55233501D01*
X126790602Y-55379172D01*
X126790609Y-55379185D01*
X126878210Y-55510288D01*
X126878213Y-55510292D01*
X126989707Y-55621786D01*
X126989711Y-55621789D01*
X127120814Y-55709390D01*
X127120827Y-55709397D01*
X127262814Y-55768209D01*
X127266503Y-55769737D01*
X127421153Y-55800499D01*
X127421156Y-55800500D01*
X127421158Y-55800500D01*
X127578844Y-55800500D01*
X127578845Y-55800499D01*
X127733497Y-55769737D01*
X127879179Y-55709394D01*
X128010289Y-55621789D01*
X128121789Y-55510289D01*
X128209394Y-55379179D01*
X128269737Y-55233497D01*
X128289113Y-55136085D01*
X128300638Y-55078150D01*
X128333023Y-55016239D01*
X128334514Y-55014720D01*
X128712417Y-54636819D01*
X128773740Y-54603334D01*
X128800098Y-54600500D01*
X128913731Y-54600500D01*
X128980770Y-54620185D01*
X129026525Y-54672989D01*
X129036469Y-54742147D01*
X129007444Y-54805703D01*
X128988044Y-54823764D01*
X128906954Y-54884469D01*
X128906953Y-54884470D01*
X128906952Y-54884471D01*
X128820706Y-54999679D01*
X128820702Y-54999686D01*
X128770408Y-55134532D01*
X128764001Y-55194131D01*
X128764000Y-55194150D01*
X128764000Y-56989885D01*
X128764001Y-56989891D01*
X128770408Y-57049498D01*
X128820702Y-57184343D01*
X128820706Y-57184350D01*
X128906952Y-57299559D01*
X128906955Y-57299562D01*
X129022164Y-57385808D01*
X129022173Y-57385813D01*
X129117164Y-57421242D01*
X129173098Y-57463113D01*
X129197516Y-57528577D01*
X129182665Y-57596850D01*
X129161514Y-57625105D01*
X129034389Y-57752230D01*
X128909451Y-57924194D01*
X128812944Y-58113600D01*
X128747253Y-58315775D01*
X128714000Y-58525728D01*
X128714000Y-58738301D01*
X128742927Y-58920943D01*
X128747254Y-58948258D01*
X128809814Y-59140798D01*
X128812944Y-59150429D01*
X128909451Y-59339835D01*
X129034390Y-59511801D01*
X129184713Y-59662124D01*
X129356682Y-59787065D01*
X129365446Y-59791531D01*
X129416242Y-59839506D01*
X129433036Y-59907327D01*
X129410498Y-59973462D01*
X129365446Y-60012499D01*
X129356682Y-60016964D01*
X129184713Y-60141905D01*
X129034390Y-60292228D01*
X128909451Y-60464194D01*
X128812944Y-60653600D01*
X128747253Y-60855775D01*
X128728012Y-60977258D01*
X128714000Y-61065728D01*
X128714000Y-61278302D01*
X128747254Y-61488258D01*
X128809814Y-61680798D01*
X128812944Y-61690429D01*
X128909451Y-61879835D01*
X129034390Y-62051801D01*
X129184713Y-62202124D01*
X129356682Y-62327065D01*
X129365446Y-62331531D01*
X129416242Y-62379506D01*
X129433036Y-62447327D01*
X129410498Y-62513462D01*
X129365446Y-62552499D01*
X129356682Y-62556964D01*
X129184713Y-62681905D01*
X129034390Y-62832228D01*
X128909451Y-63004194D01*
X128812944Y-63193600D01*
X128812943Y-63193602D01*
X128812943Y-63193603D01*
X128792116Y-63257701D01*
X128747253Y-63395775D01*
X128732375Y-63489711D01*
X128714000Y-63605728D01*
X128714000Y-63818302D01*
X128723373Y-63877481D01*
X128745925Y-64019871D01*
X128747254Y-64028258D01*
X128801931Y-64196537D01*
X128812944Y-64230429D01*
X128909451Y-64419835D01*
X129034390Y-64591801D01*
X129184713Y-64742124D01*
X129356682Y-64867065D01*
X129365446Y-64871531D01*
X129416242Y-64919506D01*
X129433036Y-64987327D01*
X129410498Y-65053462D01*
X129365446Y-65092499D01*
X129356682Y-65096964D01*
X129184713Y-65221905D01*
X129034390Y-65372228D01*
X128909451Y-65544194D01*
X128812944Y-65733600D01*
X128747253Y-65935775D01*
X128715168Y-66138352D01*
X128714000Y-66145728D01*
X128714000Y-66358302D01*
X128715172Y-66365701D01*
X128734954Y-66490603D01*
X128747254Y-66568258D01*
X128812762Y-66769871D01*
X128812944Y-66770429D01*
X128909451Y-66959835D01*
X129034390Y-67131801D01*
X129184713Y-67282124D01*
X129356682Y-67407065D01*
X129365446Y-67411531D01*
X129416242Y-67459506D01*
X129433036Y-67527327D01*
X129410498Y-67593462D01*
X129365446Y-67632499D01*
X129356682Y-67636964D01*
X129184713Y-67761905D01*
X129034390Y-67912228D01*
X128909451Y-68084194D01*
X128812944Y-68273600D01*
X128747253Y-68475775D01*
X128714000Y-68685728D01*
X128714000Y-68898301D01*
X128742595Y-69078846D01*
X128747254Y-69108258D01*
X128809717Y-69300499D01*
X128812944Y-69310429D01*
X128909451Y-69499835D01*
X129034390Y-69671801D01*
X129184713Y-69822124D01*
X129356682Y-69947065D01*
X129365446Y-69951531D01*
X129416242Y-69999506D01*
X129433036Y-70067327D01*
X129410498Y-70133462D01*
X129365446Y-70172499D01*
X129356682Y-70176964D01*
X129184713Y-70301905D01*
X129034390Y-70452228D01*
X128909449Y-70624197D01*
X128875107Y-70691597D01*
X128827133Y-70742392D01*
X128759312Y-70759187D01*
X128693177Y-70736649D01*
X128676942Y-70722982D01*
X127636819Y-69682859D01*
X127603334Y-69621536D01*
X127600500Y-69595178D01*
X127600500Y-69079765D01*
X127620185Y-69012726D01*
X127621398Y-69010874D01*
X127709390Y-68879185D01*
X127709390Y-68879184D01*
X127709394Y-68879179D01*
X127769737Y-68733497D01*
X127800500Y-68578842D01*
X127800500Y-68421158D01*
X127800500Y-68421155D01*
X127800499Y-68421153D01*
X127774531Y-68290606D01*
X127769737Y-68266503D01*
X127750371Y-68219748D01*
X127709397Y-68120827D01*
X127709390Y-68120814D01*
X127621789Y-67989711D01*
X127621786Y-67989707D01*
X127510292Y-67878213D01*
X127510288Y-67878210D01*
X127379185Y-67790609D01*
X127379172Y-67790602D01*
X127233501Y-67730264D01*
X127233489Y-67730261D01*
X127078845Y-67699500D01*
X127078842Y-67699500D01*
X126921158Y-67699500D01*
X126921155Y-67699500D01*
X126766510Y-67730261D01*
X126766498Y-67730264D01*
X126620827Y-67790602D01*
X126620814Y-67790609D01*
X126489711Y-67878210D01*
X126489707Y-67878213D01*
X126378213Y-67989707D01*
X126378210Y-67989711D01*
X126290609Y-68120814D01*
X126290602Y-68120827D01*
X126230264Y-68266498D01*
X126230261Y-68266510D01*
X126199500Y-68421153D01*
X126199500Y-68578846D01*
X126230261Y-68733489D01*
X126230264Y-68733501D01*
X126290602Y-68879172D01*
X126290609Y-68879185D01*
X126378602Y-69010874D01*
X126399480Y-69077551D01*
X126399500Y-69079765D01*
X126399500Y-69575500D01*
X126379815Y-69642539D01*
X126327011Y-69688294D01*
X126275500Y-69699500D01*
X125264500Y-69699500D01*
X125197461Y-69679815D01*
X125151706Y-69627011D01*
X125140500Y-69575500D01*
X125140500Y-62913389D01*
X125979500Y-62913389D01*
X125979500Y-63086610D01*
X126001870Y-63227854D01*
X126006598Y-63257701D01*
X126060127Y-63422445D01*
X126138768Y-63576788D01*
X126240586Y-63716928D01*
X126363072Y-63839414D01*
X126503212Y-63941232D01*
X126657555Y-64019873D01*
X126822299Y-64073402D01*
X126993389Y-64100500D01*
X126993390Y-64100500D01*
X127166610Y-64100500D01*
X127166611Y-64100500D01*
X127337701Y-64073402D01*
X127502445Y-64019873D01*
X127656788Y-63941232D01*
X127796928Y-63839414D01*
X127919414Y-63716928D01*
X128021232Y-63576788D01*
X128099873Y-63422445D01*
X128153402Y-63257701D01*
X128180500Y-63086611D01*
X128180500Y-62913389D01*
X128153402Y-62742299D01*
X128099873Y-62577555D01*
X128021232Y-62423212D01*
X127919414Y-62283072D01*
X127796928Y-62160586D01*
X127656788Y-62058768D01*
X127502445Y-61980127D01*
X127337701Y-61926598D01*
X127337699Y-61926597D01*
X127337698Y-61926597D01*
X127206271Y-61905781D01*
X127166611Y-61899500D01*
X126993389Y-61899500D01*
X126953728Y-61905781D01*
X126822302Y-61926597D01*
X126657552Y-61980128D01*
X126503211Y-62058768D01*
X126479019Y-62076345D01*
X126363072Y-62160586D01*
X126363070Y-62160588D01*
X126363069Y-62160588D01*
X126240588Y-62283069D01*
X126240588Y-62283070D01*
X126240586Y-62283072D01*
X126205380Y-62331529D01*
X126138768Y-62423211D01*
X126060128Y-62577552D01*
X126006597Y-62742302D01*
X125979500Y-62913389D01*
X125140500Y-62913389D01*
X125140500Y-59486300D01*
X125160185Y-59419261D01*
X125208204Y-59375815D01*
X125378845Y-59288870D01*
X125582656Y-59140793D01*
X125760793Y-58962656D01*
X125908870Y-58758845D01*
X126023241Y-58534379D01*
X126101090Y-58294785D01*
X126140500Y-58045962D01*
X126140500Y-57794038D01*
X126101090Y-57545215D01*
X126023241Y-57305621D01*
X126023239Y-57305618D01*
X126023239Y-57305616D01*
X125976459Y-57213806D01*
X125908870Y-57081155D01*
X125885663Y-57049213D01*
X125760798Y-56877350D01*
X125760794Y-56877345D01*
X125582654Y-56699205D01*
X125582649Y-56699201D01*
X125378848Y-56551132D01*
X125378847Y-56551131D01*
X125378845Y-56551130D01*
X125308747Y-56515413D01*
X125154383Y-56436760D01*
X124914785Y-56358910D01*
X124665962Y-56319500D01*
X124414038Y-56319500D01*
X124331097Y-56332636D01*
X124165213Y-56358910D01*
X124165209Y-56358911D01*
X124162815Y-56359689D01*
X124161853Y-56359716D01*
X124160468Y-56360049D01*
X124160398Y-56359757D01*
X124092974Y-56361682D01*
X124033142Y-56325601D01*
X124002316Y-56262899D01*
X124000500Y-56241757D01*
X124000500Y-53823500D01*
X124020185Y-53756461D01*
X124072989Y-53710706D01*
X124124500Y-53699500D01*
X127651902Y-53699500D01*
X127718941Y-53719185D01*
G37*
G04 #@! TD.AperFunction*
G04 #@! TA.AperFunction,NonConductor*
G36*
X90577941Y-52820185D02*
G01*
X90623696Y-52872989D01*
X90633640Y-52942147D01*
X90604615Y-53005703D01*
X90598583Y-53012181D01*
X87222922Y-56387840D01*
X87161599Y-56421325D01*
X87096923Y-56418090D01*
X86914787Y-56358910D01*
X86748903Y-56332636D01*
X86665962Y-56319500D01*
X86414038Y-56319500D01*
X86331097Y-56332636D01*
X86165213Y-56358910D01*
X86165209Y-56358911D01*
X86162815Y-56359689D01*
X86161853Y-56359716D01*
X86160468Y-56360049D01*
X86160398Y-56359757D01*
X86092974Y-56361682D01*
X86033142Y-56325601D01*
X86002316Y-56262899D01*
X86000500Y-56241757D01*
X86000500Y-53460439D01*
X85980020Y-53384009D01*
X85980017Y-53384004D01*
X85940464Y-53315495D01*
X85940458Y-53315487D01*
X85884512Y-53259541D01*
X85884504Y-53259535D01*
X85815995Y-53219982D01*
X85815990Y-53219979D01*
X85790513Y-53213152D01*
X85739562Y-53199500D01*
X82339562Y-53199500D01*
X82260438Y-53199500D01*
X82222224Y-53209739D01*
X82184009Y-53219979D01*
X82184004Y-53219982D01*
X82115495Y-53259535D01*
X82115487Y-53259541D01*
X82059541Y-53315487D01*
X82059535Y-53315495D01*
X82019982Y-53384004D01*
X82019979Y-53384009D01*
X82006326Y-53434962D01*
X81999500Y-53460438D01*
X81999500Y-56460438D01*
X81999500Y-56539562D01*
X82013152Y-56590513D01*
X82019979Y-56615990D01*
X82019982Y-56615995D01*
X82059535Y-56684504D01*
X82059539Y-56684509D01*
X82059540Y-56684511D01*
X82115489Y-56740460D01*
X82115491Y-56740461D01*
X82115495Y-56740464D01*
X82160588Y-56766498D01*
X82184011Y-56780021D01*
X82260438Y-56800500D01*
X85131673Y-56800500D01*
X85198712Y-56820185D01*
X85244467Y-56872989D01*
X85254411Y-56942147D01*
X85231992Y-56997385D01*
X85171129Y-57081155D01*
X85056760Y-57305616D01*
X84978910Y-57545214D01*
X84965652Y-57628920D01*
X84939500Y-57794038D01*
X84939500Y-58045962D01*
X84970126Y-58239324D01*
X84978910Y-58294785D01*
X85056760Y-58534383D01*
X85106135Y-58631285D01*
X85160662Y-58738301D01*
X85171132Y-58758848D01*
X85319201Y-58962649D01*
X85319205Y-58962654D01*
X85395844Y-59039293D01*
X85429329Y-59100616D01*
X85424345Y-59170308D01*
X85382473Y-59226241D01*
X85317009Y-59250658D01*
X85260711Y-59241535D01*
X85233501Y-59230264D01*
X85233489Y-59230261D01*
X85078845Y-59199500D01*
X85078842Y-59199500D01*
X84921158Y-59199500D01*
X84921155Y-59199500D01*
X84766511Y-59230260D01*
X84766502Y-59230263D01*
X84710814Y-59253329D01*
X84641345Y-59260796D01*
X84578866Y-59229520D01*
X84575683Y-59226448D01*
X83834574Y-58485339D01*
X83801089Y-58424016D01*
X83800638Y-58421849D01*
X83776329Y-58299643D01*
X83769737Y-58266503D01*
X83756062Y-58233489D01*
X83709397Y-58120827D01*
X83709390Y-58120814D01*
X83621789Y-57989711D01*
X83621786Y-57989707D01*
X83510292Y-57878213D01*
X83510288Y-57878210D01*
X83379185Y-57790609D01*
X83379172Y-57790602D01*
X83233501Y-57730264D01*
X83233489Y-57730261D01*
X83078845Y-57699500D01*
X83078842Y-57699500D01*
X82921158Y-57699500D01*
X82921155Y-57699500D01*
X82766510Y-57730261D01*
X82766498Y-57730264D01*
X82620827Y-57790602D01*
X82620814Y-57790609D01*
X82489711Y-57878210D01*
X82489707Y-57878213D01*
X82378213Y-57989707D01*
X82378210Y-57989711D01*
X82290609Y-58120814D01*
X82290602Y-58120827D01*
X82230264Y-58266498D01*
X82230261Y-58266510D01*
X82199500Y-58421153D01*
X82199500Y-58578846D01*
X82230261Y-58733489D01*
X82230264Y-58733501D01*
X82290602Y-58879172D01*
X82290609Y-58879185D01*
X82378210Y-59010288D01*
X82378213Y-59010292D01*
X82489707Y-59121786D01*
X82489711Y-59121789D01*
X82620814Y-59209390D01*
X82620827Y-59209397D01*
X82726890Y-59253329D01*
X82766503Y-59269737D01*
X82831147Y-59282595D01*
X82921849Y-59300638D01*
X82983760Y-59333023D01*
X82985339Y-59334574D01*
X84015139Y-60364374D01*
X84015149Y-60364385D01*
X84019479Y-60368715D01*
X84019480Y-60368716D01*
X84131284Y-60480520D01*
X84131286Y-60480521D01*
X84131287Y-60480522D01*
X84196397Y-60518113D01*
X84244612Y-60568679D01*
X84257836Y-60637286D01*
X84231868Y-60702151D01*
X84174954Y-60742680D01*
X84134397Y-60749500D01*
X83852486Y-60749500D01*
X83574085Y-60786153D01*
X83560007Y-60788007D01*
X83307103Y-60855772D01*
X83275048Y-60864361D01*
X83275038Y-60864364D01*
X83002499Y-60977254D01*
X83002489Y-60977258D01*
X82747006Y-61124761D01*
X82512959Y-61304352D01*
X82512952Y-61304358D01*
X82304358Y-61512952D01*
X82304352Y-61512959D01*
X82124761Y-61747006D01*
X81977258Y-62002489D01*
X81977254Y-62002499D01*
X81864364Y-62275038D01*
X81864361Y-62275048D01*
X81788823Y-62556964D01*
X81788008Y-62560004D01*
X81788006Y-62560015D01*
X81749500Y-62852486D01*
X81749500Y-63147513D01*
X81768340Y-63290609D01*
X81788007Y-63439993D01*
X81864361Y-63724951D01*
X81864364Y-63724961D01*
X81977254Y-63997500D01*
X81977258Y-63997510D01*
X82124761Y-64252993D01*
X82304352Y-64487040D01*
X82304358Y-64487047D01*
X82512952Y-64695641D01*
X82512959Y-64695647D01*
X82747006Y-64875238D01*
X83002489Y-65022741D01*
X83002490Y-65022741D01*
X83002493Y-65022743D01*
X83275048Y-65135639D01*
X83560007Y-65211993D01*
X83852494Y-65250500D01*
X83852501Y-65250500D01*
X84147499Y-65250500D01*
X84147506Y-65250500D01*
X84439993Y-65211993D01*
X84724952Y-65135639D01*
X84997507Y-65022743D01*
X85252994Y-64875238D01*
X85487042Y-64695646D01*
X85695646Y-64487042D01*
X85717124Y-64459052D01*
X85773552Y-64417849D01*
X85843298Y-64413694D01*
X85904218Y-64447906D01*
X85936971Y-64509624D01*
X85939500Y-64534538D01*
X85939500Y-72091473D01*
X85919815Y-72158512D01*
X85867011Y-72204267D01*
X85797853Y-72214211D01*
X85783407Y-72211248D01*
X85739562Y-72199500D01*
X82339562Y-72199500D01*
X82260438Y-72199500D01*
X82222224Y-72209739D01*
X82184009Y-72219979D01*
X82184004Y-72219982D01*
X82115495Y-72259535D01*
X82115487Y-72259541D01*
X82059541Y-72315487D01*
X82059535Y-72315495D01*
X82019982Y-72384004D01*
X82019979Y-72384009D01*
X82009130Y-72424499D01*
X81999500Y-72460438D01*
X81999500Y-75460438D01*
X81999500Y-75539562D01*
X82010082Y-75579054D01*
X82019979Y-75615990D01*
X82019982Y-75615995D01*
X82059535Y-75684504D01*
X82059539Y-75684509D01*
X82059540Y-75684511D01*
X82115489Y-75740460D01*
X82115491Y-75740461D01*
X82115495Y-75740464D01*
X82184004Y-75780017D01*
X82184011Y-75780021D01*
X82260438Y-75800500D01*
X85131673Y-75800500D01*
X85198712Y-75820185D01*
X85244467Y-75872989D01*
X85254411Y-75942147D01*
X85231992Y-75997385D01*
X85171129Y-76081155D01*
X85056760Y-76305616D01*
X84978910Y-76545214D01*
X84939500Y-76794038D01*
X84939500Y-77045961D01*
X84972783Y-77256102D01*
X84963828Y-77325396D01*
X84918832Y-77378848D01*
X84852081Y-77399487D01*
X84850310Y-77399500D01*
X80003439Y-77399500D01*
X79936400Y-77379815D01*
X79890645Y-77327011D01*
X79880701Y-77257853D01*
X79909726Y-77194297D01*
X79934548Y-77172398D01*
X79963981Y-77152730D01*
X80010289Y-77121789D01*
X80121789Y-77010289D01*
X80209394Y-76879179D01*
X80269737Y-76733497D01*
X80300500Y-76578842D01*
X80300500Y-76421158D01*
X80300500Y-76421155D01*
X80300499Y-76421153D01*
X80278755Y-76311840D01*
X80269737Y-76266503D01*
X80263645Y-76251795D01*
X80209397Y-76120827D01*
X80209390Y-76120814D01*
X80121789Y-75989711D01*
X80121786Y-75989707D01*
X80010292Y-75878213D01*
X80010288Y-75878210D01*
X79879185Y-75790609D01*
X79879172Y-75790602D01*
X79733501Y-75730264D01*
X79733491Y-75730261D01*
X79578149Y-75699361D01*
X79516238Y-75666976D01*
X79514660Y-75665425D01*
X78355819Y-74506584D01*
X78322334Y-74445261D01*
X78319500Y-74418903D01*
X78319500Y-64131499D01*
X78339185Y-64064460D01*
X78391989Y-64018705D01*
X78461147Y-64008761D01*
X78492726Y-64018776D01*
X78493046Y-64018006D01*
X78497547Y-64019870D01*
X78497552Y-64019871D01*
X78497555Y-64019873D01*
X78662299Y-64073402D01*
X78833389Y-64100500D01*
X78833390Y-64100500D01*
X79006610Y-64100500D01*
X79006611Y-64100500D01*
X79177701Y-64073402D01*
X79342445Y-64019873D01*
X79409206Y-63985856D01*
X79477874Y-63972961D01*
X79542615Y-63999237D01*
X79582872Y-64056344D01*
X79589500Y-64096342D01*
X79589500Y-69770397D01*
X79569815Y-69837436D01*
X79521800Y-69880879D01*
X79508389Y-69887712D01*
X79342786Y-70008028D01*
X79198028Y-70152786D01*
X79077715Y-70318386D01*
X78984781Y-70500776D01*
X78921522Y-70695465D01*
X78889500Y-70897648D01*
X78889500Y-71102351D01*
X78921522Y-71304534D01*
X78984781Y-71499223D01*
X79077715Y-71681613D01*
X79198028Y-71847213D01*
X79342786Y-71991971D01*
X79479742Y-72091473D01*
X79508390Y-72112287D01*
X79597212Y-72157544D01*
X79690776Y-72205218D01*
X79690778Y-72205218D01*
X79690781Y-72205220D01*
X79736205Y-72219979D01*
X79885465Y-72268477D01*
X79986557Y-72284488D01*
X80087648Y-72300500D01*
X80087649Y-72300500D01*
X80292351Y-72300500D01*
X80292352Y-72300500D01*
X80494534Y-72268477D01*
X80689219Y-72205220D01*
X80871610Y-72112287D01*
X80967901Y-72042328D01*
X81037213Y-71991971D01*
X81037215Y-71991968D01*
X81037219Y-71991966D01*
X81181966Y-71847219D01*
X81181968Y-71847215D01*
X81181971Y-71847213D01*
X81234732Y-71774590D01*
X81302287Y-71681610D01*
X81395220Y-71499219D01*
X81458477Y-71304534D01*
X81490500Y-71102352D01*
X81490500Y-70897648D01*
X81468570Y-70759187D01*
X81458477Y-70695465D01*
X81420584Y-70578844D01*
X81395220Y-70500781D01*
X81395218Y-70500778D01*
X81395218Y-70500776D01*
X81354647Y-70421153D01*
X81302287Y-70318390D01*
X81279500Y-70287026D01*
X81181971Y-70152786D01*
X81037213Y-70008028D01*
X80871610Y-69887712D01*
X80858200Y-69880879D01*
X80807406Y-69832903D01*
X80790500Y-69770397D01*
X80790500Y-62026300D01*
X80810185Y-61959261D01*
X80858204Y-61915815D01*
X81028845Y-61828870D01*
X81232656Y-61680793D01*
X81410793Y-61502656D01*
X81558870Y-61298845D01*
X81673241Y-61074379D01*
X81751090Y-60834785D01*
X81790500Y-60585962D01*
X81790500Y-60334038D01*
X81751090Y-60085215D01*
X81673241Y-59845621D01*
X81673239Y-59845618D01*
X81673239Y-59845616D01*
X81589447Y-59681166D01*
X81558870Y-59621155D01*
X81485740Y-59520500D01*
X81410798Y-59417350D01*
X81410794Y-59417345D01*
X81232654Y-59239205D01*
X81232649Y-59239201D01*
X81028848Y-59091132D01*
X81028847Y-59091131D01*
X81028845Y-59091130D01*
X80927109Y-59039293D01*
X80804383Y-58976760D01*
X80564785Y-58898910D01*
X80440165Y-58879172D01*
X80315962Y-58859500D01*
X80064038Y-58859500D01*
X79939835Y-58879172D01*
X79815214Y-58898910D01*
X79575616Y-58976760D01*
X79351151Y-59091132D01*
X79147350Y-59239201D01*
X79147345Y-59239205D01*
X78969205Y-59417345D01*
X78969201Y-59417350D01*
X78821132Y-59621151D01*
X78706760Y-59845616D01*
X78628910Y-60085214D01*
X78605425Y-60233491D01*
X78589500Y-60334038D01*
X78589500Y-60585962D01*
X78620111Y-60779230D01*
X78628910Y-60834785D01*
X78706760Y-61074383D01*
X78732430Y-61124762D01*
X78810662Y-61278301D01*
X78821132Y-61298848D01*
X78969201Y-61502649D01*
X78969205Y-61502654D01*
X78969207Y-61502656D01*
X79147344Y-61680793D01*
X79147345Y-61680794D01*
X79147344Y-61680794D01*
X79153661Y-61685383D01*
X79196327Y-61740714D01*
X79202305Y-61810327D01*
X79169699Y-61872122D01*
X79108860Y-61906479D01*
X79061378Y-61908174D01*
X79006611Y-61899500D01*
X78833389Y-61899500D01*
X78793728Y-61905781D01*
X78662302Y-61926597D01*
X78497547Y-61980129D01*
X78493046Y-61981994D01*
X78492378Y-61980383D01*
X78431102Y-61991879D01*
X78366366Y-61965590D01*
X78326120Y-61908475D01*
X78319500Y-61868500D01*
X78319500Y-57581097D01*
X78339185Y-57514058D01*
X78355819Y-57493416D01*
X78929858Y-56919377D01*
X79514662Y-56334572D01*
X79575983Y-56301089D01*
X79578150Y-56300638D01*
X79636085Y-56289113D01*
X79733497Y-56269737D01*
X79879179Y-56209394D01*
X80010289Y-56121789D01*
X80121789Y-56010289D01*
X80209394Y-55879179D01*
X80269737Y-55733497D01*
X80300500Y-55578842D01*
X80300500Y-55421158D01*
X80300500Y-55421155D01*
X80300499Y-55421153D01*
X80269738Y-55266510D01*
X80269738Y-55266508D01*
X80269737Y-55266503D01*
X80239765Y-55194143D01*
X80209397Y-55120827D01*
X80209390Y-55120814D01*
X80121789Y-54989711D01*
X80121786Y-54989707D01*
X80010292Y-54878213D01*
X80010288Y-54878210D01*
X79879185Y-54790609D01*
X79879172Y-54790602D01*
X79733501Y-54730264D01*
X79733489Y-54730261D01*
X79578845Y-54699500D01*
X79578842Y-54699500D01*
X79421158Y-54699500D01*
X79421155Y-54699500D01*
X79266510Y-54730261D01*
X79266498Y-54730264D01*
X79120827Y-54790602D01*
X79120814Y-54790609D01*
X78989711Y-54878210D01*
X78989707Y-54878213D01*
X78878213Y-54989707D01*
X78878210Y-54989711D01*
X78790609Y-55120814D01*
X78790602Y-55120827D01*
X78730264Y-55266498D01*
X78730261Y-55266508D01*
X78699361Y-55421850D01*
X78666976Y-55483761D01*
X78665425Y-55485339D01*
X77352576Y-56798187D01*
X77352566Y-56798197D01*
X77350286Y-56800478D01*
X77350284Y-56800480D01*
X77238480Y-56912284D01*
X77224828Y-56935931D01*
X77218303Y-56947231D01*
X77218303Y-56947232D01*
X77175622Y-57021158D01*
X77159423Y-57049215D01*
X77118499Y-57201943D01*
X77118499Y-57201945D01*
X77118499Y-57370046D01*
X77118500Y-57370059D01*
X77118500Y-74632330D01*
X77118499Y-74632348D01*
X77118499Y-74798054D01*
X77118498Y-74798054D01*
X77159423Y-74950785D01*
X77188358Y-75000900D01*
X77188359Y-75000904D01*
X77188360Y-75000904D01*
X77238479Y-75087714D01*
X77238481Y-75087717D01*
X77357349Y-75206585D01*
X77357355Y-75206590D01*
X78665425Y-76514660D01*
X78698910Y-76575983D01*
X78699361Y-76578149D01*
X78730261Y-76733491D01*
X78730264Y-76733501D01*
X78790602Y-76879172D01*
X78790609Y-76879185D01*
X78878210Y-77010288D01*
X78878213Y-77010292D01*
X78989707Y-77121786D01*
X78989711Y-77121789D01*
X79065452Y-77172398D01*
X79110257Y-77226010D01*
X79118964Y-77295335D01*
X79088810Y-77358363D01*
X79029366Y-77395082D01*
X78996561Y-77399500D01*
X76420940Y-77399500D01*
X76380019Y-77410464D01*
X76380019Y-77410465D01*
X76342751Y-77420451D01*
X76268214Y-77440423D01*
X76268209Y-77440426D01*
X76131290Y-77519475D01*
X76131282Y-77519481D01*
X72985339Y-80665425D01*
X72924016Y-80698910D01*
X72921850Y-80699361D01*
X72766508Y-80730261D01*
X72766498Y-80730264D01*
X72620827Y-80790602D01*
X72620814Y-80790609D01*
X72489711Y-80878210D01*
X72489707Y-80878213D01*
X72378213Y-80989707D01*
X72378210Y-80989711D01*
X72290609Y-81120814D01*
X72290602Y-81120827D01*
X72230264Y-81266498D01*
X72230261Y-81266510D01*
X72199500Y-81421153D01*
X72199500Y-81578846D01*
X72230261Y-81733489D01*
X72230264Y-81733501D01*
X72290602Y-81879172D01*
X72290609Y-81879185D01*
X72378210Y-82010288D01*
X72378213Y-82010292D01*
X72489707Y-82121786D01*
X72489711Y-82121789D01*
X72620814Y-82209390D01*
X72620827Y-82209397D01*
X72737445Y-82257701D01*
X72766503Y-82269737D01*
X72921153Y-82300499D01*
X72921156Y-82300500D01*
X72921158Y-82300500D01*
X73078844Y-82300500D01*
X73078845Y-82300499D01*
X73233497Y-82269737D01*
X73379179Y-82209394D01*
X73510289Y-82121789D01*
X73621789Y-82010289D01*
X73709394Y-81879179D01*
X73769737Y-81733497D01*
X73789113Y-81636085D01*
X73800638Y-81578150D01*
X73833023Y-81516239D01*
X73834518Y-81514716D01*
X76712416Y-78636819D01*
X76773739Y-78603334D01*
X76800097Y-78600500D01*
X78629304Y-78600500D01*
X78696343Y-78620185D01*
X78742098Y-78672989D01*
X78752042Y-78742147D01*
X78739789Y-78780794D01*
X78706761Y-78845613D01*
X78628910Y-79085214D01*
X78589500Y-79334038D01*
X78589500Y-79585961D01*
X78628910Y-79834785D01*
X78706760Y-80074383D01*
X78732430Y-80124762D01*
X78787829Y-80233489D01*
X78821132Y-80298848D01*
X78969201Y-80502649D01*
X78969205Y-80502654D01*
X78969207Y-80502656D01*
X79147344Y-80680793D01*
X79147345Y-80680794D01*
X79147344Y-80680794D01*
X79153661Y-80685383D01*
X79196327Y-80740714D01*
X79202305Y-80810327D01*
X79169699Y-80872122D01*
X79108860Y-80906479D01*
X79061378Y-80908174D01*
X79006611Y-80899500D01*
X78833389Y-80899500D01*
X78793728Y-80905781D01*
X78662302Y-80926597D01*
X78497552Y-80980128D01*
X78343211Y-81058768D01*
X78263256Y-81116859D01*
X78203072Y-81160586D01*
X78203070Y-81160588D01*
X78203069Y-81160588D01*
X78080588Y-81283069D01*
X78080588Y-81283070D01*
X78080586Y-81283072D01*
X78036859Y-81343256D01*
X77978768Y-81423211D01*
X77900128Y-81577552D01*
X77846597Y-81742302D01*
X77829146Y-81852486D01*
X77819500Y-81913389D01*
X77819500Y-82086611D01*
X77846598Y-82257701D01*
X77900127Y-82422445D01*
X77978768Y-82576788D01*
X78080586Y-82716928D01*
X78203072Y-82839414D01*
X78343212Y-82941232D01*
X78497555Y-83019873D01*
X78662299Y-83073402D01*
X78833389Y-83100500D01*
X78833390Y-83100500D01*
X79006610Y-83100500D01*
X79006611Y-83100500D01*
X79177701Y-83073402D01*
X79342445Y-83019873D01*
X79409206Y-82985856D01*
X79477874Y-82972961D01*
X79542615Y-82999237D01*
X79582872Y-83056344D01*
X79589500Y-83096342D01*
X79589500Y-88770397D01*
X79569815Y-88837436D01*
X79521800Y-88880879D01*
X79508389Y-88887712D01*
X79342786Y-89008028D01*
X79198028Y-89152786D01*
X79077715Y-89318386D01*
X78984781Y-89500776D01*
X78921522Y-89695465D01*
X78889500Y-89897648D01*
X78889500Y-90102351D01*
X78921522Y-90304534D01*
X78984781Y-90499223D01*
X79032221Y-90592328D01*
X79064180Y-90655051D01*
X79077715Y-90681613D01*
X79198028Y-90847213D01*
X79342786Y-90991971D01*
X79497749Y-91104556D01*
X79508390Y-91112287D01*
X79597212Y-91157544D01*
X79690776Y-91205218D01*
X79690778Y-91205218D01*
X79690781Y-91205220D01*
X79795137Y-91239127D01*
X79885465Y-91268477D01*
X79986557Y-91284488D01*
X80087648Y-91300500D01*
X80087649Y-91300500D01*
X80292351Y-91300500D01*
X80292352Y-91300500D01*
X80494534Y-91268477D01*
X80689219Y-91205220D01*
X80871610Y-91112287D01*
X80967901Y-91042328D01*
X81037213Y-90991971D01*
X81037215Y-90991968D01*
X81037219Y-90991966D01*
X81181966Y-90847219D01*
X81181968Y-90847215D01*
X81181971Y-90847213D01*
X81251469Y-90751555D01*
X81302287Y-90681610D01*
X81395220Y-90499219D01*
X81458477Y-90304534D01*
X81490500Y-90102352D01*
X81490500Y-89897648D01*
X81458477Y-89695466D01*
X81395220Y-89500781D01*
X81395218Y-89500778D01*
X81395218Y-89500776D01*
X81302287Y-89318390D01*
X81232032Y-89221691D01*
X81232031Y-89221688D01*
X81181971Y-89152787D01*
X81181967Y-89152782D01*
X81181320Y-89152135D01*
X86509500Y-89152135D01*
X86509500Y-90847870D01*
X86509501Y-90847876D01*
X86515908Y-90907483D01*
X86566202Y-91042328D01*
X86566206Y-91042335D01*
X86652452Y-91157544D01*
X86652455Y-91157547D01*
X86767664Y-91243793D01*
X86767671Y-91243797D01*
X86902517Y-91294091D01*
X86902516Y-91294091D01*
X86909444Y-91294835D01*
X86962127Y-91300500D01*
X88657872Y-91300499D01*
X88717483Y-91294091D01*
X88852331Y-91243796D01*
X88967546Y-91157546D01*
X89053796Y-91042331D01*
X89104091Y-90907483D01*
X89110500Y-90847873D01*
X89110499Y-89152128D01*
X89104091Y-89092517D01*
X89053796Y-88957669D01*
X89053795Y-88957668D01*
X89053793Y-88957664D01*
X88967547Y-88842455D01*
X88967544Y-88842452D01*
X88852335Y-88756206D01*
X88852328Y-88756202D01*
X88717482Y-88705908D01*
X88717483Y-88705908D01*
X88657883Y-88699501D01*
X88657881Y-88699500D01*
X88657873Y-88699500D01*
X88657864Y-88699500D01*
X86962129Y-88699500D01*
X86962123Y-88699501D01*
X86902516Y-88705908D01*
X86767671Y-88756202D01*
X86767664Y-88756206D01*
X86652455Y-88842452D01*
X86652452Y-88842455D01*
X86566206Y-88957664D01*
X86566202Y-88957671D01*
X86515908Y-89092517D01*
X86509501Y-89152116D01*
X86509501Y-89152123D01*
X86509500Y-89152135D01*
X81181320Y-89152135D01*
X81037213Y-89008028D01*
X80871610Y-88887712D01*
X80858200Y-88880879D01*
X80807406Y-88832903D01*
X80790500Y-88770397D01*
X80790500Y-81852486D01*
X81749500Y-81852486D01*
X81749500Y-82147513D01*
X81765592Y-82269737D01*
X81788007Y-82439993D01*
X81862212Y-82716930D01*
X81864361Y-82724951D01*
X81864364Y-82724961D01*
X81977254Y-82997500D01*
X81977258Y-82997510D01*
X82124761Y-83252993D01*
X82304352Y-83487040D01*
X82304358Y-83487047D01*
X82512952Y-83695641D01*
X82512959Y-83695647D01*
X82747006Y-83875238D01*
X83002489Y-84022741D01*
X83002490Y-84022741D01*
X83002493Y-84022743D01*
X83275048Y-84135639D01*
X83560007Y-84211993D01*
X83852494Y-84250500D01*
X83852501Y-84250500D01*
X84147499Y-84250500D01*
X84147506Y-84250500D01*
X84439993Y-84211993D01*
X84724952Y-84135639D01*
X84997507Y-84022743D01*
X85252994Y-83875238D01*
X85487042Y-83695646D01*
X85695646Y-83487042D01*
X85875238Y-83252994D01*
X86022743Y-82997507D01*
X86135639Y-82724952D01*
X86211993Y-82439993D01*
X86250500Y-82147506D01*
X86250500Y-81913389D01*
X87979500Y-81913389D01*
X87979500Y-82086611D01*
X88006598Y-82257701D01*
X88060127Y-82422445D01*
X88138768Y-82576788D01*
X88240586Y-82716928D01*
X88363072Y-82839414D01*
X88503212Y-82941232D01*
X88657555Y-83019873D01*
X88822299Y-83073402D01*
X88993389Y-83100500D01*
X88993390Y-83100500D01*
X89166610Y-83100500D01*
X89166611Y-83100500D01*
X89337701Y-83073402D01*
X89502445Y-83019873D01*
X89656788Y-82941232D01*
X89796928Y-82839414D01*
X89919414Y-82716928D01*
X90021232Y-82576788D01*
X90099873Y-82422445D01*
X90153402Y-82257701D01*
X90180500Y-82086611D01*
X90180500Y-81913389D01*
X96819500Y-81913389D01*
X96819500Y-82086611D01*
X96846598Y-82257701D01*
X96900127Y-82422445D01*
X96978768Y-82576788D01*
X97080586Y-82716928D01*
X97203072Y-82839414D01*
X97343212Y-82941232D01*
X97497555Y-83019873D01*
X97662299Y-83073402D01*
X97833389Y-83100500D01*
X97833390Y-83100500D01*
X98006610Y-83100500D01*
X98006611Y-83100500D01*
X98177701Y-83073402D01*
X98342445Y-83019873D01*
X98409206Y-82985856D01*
X98477874Y-82972961D01*
X98542615Y-82999237D01*
X98582872Y-83056344D01*
X98589500Y-83096342D01*
X98589500Y-88770397D01*
X98569815Y-88837436D01*
X98521800Y-88880879D01*
X98508389Y-88887712D01*
X98342786Y-89008028D01*
X98198028Y-89152786D01*
X98077715Y-89318386D01*
X97984781Y-89500776D01*
X97921522Y-89695465D01*
X97889500Y-89897648D01*
X97889500Y-90102351D01*
X97921522Y-90304534D01*
X97984781Y-90499223D01*
X98032221Y-90592328D01*
X98064180Y-90655051D01*
X98077715Y-90681613D01*
X98198028Y-90847213D01*
X98342786Y-90991971D01*
X98497749Y-91104556D01*
X98508390Y-91112287D01*
X98597212Y-91157544D01*
X98690776Y-91205218D01*
X98690778Y-91205218D01*
X98690781Y-91205220D01*
X98795137Y-91239127D01*
X98885465Y-91268477D01*
X98986557Y-91284488D01*
X99087648Y-91300500D01*
X99087649Y-91300500D01*
X99292351Y-91300500D01*
X99292352Y-91300500D01*
X99494534Y-91268477D01*
X99689219Y-91205220D01*
X99871610Y-91112287D01*
X99967901Y-91042328D01*
X100037213Y-90991971D01*
X100037215Y-90991968D01*
X100037219Y-90991966D01*
X100181966Y-90847219D01*
X100181968Y-90847215D01*
X100181971Y-90847213D01*
X100251469Y-90751555D01*
X100302287Y-90681610D01*
X100395220Y-90499219D01*
X100458477Y-90304534D01*
X100490500Y-90102352D01*
X100490500Y-89897648D01*
X100458477Y-89695466D01*
X100395220Y-89500781D01*
X100395218Y-89500778D01*
X100395218Y-89500776D01*
X100302287Y-89318390D01*
X100232032Y-89221691D01*
X100232031Y-89221688D01*
X100181971Y-89152787D01*
X100181967Y-89152782D01*
X100181320Y-89152135D01*
X105509500Y-89152135D01*
X105509500Y-90847870D01*
X105509501Y-90847876D01*
X105515908Y-90907483D01*
X105566202Y-91042328D01*
X105566206Y-91042335D01*
X105652452Y-91157544D01*
X105652455Y-91157547D01*
X105767664Y-91243793D01*
X105767671Y-91243797D01*
X105902517Y-91294091D01*
X105902516Y-91294091D01*
X105909444Y-91294835D01*
X105962127Y-91300500D01*
X107657872Y-91300499D01*
X107717483Y-91294091D01*
X107852331Y-91243796D01*
X107967546Y-91157546D01*
X108053796Y-91042331D01*
X108104091Y-90907483D01*
X108110500Y-90847873D01*
X108110499Y-89152128D01*
X108104091Y-89092517D01*
X108053796Y-88957669D01*
X108053795Y-88957668D01*
X108053793Y-88957664D01*
X107967547Y-88842455D01*
X107967544Y-88842452D01*
X107852335Y-88756206D01*
X107852328Y-88756202D01*
X107717482Y-88705908D01*
X107717483Y-88705908D01*
X107657883Y-88699501D01*
X107657881Y-88699500D01*
X107657873Y-88699500D01*
X107657864Y-88699500D01*
X105962129Y-88699500D01*
X105962123Y-88699501D01*
X105902516Y-88705908D01*
X105767671Y-88756202D01*
X105767664Y-88756206D01*
X105652455Y-88842452D01*
X105652452Y-88842455D01*
X105566206Y-88957664D01*
X105566202Y-88957671D01*
X105515908Y-89092517D01*
X105509501Y-89152116D01*
X105509501Y-89152123D01*
X105509500Y-89152135D01*
X100181320Y-89152135D01*
X100037213Y-89008028D01*
X99871610Y-88887712D01*
X99858200Y-88880879D01*
X99807406Y-88832903D01*
X99790500Y-88770397D01*
X99790500Y-81852486D01*
X100749500Y-81852486D01*
X100749500Y-82147513D01*
X100765592Y-82269737D01*
X100788007Y-82439993D01*
X100862212Y-82716930D01*
X100864361Y-82724951D01*
X100864364Y-82724961D01*
X100977254Y-82997500D01*
X100977258Y-82997510D01*
X101124761Y-83252993D01*
X101304352Y-83487040D01*
X101304358Y-83487047D01*
X101512952Y-83695641D01*
X101512959Y-83695647D01*
X101747006Y-83875238D01*
X102002489Y-84022741D01*
X102002490Y-84022741D01*
X102002493Y-84022743D01*
X102275048Y-84135639D01*
X102560007Y-84211993D01*
X102852494Y-84250500D01*
X102852501Y-84250500D01*
X103147499Y-84250500D01*
X103147506Y-84250500D01*
X103439993Y-84211993D01*
X103724952Y-84135639D01*
X103997507Y-84022743D01*
X104252994Y-83875238D01*
X104487042Y-83695646D01*
X104695646Y-83487042D01*
X104875238Y-83252994D01*
X105022743Y-82997507D01*
X105135639Y-82724952D01*
X105211993Y-82439993D01*
X105250500Y-82147506D01*
X105250500Y-81913389D01*
X106979500Y-81913389D01*
X106979500Y-82086611D01*
X107006598Y-82257701D01*
X107060127Y-82422445D01*
X107138768Y-82576788D01*
X107240586Y-82716928D01*
X107363072Y-82839414D01*
X107503212Y-82941232D01*
X107657555Y-83019873D01*
X107822299Y-83073402D01*
X107993389Y-83100500D01*
X107993390Y-83100500D01*
X108166610Y-83100500D01*
X108166611Y-83100500D01*
X108337701Y-83073402D01*
X108502445Y-83019873D01*
X108656788Y-82941232D01*
X108796928Y-82839414D01*
X108919414Y-82716928D01*
X109021232Y-82576788D01*
X109099873Y-82422445D01*
X109153402Y-82257701D01*
X109180500Y-82086611D01*
X109180500Y-81913389D01*
X115819500Y-81913389D01*
X115819500Y-82086611D01*
X115846598Y-82257701D01*
X115900127Y-82422445D01*
X115978768Y-82576788D01*
X116080586Y-82716928D01*
X116203072Y-82839414D01*
X116343212Y-82941232D01*
X116497555Y-83019873D01*
X116662299Y-83073402D01*
X116833389Y-83100500D01*
X116833390Y-83100500D01*
X117006610Y-83100500D01*
X117006611Y-83100500D01*
X117177701Y-83073402D01*
X117342445Y-83019873D01*
X117409206Y-82985856D01*
X117477874Y-82972961D01*
X117542615Y-82999237D01*
X117582872Y-83056344D01*
X117589500Y-83096342D01*
X117589500Y-88770397D01*
X117569815Y-88837436D01*
X117521800Y-88880879D01*
X117508389Y-88887712D01*
X117342786Y-89008028D01*
X117198028Y-89152786D01*
X117077715Y-89318386D01*
X116984781Y-89500776D01*
X116921522Y-89695465D01*
X116889500Y-89897648D01*
X116889500Y-90102351D01*
X116921522Y-90304534D01*
X116984781Y-90499223D01*
X117032221Y-90592328D01*
X117064180Y-90655051D01*
X117077715Y-90681613D01*
X117198028Y-90847213D01*
X117342786Y-90991971D01*
X117497749Y-91104556D01*
X117508390Y-91112287D01*
X117597212Y-91157544D01*
X117690776Y-91205218D01*
X117690778Y-91205218D01*
X117690781Y-91205220D01*
X117795137Y-91239127D01*
X117885465Y-91268477D01*
X117986557Y-91284488D01*
X118087648Y-91300500D01*
X118087649Y-91300500D01*
X118292351Y-91300500D01*
X118292352Y-91300500D01*
X118494534Y-91268477D01*
X118689219Y-91205220D01*
X118871610Y-91112287D01*
X118967901Y-91042328D01*
X119037213Y-90991971D01*
X119037215Y-90991968D01*
X119037219Y-90991966D01*
X119181966Y-90847219D01*
X119181968Y-90847215D01*
X119181971Y-90847213D01*
X119251469Y-90751555D01*
X119302287Y-90681610D01*
X119395220Y-90499219D01*
X119458477Y-90304534D01*
X119490500Y-90102352D01*
X119490500Y-89897648D01*
X119458477Y-89695466D01*
X119395220Y-89500781D01*
X119395218Y-89500778D01*
X119395218Y-89500776D01*
X119302287Y-89318390D01*
X119232032Y-89221691D01*
X119232031Y-89221688D01*
X119181971Y-89152787D01*
X119181967Y-89152782D01*
X119181320Y-89152135D01*
X124509500Y-89152135D01*
X124509500Y-90847870D01*
X124509501Y-90847876D01*
X124515908Y-90907483D01*
X124566202Y-91042328D01*
X124566206Y-91042335D01*
X124652452Y-91157544D01*
X124652455Y-91157547D01*
X124767664Y-91243793D01*
X124767671Y-91243797D01*
X124902517Y-91294091D01*
X124902516Y-91294091D01*
X124909444Y-91294835D01*
X124962127Y-91300500D01*
X126657872Y-91300499D01*
X126717483Y-91294091D01*
X126852331Y-91243796D01*
X126967546Y-91157546D01*
X127053796Y-91042331D01*
X127104091Y-90907483D01*
X127110500Y-90847873D01*
X127110499Y-89152128D01*
X127104091Y-89092517D01*
X127053796Y-88957669D01*
X127053795Y-88957668D01*
X127053793Y-88957664D01*
X126967547Y-88842455D01*
X126967544Y-88842452D01*
X126852335Y-88756206D01*
X126852328Y-88756202D01*
X126717482Y-88705908D01*
X126717483Y-88705908D01*
X126657883Y-88699501D01*
X126657881Y-88699500D01*
X126657873Y-88699500D01*
X126657864Y-88699500D01*
X124962129Y-88699500D01*
X124962123Y-88699501D01*
X124902516Y-88705908D01*
X124767671Y-88756202D01*
X124767664Y-88756206D01*
X124652455Y-88842452D01*
X124652452Y-88842455D01*
X124566206Y-88957664D01*
X124566202Y-88957671D01*
X124515908Y-89092517D01*
X124509501Y-89152116D01*
X124509501Y-89152123D01*
X124509500Y-89152135D01*
X119181320Y-89152135D01*
X119037213Y-89008028D01*
X118871610Y-88887712D01*
X118858200Y-88880879D01*
X118807406Y-88832903D01*
X118790500Y-88770397D01*
X118790500Y-81852486D01*
X119749500Y-81852486D01*
X119749500Y-82147513D01*
X119765592Y-82269737D01*
X119788007Y-82439993D01*
X119862212Y-82716930D01*
X119864361Y-82724951D01*
X119864364Y-82724961D01*
X119977254Y-82997500D01*
X119977258Y-82997510D01*
X120124761Y-83252993D01*
X120304352Y-83487040D01*
X120304358Y-83487047D01*
X120512952Y-83695641D01*
X120512959Y-83695647D01*
X120747006Y-83875238D01*
X121002489Y-84022741D01*
X121002490Y-84022741D01*
X121002493Y-84022743D01*
X121275048Y-84135639D01*
X121560007Y-84211993D01*
X121852494Y-84250500D01*
X121852501Y-84250500D01*
X122147499Y-84250500D01*
X122147506Y-84250500D01*
X122439993Y-84211993D01*
X122724952Y-84135639D01*
X122997507Y-84022743D01*
X123252994Y-83875238D01*
X123487042Y-83695646D01*
X123695646Y-83487042D01*
X123875238Y-83252994D01*
X124022743Y-82997507D01*
X124135639Y-82724952D01*
X124211993Y-82439993D01*
X124250500Y-82147506D01*
X124250500Y-81913389D01*
X125979500Y-81913389D01*
X125979500Y-82086611D01*
X126006598Y-82257701D01*
X126060127Y-82422445D01*
X126138768Y-82576788D01*
X126240586Y-82716928D01*
X126363072Y-82839414D01*
X126503212Y-82941232D01*
X126657555Y-83019873D01*
X126822299Y-83073402D01*
X126993389Y-83100500D01*
X126993390Y-83100500D01*
X127166610Y-83100500D01*
X127166611Y-83100500D01*
X127337701Y-83073402D01*
X127502445Y-83019873D01*
X127656788Y-82941232D01*
X127796928Y-82839414D01*
X127919414Y-82716928D01*
X128021232Y-82576788D01*
X128099873Y-82422445D01*
X128153402Y-82257701D01*
X128180500Y-82086611D01*
X128180500Y-81913389D01*
X134819500Y-81913389D01*
X134819500Y-82086611D01*
X134846598Y-82257701D01*
X134900127Y-82422445D01*
X134978768Y-82576788D01*
X135080586Y-82716928D01*
X135203072Y-82839414D01*
X135343212Y-82941232D01*
X135497555Y-83019873D01*
X135662299Y-83073402D01*
X135833389Y-83100500D01*
X135833390Y-83100500D01*
X136006610Y-83100500D01*
X136006611Y-83100500D01*
X136177701Y-83073402D01*
X136342445Y-83019873D01*
X136409206Y-82985856D01*
X136477874Y-82972961D01*
X136542615Y-82999237D01*
X136582872Y-83056344D01*
X136589500Y-83096342D01*
X136589500Y-88770397D01*
X136569815Y-88837436D01*
X136521800Y-88880879D01*
X136508389Y-88887712D01*
X136342786Y-89008028D01*
X136198028Y-89152786D01*
X136077715Y-89318386D01*
X135984781Y-89500776D01*
X135921522Y-89695465D01*
X135889500Y-89897648D01*
X135889500Y-90102351D01*
X135921522Y-90304534D01*
X135984781Y-90499223D01*
X136032221Y-90592328D01*
X136064180Y-90655051D01*
X136077715Y-90681613D01*
X136198028Y-90847213D01*
X136342786Y-90991971D01*
X136497749Y-91104556D01*
X136508390Y-91112287D01*
X136597212Y-91157544D01*
X136690776Y-91205218D01*
X136690778Y-91205218D01*
X136690781Y-91205220D01*
X136795137Y-91239127D01*
X136885465Y-91268477D01*
X136986557Y-91284488D01*
X137087648Y-91300500D01*
X137087649Y-91300500D01*
X137292351Y-91300500D01*
X137292352Y-91300500D01*
X137494534Y-91268477D01*
X137689219Y-91205220D01*
X137871610Y-91112287D01*
X137967901Y-91042328D01*
X138037213Y-90991971D01*
X138037215Y-90991968D01*
X138037219Y-90991966D01*
X138181966Y-90847219D01*
X138181968Y-90847215D01*
X138181971Y-90847213D01*
X138251469Y-90751555D01*
X138302287Y-90681610D01*
X138395220Y-90499219D01*
X138458477Y-90304534D01*
X138490500Y-90102352D01*
X138490500Y-89897648D01*
X138458477Y-89695466D01*
X138395220Y-89500781D01*
X138395218Y-89500778D01*
X138395218Y-89500776D01*
X138302287Y-89318390D01*
X138232032Y-89221691D01*
X138232031Y-89221688D01*
X138181971Y-89152787D01*
X138181967Y-89152782D01*
X138181320Y-89152135D01*
X143509500Y-89152135D01*
X143509500Y-90847870D01*
X143509501Y-90847876D01*
X143515908Y-90907483D01*
X143566202Y-91042328D01*
X143566206Y-91042335D01*
X143652452Y-91157544D01*
X143652455Y-91157547D01*
X143767664Y-91243793D01*
X143767671Y-91243797D01*
X143902517Y-91294091D01*
X143902516Y-91294091D01*
X143909444Y-91294835D01*
X143962127Y-91300500D01*
X145657872Y-91300499D01*
X145717483Y-91294091D01*
X145852331Y-91243796D01*
X145967546Y-91157546D01*
X146053796Y-91042331D01*
X146104091Y-90907483D01*
X146110500Y-90847873D01*
X146110499Y-89152128D01*
X146104091Y-89092517D01*
X146053796Y-88957669D01*
X146053795Y-88957668D01*
X146053793Y-88957664D01*
X145967547Y-88842455D01*
X145967544Y-88842452D01*
X145852335Y-88756206D01*
X145852328Y-88756202D01*
X145717482Y-88705908D01*
X145717483Y-88705908D01*
X145657883Y-88699501D01*
X145657881Y-88699500D01*
X145657873Y-88699500D01*
X145657864Y-88699500D01*
X143962129Y-88699500D01*
X143962123Y-88699501D01*
X143902516Y-88705908D01*
X143767671Y-88756202D01*
X143767664Y-88756206D01*
X143652455Y-88842452D01*
X143652452Y-88842455D01*
X143566206Y-88957664D01*
X143566202Y-88957671D01*
X143515908Y-89092517D01*
X143509501Y-89152116D01*
X143509501Y-89152123D01*
X143509500Y-89152135D01*
X138181320Y-89152135D01*
X138037213Y-89008028D01*
X137871610Y-88887712D01*
X137858200Y-88880879D01*
X137807406Y-88832903D01*
X137790500Y-88770397D01*
X137790500Y-81852486D01*
X138749500Y-81852486D01*
X138749500Y-82147513D01*
X138765592Y-82269737D01*
X138788007Y-82439993D01*
X138862212Y-82716930D01*
X138864361Y-82724951D01*
X138864364Y-82724961D01*
X138977254Y-82997500D01*
X138977258Y-82997510D01*
X139124761Y-83252993D01*
X139304352Y-83487040D01*
X139304358Y-83487047D01*
X139512952Y-83695641D01*
X139512959Y-83695647D01*
X139747006Y-83875238D01*
X140002489Y-84022741D01*
X140002490Y-84022741D01*
X140002493Y-84022743D01*
X140275048Y-84135639D01*
X140560007Y-84211993D01*
X140852494Y-84250500D01*
X140852501Y-84250500D01*
X141147499Y-84250500D01*
X141147506Y-84250500D01*
X141439993Y-84211993D01*
X141724952Y-84135639D01*
X141997507Y-84022743D01*
X142252994Y-83875238D01*
X142487042Y-83695646D01*
X142695646Y-83487042D01*
X142875238Y-83252994D01*
X143022743Y-82997507D01*
X143135639Y-82724952D01*
X143211993Y-82439993D01*
X143250500Y-82147506D01*
X143250500Y-81913389D01*
X144979500Y-81913389D01*
X144979500Y-82086611D01*
X145006598Y-82257701D01*
X145060127Y-82422445D01*
X145138768Y-82576788D01*
X145240586Y-82716928D01*
X145363072Y-82839414D01*
X145503212Y-82941232D01*
X145657555Y-83019873D01*
X145822299Y-83073402D01*
X145993389Y-83100500D01*
X145993390Y-83100500D01*
X146166610Y-83100500D01*
X146166611Y-83100500D01*
X146337701Y-83073402D01*
X146502445Y-83019873D01*
X146656788Y-82941232D01*
X146796928Y-82839414D01*
X146919414Y-82716928D01*
X147021232Y-82576788D01*
X147099873Y-82422445D01*
X147153402Y-82257701D01*
X147180500Y-82086611D01*
X147180500Y-81913389D01*
X147153402Y-81742299D01*
X147099873Y-81577555D01*
X147021232Y-81423212D01*
X146919414Y-81283072D01*
X146796928Y-81160586D01*
X146656788Y-81058768D01*
X146502445Y-80980127D01*
X146337701Y-80926598D01*
X146337699Y-80926597D01*
X146337698Y-80926597D01*
X146206271Y-80905781D01*
X146166611Y-80899500D01*
X145993389Y-80899500D01*
X145953728Y-80905781D01*
X145822302Y-80926597D01*
X145657552Y-80980128D01*
X145503211Y-81058768D01*
X145423256Y-81116859D01*
X145363072Y-81160586D01*
X145363070Y-81160588D01*
X145363069Y-81160588D01*
X145240588Y-81283069D01*
X145240588Y-81283070D01*
X145240586Y-81283072D01*
X145196859Y-81343256D01*
X145138768Y-81423211D01*
X145060128Y-81577552D01*
X145006597Y-81742302D01*
X144989146Y-81852486D01*
X144979500Y-81913389D01*
X143250500Y-81913389D01*
X143250500Y-81852494D01*
X143211993Y-81560007D01*
X143135639Y-81275048D01*
X143132102Y-81266510D01*
X143073954Y-81126127D01*
X143022743Y-81002493D01*
X143015363Y-80989711D01*
X142875238Y-80747006D01*
X142695647Y-80512959D01*
X142695641Y-80512952D01*
X142487047Y-80304358D01*
X142487040Y-80304352D01*
X142252993Y-80124761D01*
X141997510Y-79977258D01*
X141997500Y-79977254D01*
X141724961Y-79864364D01*
X141724954Y-79864362D01*
X141724952Y-79864361D01*
X141439993Y-79788007D01*
X141391113Y-79781571D01*
X141147513Y-79749500D01*
X141147506Y-79749500D01*
X140852494Y-79749500D01*
X140852486Y-79749500D01*
X140574085Y-79786153D01*
X140560007Y-79788007D01*
X140385428Y-79834785D01*
X140275048Y-79864361D01*
X140275038Y-79864364D01*
X140002499Y-79977254D01*
X140002489Y-79977258D01*
X139747006Y-80124761D01*
X139512959Y-80304352D01*
X139512952Y-80304358D01*
X139304358Y-80512952D01*
X139304352Y-80512959D01*
X139124761Y-80747006D01*
X138977258Y-81002489D01*
X138977254Y-81002499D01*
X138864364Y-81275038D01*
X138864361Y-81275048D01*
X138788008Y-81560004D01*
X138788006Y-81560015D01*
X138749500Y-81852486D01*
X137790500Y-81852486D01*
X137790500Y-81026300D01*
X137810185Y-80959261D01*
X137858204Y-80915815D01*
X138028845Y-80828870D01*
X138232656Y-80680793D01*
X138410793Y-80502656D01*
X138558870Y-80298845D01*
X138673241Y-80074379D01*
X138751090Y-79834785D01*
X138790500Y-79585962D01*
X138790500Y-79334038D01*
X138751090Y-79085215D01*
X138673241Y-78845621D01*
X138673239Y-78845618D01*
X138673239Y-78845616D01*
X138605221Y-78712125D01*
X138558870Y-78621155D01*
X138457107Y-78481090D01*
X138410798Y-78417350D01*
X138410794Y-78417345D01*
X138232654Y-78239205D01*
X138232649Y-78239201D01*
X138028848Y-78091132D01*
X138028847Y-78091131D01*
X138028845Y-78091130D01*
X137958747Y-78055413D01*
X137804383Y-77976760D01*
X137564785Y-77898910D01*
X137315962Y-77859500D01*
X137064038Y-77859500D01*
X136939626Y-77879205D01*
X136815214Y-77898910D01*
X136575616Y-77976760D01*
X136351151Y-78091132D01*
X136147350Y-78239201D01*
X136147345Y-78239205D01*
X135969205Y-78417345D01*
X135969201Y-78417350D01*
X135821132Y-78621151D01*
X135706760Y-78845616D01*
X135628910Y-79085214D01*
X135589500Y-79334038D01*
X135589500Y-79585961D01*
X135628910Y-79834785D01*
X135706760Y-80074383D01*
X135732430Y-80124762D01*
X135787829Y-80233489D01*
X135821132Y-80298848D01*
X135969201Y-80502649D01*
X135969205Y-80502654D01*
X135969207Y-80502656D01*
X136147344Y-80680793D01*
X136147345Y-80680794D01*
X136147344Y-80680794D01*
X136153661Y-80685383D01*
X136196327Y-80740714D01*
X136202305Y-80810327D01*
X136169699Y-80872122D01*
X136108860Y-80906479D01*
X136061378Y-80908174D01*
X136006611Y-80899500D01*
X135833389Y-80899500D01*
X135793728Y-80905781D01*
X135662302Y-80926597D01*
X135497552Y-80980128D01*
X135343211Y-81058768D01*
X135263256Y-81116859D01*
X135203072Y-81160586D01*
X135203070Y-81160588D01*
X135203069Y-81160588D01*
X135080588Y-81283069D01*
X135080588Y-81283070D01*
X135080586Y-81283072D01*
X135036859Y-81343256D01*
X134978768Y-81423211D01*
X134900128Y-81577552D01*
X134846597Y-81742302D01*
X134829146Y-81852486D01*
X134819500Y-81913389D01*
X128180500Y-81913389D01*
X128153402Y-81742299D01*
X128099873Y-81577555D01*
X128021232Y-81423212D01*
X127919414Y-81283072D01*
X127796928Y-81160586D01*
X127656788Y-81058768D01*
X127502445Y-80980127D01*
X127337701Y-80926598D01*
X127337699Y-80926597D01*
X127337698Y-80926597D01*
X127206271Y-80905781D01*
X127166611Y-80899500D01*
X126993389Y-80899500D01*
X126953728Y-80905781D01*
X126822302Y-80926597D01*
X126657552Y-80980128D01*
X126503211Y-81058768D01*
X126423256Y-81116859D01*
X126363072Y-81160586D01*
X126363070Y-81160588D01*
X126363069Y-81160588D01*
X126240588Y-81283069D01*
X126240588Y-81283070D01*
X126240586Y-81283072D01*
X126196859Y-81343256D01*
X126138768Y-81423211D01*
X126060128Y-81577552D01*
X126006597Y-81742302D01*
X125989146Y-81852486D01*
X125979500Y-81913389D01*
X124250500Y-81913389D01*
X124250500Y-81852494D01*
X124211993Y-81560007D01*
X124135639Y-81275048D01*
X124132102Y-81266510D01*
X124073954Y-81126127D01*
X124022743Y-81002493D01*
X124015363Y-80989711D01*
X123875238Y-80747006D01*
X123695647Y-80512959D01*
X123695641Y-80512952D01*
X123487047Y-80304358D01*
X123487040Y-80304352D01*
X123252993Y-80124761D01*
X122997510Y-79977258D01*
X122997500Y-79977254D01*
X122724961Y-79864364D01*
X122724954Y-79864362D01*
X122724952Y-79864361D01*
X122439993Y-79788007D01*
X122391113Y-79781571D01*
X122147513Y-79749500D01*
X122147506Y-79749500D01*
X121852494Y-79749500D01*
X121852486Y-79749500D01*
X121574085Y-79786153D01*
X121560007Y-79788007D01*
X121385428Y-79834785D01*
X121275048Y-79864361D01*
X121275038Y-79864364D01*
X121002499Y-79977254D01*
X121002489Y-79977258D01*
X120747006Y-80124761D01*
X120512959Y-80304352D01*
X120512952Y-80304358D01*
X120304358Y-80512952D01*
X120304352Y-80512959D01*
X120124761Y-80747006D01*
X119977258Y-81002489D01*
X119977254Y-81002499D01*
X119864364Y-81275038D01*
X119864361Y-81275048D01*
X119788008Y-81560004D01*
X119788006Y-81560015D01*
X119749500Y-81852486D01*
X118790500Y-81852486D01*
X118790500Y-81026300D01*
X118810185Y-80959261D01*
X118858204Y-80915815D01*
X119028845Y-80828870D01*
X119232656Y-80680793D01*
X119410793Y-80502656D01*
X119558870Y-80298845D01*
X119673241Y-80074379D01*
X119751090Y-79834785D01*
X119790500Y-79585962D01*
X119790500Y-79334038D01*
X119751090Y-79085215D01*
X119673241Y-78845621D01*
X119673239Y-78845618D01*
X119673239Y-78845616D01*
X119605221Y-78712125D01*
X119558870Y-78621155D01*
X119457107Y-78481090D01*
X119410798Y-78417350D01*
X119410794Y-78417345D01*
X119232654Y-78239205D01*
X119232649Y-78239201D01*
X119028848Y-78091132D01*
X119028847Y-78091131D01*
X119028845Y-78091130D01*
X118958747Y-78055413D01*
X118804383Y-77976760D01*
X118564785Y-77898910D01*
X118315962Y-77859500D01*
X118064038Y-77859500D01*
X117939626Y-77879205D01*
X117815214Y-77898910D01*
X117575616Y-77976760D01*
X117351151Y-78091132D01*
X117147350Y-78239201D01*
X117147345Y-78239205D01*
X116969205Y-78417345D01*
X116969201Y-78417350D01*
X116821132Y-78621151D01*
X116706760Y-78845616D01*
X116628910Y-79085214D01*
X116589500Y-79334038D01*
X116589500Y-79585961D01*
X116628910Y-79834785D01*
X116706760Y-80074383D01*
X116732430Y-80124762D01*
X116787829Y-80233489D01*
X116821132Y-80298848D01*
X116969201Y-80502649D01*
X116969205Y-80502654D01*
X116969207Y-80502656D01*
X117147344Y-80680793D01*
X117147345Y-80680794D01*
X117147344Y-80680794D01*
X117153661Y-80685383D01*
X117196327Y-80740714D01*
X117202305Y-80810327D01*
X117169699Y-80872122D01*
X117108860Y-80906479D01*
X117061378Y-80908174D01*
X117006611Y-80899500D01*
X116833389Y-80899500D01*
X116793728Y-80905781D01*
X116662302Y-80926597D01*
X116497552Y-80980128D01*
X116343211Y-81058768D01*
X116263256Y-81116859D01*
X116203072Y-81160586D01*
X116203070Y-81160588D01*
X116203069Y-81160588D01*
X116080588Y-81283069D01*
X116080588Y-81283070D01*
X116080586Y-81283072D01*
X116036859Y-81343256D01*
X115978768Y-81423211D01*
X115900128Y-81577552D01*
X115846597Y-81742302D01*
X115829146Y-81852486D01*
X115819500Y-81913389D01*
X109180500Y-81913389D01*
X109153402Y-81742299D01*
X109099873Y-81577555D01*
X109021232Y-81423212D01*
X108919414Y-81283072D01*
X108796928Y-81160586D01*
X108656788Y-81058768D01*
X108502445Y-80980127D01*
X108337701Y-80926598D01*
X108337699Y-80926597D01*
X108337698Y-80926597D01*
X108206271Y-80905781D01*
X108166611Y-80899500D01*
X107993389Y-80899500D01*
X107953728Y-80905781D01*
X107822302Y-80926597D01*
X107657552Y-80980128D01*
X107503211Y-81058768D01*
X107423256Y-81116859D01*
X107363072Y-81160586D01*
X107363070Y-81160588D01*
X107363069Y-81160588D01*
X107240588Y-81283069D01*
X107240588Y-81283070D01*
X107240586Y-81283072D01*
X107196859Y-81343256D01*
X107138768Y-81423211D01*
X107060128Y-81577552D01*
X107006597Y-81742302D01*
X106989146Y-81852486D01*
X106979500Y-81913389D01*
X105250500Y-81913389D01*
X105250500Y-81852494D01*
X105211993Y-81560007D01*
X105135639Y-81275048D01*
X105132102Y-81266510D01*
X105073954Y-81126127D01*
X105022743Y-81002493D01*
X105015363Y-80989711D01*
X104875238Y-80747006D01*
X104695647Y-80512959D01*
X104695641Y-80512952D01*
X104487047Y-80304358D01*
X104487040Y-80304352D01*
X104252993Y-80124761D01*
X103997510Y-79977258D01*
X103997500Y-79977254D01*
X103724961Y-79864364D01*
X103724954Y-79864362D01*
X103724952Y-79864361D01*
X103439993Y-79788007D01*
X103391113Y-79781571D01*
X103147513Y-79749500D01*
X103147506Y-79749500D01*
X102852494Y-79749500D01*
X102852486Y-79749500D01*
X102574085Y-79786153D01*
X102560007Y-79788007D01*
X102385428Y-79834785D01*
X102275048Y-79864361D01*
X102275038Y-79864364D01*
X102002499Y-79977254D01*
X102002489Y-79977258D01*
X101747006Y-80124761D01*
X101512959Y-80304352D01*
X101512952Y-80304358D01*
X101304358Y-80512952D01*
X101304352Y-80512959D01*
X101124761Y-80747006D01*
X100977258Y-81002489D01*
X100977254Y-81002499D01*
X100864364Y-81275038D01*
X100864361Y-81275048D01*
X100788008Y-81560004D01*
X100788006Y-81560015D01*
X100749500Y-81852486D01*
X99790500Y-81852486D01*
X99790500Y-81026300D01*
X99810185Y-80959261D01*
X99858204Y-80915815D01*
X100028845Y-80828870D01*
X100232656Y-80680793D01*
X100410793Y-80502656D01*
X100558870Y-80298845D01*
X100673241Y-80074379D01*
X100751090Y-79834785D01*
X100790500Y-79585962D01*
X100790500Y-79334038D01*
X100751090Y-79085215D01*
X100673241Y-78845621D01*
X100673239Y-78845618D01*
X100673239Y-78845616D01*
X100605221Y-78712125D01*
X100558870Y-78621155D01*
X100457107Y-78481090D01*
X100410798Y-78417350D01*
X100410794Y-78417345D01*
X100232654Y-78239205D01*
X100232649Y-78239201D01*
X100028848Y-78091132D01*
X100028847Y-78091131D01*
X100028845Y-78091130D01*
X99958747Y-78055413D01*
X99804383Y-77976760D01*
X99564785Y-77898910D01*
X99315962Y-77859500D01*
X99064038Y-77859500D01*
X98939626Y-77879205D01*
X98815214Y-77898910D01*
X98575616Y-77976760D01*
X98351151Y-78091132D01*
X98147350Y-78239201D01*
X98147345Y-78239205D01*
X97969205Y-78417345D01*
X97969201Y-78417350D01*
X97821132Y-78621151D01*
X97706760Y-78845616D01*
X97628910Y-79085214D01*
X97589500Y-79334038D01*
X97589500Y-79585961D01*
X97628910Y-79834785D01*
X97706760Y-80074383D01*
X97732430Y-80124762D01*
X97787829Y-80233489D01*
X97821132Y-80298848D01*
X97969201Y-80502649D01*
X97969205Y-80502654D01*
X97969207Y-80502656D01*
X98147344Y-80680793D01*
X98147345Y-80680794D01*
X98147344Y-80680794D01*
X98153661Y-80685383D01*
X98196327Y-80740714D01*
X98202305Y-80810327D01*
X98169699Y-80872122D01*
X98108860Y-80906479D01*
X98061378Y-80908174D01*
X98006611Y-80899500D01*
X97833389Y-80899500D01*
X97793728Y-80905781D01*
X97662302Y-80926597D01*
X97497552Y-80980128D01*
X97343211Y-81058768D01*
X97263256Y-81116859D01*
X97203072Y-81160586D01*
X97203070Y-81160588D01*
X97203069Y-81160588D01*
X97080588Y-81283069D01*
X97080588Y-81283070D01*
X97080586Y-81283072D01*
X97036859Y-81343256D01*
X96978768Y-81423211D01*
X96900128Y-81577552D01*
X96846597Y-81742302D01*
X96829146Y-81852486D01*
X96819500Y-81913389D01*
X90180500Y-81913389D01*
X90153402Y-81742299D01*
X90099873Y-81577555D01*
X90021232Y-81423212D01*
X89919414Y-81283072D01*
X89796928Y-81160586D01*
X89656788Y-81058768D01*
X89502445Y-80980127D01*
X89337701Y-80926598D01*
X89337699Y-80926597D01*
X89337698Y-80926597D01*
X89206271Y-80905781D01*
X89166611Y-80899500D01*
X88993389Y-80899500D01*
X88953728Y-80905781D01*
X88822302Y-80926597D01*
X88657552Y-80980128D01*
X88503211Y-81058768D01*
X88423256Y-81116859D01*
X88363072Y-81160586D01*
X88363070Y-81160588D01*
X88363069Y-81160588D01*
X88240588Y-81283069D01*
X88240588Y-81283070D01*
X88240586Y-81283072D01*
X88196859Y-81343256D01*
X88138768Y-81423211D01*
X88060128Y-81577552D01*
X88006597Y-81742302D01*
X87989146Y-81852486D01*
X87979500Y-81913389D01*
X86250500Y-81913389D01*
X86250500Y-81852494D01*
X86211993Y-81560007D01*
X86135639Y-81275048D01*
X86132102Y-81266510D01*
X86073954Y-81126127D01*
X86022743Y-81002493D01*
X86015363Y-80989711D01*
X85875238Y-80747006D01*
X85695647Y-80512959D01*
X85695641Y-80512952D01*
X85487047Y-80304358D01*
X85487040Y-80304352D01*
X85252993Y-80124761D01*
X85075789Y-80022453D01*
X84997510Y-79977258D01*
X84997500Y-79977254D01*
X84862061Y-79921153D01*
X92199500Y-79921153D01*
X92199500Y-80078846D01*
X92230261Y-80233489D01*
X92230264Y-80233501D01*
X92290602Y-80379172D01*
X92290609Y-80379185D01*
X92378210Y-80510288D01*
X92378213Y-80510292D01*
X92489707Y-80621786D01*
X92489711Y-80621789D01*
X92620814Y-80709390D01*
X92620827Y-80709397D01*
X92711625Y-80747006D01*
X92766503Y-80769737D01*
X92921153Y-80800499D01*
X92921156Y-80800500D01*
X92921158Y-80800500D01*
X93078844Y-80800500D01*
X93078845Y-80800499D01*
X93233497Y-80769737D01*
X93379179Y-80709394D01*
X93510289Y-80621789D01*
X93621789Y-80510289D01*
X93709394Y-80379179D01*
X93769737Y-80233497D01*
X93791366Y-80124761D01*
X93800638Y-80078150D01*
X93833023Y-80016239D01*
X93834519Y-80014715D01*
X97858506Y-75990727D01*
X97858511Y-75990724D01*
X97868714Y-75980520D01*
X97868716Y-75980520D01*
X97980520Y-75868716D01*
X98031728Y-75780021D01*
X98059577Y-75731785D01*
X98100501Y-75579057D01*
X98100501Y-75420943D01*
X98100501Y-75413348D01*
X98100500Y-75413330D01*
X98100500Y-72049047D01*
X98120185Y-71982008D01*
X98172989Y-71936253D01*
X98242147Y-71926309D01*
X98305703Y-71955334D01*
X98312181Y-71961366D01*
X98342786Y-71991971D01*
X98479742Y-72091473D01*
X98508390Y-72112287D01*
X98597212Y-72157544D01*
X98690776Y-72205218D01*
X98690778Y-72205218D01*
X98690781Y-72205220D01*
X98736205Y-72219979D01*
X98885465Y-72268477D01*
X98986557Y-72284488D01*
X99087648Y-72300500D01*
X99087649Y-72300500D01*
X99292351Y-72300500D01*
X99292352Y-72300500D01*
X99494534Y-72268477D01*
X99689219Y-72205220D01*
X99871610Y-72112287D01*
X99967901Y-72042328D01*
X100037213Y-71991971D01*
X100037215Y-71991968D01*
X100037219Y-71991966D01*
X100181966Y-71847219D01*
X100181968Y-71847215D01*
X100181971Y-71847213D01*
X100234732Y-71774590D01*
X100302287Y-71681610D01*
X100395220Y-71499219D01*
X100458477Y-71304534D01*
X100490500Y-71102352D01*
X100490500Y-70897648D01*
X100468570Y-70759187D01*
X100458477Y-70695465D01*
X100420584Y-70578844D01*
X100395220Y-70500781D01*
X100395218Y-70500778D01*
X100395218Y-70500776D01*
X100354647Y-70421153D01*
X100302287Y-70318390D01*
X100279500Y-70287026D01*
X100181971Y-70152786D01*
X100037213Y-70008028D01*
X99871610Y-69887712D01*
X99858200Y-69880879D01*
X99807406Y-69832903D01*
X99790500Y-69770397D01*
X99790500Y-62026300D01*
X99810185Y-61959261D01*
X99858204Y-61915815D01*
X100028845Y-61828870D01*
X100232656Y-61680793D01*
X100410793Y-61502656D01*
X100558870Y-61298845D01*
X100673241Y-61074379D01*
X100751090Y-60834785D01*
X100790500Y-60585962D01*
X100790500Y-60334038D01*
X100751090Y-60085215D01*
X100673241Y-59845621D01*
X100673239Y-59845618D01*
X100673239Y-59845616D01*
X100589447Y-59681166D01*
X100558870Y-59621155D01*
X100485740Y-59520500D01*
X100410798Y-59417350D01*
X100410794Y-59417345D01*
X100232654Y-59239205D01*
X100232649Y-59239201D01*
X100028848Y-59091132D01*
X100028847Y-59091131D01*
X100028845Y-59091130D01*
X99927109Y-59039293D01*
X99804383Y-58976760D01*
X99564785Y-58898910D01*
X99440165Y-58879172D01*
X99315962Y-58859500D01*
X99064038Y-58859500D01*
X98939835Y-58879172D01*
X98815214Y-58898910D01*
X98575616Y-58976760D01*
X98351151Y-59091132D01*
X98147350Y-59239201D01*
X98147345Y-59239205D01*
X97969205Y-59417345D01*
X97969201Y-59417350D01*
X97821132Y-59621151D01*
X97706760Y-59845616D01*
X97628910Y-60085214D01*
X97605425Y-60233491D01*
X97589500Y-60334038D01*
X97589500Y-60585962D01*
X97620111Y-60779230D01*
X97628910Y-60834785D01*
X97706760Y-61074383D01*
X97732430Y-61124762D01*
X97810662Y-61278301D01*
X97821132Y-61298848D01*
X97969201Y-61502649D01*
X97969205Y-61502654D01*
X97969207Y-61502656D01*
X98147344Y-61680793D01*
X98147345Y-61680794D01*
X98147344Y-61680794D01*
X98153661Y-61685383D01*
X98196327Y-61740714D01*
X98202305Y-61810327D01*
X98169699Y-61872122D01*
X98108860Y-61906479D01*
X98061378Y-61908174D01*
X98006611Y-61899500D01*
X97833389Y-61899500D01*
X97793728Y-61905781D01*
X97662302Y-61926597D01*
X97497552Y-61980128D01*
X97343211Y-62058768D01*
X97319019Y-62076345D01*
X97203072Y-62160586D01*
X97203070Y-62160588D01*
X97203069Y-62160588D01*
X97080588Y-62283069D01*
X97080588Y-62283070D01*
X97080586Y-62283072D01*
X97045380Y-62331529D01*
X96978768Y-62423211D01*
X96900128Y-62577552D01*
X96846597Y-62742302D01*
X96819500Y-62913389D01*
X96819500Y-63086610D01*
X96841870Y-63227854D01*
X96846598Y-63257701D01*
X96900127Y-63422445D01*
X96978768Y-63576788D01*
X97080586Y-63716928D01*
X97203072Y-63839414D01*
X97343212Y-63941232D01*
X97497555Y-64019873D01*
X97662299Y-64073402D01*
X97833389Y-64100500D01*
X97833390Y-64100500D01*
X98006610Y-64100500D01*
X98006611Y-64100500D01*
X98177701Y-64073402D01*
X98342445Y-64019873D01*
X98409206Y-63985856D01*
X98477874Y-63972961D01*
X98542615Y-63999237D01*
X98582872Y-64056344D01*
X98589500Y-64096342D01*
X98589500Y-69770397D01*
X98569815Y-69837436D01*
X98521800Y-69880879D01*
X98508389Y-69887712D01*
X98342786Y-70008028D01*
X98342782Y-70008032D01*
X98312181Y-70038634D01*
X98250858Y-70072119D01*
X98181166Y-70067135D01*
X98125233Y-70025263D01*
X98100816Y-69959799D01*
X98100500Y-69950953D01*
X98100500Y-67579765D01*
X98120185Y-67512726D01*
X98121398Y-67510874D01*
X98181347Y-67421155D01*
X98209394Y-67379179D01*
X98269737Y-67233497D01*
X98300500Y-67078842D01*
X98300500Y-66921158D01*
X98300500Y-66921155D01*
X98300499Y-66921153D01*
X98276539Y-66800699D01*
X98269737Y-66766503D01*
X98261827Y-66747406D01*
X98209397Y-66620827D01*
X98209390Y-66620814D01*
X98121789Y-66489711D01*
X98121786Y-66489707D01*
X98010292Y-66378213D01*
X98010288Y-66378210D01*
X97879185Y-66290609D01*
X97879172Y-66290602D01*
X97733501Y-66230264D01*
X97733489Y-66230261D01*
X97578845Y-66199500D01*
X97578842Y-66199500D01*
X97421158Y-66199500D01*
X97421155Y-66199500D01*
X97266510Y-66230261D01*
X97266498Y-66230264D01*
X97120827Y-66290602D01*
X97120814Y-66290609D01*
X96989711Y-66378210D01*
X96989707Y-66378213D01*
X96878213Y-66489707D01*
X96878210Y-66489711D01*
X96790609Y-66620814D01*
X96790602Y-66620827D01*
X96730264Y-66766498D01*
X96730261Y-66766510D01*
X96699500Y-66921153D01*
X96699500Y-67078846D01*
X96730261Y-67233489D01*
X96730264Y-67233501D01*
X96790602Y-67379172D01*
X96790609Y-67379185D01*
X96878602Y-67510874D01*
X96899480Y-67577551D01*
X96899500Y-67579765D01*
X96899500Y-75199903D01*
X96879815Y-75266942D01*
X96863181Y-75287584D01*
X92985339Y-79165425D01*
X92924016Y-79198910D01*
X92921850Y-79199361D01*
X92766508Y-79230261D01*
X92766498Y-79230264D01*
X92620827Y-79290602D01*
X92620814Y-79290609D01*
X92489711Y-79378210D01*
X92489707Y-79378213D01*
X92378213Y-79489707D01*
X92378210Y-79489711D01*
X92290609Y-79620814D01*
X92290602Y-79620827D01*
X92230264Y-79766498D01*
X92230261Y-79766510D01*
X92199500Y-79921153D01*
X84862061Y-79921153D01*
X84724961Y-79864364D01*
X84724954Y-79864362D01*
X84724952Y-79864361D01*
X84439993Y-79788007D01*
X84391113Y-79781571D01*
X84147513Y-79749500D01*
X84147506Y-79749500D01*
X83852494Y-79749500D01*
X83852486Y-79749500D01*
X83574085Y-79786153D01*
X83560007Y-79788007D01*
X83385428Y-79834785D01*
X83275048Y-79864361D01*
X83275038Y-79864364D01*
X83002499Y-79977254D01*
X83002489Y-79977258D01*
X82747006Y-80124761D01*
X82512959Y-80304352D01*
X82512952Y-80304358D01*
X82304358Y-80512952D01*
X82304352Y-80512959D01*
X82124761Y-80747006D01*
X81977258Y-81002489D01*
X81977254Y-81002499D01*
X81864364Y-81275038D01*
X81864361Y-81275048D01*
X81788008Y-81560004D01*
X81788006Y-81560015D01*
X81749500Y-81852486D01*
X80790500Y-81852486D01*
X80790500Y-81026300D01*
X80810185Y-80959261D01*
X80858204Y-80915815D01*
X81028845Y-80828870D01*
X81232656Y-80680793D01*
X81410793Y-80502656D01*
X81558870Y-80298845D01*
X81673241Y-80074379D01*
X81751090Y-79834785D01*
X81790500Y-79585962D01*
X81790500Y-79334038D01*
X81751090Y-79085215D01*
X81673241Y-78845621D01*
X81673239Y-78845618D01*
X81673238Y-78845613D01*
X81640211Y-78780794D01*
X81627315Y-78712125D01*
X81653592Y-78647385D01*
X81710698Y-78607128D01*
X81750696Y-78600500D01*
X85338588Y-78600500D01*
X85405627Y-78620185D01*
X85426269Y-78636819D01*
X85590970Y-78801520D01*
X85590972Y-78801521D01*
X85590976Y-78801524D01*
X85727895Y-78880573D01*
X85727898Y-78880575D01*
X85727902Y-78880577D01*
X85880629Y-78921501D01*
X85880631Y-78921501D01*
X86046340Y-78921501D01*
X86046356Y-78921500D01*
X87033645Y-78921500D01*
X87033661Y-78921501D01*
X87041257Y-78921501D01*
X87199368Y-78921501D01*
X87199371Y-78921501D01*
X87352099Y-78880577D01*
X87412644Y-78845621D01*
X87489030Y-78801520D01*
X87600834Y-78689716D01*
X87600834Y-78689714D01*
X87611038Y-78679511D01*
X87611042Y-78679506D01*
X90368713Y-75921835D01*
X90368716Y-75921834D01*
X90480520Y-75810030D01*
X90530639Y-75723218D01*
X90559577Y-75673099D01*
X90600501Y-75520371D01*
X90600501Y-75362257D01*
X90600501Y-75354662D01*
X90600500Y-75354644D01*
X90600500Y-74579765D01*
X90620185Y-74512726D01*
X90621398Y-74510874D01*
X90624265Y-74506584D01*
X90709394Y-74379179D01*
X90769737Y-74233497D01*
X90800500Y-74078842D01*
X90800500Y-73921158D01*
X90800500Y-73921155D01*
X90800499Y-73921153D01*
X90769738Y-73766510D01*
X90769737Y-73766503D01*
X90756062Y-73733489D01*
X90709397Y-73620827D01*
X90709390Y-73620814D01*
X90621789Y-73489711D01*
X90621786Y-73489707D01*
X90510292Y-73378213D01*
X90510288Y-73378210D01*
X90379185Y-73290609D01*
X90379172Y-73290602D01*
X90233501Y-73230264D01*
X90233489Y-73230261D01*
X90078845Y-73199500D01*
X90078842Y-73199500D01*
X89921158Y-73199500D01*
X89921155Y-73199500D01*
X89766510Y-73230261D01*
X89766498Y-73230264D01*
X89620827Y-73290602D01*
X89620814Y-73290609D01*
X89489711Y-73378210D01*
X89489707Y-73378213D01*
X89378213Y-73489707D01*
X89378210Y-73489711D01*
X89290609Y-73620814D01*
X89290602Y-73620827D01*
X89230264Y-73766498D01*
X89230261Y-73766510D01*
X89199500Y-73921153D01*
X89199500Y-74078846D01*
X89230261Y-74233489D01*
X89230264Y-74233501D01*
X89290602Y-74379172D01*
X89290609Y-74379185D01*
X89378602Y-74510874D01*
X89399480Y-74577551D01*
X89399500Y-74579765D01*
X89399500Y-75141216D01*
X89379815Y-75208255D01*
X89363181Y-75228897D01*
X88230874Y-76361203D01*
X88169551Y-76394688D01*
X88099859Y-76389704D01*
X88043926Y-76347832D01*
X88025262Y-76311840D01*
X88023242Y-76305623D01*
X88023241Y-76305620D01*
X87983635Y-76227890D01*
X87908870Y-76081155D01*
X87842432Y-75989711D01*
X87760798Y-75877350D01*
X87760794Y-75877345D01*
X87582654Y-75699205D01*
X87582649Y-75699201D01*
X87378848Y-75551132D01*
X87378847Y-75551131D01*
X87378845Y-75551130D01*
X87309186Y-75515637D01*
X87208205Y-75464184D01*
X87157409Y-75416209D01*
X87140500Y-75353699D01*
X87140500Y-72424499D01*
X87160185Y-72357460D01*
X87212989Y-72311705D01*
X87264500Y-72300499D01*
X88657871Y-72300499D01*
X88657872Y-72300499D01*
X88717483Y-72294091D01*
X88852331Y-72243796D01*
X88967546Y-72157546D01*
X89053796Y-72042331D01*
X89104091Y-71907483D01*
X89110500Y-71847873D01*
X89110499Y-70152128D01*
X89104091Y-70092517D01*
X89099593Y-70080458D01*
X89053797Y-69957671D01*
X89053793Y-69957664D01*
X88967547Y-69842455D01*
X88967544Y-69842452D01*
X88852335Y-69756206D01*
X88852328Y-69756202D01*
X88717482Y-69705908D01*
X88717483Y-69705908D01*
X88657883Y-69699501D01*
X88657881Y-69699500D01*
X88657873Y-69699500D01*
X88657865Y-69699500D01*
X87264500Y-69699500D01*
X87197461Y-69679815D01*
X87151706Y-69627011D01*
X87140500Y-69575500D01*
X87140500Y-62913389D01*
X87979500Y-62913389D01*
X87979500Y-63086610D01*
X88001870Y-63227854D01*
X88006598Y-63257701D01*
X88060127Y-63422445D01*
X88138768Y-63576788D01*
X88240586Y-63716928D01*
X88363072Y-63839414D01*
X88503212Y-63941232D01*
X88657555Y-64019873D01*
X88822299Y-64073402D01*
X88993389Y-64100500D01*
X88993390Y-64100500D01*
X89166610Y-64100500D01*
X89166611Y-64100500D01*
X89337701Y-64073402D01*
X89502445Y-64019873D01*
X89656788Y-63941232D01*
X89796928Y-63839414D01*
X89919414Y-63716928D01*
X90021232Y-63576788D01*
X90099873Y-63422445D01*
X90153402Y-63257701D01*
X90180500Y-63086611D01*
X90180500Y-62913389D01*
X90153402Y-62742299D01*
X90099873Y-62577555D01*
X90021232Y-62423212D01*
X89919414Y-62283072D01*
X89796928Y-62160586D01*
X89656788Y-62058768D01*
X89502445Y-61980127D01*
X89337701Y-61926598D01*
X89337699Y-61926597D01*
X89337698Y-61926597D01*
X89206271Y-61905781D01*
X89166611Y-61899500D01*
X88993389Y-61899500D01*
X88953728Y-61905781D01*
X88822302Y-61926597D01*
X88657552Y-61980128D01*
X88503211Y-62058768D01*
X88479019Y-62076345D01*
X88363072Y-62160586D01*
X88363070Y-62160588D01*
X88363069Y-62160588D01*
X88240588Y-62283069D01*
X88240588Y-62283070D01*
X88240586Y-62283072D01*
X88205380Y-62331529D01*
X88138768Y-62423211D01*
X88060128Y-62577552D01*
X88006597Y-62742302D01*
X87979500Y-62913389D01*
X87140500Y-62913389D01*
X87140500Y-59486300D01*
X87160185Y-59419261D01*
X87208204Y-59375815D01*
X87378845Y-59288870D01*
X87582656Y-59140793D01*
X87760793Y-58962656D01*
X87908870Y-58758845D01*
X88023241Y-58534379D01*
X88101090Y-58294785D01*
X88140500Y-58045962D01*
X88140500Y-57794038D01*
X88114348Y-57628920D01*
X88101090Y-57545214D01*
X88084259Y-57493416D01*
X88041907Y-57363071D01*
X88039913Y-57293235D01*
X88072156Y-57237078D01*
X91573417Y-53735819D01*
X91634740Y-53702334D01*
X91661098Y-53699500D01*
X100875500Y-53699500D01*
X100942539Y-53719185D01*
X100988294Y-53771989D01*
X100999500Y-53823500D01*
X100999500Y-56339799D01*
X100979815Y-56406838D01*
X100927011Y-56452593D01*
X100857853Y-56462537D01*
X100813502Y-56447187D01*
X100801787Y-56440424D01*
X100801786Y-56440423D01*
X100801785Y-56440423D01*
X100649057Y-56399499D01*
X100490943Y-56399499D01*
X100483347Y-56399499D01*
X100483331Y-56399500D01*
X90579766Y-56399500D01*
X90512727Y-56379815D01*
X90510875Y-56378602D01*
X90379185Y-56290609D01*
X90379172Y-56290602D01*
X90233501Y-56230264D01*
X90233489Y-56230261D01*
X90078845Y-56199500D01*
X90078842Y-56199500D01*
X89921158Y-56199500D01*
X89921155Y-56199500D01*
X89766510Y-56230261D01*
X89766498Y-56230264D01*
X89620827Y-56290602D01*
X89620814Y-56290609D01*
X89489711Y-56378210D01*
X89489707Y-56378213D01*
X89378213Y-56489707D01*
X89378210Y-56489711D01*
X89290609Y-56620814D01*
X89290602Y-56620827D01*
X89230264Y-56766498D01*
X89230261Y-56766510D01*
X89199500Y-56921153D01*
X89199500Y-57078846D01*
X89230261Y-57233489D01*
X89230264Y-57233501D01*
X89290602Y-57379172D01*
X89290609Y-57379185D01*
X89378210Y-57510288D01*
X89378213Y-57510292D01*
X89489707Y-57621786D01*
X89489711Y-57621789D01*
X89620814Y-57709390D01*
X89620827Y-57709397D01*
X89758683Y-57766498D01*
X89766503Y-57769737D01*
X89888672Y-57794038D01*
X89921153Y-57800499D01*
X89921156Y-57800500D01*
X89921158Y-57800500D01*
X90078844Y-57800500D01*
X90078845Y-57800499D01*
X90233497Y-57769737D01*
X90379179Y-57709394D01*
X90393385Y-57699902D01*
X90510875Y-57621398D01*
X90577553Y-57600520D01*
X90579766Y-57600500D01*
X92113445Y-57600500D01*
X92180484Y-57620185D01*
X92226239Y-57672989D01*
X92236183Y-57742147D01*
X92231159Y-57760411D01*
X92232031Y-57760676D01*
X92230261Y-57766510D01*
X92199500Y-57921153D01*
X92199500Y-58078846D01*
X92230261Y-58233489D01*
X92230264Y-58233501D01*
X92290602Y-58379172D01*
X92290609Y-58379185D01*
X92378602Y-58510874D01*
X92399480Y-58577551D01*
X92399500Y-58579765D01*
X92399500Y-69920234D01*
X92379815Y-69987273D01*
X92378602Y-69989125D01*
X92290609Y-70120814D01*
X92290602Y-70120827D01*
X92230264Y-70266498D01*
X92230261Y-70266510D01*
X92199500Y-70421153D01*
X92199500Y-70578846D01*
X92230261Y-70733489D01*
X92230264Y-70733501D01*
X92290602Y-70879172D01*
X92290609Y-70879185D01*
X92378210Y-71010288D01*
X92378213Y-71010292D01*
X92489707Y-71121786D01*
X92489711Y-71121789D01*
X92620814Y-71209390D01*
X92620827Y-71209397D01*
X92766498Y-71269735D01*
X92766503Y-71269737D01*
X92921153Y-71300499D01*
X92921156Y-71300500D01*
X92921158Y-71300500D01*
X93078844Y-71300500D01*
X93078845Y-71300499D01*
X93233497Y-71269737D01*
X93379179Y-71209394D01*
X93510289Y-71121789D01*
X93621789Y-71010289D01*
X93709394Y-70879179D01*
X93769737Y-70733497D01*
X93800500Y-70578842D01*
X93800500Y-70421158D01*
X93800500Y-70421155D01*
X93800499Y-70421153D01*
X93769738Y-70266510D01*
X93769737Y-70266503D01*
X93732649Y-70176964D01*
X93709397Y-70120827D01*
X93709390Y-70120814D01*
X93621398Y-69989125D01*
X93600520Y-69922447D01*
X93600500Y-69920234D01*
X93600500Y-58579765D01*
X93620185Y-58512726D01*
X93621398Y-58510874D01*
X93634857Y-58490732D01*
X93709394Y-58379179D01*
X93769737Y-58233497D01*
X93800500Y-58078842D01*
X93800500Y-57921158D01*
X93800500Y-57921155D01*
X93800499Y-57921153D01*
X93774531Y-57790606D01*
X93769737Y-57766503D01*
X93769732Y-57766492D01*
X93767969Y-57760676D01*
X93770720Y-57759841D01*
X93764497Y-57702641D01*
X93795691Y-57640122D01*
X93855734Y-57604392D01*
X93886555Y-57600500D01*
X95113445Y-57600500D01*
X95180484Y-57620185D01*
X95226239Y-57672989D01*
X95236183Y-57742147D01*
X95234891Y-57749539D01*
X95232513Y-57761068D01*
X95230263Y-57766503D01*
X95199500Y-57921158D01*
X95199500Y-57921196D01*
X95199191Y-57922695D01*
X95182966Y-57953191D01*
X95166977Y-57983759D01*
X95166382Y-57984363D01*
X95166375Y-57984378D01*
X95166360Y-57984385D01*
X95165426Y-57985337D01*
X94631286Y-58519478D01*
X94519481Y-58631282D01*
X94519479Y-58631285D01*
X94474385Y-58709392D01*
X94474384Y-58709393D01*
X94440423Y-58768214D01*
X94440423Y-58768215D01*
X94399499Y-58920943D01*
X94399499Y-58920945D01*
X94399499Y-59089046D01*
X94399500Y-59089059D01*
X94399500Y-59420234D01*
X94379815Y-59487273D01*
X94378602Y-59489125D01*
X94290609Y-59620814D01*
X94290602Y-59620827D01*
X94230264Y-59766498D01*
X94230261Y-59766510D01*
X94199500Y-59921153D01*
X94199500Y-60078846D01*
X94230261Y-60233489D01*
X94230264Y-60233501D01*
X94290602Y-60379172D01*
X94290609Y-60379185D01*
X94378210Y-60510288D01*
X94378213Y-60510292D01*
X94489707Y-60621786D01*
X94489711Y-60621789D01*
X94620814Y-60709390D01*
X94620827Y-60709397D01*
X94731953Y-60755426D01*
X94766503Y-60769737D01*
X94921153Y-60800499D01*
X94921156Y-60800500D01*
X94921158Y-60800500D01*
X95078844Y-60800500D01*
X95078845Y-60800499D01*
X95233497Y-60769737D01*
X95379179Y-60709394D01*
X95510289Y-60621789D01*
X95621789Y-60510289D01*
X95709394Y-60379179D01*
X95769737Y-60233497D01*
X95800500Y-60078842D01*
X95800500Y-59921158D01*
X95800500Y-59921155D01*
X95800499Y-59921153D01*
X95789204Y-59864372D01*
X95769737Y-59766503D01*
X95734390Y-59681166D01*
X95709397Y-59620827D01*
X95709390Y-59620814D01*
X95621398Y-59489125D01*
X95615747Y-59471078D01*
X95605523Y-59455169D01*
X95601071Y-59424207D01*
X95600520Y-59422447D01*
X95600500Y-59420234D01*
X95600500Y-59300097D01*
X95620185Y-59233058D01*
X95636819Y-59212416D01*
X95809942Y-59039293D01*
X96014665Y-58834570D01*
X96075984Y-58801088D01*
X96078151Y-58800637D01*
X96078840Y-58800500D01*
X96078842Y-58800500D01*
X96233497Y-58769737D01*
X96379179Y-58709394D01*
X96510289Y-58621789D01*
X96621789Y-58510289D01*
X96709394Y-58379179D01*
X96769737Y-58233497D01*
X96800500Y-58078842D01*
X96800500Y-57921158D01*
X96800500Y-57921155D01*
X96800499Y-57921153D01*
X96774531Y-57790606D01*
X96769737Y-57766503D01*
X96769732Y-57766492D01*
X96767969Y-57760676D01*
X96770720Y-57759841D01*
X96764497Y-57702641D01*
X96795691Y-57640122D01*
X96855734Y-57604392D01*
X96886555Y-57600500D01*
X100269903Y-57600500D01*
X100336942Y-57620185D01*
X100357583Y-57636818D01*
X103260899Y-60540135D01*
X103294383Y-60601456D01*
X103289399Y-60671148D01*
X103247527Y-60727081D01*
X103182063Y-60751498D01*
X103157040Y-60750754D01*
X103147520Y-60749501D01*
X103147509Y-60749500D01*
X103147506Y-60749500D01*
X102852494Y-60749500D01*
X102852486Y-60749500D01*
X102574085Y-60786153D01*
X102560007Y-60788007D01*
X102307103Y-60855772D01*
X102275048Y-60864361D01*
X102275038Y-60864364D01*
X102002499Y-60977254D01*
X102002489Y-60977258D01*
X101747006Y-61124761D01*
X101512959Y-61304352D01*
X101512952Y-61304358D01*
X101304358Y-61512952D01*
X101304352Y-61512959D01*
X101124761Y-61747006D01*
X100977258Y-62002489D01*
X100977254Y-62002499D01*
X100864364Y-62275038D01*
X100864361Y-62275048D01*
X100788823Y-62556964D01*
X100788008Y-62560004D01*
X100788006Y-62560015D01*
X100749500Y-62852486D01*
X100749500Y-63147513D01*
X100768340Y-63290609D01*
X100788007Y-63439993D01*
X100864361Y-63724951D01*
X100864364Y-63724961D01*
X100977254Y-63997500D01*
X100977258Y-63997510D01*
X101124761Y-64252993D01*
X101304352Y-64487040D01*
X101304358Y-64487047D01*
X101512952Y-64695641D01*
X101512959Y-64695647D01*
X101747006Y-64875238D01*
X102002489Y-65022741D01*
X102002490Y-65022741D01*
X102002493Y-65022743D01*
X102275048Y-65135639D01*
X102560007Y-65211993D01*
X102852494Y-65250500D01*
X102852501Y-65250500D01*
X103147499Y-65250500D01*
X103147506Y-65250500D01*
X103439993Y-65211993D01*
X103724952Y-65135639D01*
X103997507Y-65022743D01*
X104252994Y-64875238D01*
X104487042Y-64695646D01*
X104695646Y-64487042D01*
X104717124Y-64459052D01*
X104773552Y-64417849D01*
X104843298Y-64413694D01*
X104904218Y-64447906D01*
X104936971Y-64509624D01*
X104939500Y-64534538D01*
X104939500Y-72091473D01*
X104919815Y-72158512D01*
X104867011Y-72204267D01*
X104797853Y-72214211D01*
X104783407Y-72211248D01*
X104739562Y-72199500D01*
X101339562Y-72199500D01*
X101260438Y-72199500D01*
X101222224Y-72209739D01*
X101184009Y-72219979D01*
X101184004Y-72219982D01*
X101115495Y-72259535D01*
X101115487Y-72259541D01*
X101059541Y-72315487D01*
X101059535Y-72315495D01*
X101019982Y-72384004D01*
X101019979Y-72384009D01*
X101009130Y-72424499D01*
X100999500Y-72460438D01*
X100999500Y-75460438D01*
X100999500Y-75539562D01*
X101010082Y-75579054D01*
X101019979Y-75615990D01*
X101019982Y-75615995D01*
X101059535Y-75684504D01*
X101059539Y-75684509D01*
X101059540Y-75684511D01*
X101115489Y-75740460D01*
X101115491Y-75740461D01*
X101115495Y-75740464D01*
X101184004Y-75780017D01*
X101184011Y-75780021D01*
X101260438Y-75800500D01*
X104131673Y-75800500D01*
X104198712Y-75820185D01*
X104244467Y-75872989D01*
X104254411Y-75942147D01*
X104231992Y-75997385D01*
X104171129Y-76081155D01*
X104056760Y-76305616D01*
X103992208Y-76504287D01*
X103978910Y-76545215D01*
X103939500Y-76794038D01*
X103939500Y-77045962D01*
X103951510Y-77121789D01*
X103978910Y-77294785D01*
X104056760Y-77534383D01*
X104171132Y-77758848D01*
X104319201Y-77962649D01*
X104319205Y-77962654D01*
X104497345Y-78140794D01*
X104497350Y-78140798D01*
X104675117Y-78269952D01*
X104701155Y-78288870D01*
X104844184Y-78361747D01*
X104925616Y-78403239D01*
X104925618Y-78403239D01*
X104925621Y-78403241D01*
X105165215Y-78481090D01*
X105414038Y-78520500D01*
X105414039Y-78520500D01*
X105665961Y-78520500D01*
X105665962Y-78520500D01*
X105914785Y-78481090D01*
X106154379Y-78403241D01*
X106378845Y-78288870D01*
X106582656Y-78140793D01*
X106760793Y-77962656D01*
X106908870Y-77758845D01*
X107023241Y-77534379D01*
X107101090Y-77294785D01*
X107140500Y-77045962D01*
X107140500Y-76794038D01*
X107101090Y-76545215D01*
X107023241Y-76305621D01*
X107023239Y-76305618D01*
X107023239Y-76305616D01*
X106981747Y-76224184D01*
X106908870Y-76081155D01*
X106842432Y-75989711D01*
X106760798Y-75877350D01*
X106760794Y-75877345D01*
X106582654Y-75699205D01*
X106582649Y-75699201D01*
X106378848Y-75551132D01*
X106378847Y-75551131D01*
X106378845Y-75551130D01*
X106309186Y-75515637D01*
X106208205Y-75464184D01*
X106157409Y-75416209D01*
X106140500Y-75353699D01*
X106140500Y-72424499D01*
X106160185Y-72357460D01*
X106212989Y-72311705D01*
X106264500Y-72300499D01*
X107657871Y-72300499D01*
X107657872Y-72300499D01*
X107717483Y-72294091D01*
X107852331Y-72243796D01*
X107967546Y-72157546D01*
X108053796Y-72042331D01*
X108104091Y-71907483D01*
X108110500Y-71847873D01*
X108110499Y-70152128D01*
X108104091Y-70092517D01*
X108099593Y-70080458D01*
X108053797Y-69957671D01*
X108053793Y-69957664D01*
X107967547Y-69842455D01*
X107967544Y-69842452D01*
X107852335Y-69756206D01*
X107852328Y-69756202D01*
X107717482Y-69705908D01*
X107717483Y-69705908D01*
X107657883Y-69699501D01*
X107657881Y-69699500D01*
X107657873Y-69699500D01*
X107657865Y-69699500D01*
X106264500Y-69699500D01*
X106197461Y-69679815D01*
X106151706Y-69627011D01*
X106140500Y-69575500D01*
X106140500Y-59864372D01*
X106160185Y-59797333D01*
X106212989Y-59751578D01*
X106282147Y-59741634D01*
X106345703Y-59770659D01*
X106352181Y-59776691D01*
X108263663Y-61688173D01*
X108297148Y-61749496D01*
X108292164Y-61819188D01*
X108250292Y-61875121D01*
X108184828Y-61899538D01*
X108171483Y-61899490D01*
X108171483Y-61899500D01*
X108166611Y-61899500D01*
X107993389Y-61899500D01*
X107953728Y-61905781D01*
X107822302Y-61926597D01*
X107657552Y-61980128D01*
X107503211Y-62058768D01*
X107479019Y-62076345D01*
X107363072Y-62160586D01*
X107363070Y-62160588D01*
X107363069Y-62160588D01*
X107240588Y-62283069D01*
X107240588Y-62283070D01*
X107240586Y-62283072D01*
X107205380Y-62331529D01*
X107138768Y-62423211D01*
X107060128Y-62577552D01*
X107006597Y-62742302D01*
X106979500Y-62913389D01*
X106979500Y-63086610D01*
X107001870Y-63227854D01*
X107006598Y-63257701D01*
X107060127Y-63422445D01*
X107138768Y-63576788D01*
X107240586Y-63716928D01*
X107363072Y-63839414D01*
X107503212Y-63941232D01*
X107657555Y-64019873D01*
X107822299Y-64073402D01*
X107993389Y-64100500D01*
X107993390Y-64100500D01*
X108166610Y-64100500D01*
X108166611Y-64100500D01*
X108337701Y-64073402D01*
X108502445Y-64019873D01*
X108656788Y-63941232D01*
X108796928Y-63839414D01*
X108919414Y-63716928D01*
X109021232Y-63576788D01*
X109099873Y-63422445D01*
X109153402Y-63257701D01*
X109180500Y-63086611D01*
X109180500Y-62913389D01*
X109180500Y-62908517D01*
X109181631Y-62908517D01*
X109194880Y-62845389D01*
X109243922Y-62795623D01*
X109312085Y-62780271D01*
X109377726Y-62804208D01*
X109391826Y-62816336D01*
X111778575Y-65203085D01*
X111812060Y-65264408D01*
X111807076Y-65334100D01*
X111787053Y-65368132D01*
X111787259Y-65368282D01*
X111785716Y-65370405D01*
X111785207Y-65371271D01*
X111784403Y-65372212D01*
X111659451Y-65544195D01*
X111562944Y-65733600D01*
X111497253Y-65935775D01*
X111465168Y-66138352D01*
X111464000Y-66145728D01*
X111464000Y-66358302D01*
X111465172Y-66365701D01*
X111484954Y-66490603D01*
X111497254Y-66568258D01*
X111517734Y-66631290D01*
X111520629Y-66640197D01*
X111522624Y-66710038D01*
X111486544Y-66769871D01*
X111423843Y-66800699D01*
X111402698Y-66802515D01*
X110367508Y-66802515D01*
X110300469Y-66782830D01*
X110254714Y-66730026D01*
X110252947Y-66725967D01*
X110209397Y-66620827D01*
X110209390Y-66620814D01*
X110121789Y-66489711D01*
X110121786Y-66489707D01*
X110010292Y-66378213D01*
X110010288Y-66378210D01*
X109879185Y-66290609D01*
X109879172Y-66290602D01*
X109733501Y-66230264D01*
X109733489Y-66230261D01*
X109578845Y-66199500D01*
X109578842Y-66199500D01*
X109421158Y-66199500D01*
X109421155Y-66199500D01*
X109266510Y-66230261D01*
X109266498Y-66230264D01*
X109120827Y-66290602D01*
X109120814Y-66290609D01*
X108989711Y-66378210D01*
X108989707Y-66378213D01*
X108878213Y-66489707D01*
X108878210Y-66489711D01*
X108790609Y-66620814D01*
X108790602Y-66620827D01*
X108730264Y-66766498D01*
X108730261Y-66766510D01*
X108699500Y-66921153D01*
X108699500Y-67078846D01*
X108730261Y-67233489D01*
X108730264Y-67233501D01*
X108790602Y-67379172D01*
X108790609Y-67379185D01*
X108878210Y-67510288D01*
X108878213Y-67510292D01*
X108989707Y-67621786D01*
X108989711Y-67621789D01*
X109120814Y-67709390D01*
X109120827Y-67709397D01*
X109247609Y-67761911D01*
X109266503Y-67769737D01*
X109421158Y-67800500D01*
X109421847Y-67800637D01*
X109433103Y-67805706D01*
X109441852Y-67806398D01*
X109458301Y-67817056D01*
X109472702Y-67823542D01*
X109479392Y-67828628D01*
X109534299Y-67883535D01*
X109599465Y-67921158D01*
X109671230Y-67962592D01*
X109823957Y-68003515D01*
X109823958Y-68003515D01*
X110190531Y-68003515D01*
X110257570Y-68023200D01*
X110303325Y-68076004D01*
X110313269Y-68145162D01*
X110284244Y-68208718D01*
X110237983Y-68242076D01*
X110120827Y-68290602D01*
X110120814Y-68290609D01*
X109989711Y-68378210D01*
X109989707Y-68378213D01*
X109878213Y-68489707D01*
X109878210Y-68489711D01*
X109790609Y-68620814D01*
X109790602Y-68620827D01*
X109730264Y-68766498D01*
X109730261Y-68766510D01*
X109699500Y-68921153D01*
X109699500Y-69078846D01*
X109730261Y-69233489D01*
X109730264Y-69233501D01*
X109790602Y-69379172D01*
X109790609Y-69379185D01*
X109878602Y-69510874D01*
X109899480Y-69577551D01*
X109899500Y-69579765D01*
X109899500Y-72920234D01*
X109879815Y-72987273D01*
X109878602Y-72989125D01*
X109790609Y-73120814D01*
X109790602Y-73120827D01*
X109730264Y-73266498D01*
X109730261Y-73266510D01*
X109699500Y-73421153D01*
X109699500Y-73578846D01*
X109730261Y-73733489D01*
X109730264Y-73733501D01*
X109790602Y-73879172D01*
X109790609Y-73879185D01*
X109878210Y-74010288D01*
X109878213Y-74010292D01*
X109989707Y-74121786D01*
X109989711Y-74121789D01*
X110120814Y-74209390D01*
X110120827Y-74209397D01*
X110266498Y-74269735D01*
X110266503Y-74269737D01*
X110421153Y-74300499D01*
X110421156Y-74300500D01*
X110421158Y-74300500D01*
X110578844Y-74300500D01*
X110578845Y-74300499D01*
X110733497Y-74269737D01*
X110879179Y-74209394D01*
X111010289Y-74121789D01*
X111121789Y-74010289D01*
X111209394Y-73879179D01*
X111269737Y-73733497D01*
X111300500Y-73578842D01*
X111300500Y-73421158D01*
X111300500Y-73421155D01*
X111300499Y-73421153D01*
X111274531Y-73290606D01*
X111269737Y-73266503D01*
X111269735Y-73266498D01*
X111209397Y-73120827D01*
X111209390Y-73120814D01*
X111121398Y-72989125D01*
X111100520Y-72922447D01*
X111100500Y-72920234D01*
X111100500Y-69579765D01*
X111120185Y-69512726D01*
X111121398Y-69510874D01*
X111194305Y-69401762D01*
X111209394Y-69379179D01*
X111269737Y-69233497D01*
X111278878Y-69187544D01*
X111311263Y-69125633D01*
X111371978Y-69091059D01*
X111441748Y-69094798D01*
X111498420Y-69135664D01*
X111518424Y-69173414D01*
X111559718Y-69300500D01*
X111562944Y-69310429D01*
X111659451Y-69499835D01*
X111784390Y-69671801D01*
X111934713Y-69822124D01*
X112106682Y-69947065D01*
X112115446Y-69951531D01*
X112166242Y-69999506D01*
X112183036Y-70067327D01*
X112160498Y-70133462D01*
X112115446Y-70172499D01*
X112106682Y-70176964D01*
X111934713Y-70301905D01*
X111784390Y-70452228D01*
X111659451Y-70624194D01*
X111562944Y-70813600D01*
X111497253Y-71015775D01*
X111489189Y-71066690D01*
X111464000Y-71225728D01*
X111464000Y-71438302D01*
X111497254Y-71648258D01*
X111562116Y-71847883D01*
X111562944Y-71850429D01*
X111659451Y-72039835D01*
X111784390Y-72211801D01*
X111934713Y-72362124D01*
X112106679Y-72487063D01*
X112106681Y-72487064D01*
X112106684Y-72487066D01*
X112296088Y-72583572D01*
X112498257Y-72649261D01*
X112708213Y-72682515D01*
X112708214Y-72682515D01*
X114820786Y-72682515D01*
X114820787Y-72682515D01*
X115030743Y-72649261D01*
X115232912Y-72583572D01*
X115422316Y-72487066D01*
X115508433Y-72424499D01*
X115594286Y-72362124D01*
X115594288Y-72362121D01*
X115594292Y-72362119D01*
X115744604Y-72211807D01*
X115744606Y-72211803D01*
X115744609Y-72211801D01*
X115869548Y-72039835D01*
X115869547Y-72039835D01*
X115869551Y-72039831D01*
X115966057Y-71850427D01*
X116031746Y-71648258D01*
X116065000Y-71438302D01*
X116065000Y-71225728D01*
X116031746Y-71015772D01*
X115966057Y-70813603D01*
X115869551Y-70624199D01*
X115869549Y-70624196D01*
X115869548Y-70624194D01*
X115744609Y-70452228D01*
X115594286Y-70301905D01*
X115422320Y-70176966D01*
X115421615Y-70176606D01*
X115413554Y-70172500D01*
X115362759Y-70124527D01*
X115345963Y-70056707D01*
X115368499Y-69990571D01*
X115413554Y-69951530D01*
X115422316Y-69947066D01*
X115459247Y-69920234D01*
X115594286Y-69822124D01*
X115594288Y-69822121D01*
X115594292Y-69822119D01*
X115744604Y-69671807D01*
X115744606Y-69671803D01*
X115744609Y-69671801D01*
X115811476Y-69579765D01*
X115869551Y-69499831D01*
X115869849Y-69499245D01*
X115889735Y-69460220D01*
X115937709Y-69409424D01*
X116000219Y-69392515D01*
X117621316Y-69392515D01*
X117621332Y-69392516D01*
X117628928Y-69392516D01*
X117787039Y-69392516D01*
X117787042Y-69392516D01*
X117939770Y-69351592D01*
X117989889Y-69322654D01*
X118076701Y-69272535D01*
X118188505Y-69160731D01*
X118188505Y-69160729D01*
X118198713Y-69150522D01*
X118198714Y-69150519D01*
X118514661Y-68834572D01*
X118575983Y-68801089D01*
X118578150Y-68800638D01*
X118636085Y-68789113D01*
X118733497Y-68769737D01*
X118879179Y-68709394D01*
X119010289Y-68621789D01*
X119121789Y-68510289D01*
X119172398Y-68434548D01*
X119226010Y-68389743D01*
X119295335Y-68381036D01*
X119358363Y-68411190D01*
X119395082Y-68470634D01*
X119399500Y-68503439D01*
X119399500Y-68889901D01*
X119379815Y-68956940D01*
X119363181Y-68977582D01*
X118634841Y-69705921D01*
X118573518Y-69739406D01*
X118508845Y-69736172D01*
X118494535Y-69731523D01*
X118393443Y-69715511D01*
X118292352Y-69699500D01*
X118087648Y-69699500D01*
X118063329Y-69703351D01*
X117885465Y-69731522D01*
X117690776Y-69794781D01*
X117508386Y-69887715D01*
X117342786Y-70008028D01*
X117198028Y-70152786D01*
X117077715Y-70318386D01*
X116984781Y-70500776D01*
X116921522Y-70695465D01*
X116889500Y-70897648D01*
X116889500Y-71102351D01*
X116921522Y-71304534D01*
X116984781Y-71499223D01*
X117077715Y-71681613D01*
X117198028Y-71847213D01*
X117342786Y-71991971D01*
X117479742Y-72091473D01*
X117508390Y-72112287D01*
X117597212Y-72157544D01*
X117690776Y-72205218D01*
X117690778Y-72205218D01*
X117690781Y-72205220D01*
X117736205Y-72219979D01*
X117885465Y-72268477D01*
X117986557Y-72284488D01*
X118087648Y-72300500D01*
X118087649Y-72300500D01*
X118292351Y-72300500D01*
X118292352Y-72300500D01*
X118494534Y-72268477D01*
X118689219Y-72205220D01*
X118871610Y-72112287D01*
X118967901Y-72042328D01*
X119037213Y-71991971D01*
X119037215Y-71991968D01*
X119037219Y-71991966D01*
X119181966Y-71847219D01*
X119181968Y-71847215D01*
X119181971Y-71847213D01*
X119234732Y-71774590D01*
X119302287Y-71681610D01*
X119395220Y-71499219D01*
X119458477Y-71304534D01*
X119490500Y-71102352D01*
X119490500Y-70897648D01*
X119458477Y-70695466D01*
X119453826Y-70681154D01*
X119451832Y-70611315D01*
X119484075Y-70555159D01*
X120480520Y-69558716D01*
X120559577Y-69421784D01*
X120600501Y-69269057D01*
X120600501Y-69110942D01*
X120600501Y-69103347D01*
X120600500Y-69103329D01*
X120600500Y-67089060D01*
X120600501Y-67089047D01*
X120600501Y-66920944D01*
X120589051Y-66878213D01*
X120559577Y-66768216D01*
X120558585Y-66766498D01*
X120480524Y-66631290D01*
X120480518Y-66631282D01*
X120334573Y-66485337D01*
X120325712Y-66469110D01*
X120312782Y-66455895D01*
X120302016Y-66425714D01*
X120301088Y-66424014D01*
X120300808Y-66422694D01*
X120300500Y-66421200D01*
X120300500Y-66421158D01*
X120269737Y-66266503D01*
X120267486Y-66261069D01*
X120265109Y-66249538D01*
X120267045Y-66226060D01*
X120264497Y-66202641D01*
X120269863Y-66191884D01*
X120270852Y-66179905D01*
X120285173Y-66161200D01*
X120295691Y-66140122D01*
X120306020Y-66133975D01*
X120313329Y-66124430D01*
X120335492Y-66116436D01*
X120355734Y-66104392D01*
X120375982Y-66101835D01*
X120379055Y-66100727D01*
X120381082Y-66101191D01*
X120386555Y-66100500D01*
X122738147Y-66100500D01*
X122738163Y-66100501D01*
X122745759Y-66100501D01*
X122903870Y-66100501D01*
X122903873Y-66100501D01*
X123056601Y-66059577D01*
X123124750Y-66020231D01*
X123193532Y-65980520D01*
X123305336Y-65868716D01*
X123305336Y-65868714D01*
X123315540Y-65858511D01*
X123315543Y-65858506D01*
X123727820Y-65446230D01*
X123789142Y-65412746D01*
X123858834Y-65417730D01*
X123914767Y-65459602D01*
X123939184Y-65525066D01*
X123939500Y-65533912D01*
X123939500Y-72091473D01*
X123919815Y-72158512D01*
X123867011Y-72204267D01*
X123797853Y-72214211D01*
X123783407Y-72211248D01*
X123739562Y-72199500D01*
X120339562Y-72199500D01*
X120260438Y-72199500D01*
X120222224Y-72209739D01*
X120184009Y-72219979D01*
X120184004Y-72219982D01*
X120115495Y-72259535D01*
X120115487Y-72259541D01*
X120059541Y-72315487D01*
X120059535Y-72315495D01*
X120019982Y-72384004D01*
X120019979Y-72384009D01*
X120009130Y-72424499D01*
X119999500Y-72460438D01*
X119999500Y-75460438D01*
X119999500Y-75539562D01*
X120010082Y-75579054D01*
X120019979Y-75615990D01*
X120019982Y-75615995D01*
X120059535Y-75684504D01*
X120059539Y-75684509D01*
X120059540Y-75684511D01*
X120115489Y-75740460D01*
X120115491Y-75740461D01*
X120115495Y-75740464D01*
X120184004Y-75780017D01*
X120184011Y-75780021D01*
X120260438Y-75800500D01*
X123131673Y-75800500D01*
X123198712Y-75820185D01*
X123244467Y-75872989D01*
X123254411Y-75942147D01*
X123231992Y-75997385D01*
X123171129Y-76081155D01*
X123056760Y-76305616D01*
X122992208Y-76504287D01*
X122978910Y-76545215D01*
X122939500Y-76794038D01*
X122939500Y-77045962D01*
X122951510Y-77121789D01*
X122978910Y-77294785D01*
X123056760Y-77534383D01*
X123171132Y-77758848D01*
X123319201Y-77962649D01*
X123319205Y-77962654D01*
X123497345Y-78140794D01*
X123497350Y-78140798D01*
X123675117Y-78269952D01*
X123701155Y-78288870D01*
X123844184Y-78361747D01*
X123925616Y-78403239D01*
X123925618Y-78403239D01*
X123925621Y-78403241D01*
X124165215Y-78481090D01*
X124414038Y-78520500D01*
X124414039Y-78520500D01*
X124665961Y-78520500D01*
X124665962Y-78520500D01*
X124914785Y-78481090D01*
X125154379Y-78403241D01*
X125378845Y-78288870D01*
X125582656Y-78140793D01*
X125760793Y-77962656D01*
X125908870Y-77758845D01*
X126023241Y-77534379D01*
X126101090Y-77294785D01*
X126140500Y-77045962D01*
X126140500Y-76794038D01*
X126101090Y-76545215D01*
X126023241Y-76305621D01*
X126023239Y-76305618D01*
X126023239Y-76305616D01*
X125981747Y-76224184D01*
X125908870Y-76081155D01*
X125842432Y-75989711D01*
X125760798Y-75877350D01*
X125760794Y-75877345D01*
X125582654Y-75699205D01*
X125582649Y-75699201D01*
X125378848Y-75551132D01*
X125378847Y-75551131D01*
X125378845Y-75551130D01*
X125309186Y-75515637D01*
X125208205Y-75464184D01*
X125157409Y-75416209D01*
X125140500Y-75353699D01*
X125140500Y-72424499D01*
X125160185Y-72357460D01*
X125212989Y-72311705D01*
X125264500Y-72300499D01*
X126657871Y-72300499D01*
X126657872Y-72300499D01*
X126717483Y-72294091D01*
X126852331Y-72243796D01*
X126967546Y-72157546D01*
X127053796Y-72042331D01*
X127104091Y-71907483D01*
X127110500Y-71847873D01*
X127110499Y-71154369D01*
X127130183Y-71087332D01*
X127182987Y-71041577D01*
X127252146Y-71031633D01*
X127315702Y-71060658D01*
X127322180Y-71066690D01*
X133539864Y-77284374D01*
X133539874Y-77284385D01*
X133544204Y-77288715D01*
X133544205Y-77288716D01*
X133656009Y-77400520D01*
X133656011Y-77400521D01*
X133656015Y-77400524D01*
X133792934Y-77479573D01*
X133792941Y-77479577D01*
X133904744Y-77509534D01*
X133945667Y-77520500D01*
X133945668Y-77520500D01*
X141973700Y-77520500D01*
X142040739Y-77540185D01*
X142084185Y-77588205D01*
X142171132Y-77758848D01*
X142319201Y-77962649D01*
X142319205Y-77962654D01*
X142497345Y-78140794D01*
X142497350Y-78140798D01*
X142675117Y-78269952D01*
X142701155Y-78288870D01*
X142844184Y-78361747D01*
X142925616Y-78403239D01*
X142925618Y-78403239D01*
X142925621Y-78403241D01*
X143165215Y-78481090D01*
X143414038Y-78520500D01*
X143414039Y-78520500D01*
X143665961Y-78520500D01*
X143665962Y-78520500D01*
X143914785Y-78481090D01*
X144154379Y-78403241D01*
X144378845Y-78288870D01*
X144582656Y-78140793D01*
X144760793Y-77962656D01*
X144908870Y-77758845D01*
X145023241Y-77534379D01*
X145101090Y-77294785D01*
X145140500Y-77045962D01*
X145140500Y-76794038D01*
X145101090Y-76545215D01*
X145023241Y-76305621D01*
X145023239Y-76305618D01*
X145023239Y-76305616D01*
X144981747Y-76224184D01*
X144908870Y-76081155D01*
X144842432Y-75989711D01*
X144760798Y-75877350D01*
X144760794Y-75877345D01*
X144582654Y-75699205D01*
X144582649Y-75699201D01*
X144378848Y-75551132D01*
X144378847Y-75551131D01*
X144378845Y-75551130D01*
X144309186Y-75515637D01*
X144208205Y-75464184D01*
X144157409Y-75416209D01*
X144140500Y-75353699D01*
X144140500Y-74063303D01*
X144160185Y-73996264D01*
X144212989Y-73950509D01*
X144282147Y-73940565D01*
X144345703Y-73969590D01*
X144367602Y-73994412D01*
X144378210Y-74010288D01*
X144378213Y-74010292D01*
X144489707Y-74121786D01*
X144489711Y-74121789D01*
X144620814Y-74209390D01*
X144620827Y-74209397D01*
X144766498Y-74269735D01*
X144766503Y-74269737D01*
X144921153Y-74300499D01*
X144921156Y-74300500D01*
X144921158Y-74300500D01*
X145078844Y-74300500D01*
X145078845Y-74300499D01*
X145233497Y-74269737D01*
X145379179Y-74209394D01*
X145379185Y-74209390D01*
X145510875Y-74121398D01*
X145577553Y-74100520D01*
X145579766Y-74100500D01*
X147920234Y-74100500D01*
X147987273Y-74120185D01*
X147989125Y-74121398D01*
X148120814Y-74209390D01*
X148120827Y-74209397D01*
X148266498Y-74269735D01*
X148266503Y-74269737D01*
X148421153Y-74300499D01*
X148421156Y-74300500D01*
X148421158Y-74300500D01*
X148578844Y-74300500D01*
X148578845Y-74300499D01*
X148733497Y-74269737D01*
X148879179Y-74209394D01*
X149010289Y-74121789D01*
X149121789Y-74010289D01*
X149209394Y-73879179D01*
X149269737Y-73733497D01*
X149300500Y-73578842D01*
X149300500Y-73421158D01*
X149300500Y-73421155D01*
X149300499Y-73421153D01*
X149274531Y-73290606D01*
X149269737Y-73266503D01*
X149269735Y-73266498D01*
X149209397Y-73120827D01*
X149209390Y-73120814D01*
X149121789Y-72989711D01*
X149121786Y-72989707D01*
X149010292Y-72878213D01*
X149010288Y-72878210D01*
X148879185Y-72790609D01*
X148879172Y-72790602D01*
X148733501Y-72730264D01*
X148733489Y-72730261D01*
X148578845Y-72699500D01*
X148578842Y-72699500D01*
X148421158Y-72699500D01*
X148421155Y-72699500D01*
X148266510Y-72730261D01*
X148266498Y-72730264D01*
X148120827Y-72790602D01*
X148120814Y-72790609D01*
X147989125Y-72878602D01*
X147922447Y-72899480D01*
X147920234Y-72899500D01*
X145579766Y-72899500D01*
X145512727Y-72879815D01*
X145510875Y-72878602D01*
X145379185Y-72790609D01*
X145379172Y-72790602D01*
X145233501Y-72730264D01*
X145233489Y-72730261D01*
X145078845Y-72699500D01*
X145078842Y-72699500D01*
X144921158Y-72699500D01*
X144921155Y-72699500D01*
X144766510Y-72730261D01*
X144766498Y-72730264D01*
X144620827Y-72790602D01*
X144620814Y-72790609D01*
X144489711Y-72878210D01*
X144489707Y-72878213D01*
X144378211Y-72989709D01*
X144367601Y-73005589D01*
X144313987Y-73050393D01*
X144244662Y-73059099D01*
X144181635Y-73028943D01*
X144144918Y-72969499D01*
X144140500Y-72936696D01*
X144140500Y-72424499D01*
X144160185Y-72357460D01*
X144212989Y-72311705D01*
X144264500Y-72300499D01*
X145657871Y-72300499D01*
X145657872Y-72300499D01*
X145717483Y-72294091D01*
X145852331Y-72243796D01*
X145967546Y-72157546D01*
X146053796Y-72042331D01*
X146104091Y-71907483D01*
X146110500Y-71847873D01*
X146110499Y-70152128D01*
X146104091Y-70092517D01*
X146099593Y-70080458D01*
X146053797Y-69957671D01*
X146053793Y-69957664D01*
X145967547Y-69842455D01*
X145967544Y-69842452D01*
X145852335Y-69756206D01*
X145852328Y-69756202D01*
X145717482Y-69705908D01*
X145717483Y-69705908D01*
X145657883Y-69699501D01*
X145657881Y-69699500D01*
X145657873Y-69699500D01*
X145657865Y-69699500D01*
X145163725Y-69699500D01*
X145096686Y-69679815D01*
X145050931Y-69627011D01*
X145040987Y-69557853D01*
X145049164Y-69528048D01*
X145101470Y-69401766D01*
X145101472Y-69401762D01*
X145127177Y-69272534D01*
X145132373Y-69246415D01*
X145164758Y-69184504D01*
X145166252Y-69182982D01*
X147212417Y-67136819D01*
X147273740Y-67103334D01*
X147300098Y-67100500D01*
X148199903Y-67100500D01*
X148266942Y-67120185D01*
X148287584Y-67136819D01*
X148665425Y-67514660D01*
X148698910Y-67575983D01*
X148699361Y-67578149D01*
X148730261Y-67733491D01*
X148730264Y-67733501D01*
X148790602Y-67879172D01*
X148790609Y-67879185D01*
X148878210Y-68010288D01*
X148878213Y-68010292D01*
X148989707Y-68121786D01*
X148989711Y-68121789D01*
X149120814Y-68209390D01*
X149120827Y-68209397D01*
X149258683Y-68266498D01*
X149266503Y-68269737D01*
X149411521Y-68298583D01*
X149421153Y-68300499D01*
X149421156Y-68300500D01*
X149421158Y-68300500D01*
X149578844Y-68300500D01*
X149578845Y-68300499D01*
X149733497Y-68269737D01*
X149854182Y-68219748D01*
X149879172Y-68209397D01*
X149879172Y-68209396D01*
X149879179Y-68209394D01*
X150010289Y-68121789D01*
X150121789Y-68010289D01*
X150209394Y-67879179D01*
X150269737Y-67733497D01*
X150300500Y-67578842D01*
X150300500Y-67421158D01*
X150300500Y-67421155D01*
X150300499Y-67421153D01*
X150274531Y-67290606D01*
X150269737Y-67266503D01*
X150256062Y-67233489D01*
X150209397Y-67120827D01*
X150209390Y-67120814D01*
X150121789Y-66989711D01*
X150121786Y-66989707D01*
X150010292Y-66878213D01*
X150010288Y-66878210D01*
X149879185Y-66790609D01*
X149879172Y-66790602D01*
X149733501Y-66730264D01*
X149733491Y-66730261D01*
X149578151Y-66699362D01*
X149516241Y-66666977D01*
X149514662Y-66665426D01*
X148987590Y-66138355D01*
X148987588Y-66138352D01*
X148868717Y-66019481D01*
X148868716Y-66019480D01*
X148781904Y-65969360D01*
X148781904Y-65969359D01*
X148781900Y-65969358D01*
X148731785Y-65940423D01*
X148579057Y-65899499D01*
X148420943Y-65899499D01*
X148413347Y-65899499D01*
X148413331Y-65899500D01*
X147086670Y-65899500D01*
X147086654Y-65899499D01*
X147079058Y-65899499D01*
X146920943Y-65899499D01*
X146844579Y-65919961D01*
X146768214Y-65940423D01*
X146768209Y-65940426D01*
X146631290Y-66019475D01*
X146631282Y-66019481D01*
X144352181Y-68298583D01*
X144290858Y-68332068D01*
X144221166Y-68327084D01*
X144165233Y-68285212D01*
X144140816Y-68219748D01*
X144140500Y-68210902D01*
X144140500Y-62913389D01*
X144979500Y-62913389D01*
X144979500Y-63086610D01*
X145001870Y-63227854D01*
X145006598Y-63257701D01*
X145060127Y-63422445D01*
X145138768Y-63576788D01*
X145240586Y-63716928D01*
X145363072Y-63839414D01*
X145503212Y-63941232D01*
X145657555Y-64019873D01*
X145822299Y-64073402D01*
X145993389Y-64100500D01*
X145993390Y-64100500D01*
X146166610Y-64100500D01*
X146166611Y-64100500D01*
X146337701Y-64073402D01*
X146502445Y-64019873D01*
X146656788Y-63941232D01*
X146796928Y-63839414D01*
X146919414Y-63716928D01*
X147021232Y-63576788D01*
X147099873Y-63422445D01*
X147153402Y-63257701D01*
X147180500Y-63086611D01*
X147180500Y-62913389D01*
X147153402Y-62742299D01*
X147099873Y-62577555D01*
X147021232Y-62423212D01*
X146919414Y-62283072D01*
X146796928Y-62160586D01*
X146656788Y-62058768D01*
X146502445Y-61980127D01*
X146337701Y-61926598D01*
X146337699Y-61926597D01*
X146337698Y-61926597D01*
X146206271Y-61905781D01*
X146166611Y-61899500D01*
X145993389Y-61899500D01*
X145953728Y-61905781D01*
X145822302Y-61926597D01*
X145657552Y-61980128D01*
X145503211Y-62058768D01*
X145479019Y-62076345D01*
X145363072Y-62160586D01*
X145363070Y-62160588D01*
X145363069Y-62160588D01*
X145240588Y-62283069D01*
X145240588Y-62283070D01*
X145240586Y-62283072D01*
X145205380Y-62331529D01*
X145138768Y-62423211D01*
X145060128Y-62577552D01*
X145006597Y-62742302D01*
X144979500Y-62913389D01*
X144140500Y-62913389D01*
X144140500Y-59486300D01*
X144160185Y-59419261D01*
X144208204Y-59375815D01*
X144378845Y-59288870D01*
X144582656Y-59140793D01*
X144760793Y-58962656D01*
X144908870Y-58758845D01*
X145023241Y-58534379D01*
X145101090Y-58294785D01*
X145140500Y-58045962D01*
X145140500Y-57794038D01*
X145101090Y-57545215D01*
X145023241Y-57305621D01*
X145023239Y-57305618D01*
X145023239Y-57305616D01*
X144976459Y-57213806D01*
X144908870Y-57081155D01*
X144885663Y-57049213D01*
X144760798Y-56877350D01*
X144760794Y-56877345D01*
X144582654Y-56699205D01*
X144582649Y-56699201D01*
X144378848Y-56551132D01*
X144378847Y-56551131D01*
X144378845Y-56551130D01*
X144308747Y-56515413D01*
X144154383Y-56436760D01*
X143914785Y-56358910D01*
X143665962Y-56319500D01*
X143414038Y-56319500D01*
X143331097Y-56332636D01*
X143165213Y-56358910D01*
X143165209Y-56358911D01*
X143162815Y-56359689D01*
X143161853Y-56359716D01*
X143160468Y-56360049D01*
X143160398Y-56359757D01*
X143092974Y-56361682D01*
X143033142Y-56325601D01*
X143002316Y-56262899D01*
X143000500Y-56241757D01*
X143000500Y-53460439D01*
X142980020Y-53384009D01*
X142980017Y-53384004D01*
X142940464Y-53315495D01*
X142940458Y-53315487D01*
X142884512Y-53259541D01*
X142884504Y-53259535D01*
X142815995Y-53219982D01*
X142815990Y-53219979D01*
X142790513Y-53213152D01*
X142739562Y-53199500D01*
X139339562Y-53199500D01*
X139260438Y-53199500D01*
X139222224Y-53209739D01*
X139184009Y-53219979D01*
X139184004Y-53219982D01*
X139115495Y-53259535D01*
X139115487Y-53259541D01*
X139059541Y-53315487D01*
X139059535Y-53315495D01*
X139019982Y-53384004D01*
X139019979Y-53384009D01*
X139006326Y-53434962D01*
X138999500Y-53460438D01*
X138999500Y-56460438D01*
X138999500Y-56539562D01*
X139013152Y-56590513D01*
X139019979Y-56615990D01*
X139019982Y-56615995D01*
X139059535Y-56684504D01*
X139059539Y-56684509D01*
X139059540Y-56684511D01*
X139115489Y-56740460D01*
X139115491Y-56740461D01*
X139115495Y-56740464D01*
X139160588Y-56766498D01*
X139184011Y-56780021D01*
X139260438Y-56800500D01*
X142131673Y-56800500D01*
X142198712Y-56820185D01*
X142244467Y-56872989D01*
X142254411Y-56942147D01*
X142231992Y-56997385D01*
X142171129Y-57081155D01*
X142056760Y-57305616D01*
X141978910Y-57545214D01*
X141965652Y-57628920D01*
X141939500Y-57794038D01*
X141939500Y-58045962D01*
X141970126Y-58239324D01*
X141978910Y-58294785D01*
X142056760Y-58534383D01*
X142106135Y-58631285D01*
X142160662Y-58738301D01*
X142171132Y-58758848D01*
X142319201Y-58962649D01*
X142319205Y-58962654D01*
X142497345Y-59140794D01*
X142497350Y-59140798D01*
X142652237Y-59253329D01*
X142701155Y-59288870D01*
X142871795Y-59375815D01*
X142922591Y-59423789D01*
X142939500Y-59486300D01*
X142939500Y-61465461D01*
X142919815Y-61532500D01*
X142867011Y-61578255D01*
X142797853Y-61588199D01*
X142734297Y-61559174D01*
X142717125Y-61540949D01*
X142695644Y-61512955D01*
X142487047Y-61304358D01*
X142487040Y-61304352D01*
X142252993Y-61124761D01*
X141997510Y-60977258D01*
X141997500Y-60977254D01*
X141724961Y-60864364D01*
X141724954Y-60864362D01*
X141724952Y-60864361D01*
X141439993Y-60788007D01*
X141373326Y-60779230D01*
X141147513Y-60749500D01*
X141147506Y-60749500D01*
X140852494Y-60749500D01*
X140852486Y-60749500D01*
X140574085Y-60786153D01*
X140560007Y-60788007D01*
X140307103Y-60855772D01*
X140275048Y-60864361D01*
X140275038Y-60864364D01*
X140002499Y-60977254D01*
X140002489Y-60977258D01*
X139747006Y-61124761D01*
X139512959Y-61304352D01*
X139512952Y-61304358D01*
X139304358Y-61512952D01*
X139304352Y-61512959D01*
X139124761Y-61747006D01*
X138977258Y-62002489D01*
X138977254Y-62002499D01*
X138864364Y-62275038D01*
X138864361Y-62275048D01*
X138788823Y-62556964D01*
X138788008Y-62560004D01*
X138788006Y-62560015D01*
X138749500Y-62852486D01*
X138749500Y-63147513D01*
X138768340Y-63290609D01*
X138788007Y-63439993D01*
X138864361Y-63724951D01*
X138864364Y-63724961D01*
X138977254Y-63997500D01*
X138977258Y-63997510D01*
X139124761Y-64252993D01*
X139304352Y-64487040D01*
X139304358Y-64487047D01*
X139512952Y-64695641D01*
X139512959Y-64695647D01*
X139747006Y-64875238D01*
X140002489Y-65022741D01*
X140002490Y-65022741D01*
X140002493Y-65022743D01*
X140275048Y-65135639D01*
X140560007Y-65211993D01*
X140852494Y-65250500D01*
X140852501Y-65250500D01*
X141147499Y-65250500D01*
X141147506Y-65250500D01*
X141439993Y-65211993D01*
X141724952Y-65135639D01*
X141997507Y-65022743D01*
X142252994Y-64875238D01*
X142487042Y-64695646D01*
X142695646Y-64487042D01*
X142717124Y-64459052D01*
X142773552Y-64417849D01*
X142843298Y-64413694D01*
X142904218Y-64447906D01*
X142936971Y-64509624D01*
X142939500Y-64534538D01*
X142939500Y-67082152D01*
X142919815Y-67149191D01*
X142867011Y-67194946D01*
X142839692Y-67203769D01*
X142706508Y-67230261D01*
X142706498Y-67230264D01*
X142560827Y-67290602D01*
X142560814Y-67290609D01*
X142429125Y-67378602D01*
X142362447Y-67399480D01*
X142360234Y-67399500D01*
X139086670Y-67399500D01*
X139086654Y-67399499D01*
X139079058Y-67399499D01*
X138920943Y-67399499D01*
X138844579Y-67419961D01*
X138768214Y-67440423D01*
X138768209Y-67440426D01*
X138631290Y-67519475D01*
X138631286Y-67519478D01*
X138485337Y-67665427D01*
X138424014Y-67698911D01*
X138421848Y-67699362D01*
X138266508Y-67730261D01*
X138266498Y-67730264D01*
X138120827Y-67790602D01*
X138120814Y-67790609D01*
X137984646Y-67881595D01*
X137983298Y-67879577D01*
X137928799Y-67902695D01*
X137859937Y-67890872D01*
X137808398Y-67843697D01*
X137790500Y-67779522D01*
X137790500Y-62026300D01*
X137810185Y-61959261D01*
X137858204Y-61915815D01*
X138028845Y-61828870D01*
X138232656Y-61680793D01*
X138410793Y-61502656D01*
X138558870Y-61298845D01*
X138673241Y-61074379D01*
X138751090Y-60834785D01*
X138790500Y-60585962D01*
X138790500Y-60334038D01*
X138751090Y-60085215D01*
X138673241Y-59845621D01*
X138673239Y-59845618D01*
X138673239Y-59845616D01*
X138589447Y-59681166D01*
X138558870Y-59621155D01*
X138485740Y-59520500D01*
X138410798Y-59417350D01*
X138410794Y-59417345D01*
X138232654Y-59239205D01*
X138232649Y-59239201D01*
X138028848Y-59091132D01*
X138028847Y-59091131D01*
X138028845Y-59091130D01*
X137927109Y-59039293D01*
X137804383Y-58976760D01*
X137564785Y-58898910D01*
X137440165Y-58879172D01*
X137315962Y-58859500D01*
X137064038Y-58859500D01*
X136939835Y-58879172D01*
X136815214Y-58898910D01*
X136575616Y-58976760D01*
X136351151Y-59091132D01*
X136147350Y-59239201D01*
X136147345Y-59239205D01*
X135969205Y-59417345D01*
X135969201Y-59417350D01*
X135821132Y-59621151D01*
X135706760Y-59845616D01*
X135628910Y-60085214D01*
X135605425Y-60233491D01*
X135589500Y-60334038D01*
X135589500Y-60585962D01*
X135620111Y-60779230D01*
X135628910Y-60834785D01*
X135706760Y-61074383D01*
X135732430Y-61124762D01*
X135810662Y-61278301D01*
X135821132Y-61298848D01*
X135969201Y-61502649D01*
X135969205Y-61502654D01*
X135969207Y-61502656D01*
X136147344Y-61680793D01*
X136147345Y-61680794D01*
X136147344Y-61680794D01*
X136153661Y-61685383D01*
X136196327Y-61740714D01*
X136202305Y-61810327D01*
X136169699Y-61872122D01*
X136108860Y-61906479D01*
X136061378Y-61908174D01*
X136006611Y-61899500D01*
X135833389Y-61899500D01*
X135793728Y-61905781D01*
X135662302Y-61926597D01*
X135497552Y-61980128D01*
X135343210Y-62058769D01*
X135343204Y-62058772D01*
X135329549Y-62068694D01*
X135263742Y-62092172D01*
X135195689Y-62076345D01*
X135153564Y-62037265D01*
X135121789Y-61989711D01*
X135121786Y-61989707D01*
X135010292Y-61878213D01*
X135010288Y-61878210D01*
X134879185Y-61790609D01*
X134879172Y-61790602D01*
X134733501Y-61730264D01*
X134733489Y-61730261D01*
X134578845Y-61699500D01*
X134578842Y-61699500D01*
X134421158Y-61699500D01*
X134421155Y-61699500D01*
X134266510Y-61730261D01*
X134266498Y-61730264D01*
X134120827Y-61790602D01*
X134120814Y-61790609D01*
X133989711Y-61878210D01*
X133989707Y-61878213D01*
X133878213Y-61989707D01*
X133878210Y-61989711D01*
X133790609Y-62120814D01*
X133790602Y-62120827D01*
X133730264Y-62266498D01*
X133730261Y-62266510D01*
X133699500Y-62421153D01*
X133699500Y-62578846D01*
X133730261Y-62733489D01*
X133730264Y-62733501D01*
X133790602Y-62879172D01*
X133790609Y-62879185D01*
X133856358Y-62977584D01*
X133874140Y-63004197D01*
X133878602Y-63010874D01*
X133899480Y-63077551D01*
X133899500Y-63079765D01*
X133899500Y-66420234D01*
X133879815Y-66487273D01*
X133878602Y-66489125D01*
X133790609Y-66620814D01*
X133790602Y-66620827D01*
X133730264Y-66766498D01*
X133730261Y-66766510D01*
X133699500Y-66921153D01*
X133699500Y-67078846D01*
X133730261Y-67233489D01*
X133730264Y-67233501D01*
X133790602Y-67379172D01*
X133790609Y-67379185D01*
X133878210Y-67510288D01*
X133878213Y-67510292D01*
X133989707Y-67621786D01*
X133989711Y-67621789D01*
X134120814Y-67709390D01*
X134120827Y-67709397D01*
X134247609Y-67761911D01*
X134266503Y-67769737D01*
X134421153Y-67800499D01*
X134421156Y-67800500D01*
X134421158Y-67800500D01*
X134578844Y-67800500D01*
X134578845Y-67800499D01*
X134733497Y-67769737D01*
X134879179Y-67709394D01*
X135010289Y-67621789D01*
X135121789Y-67510289D01*
X135209394Y-67379179D01*
X135269737Y-67233497D01*
X135300500Y-67078842D01*
X135300500Y-66921158D01*
X135300500Y-66921155D01*
X135300499Y-66921153D01*
X135276539Y-66800699D01*
X135269737Y-66766503D01*
X135261827Y-66747406D01*
X135209397Y-66620827D01*
X135209390Y-66620814D01*
X135121398Y-66489125D01*
X135100520Y-66422447D01*
X135100500Y-66420234D01*
X135100500Y-64008255D01*
X135120185Y-63941216D01*
X135172989Y-63895461D01*
X135242147Y-63885517D01*
X135297384Y-63907936D01*
X135343212Y-63941232D01*
X135497555Y-64019873D01*
X135662299Y-64073402D01*
X135833389Y-64100500D01*
X135833390Y-64100500D01*
X136006610Y-64100500D01*
X136006611Y-64100500D01*
X136177701Y-64073402D01*
X136342445Y-64019873D01*
X136409206Y-63985856D01*
X136477874Y-63972961D01*
X136542615Y-63999237D01*
X136582872Y-64056344D01*
X136589500Y-64096342D01*
X136589500Y-69770397D01*
X136569815Y-69837436D01*
X136521800Y-69880879D01*
X136508389Y-69887712D01*
X136342786Y-70008028D01*
X136198028Y-70152786D01*
X136077715Y-70318386D01*
X135984781Y-70500776D01*
X135921522Y-70695465D01*
X135889500Y-70897648D01*
X135889500Y-71102351D01*
X135921522Y-71304534D01*
X135984781Y-71499223D01*
X136077715Y-71681613D01*
X136198028Y-71847213D01*
X136342786Y-71991971D01*
X136479742Y-72091473D01*
X136508390Y-72112287D01*
X136597212Y-72157544D01*
X136690776Y-72205218D01*
X136690778Y-72205218D01*
X136690781Y-72205220D01*
X136736205Y-72219979D01*
X136885465Y-72268477D01*
X136986557Y-72284488D01*
X137087648Y-72300500D01*
X137087649Y-72300500D01*
X137292351Y-72300500D01*
X137292352Y-72300500D01*
X137494534Y-72268477D01*
X137689219Y-72205220D01*
X137871610Y-72112287D01*
X137967901Y-72042328D01*
X138037213Y-71991971D01*
X138037215Y-71991968D01*
X138037219Y-71991966D01*
X138181966Y-71847219D01*
X138181968Y-71847215D01*
X138181971Y-71847213D01*
X138234732Y-71774590D01*
X138302287Y-71681610D01*
X138395220Y-71499219D01*
X138458477Y-71304534D01*
X138490500Y-71102352D01*
X138490500Y-70897648D01*
X138468570Y-70759187D01*
X138458477Y-70695465D01*
X138420584Y-70578844D01*
X138395220Y-70500781D01*
X138395218Y-70500778D01*
X138395218Y-70500776D01*
X138354647Y-70421153D01*
X138302287Y-70318390D01*
X138279500Y-70287026D01*
X138181971Y-70152786D01*
X138037213Y-70008028D01*
X137871610Y-69887712D01*
X137858200Y-69880879D01*
X137807406Y-69832903D01*
X137790500Y-69770397D01*
X137790500Y-69220477D01*
X137810185Y-69153438D01*
X137862989Y-69107683D01*
X137932147Y-69097739D01*
X137983372Y-69120310D01*
X137984646Y-69118405D01*
X138120814Y-69209390D01*
X138120827Y-69209397D01*
X138264856Y-69269055D01*
X138266503Y-69269737D01*
X138421153Y-69300499D01*
X138421156Y-69300500D01*
X138421158Y-69300500D01*
X138578844Y-69300500D01*
X138578845Y-69300499D01*
X138733497Y-69269737D01*
X138879179Y-69209394D01*
X139010289Y-69121789D01*
X139121789Y-69010289D01*
X139209394Y-68879179D01*
X139269737Y-68733497D01*
X139274531Y-68709397D01*
X139276339Y-68700309D01*
X139308724Y-68638398D01*
X139369439Y-68603824D01*
X139397956Y-68600500D01*
X142360234Y-68600500D01*
X142427273Y-68620185D01*
X142429125Y-68621398D01*
X142560814Y-68709390D01*
X142560827Y-68709397D01*
X142698683Y-68766498D01*
X142706503Y-68769737D01*
X142816987Y-68791713D01*
X142839691Y-68796230D01*
X142901602Y-68828615D01*
X142936176Y-68889330D01*
X142939500Y-68917847D01*
X142939500Y-72091473D01*
X142919815Y-72158512D01*
X142867011Y-72204267D01*
X142797853Y-72214211D01*
X142783407Y-72211248D01*
X142739562Y-72199500D01*
X139339562Y-72199500D01*
X139260438Y-72199500D01*
X139222224Y-72209739D01*
X139184009Y-72219979D01*
X139184004Y-72219982D01*
X139115495Y-72259535D01*
X139115487Y-72259541D01*
X139059541Y-72315487D01*
X139059535Y-72315495D01*
X139019982Y-72384004D01*
X139019979Y-72384009D01*
X139009130Y-72424499D01*
X138999500Y-72460438D01*
X138999500Y-75460438D01*
X138999500Y-75539562D01*
X139010082Y-75579054D01*
X139019979Y-75615990D01*
X139019982Y-75615995D01*
X139059535Y-75684504D01*
X139059539Y-75684509D01*
X139059540Y-75684511D01*
X139115489Y-75740460D01*
X139115491Y-75740461D01*
X139115495Y-75740464D01*
X139184004Y-75780017D01*
X139184011Y-75780021D01*
X139260438Y-75800500D01*
X142131673Y-75800500D01*
X142198712Y-75820185D01*
X142244467Y-75872989D01*
X142254411Y-75942147D01*
X142231992Y-75997385D01*
X142171129Y-76081155D01*
X142084185Y-76251795D01*
X142036211Y-76302591D01*
X141973700Y-76319500D01*
X134324822Y-76319500D01*
X134257783Y-76299815D01*
X134237141Y-76283181D01*
X130848156Y-72894196D01*
X130814671Y-72832873D01*
X130819655Y-72763181D01*
X130861527Y-72707248D01*
X130926991Y-72682831D01*
X130935837Y-72682515D01*
X132070786Y-72682515D01*
X132070787Y-72682515D01*
X132280743Y-72649261D01*
X132482912Y-72583572D01*
X132672316Y-72487066D01*
X132758433Y-72424499D01*
X132844286Y-72362124D01*
X132844288Y-72362121D01*
X132844292Y-72362119D01*
X132994604Y-72211807D01*
X132994606Y-72211803D01*
X132994609Y-72211801D01*
X133119548Y-72039835D01*
X133119547Y-72039835D01*
X133119551Y-72039831D01*
X133216057Y-71850427D01*
X133281746Y-71648258D01*
X133315000Y-71438302D01*
X133315000Y-71225728D01*
X133281746Y-71015772D01*
X133216057Y-70813603D01*
X133119551Y-70624199D01*
X133119549Y-70624196D01*
X133119548Y-70624194D01*
X132994609Y-70452228D01*
X132844286Y-70301905D01*
X132672320Y-70176966D01*
X132671615Y-70176606D01*
X132663554Y-70172500D01*
X132612759Y-70124527D01*
X132595963Y-70056707D01*
X132618499Y-69990571D01*
X132663554Y-69951530D01*
X132672316Y-69947066D01*
X132709247Y-69920234D01*
X132844286Y-69822124D01*
X132844288Y-69822121D01*
X132844292Y-69822119D01*
X132994604Y-69671807D01*
X132994606Y-69671803D01*
X132994609Y-69671801D01*
X133119548Y-69499835D01*
X133119547Y-69499835D01*
X133119551Y-69499831D01*
X133216057Y-69310427D01*
X133281746Y-69108258D01*
X133315000Y-68898302D01*
X133315000Y-68685728D01*
X133281746Y-68475772D01*
X133216057Y-68273603D01*
X133119551Y-68084199D01*
X133119549Y-68084196D01*
X133119548Y-68084194D01*
X132994609Y-67912228D01*
X132844286Y-67761905D01*
X132672320Y-67636966D01*
X132671615Y-67636606D01*
X132663554Y-67632500D01*
X132612759Y-67584527D01*
X132595963Y-67516707D01*
X132618499Y-67450571D01*
X132663554Y-67411530D01*
X132672316Y-67407066D01*
X132710691Y-67379185D01*
X132844286Y-67282124D01*
X132844288Y-67282121D01*
X132844292Y-67282119D01*
X132994604Y-67131807D01*
X132994606Y-67131803D01*
X132994609Y-67131801D01*
X133119548Y-66959835D01*
X133119547Y-66959835D01*
X133119551Y-66959831D01*
X133216057Y-66770427D01*
X133281746Y-66568258D01*
X133315000Y-66358302D01*
X133315000Y-66145728D01*
X133281746Y-65935772D01*
X133216057Y-65733603D01*
X133119551Y-65544199D01*
X133119549Y-65544196D01*
X133119548Y-65544194D01*
X132994609Y-65372228D01*
X132844286Y-65221905D01*
X132672320Y-65096966D01*
X132671615Y-65096606D01*
X132663554Y-65092500D01*
X132612759Y-65044527D01*
X132595963Y-64976707D01*
X132618499Y-64910571D01*
X132663554Y-64871530D01*
X132672316Y-64867066D01*
X132694289Y-64851101D01*
X132844286Y-64742124D01*
X132844288Y-64742121D01*
X132844292Y-64742119D01*
X132994604Y-64591807D01*
X132994606Y-64591803D01*
X132994609Y-64591801D01*
X133119548Y-64419835D01*
X133119547Y-64419835D01*
X133119551Y-64419831D01*
X133216057Y-64230427D01*
X133281746Y-64028258D01*
X133315000Y-63818302D01*
X133315000Y-63605728D01*
X133281746Y-63395772D01*
X133216057Y-63193603D01*
X133119551Y-63004199D01*
X133119549Y-63004196D01*
X133119548Y-63004194D01*
X132994609Y-62832228D01*
X132844286Y-62681905D01*
X132672320Y-62556966D01*
X132671615Y-62556606D01*
X132663554Y-62552500D01*
X132612759Y-62504527D01*
X132595963Y-62436707D01*
X132618499Y-62370571D01*
X132663554Y-62331530D01*
X132672316Y-62327066D01*
X132755665Y-62266510D01*
X132844286Y-62202124D01*
X132844288Y-62202121D01*
X132844292Y-62202119D01*
X132994604Y-62051807D01*
X132994606Y-62051803D01*
X132994609Y-62051801D01*
X133119548Y-61879835D01*
X133119547Y-61879835D01*
X133119551Y-61879831D01*
X133216057Y-61690427D01*
X133281746Y-61488258D01*
X133315000Y-61278302D01*
X133315000Y-61065728D01*
X133281746Y-60855772D01*
X133216057Y-60653603D01*
X133119551Y-60464199D01*
X133119549Y-60464196D01*
X133119548Y-60464194D01*
X132994609Y-60292228D01*
X132844286Y-60141905D01*
X132672320Y-60016966D01*
X132667794Y-60014660D01*
X132663554Y-60012500D01*
X132612759Y-59964527D01*
X132595963Y-59896707D01*
X132618499Y-59830571D01*
X132663554Y-59791530D01*
X132672316Y-59787066D01*
X132700626Y-59766498D01*
X132844286Y-59662124D01*
X132844288Y-59662121D01*
X132844292Y-59662119D01*
X132994604Y-59511807D01*
X132994606Y-59511803D01*
X132994609Y-59511801D01*
X133061842Y-59419261D01*
X133119551Y-59339831D01*
X133123020Y-59333023D01*
X133139735Y-59300220D01*
X133150183Y-59289157D01*
X133156506Y-59275312D01*
X133173687Y-59264270D01*
X133187709Y-59249424D01*
X133203388Y-59245182D01*
X133215284Y-59237538D01*
X133250219Y-59232515D01*
X133281316Y-59232515D01*
X133281332Y-59232516D01*
X133288928Y-59232516D01*
X133447039Y-59232516D01*
X133447042Y-59232516D01*
X133599770Y-59191592D01*
X133670943Y-59150500D01*
X133736701Y-59112535D01*
X133848505Y-59000731D01*
X133848505Y-59000729D01*
X133858709Y-58990526D01*
X133858713Y-58990521D01*
X134358506Y-58490728D01*
X134358511Y-58490724D01*
X134368714Y-58480520D01*
X134368716Y-58480520D01*
X134480520Y-58368716D01*
X134541382Y-58263299D01*
X134559577Y-58231785D01*
X134600500Y-58079057D01*
X134600500Y-57920943D01*
X134600500Y-57920942D01*
X134600500Y-55089059D01*
X134600501Y-55089046D01*
X134600501Y-54920945D01*
X134600501Y-54920943D01*
X134559577Y-54768215D01*
X134519904Y-54699500D01*
X134480520Y-54631284D01*
X134368716Y-54519480D01*
X134364385Y-54515149D01*
X134364374Y-54515139D01*
X132861416Y-53012181D01*
X132827931Y-52950858D01*
X132832915Y-52881166D01*
X132874787Y-52825233D01*
X132940251Y-52800816D01*
X132949097Y-52800500D01*
X150575500Y-52800500D01*
X150642539Y-52820185D01*
X150688294Y-52872989D01*
X150699500Y-52924500D01*
X150699500Y-91575500D01*
X150679815Y-91642539D01*
X150627011Y-91688294D01*
X150575500Y-91699500D01*
X61924500Y-91699500D01*
X61857461Y-91679815D01*
X61811706Y-91627011D01*
X61800500Y-91575500D01*
X61800500Y-89393713D01*
X63069500Y-89393713D01*
X63069500Y-89606286D01*
X63083624Y-89695465D01*
X63102754Y-89816243D01*
X63129204Y-89897648D01*
X63168444Y-90018414D01*
X63264951Y-90207820D01*
X63389890Y-90379786D01*
X63540213Y-90530109D01*
X63712179Y-90655048D01*
X63712181Y-90655049D01*
X63712184Y-90655051D01*
X63901588Y-90751557D01*
X64103757Y-90817246D01*
X64313713Y-90850500D01*
X64313714Y-90850500D01*
X64526286Y-90850500D01*
X64526287Y-90850500D01*
X64736243Y-90817246D01*
X64938412Y-90751557D01*
X65127816Y-90655051D01*
X65214138Y-90592335D01*
X65299786Y-90530109D01*
X65299788Y-90530106D01*
X65299792Y-90530104D01*
X65450104Y-90379792D01*
X65450106Y-90379788D01*
X65450109Y-90379786D01*
X65575048Y-90207820D01*
X65575047Y-90207820D01*
X65575051Y-90207816D01*
X65579514Y-90199054D01*
X65627488Y-90148259D01*
X65695308Y-90131463D01*
X65761444Y-90153999D01*
X65800486Y-90199056D01*
X65804951Y-90207820D01*
X65929890Y-90379786D01*
X66080213Y-90530109D01*
X66252179Y-90655048D01*
X66252181Y-90655049D01*
X66252184Y-90655051D01*
X66441588Y-90751557D01*
X66643757Y-90817246D01*
X66853713Y-90850500D01*
X66853714Y-90850500D01*
X67066286Y-90850500D01*
X67066287Y-90850500D01*
X67276243Y-90817246D01*
X67478412Y-90751557D01*
X67667816Y-90655051D01*
X67754138Y-90592335D01*
X67839786Y-90530109D01*
X67839788Y-90530106D01*
X67839792Y-90530104D01*
X67990104Y-90379792D01*
X67990106Y-90379788D01*
X67990109Y-90379786D01*
X68115048Y-90207820D01*
X68115047Y-90207820D01*
X68115051Y-90207816D01*
X68119514Y-90199054D01*
X68167488Y-90148259D01*
X68235308Y-90131463D01*
X68301444Y-90153999D01*
X68340486Y-90199056D01*
X68344951Y-90207820D01*
X68469890Y-90379786D01*
X68620213Y-90530109D01*
X68792179Y-90655048D01*
X68792181Y-90655049D01*
X68792184Y-90655051D01*
X68981588Y-90751557D01*
X69183757Y-90817246D01*
X69393713Y-90850500D01*
X69393714Y-90850500D01*
X69606286Y-90850500D01*
X69606287Y-90850500D01*
X69816243Y-90817246D01*
X70018412Y-90751557D01*
X70207816Y-90655051D01*
X70379792Y-90530104D01*
X70493329Y-90416566D01*
X70554648Y-90383084D01*
X70624340Y-90388068D01*
X70680274Y-90429939D01*
X70697189Y-90460917D01*
X70746202Y-90592328D01*
X70746206Y-90592335D01*
X70832452Y-90707544D01*
X70832455Y-90707547D01*
X70947664Y-90793793D01*
X70947671Y-90793797D01*
X71082517Y-90844091D01*
X71082516Y-90844091D01*
X71089444Y-90844835D01*
X71142127Y-90850500D01*
X72937872Y-90850499D01*
X72997483Y-90844091D01*
X73132331Y-90793796D01*
X73247546Y-90707546D01*
X73333796Y-90592331D01*
X73384091Y-90457483D01*
X73390500Y-90397873D01*
X73390499Y-88602128D01*
X73384091Y-88542517D01*
X73382810Y-88539083D01*
X73333797Y-88407671D01*
X73333793Y-88407664D01*
X73247547Y-88292455D01*
X73247544Y-88292452D01*
X73132335Y-88206206D01*
X73132328Y-88206202D01*
X72997482Y-88155908D01*
X72997483Y-88155908D01*
X72937883Y-88149501D01*
X72937881Y-88149500D01*
X72937873Y-88149500D01*
X72937864Y-88149500D01*
X71142129Y-88149500D01*
X71142123Y-88149501D01*
X71082516Y-88155908D01*
X70947671Y-88206202D01*
X70947664Y-88206206D01*
X70832455Y-88292452D01*
X70832452Y-88292455D01*
X70746206Y-88407664D01*
X70746203Y-88407669D01*
X70697189Y-88539083D01*
X70655317Y-88595016D01*
X70589853Y-88619433D01*
X70521580Y-88604581D01*
X70493326Y-88583430D01*
X70379786Y-88469890D01*
X70207820Y-88344951D01*
X70018414Y-88248444D01*
X70018413Y-88248443D01*
X70018412Y-88248443D01*
X69816243Y-88182754D01*
X69816241Y-88182753D01*
X69816240Y-88182753D01*
X69654957Y-88157208D01*
X69606287Y-88149500D01*
X69393713Y-88149500D01*
X69345042Y-88157208D01*
X69183760Y-88182753D01*
X68981585Y-88248444D01*
X68792179Y-88344951D01*
X68620213Y-88469890D01*
X68469890Y-88620213D01*
X68344949Y-88792182D01*
X68340484Y-88800946D01*
X68292509Y-88851742D01*
X68224688Y-88868536D01*
X68158553Y-88845998D01*
X68119516Y-88800946D01*
X68115050Y-88792182D01*
X67990109Y-88620213D01*
X67839786Y-88469890D01*
X67667820Y-88344951D01*
X67478414Y-88248444D01*
X67478413Y-88248443D01*
X67478412Y-88248443D01*
X67276243Y-88182754D01*
X67276241Y-88182753D01*
X67276240Y-88182753D01*
X67114957Y-88157208D01*
X67066287Y-88149500D01*
X66853713Y-88149500D01*
X66805042Y-88157208D01*
X66643760Y-88182753D01*
X66441585Y-88248444D01*
X66252179Y-88344951D01*
X66080213Y-88469890D01*
X65929890Y-88620213D01*
X65804949Y-88792182D01*
X65800484Y-88800946D01*
X65752509Y-88851742D01*
X65684688Y-88868536D01*
X65618553Y-88845998D01*
X65579516Y-88800946D01*
X65575050Y-88792182D01*
X65450109Y-88620213D01*
X65299786Y-88469890D01*
X65127820Y-88344951D01*
X64938414Y-88248444D01*
X64938413Y-88248443D01*
X64938412Y-88248443D01*
X64736243Y-88182754D01*
X64736241Y-88182753D01*
X64736240Y-88182753D01*
X64574957Y-88157208D01*
X64526287Y-88149500D01*
X64313713Y-88149500D01*
X64265042Y-88157208D01*
X64103760Y-88182753D01*
X63901585Y-88248444D01*
X63712179Y-88344951D01*
X63540213Y-88469890D01*
X63389890Y-88620213D01*
X63264951Y-88792179D01*
X63168444Y-88981585D01*
X63102753Y-89183760D01*
X63069500Y-89393713D01*
X61800500Y-89393713D01*
X61800500Y-86421153D01*
X69199500Y-86421153D01*
X69199500Y-86578846D01*
X69230261Y-86733489D01*
X69230264Y-86733501D01*
X69290602Y-86879172D01*
X69290609Y-86879185D01*
X69378210Y-87010288D01*
X69378213Y-87010292D01*
X69489707Y-87121786D01*
X69489711Y-87121789D01*
X69620814Y-87209390D01*
X69620827Y-87209397D01*
X69766498Y-87269735D01*
X69766503Y-87269737D01*
X69921153Y-87300499D01*
X69921156Y-87300500D01*
X69921158Y-87300500D01*
X70078844Y-87300500D01*
X70078845Y-87300499D01*
X70233497Y-87269737D01*
X70379179Y-87209394D01*
X70379185Y-87209390D01*
X70510875Y-87121398D01*
X70577553Y-87100520D01*
X70579766Y-87100500D01*
X77920234Y-87100500D01*
X77987273Y-87120185D01*
X77989125Y-87121398D01*
X78120814Y-87209390D01*
X78120827Y-87209397D01*
X78266498Y-87269735D01*
X78266503Y-87269737D01*
X78421153Y-87300499D01*
X78421156Y-87300500D01*
X78421158Y-87300500D01*
X78578844Y-87300500D01*
X78578845Y-87300499D01*
X78733497Y-87269737D01*
X78879179Y-87209394D01*
X79010289Y-87121789D01*
X79121789Y-87010289D01*
X79209394Y-86879179D01*
X79269737Y-86733497D01*
X79300500Y-86578842D01*
X79300500Y-86421158D01*
X79300500Y-86421155D01*
X79300499Y-86421153D01*
X79269738Y-86266510D01*
X79269737Y-86266503D01*
X79269735Y-86266498D01*
X79209397Y-86120827D01*
X79209390Y-86120814D01*
X79121789Y-85989711D01*
X79121786Y-85989707D01*
X79010292Y-85878213D01*
X79010288Y-85878210D01*
X78879185Y-85790609D01*
X78879172Y-85790602D01*
X78733501Y-85730264D01*
X78733489Y-85730261D01*
X78578845Y-85699500D01*
X78578842Y-85699500D01*
X78421158Y-85699500D01*
X78421155Y-85699500D01*
X78266510Y-85730261D01*
X78266498Y-85730264D01*
X78120827Y-85790602D01*
X78120814Y-85790609D01*
X77989125Y-85878602D01*
X77922447Y-85899480D01*
X77920234Y-85899500D01*
X70579766Y-85899500D01*
X70512727Y-85879815D01*
X70510875Y-85878602D01*
X70379185Y-85790609D01*
X70379172Y-85790602D01*
X70233501Y-85730264D01*
X70233489Y-85730261D01*
X70078845Y-85699500D01*
X70078842Y-85699500D01*
X69921158Y-85699500D01*
X69921155Y-85699500D01*
X69766510Y-85730261D01*
X69766498Y-85730264D01*
X69620827Y-85790602D01*
X69620814Y-85790609D01*
X69489711Y-85878210D01*
X69489707Y-85878213D01*
X69378213Y-85989707D01*
X69378210Y-85989711D01*
X69290609Y-86120814D01*
X69290602Y-86120827D01*
X69230264Y-86266498D01*
X69230261Y-86266510D01*
X69199500Y-86421153D01*
X61800500Y-86421153D01*
X61800500Y-52924500D01*
X61820185Y-52857461D01*
X61872989Y-52811706D01*
X61924500Y-52800500D01*
X90510902Y-52800500D01*
X90577941Y-52820185D01*
G37*
G04 #@! TD.AperFunction*
M02*
