M48
; DRILL file {KiCad 9.0.7} date 2026-02-26T22:02:35+1100
; FORMAT={-:-/ absolute / metric / decimal}
; #@! TF.CreationDate,2026-02-26T22:02:35+11:00
; #@! TF.GenerationSoftware,Kicad,Pcbnew,9.0.7
; #@! TF.FileFunction,Plated,1,2,PTH
FMAT,2
METRIC
; #@! TA.AperFunction,Plated,PTH,ViaDrill
T1C0.300
; #@! TA.AperFunction,Plated,PTH,ComponentDrill
T2C0.800
; #@! TA.AperFunction,Plated,PTH,ComponentDrill
T3C1.000
; #@! TA.AperFunction,Plated,PTH,ComponentDrill
T4C1.500
%
G90
G05
T1
X82.0Y-131.5
X87.5Y-111.0
X90.0Y-131.5
X90.5Y-111.0
X91.0Y-99.5
X91.0Y-119.0
X93.5Y-103.0
X98.64Y-107.0
X99.0Y-105.0
X101.0Y-118.5
X102.0Y-105.5
X102.5Y-100.0
X102.5Y-101.5
X103.5Y-111.5
X103.5Y-119.5
X104.0Y-105.0
X104.5Y-117.9
X105.5Y-105.5
X106.0Y-117.9
X107.0Y-124.5
X108.0Y-130.0
X108.5Y-117.5
X109.0Y-112.5
X109.5Y-102.0
X109.5Y-131.0
X110.0Y-99.5
X111.5Y-110.0
X111.5Y-112.5
X112.0Y-114.0
X113.5Y-105.0
X115.5Y-105.6
X116.0Y-112.5
X116.0Y-116.9
X116.44Y-105.6
X116.44Y-110.5
X118.0Y-111.0
X119.0Y-118.0
X119.5Y-100.5
X120.0Y-103.5
X120.0Y-105.0
X120.0Y-114.5
X121.0Y-119.0
X121.5Y-108.5
X122.0Y-105.5
X122.0Y-107.0
X122.0Y-116.883
X126.5Y-121.5
X128.5Y-99.5
X129.5Y-100.0
X129.5Y-102.0
X135.0Y-112.5
X135.44Y-114.0
X135.44Y-116.95
X136.64Y-106.5
X136.64Y-114.0
X137.24Y-109.5
X137.5Y-99.5
X137.5Y-105.5
X138.0Y-120.0
X138.4Y-121.32
X139.0Y-103.0
X139.0Y-105.5
X139.0Y-131.0
X139.5Y-129.5
X139.6Y-119.0
X140.0Y-112.5
X140.0Y-121.32
X145.0Y-129.5
X146.5Y-118.0
X147.5Y-118.5
X147.5Y-131.5
X150.0Y-114.0
X151.0Y-112.0
X156.5Y-100.0
X156.5Y-118.5
X158.0Y-112.5
T2
X91.69Y-116.0
X91.69Y-135.0
X99.31Y-116.0
X99.31Y-135.0
X110.69Y-116.0
X110.69Y-135.0
X118.31Y-116.0
X118.31Y-135.0
X129.69Y-116.0
X129.69Y-135.0
X137.31Y-116.0
X137.31Y-135.0
X148.69Y-116.0
X148.69Y-135.0
X156.31Y-116.0
X156.31Y-135.0
T3
X75.92Y-134.5
X78.46Y-134.5
X81.0Y-134.5
X83.54Y-134.5
X126.264Y-101.092
X126.264Y-103.632
X126.264Y-106.172
X126.264Y-108.712
X126.264Y-111.252
X126.264Y-113.792
X126.264Y-116.332
X141.514Y-101.092
X141.514Y-103.632
X141.514Y-106.172
X141.514Y-108.712
X141.514Y-111.252
X141.514Y-113.792
X141.514Y-116.332
T4
X91.69Y-105.46
X91.69Y-124.46
X98.04Y-102.92
X98.04Y-121.92
X110.69Y-105.46
X110.69Y-124.46
X117.04Y-102.92
X117.04Y-121.92
X129.69Y-105.46
X129.69Y-124.46
X136.04Y-102.92
X136.04Y-121.92
X148.69Y-105.46
X148.69Y-124.46
X155.04Y-102.92
X155.04Y-121.92
M30
